<svg width="175" height="244" viewBox="0 0 175 244" fill="none" xmlns="http://www.w3.org/2000/svg">
<path d="M54.5689 238.999C82.0394 238.999 104.309 234.987 104.309 230.039C104.309 225.091 82.0394 221.08 54.5689 221.08C27.0984 221.08 4.8291 225.091 4.8291 230.039C4.8291 234.987 27.0984 238.999 54.5689 238.999Z" fill="#AC302C"/>
<path opacity="0.1" d="M104.309 230.033C104.309 231.154 103.172 232.222 101.088 233.212C64.7618 226.725 42.8214 231.343 27.6528 237.571C13.9209 235.973 4.8291 233.195 4.8291 230.033C4.8291 225.091 27.0992 221.08 54.5689 221.08C82.0385 221.08 104.309 225.091 104.309 230.033Z" fill="black"/>
<path d="M3.07479 230.039C3.43399 226.453 11.4835 224.731 14.4395 223.917C36.3799 219.198 59.1918 219.399 81.4325 221.693C114.355 225.444 114.449 234.616 81.4325 238.544C59.18 240.815 36.3681 240.844 14.4219 236.185C11.3834 235.347 3.43399 233.637 3.05713 230.062L3.07479 230.039ZM3.13367 230.039C3.48698 233.525 11.5659 235.265 14.4748 236.002C23.2369 237.901 32.1991 238.656 41.1378 239.075C54.5616 239.733 68.0159 239.372 81.3854 237.995C113.884 234.344 113.996 225.739 81.3854 221.911C63.541 220.132 45.5631 220.158 27.7239 221.988C23.2724 222.432 18.8492 223.126 14.4748 224.064C11.4835 224.819 3.50465 226.541 3.13367 230.033V230.039Z" fill="#9B2B28"/>
<path d="M107.565 230.039C107.218 233.961 99.286 235.884 96.0886 236.845C73.4533 242.213 49.7228 241.977 26.7167 239.376C-6.94176 235.153 -7.03598 224.931 26.7167 220.531C45.2146 218.274 63.9195 218.306 82.4097 220.626C87.0268 221.206 91.6032 222.075 96.1121 223.227C99.3861 224.206 107.218 226.105 107.589 230.039H107.565ZM107.506 230.039C107.141 226.188 99.2212 224.265 96.0473 223.38C87.0144 221.204 77.7225 220.337 68.4658 219.841C54.5553 219.081 40.6057 219.492 26.7638 221.068C-6.48246 225.197 -6.58845 234.858 26.7638 239.14C45.2396 241.189 63.8861 241.165 82.3567 239.069C86.9699 238.564 91.5479 237.776 96.065 236.71C99.3036 235.813 107.153 233.891 107.524 230.057L107.506 230.039Z" fill="#9B2B28"/>
<path d="M69.6903 220.095C69.4018 208.404 69.3959 195.535 69.6903 183.839C69.9847 195.535 69.9788 208.404 69.6903 220.095Z" fill="#455A64"/>
<path d="M74.9902 236.668C76.4035 236.491 87.25 235.07 81.5853 233.194C78.4998 232.185 73.789 231.908 70.5386 231.542C74.2777 231.749 78.0581 231.826 81.6736 232.917C82.4274 233.147 84.241 233.896 83.1988 234.851C82.4029 235.389 81.5014 235.749 80.5548 235.907C78.7209 236.296 76.8611 236.55 74.9902 236.668Z" fill="white"/>
<path d="M64.6968 237.139C67.3054 236.939 69.8963 236.863 72.5108 236.88C69.9239 237.258 67.3029 237.345 64.6968 237.139Z" fill="white"/>
<path d="M50.5059 236.138C52.2638 236.235 54.0129 236.454 55.7407 236.792C53.972 236.856 52.2047 236.635 50.5059 236.138Z" fill="white"/>
<path d="M64.6968 231.401C61.4817 231.519 58.2725 231.649 55.075 231.956C53.4734 232.097 51.8776 232.286 50.2995 232.545C48.951 232.823 47.4848 232.988 46.3189 233.766C46.2349 233.822 46.1639 233.895 46.111 233.98C46.0581 234.066 46.0246 234.162 46.0127 234.262C46.0192 234.159 46.0479 234.059 46.0967 233.968C46.1454 233.878 46.2132 233.799 46.2953 233.737C47.4259 232.87 48.9039 232.64 50.2583 232.321C51.8423 232.003 53.4439 231.814 55.0456 231.655C58.2542 231.369 61.4773 231.28 64.6968 231.389V231.401Z" fill="white"/>
<path d="M72.1106 235.672C73.0056 235.536 80.9433 234.669 76.7566 233.684C74.2363 233.059 71.4864 232.97 68.9014 232.675C71.8456 232.805 74.9665 232.675 77.7988 233.731C80.1542 235.259 72.8643 235.666 72.1106 235.672Z" fill="white"/>
<path d="M64.6968 235.948C66.5622 235.694 68.4497 235.643 70.3261 235.795C68.4605 236.046 66.5733 236.097 64.6968 235.948Z" fill="white"/>
<path d="M54.4805 235.365C55.7488 235.286 57.0214 235.414 58.2491 235.742C56.9808 235.817 55.7086 235.69 54.4805 235.365Z" fill="white"/>
<path d="M64.6968 232.593C62.4121 232.811 60.1156 232.77 57.8368 233.006C56.0349 233.218 53.1672 233.218 51.5126 233.967C51.4461 233.993 51.3867 234.034 51.3396 234.087C51.2924 234.141 51.2588 234.205 51.2417 234.274C51.2536 234.201 51.282 234.131 51.3249 234.071C51.3678 234.011 51.4239 233.961 51.489 233.926C53.4204 232.929 55.6934 232.988 57.8132 232.711C60.0979 232.51 62.4062 232.575 64.6968 232.593Z" fill="white"/>
<path d="M92.7139 132.053C92.7139 132.053 99.309 143.548 103.755 149.912C108.201 156.276 113.082 170.149 114.024 171.494C114.966 172.838 116.615 239.605 116.615 239.605C116.615 239.605 105.816 240.95 103.555 241.074C101.293 241.197 90.5234 243.987 90.5234 243.987L112.311 242.218L103.619 243.987C103.619 243.987 118.117 243.356 118.812 243.297C119.506 243.238 124.623 243.557 124.871 243.374C125.118 243.191 125.884 242.07 125.66 241.604C125.436 241.138 121.35 239.422 121.35 239.422C121.35 239.422 122.704 174.183 122.616 173.039C122.527 171.895 123.793 170.184 123.063 169.046C122.333 167.908 119.925 166.84 119.565 166.026C119.206 165.212 115.797 143.43 115.443 133.645C115.308 129.322 94.9103 125.99 92.7139 132.053Z" fill="#C9433F"/>
<path opacity="0.7" d="M92.7139 132.053C92.7139 132.053 99.309 143.548 103.755 149.912C108.201 156.276 113.082 170.149 114.024 171.494C114.966 172.838 116.615 239.605 116.615 239.605C116.615 239.605 105.816 240.95 103.555 241.074C101.293 241.197 90.5234 243.987 90.5234 243.987L112.311 242.218L103.619 243.987C103.619 243.987 118.117 243.356 118.812 243.297C119.506 243.238 124.623 243.557 124.871 243.374C125.118 243.191 125.884 242.07 125.66 241.604C125.436 241.138 121.35 239.422 121.35 239.422C121.35 239.422 122.704 174.183 122.616 173.039C122.527 171.895 123.793 170.184 123.063 169.046C122.333 167.908 119.925 166.84 119.565 166.026C119.206 165.212 115.797 143.43 115.443 133.645C115.308 129.322 94.9103 125.99 92.7139 132.053Z" fill="white"/>
<path d="M116.875 148.314L95.3877 136.624C93.7978 133.958 92.7144 132.065 92.7144 132.065C94.9107 125.984 115.302 129.322 115.467 133.651C115.603 137.403 116.186 142.905 116.875 148.314Z" fill="#C9433F"/>
<path d="M119.642 184.447C119.642 184.447 120.731 184.57 122.463 184.724C122.463 184.629 122.463 184.535 122.463 184.447H119.642ZM111.157 164.877C111.251 165.095 111.345 165.313 111.434 165.531C113.154 165.45 114.865 165.231 116.551 164.877H111.157ZM116.185 142.499C116.185 142.499 116.185 142.434 116.185 142.405H113.123C113.123 142.405 113.6 142.464 114.431 142.54L116.197 142.706C116.203 142.635 116.191 142.57 116.185 142.499ZM105.68 153.069C105.733 153.175 105.792 153.281 105.851 153.387C106.44 153.299 107.029 153.192 107.582 153.069H105.68ZM117.457 152.75H115.891C115.891 152.75 116.48 152.821 117.475 152.915L117.457 152.75ZM118.129 157.469H112.064C112.064 157.469 114.654 157.769 118.217 157.999C118.164 157.805 118.164 157.628 118.164 157.451L118.129 157.469ZM103.643 149.801L103.743 149.943L103.937 150.226L104.132 150.515C106.308 150.474 108.476 150.235 110.609 149.801H103.643ZM117.693 192.096C117.693 192.096 119.518 192.262 122.309 192.438C122.309 192.321 122.309 192.214 122.309 192.096H117.693ZM118.523 213.53C119.633 213.787 120.755 213.984 121.886 214.12C121.886 213.937 121.886 213.737 121.886 213.53H118.523ZM106.316 147.117C106.316 147.117 110.114 148.828 112.034 147.117H106.316ZM116.562 194.355C116.562 194.355 120.355 196.066 122.274 194.355H116.562ZM114.478 175.906C114.478 176.154 114.513 176.407 114.525 176.667C115.982 176.715 117.432 176.455 118.782 175.906H114.478ZM114.654 179.067C114.654 179.121 114.654 179.168 114.654 179.221L115.767 179.044L114.654 179.067ZM116.421 232.074C116.421 232.168 116.421 232.268 116.421 232.363C117.122 232.28 117.787 232.18 118.417 232.074H116.421ZM118.688 206.193C118.688 206.193 119.972 206.305 122.044 206.446C122.044 206.364 122.044 206.275 122.044 206.193H118.688ZM116.262 226.028C116.262 226.158 116.262 226.282 116.262 226.406C117.251 226.3 118.188 226.176 119.041 226.028H116.262ZM116.138 221.734V222.324C117.901 222.227 119.656 222.03 121.397 221.734H116.138Z" fill="#C9433F"/>
<path d="M106.181 132.053C106.181 132.053 116.233 144.575 120.679 150.927C125.124 157.279 134.987 170.137 135.936 171.482C136.884 172.827 151.14 239.617 151.14 239.617C151.14 239.617 140.34 240.962 138.079 241.086C135.818 241.209 125.042 243.999 125.042 243.999L146.829 242.23L138.144 243.999C138.144 243.999 152.641 243.368 153.336 243.309C154.031 243.25 159.148 243.569 159.395 243.386C159.642 243.203 160.402 242.082 160.178 241.616C159.955 241.151 155.874 239.434 155.874 239.434C155.874 239.434 144.662 174.195 144.55 173.051C144.438 171.907 145.728 170.196 144.998 169.058C144.268 167.92 141.853 166.852 141.494 166.038C141.135 165.224 129.293 143.442 128.934 133.657C128.763 129.322 108.383 125.99 106.181 132.053Z" fill="#C9433F"/>
<path opacity="0.7" d="M106.181 132.053C106.181 132.053 116.233 144.575 120.679 150.927C125.124 157.279 134.987 170.137 135.936 171.482C136.884 172.827 151.14 239.617 151.14 239.617C151.14 239.617 140.34 240.962 138.079 241.086C135.818 241.209 125.042 243.999 125.042 243.999L146.829 242.23L138.144 243.999C138.144 243.999 152.641 243.368 153.336 243.309C154.031 243.25 159.148 243.569 159.395 243.386C159.642 243.203 160.402 242.082 160.178 241.616C159.955 241.151 155.874 239.434 155.874 239.434C155.874 239.434 144.662 174.195 144.55 173.051C144.438 171.907 145.728 170.196 144.998 169.058C144.268 167.92 141.853 166.852 141.494 166.038C141.135 165.224 129.293 143.442 128.934 133.657C128.763 129.322 108.383 125.99 106.181 132.053Z" fill="white"/>
<path d="M146.429 184.447H144.492C144.492 184.447 145.228 184.529 146.459 184.641C146.476 184.576 146.465 184.512 146.429 184.447ZM130.925 164.877C131.074 165.066 131.216 165.262 131.349 165.467C132.667 165.362 133.975 165.165 135.265 164.877H130.925ZM130.672 141.803C130.668 141.79 130.668 141.776 130.672 141.762L130.619 141.609H127.586C127.586 141.609 128.464 141.709 129.906 141.845L130.731 141.915C130.714 141.88 130.703 141.842 130.695 141.803H130.672ZM121.421 152.037C121.539 152.208 121.668 152.391 121.804 152.567L121.875 152.668C123.472 152.577 125.06 152.366 126.627 152.037H121.421ZM138.309 159.81H135.836C135.836 159.81 136.831 159.928 138.439 160.064C138.415 159.981 138.374 159.899 138.333 159.81H138.309ZM119.825 149.784C120.002 150.025 120.173 150.261 120.332 150.491C122.447 150.443 124.553 150.206 126.627 149.784H119.825ZM147.79 192.421C147.713 192.303 147.625 192.197 147.536 192.079H142.555C142.555 192.079 144.645 192.268 147.801 192.462C147.801 192.462 147.831 192.433 147.813 192.421H147.79ZM152.712 221.08H149.851C149.851 221.08 150.952 221.174 152.754 221.304C152.765 221.233 152.754 221.157 152.736 221.08H152.712ZM154.974 234.186C154.974 234.079 154.932 233.967 154.915 233.855H150.981C152.314 234.158 153.666 234.375 155.027 234.504L154.974 234.186ZM153.248 224.159H148.661C150.212 224.507 151.787 224.74 153.372 224.855C153.348 224.654 153.307 224.406 153.272 224.171L153.248 224.159ZM131.938 145.342C131.891 145.224 131.85 145.112 131.808 144.994H124.118C126.239 145.502 128.414 145.751 130.595 145.737L131.114 145.708C131.42 145.708 131.702 145.661 132.02 145.619L131.938 145.342ZM141.436 194.356C141.436 194.356 145.234 196.066 147.154 194.356H141.436ZM111.688 139.025L112.276 139.769C113.487 139.834 114.7 139.755 115.892 139.533C116.187 139.478 116.478 139.403 116.763 139.308C117.011 139.233 117.253 139.14 117.488 139.031L111.688 139.025ZM137.12 175.906C137.161 176.077 137.202 176.248 137.249 176.425L137.285 176.579C139.434 176.761 141.948 176.72 143.656 175.906H137.12ZM137.868 179.068C137.868 179.186 137.926 179.315 137.956 179.439C138.916 179.339 139.823 179.215 140.659 179.068H137.868ZM150.174 206.199H143.568L143.921 206.228C144.792 206.299 147.154 206.494 150.239 206.659C150.227 206.5 150.198 206.37 150.174 206.193V206.199ZM144.433 208.558L144.486 208.794C145.016 208.723 145.517 208.647 146.005 208.558H144.433ZM149.374 231.307C149.409 231.48 149.444 231.645 149.48 231.803C150.928 231.685 152.277 231.525 153.484 231.307H149.374ZM145.358 212.752C145.399 212.929 145.434 213.106 145.475 213.283C147.095 213.159 148.602 212.988 149.939 212.752H145.358Z" fill="#C9433F"/>
<path d="M73.347 167.613C73.347 172.19 73.3117 176.516 73.241 180.589C72.9701 196.833 72.2105 209.242 71.4274 218.166C70.603 227.532 69.7433 233.065 69.39 235.153C67.064 235.282 64.6792 235.383 62.2061 235.448C62.6124 233.495 63.8136 227.367 64.8912 217.836C66.189 206.004 66.8358 194.109 66.8285 182.205C66.8285 179.646 66.801 177.015 66.746 174.314C66.7068 172.167 66.642 169.977 66.5517 167.743C66.5517 167.69 66.5517 167.643 66.5517 167.59L73.347 167.613Z" fill="#C9433F"/>
<path opacity="0.7" d="M73.347 167.613C73.347 172.19 73.3117 176.516 73.241 180.589C72.9701 196.833 72.2105 209.242 71.4274 218.166C70.603 227.532 69.7433 233.065 69.39 235.153C67.064 235.282 64.6792 235.383 62.2061 235.448C62.6124 233.495 63.8136 227.367 64.8912 217.836C66.189 206.004 66.8358 194.109 66.8285 182.205C66.8285 179.646 66.801 177.015 66.746 174.314C66.7068 172.167 66.642 169.977 66.5517 167.743C66.5517 167.69 66.5517 167.643 66.5517 167.59L73.347 167.613Z" fill="white"/>
<path d="M63.0245 222.955C64.0661 222.377 64.8523 221.427 65.2268 220.295C65.3394 219.91 65.4162 219.515 65.4564 219.115C65.4564 219.056 65.374 219.05 65.3622 219.115C65.2665 219.484 65.1323 219.842 64.9618 220.183C64.8039 220.522 64.6188 220.847 64.4083 221.156C64.0002 221.772 63.5019 222.323 62.9303 222.79C62.8479 222.884 62.9362 223.008 63.0245 222.955Z" fill="#C9433F"/>
<path d="M65.3804 216.721C65.9216 216.469 66.3734 216.057 66.6758 215.541C66.8246 215.291 66.9432 215.024 67.0291 214.745C67.1275 214.477 67.1715 214.193 67.1587 213.908C67.1587 213.861 67.088 213.866 67.0704 213.908C66.9585 214.15 66.8878 214.409 66.7701 214.657C66.6513 214.901 66.5114 215.133 66.352 215.353C66.1989 215.565 66.0399 215.772 65.8691 215.943C65.6863 216.152 65.4896 216.349 65.2803 216.532C65.2553 216.546 65.2366 216.568 65.2283 216.595C65.22 216.623 65.2228 216.652 65.2361 216.677C65.2494 216.702 65.272 216.721 65.2991 216.729C65.3261 216.737 65.3554 216.734 65.3804 216.721Z" fill="white"/>
<path d="M70.7738 216.757C71.0688 217.32 71.5319 217.778 72.0987 218.066C72.1315 218.085 72.1701 218.09 72.2067 218.081C72.2434 218.072 72.2751 218.049 72.2955 218.018C72.3159 217.986 72.3233 217.947 72.3163 217.91C72.3093 217.873 72.2883 217.84 72.2577 217.818C71.8412 217.416 71.448 216.991 71.08 216.544C70.719 216.082 70.4492 215.556 70.2851 214.993C70.2851 214.946 70.185 214.964 70.1968 214.993C70.2731 215.613 70.4691 216.212 70.7738 216.757Z" fill="#C9433F"/>
<path d="M69.29 211.95C69.3407 212.21 69.4096 212.466 69.4961 212.717C69.5865 213.181 69.8549 213.592 70.2439 213.861C70.4383 213.961 70.5619 213.672 70.3853 213.56C70.2267 213.444 70.1025 213.287 70.0261 213.106C69.9238 212.914 69.8314 212.717 69.7493 212.516C69.6669 212.298 69.5785 212.08 69.5079 211.855C69.4372 211.631 69.3725 211.389 69.29 211.165C69.29 211.153 69.2851 211.141 69.2762 211.132C69.2674 211.123 69.2554 211.118 69.2429 211.118C69.2304 211.118 69.2184 211.123 69.2096 211.132C69.2008 211.141 69.1958 211.153 69.1958 211.165C69.1979 211.43 69.2295 211.693 69.29 211.95Z" fill="white"/>
<path d="M73.3649 211.165C73.5239 211.218 73.5828 210.976 73.4532 210.9C72.2363 210.254 71.3224 209.154 70.9094 207.839C70.9094 207.786 70.8152 207.803 70.8211 207.839C70.8828 208.579 71.1553 209.286 71.6062 209.875C72.0571 210.465 72.6675 210.913 73.3649 211.165Z" fill="#C9433F"/>
<path d="M71.5569 207.49C71.6688 207.608 71.869 207.425 71.7689 207.301C71.1655 206.615 70.851 205.72 70.8915 204.806C70.8915 204.794 70.8866 204.782 70.8777 204.773C70.8689 204.764 70.8569 204.759 70.8444 204.759C70.8319 204.759 70.8199 204.764 70.8111 204.773C70.8023 204.782 70.7973 204.794 70.7973 204.806C70.7128 205.282 70.7373 205.771 70.8688 206.236C71.0004 206.701 71.2357 207.13 71.5569 207.49Z" fill="white"/>
<path d="M65.0154 209.755C65.6126 209.533 66.1379 209.152 66.5346 208.653C66.9382 208.153 67.2384 207.577 67.4179 206.96C67.4179 206.901 67.3531 206.883 67.3296 206.96C67.1029 207.527 66.7644 208.042 66.3344 208.476C66.1326 208.683 65.9203 208.88 65.6984 209.065C65.457 209.26 65.192 209.413 64.9388 209.59C64.8505 209.62 64.8917 209.791 65.0154 209.755Z" fill="#C9433F"/>
<path d="M65.5445 211.165C65.8211 210.942 66.0719 210.689 66.2924 210.41C66.5058 210.127 66.7024 209.831 66.8812 209.525C66.8836 209.515 66.8829 209.505 66.8792 209.496C66.8754 209.486 66.8687 209.479 66.8602 209.473C66.8517 209.468 66.8417 209.466 66.8317 209.466C66.8217 209.467 66.8122 209.471 66.8046 209.478C66.3928 210.042 65.9231 210.562 65.4032 211.029C65.3852 211.048 65.3754 211.073 65.376 211.099C65.3766 211.125 65.3874 211.15 65.4061 211.168C65.4249 211.186 65.45 211.195 65.4759 211.195C65.5019 211.194 65.5266 211.183 65.5445 211.165Z" fill="#C9433F"/>
<path d="M64.6148 202.896C65.2579 202.489 65.7949 201.935 66.1811 201.28C66.5646 200.549 66.8573 199.775 67.0526 198.973C67.0526 198.92 66.9819 198.897 66.9643 198.973C66.6967 199.712 66.3555 200.421 65.9456 201.091C65.5429 201.712 65.0575 202.276 64.5029 202.766C64.4976 202.782 64.4966 202.8 64.5 202.817C64.5034 202.834 64.5111 202.849 64.5224 202.862C64.5336 202.875 64.548 202.885 64.5642 202.891C64.5804 202.897 64.5978 202.898 64.6148 202.896Z" fill="#C9433F"/>
<path d="M64.9797 204.712C65.4263 204.371 65.8006 203.944 66.0809 203.456C66.3532 202.965 66.5516 202.436 66.6697 201.887C66.6697 201.828 66.5991 201.816 66.5814 201.887C66.3966 202.399 66.1431 202.883 65.8277 203.326C65.5309 203.764 65.198 204.177 64.8325 204.559C64.7324 204.636 64.8737 204.795 64.9797 204.712Z" fill="#C9433F"/>
<path d="M69.7026 203.71C69.7615 203.786 69.9087 203.71 69.8616 203.627C69.2605 202.593 68.9645 201.408 69.0077 200.212C69.0077 200.153 68.9253 200.136 68.9194 200.212C68.7957 201.404 68.8841 202.743 69.7026 203.71Z" fill="white"/>
<path d="M72.823 199.05C72.8472 199.065 72.8756 199.071 72.9039 199.068C72.9322 199.066 72.9587 199.053 72.9795 199.034C73.0003 199.015 73.0141 198.989 73.0188 198.961C73.0235 198.933 73.0188 198.904 73.0056 198.879C72.4803 198.147 71.9985 197.385 71.5629 196.596C71.1407 195.789 70.8127 194.936 70.5854 194.054C70.5854 194.001 70.4971 194.025 70.4971 194.054C70.5891 195.96 71.4243 197.754 72.823 199.05Z" fill="#C9433F"/>
<path d="M71.339 199.923C71.4332 199.994 71.5922 199.876 71.498 199.776C71.2475 199.514 71.03 199.223 70.8503 198.909C70.6735 198.579 70.5729 198.215 70.5558 197.841C70.5558 197.782 70.4616 197.794 70.4616 197.841C70.4381 198.232 70.5051 198.624 70.6573 198.985C70.8094 199.346 71.0427 199.667 71.339 199.923Z" fill="white"/>
<path d="M67.3295 195.464C68.5451 194.116 69.18 192.341 69.0961 190.527C69.0961 190.48 69.0136 190.474 69.0077 190.527C68.7274 192.247 68.1282 193.899 67.2412 195.399C67.2 195.458 67.2824 195.511 67.3295 195.464Z" fill="#C9433F"/>
<path d="M68.701 196.343C68.7969 196.167 68.8739 195.981 68.9306 195.789C68.9831 195.607 69.0205 195.422 69.0425 195.234C69.0425 195.052 69.0778 194.869 69.0778 194.686C69.0778 194.503 69.0778 194.497 69.0778 194.403C69.0691 194.287 69.0691 194.171 69.0778 194.055C69.0778 193.984 68.9718 193.99 68.9895 194.055C69.0014 194.157 69.0014 194.26 68.9895 194.362L68.9542 194.645C68.9247 194.827 68.8953 195.016 68.8541 195.199C68.8128 195.382 68.7657 195.565 68.7186 195.748C68.6715 195.93 68.6303 196.113 68.5773 196.29C68.5243 196.467 68.701 196.426 68.701 196.343Z" fill="white"/>
<path d="M73.3415 189.684C73.4534 189.737 73.5653 189.578 73.4652 189.501C72.4333 188.554 71.704 187.323 71.3689 185.962C71.3689 185.915 71.2746 185.933 71.2805 185.962C71.5337 187.413 71.9224 189.023 73.3415 189.684Z" fill="#C9433F"/>
<path d="M74.3541 185.319C74.3768 185.315 74.3978 185.305 74.4144 185.289C74.431 185.273 74.4423 185.252 74.4468 185.23C74.4513 185.207 74.4488 185.184 74.4396 185.163C74.4304 185.142 74.4149 185.124 74.3953 185.112C73.7679 184.91 73.173 184.618 72.6288 184.245C72.0745 183.847 71.634 183.31 71.351 182.688C71.351 182.635 71.245 182.688 71.2686 182.688C71.6925 184.027 72.9056 185.277 74.3541 185.319Z" fill="#C9433F"/>
<path d="M63.9904 188.327C64.9761 187.686 65.8127 186.841 66.4436 185.847C67.0745 184.854 67.4849 183.737 67.6472 182.571C67.6498 182.564 67.6507 182.556 67.6497 182.549C67.6488 182.541 67.646 182.534 67.6417 182.528C67.6373 182.521 67.6316 182.516 67.6248 182.513C67.6181 182.509 67.6106 182.507 67.603 182.507C67.5954 182.507 67.5879 182.509 67.5812 182.513C67.5745 182.516 67.5687 182.521 67.5643 182.528C67.56 182.534 67.5572 182.541 67.5563 182.549C67.5553 182.556 67.5562 182.564 67.5588 182.571C66.9707 184.792 65.6819 186.764 63.8844 188.192C63.876 188.208 63.8723 188.226 63.8739 188.244C63.8755 188.262 63.8823 188.28 63.8936 188.294C63.9048 188.308 63.9199 188.319 63.9371 188.325C63.9542 188.331 63.9728 188.332 63.9904 188.327Z" fill="#C9433F"/>
<path d="M65.4389 190.044C66.1071 189.751 66.6773 189.272 67.0817 188.664C67.5138 188.08 67.8169 187.41 67.9709 186.7C67.9673 186.689 67.9605 186.68 67.9515 186.674C67.9426 186.668 67.9318 186.664 67.9208 186.664C67.9098 186.664 67.8991 186.668 67.8901 186.674C67.8812 186.68 67.8744 186.689 67.8708 186.7C67.6311 187.362 67.2872 187.981 66.8521 188.534C66.6423 188.801 66.4098 189.05 66.1572 189.277C65.8982 189.519 65.6214 189.737 65.3682 189.973C65.3211 189.991 65.38 190.062 65.4389 190.044Z" fill="white"/>
<path d="M66.0041 192.71C66.5251 192.161 66.8466 191.453 66.9168 190.699C66.9168 190.64 66.8403 190.628 66.8285 190.699C66.7381 191.047 66.6118 191.385 66.4516 191.707C66.2773 192.026 66.0805 192.331 65.8628 192.621C65.851 192.64 65.8473 192.663 65.8522 192.684C65.8572 192.706 65.8705 192.725 65.8893 192.736C65.908 192.748 65.9306 192.752 65.9522 192.747C65.9737 192.742 65.9924 192.729 66.0041 192.71Z" fill="#C9433F"/>
<path d="M69.8793 185.355C69.9264 185.437 70.0677 185.355 70.0324 185.272C69.8565 184.837 69.7129 184.389 69.6025 183.933C69.4958 183.467 69.4561 182.989 69.4848 182.512C69.4848 182.459 69.3964 182.453 69.3906 182.512C69.2372 183.487 69.4089 184.487 69.8793 185.355Z" fill="#C9433F"/>
<path d="M73.7067 179.327C73.848 179.369 73.901 179.168 73.7832 179.097C73.2375 178.806 72.7487 178.418 72.3405 177.953C71.9339 177.464 71.6763 176.868 71.5986 176.237C71.5986 176.224 71.5936 176.212 71.5848 176.203C71.576 176.194 71.564 176.189 71.5515 176.189C71.539 176.189 71.527 176.194 71.5182 176.203C71.5093 176.212 71.5044 176.224 71.5044 176.237C71.5633 177.534 72.3994 178.991 73.7067 179.327Z" fill="#C9433F"/>
<path d="M65.3919 178.525C66.5194 177.634 67.3995 176.468 67.9475 175.139C67.9518 175.134 67.9549 175.127 67.9565 175.12C67.9581 175.113 67.9581 175.106 67.9566 175.099C67.9551 175.093 67.9521 175.086 67.9478 175.081C67.9435 175.075 67.938 175.071 67.9317 175.067C67.9254 175.064 67.9185 175.063 67.9115 175.063C67.9045 175.062 67.8975 175.064 67.8912 175.067C67.8848 175.07 67.8791 175.074 67.8746 175.079C67.8701 175.085 67.8668 175.091 67.865 175.098C67.1798 176.326 66.3055 177.439 65.2741 178.395C65.1976 178.466 65.3094 178.584 65.3919 178.525Z" fill="#C9433F"/>
<path d="M66.069 179.687C66.664 179.021 67.1382 178.257 67.4705 177.428C67.4714 177.418 67.4691 177.408 67.4641 177.399C67.459 177.39 67.4513 177.384 67.4421 177.38C67.4329 177.376 67.4228 177.375 67.413 177.377C67.4033 177.379 67.3946 177.385 67.388 177.392C66.9523 178.153 66.4223 178.849 65.9395 179.574C65.9307 179.592 65.928 179.612 65.9319 179.631C65.9358 179.651 65.9459 179.668 65.9608 179.681C65.9756 179.694 65.9943 179.701 66.0139 179.702C66.0335 179.703 66.0529 179.698 66.069 179.687Z" fill="#C9433F"/>
<path d="M74.7606 174.166C74.8489 174.166 74.9195 174.036 74.8135 174.001C74.2357 173.849 73.6952 173.58 73.2261 173.209C72.757 172.839 72.3692 172.375 72.0872 171.848C72.0872 171.795 71.9753 171.818 71.9989 171.848C72.4464 173.016 73.471 174.095 74.7606 174.166Z" fill="#C9433F"/>
<path d="M72.9405 171.795C73.0936 171.995 73.263 172.183 73.4469 172.355C73.6351 172.528 73.8425 172.679 74.0652 172.804C74.1535 172.857 74.2242 172.709 74.1359 172.656C73.9315 172.531 73.7348 172.393 73.547 172.243C73.3523 172.096 73.1745 171.928 73.0171 171.742C72.9759 171.701 72.8993 171.748 72.9405 171.795Z" fill="#C9433F"/>
<path d="M65.7571 174.52C66.4828 174.072 67.0223 173.376 67.2764 172.562C67.2803 172.551 67.2797 172.539 67.2747 172.528C67.2697 172.517 67.2608 172.509 67.2499 172.505C67.2445 172.504 67.2387 172.503 67.233 172.503C67.2272 172.503 67.2216 172.505 67.2164 172.507C67.2059 172.512 67.1978 172.521 67.1939 172.532C66.9093 173.308 66.3801 173.971 65.6865 174.419C65.6099 174.473 65.6747 174.573 65.7571 174.52Z" fill="#C9433F"/>
<path d="M71.3982 225.692C71.4122 225.704 71.4284 225.714 71.446 225.72C71.4636 225.726 71.4822 225.729 71.5008 225.727C71.5194 225.726 71.5376 225.722 71.5543 225.714C71.5711 225.705 71.5861 225.694 71.5985 225.68C71.6108 225.666 71.6203 225.65 71.6264 225.632C71.6325 225.615 71.6351 225.596 71.634 225.577C71.6329 225.559 71.6282 225.541 71.6201 225.524C71.6119 225.507 71.6006 225.492 71.5867 225.48C70.9832 224.851 70.4501 224.159 69.9968 223.415C69.5591 222.65 69.2581 221.813 69.1076 220.944C69.1076 220.891 69.0134 220.897 69.0193 220.944C69.09 222.725 69.879 224.654 71.3982 225.692Z" fill="#C9433F"/>
<path d="M68.9489 226.96C68.9653 226.979 68.9888 226.992 69.0142 226.994C69.0396 226.996 69.0648 226.988 69.0843 226.972C69.1038 226.955 69.116 226.932 69.1183 226.906C69.1205 226.881 69.1125 226.856 69.0961 226.836C68.5012 226.112 68.1599 225.213 68.1245 224.276C68.1245 224.264 68.1195 224.252 68.1107 224.243C68.1019 224.234 68.0899 224.229 68.0774 224.229C68.0649 224.229 68.0529 224.234 68.0441 224.243C68.0352 224.252 68.0303 224.264 68.0303 224.276C67.9805 224.763 68.0368 225.256 68.1954 225.719C68.354 226.182 68.6111 226.606 68.9489 226.96Z" fill="white"/>
<path d="M64.6677 228.193C65.8913 226.773 66.6535 225.014 66.8523 223.15C66.8523 223.097 66.7758 223.079 66.764 223.15C66.2176 224.879 65.4664 226.536 64.5264 228.086C64.4734 228.145 64.5794 228.275 64.6677 228.193Z" fill="#C9433F"/>
<path d="M65.0562 230.658C65.3486 230.28 65.5829 229.861 65.751 229.413C65.9061 228.968 66.0031 228.504 66.0396 228.033C66.0422 228.026 66.0431 228.019 66.0421 228.011C66.0412 228.003 66.0384 227.996 66.0341 227.99C66.0297 227.984 66.0239 227.979 66.0172 227.975C66.0105 227.972 66.003 227.97 65.9954 227.97C65.9878 227.97 65.9803 227.972 65.9736 227.975C65.9668 227.979 65.9611 227.984 65.9567 227.99C65.9524 227.996 65.9496 228.003 65.9486 228.011C65.9477 228.019 65.9486 228.026 65.9512 228.033C65.8586 228.483 65.7205 228.921 65.539 229.343C65.3621 229.764 65.1514 230.17 64.909 230.558C64.8957 230.577 64.8907 230.601 64.8951 230.625C64.8995 230.648 64.913 230.668 64.9325 230.682C64.952 230.695 64.976 230.7 64.9992 230.695C65.0224 230.691 65.0429 230.678 65.0562 230.658Z" fill="white"/>
<path d="M61.9002 228.783C62.5238 228.438 63.07 227.969 63.5046 227.403C63.9392 226.838 64.2529 226.189 64.4263 225.497C64.4263 225.486 64.4219 225.476 64.4142 225.468C64.4065 225.46 64.396 225.456 64.3851 225.456C64.3742 225.456 64.3637 225.46 64.3559 225.468C64.3482 225.476 64.3439 225.486 64.3439 225.497C64.0841 226.139 63.7265 226.735 63.2839 227.267C62.8354 227.778 62.3362 228.242 61.7942 228.653C61.7892 228.669 61.7882 228.686 61.7914 228.702C61.7945 228.718 61.8017 228.734 61.8122 228.746C61.8227 228.759 61.8362 228.769 61.8516 228.776C61.867 228.782 61.8836 228.784 61.9002 228.783Z" fill="#C9433F"/>
<path d="M62.3124 235.748C62.8824 235.354 63.3441 234.822 63.655 234.203C63.9888 233.597 64.2159 232.939 64.3263 232.256C64.3263 232.203 64.2556 232.185 64.2379 232.256C64.0369 232.895 63.7559 233.505 63.4018 234.073C63.0543 234.663 62.6009 235.123 62.2241 235.653C62.2209 235.666 62.2209 235.679 62.2241 235.692C62.2273 235.704 62.2336 235.716 62.2424 235.725C62.2512 235.734 62.2622 235.741 62.2745 235.745C62.2867 235.749 62.2997 235.75 62.3124 235.748Z" fill="white"/>
<path d="M69.8788 234.462C69.9612 234.509 70.0849 234.403 70.0024 234.321C69.3377 233.694 68.7612 232.98 68.2889 232.197C67.8233 231.4 67.5286 230.514 67.4233 229.596C67.4199 229.587 67.4139 229.579 67.406 229.574C67.3981 229.568 67.3887 229.565 67.3791 229.565C67.3695 229.565 67.3601 229.568 67.3522 229.574C67.3443 229.579 67.3383 229.587 67.335 229.596C67.3997 231.454 68.2418 233.501 69.8788 234.462Z" fill="#C9433F"/>
<path d="M69.2903 231.377C69.4053 231.557 69.5374 231.725 69.6849 231.879C69.8395 232.035 70.016 232.168 70.2089 232.274C70.3267 232.345 70.4503 232.174 70.3326 232.097C69.637 231.657 69.1357 230.967 68.9311 230.168C68.9311 230.156 68.9262 230.144 68.9173 230.135C68.9085 230.126 68.8965 230.121 68.884 230.121C68.8715 230.121 68.8595 230.126 68.8507 230.135C68.8419 230.144 68.8369 230.156 68.8369 230.168C68.904 230.598 69.0583 231.01 69.2903 231.377Z" fill="#C9433F"/>
<path d="M142.101 137.297C154.673 139.131 166.414 128.397 169.535 121.856C172.656 115.315 174.799 106.332 173.922 104.085C173.045 101.837 167.097 113.657 167.097 113.657C167.097 113.657 172.944 93.35 170.901 90.3242C168.858 87.2985 158.912 109.641 158.912 109.641C158.912 109.641 163.334 93.7982 161.215 93.4738C157.782 92.9489 151.092 112.979 151.092 112.979C151.092 112.979 153.059 104.663 151.016 105.152C147.748 105.942 137.478 136.624 142.101 137.297Z" fill="#263238"/>
<path d="M142.101 137.297C150.174 138.423 158.1 134.495 163.889 129.075C165.855 127.264 167.551 125.178 168.923 122.882C170.154 120.509 171.169 118.029 171.956 115.474C172.794 112.938 173.419 110.335 173.822 107.694C174.029 106.563 174.029 105.404 173.822 104.273C173.522 103.005 171.467 106.361 171.19 106.751C169.771 109.01 168.511 111.375 167.304 113.752L166.904 113.598C167.781 110.242 172.874 91.9876 170.437 90.3184C169.848 90.4482 169.359 91.0852 168.935 91.5629C167.121 93.875 165.755 96.5232 164.36 99.1125C162.528 102.604 160.827 106.19 159.19 109.764L158.677 109.582C159.543 106.438 160.332 103.271 160.95 100.08C161.284 98.4962 161.495 96.8891 161.58 95.2728C161.58 94.7656 161.616 94.0932 161.28 93.7393C159.59 93.4975 157.476 98.0803 156.74 99.4428C154.644 103.853 152.807 108.383 151.24 113.008L151.005 112.938C153.231 103.229 150.952 102.563 147.112 111.687C145.593 114.89 138.074 136.058 142.131 137.273L142.101 137.297ZM142.101 137.297C138.027 136.117 145.511 114.837 146.995 111.675C150.846 102.156 153.431 103.176 151.211 113.02L150.975 112.955C152.504 108.295 154.303 103.728 156.363 99.2776C157.054 97.783 157.872 96.3504 158.807 94.9956C159.266 94.2587 159.929 93.6708 160.715 93.3028C163.123 92.5715 161.551 99.0004 161.421 100.174C160.833 103.395 160.026 106.568 159.172 109.723L158.666 109.54C160.285 105.925 161.987 102.351 163.818 98.8353C165.52 95.8213 166.98 92.4948 169.565 90.1061C173.552 87.6289 170.525 100.664 170.231 102.197C169.394 106.072 168.393 109.906 167.286 113.716L166.892 113.557C167.481 112.601 173.098 101.13 174.099 104.179C174.318 105.348 174.318 106.548 174.099 107.718C173.226 113.026 171.519 118.162 169.041 122.935C163.541 131.67 152.701 138.736 142.113 137.279L142.101 137.297Z" fill="#455A64"/>
<path d="M169.535 121.856C168.544 123.791 167.287 125.577 165.802 127.164C169.294 123.094 172.473 111.593 171.019 111.091C169.565 110.59 164.565 119.077 164.565 119.077C164.565 119.077 166.214 108.585 164.065 108.048C161.915 107.511 157.228 115.828 157.228 115.828C157.228 115.828 157.464 107.47 156.051 107.617C154.637 107.765 150.409 117.774 150.409 117.774C150.409 117.774 150.521 111.811 149.232 111.876C147.942 111.941 145.051 117.68 143.932 120.133C146.288 112.69 149.426 105.577 150.998 105.211C152.989 104.733 151.175 112.601 151.081 113.02C151.304 112.36 157.823 93.0137 161.197 93.5564C163.264 93.869 159.107 108.933 158.901 109.694C159.301 108.815 168.876 87.4223 170.884 90.395C172.892 93.3676 167.233 113.185 167.08 113.716C167.25 113.392 173.039 101.92 173.898 104.161C174.758 106.402 172.656 115.315 169.535 121.856Z" fill="#EBEBEB"/>
<path d="M66.558 165.531C63.1368 168.51 60.6695 175.369 61.6176 176.667C62.5656 177.965 65.027 171.683 65.027 171.683C65.027 171.683 62.3183 185.373 64.8445 185.278C66.4873 185.219 68.0066 177.965 68.0066 177.965C68.0066 177.965 68.566 189.206 71.416 188.581C73.6124 188.092 72.0048 177.906 72.0048 177.906C72.0048 177.906 74.1364 183.703 75.7793 183.031C77.4222 182.359 74.1365 173.759 74.1365 173.759C74.1365 173.759 75.7793 177.056 76.692 176.289C77.6047 175.523 75.5556 167.554 73.3238 165.537C71.0921 163.52 66.558 165.531 66.558 165.531Z" fill="#EBEBEB"/>
<path d="M66.5817 169.371C66.67 171.73 66.4875 175.487 67.2471 175.393C68.0067 175.298 68.4895 169.371 68.4895 169.371C68.4895 169.371 68.9606 177.398 69.7261 177.398C70.4916 177.398 71.3513 170.232 71.3513 170.232C71.3513 170.232 71.6575 175.292 72.529 175.104C73.4005 174.915 73.954 153.906 73.6714 147.383C73.3181 139.072 79.2772 137.067 88.3395 137.545C97.4018 138.022 127.256 139.644 135.447 139.55C143.638 139.456 151.346 137.45 151.57 136.206C151.794 134.961 139.457 102.669 128.293 93.4975C117.128 84.326 100.252 76.0214 79.077 77.4606C57.9021 78.8997 53.5328 84.5383 55.7057 101.248C56.8834 110.325 63.7434 128.821 65.8633 145.725C67.1823 156.236 66.3756 163.945 66.5817 169.371Z" fill="#263238"/>
<path d="M92.9026 92.6956C87.7148 98.405 87.6677 105.536 100.346 122.186C113.023 138.836 130.012 149.606 132.108 149.412C134.204 149.217 127.986 142.824 127.986 142.824C127.986 142.824 140.864 155.145 142.672 154.29C144.48 153.434 136.783 140.913 136.783 140.913C136.783 140.913 141.959 146.811 143.043 145.879C144.126 144.947 137.743 133.457 137.743 133.457C137.743 133.457 140.687 138.141 141.942 137.586C143.779 136.725 140.246 115.427 132.561 102.787C124.877 90.1476 97.2953 87.8709 92.9026 92.6956Z" fill="#263238"/>
<path d="M92.9028 92.6955C88.8574 96.9068 89.0105 102.245 91.2187 107.335C93.2502 112.171 96.2592 116.524 99.3624 120.729C105.657 129.126 113.107 136.586 121.491 142.888C124.244 145.027 127.173 146.927 130.247 148.568C131.237 149.017 133.156 150.013 131.967 147.979C130.764 146.172 129.383 144.49 127.845 142.959L128.175 142.67C131.248 145.554 134.375 148.397 137.661 151.034C138.982 152.161 140.426 153.134 141.965 153.936C142.254 154.065 142.625 154.113 142.648 154.012C142.733 153.75 142.733 153.467 142.648 153.204C142.177 151.533 141.516 149.922 140.676 148.403C139.392 145.914 137.985 143.472 136.554 141.066L137.007 140.73C138.452 142.465 140.094 144.024 141.901 145.377C142.171 145.543 142.625 145.808 142.872 145.696C143.037 145.029 142.566 144.068 142.354 143.384C140.945 140.023 139.341 136.748 137.549 133.575L137.938 133.345C138.344 133.994 141.606 138.842 142.06 136.967C142.245 135.648 142.245 134.31 142.06 132.991C141.657 129.41 141 125.862 140.093 122.375C138.285 115.421 135.924 108.497 132.149 102.357C130.159 99.3545 127.197 97.1191 124.035 95.444C117.64 92.1293 110.391 90.5722 103.213 90.3894C101.413 90.3479 99.6126 90.4604 97.8314 90.7256C96.0649 91.0382 94.1923 91.4215 92.891 92.7073L92.9028 92.6955ZM92.9028 92.6955C94.1982 91.4038 96.1002 91.0087 97.8373 90.6843C99.6219 90.412 101.426 90.2897 103.231 90.3186C113.165 90.5604 126.332 93.6333 132.35 102.221C136.183 108.379 138.574 115.303 140.428 122.275C140.835 123.855 145.416 142.275 140.058 136.807C139.12 135.811 138.28 134.726 137.549 133.569L137.932 133.334C139.752 136.517 141.382 139.806 142.813 143.183C143.16 143.949 143.36 144.774 143.402 145.613C142.743 148.179 137.343 141.909 136.554 141.084L137.007 140.747C138.279 142.953 144.238 152.408 143.025 154.313C141.547 156.277 129.588 144.493 127.839 142.942L128.175 142.67C129.719 144.234 131.1 145.952 132.297 147.796C134.575 152.337 126.602 146.917 125.548 146.221C112.487 137.32 101.526 125.667 93.4327 112.077C89.935 105.954 87.2381 98.4757 92.8851 92.6955H92.9028Z" fill="#455A64"/>
<path d="M136.783 140.901C136.995 141.243 144.486 153.422 142.672 154.266C140.858 155.109 128.905 143.679 128.039 142.859C128.628 143.449 134.075 149.211 132.084 149.394C130.442 149.547 119.648 142.953 108.96 132.089C113.671 136.506 122.669 142.186 124.129 142.116C125.589 142.045 124.188 137.822 124.129 137.645C124.371 137.839 132.432 144.31 134.31 143.802C136.189 143.295 132.885 134.861 132.885 134.861C132.885 134.861 137.06 138.99 138.008 138.748C138.956 138.506 135.188 129.181 135.064 128.922C135.158 129.022 138.503 132.608 139.604 132.289C141.371 131.776 140.564 123.849 140.564 123.849L140.693 124.126C142.395 131.346 142.86 137.102 141.918 137.55C140.77 138.093 138.067 134.012 137.755 133.493C138.197 134.301 144.073 144.947 143.055 145.879C142.036 146.81 137.007 141.119 136.783 140.901Z" fill="#EBEBEB"/>
<path d="M54.5689 20.1309C82.0394 20.1309 104.309 16.1197 104.309 11.1716C104.309 6.22359 82.0394 2.2124 54.5689 2.2124C27.0984 2.2124 4.8291 6.22359 4.8291 11.1716C4.8291 16.1197 27.0984 20.1309 54.5689 20.1309Z" fill="#C9433F"/>
<path opacity="0.1" d="M4.8291 11.1721C4.8291 10.0514 5.96557 8.98386 8.05009 7.99298C44.376 14.4809 66.3163 9.86268 81.485 3.63428C95.1992 5.24446 104.309 8.01067 104.309 11.1721C104.309 16.1147 82.0385 20.1254 54.5689 20.1254C27.0992 20.1254 4.8291 16.1147 4.8291 11.1721Z" fill="black"/>
<path d="M3.07431 11.1718C3.4335 7.58572 11.483 5.86348 14.439 5.05543C36.3794 0.336946 59.1913 0.531583 81.432 2.82595C114.354 6.58304 114.449 15.7487 81.432 19.6827C59.1795 21.9476 36.3676 21.9771 14.4214 17.3235C11.3829 16.486 3.4335 14.7814 3.05664 11.2013L3.07431 11.1718ZM3.13318 11.1718C3.48649 14.6635 11.5655 16.3975 14.4744 17.1348C23.2364 19.034 32.1986 19.7889 41.1373 20.2136C54.5613 20.8698 68.0156 20.507 81.3849 19.1283C113.883 15.4774 113.995 6.87795 81.3849 3.05008C63.5406 1.27173 45.5629 1.29545 27.7234 3.12085C23.2662 3.56956 18.8373 4.26463 14.4567 5.20289C11.4654 5.95785 3.48649 7.68009 3.11552 11.1718H3.13318Z" fill="#C9433F"/>
<path d="M107.565 11.172C107.241 15.0943 99.3207 17.0407 96.1115 17.9785C73.4763 23.3457 49.7458 23.1098 26.7396 20.5147C-6.91881 16.2857 -7.01303 6.06429 26.7396 1.67019C45.2374 -0.585951 63.942 -0.556238 82.4326 1.75866C87.0493 2.34185 91.6255 3.21054 96.135 4.35973C99.409 5.33882 107.241 7.24391 107.612 11.172H107.565ZM107.506 11.172C107.141 7.32058 99.2206 5.4037 96.0467 4.51898C87.0138 2.34258 77.7218 1.47556 68.4652 0.980115C54.5546 0.222178 40.6049 0.634526 26.7631 2.21282C-6.48307 6.3415 -6.58906 15.9967 26.7631 20.2846C45.2393 22.3284 63.8852 22.3047 82.3561 20.2139C86.9693 19.7085 91.5473 18.9206 96.0644 17.8546C99.303 16.9581 107.152 15.0353 107.523 11.1956L107.506 11.172Z" fill="#C9433F"/>
<path d="M1.57333 11.8794C1.86187 23.5753 1.86776 36.445 1.57333 48.1351C1.2848 36.445 1.2848 23.5753 1.57333 11.8794Z" fill="#C9433F"/>
<path d="M39.4476 21.8179C39.7362 33.5138 39.742 46.3835 39.4476 58.0736C39.1532 46.3835 39.1591 33.5138 39.4476 21.8179Z" fill="#C9433F"/>
<path d="M107.565 11.8794C107.854 31.1013 107.854 52.6707 107.565 71.8927C107.276 52.6707 107.276 31.1013 107.565 11.8794Z" fill="#C9433F"/>
<path d="M6.41928 15.7666C6.70781 30.217 6.7137 46.4368 6.41928 60.893C6.13074 46.4368 6.13663 30.2229 6.41928 15.7666Z" fill="#C9433F"/>
<path d="M80.6371 24.3364C80.9315 33.0951 80.9256 42.2962 80.6371 51.0608C80.3427 42.2962 80.3368 33.0951 80.6371 24.3364Z" fill="#C9433F"/>
<path d="M25.1561 20.1313C25.4446 30.8541 25.4446 42.6621 25.1561 53.3908C24.8617 42.6621 24.8676 30.8541 25.1561 20.1313Z" fill="#C9433F"/>
<path d="M97.3426 16.9526C97.6312 31.403 97.637 47.6228 97.3426 62.0791C97.0541 47.6287 97.06 31.4089 97.3426 16.9526Z" fill="#C9433F"/>
<path d="M1.57289 65.2046C1.27258 60.7212 1.27258 56.2227 1.57289 51.7393C1.87614 56.2226 1.87614 60.7213 1.57289 65.2046Z" fill="#C9433F"/>
<path d="M89.629 37.8018C89.3287 33.3184 89.3287 28.8198 89.629 24.3364C89.9323 28.8197 89.9323 33.3185 89.629 37.8018Z" fill="#C9433F"/>
<path d="M13.2731 45.2872C12.9728 40.8037 12.9728 36.3052 13.2731 31.8218C13.5763 36.3051 13.5763 40.8038 13.2731 45.2872Z" fill="#C9433F"/>
<path d="M71.704 36.1446C71.4007 31.6613 71.4007 27.1625 71.704 22.6792C72.0043 27.1626 72.0043 31.6612 71.704 36.1446Z" fill="#C9433F"/>
<path d="M30.5736 37.1241C30.2704 32.6408 30.2704 28.142 30.5736 23.6587C30.8739 28.1421 30.8739 32.6407 30.5736 37.1241Z" fill="#C9433F"/>
<path d="M76.9453 10.8418C78.3586 10.6648 89.1992 9.23748 83.5404 7.36778C80.4549 6.3533 75.7441 6.07609 72.4937 5.71631C76.2328 5.91684 80.0073 5.99942 83.6287 7.09057C84.3824 7.3206 86.1961 8.06376 85.1538 9.02515C84.358 9.56232 83.4564 9.92233 82.5099 10.0809C80.676 10.4697 78.8162 10.724 76.9453 10.8418Z" fill="white"/>
<path d="M66.6226 11.3128C69.2311 11.1126 71.8221 11.0302 74.4365 11.0537C71.8497 11.4313 69.2287 11.5182 66.6226 11.3128Z" fill="white"/>
<path d="M52.4316 10.311C54.1896 10.4081 55.9387 10.6269 57.6665 10.9657C55.8978 11.0291 54.1304 10.8081 52.4316 10.311Z" fill="white"/>
<path d="M66.623 5.57429C63.4079 5.69225 60.1987 5.82201 57.0013 6.12871C55.3996 6.27027 53.8039 6.45901 52.2258 6.71852C50.8773 6.98984 49.4111 7.16088 48.2393 7.93943C48.1576 7.99519 48.0886 8.06764 48.0368 8.15201C47.9851 8.23638 47.9517 8.33077 47.939 8.42898C47.9452 8.32764 47.9732 8.22884 48.0209 8.13929C48.0687 8.04973 48.1351 7.97151 48.2157 7.90994C49.3463 7.04292 50.8302 6.81289 52.1845 6.49439C53.7685 6.1759 55.3702 5.98716 56.9719 5.82201C60.1806 5.53798 63.4037 5.45131 66.623 5.56249V5.57429Z" fill="white"/>
<path d="M74.0364 9.84487C74.9314 9.70922 82.8691 8.84219 78.6824 7.85131C76.1621 7.23201 73.4122 7.13764 70.8271 6.84863C73.7714 6.97839 76.8923 6.84863 79.7246 7.90439C82.08 9.42611 74.7901 9.83897 74.0364 9.84487Z" fill="white"/>
<path d="M66.6226 10.1221C68.482 9.86688 70.3635 9.81358 72.2343 9.96306C70.3706 10.2142 68.4854 10.2655 66.6108 10.1162L66.6226 10.1221Z" fill="white"/>
<path d="M56.4062 9.53219C57.6748 9.45876 58.947 9.58796 60.1749 9.91494C58.9062 9.99155 57.6336 9.86229 56.4062 9.53219Z" fill="white"/>
<path d="M66.6226 6.76637C64.3379 6.9846 62.0414 6.94331 59.7567 7.17923C57.9607 7.39156 55.093 7.38567 53.4325 8.13473C53.3206 8.20551 53.1851 8.29397 53.1675 8.44143C53.1803 8.3702 53.2086 8.30267 53.2503 8.24357C53.292 8.18447 53.3462 8.13523 53.4089 8.09934C55.3462 7.10256 57.6191 7.16154 59.7331 6.88433C62.0237 6.68379 64.3261 6.74277 66.6226 6.76637Z" fill="white"/>
<path d="M70.4676 8.12225C69.5608 13.5898 68.3066 20.2783 67.3467 25.2622C67.1995 26.0171 67.0641 26.7308 66.9287 27.3973C66.7932 28.0638 66.6696 28.7538 66.5518 29.3318C66.5518 29.3849 66.5518 29.4321 66.5223 29.4793C66.4752 29.7388 66.4223 29.9865 66.381 30.2166C66.3398 30.4466 66.3104 30.5587 66.2809 30.7179C66.2515 30.8772 66.2397 30.9125 66.2221 31.0069L65.9335 32.4637L59.2266 31.6321V31.5554C59.2737 31.2841 59.4562 30.3168 59.7271 28.86C59.7565 28.7243 59.7801 28.5828 59.8095 28.4353L59.8802 28.0579C59.9096 27.8691 59.945 27.6804 59.9862 27.468C60.0981 26.8782 60.2158 26.2 60.3454 25.4922C61.2404 20.6085 62.4829 13.6488 63.4132 7.79785C65.857 7.86863 68.2123 7.98069 70.4676 8.12225Z" fill="#C9433F"/>
<path opacity="0.7" d="M70.4676 8.12225C69.5608 13.5898 68.3066 20.2783 67.3467 25.2622C67.1995 26.0171 67.0641 26.7308 66.9287 27.3973C66.7932 28.0638 66.6696 28.7538 66.5518 29.3318C66.5518 29.3849 66.5518 29.4321 66.5223 29.4793C66.4752 29.7388 66.4223 29.9865 66.381 30.2166C66.3398 30.4466 66.3104 30.5587 66.2809 30.7179C66.2515 30.8772 66.2397 30.9125 66.2221 31.0069L65.9335 32.4637L59.2266 31.6321V31.5554C59.2737 31.2841 59.4562 30.3168 59.7271 28.86C59.7565 28.7243 59.7801 28.5828 59.8095 28.4353L59.8802 28.0579C59.9096 27.8691 59.945 27.6804 59.9862 27.468C60.0981 26.8782 60.2158 26.2 60.3454 25.4922C61.2404 20.6085 62.4829 13.6488 63.4132 7.79785C65.857 7.86863 68.2123 7.98069 70.4676 8.12225Z" fill="white"/>
<path d="M66.9345 27.3979C66.3457 30.4532 65.9335 32.4644 65.9335 32.4644L59.2266 31.6328C59.2266 31.6328 59.5328 30.0167 59.9979 27.5041L66.9345 27.3979Z" fill="#C9433F"/>
<path d="M69.714 22.9386C68.9457 23.1721 68.2394 23.5752 67.6471 24.1182C67.362 24.4281 67.1329 24.7854 66.97 25.174C66.8875 25.3745 66.7992 25.575 66.7286 25.7638C66.6351 26.0061 66.5269 26.2424 66.4047 26.4715C66.3753 26.5246 66.4577 26.5659 66.4871 26.5128C66.5817 26.3057 66.6961 26.1082 66.8287 25.923L67.2173 25.404C67.4444 25.0774 67.6901 24.7643 67.9534 24.4662C68.5087 23.94 69.1327 23.4916 69.8082 23.1332C69.8231 23.1158 69.8327 23.0943 69.8356 23.0716C69.8385 23.0488 69.8348 23.0256 69.8248 23.005C69.8148 22.9843 69.799 22.967 69.7793 22.9552C69.7596 22.9434 69.7369 22.9376 69.714 22.9386Z" fill="#C9433F"/>
<path d="M69.0012 21.388C68.4434 21.7117 67.9567 22.145 67.5703 22.662C67.38 22.9155 67.2069 23.1815 67.0522 23.4582C66.9061 23.7399 66.7802 24.0316 66.6753 24.3311C66.6753 24.3842 66.7401 24.4137 66.7636 24.3665C66.9138 24.0942 67.0789 23.8303 67.2582 23.5762C67.4358 23.3178 67.6326 23.0733 67.8471 22.8448C68.2509 22.3813 68.6857 21.9458 69.1485 21.5413C69.2073 21.4647 69.0896 21.329 69.0012 21.388Z" fill="white"/>
<path d="M59.9155 17.5364C59.7683 17.4774 59.6505 17.7074 59.7683 17.8018C61.0049 18.8104 62.0412 20.1611 62.1237 21.7889C62.1237 21.8014 62.1286 21.8134 62.1375 21.8223C62.1463 21.8311 62.1583 21.8361 62.1708 21.8361C62.1833 21.8361 62.1953 21.8311 62.2041 21.8223C62.2129 21.8134 62.2179 21.8014 62.2179 21.7889C62.3886 20.1021 61.5819 18.1616 59.9155 17.5364Z" fill="#C9433F"/>
<path d="M64.3912 17.1409C64.3078 16.5332 64.0311 15.9686 63.6022 15.5307C63.5842 15.5147 63.5616 15.505 63.5377 15.5029C63.5138 15.5008 63.4899 15.5064 63.4694 15.519C63.449 15.5315 63.4331 15.5503 63.4241 15.5726C63.4152 15.5949 63.4136 15.6195 63.4196 15.6428C63.6432 16.1631 63.8397 16.6946 64.0085 17.2353C64.0824 17.5061 64.1355 17.7821 64.1675 18.061C64.1675 18.2084 64.1675 18.35 64.1969 18.4975C64.1851 18.625 64.1851 18.7533 64.1969 18.8808C64.2017 18.8881 64.2083 18.8941 64.216 18.8983C64.2237 18.9024 64.2323 18.9046 64.2411 18.9046C64.2498 18.9046 64.2584 18.9024 64.2661 18.8983C64.2738 18.8941 64.2804 18.8881 64.2852 18.8808C64.3962 18.6157 64.4523 18.3308 64.4501 18.0433C64.4649 17.7412 64.4452 17.4385 64.3912 17.1409Z" fill="white"/>
<path d="M70.1675 13.1244C69.3372 13.5718 68.6249 14.2105 68.0894 14.9878C67.5539 15.7651 67.2107 16.6588 67.0879 17.5952C67.0879 17.6601 67.1762 17.6837 67.1998 17.6247C67.5289 16.794 67.9496 16.0027 68.454 15.2655C68.9837 14.5326 69.5962 13.8637 70.2794 13.2719C70.356 13.1893 70.2559 13.0832 70.1675 13.1244Z" fill="#C9433F"/>
<path d="M68.3894 12.0684C67.9733 12.384 67.6465 12.8027 67.4413 13.2834C67.336 13.5133 67.2513 13.7521 67.1881 13.997C67.1117 14.2497 67.0701 14.5117 67.0645 14.7756C67.0645 14.8346 67.1469 14.8405 67.1704 14.7756C67.247 14.5456 67.2941 14.3038 67.3824 14.0796C67.4735 13.842 67.5817 13.6114 67.7063 13.3895C67.9359 12.959 68.2421 12.5815 68.513 12.1686C68.5601 12.1097 68.46 12.0153 68.3894 12.0684Z" fill="white"/>
<path d="M64.5443 12.0807C64.5008 11.6618 64.3998 11.2509 64.244 10.8598C63.9234 10.0853 63.375 9.42701 62.6718 8.97236C62.5893 8.91928 62.501 9.04314 62.5717 9.10802C63.1046 9.61778 63.545 10.2165 63.873 10.8775C64.0325 11.2026 64.1607 11.5423 64.2558 11.8919C64.3085 12.0859 64.3497 12.2829 64.3794 12.4817C64.3794 12.641 64.4736 12.93 64.3794 13.0716C64.3441 13.1187 64.3794 13.1777 64.4442 13.1364C64.4914 13.0816 64.5272 13.0179 64.5494 12.949C64.5717 12.8801 64.58 12.8075 64.5737 12.7354C64.5816 12.5167 64.5718 12.2977 64.5443 12.0807Z" fill="#C9433F"/>
<path d="M63.7434 25.0446C63.7124 24.6327 63.5421 24.2436 63.2606 23.9417C63.1723 23.865 63.0015 23.9417 63.0486 24.0714C63.2096 24.3926 63.3455 24.7259 63.4549 25.0682C63.545 25.4267 63.565 25.7992 63.5138 26.1653C63.5138 26.2125 63.5786 26.2537 63.5962 26.2007C63.7386 25.8331 63.7892 25.4362 63.7434 25.0446Z" fill="white"/>
<path d="M60.7402 24.7734C60.4735 24.3333 60.1162 23.9553 59.6921 23.6645C59.5979 23.5997 59.5213 23.7412 59.5802 23.812C59.8865 24.1862 60.1678 24.5803 60.4222 24.9916C60.6764 25.3974 60.9045 25.819 61.1053 26.2538C61.1053 26.301 61.2113 26.2538 61.2054 26.2184C61.1577 25.7085 60.9989 25.2152 60.7402 24.7734Z" fill="#C9433F"/>
<path d="M72.4405 49.9226C71.7516 51.3382 73.4357 56.9178 72.0578 58.2744C68.2656 62.0138 60.6518 62.0138 56.4534 61.2234C52.2549 60.4331 45.1652 57.6845 42.9806 52.8009C42.1915 51.0315 45.7776 46.4545 45.654 44.8856C45.5303 43.3167 41.9383 42.2374 43.0277 36.8406C44.1171 31.4438 49.9761 28.8369 53.3443 28.6363C59.4597 28.3701 65.5544 29.5164 71.1569 31.9865C74.2189 33.402 78.7412 37.9613 77.799 43.3816C76.8569 48.802 73.1236 48.513 72.4405 49.9226Z" fill="#C9433F"/>
<path opacity="0.7" d="M72.4405 49.9226C71.7516 51.3382 73.4357 56.9178 72.0578 58.2744C68.2656 62.0138 60.6518 62.0138 56.4534 61.2234C52.2549 60.4331 45.1652 57.6845 42.9806 52.8009C42.1915 51.0315 45.7776 46.4545 45.654 44.8856C45.5303 43.3167 41.9383 42.2374 43.0277 36.8406C44.1171 31.4438 49.9761 28.8369 53.3443 28.6363C59.4597 28.3701 65.5544 29.5164 71.1569 31.9865C74.2189 33.402 78.7412 37.9613 77.799 43.3816C76.8569 48.802 73.1236 48.513 72.4405 49.9226Z" fill="white"/>
<path d="M71.5926 45.8353L46.9141 41.223C47.2262 40.3029 55.1167 36.3158 60.4222 37.3125C65.7277 38.3093 71.6456 44.868 71.5926 45.8353Z" fill="#C9433F"/>
<path opacity="0.1" d="M71.5926 45.8354L46.9141 41.2231C47.163 40.8798 47.49 40.6008 47.868 40.4092C49.3306 40.0361 50.8458 39.9145 52.3491 40.0494C55.2168 40.4623 57.2895 42.0724 59.4565 42.4794C61.6234 42.8864 64.1378 42.1373 66.9584 42.7979C68.4049 43.2222 69.7702 43.886 70.9978 44.762C71.2789 45.067 71.4829 45.4351 71.5926 45.8354Z" fill="black"/>
<path d="M73.3172 46.9028C73.2171 47.0562 70.8088 45.794 68.7184 45.8588C65.6917 45.9532 62.6061 49.3387 58.3076 48.5307C54.009 47.7226 52.3661 43.4465 49.575 42.2551C47.6554 41.4353 44.9467 41.742 44.9113 41.5532C44.876 41.3645 49.363 40.2202 52.213 40.6331C55.063 41.046 57.124 42.8213 59.2792 43.2283C61.4343 43.6353 63.9899 42.7505 66.8164 43.3875C69.6428 44.0245 73.4115 46.7436 73.3172 46.9028Z" fill="#C9433F"/>
<path opacity="0.1" d="M56.4536 46.8492C55.4466 47.0085 54.2866 44.7967 55.429 44.5548C56.5714 44.313 56.9894 46.7666 56.4536 46.8492Z" fill="black"/>
<path opacity="0.1" d="M60.6459 47.6397C61.5292 48.1529 63.4076 46.5132 62.4125 45.8703C61.4173 45.2274 60.1808 47.3684 60.6459 47.6397Z" fill="black"/>
<path d="M67.8652 51.114C67.8652 51.1612 67.9712 51.0786 67.9771 51.0314C68.2009 49.8813 68.6425 48.6014 69.7437 48.454C69.779 48.454 69.7908 48.395 69.7437 48.3891C68.4659 48.3006 67.8947 49.9875 67.8652 51.114Z" fill="#263238"/>
<path d="M69.2135 53.1605C71.9163 53.7857 72.6877 49.5391 70.1792 48.9552C67.6707 48.3713 66.9346 52.6356 69.2135 53.1605Z" fill="#263238"/>
<path d="M70.2795 53.1489C70.7211 52.9661 71.1863 52.5945 71.6692 52.6358C72.152 52.677 72.5465 53.2256 72.8115 53.7564C72.8115 53.8095 72.8881 53.7564 72.8998 53.721C73.0765 52.8658 72.8998 51.9516 72.0225 51.6154C71.1451 51.2792 70.4561 51.9811 70.0793 52.795C70.0086 52.9543 70.1028 53.2197 70.2795 53.1489Z" fill="#263238"/>
<path d="M49.4581 47.6519C49.4581 47.6931 49.3757 47.5811 49.3816 47.5339C49.5936 46.3543 49.6407 45.0272 48.6573 44.4846C48.622 44.4846 48.6573 44.4079 48.6573 44.4197C49.9233 44.7913 49.8585 46.5902 49.4581 47.6519Z" fill="#263238"/>
<path d="M47.4618 49.0675C44.7178 48.6664 45.5363 44.4316 48.086 44.7973C50.6357 45.1629 49.7701 49.4037 47.4618 49.0675Z" fill="#263238"/>
<path d="M46.4724 48.6659C46.1309 48.3415 45.8306 47.8225 45.3654 47.6868C44.9002 47.5512 44.329 47.9286 43.8933 48.3179C43.8461 48.3533 43.8108 48.3179 43.8226 48.253C43.9698 47.386 44.4585 46.5662 45.4007 46.6075C46.3428 46.6487 46.7315 47.5158 46.7845 48.4182C46.7963 48.5892 46.6137 48.8016 46.4724 48.6659Z" fill="#263238"/>
<path d="M56.2535 55.6376C55.7588 57.1413 55.095 58.5838 54.275 59.9374C53.4823 61.3002 52.5251 62.56 51.425 63.6886C51.3838 63.7298 51.425 63.777 51.478 63.7475C52.7339 62.7364 53.8125 61.5224 54.6695 60.1556C55.4846 58.7667 56.0506 57.2456 56.3418 55.6612C56.342 55.6507 56.3387 55.6404 56.3323 55.632C56.326 55.6236 56.317 55.6176 56.3069 55.6149C56.2967 55.6122 56.286 55.6129 56.2763 55.6171C56.2666 55.6212 56.2586 55.6284 56.2535 55.6376Z" fill="#C9433F"/>
<path d="M57.26 57.8089C56.73 61.7724 54.775 65.5236 52.3725 68.6732C52.3664 68.6794 52.3614 68.6867 52.3581 68.6948C52.3547 68.7029 52.353 68.7116 52.353 68.7204C52.353 68.7291 52.3547 68.7378 52.3581 68.7459C52.3614 68.754 52.3664 68.7613 52.3725 68.7675C52.3787 68.7737 52.3861 68.7786 52.3942 68.782C52.4022 68.7854 52.4109 68.7871 52.4197 68.7871C52.4284 68.7871 52.4371 68.7854 52.4451 68.782C52.4532 68.7786 52.4606 68.7737 52.4668 68.7675C55.5287 65.907 57.0068 61.9375 57.3483 57.8147C57.3542 57.7676 57.2659 57.7381 57.26 57.8089Z" fill="#C9433F"/>
<path d="M56.2649 58.8525C56.0032 59.6534 55.6619 60.426 55.2461 61.1586C54.8382 61.8969 54.3715 62.6011 53.8506 63.2643C53.8506 63.2997 53.8506 63.335 53.8918 63.3056C54.5157 62.7169 55.0442 62.0343 55.4581 61.2825C55.8582 60.5221 56.159 59.7133 56.3532 58.8761C56.3533 58.8655 56.35 58.8553 56.3437 58.8469C56.3373 58.8385 56.3284 58.8324 56.3182 58.8297C56.3081 58.827 56.2973 58.8278 56.2876 58.8319C56.278 58.836 56.2699 58.8433 56.2649 58.8525Z" fill="white"/>
<path d="M61.0051 62.9516C59.9413 61.6147 59.1636 60.0728 58.7204 58.4219C58.7204 58.3806 58.638 58.3865 58.6439 58.4219C58.7088 59.2924 58.9428 60.1419 59.3328 60.9227C59.7426 61.7076 60.2844 62.4159 60.9345 63.0165C60.9816 63.0755 61.0463 63.0047 61.0051 62.9516Z" fill="#C9433F"/>
<path d="M62.0121 58.3275C61.7471 57.7672 61.5057 57.2128 61.2937 56.6348C61.0652 56.0672 60.9109 55.4725 60.8344 54.8653C60.8344 54.7946 60.7284 54.8005 60.7166 54.8653C60.6008 55.4962 60.6495 56.1463 60.8579 56.7527C61.0903 57.3633 61.4427 57.9209 61.8943 58.3924C61.9414 58.4219 62.0474 58.3806 62.0121 58.3275Z" fill="white"/>
<path d="M54.5694 51.6446C54.4693 51.8038 54.3457 51.9395 54.2514 52.0987L53.9335 52.5824C53.7215 52.9009 53.5036 53.2076 53.2916 53.5143C53.0796 53.821 52.8735 54.1041 52.6615 54.4108C52.4496 54.7175 52.2023 55.0006 51.9962 55.3368C51.9899 55.35 51.9878 55.3648 51.9903 55.3792C51.9927 55.3937 51.9996 55.407 52.01 55.4173C52.0203 55.4277 52.0336 55.4346 52.048 55.437C52.0624 55.4395 52.0772 55.4375 52.0904 55.4311C52.6951 54.9574 53.2183 54.3876 53.639 53.7443C53.8591 53.4267 54.0559 53.0936 54.2279 52.7475C54.3162 52.5706 54.3986 52.3995 54.4752 52.2226C54.5517 52.0456 54.593 51.8628 54.6577 51.68C54.6754 51.6269 54.5989 51.6033 54.5694 51.6446Z" fill="white"/>
<path d="M52.5961 56.7288C52.4566 56.8676 52.3071 56.9958 52.1485 57.1122C51.9954 57.2478 51.8306 57.3776 51.6657 57.5015C51.3519 57.7329 51.0234 57.9437 50.6823 58.1326C49.9952 58.5207 49.2737 58.8445 48.5271 59.0999C48.5115 59.0999 48.4966 59.1061 48.4855 59.1171C48.4745 59.1282 48.4683 59.1432 48.4683 59.1588C48.4683 59.1745 48.4745 59.1895 48.4855 59.2005C48.4966 59.2116 48.5115 59.2178 48.5271 59.2178C49.3451 59.1548 50.1373 58.9024 50.8413 58.4806C51.1884 58.2694 51.5139 58.0244 51.8129 57.7492C51.9601 57.6135 52.1073 57.4661 52.2486 57.3127C52.39 57.1594 52.5019 56.9588 52.6432 56.7937C52.7021 56.7465 52.6314 56.6816 52.5961 56.7288Z" fill="#C9433F"/>
<path d="M73.7599 59.0055C73.5751 58.8434 73.3782 58.6955 73.1711 58.5632C72.9473 58.4039 72.7353 58.227 72.5234 58.05C72.1097 57.6994 71.7164 57.3252 71.3457 56.9294C70.9785 56.5343 70.6363 56.1167 70.3211 55.679C70.022 55.228 69.7507 54.7592 69.5085 54.2752C69.479 54.2221 69.3966 54.2752 69.4084 54.3165C69.6964 55.411 70.2393 56.4216 70.9924 57.2656C71.3611 57.6696 71.7784 58.0262 72.2348 58.3272C72.6776 58.6793 73.1891 58.9344 73.7364 59.0763C73.7432 59.0739 73.7493 59.07 73.7544 59.0649C73.7594 59.0597 73.7632 59.0535 73.7655 59.0467C73.7678 59.0398 73.7684 59.0326 73.7675 59.0255C73.7665 59.0183 73.7639 59.0115 73.7599 59.0055Z" fill="#C9433F"/>
<path d="M68.2889 57.2243C67.4023 55.9829 66.7991 54.5612 66.5224 53.0602C66.5148 53.0397 66.5004 53.0224 66.4815 53.0114C66.4627 53.0004 66.4406 52.9963 66.419 52.9997C66.3974 53.0032 66.3778 53.0141 66.3633 53.0305C66.3489 53.0469 66.3406 53.0678 66.3398 53.0897C66.4242 54.6686 67.0891 56.1604 68.2065 57.2774C68.2477 57.3186 68.3184 57.2656 68.2889 57.2243Z" fill="white"/>
<path d="M70.9328 61.0698C70.187 60.5265 69.4769 59.9354 68.8071 59.3004C68.1514 58.6351 67.549 57.9192 67.0052 57.1594C66.9982 57.1482 66.9891 57.1384 66.9784 57.1307C66.9677 57.123 66.9556 57.1175 66.9427 57.1145C66.9299 57.1115 66.9165 57.111 66.9035 57.1131C66.8905 57.1153 66.878 57.12 66.8668 57.1269C66.8556 57.1339 66.8459 57.143 66.8382 57.1538C66.8305 57.1645 66.825 57.1767 66.822 57.1895C66.819 57.2024 66.8185 57.2157 66.8207 57.2288C66.8228 57.2418 66.8275 57.2543 66.8344 57.2656C67.2593 58.133 67.8425 58.9132 68.5539 59.5658C69.2348 60.2279 70.0338 60.7561 70.9093 61.1229C70.9328 61.1642 70.9681 61.0993 70.9328 61.0698Z" fill="#C9433F"/>
<path d="M48.3096 50.1879C46.4893 51.7233 44.2102 52.6074 41.8323 52.7005C41.7557 52.7005 41.7381 52.8185 41.8323 52.8303C44.2642 53.2078 46.9788 52.3466 48.4391 50.2823C48.445 50.2292 48.3626 50.1466 48.3096 50.1879Z" fill="#C9433F"/>
<path d="M50.3945 49.1976C50.1439 49.7372 49.8317 50.2458 49.4641 50.7134C49.1064 51.1838 48.7127 51.6255 48.2864 52.0346C48.2216 52.0935 48.2864 52.1938 48.3806 52.1525C48.9112 51.8356 49.3704 51.4119 49.7291 50.908C50.0791 50.3998 50.3344 49.8323 50.4828 49.233C50.4946 49.1858 50.4475 49.1504 50.3945 49.1976Z" fill="white"/>
<path d="M48.2211 53.0193C47.6498 53.6774 46.978 54.2408 46.2308 54.6884C45.4978 55.1514 44.7054 55.5125 43.8754 55.7619C43.8459 55.7619 43.8754 55.815 43.8754 55.8091C44.7673 55.7027 45.6254 55.4028 46.3898 54.9302C47.1424 54.4396 47.7941 53.8089 48.3094 53.0723C48.3271 53.0193 48.2564 52.978 48.2211 53.0193Z" fill="#C9433F"/>
<path d="M65.3804 57.8911C65.1307 57.4015 64.9104 56.8972 64.7209 56.3812C64.7209 56.3222 64.6267 56.3812 64.6326 56.3812C64.7296 56.9361 64.8999 57.4756 65.139 57.9855C65.3849 58.4874 65.7111 58.9456 66.1047 59.342C66.1341 59.3774 66.193 59.342 66.1636 59.2949C65.8809 58.8584 65.6277 58.3748 65.3804 57.8911Z" fill="white"/>
<path d="M63.0601 55.4908C62.1491 54.0974 61.5079 52.5448 61.1699 50.9139C61.1699 50.8667 61.0993 50.8844 61.0934 50.9139C61.0392 51.7798 61.1884 52.6465 61.5291 53.4442C61.8726 54.2322 62.369 54.9439 62.9895 55.538C62.9971 55.5425 63.0059 55.5448 63.0147 55.5446C63.0236 55.5444 63.0322 55.5416 63.0396 55.5367C63.047 55.5317 63.0528 55.5248 63.0565 55.5167C63.0601 55.5086 63.0614 55.4996 63.0601 55.4908Z" fill="#C9433F"/>
<path d="M79.0121 42.8629C78.3628 43.5675 77.6726 44.2331 76.9453 44.8565C76.2042 45.4739 75.3964 46.0061 74.5369 46.4431C74.478 46.4726 74.5369 46.5729 74.584 46.5552C76.4967 45.9732 78.1094 44.6707 79.0828 42.9219C79.1063 42.8747 79.0475 42.8276 79.0121 42.8629Z" fill="#C9433F"/>
<path d="M46.3662 42.9923C46.007 42.8862 45.6242 42.8331 45.2592 42.7387C44.8941 42.6443 44.5231 42.5441 44.158 42.4261C43.7929 42.3081 43.4161 42.1843 43.051 42.0309C42.6859 41.8776 42.3562 41.7006 42.0028 41.5591C41.9896 41.5497 41.9731 41.546 41.9571 41.5487C41.9411 41.5515 41.9268 41.5605 41.9175 41.5738C41.9081 41.5871 41.9044 41.6036 41.9071 41.6196C41.9099 41.6357 41.9189 41.65 41.9322 41.6594C42.5307 42.203 43.2429 42.606 44.0167 42.839C44.7705 43.1101 45.579 43.1931 46.3721 43.0808C46.4192 43.0513 46.4074 42.9923 46.3662 42.9923Z" fill="#C9433F"/>
<path d="M44.3527 41.0106C43.8243 40.6209 43.3369 40.1782 42.8982 39.6894C42.4793 39.1838 42.1105 38.6386 41.7971 38.0615C41.7617 37.9966 41.6793 38.0615 41.6911 38.1087C41.8269 38.7932 42.1407 39.4296 42.6008 39.9537C43.0609 40.4777 43.651 40.8708 44.3114 41.0931C44.3219 41.0959 44.333 41.0949 44.3428 41.0905C44.3526 41.086 44.3606 41.0783 44.3655 41.0686C44.3703 41.0589 44.3716 41.0479 44.3693 41.0373C44.367 41.0268 44.3611 41.0173 44.3527 41.0106Z" fill="#C9433F"/>
<path d="M78.0343 38.097C78.0343 38.044 77.9342 38.0558 77.9342 38.097C77.9722 38.9785 77.8607 39.8599 77.6045 40.704C77.3667 41.5753 76.936 42.3817 76.3443 43.0633C76.3388 43.0723 76.3365 43.0829 76.3377 43.0935C76.339 43.104 76.3437 43.1138 76.3512 43.1213C76.3587 43.1288 76.3685 43.1335 76.379 43.1348C76.3895 43.136 76.4001 43.1337 76.4091 43.1281C76.7494 42.8123 77.059 42.4647 77.3336 42.0901C77.5844 41.6971 77.7824 41.2727 77.9224 40.8279C78.2279 39.9486 78.2668 38.9984 78.0343 38.097Z" fill="#C9433F"/>
<path d="M52.5729 29.3263C52.4024 29.144 52.2036 28.9907 51.9841 28.8721C51.7642 28.7509 51.5283 28.6615 51.2834 28.6067C51.2498 28.5934 51.2123 28.594 51.1792 28.6084C51.146 28.6228 51.12 28.6498 51.1067 28.6834C51.0934 28.717 51.094 28.7546 51.1084 28.7877C51.1227 28.8209 51.1497 28.847 51.1833 28.8603C51.3876 28.9553 51.5845 29.0657 51.7721 29.1906C51.9546 29.3145 52.1372 29.4325 52.308 29.574C52.6615 29.8659 52.964 30.2147 53.203 30.6062C53.2107 30.6131 53.2203 30.6176 53.2306 30.6192C53.2409 30.6207 53.2514 30.6191 53.2608 30.6147C53.2702 30.6103 53.2781 30.6033 53.2835 30.5944C53.2889 30.5855 53.2917 30.5753 53.2913 30.5649C53.159 30.0984 52.912 29.6725 52.5729 29.3263Z" fill="#C9433F"/>
<path d="M44.9526 31.4146C44.9555 31.395 44.9518 31.3749 44.942 31.3577C44.9322 31.3405 44.9169 31.327 44.8986 31.3195C44.8802 31.312 44.8599 31.3109 44.8409 31.3164C44.8218 31.3219 44.8052 31.3336 44.7936 31.3497C44.4248 32.0183 44.2437 32.7745 44.2695 33.5379C44.3046 34.2884 44.5058 35.0217 44.8584 35.6848C44.8649 35.6924 44.8737 35.6976 44.8834 35.6998C44.8931 35.7021 44.9033 35.7012 44.9125 35.6972C44.9216 35.6933 44.9293 35.6865 44.9344 35.6779C44.9395 35.6694 44.9417 35.6594 44.9408 35.6494C44.5531 34.264 44.5571 32.7979 44.9526 31.4146Z" fill="#C9433F"/>
<path d="M45.9776 34.8233C45.9776 34.7795 45.9602 34.7375 45.9293 34.7066C45.8984 34.6756 45.8565 34.6582 45.8127 34.6582C45.769 34.6582 45.7271 34.6756 45.6961 34.7066C45.6652 34.7375 45.6479 34.7795 45.6479 34.8233C45.6336 35.3588 45.7309 35.8913 45.9337 36.3869C46.1365 36.8825 46.4402 37.3303 46.8255 37.7016C46.8668 37.737 46.9257 37.7016 46.8962 37.6426C46.3965 36.7776 46.0835 35.8171 45.9776 34.8233Z" fill="white"/>
<path d="M59.138 32.1401C59.1231 32.1178 59.1007 32.1016 59.0749 32.0944C59.0491 32.0872 59.0216 32.0896 58.9973 32.101C58.9731 32.1124 58.9538 32.1322 58.9428 32.1567C58.9319 32.1812 58.9301 32.2088 58.9378 32.2345C59.1185 32.8907 59.2639 33.5562 59.3735 34.228C59.4618 34.9153 59.4618 35.611 59.3735 36.2983C59.3735 36.3455 59.4383 36.3868 59.4619 36.3337C59.756 35.6618 59.8803 34.9277 59.8238 34.1963C59.7673 33.4649 59.5318 32.7587 59.138 32.1401Z" fill="#C9433F"/>
<path d="M62.2239 30.8892C61.7742 31.3928 61.4316 31.9828 61.217 32.6232C61.0135 33.2688 60.9025 33.94 60.8872 34.6168C60.8872 34.6293 60.8922 34.6413 60.901 34.6502C60.9098 34.659 60.9218 34.664 60.9343 34.664C60.9468 34.664 60.9588 34.659 60.9676 34.6502C60.9765 34.6413 60.9814 34.6293 60.9814 34.6168C61.1031 33.9721 61.2905 33.3416 61.5408 32.7353C61.7822 32.1455 62.0296 31.5557 62.3181 30.9659C62.324 30.901 62.2239 30.8361 62.2239 30.8892Z" fill="white"/>
<path d="M63.0369 33.4489C62.6103 34.0341 62.2876 34.6885 62.083 35.3835C62.083 35.4307 62.1478 35.466 62.1654 35.4189C62.4622 34.7728 62.8066 34.1498 63.1959 33.5551C63.2489 33.4725 63.1076 33.3604 63.0369 33.4489Z" fill="#C9433F"/>
<path d="M69.0543 30.2054C68.2795 30.3429 67.551 30.6713 66.9344 31.1609C66.3356 31.6711 65.8655 32.3157 65.5624 33.0423C65.5562 33.0533 65.5545 33.0663 65.5578 33.0785C65.5611 33.0906 65.5691 33.101 65.5801 33.1072C65.591 33.1135 65.604 33.1151 65.6161 33.1118C65.6282 33.1085 65.6386 33.1005 65.6448 33.0895C66.0546 32.457 66.5706 31.9002 67.1699 31.444C67.7495 30.9691 68.3965 30.5834 69.0896 30.2997C69.1021 30.295 69.1122 30.2856 69.1177 30.2734C69.1232 30.2612 69.1237 30.2474 69.119 30.2348C69.1143 30.2223 69.1049 30.2122 69.0927 30.2067C69.0806 30.2011 69.0668 30.2007 69.0543 30.2054Z" fill="#C9433F"/>
<path d="M76.1735 40.8281C75.9439 41.2174 75.6848 41.5949 75.4316 41.9665C75.1807 42.3492 74.8819 42.698 74.5424 43.0045C74.5071 43.0045 74.5424 43.1048 74.6013 43.0753C74.9735 42.7959 75.3185 42.4819 75.6318 42.1375C75.9409 41.7892 76.1879 41.3901 76.3619 40.9579C76.4091 40.8045 76.2442 40.7043 76.1735 40.8281Z" fill="white"/>
<path d="M76.4855 36.3574C76.4502 36.2099 76.25 36.263 76.2441 36.3928C76.2441 36.6287 76.2441 36.8646 76.2441 37.0947C76.2292 37.3322 76.1997 37.5686 76.1558 37.8024C76.0617 38.27 75.8948 38.7198 75.6611 39.1354C75.6611 39.1767 75.7024 39.2298 75.7377 39.1885C76.0348 38.7891 76.2581 38.3396 76.3972 37.8614C76.5561 37.3762 76.5866 36.8579 76.4855 36.3574Z" fill="#C9433F"/>
<path d="M71.4867 38.3917C71.1598 39.2562 70.7266 40.0765 70.1971 40.8336C70.1618 40.8807 70.1971 40.9397 70.2618 40.8984C70.9696 40.2496 71.4626 39.3997 71.6751 38.4625C71.6927 38.3563 71.5397 38.2738 71.4867 38.3917Z" fill="white"/>
<path d="M70.8092 35.4015C70.6797 35.8969 70.556 36.3983 70.4029 36.8937C70.2484 37.3933 70.0514 37.8788 69.8141 38.3447C69.807 38.3572 69.8053 38.372 69.8091 38.3858C69.813 38.3996 69.8222 38.4114 69.8347 38.4184C69.8472 38.4254 69.8619 38.4272 69.8757 38.4233C69.8895 38.4195 69.9012 38.4103 69.9083 38.3977C70.5545 37.5365 70.9609 36.5188 71.086 35.4487C71.1036 35.2658 70.8504 35.2482 70.8092 35.4015Z" fill="#C9433F"/>
<path d="M68.9306 33.3436C68.4837 33.6517 68.1098 34.0544 67.8354 34.5232C67.551 34.9759 67.3366 35.469 67.1994 35.9859C67.1985 35.9959 67.2007 36.0059 67.2058 36.0144C67.2109 36.023 67.2186 36.0298 67.2278 36.0337C67.2369 36.0377 67.2471 36.0386 67.2568 36.0363C67.2665 36.0341 67.2753 36.0289 67.2819 36.0213C67.5173 35.5544 67.7953 35.1101 68.1121 34.6942C68.4183 34.2755 68.7657 33.898 69.0837 33.5146C69.1191 33.4085 69.0307 33.2787 68.9306 33.3436Z" fill="white"/>
<path d="M53.4384 32.8887C53.1953 32.1714 52.7288 31.5512 52.1076 31.1193C52.0605 31.0898 51.9898 31.1606 52.0252 31.2077C52.2378 31.4935 52.4343 31.7908 52.614 32.0984C52.8083 32.3992 52.9968 32.6882 53.1616 33.0303C53.4871 33.6701 53.7191 34.3534 53.8506 35.0592C53.8506 35.0717 53.8556 35.0837 53.8644 35.0926C53.8732 35.1014 53.8852 35.1064 53.8977 35.1064C53.9102 35.1064 53.9222 35.1014 53.931 35.0926C53.9398 35.0837 53.9448 35.0717 53.9448 35.0592C53.8983 34.3124 53.7271 33.5788 53.4384 32.8887Z" fill="#C9433F"/>
<path d="M50.5179 32.4115C50.4085 32.1961 50.2866 31.9873 50.1528 31.7863C49.915 31.3646 49.5773 31.0081 49.1694 30.7482C49.1523 30.7388 49.1326 30.7354 49.1134 30.7383C49.0941 30.7413 49.0764 30.7506 49.0629 30.7648C49.0495 30.7789 49.0411 30.7971 49.0391 30.8165C49.037 30.8359 49.0414 30.8555 49.0516 30.8721C49.2927 31.2408 49.5625 31.5898 49.8584 31.9161C49.9938 32.093 50.1292 32.264 50.2588 32.4469C50.3235 32.5413 50.3883 32.6356 50.4472 32.7359C50.5258 32.833 50.5875 32.9427 50.6297 33.0603C50.6297 33.1075 50.724 33.1016 50.7181 33.0603C50.6938 32.8331 50.6258 32.6128 50.5179 32.4115Z" fill="white"/>
<path d="M55.258 29.4624C54.8432 28.7913 54.2763 28.2275 53.6034 27.8168C53.5939 27.8119 53.5829 27.8103 53.5724 27.8125C53.5619 27.8146 53.5524 27.8202 53.5456 27.8285C53.5387 27.8368 53.5349 27.8471 53.5347 27.8578C53.5345 27.8686 53.5379 27.8791 53.5445 27.8876C54.1133 28.4108 54.612 29.0055 55.0284 29.657C55.4575 30.2984 55.7742 31.0085 55.9647 31.7567C55.9647 31.8157 56.0589 31.7567 56.053 31.7567C55.9498 30.945 55.679 30.1636 55.258 29.4624Z" fill="white"/>
<path d="M59.527 54.1281C59.2802 53.6031 59.0831 53.0561 58.9382 52.4943C58.7814 51.9402 58.6711 51.374 58.6084 50.8015C58.6041 50.7869 58.5951 50.7741 58.5829 50.765C58.5707 50.7559 58.5559 50.751 58.5407 50.751C58.5255 50.751 58.5107 50.7559 58.4985 50.765C58.4863 50.7741 58.4773 50.7869 58.473 50.8015C58.4079 51.395 58.4559 51.9954 58.6143 52.571C58.7895 53.1472 59.0711 53.6854 59.4446 54.1576C59.4858 54.2283 59.5506 54.1988 59.527 54.1281Z" fill="white"/>
<path d="M57.2835 51.5623C57.0472 52.0636 56.7612 52.5399 56.4297 52.9838C56.1105 53.439 55.7477 53.8617 55.3462 54.246C55.3462 54.246 55.3462 54.3108 55.3874 54.2931C55.892 54.0133 56.3316 53.6293 56.677 53.1666C57.0162 52.6991 57.2511 52.1641 57.3659 51.5977C57.3777 51.5505 57.3012 51.5151 57.2835 51.5623Z" fill="#C9433F"/>
<path d="M0.142169 73.2914C0.49106 69.9497 1.76015 66.7708 3.80782 64.1095C5.85548 61.4482 8.60117 59.4092 11.7385 58.22C14.8758 57.0308 18.2813 56.7382 21.575 57.3749C24.8686 58.0115 27.9209 59.5524 30.3912 61.8255L39.4476 60.4925L34.9135 68.337C36.0473 71.0976 36.4744 74.0982 36.156 77.0662C35.9398 79.4596 35.2509 81.7861 34.1293 83.9105C33.0077 86.0349 31.4757 87.9148 29.6225 89.4411C27.7693 90.9673 25.6318 92.1095 23.3341 92.8011C21.0364 93.4928 18.6243 93.7202 16.2381 93.4701C13.8519 93.22 11.5392 92.4973 9.43419 91.3442C7.32921 90.1911 5.47402 88.6305 3.9764 86.753C2.47879 84.8755 1.36861 82.7186 0.710384 80.4077C0.0521599 78.0967 -0.140983 75.6778 0.142169 73.2914Z" fill="white"/>
<path d="M0.142433 73.2912C0.491403 69.9498 1.75478 66.7699 3.79327 64.1019C4.78345 62.7484 5.97499 61.5549 7.32635 60.5631C8.65926 59.5497 10.1282 58.7297 11.6897 58.1272C13.253 57.5111 14.8937 57.1141 16.5653 56.9475C17.4012 56.8699 18.2416 56.8542 19.0797 56.9003C19.9215 56.919 20.7604 57.0058 21.5882 57.1599C24.9262 57.7751 28.0274 59.3088 30.5445 61.5893L30.3267 61.5245L39.3772 60.1325L40.0308 60.0322L39.7011 60.6221L35.1964 68.4783V68.1716C36.2526 70.7474 36.7084 73.5305 36.5293 76.3093C36.3502 79.088 35.5408 81.7893 34.1627 84.2076C32.7847 86.626 30.8742 88.6977 28.5765 90.2653C26.2789 91.8329 23.6547 92.855 20.9033 93.254C18.152 93.653 15.3461 93.4183 12.699 92.5677C10.0519 91.7172 7.6332 90.2732 5.62697 88.3457C3.62074 86.4181 2.07976 84.0576 1.12122 81.4438C0.162681 78.8301 -0.188177 76.0317 0.0953244 73.2617L0.142433 73.2912ZM0.142433 73.2912C-0.125348 76.029 0.229888 78.7919 1.18145 81.3724C2.13301 83.9529 3.65613 86.2837 5.63635 88.1898C7.62794 90.0702 10.014 91.4809 12.6201 92.3185C15.2267 93.1197 17.9802 93.3213 20.6755 92.9083C23.3582 92.5087 25.9141 91.5 28.1479 89.9593C30.359 88.4095 32.2074 86.3971 33.5653 84.0611C34.9 81.7122 35.6852 79.0905 35.8618 76.3936C36.0324 73.697 35.5978 70.9964 34.5899 68.4901L34.5251 68.3309L34.6134 68.1834L39.1711 60.3566L39.495 60.8344L30.4268 62.0789H30.3031L30.2148 61.9963C27.7972 59.7271 24.7953 58.1788 21.547 57.5255C20.7357 57.3605 19.9127 57.2599 19.0856 57.2247C18.2623 57.1658 17.4358 57.1658 16.6124 57.2247C14.9592 57.3496 13.3318 57.707 11.778 58.2864C10.2133 58.8524 8.74091 59.6475 7.40878 60.6456C6.05857 61.6134 4.86667 62.7853 3.87571 64.1196C1.8088 66.7724 0.516531 69.9471 0.142433 73.2912Z" fill="#263238"/>
<path d="M19.3743 77.9565V80.1506C19.3792 80.3711 19.3393 80.5903 19.2573 80.795C19.1753 80.9997 19.0527 81.1857 18.897 81.3416C18.7413 81.4976 18.5556 81.6204 18.3513 81.7025C18.1469 81.7847 17.9281 81.8246 17.7079 81.8198C17.2654 81.8198 16.8409 81.6441 16.5275 81.3312C16.214 81.0184 16.0371 80.5938 16.0356 80.1506V76.6117C16.0356 76.5763 16.0709 76.5763 16.0709 76.5468C16.0709 76.5174 16.0356 76.5115 16.0356 76.4761C16.0577 76.0428 16.2422 75.6339 16.5522 75.331C16.8622 75.0282 17.275 74.8536 17.7079 74.8423C18.2212 74.8625 18.7333 74.7787 19.2135 74.5959C19.6937 74.413 20.1321 74.135 20.5024 73.7784C20.8727 73.4217 21.1673 72.9939 21.3685 72.5205C21.5698 72.0471 21.6735 71.5378 21.6735 71.0233C21.6735 70.5087 21.5698 69.9995 21.3685 69.526C21.1673 69.0526 20.8727 68.6248 20.5024 68.2682C20.1321 67.9115 19.6937 67.6335 19.2135 67.4507C18.7333 67.2678 18.2212 67.184 17.7079 67.2042C17.0469 67.2029 16.3971 67.3754 15.8236 67.7045C15.2501 68.0337 14.7729 68.5079 14.4398 69.0798C14.3275 69.2718 14.1783 69.4395 14.0008 69.5733C13.8233 69.707 13.621 69.8041 13.4057 69.859C13.1905 69.9139 12.9665 69.9254 12.7467 69.8929C12.527 69.8604 12.3159 69.7845 12.1256 69.6696C11.9364 69.5594 11.7709 69.4127 11.6386 69.2379C11.5064 69.0631 11.4101 68.8638 11.3554 68.6515C11.3006 68.4392 11.2884 68.2181 11.3196 68.0011C11.3507 67.784 11.4245 67.5753 11.5368 67.3871C12.1312 66.3615 12.9706 65.4999 13.9796 64.8796C14.9885 64.2593 16.1355 63.8997 17.3175 63.8331C18.4996 63.7665 19.6796 63.995 20.7517 64.498C21.8237 65.0011 22.7543 65.763 23.4598 66.7152C24.1653 67.6675 24.6236 68.7804 24.7936 69.9539C24.9636 71.1275 24.8399 72.3249 24.4337 73.4388C24.0275 74.5526 23.3515 75.548 22.4664 76.3355C21.5813 77.123 20.5147 77.678 19.3626 77.9506L19.3743 77.9565ZM19.3743 85.4235V86.0133C19.3792 86.2338 19.3393 86.453 19.2573 86.6577C19.1753 86.8624 19.0527 87.0484 18.897 87.2043C18.7413 87.3603 18.5556 87.4831 18.3513 87.5653C18.1469 87.6474 17.9281 87.6873 17.7079 87.6825C17.2654 87.6825 16.8409 87.5068 16.5275 87.1939C16.214 86.8811 16.0371 86.4565 16.0356 86.0133V85.4235C16.0432 84.9822 16.222 84.5611 16.5342 84.2496C16.8463 83.938 17.2673 83.7604 17.7079 83.7543C17.9274 83.752 18.1452 83.7935 18.3484 83.8766C18.5517 83.9596 18.7363 84.0825 18.8915 84.2379C19.0467 84.3934 19.1694 84.5784 19.2523 84.7819C19.3352 84.9855 19.3767 85.2036 19.3743 85.4235Z" fill="#C9433F"/>
</svg>
