<svg width="342" height="215" viewBox="0 0 342 215" fill="none" xmlns="http://www.w3.org/2000/svg">
<path d="M329.065 11.0899L300.604 0.899902L272.414 10.9549C268.815 12.6499 265.661 13.6649 265.661 16.9999V33.6549C265.611 45.3439 268.826 56.8158 274.946 66.7849C281.055 76.8635 290.113 84.8343 300.9 89.6249C312.431 85.8949 321.024 75.9399 326.278 67.4299C332.402 57.4643 335.619 45.9932 335.567 34.3049V19.3349C335.547 14.5649 333.011 12.2399 329.065 11.0899Z" fill="#F5F5F5"/>
<path d="M300.9 79.9649C290.984 75.5599 284.542 68.4649 280.381 61.7449C275.538 53.8584 272.995 44.7824 273.036 35.5349V23.8599C273.036 21.2149 274.635 18.7349 277.814 17.2549L300.629 8.7549V0.899902L272.414 10.9549C269.457 12.2449 265.661 13.6649 265.661 17.0099V33.6549C265.611 45.3439 268.826 56.8158 274.946 66.7849C281.055 76.8635 290.113 84.8343 300.9 89.6249V79.9649Z" fill="#EBEBEB"/>
<path d="M300.9 89.6249C302.831 88.9949 304.702 88.1951 306.49 87.2349C310.88 84.7498 314.871 81.6198 318.327 77.9499C321.462 74.5805 324.222 70.8822 326.559 66.9199C332.766 56.8849 335.902 45.2615 335.583 33.4749V19.7299C335.583 12.8849 332.073 12.3799 329.065 11.0899L300.604 0.899902V8.7499L323.666 17.3949C326.844 18.8949 328.444 21.3499 328.444 23.9949V35.6699C328.483 44.9179 325.938 53.994 321.094 61.8799C316.943 68.6149 310.797 75.5599 300.9 79.9649V89.6249Z" fill="#E0E0E0"/>
<path d="M308.154 34.7849L308.184 32.5399C308.184 30.5853 307.406 28.7107 306.02 27.3285C304.634 25.9464 302.755 25.1699 300.795 25.1699C298.835 25.1699 296.955 25.9464 295.57 27.3285C294.184 28.7107 293.405 30.5853 293.405 32.5399L293.375 34.8249C292.399 34.9742 291.508 35.4672 290.864 36.2146C290.22 36.9621 289.866 37.9146 289.866 38.8999V52.1499C289.866 53.2439 290.301 54.2932 291.077 55.0667C291.853 55.8403 292.905 56.2749 294.002 56.2749H307.798C308.895 56.2749 309.947 55.8403 310.723 55.0667C311.499 54.2932 311.934 53.2439 311.934 52.1499V38.8999C311.936 37.8664 311.548 36.8701 310.848 36.1081C310.148 35.3461 309.187 34.8739 308.154 34.7849V34.7849ZM302.765 48.8449H299.16L299.722 46.2449C299.32 45.9948 299.01 45.6217 298.838 45.1814C298.666 44.741 298.642 44.257 298.768 43.8017C298.895 43.3463 299.166 42.944 299.54 42.6548C299.915 42.3656 300.373 42.2051 300.847 42.1971C301.321 42.1892 301.785 42.3343 302.169 42.6107C302.553 42.8872 302.837 43.2802 302.979 43.7311C303.121 44.182 303.113 44.6665 302.956 45.1124C302.799 45.5582 302.502 45.9415 302.108 46.2049L302.765 48.8449ZM306.56 34.7649H294.969L294.999 32.5399C295.044 31.0357 295.674 29.608 296.757 28.5597C297.839 27.5114 299.288 26.925 300.797 26.925C302.306 26.925 303.756 27.5114 304.838 28.5597C305.921 29.608 306.551 31.0357 306.595 32.5399L306.56 34.7649Z" fill="#E0E0E0"/>
<path d="M277.628 34.6247C277.388 33.8777 277.245 33.103 277.202 32.3197C276.991 30.4426 276.914 28.5528 276.972 26.6647C277.002 25.5597 277.077 24.5097 277.177 23.5547C277.222 22.6877 277.438 21.838 277.814 21.0547C278.089 20.5202 278.523 20.0836 279.057 19.8047C279.443 19.6247 279.684 19.6347 279.689 19.6597C279.002 19.9787 278.449 20.527 278.125 21.2097C277.816 21.9736 277.646 22.7863 277.623 23.6097C277.548 24.5547 277.488 25.6097 277.458 26.6897C277.393 28.8797 277.458 30.8647 277.543 32.2997C277.628 33.7347 277.704 34.6147 277.628 34.6247Z" fill="white"/>
<path d="M278.049 41.8697C277.909 41.8697 277.784 41.1897 277.769 40.3397C277.754 39.4897 277.849 38.8047 277.984 38.8047C278.12 38.8047 278.25 39.4847 278.265 40.3047C278.28 41.1247 278.185 41.8647 278.049 41.8697Z" fill="white"/>
<path d="M341.819 206.705C341.819 206.78 265.291 206.835 170.915 206.835C76.5386 206.835 0 206.78 0 206.705C0 206.63 76.5085 206.575 170.915 206.575C265.321 206.575 341.819 206.635 341.819 206.705Z" fill="#263238"/>
<path d="M280.847 15.0298H63.2683C61.4701 15.0338 59.7469 15.7486 58.4763 17.0177C57.2058 18.2867 56.4916 20.0064 56.4902 21.7998V175.045C56.4902 176.839 57.2039 178.56 58.4746 179.83C59.7453 181.1 61.4692 181.816 63.2683 181.82H146.775C146.775 181.82 152.084 198.2 135.621 206.675H213.693C213.693 206.675 195.119 200.32 199.882 181.82H280.847C282.648 181.818 284.374 181.104 285.647 179.834C286.92 178.563 287.635 176.841 287.635 175.045V21.7998C287.635 20.0043 286.92 18.2823 285.647 17.0127C284.374 15.743 282.647 15.0298 280.847 15.0298V15.0298Z" fill="#455A64"/>
<path d="M174.96 165.7C177.918 169.92 173.286 174.54 169.055 171.59C168.914 171.49 168.792 171.367 168.694 171.225C165.741 167.01 170.368 162.395 174.594 165.34C174.735 165.439 174.859 165.561 174.96 165.7V165.7Z" fill="#263238"/>
<path d="M65.0981 17.835H279.007C280.297 17.835 281.534 18.3459 282.446 19.2555C283.358 20.165 283.87 21.3987 283.87 22.685V153.785H60.2603V22.685C60.2602 21.403 60.7691 20.1731 61.6757 19.2643C62.5823 18.3555 63.8127 17.8416 65.0981 17.835V17.835Z" fill="white"/>
<path d="M64.8274 17.835H280.1C281.097 17.8389 282.052 18.2368 282.756 18.9415C283.46 19.6462 283.855 20.6003 283.855 21.595V29.13H60.2603V22.41C60.2602 21.2001 60.7408 20.0394 61.5967 19.182C62.4527 18.3246 63.6143 17.8403 64.8274 17.835V17.835Z" fill="#EBEBEB"/>
<path d="M67.3592 25.2848C68.2258 25.2848 68.9284 24.5841 68.9284 23.7198C68.9284 22.8555 68.2258 22.1548 67.3592 22.1548C66.4926 22.1548 65.79 22.8555 65.79 23.7198C65.79 24.5841 66.4926 25.2848 67.3592 25.2848Z" fill="#E0E0E0"/>
<path d="M72.0416 25.2848C72.9082 25.2848 73.6108 24.5841 73.6108 23.7198C73.6108 22.8555 72.9082 22.1548 72.0416 22.1548C71.175 22.1548 70.4724 22.8555 70.4724 23.7198C70.4724 24.5841 71.175 25.2848 72.0416 25.2848Z" fill="#E0E0E0"/>
<path d="M76.4935 25.2848C77.3601 25.2848 78.0627 24.5841 78.0627 23.7198C78.0627 22.8555 77.3601 22.1548 76.4935 22.1548C75.6269 22.1548 74.9243 22.8555 74.9243 23.7198C74.9243 24.5841 75.6269 25.2848 76.4935 25.2848Z" fill="#E0E0E0"/>
<path d="M241.934 181.84C241.934 181.915 210.976 181.97 172.8 181.97C134.623 181.97 103.656 181.915 103.656 181.84C103.656 181.765 134.608 181.71 172.8 181.71C210.991 181.71 241.934 181.77 241.934 181.84Z" fill="#263238"/>
<path d="M206.594 48.2599L172.504 35.7349L138.739 48.0949C134.427 50.1749 130.647 51.4249 130.647 55.5299V75.9999C130.577 90.326 134.423 104.4 141.772 116.71C148.069 127.165 157.815 137.93 172.855 144.775C186.656 140.19 196.959 127.965 203.256 117.505C210.605 105.197 214.451 91.1245 214.38 76.7999V58.3899C214.355 52.5299 211.322 49.6699 206.594 48.2599Z" fill="#DE5753"/>
<g opacity="0.8">
<path d="M206.594 48.2599L172.504 35.7349L138.739 48.0949C134.427 50.1749 130.647 51.4249 130.647 55.5299V75.9999C130.577 90.326 134.423 104.4 141.772 116.71C148.069 127.165 157.815 137.93 172.855 144.775C186.656 140.19 196.959 127.965 203.256 117.505C210.605 105.197 214.451 91.1245 214.38 76.7999V58.3899C214.355 52.5299 211.322 49.6699 206.594 48.2599Z" fill="white"/>
</g>
<path d="M193.319 100.04H187.052V66.04C187.052 62.1897 185.519 58.4971 182.789 55.7746C180.059 53.052 176.357 51.5225 172.496 51.5225C168.636 51.5225 164.933 53.052 162.203 55.7746C159.474 58.4971 157.94 62.1897 157.94 66.04V100.04H151.673V66.04C151.631 63.2857 152.137 60.5503 153.165 57.9932C154.192 55.4362 155.719 53.1084 157.657 51.1455C159.595 49.1826 161.905 47.6238 164.452 46.5597C167 45.4957 169.734 44.9478 172.496 44.9478C175.258 44.9478 177.993 45.4957 180.54 46.5597C183.088 47.6238 185.398 49.1826 187.336 51.1455C189.274 53.1084 190.801 55.4362 191.828 57.9932C192.855 60.5503 193.362 63.2857 193.319 66.04V100.04Z" fill="#DE5753"/>
<g opacity="0.4">
<path d="M193.319 100.04H187.052V66.04C187.052 62.1897 185.519 58.4971 182.789 55.7746C180.059 53.052 176.357 51.5225 172.496 51.5225C168.636 51.5225 164.933 53.052 162.203 55.7746C159.474 58.4971 157.94 62.1897 157.94 66.04V100.04H151.673V66.04C151.631 63.2857 152.137 60.5503 153.165 57.9932C154.192 55.4362 155.719 53.1084 157.657 51.1455C159.595 49.1826 161.905 47.6238 164.452 46.5597C167 45.4957 169.734 44.9478 172.496 44.9478C175.258 44.9478 177.993 45.4957 180.54 46.5597C183.088 47.6238 185.398 49.1826 187.336 51.1455C189.274 53.1084 190.801 55.4362 191.828 57.9932C192.855 60.5503 193.362 63.2857 193.319 66.04V100.04Z" fill="black"/>
</g>
<path d="M197.646 84.9097H147.347C145.738 84.9097 144.434 86.2103 144.434 87.8147V117.915C144.434 119.519 145.738 120.82 147.347 120.82H197.646C199.254 120.82 200.558 119.519 200.558 117.915V87.8147C200.558 86.2103 199.254 84.9097 197.646 84.9097Z" fill="#DE5753"/>
<g opacity="0.5">
<path d="M177.186 98.1898C177.187 97.319 176.944 96.4653 176.484 95.7247C176.025 94.9841 175.368 94.3861 174.586 93.9978C173.804 93.6095 172.93 93.4464 172.06 93.5268C171.191 93.6073 170.361 93.928 169.665 94.453C168.968 94.978 168.432 95.6865 168.117 96.4987C167.802 97.3109 167.721 98.1946 167.882 99.0505C168.043 99.9063 168.44 100.7 169.029 101.343C169.618 101.986 170.375 102.453 171.215 102.69V109.69H173.777V102.69C174.76 102.414 175.625 101.824 176.241 101.012C176.856 100.199 177.188 99.2082 177.186 98.1898Z" fill="black"/>
</g>
<path d="M147.427 117.415C147.297 117.415 147.197 111.415 147.197 104.04C147.197 96.6646 147.297 90.6646 147.427 90.6646C147.557 90.6646 147.663 96.6646 147.663 104.04C147.663 111.415 147.557 117.415 147.427 117.415Z" fill="#FAFAFA"/>
<path d="M168.824 104.185C168.824 104.185 168.604 104.115 168.273 103.875C167.809 103.529 167.401 103.114 167.064 102.645C166.479 101.874 166.072 100.985 165.872 100.039C165.672 99.0937 165.684 98.1158 165.907 97.1755C166.131 96.2352 166.56 95.3557 167.163 94.6001C167.767 93.8444 168.531 93.2313 169.401 92.8046C169.921 92.5369 170.479 92.3498 171.055 92.2496C171.261 92.1934 171.476 92.1815 171.687 92.2146C171.687 92.3046 170.799 92.3896 169.581 93.0946C168.786 93.5331 168.092 94.1326 167.542 94.8545C166.993 95.5765 166.602 96.405 166.392 97.2869C166.183 98.1687 166.161 99.0845 166.328 99.9753C166.495 100.866 166.846 101.712 167.36 102.46C167.8 103.073 168.29 103.65 168.824 104.185V104.185Z" fill="#FAFAFA"/>
<path d="M214.671 136.83C214.671 136.83 214.806 136.64 215.077 136.285L215.303 135.985C215.383 135.87 215.453 135.735 215.533 135.59C215.733 135.265 215.901 134.922 216.034 134.565C216.115 134.36 216.21 134.15 216.29 133.92C216.37 133.69 216.425 133.42 216.496 133.18C216.578 132.91 216.635 132.634 216.666 132.355C216.726 132.054 216.77 131.75 216.796 131.445C216.915 129.98 216.848 128.507 216.596 127.06C216.095 123.775 214.691 119.915 212.555 115.715C210.078 110.979 207.175 106.477 203.882 102.265C199.918 97.1339 195.596 92.2885 190.948 87.7646C185.638 82.5531 179.966 77.7227 173.973 73.3096C170.799 70.9896 167.455 68.7346 163.946 66.6096C160.359 64.4292 156.635 62.4818 152.796 60.7796C148.84 58.977 144.673 57.6753 140.393 56.9046C138.208 56.5172 135.977 56.4616 133.776 56.7396C132.675 56.9044 131.601 57.2155 130.582 57.6646C129.557 58.1195 128.64 58.7854 127.891 59.6187C127.142 60.4519 126.578 61.4337 126.236 62.4996C125.903 63.5596 125.716 64.6595 125.679 65.7696C125.648 67.9828 125.954 70.1879 126.587 72.3096C127.841 76.464 129.613 80.4451 131.861 84.1596C133.993 87.7717 136.357 91.2423 138.939 94.5496C141.446 97.7996 144.083 100.855 146.755 103.73C151.834 109.169 157.292 114.243 163.089 118.915C168.123 123.003 173.438 126.734 178.996 130.08C183.567 132.861 188.381 135.224 193.379 137.14C197.806 138.78 201.812 139.72 205.14 139.85C206.611 139.939 208.087 139.838 209.532 139.55C209.832 139.49 210.128 139.415 210.42 139.325C210.695 139.256 210.964 139.167 211.227 139.06L211.939 138.77C212.159 138.665 212.36 138.545 212.55 138.445C212.891 138.264 213.215 138.053 213.518 137.815C213.648 137.715 213.778 137.635 213.884 137.545L214.154 137.285L214.656 136.82L214.18 137.32L213.909 137.59C213.804 137.68 213.678 137.765 213.543 137.87C213.242 138.111 212.919 138.325 212.58 138.51C212.39 138.615 212.189 138.735 211.969 138.845L211.252 139.14C210.991 139.252 210.721 139.342 210.445 139.41C210.152 139.505 209.854 139.585 209.552 139.65C208.102 139.945 206.619 140.054 205.14 139.975C201.797 139.86 197.776 138.925 193.334 137.3C188.32 135.393 183.491 133.035 178.906 130.255C173.331 126.919 168.001 123.192 162.958 119.1C157.147 114.431 151.676 109.356 146.585 103.915C143.903 101.035 141.271 97.9746 138.749 94.7196C136.159 91.4054 133.786 87.9282 131.645 84.3096C129.386 80.5755 127.604 76.5745 126.341 72.3996C125.704 70.2482 125.398 68.0127 125.433 65.7696C125.469 64.6337 125.661 63.5081 126.005 62.4246C126.353 61.3238 126.931 60.309 127.701 59.4472C128.471 58.5853 129.415 57.896 130.472 57.4246C131.511 56.9627 132.61 56.6447 133.736 56.4796C135.964 56.1942 138.222 56.2498 140.433 56.6446C144.735 57.4178 148.923 58.7281 152.897 60.5446C156.734 62.2546 160.455 64.2139 164.036 66.4096C167.545 68.5396 170.914 70.7996 174.063 73.1246C180.061 77.5529 185.739 82.3983 191.053 87.6246C195.699 92.1586 200.017 97.014 203.977 102.155C207.267 106.384 210.165 110.902 212.635 115.655C214.761 119.87 216.145 123.75 216.646 127.045C216.893 128.501 216.952 129.983 216.822 131.455C216.795 131.762 216.751 132.067 216.691 132.37C216.652 132.65 216.591 132.928 216.511 133.2C216.436 133.46 216.365 133.7 216.3 133.945C216.235 134.19 216.115 134.385 216.034 134.59C215.892 134.948 215.714 135.292 215.503 135.615C215.418 135.76 215.348 135.895 215.267 136.01L215.032 136.305C214.796 136.655 214.671 136.83 214.671 136.83Z" fill="#DE5753"/>
<path d="M230.714 98.1949C230.714 98.1949 230.689 97.9649 230.653 97.5199C230.653 97.4065 230.643 97.2815 230.623 97.1449C230.623 97.0049 230.563 96.8599 230.533 96.6949C230.468 96.3164 230.367 95.9448 230.232 95.5849C230.157 95.3799 230.087 95.1599 229.997 94.9349C229.906 94.7099 229.771 94.4899 229.651 94.2449C229.525 93.9848 229.377 93.7356 229.21 93.4999C229.044 93.2599 228.904 92.9999 228.708 92.7399C227.82 91.5669 226.786 90.5117 225.63 89.5999C223.058 87.4899 219.439 85.5299 215.047 83.8149C210.036 81.9267 204.865 80.4942 199.596 79.5349C193.216 78.3411 186.759 77.5976 180.274 77.3099C172.832 76.9528 165.374 77.1199 157.955 77.8099C154.04 78.1799 150.039 78.7199 145.993 79.4749C141.861 80.2275 137.781 81.2463 133.781 82.5249C129.621 83.8051 125.638 85.599 121.924 87.8649C120.048 89.0297 118.358 90.4691 116.911 92.1349C116.198 92.9873 115.604 93.9326 115.146 94.9449C114.686 95.9669 114.448 97.0745 114.448 98.1949C114.448 99.3152 114.686 100.423 115.146 101.445C115.606 102.456 116.199 103.401 116.911 104.255C118.359 105.913 120.049 107.344 121.924 108.5C125.636 110.768 129.617 112.564 133.776 113.845C137.776 115.125 141.855 116.143 145.988 116.895C150.034 117.655 154.035 118.19 157.95 118.56C165.369 119.252 172.827 119.419 180.269 119.06C186.754 118.772 193.211 118.029 199.591 116.835C204.86 115.877 210.032 114.444 215.042 112.555C219.439 110.84 223.063 108.88 225.625 106.77C226.782 105.859 227.817 104.804 228.703 103.63C228.884 103.386 229.051 103.132 229.205 102.87C229.365 102.639 229.506 102.395 229.626 102.14L229.972 101.45C230.062 101.225 230.132 101.005 230.207 100.8C230.342 100.44 230.442 100.068 230.508 99.6899C230.538 99.5299 230.578 99.3799 230.598 99.2449C230.618 99.1099 230.598 98.9799 230.628 98.8699C230.663 98.4199 230.689 98.1949 230.689 98.1949C230.689 98.1949 230.689 98.4249 230.653 98.8699C230.653 98.9849 230.653 99.1099 230.653 99.2499C230.653 99.3899 230.598 99.5349 230.568 99.6999C230.506 100.08 230.409 100.453 230.277 100.815C230.202 101.025 230.137 101.245 230.042 101.475L229.706 102.17C229.586 102.426 229.445 102.672 229.285 102.905C229.119 103.15 228.979 103.43 228.783 103.68C227.897 104.865 226.861 105.93 225.7 106.85C223.128 108.98 219.504 110.96 215.107 112.69C210.09 114.59 204.91 116.032 199.631 117C193.244 118.208 186.779 118.965 180.285 119.265C172.831 119.636 165.361 119.481 157.93 118.8C154.01 118.43 150.004 117.895 145.943 117.14C141.801 116.387 137.711 115.368 133.701 114.09C129.521 112.803 125.519 110.999 121.789 108.72C119.88 107.542 118.159 106.084 116.685 104.395C115.955 103.521 115.348 102.552 114.881 101.515C114.409 100.463 114.166 99.3242 114.166 98.1724C114.166 97.0205 114.409 95.8816 114.881 94.8299C115.35 93.795 115.957 92.828 116.685 91.9549C118.159 90.265 119.881 88.8083 121.794 87.6349C125.522 85.3557 129.522 83.5532 133.701 82.2699C137.711 80.9873 141.8 79.9668 145.943 79.2149C149.999 78.4599 154.005 77.9249 157.925 77.5549C165.356 76.8753 172.826 76.7215 180.279 77.0949C186.776 77.3954 193.243 78.1556 199.631 79.3699C204.907 80.3417 210.084 81.7893 215.097 83.6949C219.499 85.4299 223.118 87.4049 225.695 89.5349C226.851 90.4583 227.884 91.5252 228.768 92.7099C228.949 92.9574 229.117 93.2144 229.27 93.4799C229.428 93.7144 229.569 93.96 229.691 94.2149L230.027 94.9149C230.122 95.1399 230.187 95.3649 230.262 95.5699C230.394 95.9333 230.492 96.3083 230.553 96.6899C230.583 96.8499 230.618 96.9999 230.638 97.1399C230.658 97.2799 230.638 97.4049 230.638 97.5149C230.714 97.9649 230.714 98.1949 230.714 98.1949Z" fill="#DE5753"/>
<path d="M209.437 50.0999C209.437 50.0999 209.237 49.9799 208.866 49.7349L208.55 49.5299C208.429 49.4599 208.284 49.3999 208.139 49.3249C207.798 49.1465 207.443 48.9992 207.076 48.8849C206.865 48.8199 206.65 48.7349 206.414 48.6699L205.647 48.4999C205.371 48.4396 205.091 48.4012 204.81 48.3849C204.514 48.3849 204.213 48.3099 203.892 48.3199C202.418 48.3026 200.948 48.4705 199.516 48.8199C196.272 49.5499 192.497 51.2049 188.451 53.6199C183.884 56.4102 179.58 59.6083 175.592 63.1749C170.737 67.4716 166.192 72.1048 161.991 77.0399C157.144 82.6839 152.703 88.6621 148.701 94.9299C146.595 98.2449 144.57 101.725 142.685 105.38C140.751 109.101 139.06 112.942 137.621 116.88C136.094 120.942 135.084 125.178 134.613 129.49C134.376 131.69 134.475 133.914 134.909 136.085C135.146 137.17 135.53 138.218 136.052 139.2C136.578 140.186 137.308 141.05 138.193 141.735C139.077 142.42 140.097 142.911 141.186 143.175C142.268 143.434 143.381 143.545 144.494 143.505C146.71 143.383 148.894 142.926 150.972 142.15C155.042 140.615 158.904 138.577 162.467 136.085C165.933 133.715 169.24 131.123 172.368 128.325C175.447 125.6 178.324 122.775 181.016 119.915C186.099 114.487 190.79 108.708 195.054 102.62C198.805 97.3369 202.177 91.7965 205.146 86.0399C207.612 81.299 209.644 76.3455 211.217 71.2399C212.55 66.7399 213.222 62.6749 213.117 59.3549C213.105 57.8852 212.902 56.4231 212.515 55.0049C212.434 54.7099 212.337 54.4195 212.224 54.1349C212.14 53.867 212.034 53.6061 211.909 53.3549C211.788 53.1149 211.678 52.8549 211.573 52.6649C211.467 52.4749 211.317 52.2599 211.202 52.0799C210.999 51.7523 210.765 51.4443 210.505 51.1599C210.4 51.0349 210.304 50.9149 210.209 50.8149L209.928 50.5599C209.597 50.2599 209.427 50.0999 209.427 50.0999L209.928 50.5399L210.209 50.7899C210.309 50.8899 210.405 51.0099 210.515 51.1349C210.782 51.4148 211.018 51.7214 211.222 52.0499C211.342 52.2349 211.477 52.4249 211.603 52.6349L211.944 53.3249C212.076 53.5769 212.187 53.8395 212.275 54.1099C212.365 54.3899 212.5 54.6699 212.57 54.9849C212.966 56.4072 213.178 57.8741 213.202 59.3499C213.317 62.6849 212.661 66.7499 211.337 71.2799C209.777 76.4007 207.753 81.3694 205.291 86.1249C202.334 91.8993 198.972 97.4581 195.229 102.76C190.966 108.861 186.275 114.654 181.192 120.095C178.495 122.965 175.617 125.795 172.534 128.53C169.398 131.335 166.082 133.934 162.607 136.31C159.035 138.816 155.161 140.864 151.077 142.405C148.963 143.198 146.74 143.662 144.484 143.78C143.346 143.819 142.208 143.705 141.1 143.44C139.977 143.167 138.925 142.661 138.012 141.954C137.098 141.248 136.345 140.357 135.801 139.34C135.268 138.336 134.875 137.265 134.633 136.155C134.196 133.959 134.094 131.711 134.332 129.485C134.812 125.15 135.834 120.892 137.375 116.81C138.82 112.871 140.518 109.03 142.459 105.31C144.344 101.65 146.374 98.1649 148.475 94.8449C152.488 88.5723 156.941 82.5906 161.8 76.9449C166.016 72.0087 170.576 67.3755 175.447 63.0799C179.458 59.4996 183.789 56.2929 188.386 53.4999C192.457 51.0899 196.242 49.4449 199.506 48.7249C200.943 48.3689 202.421 48.2008 203.902 48.2249C204.211 48.2322 204.519 48.2555 204.825 48.2949C205.108 48.3128 205.39 48.3529 205.667 48.4149L206.429 48.5749C206.665 48.6449 206.88 48.7249 207.091 48.7949C207.459 48.9119 207.815 49.0643 208.154 49.2499C208.304 49.3249 208.444 49.3899 208.565 49.4599L208.876 49.6699C209.252 49.9649 209.437 50.0999 209.437 50.0999Z" fill="#DE5753"/>
<path d="M112.133 125.83C113.327 125.83 114.294 124.865 114.294 123.675C114.294 122.485 113.327 121.52 112.133 121.52C110.94 121.52 109.972 122.485 109.972 123.675C109.972 124.865 110.94 125.83 112.133 125.83Z" fill="#DE5753"/>
<path d="M235.617 55.3499C235.616 55.7759 235.488 56.1921 235.25 56.5458C235.012 56.8996 234.674 57.175 234.279 57.3373C233.884 57.4997 233.45 57.5416 233.031 57.4579C232.612 57.3742 232.228 57.1686 231.926 56.867C231.625 56.5654 231.419 56.1814 231.336 55.7635C231.253 55.3456 231.296 54.9126 231.46 54.5191C231.624 54.1256 231.901 53.7894 232.256 53.5528C232.611 53.3162 233.029 53.1899 233.456 53.1899C233.74 53.1899 234.021 53.2458 234.284 53.3545C234.546 53.4631 234.785 53.6223 234.986 53.8229C235.186 54.0235 235.345 54.2617 235.454 54.5237C235.562 54.7858 235.617 55.0665 235.617 55.3499V55.3499Z" fill="#DE5753"/>
<path d="M127.308 129.24C127.308 129.349 127.276 129.455 127.215 129.546C127.154 129.637 127.068 129.707 126.967 129.749C126.866 129.79 126.755 129.801 126.648 129.779C126.54 129.757 126.442 129.704 126.365 129.627C126.288 129.55 126.236 129.451 126.216 129.344C126.195 129.237 126.206 129.126 126.249 129.026C126.291 128.926 126.363 128.84 126.454 128.78C126.546 128.72 126.653 128.689 126.762 128.69C126.907 128.691 127.046 128.75 127.149 128.853C127.251 128.956 127.309 129.095 127.308 129.24V129.24Z" fill="#DE5753"/>
<path d="M139.035 68.8298C139.035 68.9386 139.002 69.0449 138.942 69.1354C138.881 69.2258 138.795 69.2963 138.694 69.3379C138.594 69.3795 138.483 69.3904 138.376 69.3692C138.269 69.348 138.171 69.2956 138.093 69.2187C138.016 69.1418 137.964 69.0438 137.942 68.9371C137.921 68.8304 137.932 68.7198 137.974 68.6193C138.016 68.5188 138.086 68.4329 138.177 68.3725C138.268 68.312 138.374 68.2798 138.483 68.2798C138.63 68.2798 138.77 68.3377 138.873 68.4409C138.977 68.544 139.035 68.6839 139.035 68.8298Z" fill="#DE5753"/>
<path d="M224.758 98.1946C224.758 98.3035 224.725 98.4101 224.664 98.5006C224.604 98.5912 224.517 98.6617 224.416 98.7032C224.315 98.7446 224.204 98.7552 224.097 98.7336C223.99 98.712 223.891 98.6591 223.815 98.5817C223.738 98.5042 223.685 98.4058 223.665 98.2988C223.644 98.1917 223.656 98.081 223.698 97.9806C223.741 97.8802 223.812 97.7946 223.904 97.7348C223.995 97.675 224.102 97.6436 224.211 97.6446C224.283 97.6446 224.355 97.6588 224.422 97.6865C224.488 97.7142 224.549 97.7548 224.599 97.8059C224.65 97.8571 224.69 97.9178 224.718 97.9845C224.745 98.0512 224.758 98.1226 224.758 98.1946V98.1946Z" fill="#DE5753"/>
<path d="M232.393 72.65C232.394 72.7592 232.362 72.8662 232.302 72.9574C232.242 73.0486 232.156 73.1199 232.055 73.1622C231.954 73.2044 231.843 73.2157 231.735 73.1946C231.628 73.1736 231.529 73.1211 231.452 73.0439C231.374 72.9667 231.322 72.8682 231.3 72.7611C231.279 72.6539 231.291 72.5429 231.333 72.4422C231.375 72.3415 231.447 72.2557 231.538 72.1956C231.63 72.1355 231.737 72.104 231.847 72.105C231.991 72.105 232.13 72.1624 232.233 72.2646C232.335 72.3668 232.393 72.5055 232.393 72.65V72.65Z" fill="#DE5753"/>
<path d="M320.713 154.45C323.141 152.936 325.885 151.997 328.734 151.705C330.038 151.57 331.466 151.61 332.519 152.4C332.64 152.47 332.739 152.571 332.807 152.693C332.875 152.814 332.909 152.951 332.905 153.09C332.845 153.287 332.712 153.455 332.534 153.56C329.281 156.035 324.358 156.35 320.733 154.45" fill="#853432"/>
<path d="M320.918 154.225C322.772 152.867 324.501 151.35 326.087 149.69C327.676 148.018 328.794 145.957 329.326 143.715C329.43 143.383 329.461 143.032 329.417 142.687C329.373 142.342 329.255 142.01 329.07 141.715C324.949 144.925 321.716 149.075 320.918 154.215" fill="#853432"/>
<path d="M320.758 154.42C321.139 152.178 321.105 149.885 320.658 147.655C320.199 145.408 318.911 143.415 317.048 142.07C316.336 143.73 316.642 145.64 317.143 147.375C317.92 150.061 319.129 152.602 320.723 154.9" fill="#853432"/>
<path d="M316.717 161.635C319.169 161.935 321.304 163.22 323.134 164.875C324.973 166.545 326.254 168.737 326.804 171.155C324.398 171.01 322.362 169.32 320.878 167.42C319.394 165.52 318.372 163.445 316.752 161.675" fill="#853432"/>
<path d="M315.84 162.79C316.805 160.346 317.143 157.701 316.824 155.094C316.506 152.487 315.54 150.001 314.015 147.86C312.616 152.815 313.133 158.41 315.84 162.79Z" fill="#853432"/>
<path d="M310.506 169.125C312.747 168.984 314.981 169.505 316.928 170.622C318.875 171.738 320.449 173.402 321.455 175.405C321.59 175.675 321.711 176.02 321.53 176.26C321.435 176.352 321.32 176.419 321.193 176.457C321.067 176.494 320.933 176.501 320.803 176.475C318.647 176.335 316.737 175.04 315.163 173.57C313.589 172.1 312.21 170.395 310.471 169.12" fill="#853432"/>
<path d="M310.676 168.78C311.824 165.093 311.895 161.156 310.882 157.43C310.481 155.965 309.804 154.43 308.45 153.745C308.396 153.709 308.335 153.685 308.272 153.674C308.208 153.663 308.142 153.665 308.079 153.68C307.97 153.738 307.886 153.834 307.844 153.95C307.389 154.972 307.193 156.09 307.272 157.205C307.349 158.317 307.517 159.421 307.774 160.505C308.2 162.505 308.425 164.685 309.533 166.42C309.795 166.839 310.031 167.273 310.24 167.72C310.451 168.165 310.451 168.32 310.641 168.67" fill="#853432"/>
<path d="M296.554 170.88C297.601 166.91 296.493 162.1 293.982 158.845C293.801 158.605 293.556 158.345 293.255 158.375C292.789 158.42 292.673 159.03 292.693 159.495C292.882 163.576 294.22 167.522 296.554 170.88Z" fill="#853432"/>
<path d="M295.28 171.745C290.448 173 284.903 171.78 280.882 168.825C283.291 167.616 286.047 167.279 288.678 167.87C291.28 168.465 293.661 169.63 295.28 171.745" fill="#853432"/>
<path d="M294.207 169.105C291.5 164.7 286.311 161.825 281.138 161.565C281.734 163.665 283.464 165.295 285.414 166.28C287.364 167.265 289.54 167.695 291.686 168.11C292.523 168.27 293.691 168.45 294.192 169.11" fill="#853432"/>
<path d="M296.288 156.28C295.556 153.78 294.814 151.25 294.614 148.645C294.413 146.04 294.784 143.325 296.118 141.095C298.624 145.975 298.905 151.68 296.343 156.54" fill="#853432"/>
<path d="M287.77 152C284.812 146.635 278.776 142.355 272.67 141.755C275.026 147.605 281.454 152.125 287.77 152Z" fill="#853432"/>
<path d="M289.63 153.04C285.219 153.71 281.464 156.54 277.338 158.22C276.474 158.636 275.517 158.821 274.56 158.755C274.115 158.75 273.682 158.609 273.32 158.35C272.957 158.092 272.683 157.729 272.535 157.31C272.386 156.891 272.37 156.437 272.488 156.009C272.606 155.581 272.854 155.199 273.197 154.915C273.776 154.379 274.458 153.964 275.202 153.695C279.714 151.83 284.507 151.785 289.239 152.915" fill="#853432"/>
<path d="M292.187 156.125C291.184 156.41 290.843 156.925 290.051 157.595C287.356 159.882 284.166 161.517 280.732 162.37C280.376 162.46 279.909 162.495 279.729 162.175C279.548 161.855 279.769 161.555 279.97 161.305C281.47 159.553 283.417 158.238 285.605 157.5C287.755 156.7 289.615 155.74 292.187 155.945" fill="#853432"/>
<path d="M295.065 137.5C293.255 139.165 291.115 140.434 288.784 141.225C286.453 142.015 283.981 142.31 281.529 142.09C281.305 142.094 281.087 142.016 280.917 141.87C280.576 141.5 280.982 140.93 281.378 140.625C285.354 137.53 290.172 136.25 295.055 137.5" fill="#853432"/>
<path d="M291.651 136.24C289.256 134.483 286.48 133.316 283.547 132.833C280.614 132.351 277.609 132.568 274.776 133.465C276.901 135.55 279.849 136.675 282.797 136.965C285.762 137.236 288.753 136.983 291.63 136.22" fill="#853432"/>
<path d="M293.009 127.675C293.4 123.72 293.145 120.595 293.42 116.615C293.42 116.3 293.511 115.915 293.806 115.8C294.222 115.645 294.568 116.15 294.704 116.575C295.279 118.416 295.426 120.364 295.134 122.27C294.841 124.176 294.116 125.99 293.014 127.575" fill="#853432"/>
<path d="M293.295 128.115C290.7 126.446 288.464 124.279 286.718 121.74C285.419 119.97 284.326 117.845 284.622 115.67C285.535 115.693 286.433 115.913 287.252 116.315C288.072 116.718 288.794 117.292 289.37 118C290.502 119.433 291.325 121.084 291.786 122.85C292.312 124.59 292.678 126.38 293.29 128.095" fill="#853432"/>
<path d="M286.833 126.325C280.918 124.141 275.439 120.924 270.655 116.825C272.585 116.05 274.801 116.51 276.731 117.29C281.148 119.065 284.752 122.065 286.918 126.29" fill="#853432"/>
<path d="M291.475 130.28C288.467 130.605 285.459 130.815 282.491 130.325C279.523 129.835 276.826 128.685 274.104 127.545C273.866 127.478 273.664 127.322 273.537 127.11C273.494 126.985 273.489 126.849 273.525 126.721C273.561 126.593 273.635 126.48 273.738 126.395C273.95 126.233 274.195 126.119 274.455 126.06C277.413 125.235 280.606 125.625 283.519 126.6C286.293 127.546 288.959 128.78 291.475 130.28" fill="#853432"/>
<path d="M308.531 137.62C310.571 133.52 310.436 128.735 308.676 124.505C307.438 126.39 307.287 128.785 307.513 131.005C307.739 133.225 308.425 135.555 308.465 137.805" fill="#853432"/>
<path d="M316.672 133.53C319.223 133.496 321.753 133.993 324.1 134.99C326.448 135.987 328.56 137.462 330.304 139.32C327.762 139.715 325.15 139.065 322.839 137.94C320.528 136.815 318.477 135.235 316.442 133.67" fill="#853432"/>
<path d="M322.147 131.7C324.653 131.5 327.03 131.2 329.421 131.925C331.812 132.65 333.993 134.315 334.966 136.615C332.619 136.804 330.264 136.36 328.148 135.33C326.037 134.303 324.023 133.089 322.132 131.7" fill="#853432"/>
<path d="M314.04 131.785C316.281 130.32 318.552 128.83 321.184 128.225C323.816 127.62 326.814 128.07 328.634 130.03C326.523 131.265 323.962 131.41 321.515 131.405C319.069 131.4 316.071 131.375 313.76 132.19" fill="#853432"/>
<path d="M314.03 131.905C317.855 128.155 319.309 121.405 317.765 116.295C314.743 120.909 313.423 126.427 314.03 131.905" fill="#853432"/>
<path d="M303.502 121.28C302.78 119.61 302.274 117.85 301.627 116.15C301.035 114.42 300.128 112.815 298.95 111.415C297.755 110.007 296.05 109.126 294.208 108.965C294.797 111.547 295.919 113.978 297.503 116.104C299.087 118.229 301.098 120.002 303.407 121.31" fill="#853432"/>
<path d="M305.412 123.5C306.605 121.86 307.989 119.635 309.608 118.41C311.228 117.185 313.338 116.445 315.313 116.91C314.29 118.701 312.862 120.228 311.144 121.372C309.425 122.516 307.462 123.245 305.412 123.5" fill="#853432"/>
<path d="M305.026 121.42C305.882 119.463 306.516 117.417 306.916 115.32C307.232 113.21 307.036 110.96 305.959 109.12C303.858 113.08 303.181 117.33 304.921 121.465" fill="#853432"/>
<path d="M303.482 109.12C302.294 105.19 298.689 102.3 294.794 100.97C294.317 100.778 293.802 100.701 293.29 100.745C293.032 100.774 292.787 100.878 292.588 101.045C292.388 101.211 292.242 101.432 292.167 101.68C292.027 102.345 292.578 102.945 293.099 103.39C296.144 105.98 299.683 107.929 303.502 109.12" fill="#853432"/>
<path d="M303.442 105.905C303.287 103.375 303.131 100.805 302.304 98.4051C301.477 96.0051 299.888 93.7551 297.571 92.7051C297.18 95.2651 298.308 97.8101 299.672 100.01C301.036 102.21 302.68 104.285 303.502 106.74" fill="#853432"/>
<path d="M303.502 107.65C304.505 104.785 304.59 101.15 306.305 98.65C307.508 96.905 309.433 95.72 310.466 93.875C311.089 95.645 311.003 97.5869 310.225 99.295C309.441 100.983 308.365 102.519 307.047 103.835C305.773 105.19 304.685 106.205 303.502 107.64" fill="#853432"/>
<path d="M303.482 191.93C303.557 191.93 303.627 172.84 303.632 149.295C303.638 125.75 303.577 106.65 303.502 106.65C303.427 106.65 303.362 125.74 303.357 149.295C303.352 172.85 303.407 191.93 303.482 191.93Z" fill="#853432"/>
<path d="M286.753 134.74C286.984 134.853 287.226 134.944 287.475 135.01L289.455 135.675C291.124 136.245 293.42 137.065 295.912 138.085C298.404 139.105 300.7 139.995 302.023 141.14C302.552 141.579 302.973 142.133 303.252 142.76C303.442 143.21 303.477 143.485 303.502 143.48C303.514 143.414 303.514 143.346 303.502 143.28C303.474 143.089 303.427 142.902 303.362 142.72C303.109 142.055 302.694 141.464 302.154 141C301.355 140.326 300.461 139.772 299.502 139.355C298.439 138.855 297.266 138.355 295.992 137.855C293.486 136.855 291.184 136.04 289.475 135.515C288.633 135.255 287.941 135.06 287.47 134.935C287.236 134.851 286.996 134.786 286.753 134.74V134.74Z" fill="#853432"/>
<path d="M281.273 121.31C281.273 121.31 281.333 121.39 281.473 121.525L282.085 122.1L284.381 124.175L292.012 130.955C295.02 133.6 297.566 136.125 299.351 138.03C300.243 138.98 300.95 139.765 301.427 140.315L301.983 140.95C302.046 141.025 302.115 141.096 302.189 141.16C302.189 141.16 302.143 141.07 302.028 140.915C301.913 140.76 301.742 140.53 301.527 140.25C301.071 139.675 300.389 138.865 299.521 137.895C297.216 135.387 294.779 133.002 292.222 130.75C289.214 128.11 286.512 125.75 284.537 124.03L282.185 122.03L281.534 121.49C281.348 121.36 281.278 121.3 281.273 121.31Z" fill="#853432"/>
<path d="M295.23 133.645C295.305 133.61 294.684 132.175 294.067 130.365C293.45 128.555 293.145 127.02 293.064 127.035C293.131 128.205 293.38 129.357 293.801 130.45C294.066 131.232 294.376 131.999 294.729 132.745C294.85 133.068 295.019 133.372 295.23 133.645Z" fill="#853432"/>
<path d="M303.467 145.2C303.635 145.038 303.788 144.86 303.923 144.67L305.101 143.17C306.104 141.895 307.453 140.135 308.987 138.215C310.521 136.295 311.925 134.565 312.942 133.315C313.444 132.72 313.83 132.225 314.145 131.815C314.303 131.641 314.442 131.452 314.562 131.25C314.377 131.398 314.209 131.566 314.06 131.75C313.754 132.08 313.318 132.57 312.787 133.18C311.729 134.395 310.28 136.105 308.776 138.03C307.272 139.955 305.899 141.735 304.951 143.03C304.45 143.685 304.099 144.215 303.843 144.59C303.695 144.779 303.569 144.983 303.467 145.2Z" fill="#853432"/>
<path d="M307.132 140.5C307.873 139.683 308.401 138.698 308.671 137.63C308.96 136.693 309.077 135.713 309.017 134.735H308.897C308.952 134.955 308.992 135.075 309.012 135.07C309.032 135.065 309.037 134.945 309.012 134.715H308.892C308.826 135.668 308.658 136.612 308.39 137.53C308.047 138.55 307.626 139.543 307.132 140.5Z" fill="#853432"/>
<path d="M311.869 134.56C312.201 134.311 312.561 134.103 312.942 133.94C313.908 133.656 314.922 133.576 315.92 133.705C316.935 133.788 317.941 133.955 318.928 134.205C319.334 134.332 319.748 134.432 320.166 134.505C319.8 134.278 319.401 134.11 318.983 134.005C318.005 133.705 316.996 133.514 315.975 133.435C314.939 133.298 313.885 133.411 312.902 133.765C312.474 133.899 312.108 134.181 311.869 134.56V134.56Z" fill="#853432"/>
<path d="M312.992 133.125C312.992 133.165 313.614 132.875 314.637 132.525C317.299 131.619 320.149 131.402 322.919 131.895C323.977 132.085 324.618 132.285 324.633 132.235C324.496 132.156 324.35 132.093 324.197 132.05C323.79 131.91 323.375 131.794 322.954 131.705C321.562 131.4 320.133 131.301 318.713 131.41C317.293 131.518 315.896 131.832 314.567 132.34C314.164 132.493 313.773 132.672 313.393 132.875C313.128 133 312.982 133.105 312.992 133.125Z" fill="#853432"/>
<path d="M303.502 127.035C303.991 125.678 304.392 124.29 304.7 122.88C305.1 121.495 305.412 120.085 305.633 118.66C305.144 120.018 304.743 121.406 304.435 122.815C304.032 124.2 303.72 125.61 303.502 127.035V127.035Z" fill="#853432"/>
<path d="M303.407 127.035C303.788 126.171 304.232 125.335 304.736 124.535C305.299 123.788 305.956 123.116 306.691 122.535C306.411 122.603 306.151 122.737 305.934 122.925C305.379 123.329 304.898 123.825 304.51 124.39C303.912 125.158 303.531 126.071 303.407 127.035Z" fill="#853432"/>
<path d="M303.482 181.755C303.512 181.755 303.567 181.295 303.783 180.485C304.102 179.345 304.532 178.238 305.066 177.18C306.385 174.48 308.791 171.065 311.849 167.64C313.353 165.915 314.857 164.285 316.086 162.725C317.198 161.352 318.204 159.896 319.094 158.37C319.687 157.339 320.19 156.258 320.598 155.14C320.738 154.745 320.843 154.43 320.899 154.215C320.938 154.109 320.965 153.998 320.979 153.885C320.979 153.885 320.813 154.325 320.477 155.1C320.026 156.197 319.493 157.258 318.883 158.275C317.968 159.776 316.946 161.21 315.825 162.565C314.572 164.11 313.103 165.73 311.584 167.46C308.516 170.89 306.114 174.355 304.826 177.095C304.303 178.168 303.899 179.295 303.623 180.455C303.548 180.772 303.491 181.092 303.452 181.415C303.449 181.529 303.459 181.644 303.482 181.755V181.755Z" fill="#853432"/>
<path d="M288.367 164.725C288.622 164.889 288.886 165.038 289.159 165.17C289.876 165.572 290.563 166.025 291.215 166.525C292.177 167.271 293.079 168.091 293.912 168.98C294.859 169.98 295.837 171.135 296.829 172.375C298.835 174.875 300.685 177.07 301.798 178.83C302.364 179.705 302.8 180.44 303.046 180.955C303.173 181.231 303.319 181.498 303.482 181.755C303.472 181.676 303.449 181.6 303.412 181.53C303.352 181.385 303.272 181.175 303.141 180.91C302.796 180.159 302.402 179.431 301.963 178.73C300.88 176.925 299.035 174.69 297.045 172.23C296.042 170.985 295.04 169.825 294.097 168.825C293.245 167.937 292.319 167.123 291.33 166.39C290.662 165.899 289.952 165.468 289.209 165.1C288.948 164.965 288.733 164.885 288.593 164.825C288.452 164.765 288.367 164.715 288.367 164.725Z" fill="#853432"/>
<path d="M288.071 170.25C288.623 170.37 289.182 170.45 289.746 170.49C291.09 170.629 292.419 170.89 293.716 171.27C294.997 171.687 296.198 172.316 297.271 173.13C298.093 173.765 298.479 174.285 298.519 174.255C298.456 174.115 298.371 173.985 298.268 173.87C298.004 173.553 297.71 173.262 297.391 173C296.33 172.12 295.11 171.451 293.796 171.03C292.483 170.638 291.129 170.398 289.761 170.315C289.201 170.241 288.635 170.22 288.071 170.25V170.25Z" fill="#853432"/>
<path d="M298.028 173.65C298.118 173.6 297.361 172.45 296.774 170.905C296.188 169.36 296.098 167.975 295.997 167.99C295.959 168.288 295.969 168.59 296.027 168.885C296.114 169.607 296.282 170.316 296.529 171C296.784 171.677 297.11 172.326 297.501 172.935C297.637 173.2 297.815 173.441 298.028 173.65V173.65Z" fill="#853432"/>
<path d="M283.469 149.895C283.555 149.948 283.646 149.995 283.739 150.035L284.527 150.39C284.873 150.54 285.289 150.725 285.76 150.975C286.231 151.225 286.788 151.475 287.359 151.815L288.272 152.315C288.592 152.5 288.903 152.715 289.239 152.92C289.911 153.33 290.588 153.83 291.305 154.345C294.389 156.636 297.08 159.412 299.271 162.565C299.772 163.3 300.238 163.99 300.624 164.675C300.82 165.015 301.025 165.335 301.201 165.675L301.702 166.605C302.028 167.19 302.259 167.745 302.484 168.225C302.71 168.705 302.89 169.13 303.026 169.475L303.357 170.275C303.39 170.371 303.435 170.461 303.492 170.545C303.478 170.445 303.451 170.348 303.412 170.255L303.126 169.44C302.982 169.006 302.814 168.581 302.625 168.165C302.409 167.665 302.189 167.11 301.873 166.515C301.717 166.215 301.562 165.9 301.396 165.575C301.231 165.25 301.025 164.92 300.835 164.575C300.454 163.88 299.978 163.18 299.491 162.435C297.307 159.242 294.595 156.442 291.47 154.155C290.743 153.655 290.056 153.155 289.374 152.745C289.039 152.54 288.718 152.325 288.372 152.145L287.444 151.645C286.858 151.31 286.296 151.07 285.815 150.84C285.406 150.637 284.986 150.457 284.557 150.3L283.749 149.99C283.661 149.945 283.566 149.913 283.469 149.895V149.895Z" fill="#853432"/>
<path d="M295.436 157.89C295.329 157.496 295.099 157.146 294.779 156.89C294.04 156.257 293.101 155.903 292.127 155.89C291.171 155.887 290.224 156.072 289.34 156.435C288.965 156.55 288.608 156.719 288.282 156.935C288.664 156.863 289.038 156.754 289.4 156.61C290.275 156.313 291.192 156.159 292.117 156.155C293.026 156.181 293.903 156.492 294.624 157.045C294.915 157.307 295.186 157.589 295.436 157.89Z" fill="#853432"/>
<path d="M297.221 159.73C297.301 159.685 296.624 158.7 296.469 157.285C296.416 156.431 296.474 155.574 296.639 154.735C296.48 154.946 296.374 155.19 296.328 155.45C296.007 156.678 296.159 157.983 296.754 159.105C296.86 159.346 297.019 159.56 297.221 159.73Z" fill="#853432"/>
<path d="M316.702 184.5C316.291 191.795 314.085 199.215 310.686 206.715H295.952C292.718 199.29 290.663 191.88 290.302 184.5H316.702Z" fill="#263238"/>
<path d="M292.688 196.295C292.688 196.37 297.546 196.435 303.532 196.435C309.518 196.435 314.376 196.37 314.376 196.295C314.376 196.22 309.523 196.155 303.532 196.155C297.541 196.155 292.688 196.22 292.688 196.295Z" fill="#FAFAFA"/>
<path d="M293.019 198.94C293.019 199.015 297.571 199.075 303.186 199.075C308.801 199.075 313.348 199.015 313.348 198.94C313.348 198.865 308.801 198.8 303.186 198.8C297.571 198.8 293.019 198.86 293.019 198.94Z" fill="#FAFAFA"/>
<path d="M310.461 189.28C310.274 191.535 310.274 193.801 310.461 196.055C310.641 193.801 310.641 191.535 310.461 189.28V189.28Z" fill="#FAFAFA"/>
<path d="M302.56 189.28C302.373 191.61 302.373 193.951 302.56 196.28C302.739 193.95 302.739 191.61 302.56 189.28Z" fill="#FAFAFA"/>
<path d="M295.14 189.22C294.96 191.602 294.96 193.994 295.14 196.375C295.327 193.994 295.327 191.602 295.14 189.22V189.22Z" fill="#FAFAFA"/>
<path d="M290.768 189.28C290.768 189.355 296.463 189.415 303.487 189.415C310.511 189.415 316.201 189.355 316.201 189.28C316.201 189.205 310.511 189.14 303.487 189.14C296.463 189.14 290.768 189.205 290.768 189.28Z" fill="#FAFAFA"/>
<path d="M36.512 190.4L34.1306 202.56L29.4632 211.63C29.3839 211.785 29.3372 211.954 29.3263 212.128C29.3153 212.302 29.3402 212.476 29.3994 212.639C29.4586 212.803 29.5509 212.952 29.6706 213.079C29.7902 213.206 29.9346 213.306 30.0949 213.375V213.375C30.2809 213.456 30.4838 213.491 30.6863 213.477C30.8888 213.463 31.085 213.401 31.258 213.295C33.499 211.93 41.7158 206.865 41.8411 205.965C41.9815 204.925 45.2051 193.31 45.2051 193.31L36.512 190.4Z" fill="#88D535"/>
<path d="M30.095 213.375L42.0217 205.15L41.9064 205.65C41.8118 206.094 41.5611 206.489 41.1995 206.765C40.2069 207.5 37.5097 209.5 31.2932 213.305C31.1148 213.414 30.912 213.478 30.7029 213.49C30.4938 213.502 30.285 213.463 30.095 213.375V213.375Z" fill="#263238"/>
<path d="M40.3773 201.57C40.2036 201.646 40.0643 201.784 39.9865 201.957C39.9088 202.129 39.8979 202.325 39.9562 202.505C40.0259 202.68 40.1605 202.822 40.3322 202.901C40.504 202.981 40.6996 202.991 40.8787 202.93C41.0648 202.849 41.2136 202.701 41.2954 202.516C41.3771 202.331 41.3859 202.121 41.3198 201.93C41.2277 201.757 41.0725 201.625 40.8862 201.561C40.6998 201.498 40.4963 201.508 40.3172 201.59" fill="#EBEBEB"/>
<path d="M34.0304 208.695C33.8278 208.247 33.5421 207.842 33.1882 207.5C32.7811 207.229 32.3273 207.036 31.8496 206.93C31.8496 206.9 32.0201 206.84 32.3158 206.86C32.6983 206.899 33.0614 207.047 33.3619 207.287C33.6623 207.526 33.8874 207.847 34.0104 208.21C34.0856 208.5 34.0605 208.695 34.0304 208.695Z" fill="#263238"/>
<path d="M32.812 210.125C32.7418 210.165 32.436 209.69 31.8495 209.37C31.475 209.211 31.0917 209.074 30.7014 208.96C30.9136 208.884 31.1412 208.86 31.3647 208.89C31.5881 208.921 31.8009 209.005 31.9848 209.135C32.6516 209.5 32.8822 210.11 32.812 210.125Z" fill="#263238"/>
<path d="M36.0958 206.97C35.6591 206.515 35.19 206.092 34.6921 205.705C34.1451 205.392 33.5753 205.122 32.9875 204.895C33.6561 204.863 34.3141 205.07 34.8425 205.48C35.4236 205.813 35.8677 206.341 36.0958 206.97V206.97Z" fill="#263238"/>
<path d="M37.1285 203.335C37.0784 203.4 36.4718 202.975 35.6245 202.755C34.7773 202.535 34.0203 202.59 34.0103 202.51C34.5521 202.309 35.1479 202.309 35.6897 202.51C36.2505 202.611 36.7589 202.902 37.1285 203.335V203.335Z" fill="#263238"/>
<path d="M37.9208 199.785C37.4298 199.498 36.9019 199.279 36.3516 199.135C35.7853 199.074 35.2132 199.092 34.6521 199.19C34.6521 199.16 34.8075 199.035 35.1183 198.935C35.5346 198.814 35.9736 198.791 36.4001 198.869C36.8266 198.948 37.2289 199.124 37.5749 199.385C37.8306 199.59 37.9408 199.765 37.9208 199.785Z" fill="#263238"/>
<path d="M36.522 198.465C36.5137 198.308 36.5411 198.15 36.6023 198.005C36.7383 197.594 36.9528 197.214 37.2339 196.885C37.4188 196.628 37.6829 196.438 37.9859 196.345C38.0895 196.322 38.1977 196.332 38.295 196.374C38.3923 196.417 38.4737 196.489 38.5274 196.58C38.6222 196.76 38.6472 196.968 38.5976 197.165C38.4813 197.567 38.2276 197.915 37.8805 198.15C37.5334 198.385 37.1149 198.491 36.6975 198.45C36.2867 198.403 35.899 198.235 35.5839 197.968C35.2688 197.701 35.0404 197.347 34.9278 196.95C34.9003 196.85 34.8946 196.745 34.911 196.642C34.9274 196.54 34.9656 196.442 35.0231 196.355C35.0907 196.274 35.1825 196.216 35.2852 196.19C35.3879 196.164 35.4962 196.171 35.5946 196.21C35.8776 196.342 36.1212 196.545 36.3015 196.8C36.5746 197.133 36.7852 197.512 36.9231 197.92C36.9864 198.065 37.0188 198.222 37.0184 198.38C36.8042 197.855 36.5137 197.365 36.1561 196.925C35.9913 196.708 35.774 196.536 35.5244 196.425C35.4711 196.402 35.4115 196.397 35.3552 196.412C35.2988 196.426 35.249 196.459 35.2136 196.505C35.1802 196.565 35.1594 196.63 35.1525 196.698C35.1456 196.766 35.1527 196.835 35.1735 196.9C35.2814 197.239 35.4849 197.54 35.7595 197.767C36.0342 197.994 36.3685 198.137 36.7226 198.18C37.0742 198.212 37.4264 198.124 37.7215 197.931C38.0166 197.737 38.2371 197.45 38.3469 197.115C38.3864 196.977 38.3757 196.83 38.3168 196.7C38.2881 196.649 38.2438 196.609 38.1905 196.586C38.1372 196.563 38.0778 196.557 38.021 196.57C37.7632 196.645 37.5365 196.801 37.3743 197.015C37.0068 197.444 36.7182 197.935 36.522 198.465Z" fill="#263238"/>
<path d="M77.1349 191.345L79.1653 203.565L83.562 212.77C83.6376 212.926 83.68 213.097 83.6866 213.27C83.6931 213.444 83.6638 213.617 83.6002 213.779C83.5367 213.941 83.4405 214.088 83.3175 214.211C83.1944 214.334 83.0473 214.431 82.8852 214.495V214.495C82.6971 214.57 82.4937 214.598 82.2921 214.578C82.0906 214.558 81.8968 214.49 81.7271 214.38C79.5263 212.95 71.4548 207.655 71.3596 206.75C71.2443 205.705 68.3516 194 68.3516 194L77.1349 191.345Z" fill="#88D535"/>
<path d="M82.8854 214.5L71.2043 205.935L71.2996 206.435C71.3851 206.879 71.6247 207.279 71.9764 207.565C72.9239 208.33 75.586 210.375 81.6872 214.38C81.8633 214.493 82.0645 214.562 82.2733 214.58C82.4821 214.598 82.6922 214.566 82.8854 214.485V214.5Z" fill="#263238"/>
<path d="M72.9488 202.4C73.1196 202.481 73.2542 202.623 73.3273 202.797C73.4003 202.971 73.4066 203.166 73.3449 203.345C73.2685 203.517 73.1293 203.655 72.9552 203.729C72.7812 203.803 72.5854 203.809 72.4074 203.745C72.2267 203.659 72.0845 203.509 72.0086 203.324C71.9326 203.139 71.9282 202.933 71.9963 202.745C72.0926 202.576 72.2502 202.45 72.4367 202.393C72.6232 202.336 72.8245 202.353 72.999 202.44" fill="#EBEBEB"/>
<path d="M79.0851 209.705C79.3069 209.268 79.6097 208.878 79.9775 208.555C80.3899 208.292 80.8497 208.112 81.3311 208.025C81.3311 207.99 81.1607 207.925 80.8699 207.94C80.4862 207.968 80.1186 208.105 79.8111 208.336C79.5035 208.566 79.2689 208.88 79.1353 209.24C79.04 209.5 79.0551 209.7 79.0851 209.705Z" fill="#263238"/>
<path d="M80.2633 211.17C80.3335 211.21 80.6493 210.745 81.266 210.445C81.6458 210.295 82.0342 210.168 82.4291 210.065C82.2191 209.983 81.9926 209.953 81.7684 209.976C81.5443 210 81.3291 210.077 81.1406 210.2C80.4438 210.545 80.1931 211.15 80.2633 211.17Z" fill="#263238"/>
<path d="M77.0698 207.92C77.5206 207.479 78.0014 207.07 78.5086 206.695C79.0655 206.399 79.6436 206.145 80.2383 205.935C79.5735 205.93 78.9215 206.116 78.3598 206.471C77.7981 206.826 77.3503 207.334 77.0698 207.935V207.92Z" fill="#263238"/>
<path d="M76.1423 204.26C76.1875 204.325 76.8091 203.915 77.6814 203.72C78.5538 203.525 79.2857 203.6 79.3007 203.52C78.7651 203.306 78.1719 203.283 77.6213 203.455C77.0487 203.541 76.525 203.826 76.1423 204.26V204.26Z" fill="#263238"/>
<path d="M75.4556 200.685C75.9553 200.413 76.4901 200.211 77.0449 200.085C77.6116 200.04 78.1819 200.073 78.7394 200.185C78.7394 200.155 78.589 200.025 78.2781 199.915C77.8654 199.784 77.4279 199.75 76.9997 199.815C76.5714 199.887 76.1661 200.058 75.8166 200.315C75.5509 200.5 75.4306 200.665 75.4556 200.685Z" fill="#263238"/>
<path d="M76.8945 199.41C76.9037 199.251 76.878 199.093 76.8193 198.945C76.7006 198.531 76.4994 198.145 76.2277 197.81C76.0502 197.545 75.7891 197.346 75.4857 197.245C75.3837 197.22 75.2767 197.229 75.1795 197.268C75.0824 197.307 75.0001 197.376 74.9443 197.465C74.8413 197.642 74.8091 197.851 74.854 198.05C74.9602 198.454 75.2037 198.808 75.543 199.053C75.8823 199.297 76.2963 199.416 76.714 199.39C77.1256 199.354 77.5171 199.197 77.8393 198.938C78.1614 198.68 78.3996 198.333 78.5238 197.94C78.5541 197.841 78.5627 197.736 78.5489 197.634C78.535 197.531 78.4991 197.432 78.4436 197.345C78.3788 197.261 78.2891 197.2 78.1873 197.17C78.0855 197.141 77.9769 197.144 77.8771 197.18C77.5895 197.302 77.3401 197.499 77.1552 197.75C76.8738 198.076 76.6516 198.448 76.4984 198.85C76.433 198.993 76.3972 199.148 76.3931 199.305C76.6238 198.788 76.9277 198.306 77.2955 197.875C77.4682 197.659 77.6899 197.488 77.9423 197.375C77.9961 197.355 78.0551 197.353 78.1102 197.369C78.1653 197.385 78.2137 197.419 78.2481 197.465C78.2798 197.525 78.2988 197.591 78.304 197.659C78.3092 197.727 78.3004 197.795 78.2782 197.86C78.1611 198.196 77.9494 198.491 77.6684 198.71C77.3874 198.929 77.0491 199.063 76.6939 199.095C76.3434 199.118 75.9952 199.023 75.7058 198.824C75.4164 198.625 75.2029 198.335 75.0997 198C75.0645 197.861 75.0805 197.713 75.1448 197.585C75.1767 197.536 75.2224 197.499 75.276 197.476C75.3296 197.454 75.3887 197.448 75.4456 197.46C75.6978 197.549 75.9176 197.711 76.0773 197.925C76.4344 198.369 76.711 198.871 76.8945 199.41V199.41Z" fill="#263238"/>
<path d="M37.7 110.815C36.567 109.095 31.8695 202.5 32.1854 203.04L44.5583 203.215L51.2912 153.305L54.9559 115.14L60.8366 151L68.0808 203.555L81.6168 203.745L73.2446 108.5L55.748 98.5L37.7 110.815Z" fill="#263238"/>
<path d="M49.4916 48.0598C49.4916 48.0598 45.7216 48.7198 44.2527 49.9998C42.7838 51.2798 41.3349 54.1598 41.3349 54.1598L34.1257 58.9998L40.4726 84.2198L35.1535 119.075L36.2163 122.075L75.982 121.415L76.7391 118.68L72.6281 86.9998L74.4329 65.7398L76.0923 57.1998L68.8932 53.9848C68.8932 53.9848 72.192 52.9848 72.3424 52.3948C72.4928 51.8048 64.9076 47.9448 64.9076 47.9448C64.9076 47.9448 52.9458 45.9048 49.4916 48.0598Z" fill="#DE5753"/>
<path opacity="0.3" d="M37.4243 102.725C41.9363 108.52 48.0375 112.795 54.0686 116.975C55.342 117.855 56.6605 118.76 58.1795 119.055C59.2752 119.252 60.4048 119.129 61.4315 118.699C62.4583 118.27 63.3382 117.552 63.9649 116.635C64.8372 115.31 65.133 113.635 66.1658 112.435C66.8676 111.62 67.8452 111.095 68.5972 110.325C69.2171 109.632 69.7415 108.86 70.1564 108.03L72.6229 103.59C69.6149 103.59 66.8576 105.05 64.1504 106.335C61.4432 107.62 58.4402 108.79 55.5225 108.125C51.4767 107.2 48.8998 103.095 44.9945 101.65C43.7665 101.204 42.4544 101.036 41.1535 101.16C39.8526 101.284 38.5958 101.695 37.4745 102.365" fill="black"/>
<path d="M34.1256 58.9999C34.1256 58.9999 32.6216 60.8849 32.3158 64.8449C32.01 68.8049 29.4282 89.5849 30.3105 92.5699C31.1928 95.5549 42.3074 108.02 46.0173 107.715L47.401 107.215L48.7245 108.24L54.6502 103.81L41.5905 87.4149L42.2924 63.8149C42.2924 63.8149 38.2566 58.0849 34.1256 58.9999Z" fill="#DE5753"/>
<path d="M44.2525 50C44.2525 50 44.1322 50.08 43.9267 50.27C43.6285 50.5545 43.3614 50.8696 43.1296 51.21C42.8087 51.65 42.4879 52.21 42.0918 52.915C41.6958 53.62 41.1844 54.345 40.643 55.205L40.5577 55.1C41.3477 54.8221 42.2092 54.8221 42.9992 55.1C43.8882 55.4105 44.7199 55.8649 45.4608 56.445C47.1546 57.8145 48.6466 59.4153 49.8926 61.2C52.9767 65.5402 55.7013 70.1236 58.0392 74.905V74.935V74.97C57.9791 77.03 57.9189 79.185 57.8537 81.385C57.5329 92.54 57.2471 102.635 57.0366 109.96C56.9212 113.605 56.831 116.56 56.7658 118.615C56.7307 119.615 56.7007 120.42 56.6806 120.97C56.6806 121.23 56.6806 121.43 56.6505 121.58C56.656 121.65 56.656 121.72 56.6505 121.79C56.645 121.72 56.645 121.65 56.6505 121.58V120.97C56.6505 120.415 56.6756 119.625 56.6906 118.615C56.7358 116.555 56.7959 113.615 56.8761 109.955C57.0516 102.64 57.2822 92.54 57.6181 81.38C57.6833 79.18 57.7434 77.02 57.8036 74.96V75.02C55.4824 70.2403 52.7834 65.6525 49.7321 61.3C48.5038 59.5259 47.0342 57.9306 45.3655 56.56C44.644 55.9892 43.8348 55.5384 42.9691 55.225C42.2102 54.9565 41.3818 54.9565 40.6229 55.225L40.4224 55.3L40.5377 55.125C41.0891 54.275 41.5855 53.515 42.0116 52.85C42.4377 52.185 42.7536 51.595 43.0844 51.16C43.3241 50.8214 43.6035 50.5125 43.9167 50.24C44.018 50.1462 44.1309 50.0656 44.2525 50V50Z" fill="#263238"/>
<path d="M70.9737 53C70.9737 53.04 70.2117 53.265 69.0085 53.745C67.4378 54.3571 65.9572 55.1778 64.6068 56.185C63.2848 57.2332 62.0569 58.3942 60.937 59.655L59.8992 60.79C59.7793 60.9366 59.6431 61.0691 59.4932 61.185C59.5847 61.0191 59.6958 60.8646 59.824 60.725C60.0446 60.435 60.3805 60.03 60.8267 59.535C61.9132 58.2258 63.1349 57.0342 64.4714 55.98C65.8434 54.9532 67.365 54.1421 68.9834 53.575C69.6 53.35 70.1064 53.205 70.4623 53.11C70.6273 53.0515 70.7992 53.0146 70.9737 53V53Z" fill="#263238"/>
<path d="M58.0142 75C58.0061 74.7506 58.0229 74.5011 58.0643 74.255C58.1194 73.78 58.2197 73.095 58.3801 72.255C58.691 70.575 59.2474 68.255 59.9844 65.755C60.6056 63.6155 61.3505 61.5136 62.2153 59.46C62.5562 58.67 62.8621 58.05 63.0927 57.63C63.2049 57.4083 63.3375 57.1974 63.4887 57C63.4068 57.2351 63.3045 57.4626 63.1829 57.68C62.9824 58.11 62.6816 58.74 62.3858 59.53C61.7441 61.105 60.9821 63.34 60.2351 65.83C59.4881 68.32 58.9166 70.605 58.5606 72.275C58.3801 73.105 58.2498 73.775 58.1646 74.25C58.1352 74.5037 58.0849 74.7546 58.0142 75V75Z" fill="#263238"/>
<path d="M59.2576 61.0296C59.8572 59.4962 60.5349 57.9942 61.288 56.5296C61.9671 55.0275 62.7251 53.5621 63.559 52.1396C62.9584 53.6735 62.279 55.1755 61.5236 56.6396C60.8473 58.1422 60.0909 59.6077 59.2576 61.0296V61.0296Z" fill="#263238"/>
<path d="M60.4858 70.3847L60.6011 70.1397C60.7397 70.236 60.9035 70.2899 61.0724 70.2947C61.2729 70.2947 61.3531 70.2347 61.3531 70.1447C61.3531 69.8747 60.5209 70.0497 60.5259 69.5147C60.5259 69.2747 60.7315 69.0747 61.1376 69.0797C61.3141 69.077 61.4878 69.1238 61.6389 69.2147L61.5336 69.4647C61.414 69.3917 61.2777 69.3504 61.1376 69.3447C60.9421 69.3447 60.8618 69.4147 60.8618 69.5047C60.8618 69.7697 61.6991 69.5997 61.689 70.1247C61.689 70.3647 61.4835 70.5647 61.0724 70.5597C60.8634 70.5638 60.6583 70.5026 60.4858 70.3847V70.3847Z" fill="white"/>
<path d="M63.0224 70.2999V70.5649H61.9094L61.9345 69.1299H63.0174V69.3949H62.2654V69.7099H62.9321V69.9699H62.2654V70.2999H63.0224Z" fill="white"/>
<path d="M63.1979 69.85C63.1998 69.7495 63.222 69.6505 63.2632 69.5588C63.3044 69.4671 63.3638 69.3847 63.4378 69.3165C63.5118 69.2483 63.5989 69.1957 63.6938 69.162C63.7887 69.1282 63.8895 69.1139 63.99 69.12C64.1017 69.1163 64.2126 69.1382 64.3143 69.1842C64.4161 69.2302 64.5058 69.2989 64.5766 69.385L64.361 69.575C64.3182 69.5219 64.264 69.4791 64.2024 69.4496C64.1408 69.4202 64.0734 69.405 64.0051 69.405C63.9408 69.3983 63.8758 69.4051 63.8144 69.4251C63.7529 69.445 63.6964 69.4776 63.6484 69.5207C63.6004 69.5639 63.562 69.6166 63.5357 69.6755C63.5094 69.7343 63.4958 69.7981 63.4958 69.8625C63.4958 69.927 63.5094 69.9907 63.5357 70.0496C63.562 70.1084 63.6004 70.1612 63.6484 70.2043C63.6964 70.2474 63.7529 70.28 63.8144 70.3C63.8758 70.3199 63.9408 70.3267 64.0051 70.32C64.0738 70.3214 64.142 70.3073 64.2045 70.2787C64.267 70.2502 64.3222 70.2079 64.366 70.155L64.5766 70.355C64.5028 70.4389 64.4105 70.5046 64.3071 70.5471C64.2036 70.5896 64.0917 70.6077 63.98 70.6C63.8782 70.6063 63.7762 70.5914 63.6805 70.5563C63.5848 70.5212 63.4974 70.4667 63.4239 70.3962C63.3504 70.3257 63.2924 70.2408 63.2535 70.1468C63.2146 70.0527 63.1957 69.9517 63.1979 69.85V69.85Z" fill="white"/>
<path d="M65.8549 70.1747C65.8302 70.1061 65.8101 70.0359 65.7947 69.9647C65.7947 69.9197 65.7597 69.8697 65.7446 69.8247V69.9597C65.7446 70.2347 65.6193 70.3447 65.4187 70.3397C65.2182 70.3347 65.0979 70.2247 65.1029 69.9497V69.1597H64.772V69.9647C64.7622 70.0522 64.7719 70.1409 64.8003 70.2243C64.8287 70.3077 64.8752 70.3838 64.9364 70.4473C64.9977 70.5108 65.0722 70.56 65.1547 70.5916C65.2372 70.6231 65.3256 70.6361 65.4137 70.6297C65.5151 70.6368 65.6166 70.6196 65.7099 70.5796C65.8033 70.5396 65.8856 70.4779 65.9502 70.3997C65.9077 70.3296 65.8756 70.2538 65.8549 70.1747Z" fill="white"/>
<path d="M65.9302 69.5V70V70.05C65.9458 70.0875 65.9592 70.1259 65.9703 70.165L66.0154 70.345C66.0496 70.4992 66.0598 70.6577 66.0455 70.815C66.1111 70.7498 66.1624 70.6716 66.1961 70.5855C66.2297 70.4995 66.245 70.4073 66.241 70.315V69.51L65.9302 69.5Z" fill="white"/>
<path d="M67.4794 70.9999L67.2087 70.5999H66.9029V70.9999H66.572V69.5649H67.1937C67.5747 69.5649 67.8153 69.7699 67.8103 70.0949C67.8128 70.1918 67.7846 70.2869 67.7297 70.3668C67.6748 70.4468 67.596 70.5073 67.5045 70.5399L67.8203 71.0049L67.4794 70.9999ZM67.1836 69.8349H66.9129V70.3349H67.1836C67.3842 70.3349 67.4895 70.2449 67.4945 70.0899C67.4995 69.9349 67.3892 69.8099 67.1836 69.8099V69.8349Z" fill="white"/>
<path d="M68.0959 69.5498H68.4268V70.9848H68.0959V69.5498Z" fill="white"/>
<path d="M69.0635 69.8349H68.6023V69.5649H69.8506V69.8349H69.3894V70.9999H69.0535L69.0635 69.8349Z" fill="white"/>
<path d="M70.6878 70.4998V70.9998H70.3569V70.4998L69.8154 69.5698H70.1714L70.5424 70.2148L70.9384 69.5848H71.2643L70.6878 70.4998Z" fill="white"/>
<path d="M67.0983 74.25C67.012 74.1363 66.9444 74.0097 66.8977 73.875C66.7874 73.63 66.642 73.26 66.4816 72.8C66.0763 71.5942 65.7908 70.3515 65.6294 69.09C65.4673 67.83 65.432 66.557 65.5241 65.29C65.5642 64.79 65.6143 64.41 65.6594 64.14C65.6677 63.9984 65.7016 63.8595 65.7597 63.73C65.7998 63.73 65.7597 64.33 65.7096 65.295C65.6253 67.8128 65.9452 70.3279 66.6571 72.745C66.8298 73.2388 66.977 73.7411 67.0983 74.25Z" fill="#263238"/>
<g opacity="0.3">
<path d="M58.9917 70.2697C58.7812 72.0497 58.2096 72.9297 58.1796 74.7197C58.1796 75.1047 57.5629 81.1697 57.9239 81.3047C58.2848 81.4397 59.9292 77.0547 60.3052 74.8547C60.581 73.1297 61.0672 70.8547 61.358 69.1397C62.2003 64.1147 64.0702 61.4097 66.6922 57.0347C67.1935 56.2097 69.0384 53.9547 69.0384 53.9547C68.863 53.8397 68.126 54.1897 67.6147 54.4197C66.1357 55.0847 63.4887 57.1897 63.4887 57.1897C62.7042 58.6716 61.9947 60.1919 61.363 61.7447C60.353 64.623 59.5472 67.5686 58.9516 70.5597" fill="black"/>
</g>
<g opacity="0.3">
<path d="M42.4378 55C42.4378 55 40.8235 55.88 40.8335 56.59C40.8704 56.943 40.9977 57.2807 41.2031 57.5705C41.4086 57.8603 41.6853 58.0926 42.0067 58.245C42.6571 58.5377 43.3272 58.7849 44.012 58.985C45.5556 59.6457 46.9387 60.6296 48.0678 61.87C50.0052 63.8141 51.7018 65.9829 53.1212 68.33C54.2994 70.28 55.3772 72.455 57.3475 73.605C56.0139 71.225 54.6302 68.92 53.2967 66.54C51.9649 64.1659 50.4231 61.9153 48.6894 59.815C46.9548 57.715 44.1273 55.17 42.4428 55" fill="black"/>
</g>
<path d="M36.6975 90.1347C36.6919 90.0916 36.6919 90.0479 36.6975 90.0047C36.6851 89.8767 36.6851 89.7477 36.6975 89.6197C36.7499 89.1306 36.9221 88.6618 37.1989 88.2547C37.6104 87.6081 38.2543 87.143 38.9987 86.9547C39.4778 86.8369 39.9778 86.8312 40.4596 86.9378C40.9413 87.0445 41.3919 87.2608 41.776 87.5697L41.5805 87.6647C41.5107 85.9806 41.6114 84.2937 41.8813 82.6297C42.132 80.9847 42.4378 79.4347 42.6083 78.0147C42.7712 76.7538 42.8699 75.4855 42.904 74.2147C42.9341 73.1297 42.904 72.2497 42.904 71.6447C42.904 71.3647 42.904 71.1447 42.904 70.9447C42.8911 70.8636 42.8911 70.7809 42.904 70.6997C42.9275 70.7775 42.9394 70.8584 42.9391 70.9397C42.9391 71.1297 42.9742 71.3647 42.9943 71.6397C43.0394 72.2497 43.0695 73.1397 43.0645 74.2197C43.0564 75.4965 42.9761 76.7719 42.8238 78.0397C42.6634 79.4747 42.3676 81.0397 42.1119 82.6697C41.8452 84.3223 41.7378 85.9966 41.7911 87.6697V87.9347L41.5855 87.7647C41.2307 87.4745 40.8141 87.2691 40.3674 87.1643C39.9208 87.0594 39.456 87.0579 39.0087 87.1597C38.3024 87.3248 37.6846 87.7498 37.2791 88.3497C37.0163 88.7382 36.8449 89.1809 36.7778 89.6447C36.6975 89.9547 36.6975 90.1347 36.6975 90.1347Z" fill="#263238"/>
<path d="M37.9458 102.32C38.0043 102.358 38.0581 102.404 38.1062 102.455C38.2165 102.57 38.3619 102.71 38.5424 102.885C38.9334 103.25 39.5049 103.79 40.277 104.415C41.2024 105.166 42.179 105.853 43.1998 106.47C43.8143 106.855 44.4639 107.181 45.1399 107.445C45.4951 107.584 45.8775 107.64 46.2579 107.61C46.6444 107.585 47.0098 107.426 47.2907 107.16L47.3659 107.08L47.4511 107.14C47.8672 107.465 48.3184 107.81 48.7796 108.14H48.6342L54.555 103.705L54.5299 103.89L54.4246 103.76C52.6399 101.54 51.0456 99.3497 49.5667 97.3847C48.0878 95.4197 46.7492 93.6447 45.5911 92.1897C44.4331 90.7347 43.4555 89.5846 42.7536 88.8196C42.4077 88.4346 42.1219 88.1446 41.9314 87.9496C41.8277 87.8559 41.7336 87.7521 41.6507 87.6396C41.7639 87.7219 41.8695 87.8139 41.9665 87.9146C42.172 88.0946 42.4678 88.3746 42.8288 88.7496C43.5557 89.4996 44.5584 90.6246 45.7365 92.0746C46.9147 93.5246 48.2733 95.2746 49.7472 97.2396C51.2211 99.2046 52.8404 101.385 54.6201 103.595L54.7204 103.725L54.8056 103.83L54.7004 103.91L48.7696 108.335L48.6944 108.39L48.6192 108.335L47.2957 107.305H47.4611C47.1355 107.607 46.7126 107.785 46.2679 107.805C45.8559 107.835 45.4425 107.77 45.0597 107.615C44.3733 107.343 43.7137 107.008 43.0895 106.615C42.0779 105.981 41.1144 105.274 40.2068 104.5C39.6139 104 39.0467 103.471 38.5073 102.915L38.0912 102.465C38.0372 102.422 37.9884 102.373 37.9458 102.32V102.32Z" fill="#263238"/>
<path d="M42.7134 65.555C42.6683 65.555 42.4778 64.98 41.9915 64.11C41.7094 63.6014 41.384 63.118 41.0189 62.665C40.5662 62.1112 40.0626 61.6006 39.5149 61.14C38.9618 60.6914 38.3696 60.2931 37.7452 59.95C37.2318 59.6756 36.697 59.4432 36.1459 59.255C35.1984 58.94 34.5768 58.86 34.5868 58.81C34.733 58.7879 34.8817 58.7879 35.028 58.81C35.4255 58.8568 35.8181 58.9388 36.2011 59.055C36.7737 59.2229 37.3292 59.4438 37.8605 59.715C38.5063 60.0524 39.1161 60.4545 39.6803 60.915C40.2333 61.3884 40.7372 61.9161 41.1843 62.49C41.5479 62.9584 41.8652 63.4608 42.1319 63.99C42.314 64.347 42.4665 64.7182 42.5881 65.1C42.653 65.2444 42.6952 65.3978 42.7134 65.555V65.555Z" fill="#263238"/>
<g opacity="0.3">
<path d="M66.6371 72.9998C66.8026 73.3548 67.3891 73.1349 67.4593 72.8549C67.5085 72.5574 67.4441 72.2523 67.2788 71.9998C66.3431 70.2023 65.782 68.2345 65.6294 66.2148C65.4087 68.5245 65.7545 70.8531 66.6371 72.9998" fill="black"/>
</g>
<g opacity="0.3">
<path d="M36.4719 89.6099C36.2653 88.9049 36.3011 88.1513 36.5736 87.469C36.8462 86.7867 37.3398 86.215 37.9759 85.8449C38.2989 85.6506 38.6719 85.555 39.0488 85.5699C39.8609 85.6299 40.4425 86.3499 40.9187 87.0049C40.467 86.8706 39.9922 86.8319 39.5246 86.8913C39.0571 86.9507 38.6071 87.1068 38.2036 87.3497C37.8 87.5926 37.4518 87.9169 37.1813 88.3018C36.9107 88.6867 36.7237 89.1237 36.6323 89.5849" fill="black"/>
</g>
<path d="M75.636 59.375C75.4325 59.8129 75.2066 60.2401 74.9592 60.655C74.4136 61.6824 73.9574 62.7547 73.5956 63.86C73.2375 64.9674 72.9742 66.1032 72.8085 67.255C72.7655 67.7369 72.6952 68.216 72.598 68.69C72.5377 68.2052 72.5377 67.7148 72.598 67.23C72.8348 64.8747 73.5861 62.5998 74.7988 60.565C75.0262 60.1346 75.3076 59.7347 75.636 59.375V59.375Z" fill="#263238"/>
<path opacity="0.3" d="M72.3223 72.0698C72.0565 72.3448 71.9813 74.6748 71.9813 74.6748C71.9813 77.4898 72.1618 78.7248 72.1668 81.5348C72.2196 82.6969 72.1151 83.8607 71.856 84.9948C71.6779 85.5852 71.4567 86.1617 71.1943 86.7198C70.9055 87.4453 70.539 88.1377 70.1013 88.7848C69.7006 89.2988 69.2598 89.7803 68.7828 90.2248C66.5525 92.4351 64.5225 94.8378 62.7167 97.4048L61.6138 98.9998L72.5529 88.7648L73.0893 87.4148L73.1194 87.2548L72.3223 72.0698Z" fill="black"/>
<path d="M76.0923 57.1797C76.0923 57.1797 77.8169 57.8297 78.7143 61.6797C79.7521 66.1097 81.1107 73.4697 81.3212 76.2597C81.4967 78.6047 83.8279 87.1747 82.0181 90.9497C80.2083 94.7247 71.6004 106.375 68.1913 106.75L66.7675 106.39L65.2635 106.645L61.0774 101.835L61.4434 100.46C61.3079 100.242 61.2361 99.9909 61.2361 99.7347C61.2361 99.4785 61.3079 99.2274 61.4434 99.0097C61.9447 98.3247 72.6231 88.3147 72.6231 88.3147C72.6231 88.3147 72.212 88.2647 72.1218 87.5747C71.9714 86.3847 73.0091 86.4247 73.0091 86.4247L72.3173 75.9497L76.0923 57.1797Z" fill="#DE5753"/>
<path d="M76.7389 89.5396C76.6937 89.6046 75.9066 89.0396 74.7887 88.6896C73.6707 88.3396 72.7031 88.3246 72.7031 88.2446C73.4293 88.1095 74.1787 88.177 74.8689 88.4396C75.5837 88.6232 76.232 89.0045 76.7389 89.5396V89.5396Z" fill="#263238"/>
<path d="M78.8998 87.9698C78.0787 87.3309 77.1372 86.8632 76.1313 86.5943C75.1254 86.3255 74.0756 86.261 73.0442 86.4048C73.3267 86.2693 73.6335 86.1911 73.9466 86.1748C75.4688 86.0064 76.9989 86.4151 78.233 87.3198C78.4972 87.4891 78.7241 87.7102 78.8998 87.9698V87.9698Z" fill="#263238"/>
<path d="M72.7032 88.2449C72.7032 88.2449 72.5277 88.2449 72.3071 88.0949C72.1761 87.9921 72.0784 87.8529 72.0264 87.6949C71.971 87.5004 71.971 87.2944 72.0264 87.0999C72.0594 86.9711 72.1118 86.8481 72.1818 86.7349V86.7599C72.2404 86.6313 72.3339 86.5215 72.4517 86.4428C72.5695 86.3642 72.7069 86.3199 72.8485 86.3149C73.0491 86.3149 73.1544 86.3599 73.1493 86.3899C73.1443 86.4199 73.0391 86.4199 72.8786 86.4749C72.7799 86.4975 72.6876 86.5421 72.6086 86.6053C72.5296 86.6685 72.4659 86.7487 72.4224 86.8399V86.8399C72.3724 86.9357 72.3321 87.0362 72.3021 87.1399C72.2594 87.2752 72.2517 87.419 72.2797 87.558C72.3078 87.697 72.3707 87.8267 72.4625 87.9349C72.5828 88.1299 72.7232 88.2099 72.7032 88.2449Z" fill="#263238"/>
<path d="M72.2169 71.5596C72.2722 71.7483 72.3042 71.9431 72.3121 72.1396C72.3573 72.5146 72.4074 73.0596 72.4575 73.7296C72.5678 75.0746 72.6731 76.9346 72.7633 78.9896C72.8536 81.0446 72.9288 82.8496 72.9889 84.2546C73.014 84.8846 73.0341 85.4196 73.0491 85.8496C73.0707 86.044 73.0707 86.2402 73.0491 86.4346C72.9937 86.2458 72.9618 86.0511 72.9538 85.8546C72.9087 85.4796 72.8586 84.9396 72.8085 84.2646C72.6982 82.9196 72.5979 81.0596 72.5077 79.0046C72.4174 76.9496 72.3422 75.1446 72.2821 73.7396C72.257 73.1096 72.2319 72.5796 72.2169 72.1446C72.1953 71.9502 72.1953 71.754 72.2169 71.5596V71.5596Z" fill="#263238"/>
<path d="M72.8786 88.1748C72.7973 88.2686 72.7084 88.3555 72.6129 88.4348L71.8208 89.1448L68.888 91.7998C67.6547 92.9348 66.1858 94.2998 64.5715 95.8798C63.7644 96.6598 62.9121 97.4998 62.0648 98.3798C61.8505 98.5894 61.6696 98.8306 61.5284 99.0948C61.4028 99.3616 61.371 99.6628 61.4382 99.9498C61.5253 100.277 61.5774 100.612 61.5936 100.95C61.602 101.14 61.556 101.328 61.461 101.493C61.366 101.657 61.2259 101.792 61.0572 101.88L61.1073 101.675C61.7991 102.47 62.5311 103.295 63.268 104.14L65.3937 106.565L65.2734 106.5L66.7774 106.245C67.4291 106.325 67.9756 106.625 68.5421 106.53C69.0948 106.427 69.6123 106.186 70.0461 105.83C70.8932 105.143 71.6922 104.4 72.4374 103.605C73.8763 102.105 75.0494 100.67 76.0169 99.4748C76.9845 98.2798 77.7365 97.2948 78.2579 96.6298C78.5136 96.3098 78.7091 96.0548 78.8595 95.8648C78.9251 95.7733 78.9989 95.6879 79.0801 95.6098C79.0305 95.7095 78.97 95.8034 78.8996 95.8898L78.3331 96.6798C77.8318 97.3648 77.0998 98.3598 76.1473 99.5748C75.1948 100.79 74.0317 102.235 72.5979 103.755C71.8504 104.567 71.0463 105.326 70.1915 106.025C69.7189 106.411 69.1542 106.67 68.5521 106.775C67.9004 106.88 67.2988 106.555 66.7323 106.495H66.7774L65.2734 106.75H65.1982L65.1531 106.695L63.0274 104.275L60.8667 101.805L60.7463 101.665L60.9168 101.6C61.0397 101.532 61.1405 101.431 61.2072 101.307C61.2738 101.184 61.3035 101.044 61.2928 100.905C61.2747 100.59 61.2243 100.279 61.1424 99.9748C61.072 99.6378 61.1124 99.2871 61.2577 98.9748C61.412 98.6879 61.6099 98.4265 61.8443 98.1998C62.7233 97.3198 63.5705 96.4865 64.386 95.6998C66.0153 94.1348 67.4943 92.7748 68.7476 91.6548C70.0009 90.5348 71.0237 89.6548 71.7556 89.0598L72.5778 88.3848C72.6712 88.3055 72.7719 88.2352 72.8786 88.1748V88.1748Z" fill="#263238"/>
<path d="M72.623 82.1698C72.623 82.2448 65.7898 82.2048 57.3624 82.0848C48.935 81.9648 42.1018 81.8048 42.1018 81.7348C42.1018 81.6648 48.935 81.6998 57.3674 81.8248C65.7998 81.9498 72.623 82.0998 72.623 82.1698Z" fill="#263238"/>
<path d="M64.7722 86.2949C64.7789 86.3597 64.7789 86.4251 64.7722 86.4899C64.7722 86.6149 64.7371 86.7999 64.6819 87.0349C64.5417 87.7003 64.3403 88.3514 64.0803 88.9799C63.2286 91.0787 61.7988 92.8943 59.9563 94.2171C58.1137 95.5398 55.9336 96.3156 53.6676 96.4549C52.9874 96.4991 52.3045 96.4824 51.6272 96.4049C51.3866 96.3799 51.2061 96.3399 51.0808 96.3199C51.0167 96.3129 50.9541 96.296 50.8953 96.2699C51.8135 96.327 52.7344 96.327 53.6526 96.2699C55.8712 96.0852 57.9977 95.3022 59.8045 94.0049C61.6112 92.7076 63.0303 90.9447 63.9099 88.9049C64.2496 88.053 64.5375 87.1814 64.7722 86.2949V86.2949Z" fill="#263238"/>
<path d="M50.1533 107.19C50.1082 107.245 49.8224 107.085 49.5617 106.785C49.301 106.485 49.1907 106.185 49.2509 106.145C49.3111 106.105 49.5166 106.335 49.7522 106.615C49.9879 106.895 50.1984 107.135 50.1533 107.19Z" fill="#263238"/>
<path d="M52.0633 105.7C52.0082 105.745 51.7926 105.555 51.562 105.275C51.3314 104.995 51.2311 104.73 51.2913 104.69C51.3515 104.65 51.567 104.84 51.7926 105.12C52.0182 105.4 52.1235 105.66 52.0633 105.7Z" fill="#263238"/>
<path d="M63.1529 101.695C63.188 101.76 62.9022 101.965 62.5413 102.195C62.1803 102.425 61.8795 102.62 61.8344 102.565C61.7893 102.51 62.0249 102.23 62.3959 101.98C62.7669 101.73 63.1228 101.63 63.1529 101.695Z" fill="#263238"/>
<path d="M64.5765 103.085C64.6367 103.125 64.4612 103.505 64.0752 103.86C63.6892 104.215 63.3282 104.385 63.2931 104.325C63.258 104.265 63.5538 104.01 63.8897 103.675C64.2256 103.34 64.5164 103.045 64.5765 103.085Z" fill="#263238"/>
<path d="M65.9403 104.75C65.9904 104.8 65.7699 105.12 65.3989 105.41C65.0279 105.7 64.6669 105.845 64.6318 105.785C64.5967 105.725 64.8825 105.485 65.2384 105.205C65.5944 104.925 65.8852 104.7 65.9403 104.75Z" fill="#263238"/>
<path d="M46.4885 51.5346C46.5637 51.5046 47.1603 53.0346 48.183 54.7096C49.2058 56.3846 50.2385 57.6546 50.1884 57.7096C49.9083 57.4883 49.6588 57.2311 49.4464 56.9446C48.9036 56.282 48.4109 55.5801 47.9725 54.8446C47.5304 54.1106 47.1466 53.3433 46.8244 52.5496C46.6644 52.229 46.5513 51.8872 46.4885 51.5346V51.5346Z" fill="#263238"/>
<path d="M76.739 118.705C76.597 118.713 76.4547 118.713 76.3128 118.705H75.0996L70.6327 118.745C66.8627 118.79 61.6538 118.93 55.9035 119.105C50.1532 119.28 44.9344 119.395 41.1643 119.39C39.2743 119.39 37.7503 119.39 36.6975 119.35L35.4792 119.315C35.3382 119.318 35.1973 119.308 35.0581 119.285C35.1976 119.266 35.3384 119.257 35.4792 119.26H36.6975L41.1593 119.215C44.9344 119.17 50.1382 119.03 55.8935 118.855C61.6488 118.68 66.8577 118.57 70.6327 118.57C72.5177 118.57 74.0468 118.57 75.0996 118.61L76.3128 118.65C76.4563 118.655 76.5989 118.673 76.739 118.705V118.705Z" fill="#263238"/>
<path d="M63.1026 107.605C63.2142 107.778 63.3718 107.916 63.5578 108.004C63.7437 108.093 63.9507 108.127 64.1554 108.105C64.5665 108.105 64.9626 107.955 65.3687 107.935C65.5716 107.906 65.7788 107.932 65.9678 108.011C66.1568 108.091 66.3206 108.22 66.4415 108.385C66.5155 108.529 66.5516 108.69 66.5463 108.851C66.5411 109.013 66.4947 109.171 66.4114 109.31C66.2361 109.584 65.9926 109.808 65.7046 109.96C65.0262 110.339 64.2478 110.503 63.4737 110.429C62.6995 110.355 61.9666 110.046 61.373 109.545" fill="#B78876"/>
<path d="M53.9133 113.82C55.094 114.993 56.3926 116.042 57.7886 116.95C58.072 117.178 58.4269 117.3 58.7913 117.295C59.1573 117.235 59.443 116.76 59.2024 116.485C59.3921 116.631 59.6236 116.714 59.8634 116.72C60.1032 116.726 60.3388 116.656 60.5359 116.52C60.7169 116.381 60.8523 116.192 60.9246 115.977C60.997 115.761 61.003 115.529 60.942 115.31C60.9409 115.304 60.9413 115.298 60.9432 115.292C60.9452 115.286 60.9486 115.281 60.9532 115.277C60.9577 115.273 60.9632 115.27 60.9692 115.269C60.9752 115.267 60.9813 115.268 60.9871 115.27C61.1647 115.341 61.3562 115.371 61.5472 115.358C61.7382 115.345 61.9238 115.289 62.0901 115.195C62.2636 115.087 62.3974 114.925 62.4715 114.735C62.5456 114.545 62.556 114.336 62.5012 114.14C62.8722 114.64 63.7645 114.445 64.0503 113.89C64.1669 113.599 64.2015 113.283 64.1502 112.974C64.099 112.666 63.9638 112.377 63.7595 112.14C63.343 111.674 62.8775 111.255 62.3708 110.89C61.8627 110.522 61.495 109.993 61.3281 109.39" fill="#B78876"/>
<path d="M59.3779 116.695C58.8632 116.549 58.4041 116.253 58.0594 115.845C57.6516 115.498 57.3596 115.036 57.2222 114.52C57.2873 114.485 57.6483 115.07 58.2248 115.665C58.8014 116.26 59.418 116.625 59.3779 116.695Z" fill="#AA6550"/>
<path d="M61.2627 115.535C60.8007 115.369 60.3908 115.084 60.0745 114.71C59.6984 114.397 59.41 113.992 59.2373 113.535C59.3025 113.49 59.7035 113.98 60.24 114.535C60.7764 115.09 61.2928 115.47 61.2627 115.535Z" fill="#AA6550"/>
<path d="M62.8871 114.38C62.4443 114.237 62.0503 113.974 61.749 113.62C61.3875 113.327 61.1121 112.941 60.9519 112.505C61.0121 112.46 61.4031 112.925 61.9546 113.435C62.506 113.945 62.9322 114.32 62.8871 114.38Z" fill="#AA6550"/>
<path d="M50.6245 102.5C50.6245 102.5 50.4741 101.86 52.1285 102.065C53.5243 102.313 54.9437 102.403 56.3598 102.335C58.2097 102.24 61.2127 101.715 61.2127 101.715L66.0405 105.955C66.0405 105.955 61.1024 110.28 59.6234 111.05C58.1445 111.82 55.1415 113.74 53.427 113.65C52.1285 113.58 52.0132 112.935 52.0132 112.935C52.0132 112.935 50.7398 112.065 50.9303 111.64C50.9303 111.64 49.4263 111.555 49.7071 110.405C49.7071 110.405 48.6292 110.205 48.4537 109.595C48.2783 108.985 49.0904 108.265 49.4063 107.955C49.9076 107.455 54.2993 104.245 54.3193 104.155C54.3093 104.175 50.5543 103.8 50.6245 102.5Z" fill="#B78876"/>
<path d="M53.7429 107.195C53.1432 107.82 52.4814 108.383 51.7676 108.875C51.1095 109.445 50.3957 109.947 49.637 110.375C50.2357 109.747 50.8976 109.182 51.6122 108.69C52.2723 108.124 52.9858 107.623 53.7429 107.195V107.195Z" fill="#AA6550"/>
<path d="M56.0641 107.645C55.9151 107.936 55.7204 108.201 55.4875 108.43C54.4438 109.608 53.1913 110.585 51.7927 111.31C51.5135 111.479 51.2088 111.603 50.8903 111.675C50.8502 111.605 52.1837 110.95 53.6125 109.835C55.0413 108.72 56.0039 107.59 56.0641 107.645Z" fill="#AA6550"/>
<path d="M58.1396 109.13C57.9727 109.457 57.7524 109.755 57.4878 110.01C56.2745 111.324 54.7084 112.263 52.9758 112.715C52.6254 112.832 52.2574 112.888 51.8879 112.88C53.071 112.531 54.2125 112.055 55.292 111.46C56.3241 110.79 57.2791 110.009 58.1396 109.13V109.13Z" fill="#AA6550"/>
<path d="M64.0351 107.75C63.9287 107.889 63.8058 108.015 63.6691 108.125C63.4234 108.355 63.0575 108.675 62.5912 109.05C61.3724 110.031 60.0821 110.92 58.731 111.71C57.9388 112.17 57.1668 112.58 56.4499 112.92C55.8175 113.255 55.1431 113.504 54.4446 113.66C53.9712 113.769 53.4791 113.769 53.0057 113.66C52.8244 113.63 52.6526 113.558 52.5044 113.45C53.1194 113.62 53.7694 113.62 54.3844 113.45C55.0541 113.267 55.7002 113.007 56.3095 112.675C57.0114 112.325 57.7784 111.91 58.5605 111.455C59.9016 110.668 61.1971 109.807 62.4408 108.875C63.4385 108.19 64.005 107.72 64.0351 107.75Z" fill="#AA6550"/>
<path d="M55.1917 23.6845C54.0466 23.5791 52.8918 23.7021 51.7949 24.0464C50.6979 24.3906 49.6806 24.9493 48.8024 25.6898C47.9242 26.4302 47.2025 27.3377 46.6796 28.3592C46.1567 29.3807 45.8429 30.4958 45.7566 31.6395C45.4558 35.6395 45.1701 39.9845 45.165 42.1745C45.165 46.8645 49.8525 47.6745 49.8525 47.6745C49.8525 47.6745 49.7171 49.0645 49.5617 50.7895C49.4892 51.6123 49.5828 52.4412 49.8369 53.2272C50.091 54.0133 50.5006 54.7406 51.0413 55.3661C51.582 55.9916 52.243 56.5027 52.9852 56.8691C53.7273 57.2356 54.5355 57.4499 55.3622 57.4995C56.1749 57.5496 56.9896 57.4392 57.7594 57.1745C58.5293 56.9099 59.2391 56.4963 59.8484 55.9575C60.4576 55.4186 60.9542 54.7651 61.3096 54.0344C61.665 53.3038 61.8723 52.5103 61.9196 51.6995L63.0426 32.8095C63.1771 30.5703 62.4331 28.3668 60.9679 26.6648C59.5028 24.9628 57.4314 23.8958 55.1917 23.6895V23.6845Z" fill="#B78876"/>
<path d="M49.8475 47.5948C52.0184 47.6675 54.1618 47.093 56.0038 45.9448C56.0038 45.9448 54.4297 49.3348 49.7422 48.8448L49.8475 47.5948Z" fill="#AA6550"/>
<path d="M62.5862 34.41C62.6664 34.375 65.8348 33.5 65.6844 36.71C65.534 39.92 62.3405 39.105 62.3355 39.01C62.3305 38.915 62.5862 34.41 62.5862 34.41Z" fill="#B78876"/>
<path d="M63.3735 37.8447C63.3735 37.8447 63.4286 37.8847 63.5239 37.9297C63.5877 37.9621 63.6574 37.9815 63.7289 37.9867C63.8004 37.9918 63.8721 37.9826 63.94 37.9597C64.1534 37.8374 64.3306 37.6611 64.4539 37.4487C64.5771 37.2362 64.6419 36.9951 64.6419 36.7497C64.6602 36.4758 64.6192 36.2013 64.5215 35.9447C64.4949 35.8435 64.4447 35.75 64.375 35.6718C64.3053 35.5936 64.2181 35.5329 64.1205 35.4947C64.0562 35.4751 63.9871 35.4784 63.9249 35.5039C63.8628 35.5294 63.8114 35.5756 63.7796 35.6347C63.7345 35.7197 63.7495 35.7847 63.7344 35.7897C63.7194 35.7947 63.6693 35.7347 63.6994 35.5997C63.7207 35.5211 63.7685 35.4523 63.8347 35.4047C63.9278 35.3436 64.0408 35.3203 64.1506 35.3397C64.2782 35.3704 64.3963 35.4322 64.4942 35.5194C64.5922 35.6066 64.667 35.7166 64.7121 35.8397C64.8351 36.1229 64.8868 36.4319 64.8624 36.7397C64.8644 37.0262 64.7818 37.307 64.6249 37.5471C64.468 37.7871 64.2438 37.9758 63.9801 38.0897C63.8935 38.1087 63.8039 38.1087 63.7173 38.0897C63.6307 38.0707 63.5494 38.0331 63.4788 37.9797C63.3785 37.9197 63.3635 37.8497 63.3735 37.8447Z" fill="#AA6550"/>
<path d="M47.5814 34.1996C47.5786 34.3744 47.6439 34.5435 47.7636 34.6713C47.8833 34.7991 48.048 34.8755 48.2231 34.8846C48.3083 34.8928 48.3944 34.8837 48.476 34.858C48.5577 34.8323 48.6333 34.7904 48.6984 34.7349C48.7635 34.6793 48.8166 34.6112 48.8547 34.5347C48.8928 34.4582 48.9149 34.3748 48.9199 34.2896C48.9254 34.1148 48.8616 33.945 48.7425 33.8168C48.6233 33.6886 48.4583 33.6124 48.2833 33.6046C48.1979 33.597 48.1118 33.6065 48.0302 33.6324C47.9485 33.6584 47.8728 33.7002 47.8075 33.7556C47.7422 33.811 47.6886 33.8787 47.6498 33.9549C47.6109 34.0312 47.5877 34.1143 47.5814 34.1996V34.1996Z" fill="#263238"/>
<path d="M46.9446 33.3299C47.0248 33.4199 47.5412 33.0499 48.2631 33.0649C48.985 33.0799 49.5114 33.4449 49.5917 33.3549C49.6719 33.2649 49.5465 33.1599 49.3159 32.9899C49.0087 32.7663 48.6384 32.6455 48.2581 32.6449C47.882 32.6376 47.5134 32.7496 47.2053 32.9649C46.9797 33.1349 46.9045 33.2899 46.9446 33.3299Z" fill="#263238"/>
<path d="M54.8256 34.3949C54.8215 34.5692 54.8857 34.7383 55.0046 34.8663C55.1234 34.9942 55.2877 35.0708 55.4623 35.0799C55.5474 35.0881 55.6333 35.0793 55.715 35.0539C55.7966 35.0286 55.8724 34.9872 55.9378 34.9322C56.0032 34.8772 56.0569 34.8098 56.0958 34.7338C56.1346 34.6579 56.1579 34.5749 56.1642 34.4899C56.1697 34.3146 56.1061 34.1443 55.987 34.0153C55.868 33.8863 55.703 33.8089 55.5275 33.7999C55.4421 33.7923 55.3561 33.8018 55.2744 33.8278C55.1927 33.8537 55.1171 33.8955 55.0517 33.9509C54.9864 34.0063 54.9328 34.074 54.894 34.1502C54.8552 34.2265 54.8319 34.3096 54.8256 34.3949V34.3949Z" fill="#263238"/>
<path d="M54.0486 33.5648C54.1288 33.6548 54.6452 33.2848 55.3671 33.2998C56.089 33.3148 56.6154 33.6798 56.6957 33.5948C56.7759 33.5098 56.6505 33.3948 56.4199 33.2248C56.1119 33.0028 55.7421 32.8822 55.3621 32.8798C54.9851 32.8715 54.6157 32.9856 54.3093 33.2048C54.0837 33.3698 54.0085 33.5248 54.0486 33.5648Z" fill="#263238"/>
<path d="M51.3463 38.8749C50.9663 38.7512 50.5722 38.6756 50.1732 38.6499C49.9927 38.6499 49.8173 38.5899 49.7872 38.4599C49.776 38.271 49.8214 38.0831 49.9175 37.9199L50.484 36.5249C51.2711 34.5249 51.8427 32.9049 51.7624 32.8749C51.6822 32.8449 50.9804 34.4249 50.1933 36.4099L49.6518 37.8149C49.5305 38.0343 49.4914 38.2895 49.5415 38.5349C49.5695 38.5992 49.6108 38.657 49.6626 38.7043C49.7144 38.7517 49.7757 38.7877 49.8423 38.8099C49.9452 38.8393 50.0512 38.8561 50.1582 38.8599C50.5517 38.9192 50.9515 38.9243 51.3463 38.8749V38.8749Z" fill="#263238"/>
<path d="M53.2114 30.9548C53.2967 31.1448 54.0136 31.0048 54.8658 31.0548C55.7181 31.1048 56.42 31.2848 56.5202 31.0998C56.5654 31.0148 56.43 30.8398 56.1442 30.6648C55.7608 30.4541 55.3333 30.336 54.8959 30.3198C54.4604 30.2968 54.0257 30.3773 53.6275 30.5548C53.3217 30.6998 53.1763 30.8648 53.2114 30.9548Z" fill="#263238"/>
<path d="M46.674 30.6748C46.7993 30.8398 47.2957 30.6748 47.8973 30.6748C48.4989 30.6748 49.0002 30.8048 49.1205 30.6348C49.1706 30.5498 49.0954 30.3848 48.8748 30.2298C48.5807 30.0388 48.2361 29.9397 47.8851 29.945C47.5342 29.9504 47.1928 30.06 46.9046 30.2598C46.689 30.4248 46.6188 30.5948 46.674 30.6748Z" fill="#263238"/>
<path d="M62.9572 34.2648C62.9965 34.7803 62.9627 35.2987 62.8569 35.8048C62.8099 36.0477 62.7102 36.2775 62.5647 36.4779C62.4192 36.6783 62.2315 36.8445 62.0147 36.9648C61.2025 37.3548 60.1999 36.7248 59.8489 35.8948C59.498 35.0648 59.6133 34.1248 59.7085 33.2248C59.884 32.0077 59.884 30.7719 59.7085 29.5548C59.5287 28.3273 58.9196 27.2028 57.989 26.3798C57.5184 25.9804 56.9465 25.7182 56.3362 25.6221C55.7259 25.5259 55.1009 25.5995 54.5298 25.8348C53.843 26.1598 53.3216 26.7498 52.6799 27.1548C52.1081 27.5409 51.4143 27.7045 50.7297 27.6148C50.0529 27.4998 49.1404 27.0248 49.2558 26.3548C49.5215 24.7898 48.4336 26.1048 48.5038 25.8548C48.6241 25.4148 49.5315 24.6498 49.9075 24.3548C50.5492 23.9056 51.2875 23.6128 52.0632 23.4998C54.1352 23.1548 56.2627 23.3955 58.2045 24.1948C60.1548 24.9574 61.7254 26.4556 62.5762 28.3648C63.4786 30.5748 63.3382 31.9148 63.0324 34.2948" fill="#263238"/>
<path d="M52.8754 41C52.8754 41.145 52.2839 41.29 51.5369 41.33C50.7899 41.37 50.1732 41.29 50.1632 41.145C50.1532 41 50.7598 40.85 51.5068 40.81C52.2538 40.77 52.8704 40.865 52.8754 41Z" fill="#263238"/>
<path d="M62.9473 34.5498C62.604 34.5296 62.2659 34.457 61.9446 34.3348C61.348 34.1548 60.5459 33.8348 59.6685 33.5048L57.4326 32.6048C57.1094 32.5109 56.7982 32.3801 56.5051 32.2148C56.848 32.2381 57.1857 32.3105 57.5078 32.4298C58.1044 32.6098 58.9065 32.9298 59.7839 33.2598L62.0198 34.1598C62.3434 34.2526 62.6547 34.3835 62.9473 34.5498V34.5498Z" fill="#263238"/>
<path d="M49.5717 31.7799C49.7797 31.8031 49.9744 31.8933 50.1264 32.0367C50.2783 32.1802 50.3793 32.3691 50.414 32.5749C50.5649 33.5496 50.3496 34.5456 49.8092 35.3715C49.2688 36.1975 48.4415 36.7952 47.4862 37.0499C47.1845 37.1467 46.8661 37.1811 46.5507 37.151C46.2352 37.1209 45.9292 37.027 45.6513 36.8749C44.9043 36.4049 44.6486 35.4299 44.6085 34.5499C44.5098 33.9084 44.6224 33.2522 44.9294 32.6799C45.1895 32.359 45.5201 32.1019 45.8956 31.9285C46.2711 31.7552 46.6815 31.6701 47.0951 31.6799C47.9218 31.6717 48.7484 31.7051 49.5717 31.7799V31.7799Z" fill="#263238"/>
<path d="M53.3517 31.8945C53.1401 31.9118 52.94 31.998 52.7824 32.1399C52.6247 32.2817 52.5183 32.4714 52.4794 32.6795C52.2969 33.6599 52.4848 34.6729 53.0069 35.5233C53.529 36.3736 54.3484 37.001 55.3069 37.2845C55.609 37.3909 55.9295 37.4351 56.2492 37.4144C56.5688 37.3938 56.881 37.3088 57.1668 37.1645C57.9389 36.7045 58.1996 35.7245 58.2898 34.8395C58.4106 34.1937 58.3155 33.5262 58.0191 32.9395C57.7658 32.6069 57.4392 32.337 57.0645 32.1505C56.6898 31.9641 56.2771 31.8663 55.8583 31.8645C55.0261 31.7995 53.3517 31.8945 53.3517 31.8945V31.8945Z" fill="#263238"/>
<path d="M54.1138 32.0248C53.1995 32.1408 52.276 32.1676 51.3565 32.1048C50.4336 32.1255 49.5108 32.0636 48.5991 31.9198C49.5151 31.8036 50.4403 31.7768 51.3615 31.8398C52.2826 31.8192 53.2037 31.8811 54.1138 32.0248V32.0248Z" fill="#263238"/>
<path d="M62.7667 53.3048C62.7667 53.3048 62.7667 53.2798 62.7667 53.2298C62.7575 53.1518 62.7575 53.0729 62.7667 52.9948C62.821 52.7022 62.9262 52.4213 63.0775 52.1648C63.3146 51.7734 63.5047 51.3555 63.644 50.9198C63.8001 50.333 63.871 49.7268 63.8546 49.1198C63.8546 48.4448 63.7694 47.7148 63.7192 46.8998C63.7051 46.6726 63.7592 46.4463 63.8747 46.2498C63.938 46.1368 64.0358 46.0468 64.1539 45.9928C64.272 45.9389 64.4042 45.9238 64.5314 45.9498C64.599 45.9662 64.6624 45.9965 64.7177 46.0387C64.7729 46.0809 64.8188 46.134 64.8523 46.1948C64.8939 46.2589 64.9161 46.3335 64.9161 46.4098C64.9161 46.4862 64.8939 46.5608 64.8523 46.6248C64.7598 46.729 64.6354 46.7996 64.4985 46.8259C64.3616 46.8521 64.2198 46.8324 64.0952 46.7698C63.8591 46.6555 63.6703 46.4627 63.5614 46.2245C63.4525 45.9862 63.4303 45.7176 63.4987 45.4648C63.566 45.2025 63.724 44.9724 63.9448 44.8148C64.0589 44.7292 64.194 44.6756 64.3359 44.6598C64.4161 44.6473 64.4982 44.6545 64.575 44.6806C64.6519 44.7067 64.7212 44.7511 64.7771 44.8098C64.8387 44.8704 64.8819 44.9473 64.9014 45.0314C64.9209 45.1155 64.916 45.2034 64.8873 45.2848C64.848 45.3623 64.7877 45.4273 64.7133 45.4723C64.6389 45.5174 64.5533 45.5408 64.4662 45.5398C64.32 45.5421 64.1749 45.5133 64.0406 45.4555C63.9063 45.3976 63.7859 45.3119 63.6873 45.2041C63.5887 45.0964 63.5142 44.9689 63.4687 44.8303C63.4233 44.6916 63.4078 44.5449 63.4235 44.3998C63.4505 44.2523 63.5093 44.1125 63.5959 43.9899C63.6824 43.8673 63.7946 43.7649 63.9248 43.6898C64.1403 43.5571 64.3982 43.5107 64.6467 43.5598C64.7769 43.5933 64.895 43.6626 64.9876 43.7598C65.0413 43.8131 65.0802 43.8793 65.1004 43.9521C65.1206 44.0249 65.1215 44.1016 65.1029 44.1748C65.0813 44.2464 65.042 44.3115 64.9885 44.3639C64.9351 44.4163 64.8693 44.4545 64.7971 44.4748C64.6771 44.5118 64.5505 44.5221 64.4261 44.5048C64.194 44.4704 63.9756 44.3736 63.7944 44.2248C63.6059 44.0881 63.4649 43.8961 63.3912 43.6756C63.3175 43.455 63.3148 43.217 63.3833 42.9948C63.4643 42.7818 63.6158 42.6027 63.8127 42.4873C64.0096 42.3718 64.2402 42.3268 64.4662 42.3598C64.5924 42.3788 64.7092 42.4375 64.7994 42.5275C64.8897 42.6175 64.9486 42.734 64.9676 42.8598C64.9727 42.9253 64.9632 42.9911 64.9398 43.0525C64.9164 43.1138 64.8796 43.1693 64.8322 43.2148C64.741 43.2945 64.627 43.3435 64.5063 43.3548C64.291 43.3574 64.0822 43.2809 63.9198 43.1398C63.7629 43.0171 63.6346 42.8618 63.5438 42.6848C63.4492 42.5076 63.421 42.3027 63.4642 42.1066C63.5074 41.9105 63.6191 41.7362 63.7794 41.6148C63.8614 41.5584 63.9562 41.5229 64.0552 41.5117C64.1542 41.5004 64.2545 41.5136 64.3472 41.5502C64.4399 41.5868 64.5221 41.6456 64.5866 41.7214C64.6511 41.7972 64.6958 41.8877 64.7169 41.9848V42.0548L64.6567 42.0848C64.549 42.1407 64.4308 42.1738 64.3096 42.182C64.1884 42.1902 64.0668 42.1733 63.9524 42.1325C63.8381 42.0917 63.7334 42.0277 63.645 41.9447C63.5565 41.8616 63.4862 41.7612 63.4385 41.6498C63.3984 41.5451 63.3826 41.4327 63.3922 41.3211C63.4017 41.2094 63.4364 41.1013 63.4936 41.0048C63.5948 40.8248 63.7537 40.6839 63.9448 40.6048C64.1279 40.5298 64.3333 40.5298 64.5164 40.6048C64.6083 40.6383 64.6859 40.7023 64.7361 40.786C64.7863 40.8698 64.8061 40.9682 64.7921 41.0648C64.7826 41.1135 64.7611 41.1591 64.7296 41.1975C64.6981 41.2359 64.6576 41.2659 64.6116 41.2848C64.5274 41.3154 64.4351 41.3154 64.3509 41.2848C64.2813 41.2506 64.2207 41.2007 64.1737 41.1391C64.1267 41.0775 64.0947 41.0059 64.0802 40.9298C64.0196 40.5372 64.0196 40.1375 64.0802 39.7448C64.0917 39.6068 64.1203 39.4708 64.1654 39.3398C64.111 39.8594 64.1245 40.3838 64.2055 40.8998C64.2161 40.9572 64.2403 41.0112 64.276 41.0573C64.3118 41.1034 64.3581 41.1403 64.4111 41.1648C64.4345 41.178 64.4608 41.1854 64.4877 41.1865C64.5146 41.1876 64.5414 41.1823 64.5658 41.1711C64.5903 41.1599 64.6117 41.143 64.6284 41.122C64.6451 41.1009 64.6565 41.0762 64.6618 41.0498C64.7169 40.7948 64.2958 40.6348 64.02 40.7798C63.8611 40.8397 63.7313 40.9582 63.6576 41.1109C63.5839 41.2635 63.5719 41.4386 63.624 41.5998C63.6626 41.6839 63.7178 41.7594 63.7863 41.8218C63.8548 41.8842 63.9352 41.9322 64.0226 41.963C64.1101 41.9937 64.2029 42.0067 64.2954 42.001C64.388 41.9953 64.4785 41.9711 64.5615 41.9298L64.5113 42.0298C64.4932 41.9694 64.4611 41.9141 64.4175 41.8685C64.3739 41.8228 64.32 41.7881 64.2604 41.7671C64.2008 41.7462 64.137 41.7395 64.0743 41.7478C64.0116 41.7561 63.9518 41.7791 63.8997 41.8148C63.7854 41.9079 63.7081 42.0385 63.6814 42.1832C63.6548 42.3279 63.6806 42.4774 63.7543 42.6048C63.821 42.7485 63.9231 42.873 64.0511 42.9666C64.1791 43.0601 64.3288 43.1198 64.4863 43.1398C64.6216 43.1398 64.747 43.0148 64.7269 42.9048C64.7093 42.836 64.6719 42.7738 64.6194 42.7258C64.5669 42.6779 64.5014 42.6463 64.4311 42.6348C64.2613 42.6126 64.089 42.6504 63.9443 42.7418C63.7996 42.8331 63.6915 42.9722 63.639 43.1348C63.5893 43.3069 63.5949 43.4901 63.6552 43.6588C63.7155 43.8274 63.8273 43.973 63.9749 44.0748C64.1197 44.1918 64.2925 44.2693 64.4763 44.2998C64.6467 44.2998 64.8472 44.2648 64.8673 44.1548C64.8874 44.0448 64.762 43.8998 64.5966 43.8648C64.4228 43.8341 64.2438 43.8698 64.0952 43.9648C64.0023 44.0177 63.9216 44.0895 63.8585 44.1757C63.7954 44.2619 63.7514 44.3604 63.7293 44.4648C63.7155 44.5727 63.7264 44.6822 63.7611 44.7853C63.7958 44.8883 63.8535 44.9822 63.9298 45.0598C64.0006 45.1398 64.0879 45.2035 64.1856 45.2466C64.2834 45.2898 64.3894 45.3113 64.4963 45.3098C64.7119 45.3098 64.757 45.1548 64.6367 45.0098C64.5164 44.8648 64.2958 44.9248 64.1353 45.0448C63.9656 45.1677 63.842 45.3437 63.7844 45.5448C63.7369 45.7378 63.7555 45.9411 63.8373 46.1224C63.919 46.3036 64.0593 46.4523 64.2356 46.5448C64.4011 46.6198 64.6317 46.5998 64.7019 46.4898C64.772 46.3798 64.7019 46.2048 64.5264 46.1648C64.445 46.1521 64.3617 46.165 64.288 46.2018C64.2143 46.2385 64.1539 46.2973 64.1153 46.3698C64.0258 46.5209 63.9823 46.6946 63.99 46.8698C64.0301 47.6548 64.1053 48.4148 64.0952 49.0998C64.0989 49.7209 64.011 50.3392 63.8346 50.9348C63.6883 51.3796 63.4807 51.802 63.2179 52.1898C63.0609 52.433 62.9441 52.6997 62.872 52.9798C62.7667 53.1998 62.7667 53.3048 62.7667 53.3048Z" fill="#E0E0E0"/>
<path d="M64.6116 37.9597C64.5899 37.7177 64.5182 37.4828 64.401 37.2697C64.3395 37.1651 64.2553 37.0754 64.1548 37.007C64.0542 36.9387 63.9397 36.8935 63.8195 36.8747C63.6838 36.8648 63.5485 36.8989 63.4338 36.9719C63.3191 37.0449 63.231 37.1528 63.1828 37.2797C63.1447 37.4079 63.1469 37.5446 63.189 37.6716C63.2311 37.7985 63.3112 37.9095 63.4184 37.9897V37.9897L63.4736 38.0297C63.5588 38.0797 63.6791 38.0897 63.7593 38.1397C63.8402 38.2015 63.9032 38.2836 63.942 38.3775C63.9807 38.4715 63.9938 38.5741 63.9799 38.6747C63.9547 38.8755 63.9397 39.0774 63.9348 39.2797C63.9348 39.4247 64.0301 39.5947 64.1754 39.5997C64.3208 39.6047 64.396 39.4747 64.4462 39.3597C64.6319 38.9178 64.6892 38.4326 64.6116 37.9597V37.9597Z" fill="#E0E0E0"/>
<path d="M49.7823 48.4199C49.7823 48.4199 48.7797 49.8899 48.6894 50.8499C48.6343 51.4849 49.0604 53.9499 49.3512 55.5449C49.5205 56.4602 49.8791 57.3304 50.404 58.0999L51.0557 59.0549C52.0007 60.431 52.7878 61.9086 53.402 63.4599C54.6754 66.6699 56.811 72.0699 56.9113 72.3249C57.1941 72.9692 57.5104 73.5984 57.8588 74.2099L58.9918 60.7349L62.4009 53.9949C62.7018 53.4098 62.8727 52.7669 62.9022 52.1099L62.9824 49.9499C63.0093 49.1562 62.7252 48.3833 62.1903 47.7949V47.7949L62.0199 49.7449L56.3699 54.8649L49.8074 50.4649L49.7823 48.4199Z" fill="white"/>
<path d="M56.0389 54.9097C55.5605 55.179 55.1546 55.5599 54.8558 56.0197C54.2048 57.183 53.7428 58.442 53.4871 59.7497C53.447 59.8997 53.4119 60.0497 53.3768 60.1897L53.3267 60.3897L53.1663 60.2547C52.2178 59.4415 51.3313 58.5591 50.5142 57.6147C50.1575 57.2514 49.8306 56.8601 49.5366 56.4447C49.936 56.7617 50.3068 57.113 50.6446 57.4947C51.4968 58.3923 52.3936 59.2467 53.3317 60.0547L53.1212 60.1247L53.2314 59.6847C53.6074 58.1597 54.0737 56.7697 54.7054 55.9147C54.9409 55.5677 55.2508 55.2774 55.6128 55.0647C55.7411 54.9812 55.8869 54.9282 56.0389 54.9097Z" fill="#263238"/>
<path d="M60.0746 58.5396C59.7054 59.2603 59.2796 59.9508 58.8012 60.6046L58.5957 60.9146V60.5346C58.5534 59.9126 58.4356 59.2981 58.2447 58.7046C58.0539 57.7134 57.716 56.7562 57.2421 55.8645C57.0005 55.5271 56.7323 55.2094 56.4399 54.9146C56.4399 54.9146 56.5552 54.9545 56.7407 55.0845C56.9939 55.2737 57.2155 55.5015 57.3975 55.7596C57.9319 56.6457 58.3053 57.6189 58.5004 58.6346C58.6997 59.2509 58.8111 59.8922 58.8313 60.5396L58.6207 60.4696C59.0545 59.7896 59.5406 59.1443 60.0746 58.5396V58.5396Z" fill="#263238"/>
<path d="M57.4878 73.2899C57.4176 73.2899 57.0967 69.2099 56.7709 64.1649C56.445 59.1199 56.2395 55.0299 56.3096 55.0249C56.3798 55.0199 56.7057 59.1049 57.0316 64.1499C57.3574 69.1949 57.558 73.2849 57.4878 73.2899Z" fill="#263238"/>
<path d="M44.8542 34.5546C44.7511 34.3777 44.6918 34.1787 44.6814 33.9744C44.6709 33.77 44.7095 33.5661 44.794 33.3796C45.0096 32.7246 45.516 32.4146 45.546 32.4746C45.5761 32.5346 45.2252 32.8896 45.0447 33.4746C44.8642 34.0596 44.9294 34.5396 44.8542 34.5546Z" fill="#E0E0E0"/>
<path d="M53.1262 34.8346C53.071 34.8796 52.7402 34.4546 52.7452 33.8346C52.7502 33.2146 53.071 32.7746 53.1262 32.8346C53.1813 32.8946 53.0009 33.2946 53.0059 33.8346C53.0109 34.3746 53.1914 34.7996 53.1262 34.8346Z" fill="#E0E0E0"/>
</svg>
