<svg width="158" height="41" viewBox="0 0 158 41" fill="none" xmlns="http://www.w3.org/2000/svg">
<path d="M17.5364 8.12305V9.86785C15.7312 8.71118 13.7078 8.12305 11.4463 8.12305C8.27227 8.12305 5.57436 9.2209 3.37239 11.4166C1.13074 13.6123 0 16.2785 0 19.3957C0 22.5128 1.13074 25.179 3.37239 27.3943C5.5942 29.59 8.29211 30.6879 11.4463 30.6879C13.6483 30.6879 15.6717 30.0998 17.5364 28.9431V29.5508C17.5364 31.2172 16.9413 32.6483 15.7709 33.8246C14.5806 34.9813 13.1325 35.5694 11.4463 35.5694C9.74025 35.5694 8.29211 34.9813 7.12169 33.8246L3.2732 37.6475C5.49501 39.8432 8.19292 40.9411 11.3471 40.9411C14.5013 40.9411 17.1793 39.8432 19.421 37.6475C21.6428 35.4518 22.8529 32.6876 22.8529 29.5312V8.12305H17.5364ZM17.5166 25.277H11.4264C9.76009 25.277 8.33178 24.6889 7.10185 23.5322C5.93144 22.356 5.33631 20.9248 5.33631 19.2584C5.33631 17.6117 5.93144 16.2001 7.10185 14.9846C8.33178 13.828 9.76009 13.2398 11.4264 13.2398C13.1126 13.2398 14.5608 13.828 15.751 14.9846C16.9215 16.2001 17.5166 17.6117 17.5166 19.2584V25.277Z" fill="#2C4572"/>
<path d="M116.823 8.12305V9.86785C115.018 8.71118 112.995 8.12305 110.733 8.12305C107.559 8.12305 104.861 9.2209 102.639 11.4166C100.418 13.6123 99.3066 16.2785 99.3066 19.3957C99.3066 22.5128 100.418 25.179 102.639 27.3943C104.921 29.59 107.619 30.6879 110.733 30.6879C112.935 30.6879 114.958 30.0998 116.823 28.9431V30.6879H122.14V19.3761V8.12305H116.823ZM116.803 25.277H110.713C109.047 25.277 107.619 24.6889 106.389 23.5322C105.218 22.356 104.623 20.9248 104.623 19.2584C104.623 17.6117 105.218 16.2001 106.389 14.9846C107.619 13.828 109.047 13.2398 110.713 13.2398C112.399 13.2398 113.848 13.828 115.038 14.9846C116.208 16.2001 116.803 17.6117 116.803 19.2584V25.277V25.277Z" fill="#2C4572"/>
<path d="M142.731 11.4166C140.53 9.2209 137.832 8.12305 134.658 8.12305C132.416 8.12305 130.373 8.71118 128.567 9.86785V8.12305H123.251V29.5704C123.251 29.6881 123.251 29.8057 123.251 29.9233V40.9999H128.607V30.6879H128.667C128.647 30.5507 128.627 30.3938 128.607 30.2566V29.9233H128.587C128.587 29.8057 128.567 29.6881 128.567 29.5704V28.9627C130.432 30.1194 132.456 30.7075 134.658 30.7075C137.812 30.7075 140.49 29.6096 142.731 27.4139C144.973 25.1986 146.104 22.5324 146.104 19.4153C146.104 16.2785 144.973 13.6123 142.731 11.4166ZM139.002 23.5322C137.772 24.6889 136.344 25.277 134.677 25.277H128.587V19.2584C128.587 17.6117 129.182 16.2001 130.353 14.9846C131.543 13.828 132.991 13.2398 134.677 13.2398C136.344 13.2398 137.772 13.828 139.002 14.9846C140.172 16.2001 140.768 17.6117 140.768 19.2584C140.768 20.9248 140.172 22.356 139.002 23.5322Z" fill="#2C4572"/>
<path d="M92.8594 13.3967V30.6879H98.1758V13.3967C97.5014 14.0633 96.5492 14.475 95.5176 14.475C94.4861 14.475 93.5339 14.0633 92.8594 13.3967Z" fill="#2C4572"/>
<path d="M92.8199 8.12305H81.2943C79.3303 8.12305 77.6838 8.7896 76.315 10.1423C74.9264 11.5146 74.2321 13.1614 74.2321 15.0631C74.2321 15.4748 74.2718 15.8668 74.3313 16.2589C74.3709 16.455 74.4106 16.651 74.4503 16.8471C74.7479 18.0233 75.3827 19.0624 76.315 20.0034C77.7037 21.3561 79.37 22.0227 81.2943 22.0227V21.9835H84.7063V22.0227C85.2023 22.0227 85.599 22.1991 85.9164 22.5324C86.2536 22.8461 86.4322 23.2382 86.4322 23.7283C86.4322 24.1792 86.2536 24.5909 85.9164 24.9242C85.599 25.2378 85.4006 25.277 84.9047 25.277H75.6207H74.6487H73.3394C72.288 27.4727 70.6613 29.3352 68.6577 30.6879H80.9769H84.6865C86.6107 30.6879 88.2771 30.0017 89.6657 28.6294C91.0345 27.3159 91.709 25.6887 91.709 23.7479C91.709 21.807 91.0147 20.1406 89.6657 18.8271C88.2771 17.4548 86.6107 16.7687 84.6865 16.7687V16.8079H81.2943V16.7687C80.7983 16.7687 80.4016 16.6118 80.0842 16.2981C79.7469 15.9649 79.5684 15.5532 79.5684 15.1023C79.5684 14.6122 79.7469 14.2201 80.0842 13.9064C80.3817 13.5731 81.076 13.279 81.5918 13.279H92.7207C92.1057 12.6125 91.7288 11.7303 91.7288 10.7697C91.7288 9.71102 92.1454 8.7896 92.8199 8.12305Z" fill="#2C4572"/>
<path d="M48.2051 25.2771H35.0726C34.2394 25.2771 33.803 25.2575 33.069 24.9634C31.6605 24.3557 30.6091 23.3755 29.9148 22.0227H46.8561V19.3761C46.8561 17.9842 46.5586 16.5335 45.9833 15.0631C45.3881 13.6908 44.5748 12.4753 43.4837 11.3971C41.2619 9.20137 38.564 8.10352 35.4098 8.10352C32.2557 8.10352 29.5578 9.20137 27.3359 11.3971C25.0943 13.5928 23.9834 16.259 23.9834 19.3761C23.9834 24.4145 26.3441 27.9041 31.0654 29.8058C32.5532 30.3939 34.0014 30.6684 35.4297 30.6684H52.8867C50.8831 29.3352 49.2565 27.4728 48.2051 25.2771ZM35.4098 13.2595C37.9491 13.2595 39.7939 14.5142 40.9048 16.7491H29.9148C31.0456 14.4946 32.8706 13.2595 35.4098 13.2595Z" fill="#2C4572"/>
<path d="M98.1758 10.7305C98.1758 9.27979 96.9856 8.10352 95.5176 8.10352C94.0496 8.10352 92.8594 9.27979 92.8594 10.7305C92.8594 12.1813 94.0496 13.3575 95.5176 13.3575C96.9856 13.3575 98.1758 12.1813 98.1758 10.7305Z" fill="#2C4572"/>
<path d="M70.126 10.7109C70.2252 10.809 70.3045 10.907 70.4037 11.005C70.3244 10.907 70.2252 10.809 70.126 10.7109Z" fill="url(#paint0_radial_165_4210)"/>
<path d="M57.5488 28.6882C54.9501 28.1197 54.474 29.7272 54.831 30.629C56.6164 31.5505 58.62 32.0602 60.7625 32.0602C65.6227 32.0602 69.8679 29.3744 72.0501 25.4338C70.5622 26.1984 63.4009 29.9625 57.5488 28.6882Z" fill="url(#paint1_radial_165_4210)"/>
<path d="M70.4829 11.0835C70.8995 11.554 71.2566 12.0441 71.5938 12.5734C71.2566 12.0441 70.8797 11.554 70.4829 11.0835Z" fill="url(#paint2_radial_165_4210)"/>
<path d="M71.6138 12.6125C71.6931 12.7498 71.7725 12.8674 71.8518 13.0046C71.7725 12.8674 71.6931 12.7302 71.6138 12.6125Z" fill="url(#paint3_radial_165_4210)"/>
<path d="M71.8716 13.0242C72.189 13.5731 72.4865 14.1612 72.7246 14.7494C72.4865 14.1612 72.189 13.5731 71.8716 13.0242Z" fill="url(#paint4_radial_165_4210)"/>
<path d="M71.5344 23.9832C71.5344 23.9832 70.2847 23.7088 67.2495 22.0228C65.3451 23.1206 63.1432 23.7676 60.7626 23.7676C55.3073 23.7676 50.6653 20.4152 48.8006 15.6709C48.6419 15.8473 48.4832 16.0434 48.3245 16.2394C48.0666 17.2393 47.9277 18.2979 47.9277 19.3762C47.9277 20.278 48.0269 21.1406 48.2055 21.9836C50.0504 19.435 61.1396 28.2962 71.5344 23.9832Z" fill="url(#paint5_radial_165_4210)"/>
<path d="M70.0666 10.6324C70.0468 10.6324 70.0468 10.6128 70.0666 10.6324C70.0468 10.6128 70.0468 10.6128 70.0666 10.6324C70.0468 10.6324 70.0468 10.6128 70.0666 10.6324Z" fill="url(#paint6_radial_165_4210)"/>
<path d="M69.769 20.1016C71.1378 21.0034 72.3876 21.6307 73.3596 21.7875C73.5183 21.0034 73.5977 20.1996 73.5977 19.3566C73.5977 17.7294 73.2803 16.1806 72.7248 14.7495C72.7844 14.9063 72.8439 15.0436 72.9034 15.2004C72.2487 17.0825 71.1577 18.7488 69.769 20.1016Z" fill="url(#paint7_radial_165_4210)"/>
<path d="M71.5938 12.5732C71.5938 12.5928 71.6136 12.5928 71.6136 12.6125C71.6136 12.5928 71.5938 12.5928 71.5938 12.5732Z" fill="url(#paint8_radial_165_4210)"/>
<path d="M71.8521 13.0046C71.8521 13.0046 71.8521 13.0252 71.8724 13.0252C71.8724 13.0252 71.8724 13.0046 71.8521 13.0046Z" fill="url(#paint9_radial_165_4210)"/>
<path d="M70.0664 10.6326C70.0862 10.6522 70.1259 10.6914 70.1458 10.711C70.1061 10.6914 70.0862 10.6522 70.0664 10.6326Z" fill="url(#paint10_radial_165_4210)"/>
<path d="M70.4038 11.0049C70.4236 11.0245 70.4435 11.0637 70.4633 11.0833C70.4633 11.0637 70.4236 11.0441 70.4038 11.0049Z" fill="url(#paint11_radial_165_4210)"/>
<path d="M60.7628 23.7675C63.1235 23.7675 65.3453 23.1401 67.2497 22.0227C64.8692 20.6895 61.3778 18.4546 56.5176 14.769C56.1804 14.5141 52.5302 11.5146 48.8008 15.6512C50.6655 20.3955 55.3075 23.7675 60.7628 23.7675Z" fill="url(#paint12_radial_165_4210)"/>
<path d="M60.7628 23.7675C63.1235 23.7675 65.3453 23.1401 67.2497 22.0227C64.8692 20.6895 61.3778 18.4546 56.5176 14.769C56.1804 14.5141 52.5302 11.5146 48.8008 15.6512C50.6655 20.3955 55.3075 23.7675 60.7628 23.7675Z" fill="url(#paint13_radial_165_4210)"/>
<path d="M68.6186 12.0244C66.615 11.9656 60.4852 6.14305 54.2363 9.82871C54.5934 9.63266 56.3193 9.00531 59.6917 11.5735C60.1678 11.946 65.4842 17.2588 69.789 20.0819C71.1776 18.7292 72.2488 17.0628 72.9035 15.2004C72.844 15.0435 72.7845 14.9063 72.7249 14.7495V14.7298C72.4869 14.1221 72.2092 13.5536 71.8719 13.0046C71.8719 13.0046 71.8719 12.985 71.8521 12.985C71.7727 12.8478 71.6934 12.7302 71.614 12.5929C71.614 12.5733 71.5942 12.5733 71.5942 12.5537C71.257 12.0244 70.8801 11.5343 70.4833 11.0638C70.4635 11.0442 70.4436 11.005 70.4238 10.9854C70.3246 10.8874 70.2452 10.7893 70.1461 10.6913C70.1262 10.6717 70.0866 10.6325 70.0667 10.6129L70.0469 10.5933C70.1461 11.0638 70.1857 12.0832 68.6186 12.0244Z" fill="url(#paint14_radial_165_4210)"/>
<path d="M68.6186 12.0244C66.615 11.9656 60.4852 6.14305 54.2363 9.82871C54.5934 9.63266 56.3193 9.00531 59.6917 11.5735C60.1678 11.946 65.4842 17.2588 69.789 20.0819C71.1776 18.7292 72.2488 17.0628 72.9035 15.2004C72.844 15.0435 72.7845 14.9063 72.7249 14.7495V14.7298C72.4869 14.1221 72.2092 13.5536 71.8719 13.0046C71.8719 13.0046 71.8719 12.985 71.8521 12.985C71.7727 12.8478 71.6934 12.7302 71.614 12.5929C71.614 12.5733 71.5942 12.5733 71.5942 12.5537C71.257 12.0244 70.8801 11.5343 70.4833 11.0638C70.4635 11.0442 70.4436 11.005 70.4238 10.9854C70.3246 10.8874 70.2452 10.7893 70.1461 10.6913C70.1262 10.6717 70.0866 10.6325 70.0667 10.6129L70.0469 10.5933C70.1461 11.0638 70.1857 12.0832 68.6186 12.0244Z" fill="url(#paint15_radial_165_4210)"/>
<path d="M149.188 12.6395V7.50162H151.823C152.034 7.50162 152.264 7.56195 152.513 7.68263C152.762 7.79866 152.973 7.97967 153.147 8.22565C153.326 8.467 153.415 8.77332 153.415 9.14462C153.415 9.52055 153.323 9.8408 153.14 10.1053C152.957 10.3653 152.734 10.5625 152.471 10.6971C152.213 10.8317 151.968 10.899 151.738 10.899H149.836V10.0636H151.386C151.541 10.0636 151.708 9.987 151.886 9.83384C152.069 9.68068 152.161 9.45094 152.161 9.14462C152.161 8.82901 152.069 8.61551 151.886 8.50412C151.708 8.39274 151.55 8.33704 151.414 8.33704H150.329V12.6395H149.188ZM152.33 10.2167L153.626 12.6395H152.372L151.104 10.2167H152.33ZM151.161 15.7027C150.381 15.7027 149.651 15.5588 148.97 15.271C148.289 14.9833 147.69 14.5841 147.173 14.0736C146.657 13.5631 146.253 12.9713 145.962 12.2983C145.67 11.6254 145.525 10.9036 145.525 10.1332C145.525 9.36275 145.67 8.64104 145.962 7.96806C146.253 7.29508 146.657 6.70333 147.173 6.19279C147.69 5.68226 148.289 5.28311 148.97 4.99536C149.651 4.7076 150.381 4.56372 151.161 4.56372C151.94 4.56372 152.67 4.7076 153.351 4.99536C154.032 5.28311 154.631 5.68226 155.148 6.19279C155.664 6.70333 156.068 7.29508 156.359 7.96806C156.651 8.64104 156.796 9.36275 156.796 10.1332C156.796 10.9036 156.651 11.6254 156.359 12.2983C156.068 12.9713 155.664 13.5631 155.148 14.0736C154.631 14.5841 154.032 14.9833 153.351 15.271C152.67 15.5588 151.94 15.7027 151.161 15.7027ZM151.161 14.366C151.95 14.366 152.668 14.1757 153.316 13.7951C153.964 13.4145 154.481 12.904 154.866 12.2635C155.251 11.623 155.444 10.9129 155.444 10.1332C155.444 9.35347 155.251 8.64336 154.866 8.00287C154.481 7.36238 153.964 6.85185 153.316 6.47127C152.668 6.09068 151.95 5.90039 151.161 5.90039C150.372 5.90039 149.653 6.09068 149.005 6.47127C148.357 6.85185 147.84 7.36238 147.455 8.00287C147.07 8.64336 146.877 9.35347 146.877 10.1332C146.877 10.9129 147.07 11.623 147.455 12.2635C147.84 12.904 148.357 13.4145 149.005 13.7951C149.653 14.1757 150.372 14.366 151.161 14.366Z" fill="#2B436E"/>
<defs>
<radialGradient id="paint0_radial_165_4210" cx="0" cy="0" r="1" gradientUnits="userSpaceOnUse" gradientTransform="translate(60.7633 19.3765) scale(12.8356 12.6848)">
<stop offset="0.5" stop-color="#207CAD"/>
<stop offset="1" stop-color="#2C4572"/>
</radialGradient>
<radialGradient id="paint1_radial_165_4210" cx="0" cy="0" r="1" gradientUnits="userSpaceOnUse" gradientTransform="translate(60.7626 19.3764) scale(12.8364 12.6856)">
<stop offset="0.5" stop-color="#207CAD"/>
<stop offset="1" stop-color="#2C4572"/>
</radialGradient>
<radialGradient id="paint2_radial_165_4210" cx="0" cy="0" r="1" gradientUnits="userSpaceOnUse" gradientTransform="translate(60.7618 19.3769) scale(12.837 12.6862)">
<stop offset="0.5" stop-color="#207CAD"/>
<stop offset="1" stop-color="#2C4572"/>
</radialGradient>
<radialGradient id="paint3_radial_165_4210" cx="0" cy="0" r="1" gradientUnits="userSpaceOnUse" gradientTransform="translate(60.763 19.3769) scale(12.8361 12.6856)">
<stop offset="0.5" stop-color="#207CAD"/>
<stop offset="1" stop-color="#2C4572"/>
</radialGradient>
<radialGradient id="paint4_radial_165_4210" cx="0" cy="0" r="1" gradientUnits="userSpaceOnUse" gradientTransform="translate(60.7633 19.3769) scale(12.8356 12.6848)">
<stop offset="0.5" stop-color="#207CAD"/>
<stop offset="1" stop-color="#2C4572"/>
</radialGradient>
<radialGradient id="paint5_radial_165_4210" cx="0" cy="0" r="1" gradientUnits="userSpaceOnUse" gradientTransform="translate(60.7629 19.3767) scale(12.8361 12.6853)">
<stop offset="0.5" stop-color="#207CAD"/>
<stop offset="1" stop-color="#2C4572"/>
</radialGradient>
<radialGradient id="paint6_radial_165_4210" cx="0" cy="0" r="1" gradientUnits="userSpaceOnUse" gradientTransform="translate(60.7884 19.3913) scale(12.8279 12.6772)">
<stop offset="0.5" stop-color="#207CAD"/>
<stop offset="1" stop-color="#2C4572"/>
</radialGradient>
<radialGradient id="paint7_radial_165_4210" cx="0" cy="0" r="1" gradientUnits="userSpaceOnUse" gradientTransform="translate(60.7631 19.3768) scale(12.8359 12.6851)">
<stop offset="0.5" stop-color="#207CAD"/>
<stop offset="1" stop-color="#2C4572"/>
</radialGradient>
<radialGradient id="paint8_radial_165_4210" cx="0" cy="0" r="1" gradientUnits="userSpaceOnUse" gradientTransform="translate(60.7518 11.0729) scale(12.8489 12.697)">
<stop stop-color="white" stop-opacity="0.65"/>
<stop offset="0.65" stop-color="white" stop-opacity="0.1"/>
</radialGradient>
<radialGradient id="paint9_radial_165_4210" cx="0" cy="0" r="1" gradientUnits="userSpaceOnUse" gradientTransform="translate(60.5521 10.979) scale(13.083 13.2242)">
<stop stop-color="white" stop-opacity="0.65"/>
<stop offset="0.65" stop-color="white" stop-opacity="0.1"/>
</radialGradient>
<radialGradient id="paint10_radial_165_4210" cx="0" cy="0" r="1" gradientUnits="userSpaceOnUse" gradientTransform="translate(60.7539 11.0738) scale(12.8483 12.6977)">
<stop stop-color="white" stop-opacity="0.65"/>
<stop offset="0.65" stop-color="white" stop-opacity="0.1"/>
</radialGradient>
<radialGradient id="paint11_radial_165_4210" cx="0" cy="0" r="1" gradientUnits="userSpaceOnUse" gradientTransform="translate(60.7705 11.0733) scale(12.8261 12.6757)">
<stop stop-color="white" stop-opacity="0.65"/>
<stop offset="0.65" stop-color="white" stop-opacity="0.1"/>
</radialGradient>
<radialGradient id="paint12_radial_165_4210" cx="0" cy="0" r="1" gradientUnits="userSpaceOnUse" gradientTransform="translate(60.763 19.3766) scale(12.836 12.6852)">
<stop offset="0.5" stop-color="#207CAD"/>
<stop offset="1" stop-color="#2C4572"/>
</radialGradient>
<radialGradient id="paint13_radial_165_4210" cx="0" cy="0" r="1" gradientUnits="userSpaceOnUse" gradientTransform="translate(60.763 11.0735) scale(12.8361 12.6853)">
<stop stop-color="white" stop-opacity="0.65"/>
<stop offset="0.65" stop-color="white" stop-opacity="0.1"/>
</radialGradient>
<radialGradient id="paint14_radial_165_4210" cx="0" cy="0" r="1" gradientUnits="userSpaceOnUse" gradientTransform="translate(60.763 19.3767) scale(12.8362 12.6854)">
<stop offset="0.5" stop-color="#207CAD"/>
<stop offset="1" stop-color="#2C4572"/>
</radialGradient>
<radialGradient id="paint15_radial_165_4210" cx="0" cy="0" r="1" gradientUnits="userSpaceOnUse" gradientTransform="translate(60.763 11.0735) scale(12.8363 12.6855)">
<stop stop-color="white" stop-opacity="0.65"/>
<stop offset="0.65" stop-color="white" stop-opacity="0.1"/>
</radialGradient>
</defs>
</svg>
