<svg xmlns="http://www.w3.org/2000/svg" width="183" height="250" viewBox="0 0 183 250" fill="none">
  <g clip-path="url(#clip0_2437_5056)">
    <g opacity="0.9">
      <path opacity="0.9" d="M112.165 123.238C112.675 121.96 113.546 120.858 114.672 120.068C115.799 119.277 117.131 118.832 118.507 118.786H171.403C174.571 118.786 176.713 121.354 176.203 124.528L159.469 224.434C159.173 226.014 158.349 227.446 157.13 228.494C155.912 229.543 154.373 230.144 152.767 230.2H20.1305C19.4083 230.228 18.6893 230.09 18.0288 229.797C17.3683 229.503 16.7838 229.063 16.3202 228.508C15.8567 227.954 15.5265 227.3 15.3549 226.598C15.1833 225.896 15.175 225.164 15.3305 224.458L29.5565 139.408C29.8575 137.833 30.6846 136.407 31.9023 135.364C33.12 134.321 34.656 133.722 36.2585 133.666H97.3505C103.603 133.642 109.741 129.328 112.165 123.238Z" fill="#9C9C9C"/>
    </g>
    <path opacity="0.5" d="M112.165 123.238C112.675 121.96 113.546 120.858 114.672 120.068C115.799 119.277 117.131 118.832 118.507 118.786H171.403C174.571 118.786 176.713 121.354 176.203 124.528L159.469 224.434C159.173 226.014 158.349 227.446 157.13 228.494C155.912 229.543 154.373 230.144 152.767 230.2H20.1305C19.4083 230.228 18.6893 230.09 18.0288 229.797C17.3683 229.503 16.7838 229.063 16.3202 228.508C15.8567 227.954 15.5265 227.3 15.3549 226.598C15.1833 225.896 15.175 225.164 15.3305 224.458L29.5565 139.408C29.8575 137.833 30.6846 136.407 31.9023 135.364C33.12 134.321 34.656 133.722 36.2585 133.666H97.3505C103.603 133.642 109.741 129.328 112.165 123.238Z" fill="white"/>
    <path opacity="0.9" d="M91.11 34.5342L51.084 173.614L142.644 199.96L182.664 60.8802L91.11 34.5342Z" fill="#9C9C9C"/>
    <path opacity="0.7" d="M91.11 34.5342L51.084 173.614L142.644 199.96L182.664 60.8802L91.11 34.5342Z" fill="white"/>
    <g style="mix-blend-mode:multiply" opacity="0.9">
      <path d="M89.334 40.6963L51.084 173.614L139.53 199.066L175.38 61.4983L89.334 40.6963Z" fill="#9C9C9C"/>
    </g>
    <path opacity="0.6" d="M89.334 40.6963L51.084 173.614L139.53 199.066L175.38 61.4983L89.334 40.6963Z" fill="#9C9C9C"/>
    <g opacity="0.9">
      <g style="mix-blend-mode:multiply" opacity="0.9">
        <path d="M89.334 40.6963L51.084 173.614L139.53 199.066L175.38 61.4983L89.334 40.6963Z" fill="white"/>
      </g>
      <path opacity="0.6" d="M89.334 40.6963L51.084 173.614L139.53 199.066L175.38 61.4983L89.334 40.6963Z" fill="white"/>
    </g>
    <path d="M121.755 78.3515C127.756 71.4894 127.058 61.0617 120.196 55.0606C113.334 49.0596 102.906 49.7577 96.9049 56.6199C90.9038 63.482 91.6019 73.9097 98.4641 79.9107C105.326 85.9118 115.754 85.2137 121.755 78.3515Z" fill="#9C9C9C"/>
    <path d="M105.708 80.038C103.223 79.3201 101.007 77.8815 99.3395 75.9042C97.6721 73.9269 96.6283 71.4996 96.3402 68.9292C96.0521 66.3588 96.5325 63.7607 97.7207 61.4633C98.9089 59.1659 100.752 57.2723 103.016 56.022C105.28 54.7716 107.864 54.2206 110.441 54.4386C113.019 54.6567 115.473 55.6339 117.495 57.2468C119.517 58.8598 121.016 61.0359 121.801 63.5003C122.587 65.9647 122.624 68.6066 121.908 71.0921C121.433 72.744 120.637 74.2861 119.565 75.6301C118.494 76.974 117.168 78.0935 115.663 78.9244C114.158 79.7553 112.505 80.2814 110.796 80.4725C109.088 80.6636 107.359 80.5159 105.708 80.038Z" fill="white"/>
    <path d="M115.696 93.8116L86.5537 85.4277L84.6692 91.9781L113.811 100.362L115.696 93.8116Z" fill="#9C9C9C"/>
    <path d="M86.7627 145.169L70.6982 140.547L63.3727 166.011L79.4372 170.632L86.7627 145.169Z" fill="#9C9C9C"/>
    <path d="M143.607 161.525L127.543 156.904L120.217 182.367L136.282 186.989L143.607 161.525Z" fill="#9C9C9C"/>
    <path d="M115.182 153.35L99.1172 148.729L91.7917 174.192L107.856 178.813L115.182 153.35Z" fill="#9C9C9C"/>
    <path d="M139.244 100.581L119.529 94.9097L117.645 101.46L137.359 107.132L139.244 100.581Z" fill="#9C9C9C"/>
    <path d="M154.599 120.41L82.459 99.6562L81.6826 102.355L153.823 123.109L154.599 120.41Z" fill="white"/>
    <path d="M116.681 115.71L80.8096 105.39L80.0332 108.089L115.904 118.408L116.681 115.71Z" fill="white"/>
    <path d="M146.809 124.378L122.816 117.476L122.04 120.174L146.033 127.077L146.809 124.378Z" fill="white"/>
    <path d="M136.826 127.71L79.1592 111.12L78.3828 113.818L136.05 130.408L136.826 127.71Z" fill="white"/>
    <path d="M143.068 136.523L76.8506 117.209L76.0643 119.905L142.281 139.218L143.068 136.523Z" fill="white"/>
    <path d="M83.5148 124.794L75.8574 122.591L75.0811 125.289L82.7385 127.492L83.5148 124.794Z" fill="white"/>
    <path d="M123.496 136.297L89.6602 126.563L88.8838 129.262L122.719 138.996L123.496 136.297Z" fill="white"/>
    <path d="M146.351 149.082L74.2109 128.328L73.4346 131.026L145.575 151.78L146.351 149.082Z" fill="white"/>
    <path d="M80.4546 39.4004L45.2646 179.8L137.665 202.966L172.849 62.5664L80.4546 39.4004Z" fill="#9C9C9C"/>
    <path opacity="0.8" d="M80.4546 39.4004L45.2646 179.8L137.665 202.966L172.849 62.5664L80.4546 39.4004Z" fill="white"/>
    <path d="M106.979 86.5154C115.188 82.5507 118.629 72.6822 114.664 64.4735C110.699 56.2648 100.831 52.8243 92.6219 56.789C84.4132 60.7537 80.9728 70.6222 84.9375 78.8309C88.9022 87.0396 98.7707 90.4801 106.979 86.5154Z" fill="#9C9C9C"/>
    <path d="M112.656 74.0193C113.956 66.9134 109.25 60.0988 102.144 58.7985C95.0377 57.4982 88.2231 62.2045 86.9228 69.3104C85.6225 76.4163 90.3288 83.2309 97.4347 84.5312C104.541 85.8315 111.355 81.1252 112.656 74.0193Z" fill="white"/>
    <path d="M107.076 97.7768L77.6621 90.4048L76.0051 97.0163L105.419 104.388L107.076 97.7768Z" fill="#9C9C9C"/>
    <path d="M79.9342 150.105L63.7197 146.042L57.2784 171.743L73.4929 175.806L79.9342 150.105Z" fill="#9C9C9C"/>
    <path d="M137.302 164.486L121.088 160.422L114.647 186.123L130.861 190.187L137.302 164.486Z" fill="#9C9C9C"/>
    <path d="M108.621 157.295L92.4062 153.231L85.9649 178.933L102.179 182.996L108.621 157.295Z" fill="#9C9C9C"/>
    <path d="M130.837 103.729L110.938 98.7422L109.281 105.354L129.18 110.341L130.837 103.729Z" fill="#9C9C9C"/>
    <path d="M146.871 123.014L74.0566 104.765L73.374 107.488L146.188 125.737L146.871 123.014Z" fill="white"/>
    <path d="M108.816 119.624L72.6094 110.55L71.9267 113.274L108.133 122.348L108.816 119.624Z" fill="white"/>
    <path d="M139.225 127.244L115.008 121.174L114.325 123.898L138.542 129.967L139.225 127.244Z" fill="white"/>
    <path d="M129.362 130.925L71.1562 116.337L70.4736 119.061L128.679 133.649L129.362 130.925Z" fill="white"/>
    <path d="M136.618 138.898L69.7109 122.13L69.0283 124.854L135.935 141.622L136.618 138.898Z" fill="white"/>
    <path d="M75.9848 129.86L68.2559 127.923L67.5732 130.647L75.3022 132.584L75.9848 129.86Z" fill="white"/>
    <path d="M116.34 139.967L82.1885 131.407L81.5058 134.131L115.658 142.69L116.34 139.967Z" fill="white"/>
    <path d="M139.621 151.954L66.8066 133.705L66.124 136.428L138.938 154.677L139.621 151.954Z" fill="white"/>
    <path opacity="0.5" d="M76.8363 144.094C76.9503 141.844 78.9183 140.254 81.5943 140.254H134.496C137.664 140.254 140.718 142.468 141.318 145.204L157.2 225.22C157.8 227.956 155.712 230.176 152.544 230.176H19.8903C16.7163 230.176 13.6623 227.956 13.0623 225.22L0.000253662 158.026C-0.599746 155.29 1.48825 153.07 4.66225 153.07H65.7303C72.0003 153.07 76.5843 149.35 76.8363 144.094Z" fill="#9C9C9C"/>
  </g>
  <defs>
    <clipPath id="clip0_2437_5056">
      <rect width="183" height="250" fill="white"/>
    </clipPath>
  </defs>
</svg>