<svg width="400" height="230" viewBox="0 0 400 230" fill="none" xmlns="http://www.w3.org/2000/svg">
<path d="M385.6 135.323L382.288 129.557L377.109 130.32L372.842 124.944L375.045 119.611L369.269 115.776L364.954 120.123L359.274 119.131L356.976 112.448L350.069 113.179L349.68 119.019L344.533 121.6L339.088 117.744L333.562 121.771L336.432 127.952L333.146 132.907L327.178 132.587L325.616 139.952L331.296 142.139L331.786 148.325L325.92 151.712L328.736 158.112L334.832 157.163L338.869 161.824L336.736 167.637L342.32 171.579L346.677 166.864L352.725 168.501L354.608 174.741L361.328 174.288L362.192 168.683L367.957 165.376L372.672 169.136L378.634 164.693L375.61 159.467L378.549 154.203L384.597 154.645L386.448 147.792L381.258 144.987L380.57 138.741L385.6 135.323ZM362.186 155.488C359.856 156.825 357.182 157.442 354.501 157.259C351.821 157.077 349.255 156.104 347.128 154.463C345 152.822 343.407 150.587 342.55 148.041C341.693 145.495 341.61 142.751 342.312 140.158C343.014 137.565 344.469 135.238 346.493 133.471C348.517 131.705 351.02 130.579 353.685 130.235C356.349 129.891 359.056 130.344 361.462 131.539C363.869 132.733 365.868 134.614 367.205 136.944C368.997 140.069 369.475 143.778 368.534 147.255C367.593 150.732 365.31 153.693 362.186 155.488Z" fill="#F5F5F5"/>
<path d="M70.8532 203.371C81.0719 194.539 82.0959 180.005 80.3359 167.211C80.0425 165.077 80.0425 162.795 78.8319 161.019C77.6212 159.243 75.0985 158.208 73.2799 159.307C71.7652 160.219 71.2639 162.144 70.5332 163.765C69.557 165.935 67.9872 167.784 66.0052 169.099C64.7092 169.947 63.0665 170.555 61.6425 169.952C59.6905 169.12 59.2105 166.592 58.9759 164.459L57.8505 152.533C57.6425 150.4 57.4239 148.229 56.5545 146.272C55.6852 144.315 54.0212 142.592 51.9359 142.235C49.8505 141.877 47.4665 143.301 47.2532 145.435C47.1625 146.325 47.4345 147.205 47.4665 148.101C47.4985 148.997 47.1892 150.016 46.3999 150.347C45.6105 150.677 44.6612 150.171 43.9572 149.611C41.5359 147.685 39.7599 145.067 38.0905 142.453C36.4212 139.84 34.7679 137.163 32.5279 135.019C30.2879 132.875 27.3385 131.285 24.2665 131.445C21.1945 131.605 18.1385 133.808 17.6799 136.885C17.2212 139.963 19.2799 142.832 21.4399 145.067C24.6408 148.385 28.3055 151.221 32.3199 153.488C33.0399 153.893 33.8185 154.336 34.1599 155.088C34.7679 156.459 33.5679 158.011 32.2132 158.624C30.6772 159.312 28.9385 159.328 27.2959 159.691C25.6532 160.053 23.9305 160.976 23.4665 162.608C22.8159 164.88 24.8745 166.971 26.8212 168.283C30.728 170.909 35.058 172.843 39.6212 174C41.2212 174.411 42.9492 174.747 44.3252 175.717C45.7012 176.688 46.6612 178.523 46.0532 180.101C45.4452 181.68 43.5359 182.368 41.8612 182.235C40.1865 182.101 38.6292 181.36 37.0025 180.933C33.9572 180.128 30.1972 180.72 28.5812 183.445C27.5145 185.237 27.6532 187.563 28.4799 189.483C29.3065 191.403 30.7465 192.981 32.2559 194.416C37.5145 199.44 43.9892 203.253 51.0185 204.907C58.0479 206.56 64.4159 206.549 70.9119 203.387" fill="#F5F5F5"/>
<path d="M71.9997 212.869C70.7926 206.978 69.0209 201.216 66.709 195.664C63.8567 188.892 60.6175 182.289 57.0077 175.888C56.0584 174.181 55.1215 172.498 54.197 170.837C53.2744 169.179 52.357 167.536 51.3597 165.984C49.4391 163.011 47.356 160.146 45.1197 157.403C42.9864 154.768 40.8957 152.341 38.9117 150.091C36.9277 147.84 35.0237 145.781 33.221 144C30.382 141.133 27.3219 138.494 24.069 136.107C22.917 135.269 22.005 134.645 21.4024 134.229C21.1037 134.032 20.869 133.877 20.6877 133.765C20.6105 133.708 20.5284 133.658 20.4424 133.616C20.5094 133.685 20.5846 133.746 20.6664 133.797L21.3597 134.293C21.9677 134.731 22.8637 135.36 24.0264 136.235C27.2424 138.654 30.2731 141.31 33.093 144.181C34.8797 145.989 36.7624 148.059 38.7357 150.309C40.709 152.56 42.7997 154.997 44.9064 157.632C47.1264 160.372 49.1952 163.232 51.1037 166.197C52.0904 167.739 53.0024 169.371 53.9304 171.029C54.8584 172.688 55.7864 174.379 56.7357 176.08C60.3374 182.471 63.578 189.059 66.4424 195.813C68.754 201.34 70.5397 207.072 71.7757 212.933" fill="#E0E0E0"/>
<path d="M51.2427 165.984C51.3164 165.678 51.3558 165.365 51.36 165.051C51.4134 164.453 51.456 163.579 51.4987 162.501C51.5787 160.368 51.5894 157.376 51.5947 154.091C51.6 150.805 51.648 147.84 51.7654 145.696C51.8187 144.629 51.872 143.755 51.9147 143.152C51.9509 142.842 51.9509 142.529 51.9147 142.219C51.8236 142.517 51.7647 142.825 51.7387 143.136C51.648 143.733 51.552 144.603 51.4667 145.675C51.2747 147.808 51.1787 150.805 51.1787 154.091C51.1787 157.376 51.1787 160.256 51.1787 162.496C51.1787 163.509 51.1787 164.363 51.1787 165.045C51.1674 165.36 51.1889 165.674 51.2427 165.984Z" fill="#E0E0E0"/>
<path d="M23.3174 163.685C23.6861 163.725 24.058 163.725 24.4267 163.685C25.136 163.685 26.16 163.653 27.4294 163.685C29.968 163.685 33.472 163.84 37.3334 164.16C41.1947 164.48 44.6721 164.939 47.1787 165.333C48.4374 165.525 49.4507 165.701 50.1494 165.824C50.4998 165.907 50.8567 165.958 51.216 165.979C50.8721 165.84 50.5146 165.738 50.1494 165.675C49.456 165.504 48.448 165.28 47.1947 165.056C44.688 164.587 41.2054 164.096 37.3334 163.765C34.0297 163.475 30.7134 163.354 27.3974 163.403C26.1227 163.403 25.0934 163.488 24.384 163.547C24.0253 163.563 23.6685 163.61 23.3174 163.685Z" fill="#E0E0E0"/>
<path d="M66.3198 195.2C66.3853 195.089 66.4373 194.971 66.4745 194.848C66.5705 194.565 66.6932 194.224 66.8372 193.808C67.1518 192.901 67.5732 191.584 68.0692 189.947C69.0718 186.672 70.3038 182.101 71.5998 177.045C72.8958 171.989 74.0905 167.413 75.0185 164.123C75.4772 162.523 75.8505 161.205 76.1278 160.229C76.2505 159.803 76.3465 159.451 76.4265 159.163C76.4722 159.041 76.4974 158.913 76.5012 158.784C76.4387 158.897 76.3886 159.017 76.3518 159.141C76.2505 159.424 76.1278 159.765 75.9838 160.181C75.6692 161.083 75.2478 162.405 74.7518 164.043C73.7545 167.317 72.5172 171.883 71.2212 176.944C69.9252 182.005 68.7305 186.576 67.8025 189.867C67.3492 191.467 66.9705 192.784 66.6932 193.76L66.3998 194.827C66.3587 194.947 66.3318 195.073 66.3198 195.2Z" fill="#E0E0E0"/>
<path d="M28.7041 187.2C28.8219 187.257 28.9479 187.294 29.0774 187.312L30.1761 187.557L34.2028 188.421C37.6054 189.147 42.2934 190.208 47.4668 191.387C52.6401 192.565 57.3494 193.579 60.7681 194.235C62.4748 194.565 63.8614 194.821 64.8214 194.976L65.9308 195.147C66.0585 195.175 66.1895 195.186 66.3201 195.179C66.199 195.126 66.0718 195.088 65.9414 195.067L64.8748 194.821L60.8001 193.979C57.3974 193.248 52.7094 192.192 47.5308 191.013C42.3521 189.835 37.6748 188.8 34.2561 188.16C32.5494 187.829 31.1628 187.579 30.2028 187.424L29.0934 187.248C28.9658 187.218 28.8353 187.201 28.7041 187.2Z" fill="#E0E0E0"/>
<path d="M313.018 114.827C313.563 114.451 314.08 114.038 314.565 113.589C315.119 113.049 315.588 112.429 315.957 111.749C316.862 110.132 317.175 108.25 316.842 106.426C316.51 104.603 315.551 102.953 314.133 101.76C313.552 101.26 312.897 100.854 312.192 100.555C311.463 100.229 310.687 100.022 309.893 99.9413C308.215 99.7484 306.52 100.098 305.055 100.939C303.591 101.779 302.434 103.067 301.754 104.613C301.118 106.051 300.92 107.645 301.184 109.195C301.428 110.596 302.041 111.907 302.96 112.992C303.693 113.853 304.6 114.549 305.621 115.035C306.642 115.522 307.754 115.787 308.885 115.813C309.659 115.838 310.432 115.747 311.178 115.541C311.813 115.352 312.432 115.113 313.029 114.827C313.029 114.827 312.997 114.859 312.922 114.901L312.581 115.088C312.401 115.194 312.212 115.284 312.016 115.355C311.755 115.471 311.486 115.567 311.21 115.643C310.457 115.872 309.672 115.981 308.885 115.968C307.725 115.959 306.581 115.703 305.528 115.215C304.476 114.728 303.54 114.02 302.784 113.141C301.829 112.029 301.19 110.681 300.933 109.237C300.79 108.46 300.766 107.665 300.864 106.88C300.947 106.059 301.163 105.258 301.504 104.507C302.203 102.904 303.4 101.57 304.916 100.7C306.433 99.8295 308.189 99.4701 309.925 99.6746C311.537 99.8578 313.059 100.515 314.298 101.563C315.417 102.512 316.26 103.744 316.741 105.131C317.115 106.228 317.252 107.392 317.143 108.545C317.033 109.699 316.68 110.817 316.106 111.824C315.721 112.51 315.23 113.131 314.65 113.664C314.447 113.859 314.227 114.038 313.994 114.197C313.829 114.333 313.651 114.451 313.461 114.549L313.13 114.747C313.066 114.811 313.024 114.832 313.018 114.827Z" fill="#E0E0E0"/>
<path d="M326.933 102.837L326.752 102.971L326.219 103.36L323.995 104.896V104.853C324.112 105.861 324.256 107.109 324.421 108.587L324.389 108.539L327.483 110.203H327.531V110.256C327.205 111.483 326.837 112.859 326.464 114.331V114.4H326.4L322.805 114.144L322.891 114.096L321.067 117.227V117.131C321.627 118.096 322.235 119.157 322.864 120.251L322.912 120.331L322.837 120.384L319.296 123.051L319.232 123.099L319.163 123.045L316.357 120.811H316.485L313.061 122.784L313.12 122.699C312.965 123.728 312.789 124.869 312.587 126.032V126.128H312.533L308.539 126.405H308.437L308.405 126.309L307.285 122.576L307.376 122.667L303.781 121.696L303.915 121.659L301.323 124.459L301.243 124.549L301.147 124.48L297.824 122.139L297.739 122.075L297.776 121.979C298.171 120.912 298.597 119.712 299.029 118.523L299.056 118.661L296.656 115.888L296.779 115.936L293.157 116.501H293.051L293.008 116.4C292.475 115.2 291.904 113.904 291.333 112.608L291.28 112.491L291.392 112.427L291.467 112.384C292.613 111.728 293.76 111.072 294.891 110.416L294.821 110.549C294.725 109.312 294.629 108.085 294.533 106.869L294.624 106.987L291.2 105.728L291.093 105.685V105.573C291.41 104.098 291.719 102.638 292.021 101.195V101.083H292.139L295.685 101.269L295.568 101.333L297.525 98.3893V98.5173C296.944 97.2693 296.379 96.048 295.819 94.8373L295.776 94.7413L295.861 94.6827L299.147 92.2933L299.221 92.24L299.296 92.288L302.528 94.5867H302.405L305.461 93.0347L305.397 93.136C305.477 91.9413 305.557 90.7893 305.632 89.6587V89.5626H305.728L309.829 89.136H309.92V89.2213L311.285 93.1947L311.205 93.1253L314.581 93.7226H314.491L317.061 91.1466L317.115 91.0933L317.179 91.1306L320.608 93.4187L320.661 93.456V93.52C320.165 94.7147 319.739 95.7387 319.344 96.72V96.6453L321.877 99.8453H321.824L324.907 99.408H324.933V99.4347L326.4 102.043L326.752 102.677C326.832 102.816 326.864 102.88 326.864 102.88C326.864 102.88 326.816 102.811 326.731 102.672C326.645 102.533 326.523 102.315 326.357 102.043L324.859 99.4773H324.901L321.824 99.9413H321.792V99.9146L319.237 96.7146V96.6827V96.64C319.632 95.6853 320.048 94.656 320.539 93.44L320.571 93.536L317.131 91.2693H317.243C316.443 92.0853 315.605 92.9333 314.683 93.8613L314.651 93.8986H314.597L311.264 93.3333H311.205V93.2747C310.763 92.0053 310.309 90.688 309.829 89.3013L309.947 89.376L305.84 89.8133L305.947 89.7066C305.872 90.8373 305.797 91.9893 305.717 93.184V93.248L305.659 93.28L302.603 94.8373L302.533 94.8693L302.475 94.8267L299.2 92.5013H299.349L296.069 94.896L296.112 94.736L297.819 98.4107L297.851 98.48L297.808 98.5386L295.856 101.488L295.813 101.552H295.739L292.187 101.365L292.325 101.259C292.019 102.699 291.712 104.158 291.403 105.637L291.317 105.477L294.693 106.779L294.773 106.811V106.896C294.869 108.112 294.965 109.339 295.061 110.576V110.661L294.981 110.709L291.557 112.672L291.483 112.72L291.541 112.544L293.211 116.336L293.067 116.256L296.688 115.696H296.763L296.816 115.749C297.643 116.704 298.459 117.653 299.216 118.523L299.269 118.587V118.661C298.832 119.851 298.405 121.029 298.011 122.112L297.963 121.957L301.28 124.304H301.104L303.696 121.504L303.749 121.445H303.829L307.424 122.421H307.493V122.491C307.877 123.781 308.261 125.051 308.608 126.224L308.48 126.133L312.475 125.867L312.363 125.973C312.544 124.811 312.72 123.669 312.896 122.64V122.581L312.944 122.555L316.373 120.592L316.437 120.555L316.501 120.603L319.301 122.843H319.168L322.715 120.208V120.341C322.085 119.275 321.477 118.208 320.928 117.216L320.901 117.168L320.928 117.12L322.677 113.995L322.709 113.947H322.763L326.357 114.219L326.272 114.277C326.672 112.805 327.051 111.435 327.387 110.208L327.419 110.288L324.341 108.608V108.576L323.947 104.843V104.816L326.181 103.333L326.757 102.955L326.933 102.837Z" fill="#E0E0E0"/>
<path d="M370.88 214.224C370.88 214.304 294.907 214.363 201.211 214.363C107.515 214.363 31.5254 214.304 31.5254 214.224C31.5254 214.144 107.483 214.085 201.211 214.085C294.939 214.085 370.88 214.149 370.88 214.224Z" fill="#263238"/>
<path d="M356.539 140.741L327.206 214.112H244.8L270.987 139.733C271.08 139.47 271.251 139.242 271.479 139.081C271.706 138.92 271.978 138.833 272.256 138.832L355.286 138.885C355.507 138.885 355.725 138.939 355.92 139.042C356.116 139.146 356.283 139.296 356.407 139.479C356.53 139.663 356.607 139.874 356.63 140.094C356.653 140.314 356.622 140.536 356.539 140.741Z" fill="#263238"/>
<path d="M352 142.859L325.072 208.592C325.014 208.733 324.914 208.854 324.787 208.938C324.66 209.023 324.51 209.068 324.357 209.067H249.323C249.201 209.069 249.08 209.042 248.971 208.988C248.862 208.934 248.768 208.854 248.697 208.756C248.626 208.657 248.579 208.543 248.562 208.422C248.545 208.302 248.557 208.179 248.597 208.064L272.475 142.331C272.528 142.183 272.626 142.056 272.755 141.966C272.884 141.876 273.038 141.829 273.195 141.829H351.307C351.429 141.83 351.549 141.861 351.657 141.919C351.764 141.977 351.856 142.06 351.925 142.161C351.993 142.263 352.035 142.379 352.049 142.501C352.062 142.622 352.045 142.745 352 142.859Z" fill="#455A64"/>
<path d="M327.189 214.229H326.459H215.243V209.067H324.149L327.189 214.229Z" fill="#263238"/>
<path d="M242.192 143.589C242.192 143.589 239.936 170.405 235.077 171.712C221.851 175.264 206.72 172.635 201.408 171.589C200.811 171.056 200.123 170.459 199.344 169.691C198.685 169.023 198.144 168.247 197.744 167.397C197.191 166.357 196.784 165.247 196.533 164.096C196.405 163.029 195.067 162.656 194.592 163.515C194.117 164.373 193.92 167.653 195.701 170.64C195.78 170.828 195.816 171.031 195.808 171.234C195.801 171.438 195.749 171.637 195.656 171.819C195.564 172 195.434 172.159 195.274 172.286C195.114 172.412 194.929 172.502 194.731 172.549C192.485 173.381 184.571 175.84 183.291 176.443C182.155 176.976 181.056 177.947 182.251 178.144C183.445 178.341 189.984 177.397 189.984 177.397C189.984 177.397 181.392 178.464 181.605 179.701C181.749 180.56 184.064 180.971 189.675 179.701C189.675 179.701 182.603 180.624 181.867 181.365C180.197 183.04 188.715 182.011 188.715 182.011C182.752 182.784 182.816 182.475 182.752 183.291C182.704 183.904 184.053 184.149 187.328 184.187C189.995 184.219 192.725 184.784 196.768 185.056C196.768 185.056 247.888 199.515 254.901 177.019C258.693 164.891 258.715 160.277 260.027 152.331" fill="#FFBE9D"/>
<path d="M192.294 181.632C192.294 181.781 190.496 182.096 188.23 182.331C185.963 182.565 184.118 182.64 184.112 182.485C184.107 182.331 185.92 182.021 188.176 181.787C190.432 181.552 192.272 181.483 192.294 181.632Z" fill="#A36957"/>
<path d="M192.24 179.312C192.24 179.461 190.342 179.904 187.974 180.299C185.606 180.693 183.622 180.896 183.595 180.752C183.568 180.608 185.488 180.16 187.862 179.76C190.235 179.36 192.214 179.163 192.24 179.312Z" fill="#A36957"/>
<path d="M192.166 176.901C192.192 177.05 190.384 177.498 188.128 177.904C185.872 178.309 184.016 178.517 183.99 178.373C183.963 178.229 185.771 177.77 188.027 177.365C190.283 176.96 192.139 176.752 192.166 176.901Z" fill="#A36957"/>
<path d="M308.533 189.36L311.856 208.715H260.021L262.005 193.675L308.533 189.36Z" fill="#263238"/>
<path d="M247.467 122.885C247.467 122.885 239.931 145.515 240.416 146.416L256.997 150.261L247.467 122.885Z" fill="#4285F4"/>
<path opacity="0.2" d="M247.467 122.885C247.467 122.885 239.931 145.515 240.416 146.416L256.997 150.261L247.467 122.885Z" fill="black"/>
<path d="M261.648 165.392L260.048 197.781L310.123 192.112L302.288 160.805C302.288 160.805 296.902 124.507 287.083 120.485C283.68 119.164 280.202 118.044 276.667 117.131C270.412 115.355 263.862 114.869 257.414 115.701L256.406 115.835C254.405 116.055 252.506 116.832 250.926 118.079C249.346 119.326 248.147 120.991 247.467 122.885C247.467 122.885 247.291 134.032 250.715 141.413L261.648 165.392Z" fill="#4285F4"/>
<path d="M273.504 208.101C273.43 208.101 273.318 205.472 273.259 202.235C273.2 198.997 273.211 196.368 273.259 196.368C273.307 196.368 273.451 199.003 273.51 202.235C273.568 205.467 273.6 208.101 273.504 208.101Z" fill="#455A64"/>
<path d="M276.267 197.818C276.267 197.818 276.32 197.733 276.485 197.674C276.635 197.633 276.792 197.626 276.944 197.656C277.096 197.686 277.239 197.752 277.361 197.847C277.483 197.943 277.581 198.066 277.646 198.206C277.712 198.347 277.744 198.501 277.739 198.656C277.733 198.891 277.656 199.119 277.518 199.309C277.38 199.5 277.187 199.644 276.965 199.722C276.744 199.786 276.509 199.787 276.286 199.724C276.064 199.662 275.864 199.54 275.707 199.37C275.583 199.236 275.491 199.074 275.438 198.899C275.386 198.723 275.373 198.538 275.403 198.357C275.515 197.738 275.893 197.53 275.899 197.562C275.744 197.811 275.643 198.089 275.6 198.378C275.587 198.541 275.613 198.705 275.676 198.856C275.739 199.006 275.838 199.139 275.963 199.244C276.089 199.349 276.238 199.421 276.397 199.456C276.557 199.491 276.722 199.488 276.88 199.445C277.046 199.384 277.191 199.276 277.299 199.136C277.406 198.995 277.472 198.827 277.488 198.65C277.497 198.505 277.466 198.36 277.397 198.232C277.328 198.104 277.225 197.998 277.099 197.925C276.845 197.784 276.548 197.746 276.267 197.818Z" fill="#455A64"/>
<path d="M309.36 200.987C309.299 201.046 309.231 201.098 309.158 201.141C308.964 201.286 308.763 201.419 308.555 201.541C307.79 202.002 306.979 202.379 306.134 202.667C303.331 203.648 300.284 203.685 297.458 202.773C294.632 201.861 292.181 200.05 290.48 197.616C289.965 196.891 289.529 196.114 289.179 195.296C289.046 195.008 288.976 194.763 288.918 194.619C288.859 194.475 288.843 194.379 288.854 194.373C288.864 194.368 289.008 194.688 289.275 195.248C290.233 197.217 291.626 198.942 293.35 200.293C295.87 202.291 299.028 203.31 302.24 203.163C303.544 203.113 304.834 202.883 306.075 202.48C306.913 202.212 307.723 201.865 308.496 201.445C308.775 201.275 309.063 201.122 309.36 200.987Z" fill="#455A64"/>
<path d="M268.928 137.28C268.747 137.491 268.547 137.686 268.331 137.861C267.769 138.37 267.172 138.839 266.544 139.264C265.609 139.922 264.53 140.348 263.398 140.507C261.999 140.587 260.603 140.306 259.344 139.691C257.995 139.099 256.784 138.411 255.611 137.984C254.584 137.566 253.47 137.409 252.368 137.525C251.627 137.608 250.919 137.882 250.315 138.32C249.899 138.64 249.723 138.885 249.702 138.853C249.731 138.787 249.77 138.726 249.819 138.672C249.946 138.507 250.091 138.357 250.251 138.224C250.851 137.736 251.575 137.424 252.342 137.323C253.477 137.173 254.631 137.315 255.696 137.733C256.907 138.155 258.128 138.843 259.456 139.424C260.673 140.024 262.022 140.305 263.376 140.24C264.474 140.1 265.524 139.706 266.443 139.088C267.074 138.68 267.683 138.239 268.267 137.765C268.475 137.587 268.696 137.424 268.928 137.28Z" fill="#FAFAFA"/>
<path d="M255.792 124.613C255.527 124.953 255.202 125.241 254.832 125.461C253.094 126.642 250.968 127.106 248.896 126.757C248.467 126.711 248.051 126.585 247.669 126.384C247.669 126.341 248.155 126.475 248.923 126.565C250.944 126.794 252.984 126.348 254.725 125.296C255.392 124.896 255.76 124.576 255.792 124.613Z" fill="#FAFAFA"/>
<path d="M301.067 155.125C300.958 155.231 300.843 155.329 300.72 155.419C300.363 155.674 299.978 155.889 299.573 156.059C298.049 156.609 296.409 156.758 294.811 156.491C293.715 156.327 292.629 156.102 291.557 155.819C290.332 155.487 289.085 155.247 287.824 155.099C286.441 154.981 285.048 155.081 283.696 155.397C282.236 155.748 280.809 156.222 279.429 156.816C276.587 157.995 273.899 159.28 271.243 159.829C268.895 160.32 266.464 160.258 264.144 159.648C262.59 159.26 261.063 158.77 259.573 158.181L258.357 157.696C258.216 157.644 258.079 157.582 257.947 157.509C258.094 157.542 258.239 157.586 258.379 157.643L259.611 158.08C261.108 158.628 262.636 159.087 264.187 159.456C266.481 160.03 268.876 160.071 271.189 159.579C273.803 159.045 276.469 157.744 279.323 156.555C280.712 155.957 282.15 155.48 283.621 155.131C285.002 154.812 286.424 154.715 287.835 154.843C289.096 155.001 290.344 155.252 291.568 155.595C292.622 155.884 293.69 156.119 294.768 156.299C296.338 156.579 297.954 156.462 299.467 155.957C300.031 155.744 300.568 155.465 301.067 155.125Z" fill="#FAFAFA"/>
<path d="M261.381 174.933C261.381 174.933 261.381 174.896 261.451 174.832L261.68 174.539C261.996 174.187 262.354 173.875 262.747 173.611C263.37 173.19 264.056 172.87 264.779 172.661C265.737 172.388 266.732 172.266 267.728 172.299C269.957 172.331 272.469 173.253 275.104 174.432C276.475 175.063 277.88 175.618 279.312 176.096C280.838 176.618 282.448 176.844 284.059 176.763C285.66 176.59 287.205 176.078 288.592 175.259C289.973 174.512 291.232 173.659 292.507 172.96C293.703 172.26 295.003 171.752 296.357 171.456C297.814 171.198 299.309 171.267 300.736 171.659C302.162 172.051 303.483 172.756 304.603 173.723C305.091 174.134 305.523 174.607 305.888 175.131C305.853 175.106 305.822 175.075 305.797 175.04C305.728 174.971 305.648 174.88 305.552 174.773C305.423 174.622 305.284 174.479 305.136 174.347C304.947 174.156 304.745 173.978 304.533 173.813C303.202 172.722 301.614 171.988 299.92 171.68C298.756 171.469 297.564 171.469 296.4 171.68C295.074 171.978 293.803 172.484 292.635 173.179C291.371 173.877 290.117 174.736 288.725 175.493C287.306 176.335 285.721 176.861 284.08 177.035C282.435 177.115 280.79 176.884 279.232 176.352C277.793 175.866 276.381 175.301 275.003 174.661C272.379 173.477 269.904 172.555 267.717 172.491C266.741 172.451 265.765 172.559 264.821 172.811C264.109 173.002 263.431 173.303 262.811 173.701C262.283 174.049 261.803 174.463 261.381 174.933Z" fill="#FAFAFA"/>
<path d="M306.608 192.042C306.357 191.436 306.041 190.858 305.664 190.32C304.567 188.895 303.048 187.854 301.323 187.344C300.149 186.967 298.917 186.803 297.686 186.858C296.27 186.926 294.87 187.178 293.52 187.61C292.024 188.087 290.562 188.668 289.147 189.349C287.664 190.037 286.15 190.81 284.55 191.509C283.009 192.213 281.401 192.758 279.75 193.136C278.191 193.445 276.599 193.549 275.014 193.445C272.335 193.223 269.702 192.61 267.2 191.626C265.067 190.821 263.392 190.026 262.235 189.493L260.918 188.853L260.576 188.677L260.464 188.608C260.509 188.615 260.552 188.629 260.592 188.65L260.939 188.8L262.283 189.397C263.446 189.93 265.131 190.661 267.27 191.445C269.757 192.392 272.366 192.979 275.019 193.189C276.58 193.287 278.147 193.179 279.68 192.869C281.331 192.501 282.939 191.965 284.48 191.269C286.08 190.576 287.584 189.808 289.078 189.136C290.505 188.453 291.979 187.871 293.488 187.397C294.859 186.965 296.281 186.717 297.718 186.661C298.984 186.614 300.249 186.795 301.451 187.194C303.202 187.732 304.733 188.818 305.819 190.293C306.1 190.698 306.334 191.132 306.518 191.589C306.566 191.738 306.608 191.856 306.64 191.952C306.632 191.983 306.622 192.013 306.608 192.042Z" fill="#FAFAFA"/>
<g opacity="0.2">
<path d="M268.443 196.709C273.526 196.507 278.614 194.811 282.502 191.531C287.835 187.04 290.454 179.989 291.035 173.045C291.616 166.101 290.379 159.179 289.147 152.299C284.387 158.966 280.52 166.228 277.643 173.899C275.755 178.933 274.096 184.432 269.915 187.808C268.422 189.013 266.64 189.915 265.472 191.435C264.304 192.955 264.054 195.461 265.606 196.592L266.982 197.04" fill="black"/>
</g>
<path d="M231.717 196.976C232.731 197.467 233.808 197.814 234.917 198.005C235.793 198.195 236.695 198.235 237.584 198.123C238 198.069 238.389 198.011 238.763 197.952C240.48 197.675 242.085 196.923 243.397 195.781C249.173 190.763 264.811 174.901 267.6 171.312C270.96 166.997 271.904 138.475 271.904 138.475L290.667 141.547C290.667 141.547 290.331 162.101 285.717 178.096C282.779 188.267 247.317 209.189 247.275 209.211C244.645 212.091 241.691 215.211 239.872 216.731C236.091 219.899 235.803 219.568 235.509 219.061C234.72 217.712 241.947 213.237 239.835 213.296C237.723 213.355 231.632 219.797 230.864 218.352C229.861 216.464 237.52 211.92 238.139 211.488C238.757 211.056 238.139 210.144 237.605 210.565C236.832 211.168 228.539 217.317 227.547 215.477C227.013 214.453 228.917 213.627 228.917 213.627C228.917 213.627 237.093 208.448 236.592 207.595C236.091 206.741 231.184 209.605 229.595 210.693C228.005 211.781 226.885 211.461 226.981 210.373C227.051 209.632 231.824 206.181 233.419 205.141C235.013 204.101 239.424 201.328 236.133 200.928C232.843 200.528 230.469 198.971 230.117 198.107C229.765 197.243 230.837 196.432 231.717 196.976Z" fill="#FFBE9D"/>
<path d="M278.971 119.888C280.737 119.526 282.566 119.614 284.289 120.144C286.013 120.675 287.575 121.63 288.832 122.922C291.019 125.2 293.216 129.013 293.029 135.056C292.661 146.848 291.733 150.869 291.733 150.869L268.613 150.069L269.52 130.256C269.52 130.256 271.307 121.504 278.971 119.888Z" fill="#4285F4"/>
<path opacity="0.2" d="M278.971 119.888C280.737 119.526 282.566 119.614 284.289 120.144C286.013 120.675 287.575 121.63 288.832 122.922C291.019 125.2 293.248 129.322 293.061 135.354C292.699 147.146 291.733 150.869 291.733 150.869L268.613 150.069L269.552 130.56C269.552 130.56 271.307 121.504 278.971 119.888Z" fill="black"/>
<path d="M292.608 144C292.608 144.027 292.342 143.765 291.83 143.403C291.089 142.908 290.268 142.547 289.403 142.336C288.12 142.015 286.784 141.97 285.483 142.203C283.904 142.574 282.371 143.119 280.912 143.829C279.433 144.543 277.893 145.124 276.31 145.563C274.996 145.872 273.636 145.937 272.299 145.755C271.395 145.637 270.523 145.347 269.728 144.901C269.514 144.778 269.311 144.637 269.12 144.48C269.049 144.431 268.985 144.374 268.928 144.309C268.928 144.283 269.216 144.512 269.776 144.805C270.577 145.201 271.439 145.457 272.326 145.563C273.639 145.712 274.968 145.627 276.251 145.312C277.814 144.864 279.337 144.282 280.8 143.573C282.28 142.857 283.837 142.312 285.44 141.947C286.776 141.722 288.145 141.792 289.451 142.149C290.331 142.384 291.158 142.784 291.888 143.328C292.08 143.478 292.258 143.644 292.422 143.824C292.49 143.876 292.552 143.935 292.608 144Z" fill="#FAFAFA"/>
<path d="M291.664 127.307C291.419 127.436 291.164 127.544 290.901 127.632C290.656 127.733 290.368 127.835 289.984 127.947C289.6 128.059 289.211 128.187 288.747 128.288C287.662 128.554 286.561 128.748 285.451 128.869C284.088 129.005 282.718 129.055 281.35 129.019C279.982 128.965 278.621 128.816 277.275 128.571C276.176 128.363 275.096 128.071 274.043 127.696C273.635 127.56 273.236 127.4 272.848 127.216C272.548 127.093 272.256 126.95 271.974 126.789C271.723 126.672 271.485 126.529 271.264 126.363C271.525 126.452 271.778 126.563 272.022 126.693C272.309 126.836 272.605 126.963 272.907 127.072C273.299 127.239 273.699 127.385 274.107 127.509C275.153 127.854 276.223 128.125 277.307 128.32C278.642 128.548 279.991 128.688 281.344 128.741C282.7 128.779 284.057 128.736 285.408 128.613C286.509 128.5 287.603 128.322 288.683 128.08C289.152 127.989 289.563 127.883 289.925 127.781C290.288 127.68 290.603 127.6 290.853 127.515C291.116 127.42 291.388 127.35 291.664 127.307Z" fill="#FAFAFA"/>
<path d="M266.773 94.2292C266.741 94.5316 266.796 94.8368 266.931 95.1092C267.067 95.3815 267.277 95.6097 267.537 95.7669C267.797 95.9242 268.097 96.004 268.401 95.9971C268.705 95.9902 269 95.8968 269.253 95.7279C270.203 95.0452 270.107 93.5946 269.728 92.5279C269.349 91.4612 268.773 90.2772 269.083 89.1519C269.323 88.2932 270.032 87.6586 270.549 86.9332C271.004 86.2994 271.305 85.569 271.43 84.7991C271.555 84.0292 271.5 83.2409 271.269 82.4959C271.017 81.7582 270.568 81.1037 269.97 80.6035C269.372 80.1033 268.648 79.7765 267.877 79.6586C266.304 79.4772 264.512 80.2292 263.221 79.3119C262.283 78.6506 262.027 77.3599 261.248 76.5119C260.043 75.1999 257.936 75.2906 256.224 75.8026C254.512 76.3146 252.827 77.1572 251.045 76.9972C249.563 76.8692 248.229 76.0532 246.779 75.6479C245.214 75.2157 243.553 75.2817 242.027 75.8367C240.502 76.3917 239.187 77.4082 238.266 78.7448C237.344 80.0814 236.862 81.6719 236.886 83.2951C236.91 84.9184 237.439 86.4939 238.4 87.8026C239.059 88.7729 240.039 89.4793 241.168 89.7972" fill="#263238"/>
<path d="M264.16 127.691C261.849 128.114 259.465 127.605 257.529 126.273C255.594 124.941 254.265 122.896 253.835 120.587C253.302 117.84 252.896 115.52 252.896 115.52C252.896 115.52 245.755 115.627 244.48 108.683C243.206 101.739 241.782 86.4853 241.782 86.4853L241.691 85.5626C249.158 80.7253 258.758 81.0719 266.63 85.2373L266.864 86.6719L271.382 117.968C271.633 120.202 271.028 122.448 269.687 124.253C268.347 126.057 266.371 127.286 264.16 127.691Z" fill="#FFBE9D"/>
<path d="M256.363 103.403L251.899 105.568C252.306 106.02 252.855 106.319 253.456 106.416C254.056 106.513 254.672 106.402 255.2 106.101C257.152 104.971 256.363 103.403 256.363 103.403Z" fill="white"/>
<path d="M252.864 115.424C256.087 114.935 259.092 113.5 261.499 111.301C261.499 111.301 260.208 116.672 253.158 117.227L252.864 115.424Z" fill="#EB996E"/>
<path d="M267.2 91.3547C267.344 91.28 272.32 90.0853 272.485 96.0907C272.651 102.096 266.528 100.277 266.512 100.107C266.496 99.936 267.2 91.3547 267.2 91.3547Z" fill="#FFBE9D"/>
<path d="M268.315 97.9465C268.342 97.9465 268.422 98.0158 268.603 98.0958C268.855 98.1953 269.135 98.1953 269.387 98.0958C270.011 97.8452 270.518 96.8212 270.518 95.7385C270.518 95.2225 270.405 94.7126 270.187 94.2452C270.124 94.0597 270.018 93.8921 269.877 93.7565C269.736 93.621 269.564 93.5215 269.376 93.4665C269.255 93.4385 269.129 93.4536 269.018 93.5091C268.907 93.5646 268.818 93.657 268.768 93.7705C268.688 93.9412 268.731 94.0585 268.699 94.0692C268.667 94.0798 268.566 93.9732 268.608 93.7225C268.64 93.5727 268.721 93.4376 268.838 93.3385C268.999 93.2106 269.204 93.1513 269.408 93.1732C269.657 93.2141 269.891 93.3186 270.087 93.4766C270.283 93.6345 270.435 93.8405 270.528 94.0745C270.798 94.5876 270.939 95.1587 270.939 95.7385C270.939 96.9492 270.342 98.1012 269.483 98.3732C269.323 98.4254 269.154 98.4406 268.988 98.4175C268.821 98.3944 268.662 98.3336 268.523 98.2398C268.331 98.0905 268.294 97.9572 268.315 97.9465Z" fill="#EB996E"/>
<path d="M240.576 89.5998C240.576 89.5998 245.072 91.0612 250.176 87.5732C253.531 85.2798 257.611 83.8398 258.635 84.4265C259.659 85.0132 260.363 88.6932 264.08 89.3012C264.08 89.3012 264.8 96.4158 267.59 95.7758C270.379 95.1358 267.115 84.4158 267.115 84.4158L260.016 80.6398L252.283 80.2505L244.096 82.3145L239.766 85.8238L240.576 89.5998Z" fill="#263238"/>
<path d="M266.816 78.3998C265.753 78.5942 264.787 79.1387 264.069 79.9465C264.291 79.4209 264.681 78.9839 265.178 78.704C265.676 78.424 266.252 78.3171 266.816 78.3998Z" fill="#263238"/>
<path d="M263.531 76.0374C263.87 76.7191 264.034 77.4739 264.011 78.2347C264.021 78.7799 263.931 79.3222 263.744 79.8347C263.684 80.0519 263.573 80.2514 263.419 80.416C263.593 79.706 263.698 78.9809 263.734 78.2507C263.712 77.0347 263.467 76.0587 263.531 76.0374Z" fill="#263238"/>
<path d="M243.915 96.5972C243.928 96.8684 244.047 97.1236 244.246 97.3074C244.446 97.4912 244.71 97.5887 244.982 97.5785C245.112 97.5814 245.241 97.5582 245.363 97.5105C245.484 97.4628 245.594 97.3915 245.688 97.3006C245.781 97.2098 245.855 97.1013 245.906 96.9814C245.957 96.8616 245.984 96.7328 245.984 96.6025C245.973 96.337 245.859 96.0864 245.666 95.904C245.472 95.7217 245.215 95.6221 244.95 95.6265C244.817 95.6185 244.684 95.6377 244.559 95.6828C244.435 95.7279 244.32 95.7981 244.223 95.889C244.126 95.9798 244.049 96.0895 243.996 96.2113C243.943 96.3331 243.916 96.4644 243.915 96.5972Z" fill="#263238"/>
<path d="M243.888 95.8133C244.022 95.9413 244.763 95.328 245.862 95.28C246.96 95.232 247.792 95.7386 247.904 95.5946C247.958 95.536 247.819 95.3013 247.456 95.0613C246.964 94.7573 246.391 94.612 245.814 94.6453C245.243 94.6701 244.695 94.8776 244.251 95.2373C243.926 95.5093 243.824 95.7546 243.888 95.8133Z" fill="#263238"/>
<path d="M254.72 96.032C254.743 96.2946 254.867 96.5381 255.066 96.7111C255.265 96.8842 255.523 96.9734 255.787 96.96C255.917 96.9579 256.046 96.9298 256.165 96.8771C256.285 96.8245 256.392 96.7484 256.482 96.6535C256.571 96.5585 256.641 96.4465 256.686 96.3242C256.732 96.2019 256.752 96.0717 256.747 95.9413C256.723 95.6786 256.599 95.4352 256.4 95.2621C256.202 95.089 255.943 94.9998 255.68 95.0133C255.549 95.0146 255.42 95.0422 255.3 95.0946C255.181 95.147 255.073 95.2231 254.983 95.3182C254.893 95.4133 254.824 95.5256 254.779 95.6482C254.733 95.7709 254.713 95.9014 254.72 96.032Z" fill="#263238"/>
<path d="M254.4 95.2373C254.539 95.3547 255.254 94.704 256.347 94.608C257.44 94.512 258.299 94.9707 258.406 94.8267C258.512 94.6827 258.304 94.5333 257.931 94.2933C257.425 94.011 256.843 93.8918 256.267 93.952C255.7 94.0086 255.164 94.2418 254.736 94.6187C254.443 94.9333 254.347 95.184 254.4 95.2373Z" fill="#263238"/>
<path d="M251.238 103.733C250.643 103.609 250.036 103.561 249.43 103.589C249.147 103.589 248.896 103.557 248.811 103.37C248.761 103.084 248.798 102.788 248.918 102.522C249.115 101.824 249.323 101.088 249.536 100.314C250.39 97.1785 250.976 94.6078 250.848 94.5705C250.72 94.5331 249.931 97.0665 249.067 100.197C248.864 100.97 248.667 101.706 248.486 102.416C248.341 102.769 248.328 103.163 248.448 103.525C248.499 103.618 248.57 103.699 248.656 103.762C248.741 103.825 248.84 103.868 248.944 103.888C249.104 103.908 249.265 103.908 249.424 103.888C250.033 103.916 250.642 103.864 251.238 103.733Z" fill="#263238"/>
<path d="M253.739 91.9679C253.878 92.2559 254.955 92.0106 256.251 92.0372C257.547 92.0639 258.624 92.3199 258.768 92.0372C258.832 91.9039 258.624 91.6426 258.176 91.3972C257.584 91.0977 256.931 90.9372 256.268 90.9279C255.604 90.9187 254.947 91.0609 254.347 91.3439C253.894 91.5786 253.68 91.8346 253.739 91.9679Z" fill="#263238"/>
<path d="M243.734 92.8745C243.952 93.1038 244.678 92.7731 245.584 92.6718C246.491 92.5705 247.275 92.6718 247.424 92.3998C247.488 92.2665 247.344 92.0265 246.987 91.8238C246.508 91.5882 245.97 91.4989 245.441 91.5672C244.912 91.6355 244.414 91.8583 244.011 92.2078C243.734 92.4958 243.643 92.7625 243.734 92.8745Z" fill="#263238"/>
<path d="M50.2881 142.768L78.8694 214.235H159.093L133.605 141.808C133.517 141.551 133.35 141.328 133.128 141.17C132.906 141.012 132.64 140.928 132.368 140.928L51.5041 140.981C51.2914 140.982 51.0823 141.035 50.8945 141.135C50.7068 141.235 50.5462 141.379 50.4266 141.555C50.3069 141.731 50.2318 141.933 50.2077 142.144C50.1836 142.356 50.2112 142.57 50.2881 142.768Z" fill="#263238"/>
<path d="M54.6883 144.72L80.9337 208.72C80.9907 208.857 81.0871 208.973 81.2106 209.055C81.334 209.137 81.479 209.18 81.627 209.179H154.694C154.812 209.18 154.928 209.153 155.034 209.1C155.139 209.047 155.23 208.969 155.299 208.873C155.368 208.778 155.413 208.667 155.43 208.55C155.447 208.433 155.436 208.314 155.398 208.203L132.144 144.203C132.09 144.06 131.994 143.937 131.868 143.85C131.742 143.764 131.593 143.717 131.44 143.717H55.3817C55.2609 143.715 55.1414 143.742 55.0339 143.797C54.9264 143.852 54.8341 143.933 54.7654 144.032C54.6967 144.132 54.6537 144.247 54.6403 144.367C54.6268 144.487 54.6433 144.608 54.6883 144.72Z" fill="#455A64"/>
<path d="M78.8696 214.23H79.5843H187.894V209.2H81.835L78.8696 214.23Z" fill="#263238"/>
<path d="M204.267 144.629C204.267 144.629 206.267 142.032 204.917 139.04C203.568 136.048 199.936 132.64 199.936 132.64C198.869 132.368 200.277 126.341 200.891 124.341C201.504 122.341 200.816 121.259 199.723 121.675C198.981 121.973 196.96 128.037 196.4 130.021C196.096 131.088 195.525 133.221 194.832 134.405C194.256 135.371 193.595 135.675 192.928 134.16C191.461 130.821 189.104 128.795 188.128 128.683C187.152 128.571 186.64 129.957 187.477 130.715C188.304 131.625 189.002 132.644 189.552 133.744C190.033 134.609 190.364 135.548 190.533 136.523C190.677 137.365 190.779 138.123 190.859 138.795C191.041 140.471 191.027 142.162 190.816 143.835L170.667 167.568L166.283 151.499L165.877 150.261L148.587 156.693C148.053 156.827 152.32 169.413 154.987 177.232C155.642 179.146 156.699 180.898 158.087 182.37C159.475 183.842 161.162 184.999 163.035 185.765C165.977 186.97 169.239 187.152 172.297 186.281C175.354 185.411 178.032 183.539 179.899 180.965L201.408 149.739L200.944 149.424L201.381 149.621L204.267 144.629Z" fill="#B78876"/>
<path d="M201.568 134.192C201.535 134.394 201.478 134.591 201.397 134.779L200.827 136.341L199.957 138.667C199.812 139.145 199.591 139.597 199.301 140.005C199.112 140.229 198.849 140.378 198.56 140.427C198.405 140.447 198.248 140.427 198.104 140.369C197.959 140.311 197.831 140.217 197.733 140.096C197.545 139.867 197.436 139.582 197.424 139.285C197.418 139.016 197.449 138.747 197.515 138.485C197.637 137.989 197.765 137.52 197.893 137.072C198.155 136.176 198.427 135.387 198.677 134.731C198.928 134.075 199.152 133.547 199.317 133.189C199.389 133 199.486 132.82 199.605 132.656C199.563 132.856 199.5 133.05 199.419 133.237C199.285 133.605 199.088 134.139 198.885 134.8C198.683 135.461 198.405 136.256 198.16 137.147C198.037 137.595 197.915 138.064 197.803 138.549C197.72 138.775 197.692 139.016 197.721 139.255C197.75 139.493 197.834 139.721 197.968 139.92C198.036 140.006 198.124 140.073 198.225 140.115C198.326 140.157 198.436 140.172 198.544 140.16C198.767 140.12 198.971 140.005 199.12 139.835C199.39 139.45 199.599 139.025 199.739 138.576L200.667 136.293L201.317 134.763C201.381 134.564 201.465 134.373 201.568 134.192Z" fill="#AA6550"/>
<path d="M203.605 136.534C203.582 136.718 203.532 136.897 203.456 137.067C203.344 137.392 203.168 137.856 202.923 138.432C202.677 139.008 202.443 139.691 202.133 140.448C201.982 140.877 201.703 141.25 201.333 141.515C201.123 141.659 200.873 141.734 200.619 141.728C200.35 141.715 200.097 141.6 199.909 141.408C199.739 141.225 199.612 141.007 199.536 140.769C199.461 140.531 199.439 140.28 199.472 140.032C199.519 139.6 199.607 139.173 199.733 138.758C199.925 138.058 200.164 137.372 200.448 136.704C200.688 136.139 200.912 135.691 201.072 135.382C201.144 135.217 201.237 135.063 201.349 134.923C201.392 134.923 201.067 135.632 200.629 136.779C200.375 137.449 200.158 138.133 199.979 138.827C199.867 139.229 199.788 139.639 199.744 140.054C199.716 140.261 199.733 140.472 199.795 140.672C199.857 140.871 199.961 141.055 200.101 141.211C200.243 141.346 200.426 141.427 200.621 141.441C200.816 141.454 201.009 141.399 201.168 141.286C201.493 141.05 201.74 140.723 201.877 140.347L202.72 138.358C202.96 137.792 203.163 137.339 203.307 137.024C203.383 136.847 203.483 136.682 203.605 136.534Z" fill="#AA6550"/>
<path d="M204.725 138.907C204.639 139.425 204.504 139.934 204.32 140.427C204.176 140.896 204.016 141.44 203.787 142.053C203.681 142.412 203.437 142.715 203.109 142.896C203.011 142.938 202.905 142.96 202.797 142.96C202.69 142.96 202.584 142.938 202.485 142.896C202.287 142.817 202.119 142.677 202.005 142.496C201.819 142.152 201.744 141.759 201.792 141.371C201.833 140.442 202.071 139.533 202.491 138.704C202.666 138.359 202.875 138.032 203.115 137.728C203.285 137.515 203.397 137.408 203.413 137.419C203.429 137.429 203.061 137.915 202.667 138.789C202.442 139.302 202.275 139.839 202.171 140.389C202.112 140.712 202.077 141.038 202.064 141.365C202.028 141.697 202.089 142.033 202.24 142.331C202.309 142.463 202.425 142.565 202.565 142.616C202.705 142.668 202.859 142.665 202.997 142.608C203.256 142.457 203.447 142.213 203.531 141.925C203.733 141.344 203.925 140.811 204.101 140.325C204.269 139.836 204.478 139.361 204.725 138.907Z" fill="#AA6550"/>
<path d="M197.867 144.053C197.819 144.053 197.867 143.632 197.813 142.987C197.671 141.249 196.858 139.634 195.547 138.485C195.045 138.048 194.683 137.84 194.704 137.803C195.061 137.907 195.391 138.09 195.669 138.336C196.381 138.886 196.961 139.588 197.366 140.391C197.771 141.194 197.991 142.077 198.011 142.976C198.038 143.341 197.989 143.708 197.867 144.053Z" fill="#AA6550"/>
<path d="M85.8667 208.72L138.016 208.987L138.667 199.787L97.984 181.686C94.46 185.952 92.1203 191.071 91.2 196.528L85.8667 208.72Z" fill="#263238"/>
<path d="M110.491 191.013C110.355 191.208 110.197 191.387 110.022 191.547C109.831 191.751 109.628 191.944 109.414 192.123C109.142 192.373 108.858 192.608 108.56 192.827C108.209 193.104 107.84 193.359 107.456 193.589C107.024 193.867 106.577 194.121 106.118 194.352C104.003 195.421 101.68 196.016 99.3122 196.096C98.7988 196.123 98.2843 196.123 97.7709 196.096C97.3242 196.075 96.879 196.029 96.4376 195.957C96.0782 195.909 95.7221 195.84 95.3709 195.749C95.0958 195.699 94.8248 195.627 94.5602 195.536C94.329 195.484 94.1051 195.403 93.8936 195.296C93.8936 195.237 94.8696 195.563 96.4856 195.765C96.8856 195.808 97.3282 195.861 97.8029 195.867C98.2776 195.872 98.7896 195.867 99.3229 195.867C101.644 195.744 103.917 195.155 106.006 194.133C106.48 193.888 106.934 193.664 107.339 193.408C107.719 193.183 108.087 192.939 108.443 192.677C109.76 191.717 110.448 190.971 110.491 191.013Z" fill="#455A64"/>
<path d="M124.672 207.947C124.844 207.344 125.054 206.752 125.301 206.176C125.744 205.024 126.299 203.558 126.901 201.942C127.504 200.326 128.096 198.869 128.549 197.717C128.755 197.124 129.004 196.546 129.296 195.99C129.154 196.602 128.965 197.203 128.731 197.787C128.347 198.853 127.797 200.384 127.163 202.053C126.528 203.723 125.925 205.195 125.467 206.261C125.237 206.795 125.045 207.221 124.901 207.515C124.844 207.668 124.767 207.814 124.672 207.947Z" fill="#455A64"/>
<path d="M124.965 195.563C124.666 195.703 124.42 195.937 124.267 196.229C124.193 196.38 124.159 196.546 124.167 196.713C124.176 196.88 124.226 197.042 124.315 197.184C124.416 197.363 124.57 197.506 124.755 197.595C124.941 197.684 125.149 197.715 125.352 197.683C125.555 197.652 125.744 197.559 125.893 197.417C126.042 197.276 126.144 197.092 126.187 196.891C126.227 196.729 126.226 196.559 126.183 196.398C126.14 196.236 126.057 196.089 125.941 195.968C125.704 195.74 125.402 195.591 125.077 195.541C125.077 195.541 125.173 195.488 125.36 195.499C125.63 195.525 125.884 195.641 126.08 195.829C126.234 195.969 126.347 196.146 126.409 196.344C126.471 196.542 126.479 196.753 126.432 196.955C126.384 197.21 126.259 197.444 126.072 197.624C125.886 197.805 125.648 197.923 125.392 197.963C125.136 198.002 124.874 197.962 124.641 197.846C124.409 197.731 124.219 197.546 124.096 197.317C123.99 197.139 123.935 196.935 123.935 196.728C123.935 196.521 123.99 196.317 124.096 196.139C124.224 195.901 124.429 195.713 124.677 195.605C124.853 195.536 124.96 195.547 124.965 195.563Z" fill="#455A64"/>
<path d="M160.235 130.875C160.235 130.875 167.861 153.307 167.429 154.224L152 158.453L160.235 130.875Z" fill="#4285F4"/>
<path opacity="0.2" d="M160.235 130.875C160.235 130.875 167.861 153.307 167.429 154.224L152 158.453L160.235 130.875Z" fill="black"/>
<path d="M147.734 168.043L142.864 188.699L139.702 200.256L97.9683 181.685L111.216 160.352C111.216 160.352 118.47 130.683 128.704 125.2C136.144 121.211 142.464 122.597 143.408 122.597L152.299 123.829C152.496 123.856 152.688 123.888 152.88 123.925C157.622 124.859 160.838 129.291 160.592 134.112C160.4 137.973 159.755 144.507 157.627 149.392C154.774 155.957 147.734 168.043 147.734 168.043Z" fill="#4285F4"/>
<path d="M141.248 195.621L140.944 195.483C140.646 195.345 140.358 195.188 140.08 195.013C139.008 194.343 138.071 193.479 137.317 192.464C136.104 190.857 135.391 188.927 135.269 186.917C135.193 185.657 135.437 184.399 135.979 183.259C136.273 182.634 136.686 182.073 137.195 181.605C137.74 181.112 138.412 180.781 139.136 180.651C139.733 180.59 140.336 180.648 140.91 180.821C141.485 180.994 142.019 181.279 142.484 181.659C142.948 182.039 143.332 182.507 143.616 183.036C143.899 183.565 144.075 184.144 144.133 184.741C144.199 185.608 144.041 186.476 143.675 187.264C143.296 188.09 142.739 188.823 142.044 189.408C141.348 189.994 140.532 190.418 139.653 190.651C137.781 191.121 135.803 190.933 134.053 190.117C132.242 189.248 130.657 187.97 129.424 186.384C128.772 185.587 128.184 184.74 127.664 183.851C127.12 182.943 126.714 181.96 126.459 180.933C126.198 179.884 126.185 178.788 126.421 177.733C126.66 176.641 127.245 175.655 128.091 174.923C128.534 174.561 129.047 174.293 129.596 174.133C130.146 173.974 130.722 173.927 131.291 173.995C131.866 174.058 132.416 174.266 132.891 174.597C133.354 174.943 133.722 175.402 133.957 175.931C134.405 177 134.426 178.201 134.016 179.285C133.594 180.331 132.886 181.237 131.973 181.899C130.219 183.116 128.189 183.88 126.067 184.121C123.945 184.362 121.796 184.073 119.813 183.28C117.963 182.486 116.369 181.194 115.211 179.547C114.094 177.986 113.465 176.131 113.403 174.213C113.378 173.293 113.526 172.375 113.84 171.509C114.145 170.663 114.674 169.914 115.371 169.344C116.059 168.805 116.898 168.494 117.771 168.453C118.193 168.427 118.617 168.484 119.017 168.622C119.417 168.761 119.785 168.977 120.101 169.259C120.688 169.824 121.051 170.581 121.125 171.392C121.209 172.156 121.095 172.929 120.795 173.637C120.176 174.931 119.069 175.927 117.717 176.405C116.545 176.849 115.302 177.076 114.048 177.077C112.044 177.104 110.058 176.7 108.224 175.893C107.071 175.387 105.994 174.723 105.024 173.92C104.688 173.643 104.448 173.419 104.293 173.264C104.139 173.109 104.059 173.024 104.059 173.024C104.059 173.024 104.149 173.093 104.315 173.243C104.48 173.392 104.72 173.611 105.056 173.877C107.612 175.904 110.792 176.98 114.053 176.923C115.286 176.915 116.508 176.684 117.659 176.24C118.281 175.992 118.86 175.648 119.376 175.221C119.918 174.777 120.345 174.208 120.619 173.563C120.903 172.89 121.009 172.155 120.928 171.429C120.855 170.669 120.513 169.959 119.963 169.429C119.666 169.169 119.321 168.97 118.948 168.844C118.575 168.718 118.18 168.667 117.787 168.693C116.959 168.732 116.165 169.028 115.515 169.541C114.855 170.089 114.354 170.804 114.064 171.611C113.763 172.448 113.624 173.335 113.653 174.224C113.716 176.096 114.333 177.907 115.424 179.429C116.555 181.041 118.114 182.304 119.925 183.077C121.863 183.852 123.963 184.134 126.037 183.898C128.111 183.661 130.094 182.914 131.808 181.723C132.68 181.092 133.356 180.229 133.76 179.232C134.146 178.217 134.127 177.092 133.707 176.091C133.491 175.601 133.148 175.178 132.715 174.864C132.275 174.569 131.769 174.386 131.243 174.331C130.716 174.273 130.184 174.321 129.676 174.47C129.168 174.619 128.694 174.867 128.283 175.2C127.475 175.893 126.914 176.828 126.683 177.867C126.453 178.884 126.464 179.942 126.715 180.955C127.205 182.981 128.384 184.736 129.627 186.288C130.834 187.843 132.383 189.099 134.155 189.957C135.85 190.751 137.766 190.939 139.584 190.491C140.43 190.27 141.216 189.864 141.885 189.302C142.555 188.741 143.091 188.037 143.456 187.243C143.813 186.494 143.967 185.664 143.904 184.837C143.85 184.268 143.685 183.716 143.418 183.211C143.151 182.706 142.786 182.258 142.346 181.894C141.906 181.53 141.398 181.257 140.852 181.089C140.305 180.921 139.731 180.863 139.163 180.917C138.473 181.038 137.832 181.351 137.312 181.819C136.819 182.272 136.417 182.815 136.128 183.419C135.597 184.53 135.353 185.757 135.419 186.987C135.526 188.973 136.216 190.883 137.403 192.48C138.141 193.494 139.057 194.365 140.107 195.051C140.379 195.227 140.66 195.389 140.949 195.536L141.248 195.621Z" fill="#FAFAFA"/>
<path d="M153.771 155.776C153.771 155.776 153.733 155.739 153.669 155.659L153.387 155.307C153.042 154.839 152.743 154.339 152.496 153.813C151.603 151.846 151.367 149.643 151.824 147.531C152.12 146.063 152.799 144.699 153.792 143.579C154.09 143.274 154.455 143.043 154.859 142.907C155.073 142.838 155.298 142.813 155.522 142.834C155.746 142.856 155.963 142.922 156.16 143.029C156.558 143.256 156.875 143.601 157.067 144.016C157.251 144.437 157.347 144.89 157.349 145.349C157.333 147.26 156.665 149.107 155.456 150.587C154.83 151.373 154.065 152.038 153.2 152.549C152.306 153.09 151.289 153.391 150.245 153.424C149.187 153.433 148.163 153.053 147.365 152.357C146.595 151.696 146.013 150.842 145.68 149.883C145.365 148.967 145.212 148.003 145.227 147.035C145.21 146.109 145.325 145.186 145.568 144.293C145.697 143.857 145.903 143.447 146.176 143.083C146.448 142.71 146.846 142.449 147.296 142.347C147.738 142.261 148.196 142.343 148.581 142.576C148.94 142.799 149.245 143.098 149.477 143.451C149.694 143.778 149.858 144.138 149.963 144.517C150.065 144.888 150.121 145.269 150.128 145.653C150.143 146.371 150.023 147.086 149.776 147.76C149.349 148.916 148.646 149.951 147.728 150.773C147.045 151.389 146.304 151.935 145.515 152.405C144.864 152.795 144.347 153.067 143.995 153.248L143.595 153.451C143.55 153.478 143.501 153.5 143.451 153.515L143.579 153.429L143.968 153.2C144.309 153.003 144.821 152.715 145.456 152.315C146.229 151.833 146.955 151.277 147.621 150.656C148.506 149.842 149.181 148.827 149.589 147.696C149.821 147.043 149.932 146.352 149.915 145.659C149.906 145.297 149.849 144.938 149.744 144.592C149.649 144.228 149.494 143.882 149.285 143.568C149.075 143.243 148.792 142.971 148.459 142.773C148.128 142.568 147.731 142.498 147.349 142.576C146.56 142.736 146.059 143.547 145.808 144.357C145.581 145.228 145.473 146.125 145.488 147.024C145.479 147.962 145.63 148.895 145.936 149.781C146.253 150.693 146.805 151.504 147.536 152.133C148.285 152.786 149.247 153.141 150.24 153.131C151.235 153.095 152.204 152.807 153.056 152.293C153.893 151.8 154.634 151.158 155.243 150.4C156.411 148.969 157.061 147.186 157.088 145.339C157.089 144.915 157.002 144.495 156.832 144.107C156.664 143.738 156.387 143.431 156.037 143.227C155.868 143.135 155.683 143.078 155.491 143.059C155.3 143.04 155.107 143.059 154.923 143.115C154.56 143.243 154.231 143.453 153.963 143.728C152.984 144.817 152.307 146.142 152 147.573C151.732 148.747 151.681 149.96 151.851 151.152C151.975 152.053 152.218 152.934 152.576 153.771C152.816 154.293 153.096 154.796 153.413 155.275L153.675 155.643C153.749 155.733 153.776 155.771 153.771 155.776Z" fill="#FAFAFA"/>
<path d="M140.998 149.499C140.998 149.499 140.998 168.464 145.744 170.261C158.656 175.147 174.102 174.021 179.536 173.509C180.187 173.056 180.939 172.501 181.792 171.808L183.59 170.309C183.59 170.309 192.123 171.936 191.995 172.384C191.867 172.832 188.667 173.867 185.371 173.125C185.274 173.307 185.218 173.507 185.206 173.713C185.194 173.918 185.226 174.124 185.301 174.315C185.376 174.507 185.492 174.68 185.64 174.823C185.788 174.965 185.966 175.074 186.16 175.141C188.331 176.208 196.022 179.456 197.243 180.192C198.31 180.848 199.334 181.925 198.118 182C196.902 182.075 190.432 180.48 190.432 180.48C190.432 180.48 198.966 182.4 198.614 183.627C198.379 184.475 196.016 184.656 190.512 182.827C190.512 182.827 197.515 184.459 198.182 185.28C199.691 187.125 191.248 185.237 191.248 185.237C197.152 186.613 197.115 186.304 197.115 187.12C197.115 187.739 195.723 187.851 192.438 187.563C189.771 187.328 186.96 187.621 182.875 187.488C182.875 187.488 130.134 196.88 125.334 173.611C122.742 161.061 123.2 156.432 122.667 148.325" fill="#B78876"/>
<path d="M187.67 184.496C187.632 184.64 189.43 185.136 191.68 185.605C193.931 186.075 195.771 186.32 195.798 186.171C195.824 186.021 194.027 185.525 191.792 185.061C189.558 184.597 187.734 184.347 187.67 184.496Z" fill="#AA6550"/>
<path d="M187.958 182.171C187.92 182.32 189.803 182.955 192.16 183.595C194.518 184.235 196.47 184.629 196.507 184.48C196.544 184.331 194.667 183.696 192.304 183.061C189.942 182.427 188 182.027 187.958 182.171Z" fill="#AA6550"/>
<path d="M188.267 179.76C188.224 179.909 189.995 180.539 192.219 181.173C194.443 181.808 196.283 182.203 196.326 182.053C196.368 181.904 194.598 181.275 192.374 180.64C190.15 180.005 188.315 179.616 188.267 179.76Z" fill="#AA6550"/>
<path d="M131.27 130.944C129.561 130.795 127.844 131.097 126.289 131.821C124.734 132.544 123.397 133.664 122.411 135.067C120.619 137.573 118.971 141.605 119.782 147.584C121.382 159.253 122.656 163.147 122.656 163.147L144.102 159.749L141.168 140.176C141.168 140.176 138.582 131.68 131.27 130.944Z" fill="#4285F4"/>
<path opacity="0.2" d="M131.27 130.944C129.561 130.795 127.844 131.097 126.289 131.821C124.734 132.544 123.397 133.664 122.411 135.067C120.619 137.573 118.971 141.605 119.782 147.584C121.382 159.253 122.656 163.147 122.656 163.147L144.102 159.749L141.168 140.176C141.168 140.176 138.582 131.68 131.27 130.944Z" fill="black"/>
<path d="M185.302 170.667C185.147 170.661 184.994 170.641 184.843 170.608C184.544 170.56 184.096 170.47 183.536 170.39C183.232 170.415 182.943 170.53 182.704 170.72C182.396 170.93 182.102 171.16 181.824 171.408C181.146 172.02 180.503 172.67 179.899 173.355C178.238 173.842 176.52 174.104 174.79 174.134C172.753 174.157 170.716 174.073 168.688 173.883C163.771 173.536 159.302 173.264 156.091 172.816C154.491 172.603 153.195 172.379 152.31 172.192C151.862 172.107 151.526 172.016 151.291 171.963C151.171 171.94 151.053 171.906 150.939 171.862C151.061 171.863 151.183 171.879 151.302 171.91L152.326 172.086C153.216 172.24 154.512 172.432 156.118 172.619C159.318 173.014 163.782 173.259 168.71 173.606C170.843 173.771 172.896 173.92 174.784 173.872C176.492 173.852 178.19 173.608 179.835 173.147L179.787 173.179C180.404 172.495 181.063 171.85 181.76 171.248C182.047 170.997 182.354 170.768 182.678 170.566C182.943 170.361 183.266 170.246 183.6 170.235C184.176 170.342 184.603 170.448 184.902 170.512C185.04 170.551 185.173 170.603 185.302 170.667Z" fill="#AA6550"/>
<path d="M142.63 148.827C142.577 148.849 142.521 148.866 142.464 148.875L141.968 148.981L141.152 149.061C140.776 149.07 140.4 149.054 140.027 149.013C138.353 148.825 136.774 148.135 135.499 147.035C134.943 146.573 134.456 146.035 134.054 145.435C133.594 144.779 133.256 144.045 133.056 143.269C132.953 142.851 132.918 142.419 132.955 141.989C132.988 141.528 133.163 141.088 133.456 140.731C133.62 140.553 133.817 140.41 134.037 140.31C134.257 140.21 134.495 140.155 134.736 140.149C135.222 140.149 135.7 140.268 136.128 140.496C137.01 140.98 137.72 141.725 138.16 142.629C138.629 143.565 138.839 144.609 138.768 145.653C138.706 146.747 138.314 147.796 137.643 148.661C136.934 149.56 136.009 150.264 134.954 150.709C133.899 151.154 132.749 151.325 131.611 151.205C130.479 151.055 129.392 150.669 128.42 150.07C127.447 149.472 126.612 148.676 125.968 147.733C125.316 146.86 124.906 145.83 124.779 144.747C124.72 144.207 124.782 143.66 124.96 143.147C125.141 142.652 125.437 142.208 125.824 141.851C126.198 141.491 126.672 141.253 127.184 141.168C127.684 141.09 128.197 141.174 128.646 141.408C129.066 141.632 129.432 141.944 129.72 142.323C130.007 142.703 130.208 143.14 130.31 143.605C130.507 144.456 130.507 145.341 130.31 146.192C130.13 146.972 129.822 147.716 129.398 148.395C128.76 149.42 127.862 150.256 126.794 150.818C125.726 151.381 124.528 151.649 123.323 151.595C122.671 151.574 122.026 151.457 121.408 151.248C121.193 151.179 120.984 151.092 120.784 150.987C120.784 150.987 121.003 151.072 121.43 151.195C122.044 151.378 122.681 151.475 123.323 151.483C124.338 151.507 125.345 151.304 126.272 150.891C127.497 150.336 128.527 149.425 129.227 148.277C129.637 147.621 129.933 146.9 130.102 146.144C130.288 145.326 130.288 144.477 130.102 143.659C130.007 143.228 129.819 142.823 129.552 142.472C129.285 142.121 128.945 141.833 128.555 141.627C128.15 141.417 127.688 141.342 127.238 141.413C126.776 141.496 126.349 141.713 126.011 142.037C125.658 142.368 125.387 142.777 125.222 143.232C125.062 143.703 125.006 144.204 125.056 144.699C125.188 145.734 125.582 146.718 126.203 147.557C126.822 148.469 127.626 149.241 128.562 149.822C129.498 150.404 130.546 150.782 131.638 150.933C132.729 151.049 133.832 150.887 134.843 150.461C135.855 150.036 136.743 149.362 137.424 148.501C138.037 147.685 138.409 146.713 138.499 145.696C138.588 144.679 138.392 143.658 137.931 142.747C137.714 142.32 137.44 141.925 137.115 141.573C136.796 141.236 136.425 140.952 136.016 140.731C135.625 140.518 135.187 140.406 134.742 140.405C134.532 140.407 134.326 140.452 134.135 140.538C133.944 140.623 133.773 140.747 133.632 140.901C133.367 141.22 133.209 141.613 133.179 142.027C133.143 142.432 133.171 142.841 133.264 143.237C133.454 143.988 133.775 144.7 134.214 145.339C134.602 145.935 135.073 146.473 135.611 146.939C136.087 147.353 136.61 147.711 137.168 148.005C138.063 148.484 139.037 148.799 140.043 148.933C140.905 149.032 141.778 148.996 142.63 148.827Z" fill="#FAFAFA"/>
<path d="M131.349 89.6642C130.961 88.5682 130.275 87.6022 129.367 86.8749C128.46 86.1476 127.368 85.6877 126.214 85.5469C125.06 85.4062 123.889 85.5902 122.834 86.0782C121.779 86.5662 120.88 87.339 120.24 88.3095C119.429 89.5362 119.083 90.9762 118.571 92.3895C118.059 93.8029 117.307 95.1735 116.011 95.8722C114.496 96.6935 112.501 96.4055 111.125 97.4722C109.589 98.6189 109.525 101.152 110.837 102.571C112.149 103.99 114.363 104.299 116.171 103.59C115.734 104.711 115.487 105.897 115.44 107.099C115.422 107.702 115.553 108.3 115.821 108.84C116.088 109.381 116.485 109.847 116.976 110.198C117.514 110.485 118.116 110.631 118.726 110.619C119.335 110.608 119.932 110.441 120.459 110.134C121.508 109.508 122.409 108.662 123.099 107.654C123.271 108.501 123.568 109.319 123.979 110.08C124.187 110.459 124.474 110.789 124.821 111.047C125.168 111.304 125.566 111.484 125.989 111.574C126.518 111.619 127.049 111.52 127.526 111.286C128.002 111.052 128.406 110.692 128.693 110.246C129.255 109.341 129.59 108.315 129.669 107.254C129.978 104.647 129.808 102.007 129.168 99.4615C128.768 97.8295 128.203 96.1602 128.517 94.5122C128.832 92.8642 130.453 91.3122 132.059 91.8135" fill="#263238"/>
<path d="M110.325 100.912C110.408 100.97 110.5 101.013 110.597 101.04C110.867 101.138 111.143 101.218 111.424 101.28C112.723 101.556 114.07 101.51 115.348 101.148C116.626 100.785 117.796 100.117 118.757 99.2C119.437 98.5503 120.003 97.7913 120.432 96.9547C120.868 96.0525 121.184 95.0967 121.371 94.1121C121.544 93.1569 121.805 92.2197 122.149 91.3121C122.479 90.491 123.034 89.7794 123.749 89.2587C124.358 88.8203 125.055 88.5194 125.792 88.3767C126.528 88.2339 127.287 88.2528 128.016 88.432C129.009 88.6896 129.925 89.1858 130.683 89.8774C131.216 90.368 131.461 90.7094 131.493 90.6827C131.525 90.656 131.456 90.5814 131.349 90.416C131.19 90.1813 131.012 89.9601 130.816 89.7547C130.068 88.9917 129.131 88.4397 128.101 88.1547C127.325 87.9407 126.512 87.901 125.719 88.0383C124.926 88.1757 124.173 88.4868 123.515 88.9494C122.735 89.5077 122.128 90.2749 121.765 91.1627C121.403 92.0929 121.129 93.0554 120.949 94.0374C120.771 94.9856 120.472 95.9069 120.059 96.7787C119.511 97.8545 118.731 98.7953 117.776 99.5332C116.82 100.271 115.713 100.788 114.533 101.045C113.523 101.261 112.483 101.294 111.461 101.141C110.731 101.003 110.336 100.875 110.325 100.912Z" fill="#455A64"/>
<path d="M124.389 110.763C124.389 110.763 124.469 110.726 124.603 110.619C124.805 110.467 124.984 110.288 125.136 110.086C125.679 109.348 126.007 108.475 126.085 107.563C126.205 106.225 126.05 104.877 125.632 103.6C125.227 102.16 124.603 100.635 124.363 98.9708C124.119 97.4109 124.429 95.8149 125.237 94.4588C125.892 93.3467 126.861 92.4525 128.021 91.8882C128.808 91.5053 129.657 91.2686 130.528 91.1895C130.853 91.1842 131.177 91.1611 131.499 91.1202C131.181 91.0264 130.848 90.992 130.517 91.0188C129.611 91.0349 128.718 91.2364 127.893 91.6108C126.648 92.1641 125.601 93.083 124.891 94.2455C124.012 95.6813 123.672 97.3823 123.931 99.0455C124.181 100.79 124.827 102.32 125.248 103.728C125.672 104.954 125.853 106.251 125.781 107.547C125.74 108.419 125.472 109.264 125.003 110C124.635 110.507 124.357 110.731 124.389 110.763Z" fill="#455A64"/>
<path d="M160 100.656C164.181 90.9868 158.448 85.0988 154.715 82.9868C152.491 81.7281 149.845 81.4614 147.296 81.3868C144.771 81.2649 142.242 81.4965 139.781 82.0748C137.311 82.6602 135.056 83.9301 133.275 85.7388C130.219 89.0134 129.541 93.8614 129.808 98.3308C130.138 103.616 131.661 108.758 134.261 113.371C134.549 113.989 135.001 114.517 135.568 114.896C135.857 115.074 136.201 115.138 136.535 115.077C136.869 115.016 137.168 114.834 137.376 114.565" fill="#263238"/>
<path d="M152.832 124.8L152.678 119.712C152.678 119.712 158.624 118.725 159.856 110.965C160.47 107.104 160.278 100.779 159.952 95.6054C159.883 94.4996 159.59 93.4192 159.092 92.4297C158.593 91.4401 157.899 90.5619 157.052 89.848C156.205 89.1342 155.221 88.5996 154.161 88.2765C153.102 87.9533 151.987 87.8484 150.886 87.9681L137.43 89.3921C136.749 89.4629 136.121 89.7868 135.668 90.2995C135.216 90.8123 134.973 91.4764 134.987 92.1601L136.774 125.467C136.878 127.517 137.766 129.45 139.255 130.863C140.745 132.277 142.72 133.064 144.774 133.061C145.851 133.07 146.92 132.861 147.915 132.446C148.91 132.031 149.811 131.419 150.563 130.648C151.316 129.876 151.905 128.961 152.295 127.956C152.685 126.951 152.868 125.877 152.832 124.8Z" fill="#B78876"/>
<path d="M158.608 99.9894C158.61 100.249 158.51 100.499 158.331 100.687C158.152 100.875 157.907 100.986 157.648 100.997C157.521 101.007 157.393 100.991 157.273 100.95C157.152 100.91 157.04 100.846 156.945 100.762C156.849 100.678 156.771 100.576 156.715 100.462C156.659 100.348 156.626 100.223 156.619 100.096C156.617 99.837 156.716 99.5874 156.896 99.4003C157.075 99.2132 157.32 99.1031 157.579 99.0934C157.705 99.0832 157.833 99.0985 157.954 99.1382C158.074 99.178 158.186 99.2415 158.282 99.3249C158.378 99.4084 158.456 99.5101 158.512 99.6242C158.568 99.7383 158.601 99.8625 158.608 99.9894Z" fill="#263238"/>
<path d="M158.582 98.8747C158.454 99.0027 157.702 98.4427 156.63 98.448C155.558 98.4534 154.774 98.9814 154.662 98.8534C154.55 98.7254 154.726 98.56 155.072 98.32C155.541 97.9931 156.101 97.8214 156.672 97.8294C157.228 97.8281 157.77 98.0037 158.219 98.3307C158.528 98.5814 158.64 98.816 158.582 98.8747Z" fill="#263238"/>
<path d="M147.878 100.267C147.879 100.526 147.78 100.777 147.601 100.965C147.422 101.153 147.177 101.264 146.918 101.275C146.791 101.284 146.663 101.268 146.542 101.228C146.421 101.188 146.31 101.124 146.214 101.04C146.118 100.956 146.04 100.854 145.984 100.739C145.928 100.625 145.896 100.501 145.888 100.373C145.887 100.114 145.986 99.8649 146.165 99.6777C146.344 99.4906 146.589 99.3805 146.848 99.3708C146.975 99.3614 147.102 99.3771 147.222 99.4172C147.343 99.4572 147.454 99.5207 147.55 99.6041C147.646 99.6874 147.724 99.7889 147.78 99.9026C147.836 100.016 147.869 100.14 147.878 100.267Z" fill="#263238"/>
<path d="M148.053 99.0721C147.931 99.2001 147.173 98.6455 146.107 98.6455C145.04 98.6455 144.251 99.1788 144.133 99.0561C144.016 98.9335 144.203 98.7628 144.544 98.5228C145.013 98.1977 145.573 98.028 146.144 98.0375C146.701 98.0384 147.244 98.2137 147.696 98.5388C148 98.7788 148.112 99.0135 148.053 99.0721Z" fill="#263238"/>
<path d="M151.941 107.013C152.505 106.835 153.089 106.729 153.68 106.699C153.952 106.672 154.213 106.619 154.256 106.432C154.28 106.15 154.217 105.867 154.075 105.621L153.264 103.536C152.144 100.571 151.328 98.1333 151.451 98.0907C151.573 98.048 152.576 100.416 153.701 103.376C153.968 104.112 154.235 104.805 154.475 105.472C154.644 105.8 154.695 106.177 154.619 106.539C154.58 106.636 154.518 106.723 154.44 106.793C154.361 106.862 154.267 106.912 154.165 106.939C154.014 106.981 153.858 107.003 153.701 107.003C153.117 107.079 152.526 107.082 151.941 107.013Z" fill="#263238"/>
<path d="M152.677 119.685C149.024 119.741 145.428 118.78 142.288 116.912C142.288 116.912 144.811 122.245 152.576 121.515L152.677 119.685Z" fill="#AA6550"/>
<path d="M151.467 109.595C151.263 109.338 150.996 109.137 150.693 109.011C150.39 108.885 150.06 108.838 149.733 108.875C149.497 108.897 149.268 108.967 149.059 109.08C148.85 109.192 148.666 109.346 148.517 109.531C148.374 109.709 148.289 109.927 148.274 110.155C148.259 110.383 148.314 110.61 148.432 110.805C148.605 110.998 148.831 111.134 149.082 111.198C149.332 111.261 149.596 111.249 149.84 111.163C150.345 110.981 150.809 110.702 151.205 110.341C151.328 110.257 151.433 110.151 151.515 110.027C151.554 109.967 151.575 109.898 151.575 109.827C151.575 109.756 151.554 109.686 151.515 109.627" fill="#AA6550"/>
<path d="M148.8 107.733C148.971 107.733 148.976 108.885 149.968 109.707C150.96 110.528 152.203 110.405 152.213 110.571C152.213 110.64 151.936 110.795 151.413 110.811C150.732 110.819 150.069 110.587 149.541 110.155C149.034 109.744 148.709 109.15 148.635 108.501C148.581 108.037 148.709 107.733 148.8 107.733Z" fill="#263238"/>
<path d="M148.533 97.1949C148.432 97.4882 147.36 97.3495 146.107 97.5042C144.853 97.6589 143.829 97.9949 143.664 97.7335C143.589 97.6109 143.765 97.3335 144.197 97.0562C144.741 96.7041 145.361 96.4866 146.005 96.4215C146.649 96.342 147.302 96.4189 147.909 96.6455C148.347 96.8322 148.581 97.0669 148.533 97.1949Z" fill="#263238"/>
<path d="M158.187 95.7708C157.995 96.0162 157.259 95.7708 156.374 95.7708C155.488 95.7708 154.736 95.9308 154.56 95.6748C154.486 95.5522 154.603 95.3122 154.934 95.0775C155.371 94.7947 155.886 94.6566 156.406 94.6828C156.926 94.691 157.431 94.8606 157.851 95.1682C158.166 95.4028 158.267 95.6535 158.187 95.7708Z" fill="#263238"/>
<path d="M159.952 95.5787C158.598 88.9654 156.752 91.584 154.667 88.4267C151.648 91.4827 144.699 95.0027 140.459 95.696C140.019 95.7288 139.593 95.8659 139.216 96.096C138.566 96.5813 138.512 97.52 138.512 98.336C138.597 100.635 138.407 102.936 137.947 105.189C137.483 107.457 136.326 109.524 134.635 111.104C132.075 105.712 131.819 99.44 132.966 93.5787C133.435 91.184 134.224 88.6774 136.134 87.1787C137.499 86.112 139.259 85.6533 140.976 85.3387C145.216 84.56 149.702 84.3733 153.739 85.872C157.776 87.3707 160.912 89.248 161.451 93.5254" fill="#263238"/>
<path d="M130.629 90.9335C130.9 91.1249 131.192 91.2842 131.499 91.4082C131.842 91.5797 132.199 91.7242 132.565 91.8402L133.248 92.0802L134.037 92.2775C135.339 92.5866 136.668 92.7653 138.005 92.8108C141.289 92.9338 144.564 92.3895 147.632 91.2108C148.325 90.9015 148.997 90.6508 149.584 90.3148L150.437 89.8562L151.195 89.3708C151.628 89.094 152.041 88.7875 152.432 88.4535L152.923 88.0588L153.296 87.6802C153.539 87.458 153.759 87.2114 153.952 86.9442C153.883 86.8695 152.939 87.9255 151.024 89.1095L150.272 89.5628L149.419 89.9895C148.837 90.3095 148.171 90.5228 147.488 90.8322C145.974 91.3831 144.414 91.7972 142.827 92.0695C141.24 92.3231 139.634 92.4391 138.027 92.4162C136.711 92.386 135.401 92.2379 134.112 91.9735C131.915 91.5148 130.667 90.8482 130.629 90.9335Z" fill="#455A64"/>
<path d="M132.827 85.7068C133.027 85.9108 133.25 86.0899 133.493 86.2401C133.765 86.4425 134.054 86.621 134.357 86.7735L134.917 87.0775L135.573 87.3548C138.003 88.2936 140.59 88.7554 143.195 88.7148C145.784 88.7201 148.366 88.4321 150.891 87.8561C151.861 87.6375 152.635 87.4188 153.157 87.2428C153.438 87.1758 153.709 87.0718 153.963 86.9335C153.963 86.8641 152.763 87.1895 150.832 87.5521C148.315 88.0333 145.758 88.2762 143.195 88.2775C140.64 88.3138 138.099 87.9041 135.685 87.0668C134.71 86.6623 133.756 86.2084 132.827 85.7068Z" fill="#455A64"/>
<path d="M156.672 84.0213C156.672 83.9733 156.406 83.92 155.99 84.0213C155.449 84.1809 154.969 84.4981 154.61 84.9323C154.251 85.3665 154.029 85.8979 153.974 86.4586C153.947 86.8853 154.048 87.136 154.102 87.1306C154.155 87.1253 154.176 86.1066 154.944 85.2106C155.712 84.3146 156.694 84.144 156.672 84.0213Z" fill="#455A64"/>
<path d="M116.587 92.3788C116.531 92.2713 116.452 92.1769 116.358 92.1014C116.088 91.8664 115.753 91.7194 115.398 91.6801C114.838 91.6131 114.272 91.7432 113.798 92.0481C113.472 92.2542 113.212 92.5474 113.045 92.8944C112.878 93.2413 112.812 93.6281 112.854 94.0108C112.905 94.471 113.067 94.9119 113.326 95.2956C113.585 95.6792 113.934 95.9942 114.342 96.2134C114.826 96.4395 115.363 96.5296 115.894 96.4742C116.426 96.4187 116.933 96.2199 117.36 95.8988C117.834 95.5706 118.217 95.1286 118.475 94.6134C118.72 94.0763 118.86 93.4968 118.886 92.9067C118.966 91.7334 118.763 90.5494 118.976 89.3974C119.203 88.3113 119.702 87.3007 120.427 86.4609C121.152 85.6211 122.079 84.9798 123.12 84.5974C123.978 84.304 124.891 84.2091 125.791 84.32C126.691 84.4308 127.554 84.7445 128.315 85.2374C129.366 85.8938 130.215 86.8277 130.768 87.9361C131.152 88.7254 131.232 89.2214 131.302 89.2108C131.308 89.0901 131.293 88.9693 131.259 88.8534C131.19 88.5141 131.085 88.1832 130.944 87.8668C130.429 86.6875 129.58 85.6846 128.502 84.9814C127.758 84.4888 126.924 84.1497 126.048 83.9841C125.032 83.7987 123.984 83.8796 123.008 84.2188C121.892 84.6128 120.897 85.2881 120.119 86.1795C119.341 87.0709 118.806 88.148 118.566 89.3067C118.342 90.5654 118.566 91.7601 118.48 92.8694C118.462 93.4037 118.338 93.9292 118.118 94.4161C117.897 94.8718 117.565 95.2644 117.152 95.5574C116.784 95.8411 116.346 96.0209 115.885 96.0781C115.423 96.1353 114.955 96.0679 114.528 95.8828C114.167 95.6944 113.857 95.4222 113.623 95.0891C113.389 94.7559 113.239 94.3715 113.184 93.9681C113.14 93.6372 113.188 93.3004 113.323 92.9953C113.459 92.6902 113.677 92.4287 113.952 92.2401C114.381 91.9427 114.899 91.8015 115.419 91.8401C115.854 91.8952 116.262 92.0833 116.587 92.3788Z" fill="#263238"/>
<path d="M136.965 95.8774C137.229 95.9387 137.501 95.9602 137.771 95.9414C138.304 95.9414 139.045 95.9414 139.979 95.9414C142.421 95.9006 144.842 95.4833 147.157 94.704C149.497 93.8903 151.541 92.3951 153.024 90.4107C153.458 89.8067 153.808 89.1464 154.064 88.448C154.172 88.1968 154.24 87.9306 154.267 87.6587C153.85 88.5603 153.35 89.421 152.773 90.2294C151.268 92.0952 149.271 93.5028 147.008 94.2934C144.73 95.0551 142.361 95.5072 139.963 95.6374C138.96 95.6623 137.959 95.7424 136.965 95.8774Z" fill="#263238"/>
<path d="M125.952 114.832C125.952 114.832 125.979 115.147 126.32 115.568C126.571 115.86 126.879 116.097 127.224 116.266C127.57 116.434 127.947 116.531 128.331 116.549C129.481 116.58 130.597 116.159 131.44 115.376C131.972 114.918 132.311 114.276 132.389 113.579C132.432 113.191 132.358 112.798 132.177 112.452C131.997 112.106 131.718 111.82 131.376 111.632C131.007 111.461 130.585 111.441 130.202 111.576C129.818 111.712 129.502 111.992 129.323 112.357C129.252 112.54 129.222 112.736 129.236 112.932C129.249 113.127 129.307 113.317 129.403 113.488C129.571 113.808 129.838 114.065 130.165 114.219C130.754 114.466 131.414 114.477 132.011 114.251C132.516 114.075 132.971 113.781 133.339 113.392C133.878 112.847 134.224 112.141 134.325 111.381C134.383 111.11 134.366 110.828 134.277 110.565C134.24 110.565 134.277 110.859 134.16 111.355C134.002 112.05 133.642 112.682 133.125 113.173C132.779 113.511 132.356 113.762 131.893 113.904C131.388 114.084 130.834 114.066 130.341 113.856C130.093 113.748 129.893 113.552 129.778 113.307C129.663 113.062 129.642 112.783 129.717 112.523C129.856 112.269 130.085 112.077 130.359 111.985C130.633 111.893 130.931 111.908 131.195 112.027C131.457 112.18 131.668 112.405 131.805 112.676C131.941 112.946 131.996 113.251 131.963 113.552C131.892 114.144 131.608 114.691 131.163 115.088C130.401 115.814 129.393 116.225 128.341 116.24C127.632 116.229 126.954 115.949 126.443 115.456C126.091 115.093 125.989 114.816 125.952 114.832Z" fill="#263238"/>
<path d="M170.448 209.2C170.448 209.275 151.088 209.339 127.211 209.339C103.334 209.339 83.9683 209.275 83.9683 209.2C83.9683 209.126 103.323 209.062 127.211 209.062C151.099 209.062 170.448 209.126 170.448 209.2Z" fill="#455A64"/>
<path d="M57.1838 178.24C58.1114 178.391 58.9988 178.729 59.7925 179.232C60.5863 179.735 61.27 180.394 61.8025 181.168C62.859 182.724 63.545 184.501 63.8078 186.363C64.4158 189.936 63.4612 194 62.1492 197.376C58.4958 195.68 56.5332 191.467 55.6852 189.221C54.3305 185.723 54.0105 178.555 57.1838 178.24Z" fill="#4285F4"/>
<path d="M67.2 202.133C66.7138 201.202 66.4828 200.159 66.5306 199.11C66.5783 198.061 66.9032 197.043 67.472 196.16C68.0557 195.289 68.8064 194.542 69.6807 193.962C70.5549 193.383 71.5353 192.982 72.5653 192.784C73.5146 192.587 74.592 192.571 75.344 193.179C75.6796 193.485 75.9269 193.875 76.0601 194.31C76.1933 194.744 76.2076 195.206 76.1013 195.648C75.8795 196.53 75.4266 197.336 74.7893 197.984C72.7146 200.272 70.2933 202.133 67.2 202.133Z" fill="#4285F4"/>
<path d="M66.5281 213.797C66.4696 213.554 66.4356 213.306 66.4268 213.056C66.3734 212.523 66.3041 211.851 66.2188 211.035C65.9247 208.8 65.9949 206.532 66.4268 204.32C66.8958 202.099 67.9468 200.043 69.4721 198.363C69.9408 197.865 70.4672 197.424 71.0401 197.051C71.1945 196.947 71.3548 196.853 71.5201 196.768C71.5747 196.733 71.6339 196.706 71.6961 196.688C70.9424 197.218 70.2438 197.821 69.6108 198.491C68.1571 200.169 67.15 202.187 66.6828 204.357C66.0908 206.901 66.3094 209.296 66.4054 210.997C66.4641 211.851 66.5068 212.549 66.5281 213.029C66.5501 213.285 66.5501 213.542 66.5281 213.797Z" fill="#263238"/>
<path d="M57.9146 183.659C57.9633 183.755 58.0043 183.855 58.0372 183.957C58.1172 184.187 58.2239 184.491 58.3519 184.832C58.6132 185.595 58.9866 186.704 59.4186 188.08C60.3092 190.827 61.4879 194.635 62.6986 198.875C63.9092 203.115 64.9119 206.976 65.5999 209.776C65.9466 211.179 66.2132 212.315 66.3892 213.104C66.4746 213.477 66.5386 213.776 66.5866 214.011C66.6165 214.117 66.6344 214.226 66.6399 214.336C66.5985 214.236 66.5646 214.132 66.5386 214.027L66.2932 213.131C66.0799 212.315 65.7599 211.195 65.4186 209.824C64.6879 207.035 63.6532 203.184 62.4479 198.944C61.2426 194.704 60.0852 190.896 59.2479 188.133C58.8319 186.779 58.4959 185.669 58.2452 184.864C58.1386 184.501 58.0532 184.203 57.9839 183.973C57.9476 183.872 57.9243 183.766 57.9146 183.659Z" fill="#263238"/>
<path d="M62.7572 205.675C61.7998 203.681 60.3814 201.944 58.6192 200.608C56.857 199.271 54.8019 198.374 52.6239 197.989C51.5146 197.803 50.1546 197.867 49.5626 198.821C48.9706 199.776 49.5306 201.029 50.2132 201.925C51.6748 203.766 53.6483 205.133 55.8852 205.854C58.1221 206.576 60.5224 206.619 62.7839 205.979" fill="#4285F4"/>
<path d="M54.0372 201.131C54.2706 201.14 54.5026 201.17 54.7305 201.221C55.0018 201.264 55.2707 201.321 55.5359 201.392C55.8452 201.483 56.2079 201.547 56.6025 201.691C57.025 201.826 57.4398 201.985 57.8452 202.165C58.3121 202.362 58.7679 202.585 59.2105 202.832C60.2261 203.407 61.1742 204.094 62.0372 204.88C62.8826 205.681 63.6341 206.576 64.2772 207.547C64.555 207.974 64.8079 208.418 65.0345 208.875C65.2386 209.266 65.4167 209.671 65.5679 210.085C65.7041 210.423 65.8216 210.769 65.9199 211.12C66.0063 211.38 66.0757 211.646 66.1279 211.915C66.1875 212.142 66.2267 212.374 66.2452 212.608C66.1865 212.608 66.0105 211.632 65.3972 210.155C65.231 209.75 65.0423 209.354 64.8319 208.971C64.6017 208.527 64.3471 208.096 64.0692 207.68C62.7952 205.764 61.0889 204.175 59.0879 203.04C58.6543 202.788 58.2075 202.56 57.7492 202.357C57.3279 202.149 56.9119 202.005 56.5385 201.861C55.0185 201.333 54.0265 201.189 54.0372 201.131Z" fill="#263238"/>
<path d="M186.885 39.9999C182.817 39.7258 178.748 40.5068 175.07 42.2672C171.393 44.0277 168.233 46.708 165.896 50.0484C163.558 53.3889 162.123 57.2764 161.729 61.3343C161.336 65.3922 161.996 69.483 163.648 73.2106C166.4 79.4346 171.733 84.2666 174.085 90.6666C175.685 95.0292 175.824 99.8399 177.472 104.187C180.858 113.125 191.2 118.811 200.56 116.885C206.181 115.733 211.226 112.219 216.965 111.861C223.109 111.477 230.106 114.603 234.976 110.827C238.378 108.187 238.954 103.12 237.722 98.9972C236.49 94.8746 233.834 91.3546 231.653 87.6426C229.472 83.9306 227.696 79.6426 228.506 75.4132C229.237 71.5786 231.957 68.4799 233.664 64.9652C235.274 61.6607 235.985 57.9905 235.726 54.3238C235.467 50.6572 234.247 47.1233 232.189 44.0776C230.131 41.032 227.308 38.5819 224.002 36.9739C220.697 35.3658 217.026 34.6565 213.36 34.9172C208.474 35.2639 203.893 37.3012 199.194 38.6506C194.496 39.9999 192.144 40.1812 186.885 39.9999Z" fill="#F5F5F5"/>
<path d="M198.603 55.6747C198.603 55.6747 189.563 55.584 186.453 63.44C183.344 71.296 186.907 75.088 188.299 77.3973C189.691 79.7067 193.429 84.7307 193.461 89.4667L205.605 89.3867C206.235 85.1945 207.685 81.1675 209.872 77.536C213.504 71.488 213.072 67.0773 212.08 64.4427C211.088 61.808 207.851 55.2853 198.603 55.6747Z" fill="#FFCD36"/>
<path d="M201.36 89.0665L201.328 88.8745C201.328 88.7411 201.28 88.5598 201.243 88.3411C201.168 87.8398 201.067 87.1198 200.933 86.2078C200.683 84.3465 200.309 81.6425 200.075 78.2825C200.016 77.4398 199.968 76.5598 199.941 75.6158C199.915 74.6718 199.893 73.7385 199.941 72.7465C199.983 71.7111 200.224 70.6934 200.651 69.7491C201.116 68.7341 201.937 67.9254 202.96 67.4771C203.509 67.2606 204.11 67.2073 204.689 67.3236C205.268 67.44 205.801 67.7211 206.224 68.1331C206.443 68.3476 206.616 68.6041 206.734 68.8873C206.851 69.1706 206.91 69.4746 206.907 69.7811C206.887 70.4048 206.667 71.0055 206.277 71.4931C205.893 71.9903 205.393 72.3858 204.821 72.6451C204.252 72.911 203.652 73.1045 203.035 73.2211C201.784 73.4695 200.513 73.6051 199.237 73.6265C197.964 73.6611 196.69 73.588 195.429 73.4078C194.808 73.3096 194.202 73.1303 193.627 72.8745C193.059 72.6234 192.547 72.2606 192.123 71.8078C191.701 71.3595 191.407 70.8073 191.269 70.2078C191.143 69.6069 191.223 68.9808 191.499 68.4318C191.759 67.8862 192.211 67.4553 192.768 67.2211C193.044 67.1214 193.338 67.0785 193.631 67.095C193.924 67.1115 194.211 67.187 194.475 67.3171C194.984 67.5678 195.419 67.9464 195.739 68.4158C196.035 68.8576 196.25 69.3489 196.373 69.8665C196.551 70.8773 196.642 71.9015 196.645 72.9278C196.731 74.9065 196.811 76.7465 196.88 78.4318C197.019 81.7865 197.125 84.5065 197.205 86.3945C197.237 87.3331 197.264 88.0585 197.285 88.5598C197.285 88.8051 197.285 88.9918 197.285 89.1251C197.285 89.2585 197.285 89.3171 197.285 89.3171V89.1251C197.285 88.9918 197.285 88.8051 197.253 88.5918C197.253 88.0905 197.184 87.3598 197.136 86.4265C197.045 84.5385 196.917 81.8185 196.752 78.4638C196.677 76.7838 196.587 74.9385 196.496 72.9651C196.49 71.9475 196.397 70.9323 196.219 69.9305C196.109 69.4156 195.904 68.9256 195.616 68.4851C195.314 68.0406 194.9 67.6836 194.416 67.4505C194.174 67.3293 193.909 67.2587 193.639 67.2432C193.368 67.2276 193.097 67.2673 192.843 67.3598C192.328 67.578 191.912 67.9788 191.675 68.4851C191.416 68.9974 191.341 69.5828 191.461 70.1438C191.592 70.7177 191.873 71.2463 192.277 71.6745C193.137 72.543 194.264 73.0955 195.477 73.2425C196.726 73.4231 197.987 73.4962 199.248 73.4611C200.511 73.4396 201.769 73.3057 203.008 73.0611C203.612 72.9472 204.199 72.7591 204.757 72.5011C205.298 72.2591 205.775 71.8938 206.149 71.4345C206.512 70.9777 206.719 70.4172 206.741 69.8345C206.745 69.5509 206.691 69.2694 206.583 69.0073C206.475 68.7451 206.315 68.5076 206.112 68.3091C205.714 67.9216 205.212 67.6571 204.667 67.5474C204.122 67.4377 203.557 67.4873 203.04 67.6905C202.055 68.121 201.262 68.8969 200.811 69.8718C200.393 70.7981 200.156 71.7954 200.112 72.8105C200.048 73.7918 200.075 74.7465 200.112 75.6638C200.149 76.5811 200.181 77.4611 200.229 78.2985C200.448 81.6585 200.805 84.3571 201.035 86.2291L201.307 88.3625C201.335 88.6007 201.356 88.7874 201.371 88.9225C201.369 88.9706 201.366 89.0186 201.36 89.0665Z" fill="#263238"/>
<path d="M193.456 89.2906L205.642 89.0986L205.776 96.8L202.234 101.024L197.562 101.221L193.605 96.496L193.456 89.2906Z" fill="#E0E0E0"/>
<path d="M202.234 101.024C201.917 100.7 201.537 100.444 201.116 100.273C200.696 100.103 200.245 100.02 199.792 100.032C199.344 100.06 198.907 100.181 198.509 100.389C198.111 100.596 197.761 100.886 197.482 101.237L202.234 101.024Z" fill="#455A64"/>
<path d="M205.451 96.1653C205.296 96.1204 205.148 96.0578 205.008 95.9786C204.731 95.8453 204.32 95.6693 203.803 95.4826C201.075 94.5114 198.087 94.574 195.403 95.6586C194.896 95.8666 194.491 96.0586 194.219 96.1919C194.079 96.2709 193.935 96.3404 193.787 96.3999C193.907 96.2945 194.04 96.2032 194.181 96.1279C194.558 95.9001 194.95 95.6987 195.355 95.5253C198.052 94.3542 201.102 94.291 203.845 95.3493C204.254 95.502 204.653 95.6801 205.04 95.8826C205.184 95.9652 205.322 96.0597 205.451 96.1653Z" fill="#263238"/>
<path d="M205.466 94.2986C205.314 94.2447 205.167 94.1806 205.024 94.1066C204.746 93.9786 204.336 93.7973 203.818 93.6159C202.466 93.1398 201.039 92.9086 199.605 92.9333C198.169 92.9653 196.751 93.2562 195.418 93.7919C194.885 93.9946 194.506 94.1919 194.234 94.3253C194.099 94.4111 193.954 94.4809 193.802 94.5333C193.926 94.4322 194.058 94.3412 194.197 94.2613C194.575 94.0377 194.967 93.8382 195.37 93.6639C198.068 92.4929 201.117 92.4297 203.861 93.4879C204.272 93.6361 204.671 93.8144 205.056 94.0213C205.203 94.097 205.341 94.1901 205.466 94.2986Z" fill="#263238"/>
<path d="M205.371 92.5173C205.219 92.4706 205.072 92.4081 204.933 92.3306C204.651 92.1973 204.24 92.0213 203.723 91.8346C202.37 91.3574 200.943 91.1262 199.509 91.152C198.076 91.1892 196.66 91.4799 195.328 92.0106C194.795 92.2186 194.416 92.4106 194.144 92.544C194.004 92.625 193.858 92.6946 193.707 92.752C193.829 92.6458 193.963 92.5545 194.107 92.48C194.482 92.2531 194.872 92.0517 195.275 91.8773C197.974 90.7082 201.025 90.645 203.771 91.7013C204.179 91.854 204.578 92.0321 204.965 92.2346C205.109 92.3161 205.244 92.4107 205.371 92.5173Z" fill="#263238"/>
<g opacity="0.2">
<path d="M192 77.4132C191.834 77.5999 191.413 77.5679 190.805 77.2532C189.971 76.7799 189.245 76.1389 188.672 75.3706C187.796 74.2315 187.159 72.9272 186.8 71.5359C186.332 69.7925 186.29 67.9624 186.676 66.1992C187.062 64.436 187.865 62.7911 189.018 61.4026C189.924 60.2864 191.047 59.3663 192.32 58.6986C193.158 58.2394 194.082 57.9596 195.034 57.8772C195.712 57.8452 196.101 57.9892 196.186 58.2292C196.341 58.7626 195.205 59.4772 193.85 60.8532C193.069 61.632 192.38 62.4981 191.797 63.4346C191.111 64.5316 190.613 65.7358 190.325 66.9972C190.063 68.2636 190.011 69.5645 190.17 70.8479C190.312 71.9409 190.577 73.0144 190.96 74.0479C191.621 75.8666 192.352 77.0079 192 77.4132Z" fill="white"/>
</g>
<g opacity="0.2">
<path d="M195.893 81.7226C195.858 82.0515 195.728 82.3631 195.519 82.6194C195.31 82.8758 195.031 83.0659 194.716 83.1667C194.401 83.2675 194.063 83.2745 193.744 83.187C193.425 83.0994 193.139 82.9211 192.919 82.6736C192.7 82.4262 192.557 82.1203 192.508 81.7932C192.459 81.466 192.506 81.1318 192.644 80.831C192.782 80.5302 193.004 80.2759 193.283 80.0991C193.563 79.9222 193.888 79.8303 194.218 79.8346C194.689 79.8662 195.129 80.082 195.443 80.4353C195.756 80.7886 195.918 81.251 195.893 81.7226Z" fill="white"/>
</g>
<path d="M184.026 58.5225C183.994 58.5599 182.426 57.4559 180.57 56.0265C178.714 54.5972 177.2 53.4185 177.226 53.3599C177.253 53.3012 178.826 54.4265 180.682 55.8559C182.538 57.2852 184.058 58.4799 184.026 58.5225Z" fill="#263238"/>
<path d="M186.581 55.1358C186.054 54.6282 185.57 54.0769 185.136 53.4878C184.653 52.9397 184.216 52.3528 183.829 51.7332C184.359 52.2399 184.844 52.7913 185.28 53.3812C185.764 53.9272 186.199 54.5143 186.581 55.1358Z" fill="#263238"/>
<path d="M192.144 54.3572C192.096 54.3572 191.477 52.6559 190.762 50.5226C190.048 48.3892 189.509 46.6399 189.557 46.6239C189.605 46.6079 190.224 48.3252 190.939 50.4586C191.653 52.5919 192.192 54.3412 192.144 54.3572Z" fill="#263238"/>
<path d="M198.976 52.8798C198.797 52.245 198.675 51.5952 198.613 50.9385C198.491 50.2897 198.432 49.6306 198.437 48.9705C198.617 49.6051 198.739 50.255 198.8 50.9118C198.922 51.5606 198.981 52.2196 198.976 52.8798Z" fill="#263238"/>
<path d="M205.68 55.1945C205.626 55.1945 206.144 53.1519 206.832 50.6612C207.52 48.1705 208.122 46.1599 208.17 46.1759C208.218 46.1919 207.701 48.2185 207.013 50.7092C206.325 53.1999 205.728 55.2105 205.68 55.1945Z" fill="#263238"/>
<path d="M211.328 57.9839C211.653 57.3207 212.033 56.6857 212.464 56.0852C212.84 55.4511 213.272 54.8514 213.754 54.2932C213.429 54.9564 213.049 55.5914 212.618 56.1919C212.242 56.826 211.81 57.4257 211.328 57.9839Z" fill="#263238"/>
<path d="M220.266 56.8159C220.293 56.8586 218.725 58.0426 216.757 59.4826C214.789 60.9226 213.173 62.0212 213.141 61.9786C213.109 61.9359 214.682 60.7519 216.65 59.3119C218.618 57.8719 220.266 56.7732 220.266 56.8159Z" fill="#263238"/>
</svg>