<svg width="353" height="231" viewBox="0 0 353 231" fill="none" xmlns="http://www.w3.org/2000/svg">
<path opacity="0.3" d="M353 198.916H0V199.092H353V198.916Z" fill="#EBEBEB"/>
<path opacity="0.3" d="M317.63 210.275H294.247V210.452H317.63V210.275Z" fill="#EBEBEB"/>
<path d="M233.841 212.195H227.706V212.372H233.841V212.195Z" fill="#EBEBEB"/>
<path opacity="0.3" d="M293.54 203.723H279.992V203.9H293.54V203.723Z" fill="#EBEBEB"/>
<path opacity="0.3" d="M67.5292 204.91H37.0371V205.086H67.5292V204.91Z" fill="#EBEBEB"/>
<path opacity="0.3" d="M78.2893 204.91H73.8203V205.086H78.2893V204.91Z" fill="#EBEBEB"/>
<path opacity="0.3" d="M158.956 207.889H92.8184V208.065H158.956V207.889Z" fill="#EBEBEB"/>
<path d="M223.478 128.35H308.303C308.303 129.849 307.724 131.29 306.688 132.372C305.652 133.455 304.237 134.095 302.74 134.161C293.626 134.577 279.597 136.018 275.157 141.058C266.861 150.462 267.666 183.489 277.6 191.135C280.706 193.535 289.785 198.294 289.785 198.294H241.996C241.996 198.294 250.468 193.437 253.426 191.135C263.31 183.425 263.585 150.42 255.255 141.058C250.983 136.258 237.838 134.704 229.02 134.217C227.521 134.134 226.11 133.48 225.08 132.388C224.049 131.297 223.475 129.852 223.478 128.35Z" fill="#F5F5F5"/>
<path d="M297.792 134.472C289.178 135.178 278.857 136.866 275.157 141.059C273.949 142.508 272.995 144.15 272.333 145.917H258.107C257.437 144.155 256.483 142.514 255.283 141.059C251.57 136.887 241.163 135.171 232.691 134.472H297.792Z" fill="#E6E6E6"/>
<path d="M259.611 128.394L260.768 115.213H244.043L242.893 128.394H259.611Z" fill="#EBEBEB"/>
<path d="M259.61 128.394L260.768 115.213H261.665L260.514 128.394H259.61Z" fill="#E0E0E0"/>
<path d="M258.023 127.052L258.941 116.554H245.633L244.715 127.052H258.023Z" fill="#F0F0F0"/>
<path d="M257.005 126.183L257.768 117.422H246.655L245.886 126.183H257.005Z" fill="#FAFAFA"/>
<path d="M265.032 128.351H281.828L279.964 107.051H263.168L265.032 128.351Z" fill="#E6E6E6"/>
<path d="M265.032 128.351H264.234L262.37 107.051H263.168L265.032 128.351Z" fill="#E0E0E0"/>
<path d="M266.558 126.184H279.929L278.447 109.226H265.075L266.558 126.184Z" fill="#F0F0F0"/>
<path d="M267.532 124.785H278.708L277.466 110.623H266.297L267.532 124.785Z" fill="#FAFAFA"/>
<path d="M273.179 116.991C272.998 117.173 272.784 117.317 272.548 117.415C272.311 117.513 272.058 117.564 271.802 117.564C271.546 117.564 271.293 117.513 271.057 117.415C270.82 117.317 270.606 117.173 270.425 116.991C270.063 116.626 269.859 116.133 269.859 115.618C269.859 115.104 270.063 114.61 270.425 114.245C270.792 113.882 271.286 113.678 271.802 113.678C272.318 113.678 272.813 113.882 273.179 114.245C273.541 114.61 273.745 115.104 273.745 115.618C273.745 116.133 273.541 116.626 273.179 116.991Z" fill="#EBEBEB"/>
<path d="M272.353 119.378C272.485 119.244 272.641 119.138 272.814 119.066C272.987 118.994 273.172 118.956 273.359 118.956C273.547 118.956 273.732 118.994 273.905 119.066C274.077 119.138 274.234 119.244 274.365 119.378C274.57 119.574 274.71 119.828 274.768 120.105C274.826 120.383 274.799 120.671 274.691 120.933C274.583 121.195 274.398 121.419 274.161 121.574C273.925 121.73 273.646 121.811 273.363 121.806C273.079 121.812 272.8 121.732 272.562 121.577C272.324 121.422 272.138 121.199 272.029 120.936C271.92 120.674 271.893 120.385 271.95 120.107C272.008 119.829 272.149 119.575 272.353 119.378Z" fill="#F0F0F0"/>
<path d="M57.6952 104.072L136.901 104.072V16.4715L57.6952 16.4715L57.6952 104.072Z" fill="#E0E0E0"/>
<path d="M55.1663 104.072L137.316 104.072V16.4715L55.1663 16.4715L55.1663 104.072Z" fill="#F0F0F0"/>
<path d="M58.6473 100.04L133.978 100.04V19.2596L58.6473 19.2596L58.6473 100.04Z" fill="white"/>
<path d="M58.6397 100.04H60.8213L60.8213 19.2596H58.6397L58.6397 100.04Z" fill="#E0E0E0"/>
<path d="M60.5889 77.3491V79.5306H134.168V77.3491H60.5889Z" fill="#E0E0E0"/>
<path d="M58.6394 77.3493L135.142 77.3493V73.6922L58.6394 73.6922V77.3493Z" fill="#F0F0F0"/>
<path d="M267.144 31.4671C267.144 31.4671 267.85 26.8075 264.454 23.8211C261.058 20.8347 261.355 19.0556 262.336 18.8226C263.317 18.5896 264.2 21.5831 265.697 22.402C265.697 22.402 265.746 18.166 264.228 16.5775C262.71 14.989 261.912 10.9719 263.36 10.9295C264.807 10.8871 264.948 13.3299 265.252 15.0808C265.555 16.8317 267.158 19.3168 267.158 19.3168C267.158 19.3168 267.469 15.5044 268.45 13.9371C269.431 12.3698 266.819 8.78327 267.829 7.21595C268.838 5.64863 270.653 8.62795 270.476 11.9956C270.3 15.3632 268.09 18.9426 268.612 22.4514C268.612 22.4514 269.601 19.9875 270.483 19.7616C271.366 19.5357 272.269 17.9119 272.862 17.3047C273.456 16.6975 274.211 18.7944 272.862 20.7359C271.514 22.6774 268.09 27.8735 268.626 32.0672L267.144 31.4671Z" fill="#E6E6E6"/>
<path d="M265.111 29.3481L263.995 36.3305C263.91 36.8401 263.938 37.3621 264.077 37.8597C264.217 38.3572 264.463 38.8182 264.8 39.21C265.136 39.6019 265.555 39.9151 266.026 40.1275C266.497 40.3399 267.009 40.4464 267.525 40.4394H268.711C269.228 40.4464 269.74 40.3399 270.21 40.1275C270.681 39.9151 271.1 39.6019 271.437 39.21C271.773 38.8182 272.02 38.3572 272.159 37.8597C272.298 37.3621 272.326 36.8401 272.241 36.3305L271.105 29.3481H265.111Z" fill="#F5F5F5"/>
<path d="M281.934 37.8625H203.285V41.9009H281.934V37.8625Z" fill="#E6E6E6"/>
<path d="M210.374 22.9667H206.907V37.8633H210.374V22.9667Z" fill="#F0F0F0"/>
<path d="M227.129 22.9667H223.662V37.8633H227.129V22.9667Z" fill="#F0F0F0"/>
<path d="M246.149 22.5877L242.733 23.1765L245.264 37.8566L248.68 37.2678L246.149 22.5877Z" fill="#F0F0F0"/>
<path d="M214.668 24.929H211.201V37.8629H214.668V24.929Z" fill="#F0F0F0"/>
<path d="M222.63 24.929H219.163V37.8629H222.63V24.929Z" fill="#F0F0F0"/>
<path d="M242.737 24.929H239.271V37.8629H242.737V24.929Z" fill="#F0F0F0"/>
<path d="M231.678 24.4721L228.294 25.2241L231.1 37.85L234.484 37.0979L231.678 24.4721Z" fill="#F0F0F0"/>
<path d="M217.66 22.2253H215.931V37.8632H217.66V22.2253Z" fill="#F0F0F0"/>
<path d="M238.268 22.2253H236.538V37.8632H238.268V22.2253Z" fill="#F0F0F0"/>
<path d="M203.292 72.0689L281.94 72.0689V68.0306L203.292 68.0306V72.0689Z" fill="#E6E6E6"/>
<path d="M274.854 68.0302H278.32V53.1336H274.854V68.0302Z" fill="#F0F0F0"/>
<path d="M258.099 68.0302H261.565V53.1336H258.099V68.0302Z" fill="#F0F0F0"/>
<path d="M236.555 67.4275L239.971 68.0164L242.501 53.3362L239.085 52.7474L236.555 67.4275Z" fill="#F0F0F0"/>
<path d="M270.56 68.0302H274.026V55.0962H270.56V68.0302Z" fill="#F0F0F0"/>
<path d="M262.596 68.0302H266.062V55.0962H262.596V68.0302Z" fill="#F0F0F0"/>
<path d="M242.491 68.0302H245.957V55.0962H242.491V68.0302Z" fill="#F0F0F0"/>
<path d="M250.752 67.262L254.136 68.014L256.942 55.3882L253.558 54.6361L250.752 67.262Z" fill="#F0F0F0"/>
<path d="M267.567 68.0302H269.297V52.3923H267.567V68.0302Z" fill="#F0F0F0"/>
<path d="M246.958 68.0302H248.688V52.3923H246.958V68.0302Z" fill="#F0F0F0"/>
<path d="M210.839 67.8964H227.72V56.2404H210.839V67.8964Z" fill="#F5F5F5"/>
<path d="M176.501 230.8C252.101 230.8 313.387 227.222 313.387 222.808C313.387 218.394 252.101 214.816 176.501 214.816C100.9 214.816 39.6143 218.394 39.6143 222.808C39.6143 227.222 100.9 230.8 176.501 230.8Z" fill="#AC3733"/>
<path d="M234.724 205.15C234.724 205.15 231.194 197.525 235.219 189.999C239.243 182.473 240.372 180.708 237.831 179.169C235.289 177.63 234.11 185.22 234.11 185.22C232.846 181.806 232.714 178.075 233.736 174.58C235.508 169.137 236.623 160.277 234.202 159.324C231.78 158.371 233.743 170.38 231.639 174.474C230.568 171.602 229.878 168.602 229.585 165.551C229.295 161.181 229.747 154.198 227.834 152.412C225.921 150.626 224.699 151.854 226.577 161.505C227.706 167.267 228.329 173.116 228.441 178.986C228.441 178.986 224.297 166.334 221.508 165.967C218.719 165.6 218.726 169.695 221.113 173.246C223.499 176.797 228.095 183.165 228.843 186.441C228.843 186.441 224.29 176.924 220.195 179.84C216.1 182.756 223.76 188.51 227.177 190.585C230.594 192.661 232.966 205.687 232.966 205.687L234.724 205.15Z" fill="#C9433F"/>
<path opacity="0.2" d="M234.724 205.15C234.724 205.15 231.194 197.525 235.219 189.999C239.243 182.473 240.372 180.708 237.831 179.169C235.289 177.63 234.11 185.22 234.11 185.22C232.846 181.806 232.714 178.075 233.736 174.58C235.508 169.137 236.623 160.277 234.202 159.324C231.78 158.371 233.743 170.38 231.639 174.474C230.568 171.602 229.878 168.602 229.585 165.551C229.295 161.181 229.747 154.198 227.834 152.412C225.921 150.626 224.699 151.854 226.577 161.505C227.706 167.267 228.329 173.116 228.441 178.986C228.441 178.986 224.297 166.334 221.508 165.967C218.719 165.6 218.726 169.695 221.113 173.246C223.499 176.797 228.095 183.165 228.843 186.441C228.843 186.441 224.29 176.924 220.195 179.84C216.1 182.756 223.76 188.51 227.177 190.585C230.594 192.661 232.966 205.687 232.966 205.687L234.724 205.15Z" fill="black"/>
<path d="M231.964 208.278C231.964 208.278 235.367 200.597 231.258 193.141C227.149 185.686 225.991 183.921 228.519 182.347C231.046 180.772 232.303 188.305 232.303 188.305C233.527 184.875 233.614 181.142 232.55 177.659C230.714 172.251 229.493 163.405 231.908 162.416C234.322 161.428 232.501 173.465 234.647 177.525C235.686 174.636 236.341 171.624 236.595 168.565C236.835 164.195 236.299 157.22 238.191 155.406C240.083 153.591 241.319 154.805 239.554 164.478C238.492 170.254 237.94 176.113 237.902 181.986C237.902 181.986 241.897 169.278 244.679 168.869C247.461 168.46 247.503 172.554 245.159 176.141C242.815 179.727 238.304 186.166 237.584 189.449C237.584 189.449 242.025 179.861 246.155 182.721C250.285 185.58 242.695 191.44 239.306 193.572C235.918 195.704 233.701 208.758 233.701 208.758L231.964 208.278Z" fill="#C9433F"/>
<path d="M247.666 202.807H219.539L221.819 222.935H245.393L247.666 202.807Z" fill="#263238"/>
<path opacity="0.2" d="M302.909 2.64832H154.254C153.287 2.64832 152.503 3.43221 152.503 4.39919V136.435C152.503 137.402 153.287 138.186 154.254 138.186H302.909C303.876 138.186 304.66 137.402 304.66 136.435V4.39919C304.66 3.43221 303.876 2.64832 302.909 2.64832Z" fill="black"/>
<path d="M297.156 0.141846H148.501C147.534 0.141846 146.75 0.925744 146.75 1.89273V133.929C146.75 134.896 147.534 135.68 148.501 135.68H297.156C298.123 135.68 298.907 134.896 298.907 133.929V1.89273C298.907 0.925744 298.123 0.141846 297.156 0.141846Z" fill="#C9433F"/>
<path opacity="0.6" d="M146.749 12.2499V133.936C146.713 134.354 146.84 134.769 147.103 135.096C147.366 135.422 147.745 135.634 148.161 135.687H297.452C297.876 135.644 298.265 135.436 298.537 135.109C298.809 134.782 298.942 134.36 298.906 133.936V12.2499H146.749Z" fill="white"/>
<path d="M297.098 19.3878H148.549V126.89H297.098V19.3878Z" fill="white"/>
<path opacity="0.6" d="M293.937 8.51455C295.169 8.51455 296.168 7.31026 296.168 5.82469C296.168 4.33912 295.169 3.13483 293.937 3.13483C292.705 3.13483 291.706 4.33912 291.706 5.82469C291.706 7.31026 292.705 8.51455 293.937 8.51455Z" fill="white"/>
<path opacity="0.6" d="M286.629 8.51455C287.862 8.51455 288.86 7.31026 288.86 5.82469C288.86 4.33912 287.862 3.13483 286.629 3.13483C285.397 3.13483 284.398 4.33912 284.398 5.82469C284.398 7.31026 285.397 8.51455 286.629 8.51455Z" fill="white"/>
<path opacity="0.6" d="M281.547 5.82469C281.547 7.30729 280.551 8.50749 279.316 8.50749C278.08 8.50749 277.092 7.30729 277.092 5.82469C277.092 4.34209 278.087 3.13483 279.316 3.13483C280.544 3.13483 281.547 4.33503 281.547 5.82469Z" fill="white"/>
<path d="M180.2 31.9397V59.6643L173.07 68.2634H157.276V31.9397H180.2Z" fill="#C9433F"/>
<path opacity="0.7" d="M180.2 31.9397V59.6643L173.07 68.2634H157.276V31.9397H180.2Z" fill="white"/>
<path opacity="0.3" d="M180.2 59.6642L173.069 68.2633V59.6642H180.2Z" fill="#C9433F"/>
<path opacity="0.3" d="M176.648 37.1786H160.834V38.2165H176.648V37.1786Z" fill="#C9433F"/>
<path opacity="0.3" d="M176.648 41.1182H160.834V42.156H176.648V41.1182Z" fill="#C9433F"/>
<path opacity="0.3" d="M176.648 45.0647H160.834V46.1096H176.648V45.0647Z" fill="#C9433F"/>
<path opacity="0.3" d="M176.648 49.0112H160.834V50.049H176.648V49.0112Z" fill="#C9433F"/>
<path opacity="0.3" d="M172.561 52.9576H160.834V54.0025H172.561V52.9576Z" fill="#C9433F"/>
<path d="M216.559 31.9397V59.6643L209.428 68.2634H193.635V31.9397H216.559Z" fill="#C9433F"/>
<path opacity="0.7" d="M216.559 31.9397V59.6643L209.428 68.2634H193.635V31.9397H216.559Z" fill="white"/>
<path opacity="0.3" d="M216.558 59.6642L209.428 68.2633V59.6642H216.558Z" fill="#C9433F"/>
<path opacity="0.3" d="M213.001 37.1786H197.187V38.2165H213.001V37.1786Z" fill="#C9433F"/>
<path opacity="0.3" d="M213.001 41.1182H197.187V42.156H213.001V41.1182Z" fill="#C9433F"/>
<path opacity="0.3" d="M213.001 45.0647H197.187V46.1096H213.001V45.0647Z" fill="#C9433F"/>
<path opacity="0.3" d="M213.001 49.0112H197.187V50.049H213.001V49.0112Z" fill="#C9433F"/>
<path opacity="0.3" d="M208.913 52.9576H197.187V54.0025H208.913V52.9576Z" fill="#C9433F"/>
<path d="M252.918 31.9397V59.6643L245.787 68.2634H229.994V31.9397H252.918Z" fill="#C9433F"/>
<path opacity="0.7" d="M252.918 31.9397V59.6643L245.787 68.2634H229.994V31.9397H252.918Z" fill="white"/>
<path opacity="0.3" d="M252.918 59.6642L245.787 68.2633V59.6642H252.918Z" fill="#C9433F"/>
<path opacity="0.3" d="M249.359 37.1786H233.545V38.2165H249.359V37.1786Z" fill="#C9433F"/>
<path opacity="0.3" d="M249.359 41.1182H233.545V42.156H249.359V41.1182Z" fill="#C9433F"/>
<path opacity="0.3" d="M249.359 45.0647H233.545V46.1096H249.359V45.0647Z" fill="#C9433F"/>
<path opacity="0.3" d="M249.359 49.0112H233.545V50.049H249.359V49.0112Z" fill="#C9433F"/>
<path opacity="0.3" d="M245.272 52.9576H233.545V54.0025H245.272V52.9576Z" fill="#C9433F"/>
<path d="M289.276 31.9397V59.6643L282.139 68.2634H266.353V31.9397H289.276Z" fill="#C9433F"/>
<path opacity="0.7" d="M289.276 31.9397V59.6643L282.139 68.2634H266.353V31.9397H289.276Z" fill="white"/>
<path opacity="0.3" d="M289.276 59.6642L282.139 68.2633V59.6642H289.276Z" fill="#C9433F"/>
<path opacity="0.3" d="M285.719 37.1786H269.904V38.2165H285.719V37.1786Z" fill="#C9433F"/>
<path opacity="0.3" d="M285.719 41.1182H269.904V42.156H285.719V41.1182Z" fill="#C9433F"/>
<path opacity="0.3" d="M285.719 45.0647H269.904V46.1096H285.719V45.0647Z" fill="#C9433F"/>
<path opacity="0.3" d="M285.719 49.0112H269.904V50.049H285.719V49.0112Z" fill="#C9433F"/>
<path opacity="0.3" d="M281.631 52.9576H269.904V54.0025H281.631V52.9576Z" fill="#C9433F"/>
<path d="M180.2 79.9478V107.672L173.07 116.271H157.276V79.9478H180.2Z" fill="#C9433F"/>
<path opacity="0.7" d="M180.2 79.9478V107.672L173.07 116.271H157.276V79.9478H180.2Z" fill="white"/>
<path opacity="0.3" d="M180.2 107.672L173.069 116.271V107.672H180.2Z" fill="#C9433F"/>
<path opacity="0.3" d="M176.648 85.1867H160.834V86.2245H176.648V85.1867Z" fill="#C9433F"/>
<path opacity="0.3" d="M176.648 89.1263H160.834V90.1641H176.648V89.1263Z" fill="#C9433F"/>
<path opacity="0.3" d="M176.648 93.0728H160.834V94.1176H176.648V93.0728Z" fill="#C9433F"/>
<path opacity="0.3" d="M176.648 97.0192H160.834V98.0641H176.648V97.0192Z" fill="#C9433F"/>
<path opacity="0.3" d="M172.561 100.966H160.834V102.004H172.561V100.966Z" fill="#C9433F"/>
<path d="M216.559 79.9478V107.672L209.428 116.271H193.635V79.9478H216.559Z" fill="#C9433F"/>
<path opacity="0.7" d="M216.559 79.9478V107.672L209.428 116.271H193.635V79.9478H216.559Z" fill="white"/>
<path opacity="0.3" d="M216.558 107.672L209.428 116.271V107.672H216.558Z" fill="#C9433F"/>
<path opacity="0.3" d="M213.001 85.1867H197.187V86.2245H213.001V85.1867Z" fill="#C9433F"/>
<path opacity="0.3" d="M213.001 89.1263H197.187V90.1641H213.001V89.1263Z" fill="#C9433F"/>
<path opacity="0.3" d="M213.001 93.0728H197.187V94.1176H213.001V93.0728Z" fill="#C9433F"/>
<path opacity="0.3" d="M213.001 97.0192H197.187V98.0641H213.001V97.0192Z" fill="#C9433F"/>
<path opacity="0.3" d="M208.913 100.966H197.187V102.004H208.913V100.966Z" fill="#C9433F"/>
<path d="M252.918 79.9478V107.672L245.787 116.271H229.994V79.9478H252.918Z" fill="#C9433F"/>
<path opacity="0.7" d="M252.918 79.9478V107.672L245.787 116.271H229.994V79.9478H252.918Z" fill="white"/>
<path opacity="0.3" d="M252.918 107.672L245.787 116.271V107.672H252.918Z" fill="#C9433F"/>
<path opacity="0.3" d="M249.359 85.1867H233.545V86.2245H249.359V85.1867Z" fill="#C9433F"/>
<path opacity="0.3" d="M249.359 89.1263H233.545V90.1641H249.359V89.1263Z" fill="#C9433F"/>
<path opacity="0.3" d="M249.359 93.0728H233.545V94.1176H249.359V93.0728Z" fill="#C9433F"/>
<path opacity="0.3" d="M249.359 97.0192H233.545V98.0641H249.359V97.0192Z" fill="#C9433F"/>
<path opacity="0.3" d="M245.272 100.966H233.545V102.004H245.272V100.966Z" fill="#C9433F"/>
<path d="M289.276 79.9478V107.672L282.139 116.271H266.353V79.9478H289.276Z" fill="#C9433F"/>
<path opacity="0.7" d="M289.276 79.9478V107.672L282.139 116.271H266.353V79.9478H289.276Z" fill="white"/>
<path opacity="0.3" d="M289.276 107.672L282.139 116.271V107.672H289.276Z" fill="#C9433F"/>
<path opacity="0.3" d="M285.719 85.1867H269.904V86.2245H285.719V85.1867Z" fill="#C9433F"/>
<path opacity="0.3" d="M285.719 89.1263H269.904V90.1641H285.719V89.1263Z" fill="#C9433F"/>
<path opacity="0.3" d="M285.719 93.0728H269.904V94.1176H285.719V93.0728Z" fill="#C9433F"/>
<path opacity="0.3" d="M285.719 97.0192H269.904V98.0641H285.719V97.0192Z" fill="#C9433F"/>
<path opacity="0.3" d="M281.631 100.966H269.904V102.004H281.631V100.966Z" fill="#C9433F"/>
<path opacity="0.1" d="M232.951 56.9745H196.359C194.663 56.9745 193.288 58.3495 193.288 60.0456V87.4666C193.288 89.1627 194.663 90.5377 196.359 90.5377H232.951C234.647 90.5377 236.022 89.1627 236.022 87.4666V60.0456C236.022 58.3495 234.647 56.9745 232.951 56.9745Z" fill="black"/>
<g opacity="0.1">
<path d="M230.332 55.4147H226.096V50.8328C226.096 47.938 224.946 45.1618 222.899 43.1149C220.852 41.0679 218.076 39.918 215.181 39.918C212.286 39.918 209.51 41.0679 207.463 43.1149C205.416 45.1618 204.266 47.938 204.266 50.8328V55.4147H200.03V50.8328C200.03 46.8145 201.627 42.9609 204.468 40.1196C207.309 37.2782 211.163 35.682 215.181 35.682C219.199 35.682 223.053 37.2782 225.894 40.1196C228.736 42.9609 230.332 46.8145 230.332 50.8328V55.4147Z" fill="black"/>
</g>
<path d="M215.302 55.5633H178.71C177.014 55.5633 175.639 56.9383 175.639 58.6344V86.0554C175.639 87.7515 177.014 89.1265 178.71 89.1265H215.302C216.998 89.1265 218.373 87.7515 218.373 86.0554V58.6344C218.373 56.9383 216.998 55.5633 215.302 55.5633Z" fill="#263238"/>
<path opacity="0.2" d="M207.571 55.5633H178.71C177.014 55.5633 175.639 56.9383 175.639 58.6344V86.0554C175.639 87.7515 177.014 89.1265 178.71 89.1265H207.571C209.267 89.1265 210.642 87.7515 210.642 86.0554V58.6344C210.642 56.9383 209.267 55.5633 207.571 55.5633Z" fill="white"/>
<path d="M195.286 68.1584C195.286 65.8427 193.874 63.9647 192.137 63.9647C190.401 63.9647 188.996 65.8427 188.996 68.1584C188.954 68.9216 189.114 69.6824 189.46 70.3641C189.806 71.0458 190.325 71.6243 190.966 72.0414L190.38 80.7958H193.91L193.331 72.0414C193.968 71.6216 194.483 71.0421 194.827 70.3608C195.17 69.6795 195.328 68.9201 195.286 68.1584Z" fill="#263238"/>
<path d="M212.682 54.0025H208.446V49.4205C208.446 46.5258 207.296 43.7495 205.25 41.7026C203.203 39.6557 200.426 38.5058 197.532 38.5058C194.637 38.5058 191.861 39.6557 189.814 41.7026C187.767 43.7495 186.617 46.5258 186.617 49.4205V54.0025H182.381V49.4205C182.381 45.4023 183.977 41.5487 186.818 38.7073C189.66 35.866 193.513 34.2698 197.532 34.2698C201.55 34.2698 205.404 35.866 208.245 38.7073C211.086 41.5487 212.682 45.4023 212.682 49.4205V54.0025Z" fill="#263238"/>
<g opacity="0.4">
<path d="M212.681 54.0021H208.445V49.4202C208.445 46.5254 207.295 43.7492 205.249 41.7023C203.202 39.6553 200.425 38.5054 197.531 38.5054C194.636 38.5054 191.86 39.6553 189.813 41.7023C187.766 43.7492 186.616 46.5254 186.616 49.4202V54.0021H182.38V49.4202C182.38 45.4019 183.976 41.5483 186.817 38.707C189.659 35.8656 193.512 34.2694 197.531 34.2694C201.549 34.2694 205.403 35.8656 208.244 38.707C211.085 41.5483 212.681 45.4019 212.681 49.4202V54.0021Z" fill="white"/>
</g>
<path opacity="0.2" d="M212.682 49.4208V54.0027H209.809V48.8984C209.809 47.0806 209.451 45.2806 208.755 43.6013C208.059 41.922 207.039 40.3962 205.753 39.1112C204.468 37.8262 202.941 36.807 201.262 36.112C199.582 35.4171 197.782 35.0598 195.964 35.0607C193.186 35.052 190.474 35.9028 188.198 37.4964C190.433 35.7441 193.116 34.6557 195.939 34.3557C198.763 34.0556 201.615 34.5561 204.168 35.7998C206.721 37.0436 208.872 38.9804 210.377 41.389C211.881 43.7977 212.678 46.5809 212.675 49.4208H212.682Z" fill="white"/>
<path d="M152.82 130.597H135.707V129.94H139.569C139.829 129.938 140.079 129.845 140.278 129.677C140.476 129.51 140.61 129.278 140.656 129.023L142.386 118.729L142.725 116.703H148.584L153.83 129.072C153.901 129.239 153.93 129.421 153.914 129.601C153.898 129.782 153.837 129.956 153.737 130.107C153.636 130.258 153.5 130.382 153.34 130.468C153.18 130.553 153.002 130.598 152.82 130.597Z" fill="#C9433F"/>
<path opacity="0.4" d="M152.82 130.597H135.707V129.94H139.569C139.829 129.938 140.079 129.845 140.278 129.677C140.476 129.51 140.61 129.278 140.656 129.023L142.386 118.729L142.725 116.703H148.584L153.83 129.072C153.901 129.239 153.93 129.421 153.914 129.601C153.898 129.782 153.837 129.956 153.737 130.107C153.636 130.258 153.5 130.382 153.34 130.468C153.18 130.553 153.002 130.598 152.82 130.597Z" fill="white"/>
<path opacity="0.2" d="M152.84 129.94H139.567C139.827 129.937 140.078 129.844 140.276 129.677C140.475 129.509 140.609 129.278 140.655 129.022L142.384 118.729H148.527L153.2 129.396C153.226 129.456 153.237 129.521 153.231 129.585C153.226 129.65 153.204 129.712 153.168 129.766C153.132 129.82 153.084 129.864 153.026 129.895C152.969 129.925 152.905 129.941 152.84 129.94Z" fill="black"/>
<path d="M162.02 120.494H127.786C127.708 120.498 127.63 120.483 127.559 120.451C127.488 120.419 127.425 120.371 127.376 120.311C127.327 120.251 127.292 120.18 127.275 120.104C127.258 120.028 127.259 119.949 127.277 119.873L132.149 94.1463C132.184 93.9808 132.272 93.8311 132.399 93.7193C132.526 93.6074 132.686 93.5393 132.855 93.525H167.082C167.159 93.5212 167.237 93.5359 167.308 93.5677C167.379 93.5996 167.441 93.6478 167.49 93.7083C167.539 93.7688 167.573 93.8401 167.589 93.9162C167.605 93.9923 167.603 94.0711 167.583 94.1463L162.726 119.866C162.691 120.033 162.604 120.184 162.477 120.297C162.35 120.41 162.189 120.479 162.02 120.494Z" fill="#C9433F"/>
<path opacity="0.4" d="M162.02 120.494H127.786C127.708 120.498 127.63 120.483 127.559 120.451C127.488 120.419 127.425 120.371 127.376 120.311C127.327 120.251 127.292 120.18 127.275 120.104C127.258 120.028 127.259 119.949 127.277 119.873L132.149 94.1463C132.184 93.9808 132.272 93.8311 132.399 93.7193C132.526 93.6074 132.686 93.5393 132.855 93.525H167.082C167.159 93.5212 167.237 93.5359 167.308 93.5677C167.379 93.5996 167.441 93.6478 167.49 93.7083C167.539 93.7688 167.573 93.8401 167.589 93.9162C167.605 93.9923 167.603 94.0711 167.583 94.1463L162.726 119.866C162.691 120.033 162.604 120.184 162.477 120.297C162.35 120.41 162.189 120.479 162.02 120.494Z" fill="white"/>
<path d="M161.313 120.494H127.079C127.001 120.498 126.923 120.483 126.852 120.451C126.781 120.419 126.718 120.371 126.669 120.311C126.62 120.251 126.585 120.18 126.568 120.104C126.551 120.028 126.552 119.949 126.57 119.873L131.442 94.1463C131.477 93.9808 131.565 93.8311 131.692 93.7193C131.819 93.6074 131.979 93.5393 132.148 93.525H166.375C166.452 93.5212 166.53 93.5359 166.601 93.5677C166.672 93.5996 166.734 93.6478 166.783 93.7083C166.832 93.7688 166.866 93.8401 166.882 93.9162C166.898 93.9923 166.896 94.0711 166.876 94.1463L162.019 119.866C161.984 120.033 161.897 120.184 161.77 120.297C161.643 120.41 161.482 120.479 161.313 120.494Z" fill="#263238"/>
<path d="M160.86 118.912H128.13L132.634 95.1132H165.357L160.86 118.912Z" fill="#C9433F"/>
<path d="M103.817 130.597V129.792L116.991 127.13H142.767C143.226 127.13 143.666 127.312 143.99 127.637C144.315 127.961 144.497 128.401 144.497 128.86C144.497 129.319 144.315 129.76 143.991 130.085C143.667 130.411 143.227 130.595 142.767 130.597H103.817Z" fill="#C9433F"/>
<path opacity="0.4" d="M144.497 128.867C144.498 129.324 144.318 129.763 143.996 130.088C143.669 130.413 143.228 130.595 142.767 130.597H103.817V129.799L116.998 127.13H142.767C142.995 127.13 143.221 127.175 143.431 127.262C143.641 127.35 143.832 127.478 143.993 127.639C144.154 127.801 144.281 127.992 144.367 128.203C144.454 128.413 144.498 128.639 144.497 128.867Z" fill="white"/>
<path opacity="0.4" d="M144.497 128.867C144.498 129.324 144.318 129.763 143.996 130.088C143.669 130.413 143.228 130.595 142.767 130.597H127.115V129.799L140.296 127.13H142.767C142.995 127.13 143.221 127.175 143.431 127.262C143.641 127.35 143.832 127.478 143.993 127.639C144.154 127.801 144.281 127.992 144.367 128.203C144.454 128.413 144.498 128.639 144.497 128.867Z" fill="white"/>
<path d="M153.914 222.934H157.444L163.777 134.727H159.096L153.914 222.934Z" fill="#263238"/>
<path opacity="0.1" d="M153.914 222.935H157.444L163.466 139.105L163.777 134.869H159.096L158.849 139.105L153.914 222.935Z" fill="white"/>
<path opacity="0.2" d="M158.849 138.893H163.466L163.777 134.869H159.096L158.849 138.893Z" fill="black"/>
<path d="M128.041 222.934H131.564L132.143 134.727H127.462L128.041 222.934Z" fill="#263238"/>
<path opacity="0.1" d="M127.462 134.869L127.554 149.101L128.034 222.935H131.564L132.044 149.101L132.136 134.869H127.462Z" fill="white"/>
<path opacity="0.2" d="M127.462 134.869L127.554 149.257H132.044L132.136 134.869H127.462Z" fill="black"/>
<path d="M90.5996 222.934H94.1226L100.462 134.727H95.7816L90.5996 222.934Z" fill="#263238"/>
<path opacity="0.1" d="M90.5928 222.935H94.1228L100.152 139.105L100.463 134.869H95.7819L95.5277 139.105L90.5928 222.935Z" fill="white"/>
<path opacity="0.2" d="M95.5273 138.893H100.152L100.462 134.869H95.7815L95.5273 138.893Z" fill="black"/>
<path d="M194.254 222.934H197.777L192.595 134.727H187.921L194.254 222.934Z" fill="#263238"/>
<path opacity="0.1" d="M187.921 134.869L188.232 139.105L194.254 222.935H197.777L192.849 139.105L192.595 134.869H187.921Z" fill="white"/>
<path opacity="0.2" d="M192.595 134.869H187.921L188.232 138.893H192.849L192.595 134.869Z" fill="black"/>
<path d="M194.778 136.93H93.6009C93.4007 136.93 93.2024 136.891 93.0173 136.814C92.8323 136.737 92.6642 136.625 92.5226 136.483C92.381 136.342 92.2687 136.174 92.192 135.989C92.1154 135.804 92.076 135.605 92.076 135.405V132.51H196.303V135.405C196.303 135.605 196.263 135.804 196.187 135.989C196.11 136.174 195.998 136.342 195.856 136.483C195.714 136.625 195.546 136.737 195.361 136.814C195.176 136.891 194.978 136.93 194.778 136.93Z" fill="#C9433F"/>
<path opacity="0.4" d="M194.778 136.93H93.6009C93.4007 136.93 93.2024 136.891 93.0173 136.814C92.8323 136.737 92.6642 136.625 92.5226 136.483C92.381 136.342 92.2687 136.174 92.192 135.989C92.1154 135.804 92.076 135.605 92.076 135.405V132.51H196.303V135.405C196.303 135.605 196.263 135.804 196.187 135.989C196.11 136.174 195.998 136.342 195.856 136.483C195.714 136.625 195.546 136.737 195.361 136.814C195.176 136.891 194.978 136.93 194.778 136.93Z" fill="white"/>
<path opacity="0.2" d="M92.0689 134.72H196.303V132.51H92.0689V134.72Z" fill="black"/>
<path d="M89.8871 133.089H198.491C198.821 133.089 199.137 132.958 199.37 132.725C199.603 132.492 199.734 132.176 199.734 131.846C199.734 131.517 199.603 131.201 199.37 130.968C199.137 130.735 198.821 130.604 198.491 130.604H89.8871C89.5575 130.604 89.2415 130.735 89.0085 130.968C88.7754 131.201 88.6445 131.517 88.6445 131.846C88.6445 132.176 88.7754 132.492 89.0085 132.725C89.2415 132.958 89.5575 133.089 89.8871 133.089Z" fill="#C9433F"/>
<path opacity="0.4" d="M89.8871 133.089H198.491C198.821 133.089 199.137 132.958 199.37 132.725C199.603 132.492 199.734 132.176 199.734 131.846C199.734 131.517 199.603 131.201 199.37 130.968C199.137 130.735 198.821 130.604 198.491 130.604H89.8871C89.5575 130.604 89.2415 130.735 89.0085 130.968C88.7754 131.201 88.6445 131.517 88.6445 131.846C88.6445 132.176 88.7754 132.492 89.0085 132.725C89.2415 132.958 89.5575 133.089 89.8871 133.089Z" fill="white"/>
<path opacity="0.3" d="M134.451 108.45C134.296 108.448 134.143 108.413 134.003 108.346C133.863 108.279 133.74 108.182 133.642 108.062C133.543 107.943 133.472 107.803 133.434 107.652C133.396 107.502 133.391 107.345 133.42 107.193L133.858 104.941C133.919 104.634 134.085 104.357 134.327 104.158C134.569 103.959 134.872 103.849 135.185 103.847H153.541C153.697 103.846 153.851 103.881 153.991 103.948C154.132 104.015 154.255 104.113 154.353 104.235C154.453 104.353 154.525 104.493 154.563 104.644C154.601 104.794 154.604 104.951 154.572 105.103L154.134 107.355C154.075 107.663 153.911 107.94 153.67 108.139C153.429 108.339 153.127 108.449 152.814 108.45H134.451Z" fill="white"/>
<path d="M152.814 108.097H134.458C134.353 108.098 134.25 108.077 134.155 108.034C134.06 107.991 133.975 107.927 133.908 107.847C133.84 107.767 133.791 107.674 133.764 107.573C133.737 107.472 133.733 107.366 133.752 107.264L134.197 105.004C134.239 104.778 134.36 104.573 134.538 104.426C134.716 104.279 134.94 104.199 135.171 104.199H153.527C153.631 104.198 153.735 104.219 153.83 104.262C153.925 104.306 154.009 104.369 154.077 104.449C154.145 104.529 154.194 104.622 154.22 104.723C154.247 104.824 154.252 104.93 154.233 105.033L153.795 107.292C153.751 107.519 153.628 107.724 153.449 107.871C153.27 108.018 153.045 108.098 152.814 108.097Z" fill="white"/>
<path d="M137.56 106.673C137.92 106.159 137.88 105.51 137.471 105.224C137.062 104.938 136.439 105.123 136.079 105.637C135.719 106.152 135.759 106.801 136.168 107.087C136.577 107.373 137.2 107.188 137.56 106.673Z" fill="#263238"/>
<path d="M140.657 106.149C140.607 106.431 140.464 106.688 140.252 106.881C140.04 107.074 139.771 107.191 139.485 107.215C139.359 107.211 139.235 107.178 139.123 107.118C139.012 107.058 138.915 106.973 138.842 106.87C138.769 106.766 138.721 106.647 138.701 106.522C138.682 106.397 138.691 106.269 138.73 106.149C138.781 105.867 138.924 105.61 139.136 105.418C139.347 105.225 139.616 105.107 139.902 105.083C140.029 105.085 140.153 105.117 140.266 105.177C140.378 105.236 140.475 105.321 140.548 105.425C140.622 105.529 140.67 105.648 140.689 105.774C140.708 105.9 140.697 106.028 140.657 106.149Z" fill="#263238"/>
<path d="M143.53 106.149C143.479 106.43 143.336 106.687 143.124 106.88C142.913 107.072 142.644 107.19 142.358 107.215C142.231 107.212 142.106 107.179 141.994 107.12C141.882 107.061 141.784 106.976 141.71 106.872C141.636 106.769 141.588 106.65 141.568 106.524C141.548 106.398 141.557 106.27 141.596 106.149C141.649 105.866 141.793 105.609 142.006 105.417C142.219 105.224 142.489 105.107 142.775 105.083C142.901 105.086 143.025 105.12 143.137 105.18C143.248 105.239 143.345 105.324 143.418 105.428C143.491 105.531 143.539 105.65 143.559 105.775C143.578 105.9 143.569 106.028 143.53 106.149Z" fill="#263238"/>
<path d="M146.175 106.669C146.535 106.154 146.495 105.505 146.086 105.219C145.677 104.933 145.054 105.118 144.694 105.633C144.335 106.147 144.375 106.796 144.783 107.082C145.192 107.368 145.816 107.183 146.175 106.669Z" fill="#263238"/>
<path d="M149.27 106.149C149.217 106.431 149.073 106.688 148.86 106.88C148.647 107.073 148.377 107.19 148.091 107.215C147.964 107.211 147.84 107.178 147.729 107.118C147.617 107.058 147.521 106.973 147.448 106.87C147.374 106.766 147.326 106.647 147.307 106.522C147.287 106.397 147.297 106.269 147.335 106.149C147.388 105.868 147.531 105.611 147.742 105.419C147.954 105.227 148.222 105.108 148.507 105.083C148.634 105.085 148.759 105.118 148.871 105.177C148.984 105.237 149.081 105.321 149.155 105.425C149.229 105.528 149.278 105.648 149.298 105.773C149.318 105.899 149.308 106.027 149.27 106.149Z" fill="#263238"/>
<path d="M151.913 106.68C152.273 106.166 152.233 105.517 151.824 105.231C151.415 104.945 150.792 105.13 150.432 105.644C150.072 106.159 150.112 106.808 150.521 107.094C150.93 107.38 151.553 107.194 151.913 106.68Z" fill="#263238"/>
<path opacity="0.3" d="M155.376 108.45C155.258 108.451 155.14 108.426 155.033 108.376C154.925 108.326 154.83 108.252 154.755 108.16C154.675 108.063 154.618 107.949 154.59 107.826C154.562 107.704 154.563 107.576 154.593 107.454L155.15 104.63C155.199 104.399 155.325 104.191 155.507 104.04C155.689 103.889 155.916 103.803 156.153 103.797H158.977C159.095 103.796 159.213 103.821 159.32 103.871C159.428 103.921 159.523 103.995 159.598 104.087C159.678 104.183 159.735 104.298 159.763 104.42C159.791 104.543 159.79 104.67 159.76 104.793L159.203 107.617C159.154 107.848 159.028 108.056 158.846 108.207C158.664 108.358 158.437 108.444 158.2 108.45H155.376Z" fill="white"/>
<path d="M155.376 108.097H158.2C158.352 108.089 158.497 108.033 158.614 107.936C158.731 107.84 158.813 107.708 158.85 107.56L159.407 104.736C159.425 104.67 159.427 104.601 159.413 104.534C159.399 104.467 159.37 104.404 159.327 104.351C159.285 104.297 159.23 104.255 159.168 104.226C159.106 104.197 159.038 104.183 158.97 104.186H156.146C155.991 104.193 155.843 104.251 155.724 104.35C155.606 104.45 155.523 104.585 155.489 104.736L154.931 107.56C154.916 107.626 154.916 107.695 154.932 107.76C154.947 107.826 154.978 107.887 155.021 107.939C155.064 107.991 155.118 108.032 155.18 108.06C155.242 108.087 155.309 108.1 155.376 108.097Z" fill="#263238"/>
<path d="M156.809 107.384C156.788 107.384 156.767 107.38 156.747 107.372C156.728 107.363 156.71 107.35 156.697 107.334C156.671 107.293 156.662 107.245 156.671 107.197C156.681 107.15 156.707 107.108 156.746 107.08L157.868 106.148L157.12 105.216C157.093 105.176 157.083 105.127 157.092 105.079C157.102 105.031 157.129 104.989 157.17 104.962C157.203 104.931 157.247 104.914 157.293 104.914C157.339 104.914 157.383 104.931 157.417 104.962L158.264 106.021C158.291 106.061 158.301 106.111 158.292 106.158C158.282 106.206 158.255 106.248 158.214 106.275L156.951 107.334C156.911 107.367 156.861 107.384 156.809 107.384Z" fill="#C9433F"/>
<path d="M158.08 106.325H156.174C156.152 106.325 156.13 106.321 156.11 106.312C156.09 106.302 156.073 106.289 156.059 106.272C156.046 106.254 156.036 106.234 156.031 106.213C156.027 106.191 156.027 106.169 156.033 106.148C156.044 106.099 156.07 106.056 156.109 106.024C156.147 105.992 156.195 105.973 156.245 105.972H158.144C158.166 105.971 158.187 105.975 158.207 105.984C158.227 105.994 158.245 106.007 158.259 106.024C158.272 106.042 158.282 106.062 158.286 106.083C158.291 106.105 158.29 106.127 158.285 106.148C158.274 106.196 158.249 106.238 158.212 106.27C158.175 106.302 158.129 106.321 158.08 106.325Z" fill="#C9433F"/>
<path d="M96.2068 63.2228H111.428C113.035 63.2228 114.337 61.9206 114.337 60.3141V45.0928C114.337 43.4863 113.035 42.184 111.428 42.184H96.2068C94.6004 42.184 93.2981 43.4863 93.2981 45.0928V60.3141C93.2981 61.9206 94.6004 63.2228 96.2068 63.2228Z" fill="#C9433F"/>
<path d="M102.173 62.4319L103.818 69.506L105.463 62.4319H102.173Z" fill="#C9433F"/>
<path opacity="0.3" d="M103.634 59.008C101.843 57.9407 100.348 56.4423 99.2853 54.6493C98.2224 52.8563 97.625 50.8257 97.5479 48.7427V48.5168L103.81 45.8481L110.065 48.5168V48.7427C109.993 50.8259 109.398 52.8575 108.336 54.6511C107.274 56.4447 105.778 57.9428 103.987 59.008L103.803 59.1209L103.634 59.008Z" fill="white"/>
<path opacity="0.6" d="M103.817 46.2367L109.727 48.7501C109.662 50.7742 109.086 52.7491 108.053 54.4909C107.02 56.2327 105.563 57.6847 103.817 58.7117V46.2367Z" fill="white"/>
<path opacity="0.4" d="M103.817 46.2367L97.9004 48.7501C97.9657 50.7749 98.5424 52.7502 99.5769 54.4921C100.611 56.2339 102.07 57.6855 103.817 58.7117V46.2367Z" fill="white"/>
<path d="M98.1348 125.993L103.077 126.734C104.199 126.378 105.353 126.129 106.522 125.993C107.791 125.889 109.066 125.889 110.334 125.993C110.334 125.993 112.572 126.833 112.572 128.972C112.572 128.972 107.355 130.384 105.357 129.53L98.1348 128.972V125.993Z" fill="#E4897B"/>
<path opacity="0.2" d="M98.1348 125.993L103.077 126.734C104.199 126.378 105.353 126.129 106.522 125.993C107.791 125.889 109.066 125.889 110.334 125.993C110.334 125.993 112.572 126.833 112.572 128.972C112.572 128.972 107.355 130.384 105.357 129.53L98.1348 128.972V125.993Z" fill="black"/>
<path d="M110.377 92.6204C110.454 93.636 110.653 94.6388 110.97 95.6067C110.711 95.766 110.412 95.8503 110.108 95.8503C109.804 95.8503 109.506 95.766 109.247 95.6067L110.377 92.6204Z" fill="#AA473D"/>
<path d="M112.304 91.2082C112.113 91.6671 111.774 91.9636 111.541 91.8647C111.308 91.7659 111.287 91.3282 111.47 90.8693C111.654 90.4104 112 90.1209 112.233 90.2127C112.466 90.3045 112.487 90.7563 112.304 91.2082Z" fill="#263238"/>
<path d="M113.462 89.6262C113.421 89.6388 113.377 89.6388 113.335 89.6262C112.96 89.4056 112.54 89.2721 112.106 89.2354C111.672 89.1988 111.236 89.2599 110.829 89.4144C110.768 89.4453 110.697 89.4508 110.633 89.4296C110.568 89.4084 110.514 89.3623 110.483 89.3015C110.452 89.2406 110.447 89.17 110.468 89.1051C110.489 89.0402 110.535 88.9864 110.596 88.9555C111.08 88.7585 111.603 88.6769 112.124 88.7174C112.645 88.7578 113.149 88.9191 113.596 89.1885C113.625 89.2059 113.651 89.2289 113.671 89.2561C113.691 89.2834 113.705 89.3143 113.713 89.3472C113.721 89.3801 113.722 89.4142 113.717 89.4476C113.711 89.4809 113.699 89.5129 113.681 89.5415C113.655 89.5732 113.621 89.5976 113.583 89.6124C113.544 89.6273 113.503 89.632 113.462 89.6262Z" fill="#263238"/>
<path d="M109.001 96.4611C108.839 96.6588 108.676 96.8494 108.5 97.0259C107.511 98.0533 106.233 98.7551 104.836 99.038C104.482 99.1098 104.123 99.157 103.763 99.1792C102.813 99.2386 101.862 99.0856 100.979 98.7314C100.097 98.3773 99.3036 97.8308 98.6583 97.1318C98.0759 96.4995 97.6291 95.7547 97.3451 94.9432C96.0814 91.5545 97.3451 88.8858 99.1737 84.1909C99.5802 83.0903 100.261 82.1117 101.152 81.348C102.042 80.5842 103.113 80.0604 104.263 79.8264C105.413 79.5924 106.603 79.6558 107.721 80.0106C108.84 80.3654 109.849 80.9999 110.653 81.854C114.31 85.7088 111.853 92.7899 109.001 96.4611Z" fill="#E4897B"/>
<path opacity="0.2" d="M104.836 99.0375C104.482 99.1093 104.123 99.1565 103.763 99.1788C102.813 99.2381 101.862 99.0851 100.979 98.731C100.096 98.3768 99.3035 97.8304 98.6582 97.1314C99.1118 96.6752 99.6219 96.279 100.176 95.9523C101.994 96.5111 103.612 97.5823 104.836 99.0375Z" fill="black"/>
<path d="M89.6152 99.2141C90.0812 102.518 97.3106 103.754 97.3106 103.754C97.3106 103.754 100.841 105.377 101.024 103.965C99.5487 102.257 99.3863 100.767 99.8946 99.4612C100.232 98.6645 100.727 97.9441 101.349 97.3432C101.681 96.9986 102.032 96.6733 102.401 96.3689L100.191 87.318C98.6026 90.7774 93.1947 98.7199 89.6152 99.2141Z" fill="#E4897B"/>
<path d="M110.244 79.319C110.244 79.319 111.79 79.1284 112.976 82.0089C113.972 84.4305 111.621 84.96 111.727 87.5369C111.833 90.1138 109.468 91.547 109.468 91.547C109.468 91.547 107.491 93.2555 105.803 92.3306C105.803 92.3306 103.601 93.4108 103.022 95.2958C102.443 97.1809 99.0329 93.7779 95.9618 94.2933C95.9618 94.2933 93.8862 92.3518 94.0415 87.6357C94.1589 85.5879 94.6619 83.5806 95.5241 81.7194C95.9312 80.734 96.5304 79.8395 97.2868 79.088C98.0431 78.3365 98.9415 77.743 99.9295 77.3422C103.438 75.7467 109.588 76.9328 110.244 79.319Z" fill="#263238"/>
<path d="M105.378 90.9119C105.271 91.3816 105.27 91.8692 105.375 92.3393C105.48 92.8094 105.688 93.2503 105.985 93.63C106.733 94.449 107.94 93.4111 108.427 91.978C108.851 90.7001 108.999 88.7021 107.898 88.448C106.797 88.1938 105.611 89.5352 105.378 90.9119Z" fill="#E4897B"/>
<path d="M106.156 101.947C105.144 104.771 104.24 107.477 103.445 110.066C102.936 111.676 102.47 113.25 102.033 114.768C101.675 116.043 101.341 117.281 101.03 118.481C100.882 119.06 100.734 119.632 100.592 120.197C99.8157 123.31 99.1803 126.149 98.6932 128.669C97.8704 132.603 97.26 136.579 96.8647 140.579L69.1895 137.092C70.1496 132.333 70.898 128.175 71.9429 123.678C72.5218 121.221 73.1784 118.665 74.0609 115.862C74.6539 113.85 75.3458 111.711 76.1789 109.388C78.9605 101.41 81.5233 99.2005 81.5233 99.2005C92.1062 97.5061 106.156 101.947 106.156 101.947Z" fill="#263238"/>
<path d="M115.369 126.508L120.311 127.25C121.433 126.893 122.587 126.645 123.756 126.508C125.027 126.404 126.305 126.404 127.576 126.508C127.576 126.508 129.807 127.348 129.807 129.488C129.807 129.488 124.597 130.9 122.592 130.045L115.376 129.488L115.369 126.508Z" fill="#E4897B"/>
<path d="M84.7773 217.772L89.9382 217.864L92.508 205.968L87.3542 205.876L84.7773 217.772Z" fill="#EBB376"/>
<path opacity="0.2" d="M87.3536 205.876L92.5074 205.975L91.0389 212.774L85.9346 212.435L87.3536 205.876Z" fill="black"/>
<path d="M101.362 188.643C99.3954 196.214 96.8825 203.632 93.8429 210.84L84.432 210.134C84.432 210.134 88.2938 195.046 89.6917 181.223C90.56 172.694 90.4824 165.634 87.9831 165.091C86.4158 164.745 82.7376 164.752 78.0215 164.865V147.285C91.2449 150.004 104.405 155.122 105.407 159.231C106.805 165.013 104.362 177.255 101.362 188.643Z" fill="#C9433F"/>
<path d="M83.4287 210.557L94.64 211.305L96.292 206.455L83.937 205.883L83.4287 210.557Z" fill="#C9433F"/>
<path opacity="0.2" d="M83.4287 210.557L94.64 211.305L96.292 206.455L83.937 205.883L83.4287 210.557Z" fill="white"/>
<path d="M90.7151 217.611H90.821C90.821 217.611 90.941 217.646 90.9551 217.66H90.9975C91.4335 217.798 91.8833 217.888 92.3389 217.928C92.6783 217.992 93.0291 217.923 93.3202 217.738C93.4126 217.657 93.4797 217.552 93.5135 217.434C93.5474 217.316 93.5464 217.191 93.5108 217.074C93.4996 216.998 93.4699 216.925 93.4244 216.862C93.379 216.799 93.319 216.749 93.2496 216.714C92.7621 216.636 92.2626 216.731 91.8376 216.982C92.1413 216.662 92.3215 216.244 92.3459 215.803C92.3252 215.699 92.2714 215.604 92.1925 215.533C92.1137 215.462 92.014 215.418 91.9082 215.408C91.7075 215.378 91.503 215.426 91.3363 215.542C90.7927 216.008 90.708 217.47 90.708 217.554L90.7151 217.611ZM91.2728 217.314L91.1669 217.371C91.1335 216.813 91.2848 216.259 91.5976 215.796C91.6316 215.762 91.6725 215.736 91.7175 215.719C91.7626 215.702 91.8107 215.694 91.8588 215.697H91.9223C92.0918 215.697 92.1271 215.81 92.1341 215.881C92.0251 216.445 91.72 216.953 91.2728 217.314ZM91.3434 217.568C91.9647 217.222 92.8472 216.862 93.179 216.997C93.212 217.014 93.2402 217.039 93.2612 217.07C93.2821 217.1 93.2951 217.136 93.299 217.173C93.3198 217.247 93.3204 217.326 93.3005 217.4C93.2806 217.475 93.2411 217.543 93.1861 217.597C92.9319 217.823 92.2542 217.808 91.3434 217.568Z" fill="#C9433F"/>
<path d="M90.595 216.989L84.8129 216.629C84.7165 216.619 84.6202 216.648 84.5448 216.709C84.4694 216.77 84.4211 216.858 84.4105 216.954L83.8457 221.508C83.8301 221.747 83.9096 221.983 84.0669 222.164C84.2242 222.345 84.4466 222.457 84.6858 222.475C86.705 222.567 87.6722 222.51 90.2138 222.651C92.4698 222.884 94.7394 222.954 97.0055 222.863C99.1235 222.659 98.8905 220.533 97.9657 220.435C95.7559 220.18 92.8401 218.564 91.4563 217.335C91.2164 217.126 90.9129 217.004 90.595 216.989Z" fill="#263238"/>
<path opacity="0.2" d="M101.362 188.643C97.8318 186.419 93.73 183.8 89.6917 181.209C90.56 172.68 90.4824 165.62 87.9831 165.077C86.4158 164.731 82.7376 164.738 78.0215 164.851V147.285C91.2449 150.004 104.405 155.122 105.407 159.231C106.805 165.013 104.362 177.255 101.362 188.643Z" fill="black"/>
<path d="M114.945 217.772L120.106 217.864L122.676 205.968L117.522 205.876L114.945 217.772Z" fill="#EBB376"/>
<path opacity="0.2" d="M117.522 205.876L122.675 205.975L121.207 212.774L116.103 212.435L117.522 205.876Z" fill="black"/>
<path d="M96.2079 145.563L97.041 138.899L70.093 134.458C70.093 134.458 61.275 151.924 65.5887 160.509C69.5494 168.36 111.669 163.679 118.15 165.098C124.631 166.517 114.62 210.148 114.62 210.148L124.038 210.854C124.038 210.854 138.582 171.601 135.596 159.253C134.268 153.852 112.065 146.714 96.2079 145.563Z" fill="#C9433F"/>
<path d="M113.596 210.557L124.807 211.305L126.459 206.455L114.104 205.883L113.596 210.557Z" fill="#C9433F"/>
<path opacity="0.2" d="M113.596 210.557L124.807 211.305L126.459 206.455L114.104 205.883L113.596 210.557Z" fill="white"/>
<path d="M120.883 217.611H120.989C120.989 217.611 121.109 217.646 121.123 217.66H121.165C121.601 217.798 122.051 217.888 122.507 217.928C122.846 217.992 123.197 217.923 123.488 217.738C123.581 217.657 123.648 217.552 123.681 217.434C123.715 217.316 123.714 217.191 123.679 217.074C123.668 216.998 123.638 216.925 123.592 216.862C123.547 216.799 123.487 216.749 123.418 216.714C122.93 216.636 122.431 216.731 122.006 216.982C122.309 216.662 122.489 216.244 122.514 215.803C122.493 215.699 122.439 215.604 122.36 215.533C122.282 215.462 122.182 215.418 122.076 215.408C121.875 215.378 121.671 215.426 121.504 215.542C120.961 216.008 120.876 217.47 120.876 217.554L120.883 217.611ZM121.441 217.314L121.335 217.371C121.301 216.813 121.453 216.259 121.766 215.796C121.8 215.762 121.84 215.736 121.885 215.719C121.931 215.702 121.979 215.694 122.027 215.697H122.09C122.26 215.697 122.295 215.81 122.302 215.881C122.194 216.448 121.886 216.956 121.434 217.314H121.441ZM121.511 217.568C122.133 217.222 123.015 216.862 123.347 216.997C123.38 217.014 123.408 217.039 123.429 217.07C123.45 217.1 123.463 217.136 123.467 217.173C123.488 217.247 123.488 217.326 123.468 217.4C123.449 217.475 123.409 217.543 123.354 217.597C123.1 217.823 122.422 217.808 121.511 217.568Z" fill="#C9433F"/>
<path d="M120.762 216.989L114.98 216.629C114.884 216.619 114.787 216.648 114.712 216.709C114.636 216.77 114.588 216.858 114.577 216.954L114.013 221.508C113.997 221.747 114.077 221.983 114.234 222.164C114.391 222.345 114.614 222.457 114.853 222.475C116.872 222.567 117.839 222.51 120.381 222.651C122.637 222.884 124.906 222.954 127.172 222.863C129.326 222.659 129.065 220.533 128.133 220.435C125.923 220.18 123.007 218.564 121.623 217.335C121.383 217.126 121.08 217.004 120.762 216.989Z" fill="#263238"/>
<path d="M69.1045 137.493L81.5866 139.131L81.9961 137.288L69.4857 135.467L69.1045 137.493Z" fill="black"/>
<path d="M83.0352 137.303L82.8799 139.132L94.423 140.72V138.906L83.0352 137.303Z" fill="black"/>
<path d="M95.1348 139.011V140.719L96.815 140.938V139.286L95.1348 139.011Z" fill="black"/>
<path opacity="0.2" d="M103.444 110.066C102.936 111.675 102.47 113.25 102.032 114.768C101.675 116.043 101.34 117.281 101.03 118.481C100.161 113.751 101.736 108.103 101.736 108.103L103.444 110.066Z" fill="black"/>
<path d="M106.155 101.911C108.407 102.37 109.149 119.871 109.248 121.735C109.346 123.599 120.303 127.221 120.303 127.221V129.769C120.303 129.769 108.556 128.95 105.809 127.828C103.063 126.705 102.371 110.496 102.371 110.496L106.155 101.911Z" fill="#E4897B"/>
<path d="M106.157 101.911C108.225 102.553 109.249 114.096 109.249 114.096L102.853 116.737L101.264 110.319C101.264 110.319 100.812 109.013 101.702 106.26C102.994 102.242 106.157 101.911 106.157 101.911Z" fill="#263238"/>
<path d="M58.4438 159.464H109.431C110.912 159.464 112.333 160.053 113.38 161.1C114.427 162.147 115.016 163.568 115.016 165.049V168.035H52.8594V165.049C52.8594 163.568 53.4477 162.147 54.495 161.1C55.5423 160.053 56.9627 159.464 58.4438 159.464Z" fill="#C9433F"/>
<path d="M75.0283 138.235H109.262C109.675 138.235 110.082 138.328 110.454 138.508C110.825 138.687 111.152 138.948 111.408 139.271C111.665 139.594 111.845 139.971 111.936 140.374C112.026 140.776 112.025 141.194 111.931 141.596L105.81 168.036H104.398L109.608 144.865C109.699 144.464 109.699 144.048 109.608 143.648C109.516 143.247 109.335 142.873 109.079 142.552C108.822 142.231 108.497 141.972 108.126 141.794C107.756 141.616 107.35 141.525 106.94 141.525H75.7273L75.0283 138.235Z" fill="#263238"/>
<path d="M87.9894 168.982V191.327C87.9894 191.671 87.8526 192.002 87.6089 192.245C87.3653 192.489 87.0349 192.626 86.6904 192.626H81.1906C80.8461 192.626 80.5157 192.489 80.2721 192.245C80.0285 192.002 79.8916 191.671 79.8916 191.327V168.982H87.9894Z" fill="#263238"/>
<path d="M57.7443 220.562C57.7443 220.093 57.6052 219.634 57.3445 219.244C57.0839 218.854 56.7134 218.55 56.2799 218.371C55.8465 218.191 55.3695 218.144 54.9094 218.236C54.4492 218.327 54.0265 218.553 53.6948 218.885C53.363 219.217 53.1371 219.639 53.0456 220.099C52.9541 220.56 53.001 221.037 53.1806 221.47C53.3601 221.903 53.6642 222.274 54.0543 222.535C54.4444 222.795 54.903 222.934 55.3722 222.934C56.0013 222.934 56.6047 222.684 57.0495 222.24C57.4944 221.795 57.7443 221.191 57.7443 220.562Z" fill="#263238"/>
<path opacity="0.2" d="M56.5577 220.561C56.5577 220.327 56.4881 220.097 56.3578 219.902C56.2275 219.707 56.0422 219.555 55.8255 219.465C55.6088 219.376 55.3703 219.352 55.1402 219.398C54.9102 219.444 54.6988 219.557 54.5329 219.723C54.3671 219.888 54.2541 220.1 54.2083 220.33C54.1626 220.56 54.1861 220.798 54.2758 221.015C54.3656 221.232 54.5176 221.417 54.7127 221.547C54.9077 221.678 55.137 221.747 55.3716 221.747C55.6856 221.745 55.9862 221.62 56.2083 221.398C56.4303 221.176 56.5559 220.875 56.5577 220.561Z" fill="white"/>
<path d="M114.896 220.561C114.898 220.09 114.759 219.629 114.498 219.237C114.237 218.844 113.866 218.538 113.431 218.357C112.996 218.176 112.517 218.129 112.054 218.22C111.592 218.312 111.168 218.539 110.835 218.872C110.501 219.205 110.275 219.63 110.183 220.092C110.091 220.554 110.139 221.033 110.32 221.468C110.501 221.903 110.807 222.274 111.199 222.535C111.592 222.796 112.053 222.935 112.524 222.933C113.153 222.932 113.755 222.681 114.199 222.237C114.644 221.792 114.894 221.19 114.896 220.561Z" fill="#263238"/>
<path opacity="0.2" d="M113.708 220.561C113.708 220.327 113.639 220.097 113.508 219.902C113.378 219.707 113.193 219.555 112.976 219.465C112.759 219.376 112.521 219.352 112.291 219.398C112.061 219.444 111.849 219.557 111.683 219.723C111.517 219.888 111.404 220.1 111.359 220.33C111.313 220.56 111.336 220.798 111.426 221.015C111.516 221.232 111.668 221.417 111.863 221.547C112.058 221.678 112.287 221.747 112.522 221.747C112.836 221.745 113.137 221.62 113.359 221.398C113.581 221.176 113.706 220.875 113.708 220.561Z" fill="white"/>
<path d="M85.9071 210.141V184.598H81.9817V210.141C66.6898 210.537 57.3917 215.881 55.535 217.053C55.4254 217.118 55.3353 217.211 55.2744 217.323C55.2135 217.435 55.184 217.561 55.189 217.688V219.806C55.1881 219.905 55.2068 220.003 55.244 220.095C55.2811 220.187 55.3361 220.27 55.4057 220.34C55.4753 220.41 55.5581 220.466 55.6494 220.504C55.7406 220.542 55.8385 220.562 55.9374 220.562C56.0695 220.561 56.1991 220.525 56.313 220.458C56.427 220.391 56.5215 220.295 56.5869 220.181L57.4976 218.585C65.4204 216.059 73.6675 214.694 81.9817 214.533V218.769C81.9817 218.896 82.007 219.023 82.056 219.14C82.1051 219.258 82.1769 219.365 82.2675 219.455C82.3581 219.545 82.4655 219.616 82.5837 219.664C82.7019 219.712 82.8284 219.737 82.956 219.736H84.9399C85.1964 219.736 85.4424 219.634 85.6238 219.452C85.8052 219.271 85.9071 219.025 85.9071 218.769V214.533C94.2237 214.693 102.473 216.058 110.398 218.585L111.302 220.181C111.368 220.296 111.464 220.393 111.579 220.46C111.694 220.527 111.825 220.562 111.958 220.562C112.158 220.56 112.348 220.48 112.488 220.338C112.628 220.197 112.707 220.005 112.707 219.806V217.688C112.712 217.561 112.682 217.435 112.621 217.323C112.561 217.211 112.471 217.118 112.361 217.053C110.497 215.881 101.206 210.537 85.9071 210.141Z" fill="#263238"/>
<path d="M85.238 218.183H82.6611V222.934H85.238V218.183Z" fill="#263238"/>
<path opacity="0.2" d="M87.9907 168.96H79.9141V178.244H87.9907V168.96Z" fill="black"/>
<path d="M116.738 166.658V169.327C116.738 169.507 116.703 169.684 116.634 169.85C116.565 170.016 116.464 170.166 116.337 170.293C116.209 170.42 116.058 170.52 115.892 170.588C115.726 170.656 115.548 170.691 115.368 170.69H52.5345C52.3553 170.691 52.1777 170.656 52.0119 170.588C51.8462 170.52 51.6956 170.419 51.5689 170.293C51.4422 170.166 51.3419 170.015 51.2737 169.85C51.2056 169.684 51.171 169.506 51.1719 169.327V166.658C51.1719 166.297 51.3154 165.95 51.571 165.695C51.8265 165.439 52.1731 165.296 52.5345 165.296H115.368C115.731 165.296 116.078 165.439 116.334 165.694C116.591 165.95 116.736 166.296 116.738 166.658Z" fill="#263238"/>
<path d="M87.8265 168.036H51.164C51.164 168.036 39.5361 148.663 39.5361 116.653V104.898C39.538 102.578 40.4612 100.353 42.1027 98.7126C43.7443 97.0724 45.9699 96.151 48.2905 96.151H63.8225C66.0955 96.1499 68.2797 97.0336 69.9125 98.6149C71.5452 100.196 72.4983 102.351 72.5699 104.623C73.0147 121.143 75.4433 156.86 87.8265 168.036Z" fill="#263238"/>
<path opacity="0.2" d="M79.7781 168.036H52.816C52.3062 168.038 51.8057 167.9 51.3697 167.636C50.9337 167.371 50.5791 166.992 50.345 166.539C47.6904 161.428 39.5361 143.474 39.5361 116.653V104.898C39.5361 102.578 40.4577 100.353 42.0982 98.713C43.7386 97.0726 45.9635 96.151 48.2835 96.151H61.6975C63.9705 96.1499 66.1547 97.0336 67.7874 98.6149C69.4202 100.196 70.3733 102.351 70.4448 104.623C70.8472 119.357 72.824 149.44 82.0726 163.652C82.3521 164.073 82.5133 164.562 82.5394 165.066C82.5656 165.571 82.4557 166.074 82.2213 166.522C81.9868 166.97 81.6365 167.347 81.2067 167.613C80.777 167.879 80.2836 168.025 79.7781 168.036Z" fill="white"/>
<path opacity="0.2" d="M116.738 166.658V169.327C116.738 169.688 116.594 170.035 116.339 170.291C116.083 170.546 115.736 170.69 115.375 170.69H87.2128C86.9711 170.691 86.7317 170.644 86.5082 170.552C86.2846 170.46 86.0814 170.325 85.9102 170.154C85.739 169.984 85.6032 169.781 85.5105 169.558C85.4178 169.335 85.3701 169.096 85.3701 168.854V167.138C85.3701 166.65 85.5643 166.181 85.9098 165.835C86.2554 165.49 86.7241 165.296 87.2128 165.296H115.368C115.73 165.296 116.077 165.439 116.334 165.694C116.591 165.95 116.736 166.296 116.738 166.658Z" fill="black"/>
<path d="M51.1514 95.1127L53.4812 92.0627C53.4812 92.0627 63.4287 92.5146 63.6687 96.1505C63.9088 99.7864 51.1514 95.1127 51.1514 95.1127Z" fill="#C9433F"/>
<path d="M44.614 104.241C44.614 104.241 45.2211 120.409 44.614 162.133C44.614 163.545 39.3472 163.489 38.966 162.133C37.7022 157.382 38.966 119.441 38.966 119.441" fill="#C9433F"/>
<path d="M39.085 162.345L44.4435 162.529V165.205L39.085 164.929V162.345Z" fill="#C9433F"/>
<path opacity="0.2" d="M44.614 104.241C44.614 104.241 45.2211 120.409 44.614 162.133C44.614 163.545 39.3472 163.489 38.966 162.133C37.7022 157.382 38.966 119.441 38.966 119.441" fill="white"/>
<path d="M36.4378 153.605C36.1484 145.91 35.0964 110.539 39.516 98.8193C39.516 98.8193 43.6743 93.5385 57.7449 93.5385C71.8155 93.5385 76.0515 103.528 76.0515 103.528C76.0515 103.528 76.6586 119.689 76.0515 161.42C76.0515 162.832 70.7847 162.783 70.4035 161.42C69.1397 156.676 70.4035 118.729 70.4035 118.729L67.5795 153.252C67.5692 153.368 67.5354 153.48 67.4801 153.582C67.4248 153.685 67.3493 153.775 67.2581 153.847C67.1669 153.919 67.0619 153.971 66.9497 154.001C66.8374 154.031 66.7202 154.038 66.6052 154.021C62.1645 153.315 42.6012 150.569 37.4262 154.099C37.3325 154.159 37.2246 154.194 37.1133 154.2C37.002 154.206 36.891 154.183 36.7913 154.133C36.6916 154.084 36.6066 154.009 36.5446 153.916C36.4826 153.823 36.4458 153.716 36.4378 153.605Z" fill="#C9433F"/>
<path d="M70.5225 161.632L75.881 161.815V164.491L70.5225 164.216V161.632Z" fill="#C9433F"/>
<path d="M66.8936 154.057L66.47 156.881C66.47 156.881 44.6335 152.122 37.5593 157.192L37.1357 154.064C37.1357 154.064 42.6002 149.023 66.8936 154.057Z" fill="#C9433F"/>
<path opacity="0.4" d="M36.4378 153.605C36.1484 145.91 35.0964 110.539 39.516 98.8193C39.516 98.8193 43.6743 93.5385 57.7449 93.5385C71.8155 93.5385 76.0515 103.528 76.0515 103.528C76.0515 103.528 76.6586 119.689 76.0515 161.42C76.0515 162.832 70.7847 162.783 70.4035 161.42C69.1397 156.676 70.4035 118.729 70.4035 118.729L67.5795 153.252C67.5692 153.368 67.5354 153.48 67.4801 153.582C67.4248 153.685 67.3493 153.775 67.2581 153.847C67.1669 153.919 67.0619 153.971 66.9497 154.001C66.8374 154.031 66.7202 154.038 66.6052 154.021C62.1645 153.315 42.6012 150.569 37.4262 154.099C37.3325 154.159 37.2246 154.194 37.1133 154.2C37.002 154.206 36.891 154.183 36.7913 154.133C36.6916 154.084 36.6066 154.009 36.5446 153.916C36.4826 153.823 36.4458 153.716 36.4378 153.605Z" fill="white"/>
<path opacity="0.2" d="M70.4245 118.729C70.4245 118.729 70.7351 107.772 76.0725 103.529C76.0513 103.529 69.4008 106.388 70.4245 118.729Z" fill="black"/>
<path opacity="0.2" d="M54.4121 94.8021C54.4121 94.8021 47.9875 98.3321 46.9638 146.432C46.9638 146.432 44.168 97.9085 54.4121 94.8021Z" fill="black"/>
</svg>
