<svg xmlns="http://www.w3.org/2000/svg" xmlns:xlink="http://www.w3.org/1999/xlink" width="44" height="40" viewBox="0 0 44 40">
  <g fill="#FFF" fill-rule="nonzero">
    <path id="a" d="M16.219 34.238C26.087 36.41 38.158 30 40.671 28.691c-3.668 6.737-10.811 11.311-19.023 11.311a21.56 21.56 0 0 1-10.018-2.459c-.605-1.532.209-4.268 4.589-3.305zM34.898 5.822c2.635.087 2.558-1.648 2.393-2.423a21.57 21.57 0 0 1 6.003 14.954c0 1.413-.139 2.794-.399 4.132C36.092 21.39 20.891 5.896 19.824 5.069c-5.672-4.39-8.581-3.299-9.189-2.981C21.174-4.2 31.524 5.712 34.898 5.822zm4.9 20.395C22.283 33.561 3.587 18.468.461 22.807A21.714 21.714 0 0 1 0 18.354c0-1.852.234-3.648.671-5.364 6.552-8.48 13.205-2.944 13.8-2.488C33.04 24.767 39.798 26.217 39.798 26.217z"/>
  </g>
</svg>
