<?xml version="1.0" encoding="UTF-8" standalone="no"?>
<svg
   width="350"
   height="90"
   viewBox="0 0 350 90"
   fill="none"
   version="1.1"
   id="svg51"
   sodipodi:docname="logo.svg"
   inkscape:version="1.2 (dc2aedaf03, 2022-05-15)"
   xmlns:inkscape="http://www.inkscape.org/namespaces/inkscape"
   xmlns:sodipodi="http://sodipodi.sourceforge.net/DTD/sodipodi-0.dtd"
   xmlns="http://www.w3.org/2000/svg"
   xmlns:svg="http://www.w3.org/2000/svg">
  <sodipodi:namedview
     id="namedview53"
     pagecolor="#ffffff"
     bordercolor="#000000"
     borderopacity="0.25"
     inkscape:showpageshadow="2"
     inkscape:pageopacity="0.0"
     inkscape:pagecheckerboard="0"
     inkscape:deskcolor="#d1d1d1"
     showgrid="false"
     inkscape:zoom="2.3125"
     inkscape:cx="221.62162"
     inkscape:cy="13.837838"
     inkscape:window-width="3840"
     inkscape:window-height="2066"
     inkscape:window-x="-11"
     inkscape:window-y="-11"
     inkscape:window-maximized="1"
     inkscape:current-layer="g44" />
  <g
     clip-path="url(#clip0)"
     id="g44"
     transform="translate(-47.675676,-86.703725)">
    <path
       d="m 163.6127,155.77151 v -14.31815 h 5.53131 c 0.98133,0 1.78768,0.10619 2.41863,0.31818 0.64483,0.21199 1.14958,0.50392 1.51427,0.875 0.37857,0.37108 0.6381,0.80221 0.77817,1.29261 0.15437,0.47727 0.23135,0.98119 0.23135,1.51136 0,0.79545 -0.1754,1.4517 -0.52579,1.96875 -0.33651,0.51704 -0.77817,0.92789 -1.32499,1.23295 -0.54682,0.29153 -1.17062,0.49716 -1.87182,0.61648 -0.68688,0.11931 -1.38093,0.17897 -2.08212,0.17897 h -3.23886 v 6.32385 z m 4.71108,-7.47725 c 0.67301,0 1.27577,-0.0398 1.80871,-0.11932 0.53294,-0.0796 0.98134,-0.22551 1.34602,-0.4375 0.37856,-0.22551 0.66586,-0.52381 0.86229,-0.89489 0.21032,-0.3846 0.31548,-0.88176 0.31548,-1.49147 0,-0.90165 -0.31548,-1.58414 -0.94642,-2.04829 -0.61707,-0.46415 -1.60555,-0.69602 -2.96546,-0.69602 h -3.70155 v 5.68749 z m 12.35227,7.75566 c -0.70078,-0.0131 -1.35991,-0.13244 -1.97697,-0.35795 -0.60277,-0.22551 -1.13572,-0.56358 -1.59841,-1.01421 -0.44839,-0.45062 -0.80593,-1.0142 -1.07261,-1.69033 -0.26626,-0.67614 -0.39959,-1.46483 -0.39959,-2.36647 0,-0.75569 0.10513,-1.45847 0.31547,-2.10795 0.21032,-0.66301 0.52579,-1.23972 0.94641,-1.73011 0.42064,-0.4904 0.94643,-0.875 1.57738,-1.15341 0.63095,-0.29153 1.36705,-0.4375 2.20832,-0.4375 0.85556,0 1.5984,0.14597 2.22935,0.4375 0.63093,0.27841 1.15672,0.66301 1.57736,1.15341 0.42063,0.47727 0.72937,1.04721 0.92539,1.71022 0.21031,0.66301 0.31547,1.37215 0.31547,2.12784 0,0.8221 -0.11903,1.56425 -0.35754,2.22726 -0.23807,0.66301 -0.58173,1.23295 -1.03054,1.71023 -0.43452,0.47727 -0.96745,0.84835 -1.5984,1.11363 -0.61665,0.25176 -1.30396,0.37784 -2.06109,0.37784 z m 3.70155,-5.42896 c 0,-0.60972 -0.0698,-1.18006 -0.21032,-1.71023 -0.14006,-0.53017 -0.35753,-0.98755 -0.65197,-1.37215 -0.29445,-0.39773 -0.67301,-0.70915 -1.13571,-0.93466 -0.46269,-0.22551 -1.03054,-0.33807 -1.70355,-0.33807 -0.65872,0 -1.22657,0.12608 -1.70357,0.37784 -0.46269,0.23864 -0.84125,0.56358 -1.1357,0.97443 -0.29444,0.39773 -0.51149,0.86187 -0.65198,1.39204 -0.14008,0.51705 -0.21031,1.05398 -0.21031,1.6108 0,0.63636 0.0774,1.22619 0.23134,1.76988 0.16825,0.53017 0.40676,0.98755 0.71508,1.37215 0.30874,0.38461 0.69404,0.6829 1.15673,0.89489 0.46269,0.21199 0.99564,0.31818 1.59841,0.31818 0.65912,0 1.21982,-0.11932 1.68252,-0.35795 0.477,-0.25177 0.86229,-0.58347 1.15674,-0.99432 0.29444,-0.41085 0.51191,-0.875 0.65197,-1.39204 0.1405,-0.51705 0.21032,-1.05398 0.21032,-1.61079 z m 12.86459,3.55965 2.8603,-8.71021 h 1.28293 l -3.5333,10.30111 h -1.34602 l -2.37658,-8.65055 h -0.0421 l -2.41863,8.65055 h -1.51427 l -3.32296,-10.30111 h 1.26189 l 2.81823,8.78975 2.5238,-8.78975 h 1.40911 z m 13.85309,-4.27556 c 0,-0.50392 -0.0774,-0.97443 -0.23135,-1.41193 -0.14048,-0.45063 -0.35753,-0.83523 -0.65197,-1.15341 -0.28057,-0.3313 -0.6381,-0.58983 -1.07262,-0.77556 -0.43492,-0.19887 -0.93254,-0.2983 -1.49324,-0.2983 -0.56112,0 -1.05872,0.0994 -1.49324,0.2983 -0.42063,0.19886 -0.78532,0.46414 -1.09364,0.79545 -0.29444,0.3313 -0.53294,0.71591 -0.71507,1.15341 -0.18256,0.43749 -0.30159,0.90164 -0.35754,1.39204 z m -7.10867,0.99431 c 0,0.55682 0.077,1.08699 0.23134,1.59091 0.15395,0.4904 0.37857,0.92153 0.67301,1.29261 0.30833,0.35795 0.69405,0.64949 1.15674,0.875 0.4627,0.21199 0.99522,0.31818 1.5984,0.31818 0.82696,0 1.53531,-0.20563 2.12419,-0.61648 0.58889,-0.41085 0.98133,-0.99431 1.17778,-1.74999 h 1.4091 c -0.15437,0.49039 -0.35753,0.94778 -0.60991,1.37215 -0.25238,0.41085 -0.56785,0.77557 -0.94642,1.09375 -0.37857,0.30506 -0.82739,0.54369 -1.34602,0.71591 -0.51906,0.17221 -1.12182,0.25852 -1.80872,0.25852 -0.86944,0 -1.61943,-0.1392 -2.25037,-0.41761 -0.63095,-0.27841 -1.15001,-0.65625 -1.55634,-1.13352 -0.40676,-0.4904 -0.70835,-1.06074 -0.90436,-1.71023 -0.19643,-0.66301 -0.29444,-1.37215 -0.29444,-2.12783 0,-0.75568 0.11188,-1.46483 0.3365,-2.12784 0.23807,-0.66301 0.56785,-1.23971 0.98849,-1.73011 0.43451,-0.50392 0.9603,-0.89488 1.57737,-1.17329 0.61664,-0.29153 1.31783,-0.4375 2.10315,-0.4375 1.49997,0 2.67775,0.4904 3.53331,1.47159 0.85515,0.96767 1.27578,2.37959 1.2619,4.23578 z m 12.23323,4.87215 h -1.2619 V 145.4704 h 1.2619 v 1.92897 h 0.0421 c 0.35038,-0.8221 0.7992,-1.39204 1.34602,-1.71022 0.5607,-0.33131 1.29681,-0.49716 2.20832,-0.49716 v 1.29261 c -0.71507,-0.0131 -1.30396,0.0927 -1.76665,0.31818 -0.4627,0.22551 -0.83412,0.53017 -1.11468,0.91477 -0.26626,0.3846 -0.45554,0.84199 -0.56785,1.37216 -0.0981,0.51704 -0.14722,1.06073 -0.14722,1.63068 z m 13.19564,-5.86646 c 0,-0.50392 -0.077,-0.97443 -0.23135,-1.41193 -0.14007,-0.45063 -0.35754,-0.83523 -0.65198,-1.15341 -0.28014,-0.3313 -0.63768,-0.58983 -1.07262,-0.77556 -0.4345,-0.19887 -0.93212,-0.2983 -1.49324,-0.2983 -0.5607,0 -1.0583,0.0994 -1.49324,0.2983 -0.42063,0.19886 -0.7849,0.46414 -1.09364,0.79545 -0.29444,0.3313 -0.53252,0.71591 -0.71507,1.15341 -0.18214,0.43749 -0.30117,0.90164 -0.35755,1.39204 z m -7.10869,0.99431 c 0,0.55682 0.0774,1.08699 0.23136,1.59091 0.15437,0.4904 0.37857,0.92153 0.67301,1.29261 0.30874,0.35795 0.69404,0.64949 1.15674,0.875 0.46269,0.21199 0.99563,0.31818 1.59839,0.31818 0.82739,0 1.53531,-0.20563 2.12419,-0.61648 0.58889,-0.41085 0.98176,-0.99431 1.17777,-1.74999 h 1.40912 c -0.15396,0.49039 -0.35754,0.94778 -0.60992,1.37215 -0.25238,0.41085 -0.56785,0.77557 -0.94642,1.09375 -0.37856,0.30506 -0.82696,0.54369 -1.34602,0.71591 -0.51864,0.17221 -1.1214,0.25852 -1.80872,0.25852 -0.86902,0 -1.61943,-0.1392 -2.25038,-0.41761 -0.63094,-0.27841 -1.14958,-0.65625 -1.55634,-1.13352 -0.40633,-0.4904 -0.70792,-1.06074 -0.90435,-1.71023 -0.19601,-0.66301 -0.29445,-1.37215 -0.29445,-2.12783 0,-0.75568 0.11231,-1.46483 0.33651,-2.12784 0.2385,-0.66301 0.56786,-1.23971 0.98849,-1.73011 0.43493,-0.50392 0.96072,-0.89488 1.57737,-1.17329 0.61707,-0.29153 1.31825,-0.4375 2.10315,-0.4375 1.5004,0 2.67816,0.4904 3.53331,1.47159 0.85557,0.96767 1.27619,2.37959 1.2619,4.23578 z m 19.3213,-0.31818 c 0,-0.58346 -0.0841,-1.13352 -0.25238,-1.65056 -0.16824,-0.53017 -0.4139,-0.98756 -0.73611,-1.37216 -0.30874,-0.39772 -0.69403,-0.70914 -1.15673,-0.93466 -0.44882,-0.23863 -0.96072,-0.35795 -1.53531,-0.35795 -0.65912,0 -1.22698,0.12608 -1.70355,0.37784 -0.477,0.23864 -0.86945,0.56994 -1.17777,0.99432 -0.30874,0.42437 -0.53294,0.92153 -0.67301,1.49147 -0.1405,0.55682 -0.19643,1.16017 -0.16825,1.80966 0,0.64948 0.0909,1.22619 0.27341,1.73011 0.19601,0.49039 0.46269,0.90801 0.79919,1.25283 0.33651,0.34483 0.72896,0.60972 1.17778,0.79546 0.44839,0.17221 0.93927,0.25852 1.4722,0.25852 0.58889,0 1.11468,-0.11256 1.57738,-0.33807 0.46269,-0.22551 0.84798,-0.53017 1.15673,-0.91477 0.30833,-0.39773 0.53967,-0.86187 0.69404,-1.39204 0.16826,-0.54369 0.25238,-1.12676 0.25238,-1.75 z m 0,-9.12782 h 1.2619 v 14.31815 h -1.2619 v -1.80965 h -0.0421 c -0.18255,0.34483 -0.42064,0.64948 -0.71507,0.91477 -0.28057,0.25176 -0.59604,0.46414 -0.94643,0.63636 -0.3365,0.17222 -0.68731,0.30506 -1.05158,0.39773 -0.36469,0.0927 -0.72222,0.1392 -1.07261,0.1392 -0.88332,0 -1.63373,-0.1392 -2.25038,-0.41761 -0.61706,-0.27841 -1.12897,-0.65625 -1.5353,-1.13352 -0.39288,-0.4904 -0.68016,-1.0671 -0.86229,-1.73011 -0.18256,-0.66301 -0.27342,-1.37216 -0.27342,-2.12784 0,-0.71591 0.0981,-1.40517 0.29444,-2.06818 0.19602,-0.66301 0.49047,-1.23971 0.88333,-1.73011 0.40633,-0.50392 0.9111,-0.90164 1.51428,-1.19318 0.61664,-0.30505 1.33886,-0.45738 2.16625,-0.45738 0.77101,0 1.50712,0.16585 2.20832,0.49716 0.71507,0.31818 1.27577,0.79545 1.68252,1.43181 z m 11.70703,9.12782 c 0,0.62324 0.077,1.20631 0.23134,1.75 0.16825,0.53017 0.40675,0.99431 0.71507,1.39204 0.30832,0.3846 0.69405,0.68926 1.15674,0.91477 0.46269,0.22551 0.98848,0.33807 1.57737,0.33807 0.53294,0 1.0234,-0.0863 1.47221,-0.25852 0.44882,-0.18574 0.84126,-0.45063 1.17777,-0.79546 0.3365,-0.34482 0.59603,-0.76244 0.77817,-1.25283 0.19643,-0.50392 0.29444,-1.08063 0.29444,-1.73011 0.0282,-0.64949 -0.0281,-1.25284 -0.16826,-1.80966 -0.14006,-0.56994 -0.36468,-1.0671 -0.67301,-1.49147 -0.30832,-0.42438 -0.70792,-0.75568 -1.1988,-0.99432 -0.47657,-0.25176 -1.03769,-0.37784 -1.68252,-0.37784 -0.575,0 -1.09364,0.11932 -1.55633,0.35795 -0.44882,0.22552 -0.83412,0.53694 -1.15674,0.93466 -0.30833,0.3846 -0.54682,0.84199 -0.71508,1.37216 -0.16825,0.51704 -0.25237,1.0671 -0.25237,1.65056 z m 0,5.19033 h -1.2619 v -14.31815 h 1.2619 v 5.6676 c 0.40674,-0.63636 0.96029,-1.11363 1.66149,-1.43181 0.71507,-0.33131 1.45833,-0.49716 2.22935,-0.49716 0.82738,0 1.54245,0.15233 2.14521,0.45738 0.61708,0.29154 1.12183,0.68926 1.51428,1.19318 0.40675,0.4904 0.70793,1.0671 0.90436,1.73011 0.19643,0.66301 0.29444,1.35227 0.29444,2.06818 0,0.75568 -0.0913,1.46483 -0.27341,2.12784 -0.18213,0.66301 -0.47657,1.23971 -0.88333,1.73011 -0.39245,0.47727 -0.8972,0.85511 -1.51427,1.13352 -0.61707,0.27841 -1.36705,0.41761 -2.25038,0.41761 -0.35038,0 -0.70792,-0.0465 -1.07261,-0.1392 -0.36468,-0.0927 -0.72223,-0.22551 -1.07261,-0.39773 -0.3365,-0.17222 -0.65198,-0.3846 -0.94643,-0.63636 -0.28055,-0.26529 -0.5119,-0.56994 -0.69403,-0.91477 h -0.0421 z m 11.36378,2.80397 c 0.16825,0.0267 0.3365,0.0529 0.50476,0.0796 0.18255,0.0266 0.36468,0.0398 0.54681,0.0398 0.35082,0 0.6381,-0.10619 0.8623,-0.31818 0.22462,-0.21199 0.40675,-0.47051 0.54682,-0.77557 0.15437,-0.29153 0.28057,-0.60335 0.37857,-0.93465 0.0984,-0.31818 0.21032,-0.58983 0.3365,-0.81534 l -4.22734,-10.38066 h 1.40912 l 3.49124,8.84941 3.49124,-8.84941 h 1.36705 l -4.05909,10.16191 c -0.25238,0.64949 -0.49761,1.23295 -0.73611,1.74999 -0.22419,0.51705 -0.46943,0.95455 -0.73611,1.3125 -0.25238,0.37108 -0.53966,0.64949 -0.86229,0.83523 -0.30832,0.19886 -0.67974,0.29829 -1.11467,0.29829 -0.2242,0 -0.44167,-0.0131 -0.65198,-0.0398 -0.19602,-0.0267 -0.37857,-0.0597 -0.54682,-0.0994 z m 23.07837,-9.04827 v -1.15341 h 6.47773 v 7.39771 h -1.21983 v -2.44602 c -0.26626,0.42438 -0.57458,0.81534 -0.9254,1.1733 -0.3365,0.34483 -0.72894,0.64312 -1.17776,0.89488 -0.44839,0.23864 -0.96745,0.42438 -1.55634,0.55682 -0.58889,0.13244 -1.25474,0.19886 -1.99799,0.19886 -0.95316,0 -1.83649,-0.15909 -2.64998,-0.47727 -0.81309,-0.31818 -1.51428,-0.78869 -2.10317,-1.41193 -0.58887,-0.63636 -1.05158,-1.43181 -1.38808,-2.38636 -0.32221,-0.95454 -0.48373,-2.06817 -0.48373,-3.3409 0,-1.04721 0.1405,-2.02164 0.42064,-2.92329 0.28056,-0.91477 0.70834,-1.70346 1.28292,-2.36647 0.58889,-0.67613 1.31826,-1.2063 2.18728,-1.59091 0.88333,-0.3846 1.92103,-0.5767 3.11268,-0.5767 0.7992,0 1.54246,0.0927 2.22935,0.27841 0.70119,0.18574 1.32499,0.47051 1.87181,0.85511 0.56113,0.37108 1.03055,0.84199 1.40911,1.41193 0.37858,0.55682 0.65199,1.21983 0.82023,1.98863 h -1.4722 c -0.12619,-0.53017 -0.34323,-1.00744 -0.65198,-1.43181 -0.29444,-0.42438 -0.65198,-0.77557 -1.07261,-1.05398 -0.42063,-0.29153 -0.89006,-0.51028 -1.40912,-0.65625 -0.51864,-0.15909 -1.0583,-0.23863 -1.61943,-0.23863 -0.99521,0 -1.85078,0.16585 -2.56585,0.49716 -0.71507,0.3313 -1.30396,0.80221 -1.76665,1.41192 -0.4627,0.59659 -0.80594,1.31926 -1.03055,2.16761 -0.21032,0.83523 -0.31547,1.75676 -0.31547,2.7642 0,0.79545 0.11946,1.55114 0.35753,2.26704 0.25238,0.71591 0.60991,1.34551 1.07261,1.8892 0.477,0.5437 1.05158,0.97443 1.72459,1.29261 0.68731,0.31819 1.46548,0.47728 2.33451,0.47728 0.40674,0 0.82738,-0.0398 1.26189,-0.11932 0.43493,-0.0927 0.85556,-0.23864 1.26189,-0.4375 0.40676,-0.19886 0.78532,-0.45739 1.13572,-0.77557 0.3508,-0.31818 0.65197,-0.70914 0.90435,-1.17329 0.2385,-0.45062 0.3996,-0.92153 0.48373,-1.41193 0.0984,-0.4904 0.15437,-1.00744 0.16825,-1.55113 z m 17.6312,0.37784 c 0,-0.50392 -0.077,-0.97443 -0.23134,-1.41193 -0.14008,-0.45063 -0.35754,-0.83523 -0.65199,-1.15341 -0.28013,-0.3313 -0.63767,-0.58983 -1.07261,-0.77556 -0.43451,-0.19887 -0.93212,-0.2983 -1.49324,-0.2983 -0.56071,0 -1.05831,0.0994 -1.49325,0.2983 -0.42062,0.19886 -0.78489,0.46414 -1.09364,0.79545 -0.29444,0.3313 -0.53251,0.71591 -0.71507,1.15341 -0.18213,0.43749 -0.30117,0.90164 -0.35754,1.39204 z m -7.10868,0.99431 c 0,0.55682 0.0774,1.08699 0.23136,1.59091 0.15437,0.4904 0.37856,0.92153 0.67301,1.29261 0.30874,0.35795 0.69403,0.64949 1.15673,0.875 0.4627,0.21199 0.99563,0.31818 1.5984,0.31818 0.82739,0 1.53531,-0.20563 2.12419,-0.61648 0.58888,-0.41085 0.98176,-0.99431 1.17777,-1.74999 h 1.40912 c -0.15396,0.49039 -0.35754,0.94778 -0.60992,1.37215 -0.25237,0.41085 -0.56785,0.77557 -0.94642,1.09375 -0.37857,0.30506 -0.82696,0.54369 -1.34602,0.71591 -0.51864,0.17221 -1.1214,0.25852 -1.80872,0.25852 -0.86902,0 -1.61943,-0.1392 -2.25038,-0.41761 -0.63095,-0.27841 -1.14959,-0.65625 -1.55634,-1.13352 -0.40633,-0.4904 -0.70792,-1.06074 -0.90436,-1.71023 -0.19601,-0.66301 -0.29444,-1.37215 -0.29444,-2.12783 0,-0.75568 0.11231,-1.46483 0.33651,-2.12784 0.2385,-0.66301 0.56786,-1.23971 0.98849,-1.73011 0.43492,-0.50392 0.96071,-0.89488 1.57736,-1.17329 0.61707,-0.29153 1.31826,-0.4375 2.10316,-0.4375 1.5004,0 2.67816,0.4904 3.53331,1.47159 0.85556,0.96767 1.27619,2.37959 1.26189,4.23578 z m 15.24118,5.15056 c -0.7012,-0.0131 -1.36033,-0.13244 -1.97697,-0.35795 -0.60319,-0.22551 -1.13571,-0.56358 -1.5984,-1.01421 -0.44882,-0.45062 -0.80636,-1.0142 -1.07262,-1.69033 -0.26668,-0.67614 -0.3996,-1.46483 -0.3996,-2.36647 0,-0.75569 0.10513,-1.45847 0.31548,-2.10795 0.21031,-0.66301 0.52579,-1.23972 0.94642,-1.73011 0.42062,-0.4904 0.94642,-0.875 1.57736,-1.15341 0.63095,-0.29153 1.36706,-0.4375 2.20833,-0.4375 0.85514,0 1.59839,0.14597 2.22934,0.4375 0.63095,0.27841 1.15673,0.66301 1.57737,1.15341 0.42063,0.47727 0.72895,1.04721 0.92538,1.71022 0.21032,0.66301 0.31548,1.37215 0.31548,2.12784 0,0.8221 -0.11945,1.56425 -0.35754,2.22726 -0.23849,0.66301 -0.58215,1.23295 -1.03054,1.71023 -0.43494,0.47727 -0.96745,0.84835 -1.5984,1.11363 -0.61707,0.25176 -1.30396,0.37784 -2.06109,0.37784 z m 3.70155,-5.42896 c 0,-0.60972 -0.0702,-1.18006 -0.21032,-1.71023 -0.14049,-0.53017 -0.35753,-0.98755 -0.65197,-1.37215 -0.29444,-0.39773 -0.67301,-0.70915 -1.13571,-0.93466 -0.46269,-0.22551 -1.03054,-0.33807 -1.70355,-0.33807 -0.65914,0 -1.22699,0.12608 -1.70357,0.37784 -0.46269,0.23864 -0.84126,0.56358 -1.1357,0.97443 -0.29444,0.39773 -0.51191,0.86187 -0.65198,1.39204 -0.1405,0.51705 -0.21032,1.05398 -0.21032,1.6108 0,0.63636 0.077,1.22619 0.23136,1.76988 0.16824,0.53017 0.40633,0.98755 0.71507,1.37215 0.30832,0.38461 0.69403,0.6829 1.15673,0.89489 0.4627,0.21199 0.99522,0.31818 1.59841,0.31818 0.6587,0 1.21982,-0.11932 1.68252,-0.35795 0.47657,-0.25177 0.8623,-0.58347 1.15674,-0.99432 0.29444,-0.41085 0.51148,-0.875 0.65197,-1.39204 0.14008,-0.51705 0.21032,-1.05398 0.21032,-1.61079 z m 4.38845,1.92897 c 0.19602,0.88812 0.54682,1.51812 1.05159,1.8892 0.51862,0.35795 1.25473,0.53693 2.20831,0.53693 0.46269,0 0.86229,-0.0529 1.1988,-0.15909 0.3365,-0.10619 0.60991,-0.2454 0.82023,-0.41761 0.2242,-0.18574 0.39244,-0.39097 0.50475,-0.61648 0.11189,-0.22551 0.16826,-0.46415 0.16826,-0.71591 0,-0.50392 -0.17541,-0.875 -0.52579,-1.11363 -0.3365,-0.25176 -0.76429,-0.44426 -1.28293,-0.5767 -0.51906,-0.14597 -1.07976,-0.26529 -1.68253,-0.35796 -0.60318,-0.10619 -1.16388,-0.25852 -1.68252,-0.45738 -0.51906,-0.19887 -0.95357,-0.48404 -1.30396,-0.85512 -0.33651,-0.37107 -0.50475,-0.89488 -0.50475,-1.57102 0,-0.86187 0.32935,-1.56425 0.98848,-2.10795 0.67301,-0.55681 1.61943,-0.83522 2.83926,-0.83522 1.17777,0 2.13092,0.25176 2.8603,0.75568 0.74283,0.4904 1.19165,1.31926 1.34602,2.48579 h -1.28292 c -0.11231,-0.79545 -0.43494,-1.35227 -0.96746,-1.67045 -0.51906,-0.33131 -1.17777,-0.49716 -1.97697,-0.49716 -0.7992,0 -1.40912,0.16585 -1.82974,0.49716 -0.42064,0.31818 -0.63095,0.74255 -0.63095,1.27272 0,0.46415 0.16824,0.8221 0.50475,1.07386 0.35039,0.23864 0.7849,0.4375 1.30396,0.59659 0.51864,0.14597 1.07934,0.27841 1.68252,0.39773 0.60277,0.11932 1.16348,0.29153 1.68253,0.51705 0.51864,0.21198 0.94643,0.50391 1.28293,0.87499 0.35038,0.37108 0.52579,0.88813 0.52579,1.55114 0,0.49039 -0.11231,0.92789 -0.3365,1.31249 -0.22462,0.37108 -0.53294,0.6829 -0.9254,0.93466 -0.39286,0.25176 -0.86229,0.4375 -1.40911,0.55682 -0.53294,0.13244 -1.12183,0.19886 -1.76665,0.19886 -0.64525,0 -1.21984,-0.0927 -1.72459,-0.27841 -0.49088,-0.17221 -0.91152,-0.41761 -1.2619,-0.73579 -0.3508,-0.31818 -0.62422,-0.68926 -0.82023,-1.11364 -0.19643,-0.42437 -0.30874,-0.88176 -0.33651,-1.37215 z m 9.59924,3.22158 V 145.4704 h 1.26189 v 10.30111 z m -0.0631,-12.54827 v -1.76988 h 1.38808 v 1.76988 z m 11.6658,7.13919 c -0.53294,0.21199 -1.07261,0.3512 -1.61943,0.41762 -0.54682,0.0664 -1.09364,0.11931 -1.64047,0.15909 -0.96745,0.0664 -1.72459,0.27164 -2.2714,0.61647 -0.53295,0.34483 -0.79921,0.86824 -0.79921,1.57102 0,0.31818 0.0631,0.59659 0.18929,0.83523 0.14007,0.22551 0.31548,0.41761 0.52579,0.5767 0.22419,0.14597 0.47657,0.25852 0.75714,0.33807 0.29443,0.0664 0.58888,0.0994 0.88332,0.0994 0.50476,0 0.99564,-0.0597 1.47222,-0.17898 0.47656,-0.11932 0.8972,-0.29829 1.26188,-0.53693 0.37858,-0.25176 0.68017,-0.56358 0.90437,-0.93466 0.2242,-0.3846 0.3365,-0.83522 0.3365,-1.35227 z m -2.12419,-0.59659 c 0.2385,-0.0266 0.51864,-0.0664 0.84126,-0.11931 0.33651,-0.0529 0.60992,-0.12608 0.82023,-0.21875 0.21032,-0.0927 0.33651,-0.2454 0.37857,-0.45739 0.056,-0.22551 0.0841,-0.43074 0.0841,-0.61648 0,-0.60971 -0.21032,-1.10687 -0.63095,-1.49147 -0.40676,-0.39773 -1.1008,-0.59659 -2.08213,-0.59659 -0.43452,0 -0.83411,0.0398 -1.1988,0.11932 -0.36469,0.0664 -0.6869,0.1921 -0.96745,0.37784 -0.26626,0.17221 -0.49088,0.41085 -0.67302,0.71591 -0.16825,0.29153 -0.28056,0.66301 -0.3365,1.11363 h -1.28292 c 0.0421,-0.60971 0.18928,-1.12676 0.44165,-1.55113 0.25238,-0.4375 0.57501,-0.78869 0.96746,-1.05398 0.40675,-0.27841 0.86945,-0.47727 1.38809,-0.59659 0.53294,-0.13244 1.09364,-0.19886 1.68252,-0.19886 0.54682,0 1.05873,0.0597 1.53531,0.17898 0.49087,0.10619 0.9115,0.28517 1.2619,0.53693 0.36468,0.23863 0.64482,0.56358 0.84125,0.97443 0.21032,0.41085 0.31547,0.91477 0.31547,1.51136 v 5.60794 c 0,0.46415 0.0841,0.76244 0.25238,0.89488 0.18214,0.11932 0.53968,0.0863 1.07262,-0.0994 v 0.93466 c -0.098,0.0267 -0.24524,0.0664 -0.44167,0.11932 -0.18213,0.0529 -0.36469,0.0795 -0.54681,0.0795 -0.19645,0 -0.38573,-0.0199 -0.56786,-0.0597 -0.21031,-0.0266 -0.37857,-0.0863 -0.50476,-0.17897 -0.12619,-0.1062 -0.23134,-0.22551 -0.31548,-0.35796 -0.0702,-0.14596 -0.11903,-0.29829 -0.14722,-0.45738 -0.0281,-0.17222 -0.0421,-0.35119 -0.0421,-0.53693 -0.53294,0.55681 -1.14285,0.98119 -1.82975,1.27272 -0.68688,0.29154 -1.43014,0.4375 -2.22934,0.4375 -0.47657,0 -0.93928,-0.0597 -1.38809,-0.17898 -0.43451,-0.11931 -0.82023,-0.30505 -1.15674,-0.55681 -0.3365,-0.25176 -0.60276,-0.55682 -0.79919,-0.91477 -0.19644,-0.37108 -0.29445,-0.80858 -0.29445,-1.3125 0,-1.75 1.26905,-2.78409 3.80672,-3.10227 z m 8.09002,0.89489 c 0,0.58346 0.0841,1.14028 0.25237,1.67045 0.16825,0.51704 0.40675,0.97443 0.71507,1.37215 0.32263,0.38461 0.70792,0.69603 1.15674,0.93466 0.4627,0.22551 0.98134,0.33807 1.55634,0.33807 0.64482,0 1.20594,-0.11932 1.68252,-0.35795 0.49088,-0.25177 0.89048,-0.58983 1.1988,-1.01421 0.30833,-0.42437 0.53295,-0.91477 0.67301,-1.47158 0.14007,-0.56995 0.19644,-1.18006 0.16826,-1.82955 0,-0.64948 -0.098,-1.21982 -0.29444,-1.71022 -0.18214,-0.50392 -0.44167,-0.9279 -0.77817,-1.27272 -0.33651,-0.34483 -0.72895,-0.60336 -1.17777,-0.77557 -0.44881,-0.18574 -0.93928,-0.27841 -1.47221,-0.27841 -0.58889,0 -1.11468,0.11256 -1.57737,0.33807 -0.4627,0.22551 -0.84842,0.53693 -1.15674,0.93466 -0.30832,0.3846 -0.54682,0.84835 -0.71507,1.39204 -0.15437,0.53017 -0.23134,1.10687 -0.23134,1.73011 z m 0,9.16759 h -1.2619 V 145.4704 h 1.2619 v 1.80965 h 0.0421 c 0.18213,-0.3313 0.41348,-0.6296 0.69403,-0.89488 0.29445,-0.26528 0.60993,-0.48403 0.94643,-0.65625 0.35038,-0.17222 0.70792,-0.30506 1.0726,-0.39773 0.36469,-0.0927 0.72224,-0.1392 1.07262,-0.1392 0.88333,0 1.63331,0.1392 2.25037,0.41761 0.61708,0.27841 1.12183,0.66301 1.51428,1.15341 0.40676,0.47727 0.7012,1.04721 0.88333,1.71022 0.18214,0.66301 0.27341,1.37216 0.27341,2.12784 0,0.71591 -0.098,1.40517 -0.29444,2.06818 -0.19644,0.66301 -0.49761,1.24607 -0.90436,1.74999 -0.39245,0.4904 -0.89721,0.88813 -1.51428,1.19318 -0.60276,0.29154 -1.31783,0.4375 -2.14521,0.4375 -0.77103,0 -1.51428,-0.15909 -2.22935,-0.47727 -0.7012,-0.33131 -1.25475,-0.81534 -1.66149,-1.4517 z"
       fill="#ffffff"
       id="path32"
       style="stroke-width:0.409019" />
    <path
       d="m 143.72565,92.13529 v 79.74494"
       stroke="#ffffff"
       stroke-width="2.86313"
       stroke-linecap="square"
       id="path36" />
    <path
       fill-rule="evenodd"
       clip-rule="evenodd"
       d="m 76.741029,155.12242 c -7.849197,-1.57022 -9.307948,2.89108 -8.223728,5.3892 5.368984,2.5538 11.470962,4.00987 17.952811,4.00987 14.716218,0 27.516878,-7.45856 34.090508,-18.44416 -4.5037,2.1346 -26.135522,12.58685 -43.819591,9.04509 z"
       fill="#ffffff"
       id="path38"
       style="stroke-width:0.409019" />
    <path
       fill-rule="evenodd"
       clip-rule="evenodd"
       d="m 110.21477,108.78694 c -6.04616,-0.17938 -24.593913,-16.34206 -43.480569,-6.08872 1.089563,-0.51855 6.302661,-2.29754 16.467183,4.86086 1.912191,1.34853 29.153136,26.6135 41.344726,28.3989 0.46564,-2.18193 0.71507,-4.43386 0.71507,-6.73789 0,-9.46072 -4.09863,-18.04592 -10.75807,-24.38413 0.2957,1.2637 0.43367,4.09285 -4.28834,3.95098 z"
       fill="#ffffff"
       id="path40"
       style="stroke-width:0.409019" />
    <path
       fill-rule="evenodd"
       clip-rule="evenodd"
       d="m 118.99587,142.0416 c 0,0 -12.11082,-2.36409 -45.387328,-25.625 -1.066258,-0.74355 -12.988852,-9.77066 -24.730406,4.05709 -0.783132,2.79801 -1.20246,5.72647 -1.20246,8.74799 0,2.48858 0.286745,4.9163 0.826121,7.26129 5.601972,-7.07674 39.106124,17.53417 70.494073,5.55863 z"
       fill="#ffffff"
       id="path42"
       style="stroke-width:0.409019" />
    <text
       xml:space="preserve"
       style="font-style:normal;font-variant:normal;font-weight:normal;font-stretch:normal;font-size:39.2658px;font-family:Helvetica;-inkscape-font-specification:Helvetica;fill:#000000;fill-opacity:1;stroke-width:0.409019"
       x="155.38408"
       y="138.33827"
       id="text480"
       transform="scale(1.0283922,0.97239167)"><tspan
         sodipodi:role="line"
         id="tspan478"
         x="155.38408"
         y="138.33827"
         style="font-style:normal;font-variant:normal;font-weight:bold;font-stretch:normal;font-size:39.2658px;font-family:Helvetica;-inkscape-font-specification:Helvetica;fill:#ffffff;fill-opacity:1;stroke-width:0.409019">GLE</tspan></text>
  </g>
  <defs
     id="defs49">
    <clipPath
       id="clip0">
      <rect
         width="760"
         height="202"
         fill="#ffffff"
         transform="translate(20,34)"
         id="rect46"
         x="0"
         y="0" />
    </clipPath>
  </defs>
</svg>
