<svg width="375" height="212" viewBox="0 0 375 212" fill="none" xmlns="http://www.w3.org/2000/svg">
<path d="M5.16701 65.2251C4.11819 68.0238 3.7805 71.0402 4.18441 74.0024C4.58831 76.9646 5.72111 79.7794 7.48066 82.1931C9.24022 84.6068 11.5712 86.5435 14.2635 87.8285C16.9558 89.1136 19.9247 89.7066 22.9026 89.5542C21.2456 78.7548 17.1196 68.5092 5.18911 65.2251" fill="#EBEBEB"/>
<path d="M3.47681 59.9312C3.58902 60.1974 3.67594 60.4737 3.7364 60.7563C3.88001 61.3101 4.10647 62.0633 4.41026 63.0104C5.21163 65.4678 6.22438 67.8507 7.43707 70.1324C8.65906 72.4127 10.0785 74.5809 11.679 76.612C12.2976 77.3874 12.7837 78.0077 13.1759 78.423C13.3758 78.6328 13.5604 78.8567 13.7282 79.0931C13.5005 78.9155 13.2897 78.7171 13.0985 78.5006C12.7064 78.1018 12.1651 77.5037 11.5299 76.7394C8.19445 72.7298 5.70814 68.0811 4.22246 63.0768C3.94077 62.1243 3.74193 61.3378 3.63146 60.7951C3.55963 60.5111 3.50795 60.2224 3.47681 59.9312Z" fill="#E0E0E0"/>
<path d="M126.333 35.4189C128.055 36.2783 129.963 36.6951 131.885 36.6317C133.807 36.5682 135.683 36.0266 137.345 35.0555C139.006 34.0844 140.401 32.7143 141.403 31.0686C142.405 29.4228 142.983 27.553 143.086 25.6274C136.06 25.9653 129.222 27.9535 126.333 35.4189Z" fill="#EBEBEB"/>
<path d="M122.826 36.1833C122.826 36.139 123.61 36.0283 124.853 35.7514C128.107 35.0385 131.211 33.7622 134.027 31.9799C135.132 31.2932 135.745 30.8224 135.773 30.8723C135.656 31.019 135.518 31.1477 135.364 31.2544C135.088 31.487 134.668 31.8082 134.138 32.1627C131.355 34.0621 128.208 35.358 124.897 35.9674C124.262 36.0837 123.748 36.1501 123.389 36.1833C123.202 36.2087 123.013 36.2087 122.826 36.1833Z" fill="#E0E0E0"/>
<path d="M112.017 34.4165C114.496 33.8828 116.805 32.7393 118.734 31.0888C120.663 29.4383 122.153 27.3326 123.069 24.9613C123.985 22.59 124.299 20.0276 123.981 17.5046C123.664 14.9817 122.726 12.5774 121.252 10.5083C114.292 16.6501 108.868 24.3537 112.017 34.4165Z" fill="#EBEBEB"/>
<path d="M109.006 38.0607C109.143 37.8619 109.299 37.6764 109.47 37.5069C109.785 37.158 110.233 36.6374 110.763 35.9839C113.548 32.5723 115.705 28.6903 117.131 24.5199C117.408 23.7224 117.612 23.0689 117.744 22.6148C117.8 22.3747 117.879 22.1409 117.982 21.917C117.965 22.163 117.921 22.4064 117.849 22.6425C117.755 23.1077 117.573 23.7501 117.297 24.5808C115.972 28.8229 113.793 32.7473 110.895 36.1113C110.343 36.7537 109.868 37.2577 109.526 37.5844C109.37 37.7608 109.196 37.9204 109.006 38.0607Z" fill="#E0E0E0"/>
<path d="M208.527 25.2896C209.239 26.2053 210.168 26.9288 211.229 27.3948C212.291 27.8609 213.451 28.0549 214.605 27.9593C215.76 27.8637 216.872 27.4815 217.843 26.8472C218.813 26.2129 219.611 25.3465 220.164 24.3259C216.259 22.6645 212.029 21.9833 208.527 25.2896Z" fill="#EBEBEB"/>
<path d="M206.433 24.7798C209.178 25.5 212.038 25.6601 214.845 25.2505C214.458 25.4144 214.048 25.5207 213.63 25.5662C211.621 25.8943 209.565 25.7791 207.604 25.2284C207.194 25.139 206.799 24.9878 206.433 24.7798Z" fill="#E0E0E0"/>
<path d="M341.22 42.3247C343.073 42.8359 345.024 42.8776 346.896 42.4458C348.769 42.0141 350.506 41.1226 351.95 39.8514C353.394 38.5802 354.501 36.9691 355.17 35.163C355.84 33.3569 356.051 31.4123 355.785 29.5039C348.959 31.1654 342.629 34.4495 341.22 42.3247Z" fill="#EBEBEB"/>
<path d="M337.917 43.7207C337.917 43.6764 338.652 43.4161 339.823 42.9066C342.88 41.5833 345.684 39.7354 348.108 37.446C349.041 36.5654 349.572 35.9784 349.61 36.0116C349.52 36.175 349.409 36.3259 349.279 36.4602C349.052 36.7426 348.727 37.1303 348.252 37.5678C345.882 39.9646 343.039 41.8395 339.906 43.0727C339.309 43.3053 338.801 43.477 338.47 43.5712C338.293 43.644 338.107 43.6942 337.917 43.7207Z" fill="#E0E0E0"/>
<path d="M222.385 136.119C222.565 155.192 218.419 169.776 209.946 179.87C201.473 189.965 189.874 195.078 175.149 195.211C160.346 195.355 148.58 190.467 139.849 180.546C131.118 170.625 126.659 156.13 126.471 137.06L126.151 103.521C125.967 84.5219 130.113 69.9381 138.59 59.7701C147.066 49.602 158.704 44.4553 173.503 44.3297C188.232 44.1857 199.965 49.1092 208.703 59.1C217.441 69.0908 221.899 83.5841 222.076 102.58L222.385 136.119ZM197.624 99.0577C197.502 87.0473 195.416 78.1789 191.366 72.4524C187.315 66.726 181.423 63.8978 173.691 63.968C165.984 64.0418 160.168 66.9826 156.242 72.7903C152.317 78.5979 150.4 87.5051 150.493 99.5118L150.879 140.267C150.993 152.34 153.105 161.258 157.215 167.022C161.324 172.785 167.228 175.63 174.928 175.556C182.628 175.482 188.425 172.542 192.321 166.734C196.217 160.926 198.108 151.953 197.994 139.813L197.624 99.0577Z" fill="#AC302C"/>
<g opacity="0.4">
<path d="M222.385 136.119C222.565 155.192 218.419 169.776 209.946 179.87C201.473 189.965 189.874 195.078 175.149 195.211C160.346 195.355 148.58 190.467 139.849 180.546C131.118 170.625 126.659 156.13 126.471 137.06L126.151 103.521C125.967 84.5219 130.113 69.9381 138.59 59.7701C147.066 49.602 158.704 44.4553 173.503 44.3297C188.232 44.1857 199.965 49.1092 208.703 59.1C217.441 69.0908 221.899 83.5841 222.076 102.58L222.385 136.119ZM197.624 99.0577C197.502 87.0473 195.416 78.1789 191.366 72.4524C187.315 66.726 181.423 63.8978 173.691 63.968C165.984 64.0418 160.168 66.9826 156.242 72.7903C152.317 78.5979 150.4 87.5051 150.493 99.5118L150.879 140.267C150.993 152.34 153.105 161.258 157.215 167.022C161.324 172.785 167.228 175.63 174.928 175.556C182.628 175.482 188.425 172.542 192.321 166.734C196.217 160.926 198.108 151.953 197.994 139.813L197.624 99.0577Z" fill="black"/>
</g>
<path d="M236.447 135.986C236.632 155.056 232.485 169.64 224.009 179.737C215.532 189.835 203.933 194.949 189.212 195.078C174.409 195.222 162.642 190.332 153.912 180.408C145.181 170.483 140.727 155.984 140.551 136.911L140.23 103.372C140.046 84.3724 144.192 69.7886 152.669 59.6205C161.145 49.4525 172.783 44.3039 187.582 44.1746C202.311 44.038 214.045 48.9614 222.783 58.9449C231.521 68.9283 235.961 83.429 236.105 102.447L236.447 135.986ZM211.686 98.9248C211.568 86.9181 209.473 78.057 205.401 72.3417C201.328 66.6263 195.436 63.7981 187.726 63.8572C180.019 63.9347 174.203 66.8755 170.277 72.6795C166.352 78.4835 164.445 87.3925 164.555 99.4066L164.947 140.156C165.065 152.233 167.177 161.153 171.283 166.917C175.388 172.68 181.293 175.525 188.996 175.451C196.696 175.373 202.493 172.433 206.389 166.629C210.285 160.825 212.174 151.849 212.056 139.702L211.686 98.9248Z" fill="#AC302C"/>
<path d="M140.302 105.366C140.33 105.438 137.065 106.739 133.011 108.268C128.957 109.796 125.637 110.948 125.637 110.899C125.637 110.849 128.874 109.525 132.928 107.997C136.982 106.468 140.274 105.288 140.302 105.366Z" fill="#AC302C"/>
<path d="M141.103 118.619C141.13 118.691 137.866 119.992 133.806 121.521C129.747 123.049 126.444 124.223 126.416 124.151C126.389 124.079 129.653 122.778 133.707 121.249C137.761 119.721 141.103 118.541 141.103 118.619Z" fill="#AC302C"/>
<path d="M141.926 131.871C141.953 131.943 138.689 133.245 134.629 134.773C130.57 136.302 127.294 137.476 127.239 137.404C127.184 137.332 130.476 136.03 134.53 134.502C138.584 132.973 141.898 131.794 141.926 131.871Z" fill="#AC302C"/>
<path d="M142.76 145.124C142.787 145.196 139.523 146.498 135.463 148.026C131.404 149.555 128.095 150.729 128.068 150.657C128.04 150.585 131.31 149.283 135.364 147.755C139.418 146.226 142.71 145.047 142.76 145.124Z" fill="#AC302C"/>
<path d="M143.55 158.377C143.391 158.479 143.22 158.563 143.042 158.626C142.71 158.77 142.224 158.97 141.628 159.208C140.424 159.689 138.761 160.315 136.916 161.03C135.071 161.744 133.392 162.337 132.172 162.769C131.564 162.985 131.067 163.156 130.724 163.267C130.548 163.341 130.362 163.39 130.172 163.411C130.33 163.307 130.501 163.223 130.68 163.162C131.012 163.018 131.492 162.819 132.094 162.608C133.293 162.126 134.961 161.5 136.806 160.786C138.651 160.072 140.33 159.474 141.55 159.047C142.158 158.831 142.655 158.659 142.997 158.549C143.172 158.463 143.358 158.406 143.55 158.377Z" fill="#AC302C"/>
<path d="M147.322 170.5C146.789 170.788 146.235 171.034 145.665 171.237C144.616 171.658 143.163 172.223 141.556 172.832C139.948 173.441 138.479 173.973 137.419 174.344C136.852 174.575 136.269 174.76 135.673 174.898C136.205 174.608 136.759 174.362 137.33 174.161C138.374 173.735 139.827 173.17 141.44 172.566C143.053 171.963 144.511 171.425 145.577 171.054C146.142 170.821 146.726 170.635 147.322 170.5Z" fill="#AC302C"/>
<path d="M155.403 181.62C154.927 181.885 154.43 182.109 153.917 182.29C152.984 182.667 151.708 183.171 150.261 183.714C148.814 184.256 147.499 184.727 146.571 185.054C146.066 185.259 145.545 185.42 145.013 185.536C145.487 185.268 145.985 185.043 146.499 184.865C147.427 184.489 148.709 183.985 150.156 183.442C151.603 182.899 152.917 182.429 153.845 182.096C154.349 181.892 154.871 181.732 155.403 181.62Z" fill="#AC302C"/>
<path d="M168.83 188.915C168.354 189.176 167.857 189.398 167.344 189.579C166.411 189.961 165.135 190.465 163.688 191.002C162.241 191.54 160.926 192.016 159.998 192.348C159.494 192.553 158.973 192.712 158.441 192.824C158.916 192.559 159.413 192.335 159.926 192.154C160.86 191.778 162.136 191.274 163.583 190.731C165.03 190.188 166.345 189.718 167.273 189.391C167.775 189.183 168.297 189.023 168.83 188.915Z" fill="#AC302C"/>
<path d="M209.328 160.631C209.361 160.703 205.169 162.663 199.966 165.012C194.763 167.36 190.515 169.198 190.482 169.126C190.449 169.054 194.641 167.094 199.872 164.746C205.102 162.398 209.295 160.559 209.328 160.631Z" fill="#AC302C"/>
<path d="M212.078 149.278C212.111 149.35 208.648 150.978 204.346 152.916C200.043 154.855 196.53 156.372 196.497 156.3C196.464 156.228 199.921 154.594 204.23 152.656C208.538 150.718 212.045 149.206 212.078 149.278Z" fill="#AC302C"/>
<path d="M213.343 136.524C213.376 136.596 209.913 138.224 205.61 140.162C201.308 142.101 197.795 143.618 197.762 143.546C197.728 143.474 201.186 141.84 205.494 139.902C209.803 137.964 213.31 136.424 213.343 136.524Z" fill="#AC302C"/>
<path d="M214.608 123.764C214.641 123.836 211.183 125.469 206.875 127.408C202.567 129.346 199.06 130.858 199.026 130.786C198.993 130.714 202.456 129.086 206.759 127.147C211.062 125.209 214.564 123.686 214.608 123.764Z" fill="#AC302C"/>
<path d="M215.878 111.009C215.906 111.081 212.448 112.715 208.145 114.653C203.843 116.592 200.33 118.103 200.297 118.031C200.264 117.959 203.727 116.331 208.029 114.387C212.332 112.444 215.845 110.948 215.878 111.009Z" fill="#AC302C"/>
<path d="M213.343 99.6509C213.376 99.7229 209.913 101.357 205.61 103.295C201.308 105.233 197.795 106.745 197.762 106.673C197.728 106.601 201.186 104.968 205.494 103.029C209.803 101.091 213.31 99.5789 213.343 99.6509Z" fill="#AC302C"/>
<path d="M213.343 87.4224C213.376 87.4944 209.913 89.1281 205.61 91.0665C201.308 93.0048 197.795 94.5168 197.762 94.4448C197.728 94.3728 201.186 92.739 205.494 90.8007C209.803 88.8623 213.31 87.3504 213.343 87.4224Z" fill="#AC302C"/>
<path d="M212.078 75.9087C212.111 75.9807 208.648 77.6089 204.346 79.5473C200.043 81.4856 196.53 83.0031 196.497 82.9311C196.464 82.8591 199.921 81.2253 204.23 79.287C208.538 77.3486 212.045 75.8367 212.078 75.9087Z" fill="#AC302C"/>
<path d="M201.17 67.8838C199.653 68.7263 198.091 69.4843 196.491 70.1544C194.929 70.9105 193.327 71.5798 191.692 72.1592C193.206 71.3128 194.768 70.5546 196.37 69.8886C197.932 69.1325 199.534 68.4632 201.17 67.8838Z" fill="#AC302C"/>
<path d="M195.337 62.9717C193.819 63.8096 192.257 64.5657 190.658 65.2368C189.096 65.9929 187.494 66.6622 185.859 67.2416C187.376 66.4029 188.937 65.6486 190.537 64.982C192.099 64.224 193.701 63.5529 195.337 62.9717Z" fill="#AC302C"/>
<path d="M140.926 89.3C140.954 89.372 137.689 90.6735 133.635 92.202C129.581 93.7305 126.267 94.9102 126.239 94.8326C126.212 94.7551 129.476 93.4592 133.536 91.9306C137.595 90.4021 140.898 89.228 140.926 89.3Z" fill="#AC302C"/>
<path d="M144.969 72.7738C145.002 72.8458 141.456 74.247 137.065 75.9084C132.674 77.5699 129.078 78.8436 129.051 78.7716C129.023 78.6997 132.564 77.293 136.96 75.6371C141.357 73.9812 144.969 72.6963 144.969 72.7738Z" fill="#AC302C"/>
<path d="M155.613 56.4139C155.64 56.4914 151.15 58.247 145.582 60.346C140.015 62.445 135.48 64.0842 135.452 64.0122C135.425 63.9403 139.915 62.1736 145.483 60.0746C151.05 57.9757 155.585 56.3419 155.613 56.4139Z" fill="#AC302C"/>
<path d="M234.067 160.792L233.835 160.714L233.172 160.454C232.879 160.349 232.498 160.266 232.067 160.144C231.551 160.043 231.029 159.978 230.504 159.95C228.146 159.8 224.611 160.659 221.192 163.228C219.341 164.634 217.682 166.279 216.259 168.119C214.674 170.063 213.122 172.261 211.36 174.476C209.567 176.853 207.421 178.939 204.997 180.663C202.343 182.457 199.344 183.676 196.193 184.24C193.041 184.809 189.805 184.702 186.698 183.924C183.83 183.17 181.044 182.133 178.38 180.829C175.812 179.638 173.409 178.425 171.122 177.423C168.996 176.481 166.788 175.734 164.527 175.191C162.663 174.749 160.754 174.53 158.838 174.537C157.393 174.548 155.954 174.744 154.558 175.119C153.679 175.377 152.826 175.713 152.006 176.121L151.376 176.454C151.307 176.497 151.233 176.532 151.155 176.559L151.36 176.431L151.978 176.071C152.791 175.637 153.644 175.282 154.525 175.014C155.928 174.617 157.375 174.403 158.833 174.377C160.763 174.352 162.69 174.558 164.572 174.991C166.843 175.528 169.062 176.269 171.2 177.207C173.508 178.204 175.911 179.422 178.474 180.596C181.128 181.887 183.903 182.911 186.759 183.653C189.832 184.423 193.032 184.528 196.149 183.963C199.261 183.405 202.224 182.204 204.848 180.435C207.254 178.732 209.385 176.668 211.167 174.316C212.929 172.101 214.481 169.919 216.088 167.969C217.524 166.124 219.195 164.476 221.059 163.068C224.528 160.498 228.113 159.656 230.499 159.845C231.03 159.88 231.558 159.952 232.078 160.061C232.52 160.199 232.901 160.288 233.183 160.404L233.84 160.692L234.067 160.792Z" fill="white"/>
<path d="M237.552 123.852C237.552 123.88 237.16 123.93 236.475 124.157C235.523 124.506 234.624 124.989 233.807 125.591C232.758 126.328 231.598 127.358 230.267 128.421C228.798 129.57 227.207 130.553 225.522 131.351C222.465 132.82 219.152 133.678 215.768 133.876C215.122 133.932 214.531 133.915 214.017 133.926C213.503 133.937 213.061 133.893 212.702 133.865L211.868 133.782C211.772 133.781 211.677 133.764 211.587 133.732C211.682 133.719 211.779 133.719 211.874 133.732L212.708 133.76H214.017C214.531 133.732 215.122 133.76 215.751 133.671C219.099 133.412 222.37 132.535 225.401 131.085C227.065 130.292 228.642 129.327 230.107 128.205C231.449 127.164 232.614 126.139 233.697 125.436C234.541 124.837 235.472 124.374 236.458 124.063C236.727 123.986 237 123.927 237.276 123.885C237.366 123.86 237.459 123.849 237.552 123.852Z" fill="white"/>
<path d="M165.406 136.684C165.305 136.679 165.205 136.664 165.107 136.64C164.909 136.595 164.616 136.551 164.246 136.446C163.208 136.138 162.214 135.701 161.285 135.144C159.923 134.306 158.63 133.36 157.419 132.314C156.033 131.162 154.552 129.85 152.857 128.676C151.273 127.554 149.496 126.737 147.615 126.267C145.03 125.629 142.329 125.64 139.75 126.3C139.015 126.488 138.617 126.632 138.612 126.605C138.697 126.549 138.79 126.506 138.888 126.477C139.076 126.405 139.352 126.294 139.722 126.189C140.757 125.886 141.822 125.7 142.898 125.635C144.501 125.517 146.113 125.649 147.676 126.029C149.593 126.495 151.405 127.32 153.017 128.46C154.735 129.651 156.215 130.974 157.59 132.132C158.783 133.18 160.054 134.137 161.39 134.995C162.299 135.557 163.268 136.016 164.279 136.363C164.66 136.45 165.036 136.557 165.406 136.684Z" fill="white"/>
<path d="M165.5 84.3322C165.202 84.4706 164.894 84.5836 164.577 84.67C164.215 84.798 163.846 84.9071 163.473 84.9967C163.036 85.1075 162.545 85.257 161.987 85.3567C161.429 85.4564 160.827 85.5949 160.164 85.6779C159.501 85.761 158.8 85.8385 158.054 85.905C156.435 86.008 154.81 85.9877 153.194 85.8441C151.578 85.6821 149.978 85.3988 148.405 84.9967C147.687 84.7918 146.996 84.6035 146.372 84.3765C145.748 84.1494 145.163 83.939 144.643 83.723C144.124 83.507 143.66 83.2799 143.252 83.0916C142.843 82.9033 142.506 82.7206 142.23 82.5655C141.937 82.4193 141.657 82.2508 141.39 82.0615C141.696 82.1745 141.993 82.3097 142.279 82.4658C142.561 82.6043 142.909 82.7759 143.318 82.9476C143.727 83.1193 144.19 83.3408 144.721 83.5291C145.251 83.7174 145.825 83.9556 146.45 84.1494C147.074 84.3432 147.753 84.5426 148.471 84.7364C151.595 85.5264 154.821 85.8308 158.038 85.6392C158.778 85.5783 159.479 85.5395 160.136 85.4398C160.794 85.3401 161.396 85.257 161.948 85.1573C162.5 85.0577 162.992 84.9358 163.428 84.8417C163.865 84.7475 164.24 84.6478 164.533 84.5648C164.849 84.4641 165.172 84.3864 165.5 84.3322Z" fill="white"/>
<path d="M234.415 84.1934C234.333 84.1635 234.256 84.1244 234.183 84.0771L233.542 83.706C233.21 83.5031 232.867 83.3183 232.515 83.1522C232.061 82.9081 231.594 82.6881 231.117 82.4932L230.289 82.1443C229.996 82.028 229.687 81.9394 229.366 81.8286C228.737 81.596 228.035 81.4354 227.301 81.2416C224.089 80.509 220.758 80.4806 217.535 81.1585C216.834 81.3074 216.141 81.4922 215.459 81.7123C215.138 81.8175 214.823 81.9006 214.531 82.0114L213.697 82.3437C213.217 82.5319 212.747 82.7445 212.288 82.9805C211.932 83.1428 211.587 83.3278 211.255 83.5344L210.603 83.8943C210.454 83.9719 210.371 84.0106 210.366 83.9996C210.429 83.9389 210.499 83.8867 210.576 83.8445L211.194 83.4347C211.522 83.2163 211.863 83.0202 212.216 82.8476C212.67 82.5924 213.138 82.3649 213.619 82.1664L214.453 81.812C214.746 81.6957 215.066 81.6071 215.387 81.4963C216.073 81.2641 216.772 81.0699 217.48 80.9148C220.739 80.1982 224.116 80.2285 227.361 81.0034C228.102 81.2028 228.809 81.3745 229.444 81.6182C229.764 81.7345 230.079 81.8286 230.366 81.956L231.2 82.3215C231.676 82.5323 232.14 82.7671 232.592 83.0249C232.94 83.2058 233.276 83.4093 233.597 83.634L234.216 84.055C234.354 84.1269 234.448 84.1823 234.415 84.1934Z" fill="white"/>
<path d="M200.645 46.5728C200.521 46.6669 200.387 46.7485 200.247 46.8164L199.098 47.4533C198.076 48.0071 196.596 48.7769 194.74 49.7073C191.04 51.5405 185.842 54.0493 179.689 55.611C176.796 56.3401 173.833 56.7523 170.852 56.8405C168.418 56.9118 165.985 56.7018 163.6 56.2147C161.992 55.891 160.419 55.4106 158.905 54.7803C158.352 54.5698 157.971 54.3483 157.695 54.2265C157.552 54.1647 157.413 54.0926 157.281 54.0105C157.432 54.0497 157.578 54.1054 157.717 54.1766C158.004 54.2819 158.402 54.4868 158.949 54.6806C160.469 55.2675 162.038 55.7161 163.638 56.0208C166.013 56.4756 168.43 56.6614 170.846 56.5747C173.804 56.4717 176.742 56.054 179.612 55.3286C185.726 53.7779 190.929 51.3134 194.646 49.5246L199.065 47.3481L200.203 46.761C200.346 46.6887 200.494 46.6258 200.645 46.5728Z" fill="white"/>
<path d="M89.7685 143.07L108.233 143.878L107.377 163.5L88.9124 162.691L87.4929 195.295L63.19 194.231L64.6096 161.628L1.9137 158.881L1.96341 143.928L68.7963 47.6753L93.8835 48.7829L89.7685 143.07ZM26.2497 140.301L65.4657 142.018L68.0506 82.549L67.4596 82.3219L65.2503 86.5586L26.2497 140.301Z" fill="#AC302C"/>
<g opacity="0.4">
<path d="M89.7685 143.07L108.233 143.878L107.377 163.5L88.9124 162.691L87.4929 195.295L63.19 194.231L64.6096 161.628L1.9137 158.881L1.96341 143.928L68.7963 47.6753L93.8835 48.7829L89.7685 143.07ZM26.2497 140.301L65.4657 142.018L68.0506 82.549L67.4596 82.3219L65.2503 86.5586L26.2497 140.301Z" fill="black"/>
</g>
<path d="M105.201 143.745L123.666 144.554L122.809 164.175L104.345 163.367L102.925 195.97L78.6225 194.907L80.042 162.303L17.3185 159.534L17.3682 144.581L84.2121 48.3672L109.305 49.4748L105.201 143.745ZM41.6821 140.976L80.9257 142.693L83.5106 83.2243L82.9196 82.9972L80.7103 87.2339L41.6821 140.976Z" fill="#AC302C"/>
<path d="M17.705 147.456C17.5194 147.591 17.3193 147.704 17.1084 147.794C16.7163 147.993 16.1418 148.27 15.4514 148.602C14.0319 149.273 12.049 150.164 9.83415 151.106C7.61927 152.047 5.60324 152.845 4.13402 153.404C3.39941 153.681 2.79736 153.897 2.38311 154.041C2.17111 154.129 1.95094 154.196 1.72583 154.24C1.91961 154.115 2.1272 154.013 2.34445 153.936L4.0567 153.21L9.70159 150.823L15.3465 148.403L17.0643 147.672C17.2699 147.578 17.4846 147.506 17.705 147.456Z" fill="#AC302C"/>
<path d="M26.6971 130.886C26.4294 131.051 26.1508 131.197 25.8631 131.323C25.3108 131.589 24.5264 131.966 23.5433 132.431C21.5714 133.328 18.8374 134.53 15.8105 135.82C12.7837 137.111 9.98338 138.213 7.98944 138.999C6.98419 139.398 6.16673 139.708 5.5923 139.913C5.30364 140.037 5.00407 140.133 4.69751 140.201C4.97339 140.05 5.25946 139.919 5.55363 139.808L7.91212 138.811L15.7056 135.527L23.4825 132.204L25.841 131.201C26.1159 131.07 26.4026 130.964 26.6971 130.886Z" fill="#AC302C"/>
<path d="M37.6721 116.082C37.3942 116.254 37.1023 116.402 36.7994 116.525C36.2471 116.791 35.402 117.168 34.3746 117.633C32.3144 118.535 29.4588 119.737 26.2884 121.028C23.118 122.318 20.2127 123.442 18.1193 124.234C17.0699 124.627 16.2138 124.938 15.6228 125.142C15.321 125.267 15.0086 125.363 14.6893 125.43C14.9788 125.28 15.2777 125.149 15.5841 125.037L18.0475 124.04L26.178 120.756L34.2918 117.433L36.7552 116.431C37.0514 116.291 37.358 116.174 37.6721 116.082Z" fill="#AC302C"/>
<path d="M81.6325 133.162C81.4443 133.293 81.2424 133.402 81.0305 133.489C80.6383 133.683 80.0639 133.949 79.3458 134.27C77.9208 134.918 75.9324 135.776 73.7175 136.679C71.5026 137.582 69.4756 138.34 68.0063 138.894C67.2662 139.16 66.6697 139.37 66.2554 139.509C66.0426 139.59 65.8225 139.652 65.5981 139.692C65.7905 139.572 65.9963 139.475 66.2112 139.404L67.9345 138.706L73.6126 136.424L79.2685 134.098L80.9863 133.395C81.1925 133.294 81.4092 133.216 81.6325 133.162Z" fill="#AC302C"/>
<path d="M79.843 163.588C79.6624 163.719 79.4679 163.828 79.263 163.915C78.8819 164.103 78.3241 164.375 77.6336 164.696C76.2528 165.344 74.3196 166.202 72.1821 167.1C70.0445 167.997 68.0671 168.761 66.6587 169.315C65.9406 169.581 65.3607 169.791 64.9575 169.924C64.7514 170.01 64.5366 170.073 64.3168 170.112C64.504 169.992 64.7041 169.894 64.9133 169.819L66.5703 169.121L72.0937 166.845L77.5729 164.519L79.2299 163.821C79.4256 163.722 79.6311 163.644 79.843 163.588Z" fill="#AC302C"/>
<path d="M79.589 174.255C79.4175 174.382 79.2322 174.49 79.0366 174.576C78.6555 174.77 78.0976 175.036 77.3796 175.363C75.9988 176.005 74.0656 176.863 71.9225 177.766C69.7794 178.669 67.8131 179.428 66.3991 179.981C65.6866 180.247 65.1067 180.458 64.6979 180.596C64.4951 180.685 64.2815 180.746 64.0627 180.779C64.2517 180.664 64.4515 180.567 64.6593 180.491L66.3163 179.793L71.8397 177.517L77.3244 175.191L78.9814 174.493C79.1733 174.389 79.3774 174.309 79.589 174.255Z" fill="#AC302C"/>
<path d="M79.3349 184.916C79.1621 185.043 78.977 185.152 78.7826 185.242C78.4015 185.436 77.8436 185.702 77.1256 186.023C75.7392 186.671 73.8116 187.53 71.6685 188.427C69.5254 189.324 67.5591 190.088 66.1451 190.642C65.4326 190.908 64.8471 191.118 64.4439 191.251C64.2393 191.336 64.0264 191.399 63.8087 191.439C63.9957 191.319 64.1959 191.221 64.4052 191.146L66.0623 190.454L71.5856 188.172L77.0704 185.846L78.7274 185.148C78.9208 185.049 79.1245 184.971 79.3349 184.916Z" fill="#AC302C"/>
<path d="M81.9198 121.897C81.73 122.025 81.5284 122.134 81.3178 122.224C80.9256 122.418 80.3512 122.683 79.6608 123.005C78.2357 123.653 76.2473 124.511 74.0325 125.414C71.8176 126.316 69.7905 127.075 68.3213 127.629C67.5811 127.895 66.9846 128.105 66.5704 128.238C66.3581 128.323 66.1379 128.386 65.9131 128.426C66.1043 128.303 66.3103 128.204 66.5262 128.133L68.2495 127.435L73.9275 125.159L79.5834 122.833L81.3012 122.135C81.4984 122.034 81.7058 121.954 81.9198 121.897Z" fill="#AC302C"/>
<path d="M82.2071 110.633C82.0173 110.761 81.8157 110.87 81.605 110.96C81.2129 111.148 80.6385 111.419 79.9204 111.74C78.4954 112.388 76.507 113.247 74.2921 114.144C72.0772 115.041 70.0557 115.805 68.5809 116.359C67.8408 116.625 67.2443 116.83 66.83 116.968C66.6177 117.053 66.3975 117.116 66.1727 117.157C66.3656 117.033 66.5735 116.934 66.7914 116.863L68.5091 116.165L74.1872 113.889L79.8431 111.563L81.5609 110.865C81.7671 110.764 81.9838 110.686 82.2071 110.633Z" fill="#AC302C"/>
<path d="M82.4943 99.3682C82.321 99.4898 82.1359 99.5937 81.9419 99.6783C81.5719 99.8611 81.0251 100.116 80.3457 100.426C78.9814 101.046 77.0924 101.871 74.9825 102.724C72.8726 103.577 70.9394 104.314 69.5364 104.818C68.835 105.067 68.2661 105.266 67.8794 105.372C67.6768 105.454 67.4656 105.513 67.2498 105.549C67.4352 105.432 67.6336 105.337 67.8408 105.266L69.4978 104.602L74.9052 102.436L80.296 100.221L81.953 99.5565C82.1258 99.4735 82.3074 99.4103 82.4943 99.3682Z" fill="#AC302C"/>
<path d="M83.7647 88.8403C82.8828 89.319 81.9582 89.7139 81.003 90.02C80.0784 90.4146 79.1185 90.7206 78.1364 90.9338C79.0182 90.4535 79.9428 90.0568 80.898 89.7486C81.8222 89.354 82.7822 89.0498 83.7647 88.8403Z" fill="#AC302C"/>
<path d="M48.625 100.752C48.3464 100.92 48.0567 101.068 47.7578 101.195C47.2055 101.461 46.3604 101.832 45.3275 102.303C43.2728 103.206 40.4172 104.408 37.2413 105.698C34.0653 106.988 31.1656 108.118 29.0777 108.905C28.0283 109.298 27.1722 109.608 26.5812 109.813C26.277 109.932 25.9651 110.03 25.6477 110.106C25.934 109.948 26.2334 109.815 26.5425 109.708L29.0059 108.716L37.1363 105.41L45.2502 102.087L47.7081 101.085C48.006 100.954 48.3123 100.843 48.625 100.752Z" fill="#AC302C"/>
<path d="M59.5833 85.417C59.3054 85.5891 59.0135 85.7373 58.7106 85.86C58.1583 86.1259 57.3132 86.5025 56.2859 86.9677C54.2312 87.8649 51.3701 89.0722 48.1997 90.357C45.0292 91.6419 42.1239 92.7772 40.0361 93.5636C38.9811 93.9624 38.1305 94.2725 37.534 94.4774C37.2336 94.6002 36.9231 94.6966 36.6061 94.7654C36.8925 94.6127 37.1897 94.4813 37.4953 94.3722L39.9588 93.3753L48.0892 90.0912L56.2086 86.7683L58.6665 85.7604C58.9632 85.6234 59.2697 85.5086 59.5833 85.417Z" fill="#AC302C"/>
<path d="M69.7076 70.0879C69.4275 70.256 69.1359 70.4041 68.8349 70.5309C68.2826 70.7968 67.4375 71.1678 66.4101 71.6386C64.3554 72.5413 61.4943 73.7431 58.3239 75.0335C55.1535 76.3238 52.2482 77.4536 50.1604 78.24C49.1109 78.6333 48.2548 78.9434 47.6638 79.1483C47.3596 79.2672 47.0478 79.3653 46.7303 79.4418C47.0167 79.2834 47.316 79.15 47.6251 79.0431L50.0886 78.0517L58.219 74.7676L66.3328 71.4447L68.7907 70.4423C69.0854 70.2974 69.3922 70.1788 69.7076 70.0879Z" fill="#AC302C"/>
<path d="M80.2463 55.3452C79.9654 55.5118 79.6739 55.6598 79.3736 55.7883C78.8213 56.0541 77.9762 56.4251 76.9489 56.8959C74.8886 57.7986 72.0331 59.0004 68.8626 60.2908C65.6922 61.5812 62.7869 62.7109 60.6936 63.4974C59.6441 63.8906 58.7935 64.2007 58.197 64.4056C57.8935 64.5264 57.5815 64.6245 57.2635 64.6991C57.5506 64.5422 57.8498 64.4088 58.1583 64.3004L60.6218 63.3091L68.7466 59.9973L76.8605 56.6744L79.3239 55.672C79.6229 55.5404 79.9312 55.4312 80.2463 55.3452Z" fill="#AC302C"/>
<path d="M108.206 77.869C108.113 78.0028 108.006 78.1255 107.885 78.2345C107.573 78.5785 107.239 78.9022 106.885 79.2036C105.597 80.3314 104.151 81.2643 102.594 81.9727C100.271 83.0193 97.7608 83.5845 95.2146 83.6342C93.7096 83.662 92.2074 83.4926 90.7462 83.1302C89.1864 82.7296 87.6736 82.1634 86.2336 81.4411C83.262 79.9901 80.6218 78.2788 78.0424 77.0881C75.7815 75.9767 73.3209 75.3326 70.8068 75.194C69.1128 75.107 67.4225 75.4239 65.8744 76.1189C65.4571 76.3151 65.0562 76.5447 64.6758 76.8056C64.5459 76.902 64.4093 76.989 64.2671 77.0659C64.3849 76.9556 64.5104 76.8538 64.6427 76.7613C65.0136 76.4788 65.4092 76.2304 65.8247 76.0192C67.374 75.2772 69.08 74.9237 70.7957 74.9891C73.3454 75.1104 75.8434 75.753 78.1363 76.8776C80.7433 78.0683 83.3946 79.7741 86.3385 81.214C87.7645 81.9218 89.2602 82.4787 90.8014 82.8754C92.2371 83.2342 93.713 83.4055 95.1925 83.3849C99.4327 83.3265 103.526 81.8159 106.792 79.104C107.261 78.7274 107.592 78.3951 107.824 78.1791C107.943 78.0658 108.071 77.9621 108.206 77.869Z" fill="white"/>
<path d="M100.517 50.4883C100.294 50.6433 100.06 50.7803 99.8155 50.8981C99.3571 51.1473 98.6722 51.4519 97.8105 51.8396C96.8005 52.2655 95.768 52.6353 94.7174 52.9472C92.1435 53.7176 89.4815 54.1532 86.7969 54.2431C85.6918 54.2835 84.5854 54.2613 83.4829 54.1767C82.5494 54.1047 81.8258 54.0161 81.2735 53.9219C81.0042 53.8917 80.7381 53.8379 80.4781 53.7613C80.7498 53.7518 81.0217 53.7685 81.2901 53.8112C81.8038 53.8721 82.5549 53.9275 83.4994 53.9718C84.4439 54.0161 85.5376 54.0272 86.7637 53.9718C88.092 53.9058 89.4158 53.769 90.7295 53.562C92.0325 53.3375 93.3231 53.0454 94.5959 52.6869C95.7724 52.3436 96.8053 51.9891 97.6835 51.6458C98.5617 51.3024 99.2411 51.0089 99.7161 50.7929C99.9728 50.666 100.241 50.564 100.517 50.4883Z" fill="white"/>
<path d="M61.3011 111.995C61.119 111.826 60.9526 111.641 60.804 111.441L59.5004 109.88C58.0455 108.182 56.5004 106.564 54.8719 105.034C53.9876 104.193 53.0154 103.45 51.9721 102.818C51.1186 102.306 50.1849 101.943 49.2104 101.744C48.3062 101.582 47.3805 101.582 46.4763 101.744C46.4763 101.744 46.5371 101.711 46.6586 101.672C46.8383 101.612 47.0233 101.57 47.2109 101.545C47.8892 101.43 48.5818 101.43 49.2601 101.545C50.2666 101.72 51.2336 102.075 52.1157 102.591C53.188 103.225 54.1833 103.982 55.0817 104.845C56.7221 106.38 58.2539 108.027 59.6661 109.774C60.2185 110.444 60.6272 111.004 60.9034 111.391C61.057 111.578 61.1903 111.78 61.3011 111.995Z" fill="white"/>
<path d="M105.361 128.726C105.361 128.726 105.289 128.793 105.146 128.892C105.002 128.992 104.787 129.153 104.488 129.319C103.659 129.806 102.789 130.219 101.887 130.554C98.8999 131.685 95.6544 131.944 92.5264 131.302C89.3983 130.66 86.5156 129.143 84.2121 126.926C83.5137 126.269 82.8776 125.547 82.312 124.772C82.1077 124.5 81.9751 124.273 81.8757 124.124C81.7763 123.974 81.7321 123.891 81.7431 123.886C81.9768 124.147 82.1963 124.42 82.4004 124.705C82.9974 125.444 83.6491 126.136 84.3501 126.777C86.6557 128.913 89.5003 130.377 92.5759 131.008C95.6515 131.64 98.8409 131.416 101.798 130.36C102.694 130.049 103.564 129.667 104.4 129.219C104.711 129.037 105.032 128.873 105.361 128.726Z" fill="white"/>
<path d="M121.451 163.793C121.451 163.793 121.395 163.71 121.296 163.533C121.197 163.356 121.042 163.101 120.854 162.769C120.3 161.784 119.668 160.845 118.965 159.961L118.214 159.075L117.811 158.593L117.341 158.133L116.347 157.148L115.187 156.184C113.335 154.708 111.291 153.491 109.111 152.568C106.481 151.452 103.678 150.798 100.826 150.635C97.5437 150.458 94.2613 150.987 91.199 152.185C87.9679 153.459 84.8472 155.381 81.5442 157.242C79.8714 158.211 78.1391 159.073 76.3577 159.822C74.5116 160.602 72.5646 161.115 70.5747 161.345C68.5836 161.546 66.5732 161.425 64.6205 160.985C62.7305 160.569 60.8914 159.947 59.1358 159.13C55.8472 157.535 52.7178 155.628 49.7903 153.437C46.9568 151.416 44.2669 149.461 41.6102 147.899C39.1676 146.399 36.5197 145.265 33.7504 144.532C31.4556 143.965 29.0793 143.808 26.7302 144.066C24.9566 144.251 23.2301 144.752 21.6321 145.545C20.6324 146.059 19.7039 146.701 18.8704 147.456L18.2297 148.054C18.0916 148.192 18.0143 148.259 18.0143 148.259C18.0143 148.259 18.075 148.181 18.2131 148.032L18.8152 147.384C19.6436 146.607 20.5725 145.946 21.5769 145.418C23.1826 144.598 24.9228 144.077 26.7136 143.878C29.0823 143.599 31.4816 143.744 33.8001 144.305C36.5916 145.034 39.2632 146.164 41.7317 147.661C44.4216 149.222 47.1059 151.172 49.9449 153.199C52.8615 155.374 55.9779 157.265 59.2518 158.848C60.9866 159.663 62.8055 160.286 64.6758 160.703C66.6015 161.135 68.5837 161.254 70.5471 161.057C72.506 160.83 74.423 160.326 76.2417 159.562C78.0117 158.815 79.7345 157.961 81.4006 157.004C84.7146 155.148 87.8298 153.221 91.0886 151.942C91.8925 151.625 92.7152 151.359 93.552 151.144C93.9663 151.039 94.375 150.912 94.7837 150.829L96.021 150.624C97.6111 150.386 99.2212 150.312 100.826 150.402C103.712 150.575 106.547 151.245 109.205 152.385C111.386 153.331 113.43 154.568 115.281 156.062C115.679 156.4 116.065 156.732 116.441 157.042L117.43 158.045L117.894 158.51C118.032 158.676 118.17 158.837 118.297 158.997C118.562 159.313 118.81 159.612 119.042 159.9C119.74 160.794 120.359 161.746 120.893 162.747C121.073 163.086 121.211 163.347 121.307 163.528C121.412 163.699 121.451 163.793 121.451 163.793Z" fill="white"/>
<path d="M104.759 186.926C104.669 186.962 104.574 186.986 104.477 186.998L103.66 187.153C103.231 187.24 102.797 187.304 102.362 187.347C101.854 187.397 101.257 187.48 100.627 187.496L99.6111 187.541C99.2631 187.541 98.8931 187.541 98.5064 187.541C97.7497 187.541 96.9378 187.469 96.0872 187.402C94.2437 187.2 92.4202 186.844 90.6356 186.339C88.8595 185.803 87.1304 185.121 85.4657 184.301C84.7146 183.896 83.991 183.525 83.3503 183.11C83.0299 182.911 82.7096 182.728 82.4168 182.556L81.5883 181.975C81.036 181.615 80.6107 181.233 80.2075 180.911C79.859 180.644 79.5253 180.357 79.2077 180.053C78.9702 179.82 78.7659 179.632 78.6057 179.499C78.5307 179.436 78.4639 179.363 78.4069 179.283C78.4924 179.331 78.5722 179.389 78.6444 179.455L79.2851 180.009C79.5557 180.241 79.8926 180.524 80.3069 180.823C80.7211 181.122 81.163 181.498 81.7043 181.847L82.5383 182.401C82.8311 182.595 83.1514 182.772 83.4718 182.955C84.1125 183.359 84.8361 183.719 85.5873 184.112C88.8907 185.745 92.4536 186.785 96.1148 187.186C96.9599 187.258 97.7718 187.347 98.5175 187.352C98.8931 187.352 99.2576 187.385 99.6222 187.352H100.627C101.268 187.352 101.848 187.28 102.356 187.247C102.864 187.214 103.301 187.158 103.654 187.103L104.477 187.003C104.567 186.964 104.662 186.938 104.759 186.926Z" fill="white"/>
<path d="M329.627 143.297L348.02 141.497L349.925 161.041L331.532 162.846L334.697 195.322L310.505 197.698L307.357 165.222L244.854 171.347L242.805 156.544L295.47 51.823L320.463 49.3696L329.627 143.297ZM266.34 149.505L305.429 145.672L299.651 86.4143L299.033 86.2758L297.453 90.7839L266.34 149.505Z" fill="#AC302C"/>
<g opacity="0.4">
<path d="M329.627 143.297L348.02 141.497L349.925 161.041L331.532 162.846L334.697 195.322L310.505 197.698L307.357 165.222L244.854 171.347L242.805 156.544L295.47 51.823L320.463 49.3696L329.627 143.297ZM266.34 149.505L305.429 145.672L299.651 86.4143L299.033 86.2758L297.453 90.7839L266.34 149.505Z" fill="black"/>
</g>
<path d="M345.009 141.79L363.402 139.985L365.313 159.534L346.915 161.345L350.085 193.827L325.887 196.197L322.723 163.721L260.237 169.835L258.198 155.037L310.864 50.3167L335.857 47.8633L345.009 141.79ZM281.728 147.993L320.817 144.177L315.04 84.919L314.415 84.775L312.841 89.2831L281.728 147.993Z" fill="#AC302C"/>
<path d="M258.894 157.807C258.725 157.964 258.54 158.103 258.342 158.222C257.983 158.477 257.453 158.831 256.795 159.263C255.475 160.127 253.642 161.29 251.581 162.531C249.521 163.771 247.638 164.851 246.257 165.61C245.572 165.986 245.009 166.291 244.6 166.49C244.402 166.608 244.193 166.704 243.976 166.778C244.144 166.627 244.329 166.497 244.528 166.391L246.124 165.433L251.405 162.281L256.652 159.091L258.248 158.128C258.45 157.996 258.667 157.888 258.894 157.807Z" fill="#AC302C"/>
<path d="M265.467 140.118C265.228 140.322 264.973 140.507 264.705 140.671C264.208 141.009 263.473 141.491 262.562 142.078C260.739 143.247 258.198 144.847 255.381 146.509C252.564 148.17 249.968 149.726 248.085 150.79C247.146 151.343 246.378 151.748 245.843 152.03C245.571 152.189 245.289 152.328 244.997 152.446C245.246 152.253 245.511 152.081 245.787 151.931L247.997 150.612L255.249 146.265L262.479 141.884L264.688 140.561C264.936 140.393 265.197 140.245 265.467 140.118Z" fill="#AC302C"/>
<path d="M274.26 123.93C274.008 124.135 273.74 124.32 273.459 124.484C272.907 124.827 272.167 125.314 271.211 125.907C269.3 127.086 266.638 128.676 263.678 130.404C260.717 132.132 258.016 133.655 256.044 134.762C255.061 135.316 254.26 135.731 253.702 136.019C253.419 136.18 253.123 136.319 252.819 136.435C253.081 136.243 253.358 136.07 253.647 135.92L255.945 134.585L263.534 130.188L271.106 125.757L273.399 124.417C273.673 124.233 273.961 124.07 274.26 123.93Z" fill="#AC302C"/>
<path d="M320.182 134.641C320.013 134.795 319.828 134.931 319.629 135.045C319.27 135.294 318.735 135.637 318.077 136.058C316.752 136.9 314.907 138.03 312.841 139.237C310.775 140.445 308.875 141.486 307.489 142.217C306.799 142.588 306.235 142.876 305.832 143.07C305.634 143.184 305.425 143.277 305.208 143.347C305.378 143.202 305.563 143.076 305.76 142.97L307.368 142.04L312.664 138.983L317.939 135.887L319.547 134.951C319.746 134.823 319.959 134.719 320.182 134.641Z" fill="#AC302C"/>
<path d="M322.678 165.012C322.511 165.168 322.326 165.304 322.126 165.416C321.778 165.66 321.264 166.003 320.624 166.424C319.348 167.255 317.564 168.379 315.564 169.575C313.565 170.771 311.726 171.79 310.383 172.533C309.715 172.898 309.168 173.186 308.787 173.38C308.596 173.495 308.392 173.586 308.18 173.651C308.35 173.508 308.535 173.384 308.732 173.28L310.284 172.355L315.415 169.326L320.519 166.247L322.071 165.322C322.26 165.194 322.464 165.09 322.678 165.012Z" fill="#AC302C"/>
<path d="M323.927 175.606C323.759 175.763 323.574 175.899 323.374 176.011C323.026 176.254 322.513 176.598 321.872 177.019C320.596 177.849 318.812 178.974 316.812 180.164C314.813 181.355 312.974 182.38 311.632 183.127C310.963 183.493 310.416 183.781 310.035 183.975C309.844 184.089 309.64 184.18 309.428 184.246C309.598 184.103 309.783 183.979 309.98 183.875L311.532 182.95L316.663 179.921L321.767 176.841L323.319 175.917C323.508 175.789 323.712 175.685 323.927 175.606Z" fill="#AC302C"/>
<path d="M325.164 186.201C324.997 186.357 324.811 186.493 324.611 186.605C324.263 186.849 323.75 187.192 323.109 187.607C321.833 188.444 320.049 189.568 318.05 190.759C316.05 191.949 314.211 192.974 312.869 193.721C312.2 194.087 311.654 194.375 311.273 194.569C311.08 194.68 310.876 194.771 310.665 194.84C310.836 194.697 311.021 194.573 311.217 194.469L312.769 193.544L317.901 190.515L323.004 187.436L324.556 186.511C324.746 186.383 324.95 186.279 325.164 186.201Z" fill="#AC302C"/>
<path d="M318.884 123.442C318.714 123.598 318.529 123.735 318.331 123.852C317.967 124.096 317.437 124.445 316.774 124.866C315.448 125.702 313.603 126.837 311.538 128.039C309.472 129.241 307.572 130.288 306.191 131.024C305.495 131.39 304.932 131.683 304.534 131.877C304.336 131.991 304.127 132.084 303.91 132.154C304.081 132.01 304.266 131.884 304.462 131.777L306.064 130.847L311.366 127.79L316.641 124.688L318.243 123.758C318.445 123.63 318.66 123.525 318.884 123.442Z" fill="#AC302C"/>
<path d="M317.586 112.25C317.418 112.406 317.232 112.544 317.034 112.659C316.669 112.903 316.139 113.246 315.476 113.667C314.156 114.509 312.311 115.644 310.24 116.846C308.168 118.048 306.279 119.095 304.893 119.831C304.203 120.197 303.639 120.49 303.236 120.684C303.04 120.801 302.831 120.892 302.612 120.955C302.782 120.812 302.967 120.687 303.164 120.584L304.766 119.648L310.068 116.597L315.343 113.496L316.945 112.56C317.148 112.435 317.362 112.331 317.586 112.25Z" fill="#AC302C"/>
<path d="M316.293 101.057C316.136 101.206 315.961 101.336 315.774 101.445C315.426 101.683 314.918 101.999 314.288 102.414C313.034 103.217 311.278 104.297 309.317 105.443C307.356 106.59 305.539 107.587 304.219 108.284L302.645 109.093C302.456 109.201 302.256 109.289 302.048 109.353C302.22 109.215 302.405 109.094 302.601 108.993L304.125 108.102L309.179 105.194L314.2 102.237L315.73 101.351C315.906 101.232 316.095 101.134 316.293 101.057Z" fill="#AC302C"/>
<path d="M316.072 90.457C315.266 91.0594 314.404 91.5824 313.498 92.0188C312.636 92.5379 311.728 92.9773 310.786 93.3313C311.592 92.729 312.454 92.206 313.36 91.7696C314.222 91.2494 315.13 90.81 316.072 90.457Z" fill="#AC302C"/>
<path d="M282.954 107.205C282.705 107.411 282.439 107.596 282.159 107.758C281.606 108.102 280.861 108.589 279.905 109.182C278 110.361 275.337 111.951 272.377 113.679C269.416 115.407 266.715 116.93 264.744 118.004C263.76 118.558 262.954 118.973 262.396 119.261C262.113 119.42 261.82 119.558 261.518 119.676C261.78 119.483 262.057 119.31 262.346 119.161L264.644 117.827L272.233 113.429L279.8 108.999L282.098 107.659C282.372 107.487 282.658 107.335 282.954 107.205Z" fill="#AC302C"/>
<path d="M291.653 90.457C291.401 90.6621 291.133 90.8472 290.853 91.0108C290.3 91.3542 289.56 91.8416 288.605 92.4342C286.693 93.6138 284.031 95.2032 281.076 96.9311C278.121 98.659 275.409 100.182 273.437 101.256C272.454 101.81 271.653 102.226 271.095 102.514C270.812 102.674 270.516 102.813 270.212 102.929C270.475 102.737 270.752 102.564 271.04 102.414L273.338 101.079L280.927 96.6819L288.5 92.2514L290.797 90.9112C291.071 90.7379 291.357 90.5861 291.653 90.457Z" fill="#AC302C"/>
<path d="M299.53 73.8706C299.277 74.0756 299.01 74.2608 298.729 74.4244C298.177 74.7678 297.436 75.2551 296.481 75.8477C294.57 77.0273 291.907 78.6168 288.947 80.3447C285.986 82.0726 283.285 83.5956 281.314 84.67C280.33 85.2238 279.53 85.6392 278.972 85.9272C278.687 86.0865 278.392 86.2253 278.088 86.3425C278.351 86.1502 278.628 85.9781 278.917 85.8275L281.214 84.4928L288.803 80.0955L296.376 75.665L298.668 74.3247C298.943 74.1506 299.231 73.9988 299.53 73.8706Z" fill="#AC302C"/>
<path d="M307.909 57.7822C307.656 57.9873 307.389 58.1724 307.108 58.336C306.583 58.6794 305.815 59.1668 304.86 59.7593C302.949 60.939 300.287 62.5284 297.326 64.2619C294.365 65.9953 291.665 67.5072 289.693 68.5871C288.71 69.141 287.909 69.5508 287.351 69.8388C287.067 70.0009 286.772 70.1416 286.467 70.2597C286.727 70.0616 287.004 69.8874 287.296 69.7391L289.593 68.4099L297.182 63.9794L304.755 59.5489L307.047 58.2087C307.323 58.0454 307.611 57.9028 307.909 57.7822Z" fill="#AC302C"/>
<path d="M338.735 76.147C338.659 76.2895 338.57 76.4248 338.47 76.5513C338.209 76.9387 337.923 77.3087 337.614 77.6589C336.496 78.962 335.193 80.0928 333.747 81.015C331.598 82.3903 329.193 83.3135 326.677 83.7287C325.192 83.9668 323.683 84.0096 322.187 83.8561C320.586 83.6792 319.008 83.3321 317.481 82.8204C314.333 81.807 311.482 80.4833 308.759 79.6637C306.365 78.8915 303.841 78.6072 301.336 78.8274C299.646 78.982 298.017 79.5341 296.58 80.439C296.192 80.6934 295.822 80.9766 295.476 81.2864C295.365 81.4031 295.243 81.5088 295.111 81.602C295.209 81.4746 295.318 81.356 295.437 81.2476C295.765 80.9152 296.121 80.6131 296.503 80.3449C297.938 79.3902 299.584 78.8009 301.297 78.6281C303.837 78.3606 306.405 78.6169 308.842 79.3812C311.604 80.1954 314.454 81.5079 317.569 82.5214C319.08 83.0241 320.639 83.3693 322.22 83.5515C323.692 83.7024 325.177 83.6633 326.639 83.4352C329.122 83.0391 331.502 82.1484 333.637 80.8156C335.069 79.9143 336.37 78.8184 337.503 77.5592C337.818 77.2211 338.115 76.8661 338.392 76.4959C338.498 76.3716 338.613 76.255 338.735 76.147Z" fill="white"/>
<path d="M327.279 50.123C327.083 50.31 326.871 50.4787 326.644 50.627C326.224 50.9427 325.595 51.3581 324.794 51.8399C323.854 52.4043 322.884 52.9165 321.889 53.3739C320.665 53.9281 319.411 54.4108 318.133 54.8194C316.849 55.2154 315.543 55.5353 314.222 55.7775C313.143 55.967 312.056 56.1 310.963 56.1762C310.03 56.2372 309.273 56.2482 308.754 56.2316C308.482 56.2431 308.21 56.2264 307.942 56.1818C308.208 56.1362 308.478 56.1158 308.748 56.1209C309.268 56.1209 310.019 56.0544 310.958 55.9713C311.897 55.8883 312.979 55.7387 314.183 55.5172C315.488 55.2601 316.778 54.9366 318.05 54.548C319.319 54.1425 320.565 53.6693 321.784 53.1303C322.888 52.6263 323.888 52.1279 324.694 51.6627C325.501 51.1974 326.147 50.8153 326.583 50.555C326.802 50.391 327.035 50.2465 327.279 50.123Z" fill="white"/>
<path d="M297.083 116.548C296.885 116.402 296.7 116.239 296.531 116.06L295.017 114.703C293.34 113.227 291.585 111.842 289.759 110.555C288.765 109.839 287.697 109.234 286.572 108.75C285.656 108.364 284.681 108.138 283.689 108.08C282.77 108.041 281.852 108.165 280.977 108.445C280.977 108.445 281.032 108.401 281.148 108.346C281.316 108.266 281.489 108.199 281.667 108.146C282.325 107.943 283.012 107.851 283.7 107.875C284.72 107.907 285.726 108.121 286.671 108.506C287.82 108.982 288.91 109.59 289.919 110.317C291.76 111.606 293.51 113.022 295.155 114.554C295.785 115.141 296.26 115.661 296.608 115.983C296.787 116.152 296.947 116.342 297.083 116.548Z" fill="white"/>
<path d="M343.048 126.904C343.048 126.904 342.993 126.976 342.861 127.098C342.728 127.219 342.54 127.402 342.27 127.607C341.523 128.21 340.722 128.742 339.878 129.197C337.08 130.729 333.907 131.439 330.724 131.243C327.541 131.047 324.479 129.954 321.888 128.089C321.107 127.536 320.378 126.911 319.712 126.223C319.469 125.984 319.303 125.78 319.16 125.669C319.094 125.603 319.038 125.529 318.994 125.447C318.994 125.447 319.27 125.702 319.762 126.167C320.451 126.816 321.19 127.411 321.971 127.945C324.551 129.739 327.571 130.791 330.704 130.986C333.837 131.181 336.964 130.513 339.745 129.053C340.589 128.617 341.398 128.118 342.165 127.557C342.447 127.323 342.742 127.105 343.048 126.904Z" fill="white"/>
<path d="M363.905 159.346C363.831 159.279 363.761 159.207 363.695 159.13C363.562 158.97 363.386 158.737 363.143 158.438C362.454 157.542 361.697 156.702 360.878 155.924L360.005 155.148L359.541 154.733L358.989 154.34L357.884 153.509L356.597 152.717C354.562 151.518 352.373 150.601 350.091 149.992C347.326 149.252 344.454 148.994 341.601 149.228C338.327 149.518 335.152 150.506 332.289 152.125C329.268 153.841 326.451 156.184 323.452 158.493C321.93 159.686 320.336 160.782 318.679 161.778C316.957 162.809 315.097 163.591 313.156 164.098C311.211 164.574 309.203 164.736 307.207 164.58C305.275 164.42 303.365 164.049 301.513 163.472C298.033 162.361 294.669 160.916 291.466 159.158C288.373 157.552 285.451 156.001 282.59 154.833C279.949 153.697 277.159 152.951 274.305 152.618C271.952 152.389 269.578 152.576 267.29 153.171C265.56 153.604 263.922 154.343 262.451 155.353C261.53 156.006 260.695 156.772 259.966 157.635L259.441 158.344C259.32 158.505 259.253 158.582 259.253 158.582C259.253 158.582 259.303 158.493 259.414 158.327L259.922 157.602C260.633 156.714 261.462 155.928 262.385 155.265C263.857 154.223 265.506 153.461 267.251 153.016C269.557 152.404 271.952 152.208 274.327 152.435C277.194 152.766 279.997 153.512 282.65 154.65C285.534 155.813 288.467 157.364 291.56 158.959C294.751 160.702 298.1 162.137 301.562 163.245C303.396 163.805 305.285 164.163 307.196 164.314C309.163 164.47 311.141 164.31 313.057 163.838C314.965 163.336 316.793 162.565 318.486 161.551C320.134 160.564 321.719 159.475 323.231 158.289C326.235 155.99 329.069 153.642 332.118 151.914C332.871 151.488 333.649 151.109 334.449 150.779C334.841 150.613 335.222 150.435 335.62 150.291L336.813 149.915C338.354 149.455 339.938 149.153 341.541 149.012C344.422 148.78 347.322 149.046 350.113 149.799C352.409 150.418 354.609 151.35 356.653 152.568L357.94 153.371L359.044 154.224L359.597 154.617L360.061 155.043L360.928 155.83C361.732 156.621 362.471 157.477 363.137 158.388C363.358 158.698 363.535 158.942 363.656 159.103L363.905 159.346Z" fill="white"/>
<path d="M350.616 184.606C350.531 184.652 350.442 184.689 350.35 184.717L349.566 184.988C349.153 185.133 348.733 185.257 348.307 185.359C347.804 185.481 347.246 185.647 346.606 185.752L345.611 185.941C345.263 186.002 344.899 186.035 344.507 186.085C343.756 186.196 342.944 186.234 342.087 186.29C340.242 186.346 338.395 186.251 336.564 186.007C334.73 185.728 332.923 185.295 331.162 184.711C330.356 184.423 329.588 184.157 328.898 183.836C328.55 183.681 328.207 183.548 327.892 183.393L326.992 182.934C326.407 182.651 325.915 182.335 325.473 182.075C325.093 181.859 324.724 181.622 324.368 181.366L323.689 180.884C323.606 180.833 323.53 180.772 323.463 180.702C323.555 180.734 323.642 180.778 323.722 180.835L324.429 181.272C324.727 181.466 325.103 181.699 325.534 181.937C325.965 182.175 326.473 182.49 327.058 182.751L327.964 183.188C328.279 183.343 328.621 183.471 328.969 183.62C329.66 183.925 330.422 184.174 331.223 184.462C332.989 185.025 334.797 185.444 336.63 185.714C338.451 185.961 340.289 186.062 342.126 186.018C342.971 185.968 343.783 185.946 344.523 185.841C344.893 185.797 345.258 185.769 345.628 185.714L346.622 185.548C347.257 185.459 347.815 185.304 348.318 185.199C348.82 185.093 349.24 184.977 349.583 184.872L350.384 184.656C350.459 184.631 350.537 184.614 350.616 184.606Z" fill="white"/>
<path d="M235.597 103.494L231.73 102.885L207.775 95.1314L193.768 91.0719C191.8 90.3602 189.706 90.0665 187.619 90.2095C185.532 90.3525 183.497 90.9291 181.644 91.9027C175.016 95.2809 156.756 112.327 156.756 112.327L169.907 125.924L163.715 153.437C170.647 173.197 184.218 175.462 184.218 175.462C190.851 175.746 197.471 174.649 203.661 172.239C216.259 167.437 229.477 156.134 231.134 151.277C232.128 148.364 232.951 142.239 233.603 135.322L253.553 127.17L258.961 99.4788L235.597 103.494Z" fill="#455A64"/>
<path d="M206.455 152.485C206.455 152.485 206.395 152.551 206.262 152.656C206.13 152.761 205.936 152.922 205.666 153.099C204.911 153.608 204.108 154.041 203.269 154.39C200.473 155.584 197.376 155.877 194.407 155.228C191.439 154.579 188.745 153.02 186.698 150.768C186.075 150.097 185.52 149.366 185.041 148.586C184.87 148.314 184.765 148.087 184.682 147.938C184.639 147.864 184.604 147.786 184.577 147.705C184.778 147.967 184.963 148.24 185.13 148.525C185.635 149.273 186.204 149.975 186.831 150.624C188.875 152.799 191.528 154.305 194.44 154.943C197.352 155.581 200.389 155.323 203.153 154.201C203.991 153.872 204.798 153.47 205.566 153C206.152 152.651 206.439 152.451 206.455 152.485Z" fill="#263238"/>
<path d="M198.877 96.2778C198.9 96.3193 198.914 96.3643 198.922 96.4108C198.949 96.516 198.982 96.6434 199.021 96.804C199.104 97.1473 199.22 97.6624 199.358 98.3214C199.767 100.187 200.031 102.081 200.148 103.987C200.218 105.309 200.142 106.636 199.921 107.941C199.654 109.447 199.121 110.893 198.347 112.211C197.451 113.636 196.347 114.918 195.072 116.016C193.774 117.179 192.338 118.231 190.874 119.372C187.759 121.715 184.732 123.836 182.037 125.763C179.341 127.69 176.939 129.413 175.027 130.864L174.967 130.913L174.906 130.864C173.558 129.791 172.277 128.635 171.073 127.402C170.747 127.07 170.446 126.715 170.172 126.339C170.079 126.212 170.023 126.106 169.979 126.04C169.956 126.004 169.936 125.967 169.918 125.929C169.918 125.929 170.023 126.062 170.217 126.306C170.507 126.664 170.817 127.006 171.145 127.33C172.373 128.526 173.664 129.655 175.011 130.714H174.889C176.789 129.241 179.164 127.485 181.871 125.552C184.577 123.62 187.593 121.487 190.708 119.145C192.166 118.037 193.603 116.957 194.89 115.822C196.147 114.745 197.238 113.487 198.126 112.089C198.892 110.804 199.422 109.392 199.689 107.919C199.918 106.629 200.005 105.318 199.949 104.009C199.85 102.112 199.618 100.224 199.253 98.3602C199.131 97.7122 199.038 97.2027 198.966 96.8316C198.936 96.6729 198.914 96.54 198.899 96.4329C198.883 96.383 198.875 96.3304 198.877 96.2778Z" fill="#263238"/>
<path d="M302.899 108.733C308.505 103.909 310.405 95.2312 307.318 88.5023L299.419 87.6882C301.407 86.59 303.018 84.9151 304.04 82.8833C305.062 80.8514 305.448 78.5574 305.147 76.3018C302.962 78.5692 300.124 80.0952 297.031 80.6661C293.939 81.2371 290.745 80.8246 287.898 79.4862C284.208 77.6586 281.214 74.2527 277.16 73.5382C273.482 72.8903 269.864 74.6459 266.34 75.8753C262.816 77.1048 258.552 77.8192 255.636 75.4766C253.327 73.6213 252.609 70.3704 252.758 67.402C252.907 64.4335 253.763 61.5426 253.945 58.5797C254.078 55.6644 253.573 52.7554 252.467 50.056C251.362 47.3565 249.681 44.9317 247.544 42.9511C246.829 40.5922 245.553 38.443 243.826 36.6885C242.098 34.9341 239.972 33.6269 237.628 32.8798C235.285 32.1326 232.796 31.9678 230.375 32.3996C227.955 32.8314 225.675 33.8467 223.733 35.3583C222.004 36.6985 220.546 38.4319 218.585 39.4011C216.375 40.5087 213.796 40.5087 211.404 41.0625C209.013 41.6164 206.489 43.2446 206.235 45.709L205.268 50.7543C205.108 51.1143 204.937 51.4687 204.716 51.8176C202.683 55.3953 198.518 57.749 197.607 61.7863C197.099 64.0403 197.729 66.4826 196.972 68.6647C195.972 71.539 192.879 73.1561 191.448 75.831C189.471 79.5084 190.813 85.9492 193.978 88.6629C197.143 91.3766 203.666 94.2564 207.742 95.1259C208.847 90.8782 209.825 86.3369 210.769 81.6904C212.426 83.2909 214.177 84.8139 215.911 86.3258C220.446 90.28 225.08 94.2952 228.229 99.4291C234.21 109.193 234.304 122.135 241.844 130.742C243.318 132.431 245.114 133.932 247.257 134.585C249.4 135.239 251.94 134.89 253.526 133.306C255.398 131.434 255.641 128.277 257.712 126.632C260.474 124.445 264.484 126.189 267.439 128.089C269.582 129.462 271.725 130.913 274.15 131.667C276.575 132.42 279.403 132.37 281.468 130.886C283.534 129.402 284.44 126.234 282.949 124.168C282.352 123.343 281.463 122.767 280.872 121.953C280.281 121.139 280.11 119.809 280.922 119.184C281.734 118.558 283.065 119.184 284.031 119.737C286.403 121.135 289.055 121.985 291.795 122.226C294.535 122.468 297.294 122.094 299.872 121.133C302.45 120.171 304.782 118.646 306.698 116.668C308.615 114.69 310.068 112.308 310.952 109.697C308.23 110.105 305.449 109.772 302.899 108.733Z" fill="#263238"/>
<path d="M297.967 65.2862C298.22 65.4704 298.458 65.6741 298.679 65.8954C299.346 66.5173 299.906 67.2452 300.336 68.0497C300.635 68.6359 300.84 69.2658 300.944 69.9161C301.071 70.7585 300.953 71.6198 300.604 72.3968C300.255 73.1738 299.691 73.8335 298.978 74.2967C298.558 74.5692 298.082 74.7416 297.586 74.8007C297.06 74.8567 296.528 74.7805 296.039 74.5792C293.99 73.7374 292.957 71.3615 290.742 70.3037C288.582 69.1573 285.821 69.0798 283.17 69.689C280.518 70.2982 277.928 71.7437 275.315 73.2168C272.703 74.69 269.925 76.2683 266.726 76.8166C265.157 77.1215 263.542 77.1102 261.976 76.7834C261.208 76.6076 260.465 76.3321 259.767 75.9637C259.09 75.5917 258.465 75.1297 257.911 74.5903C256.858 73.5168 256.048 72.2286 255.536 70.8133C255.035 69.4702 254.704 68.0691 254.553 66.643C254.26 63.874 254.492 61.2156 254.52 58.7622C254.63 56.4857 254.405 54.2053 253.852 51.9946C253.588 51.0401 253.235 50.1129 252.797 49.2256C252.413 48.4273 251.964 47.6623 251.454 46.9383C250.647 45.7737 249.699 44.7135 248.632 43.7816C247.953 43.1966 247.231 42.6635 246.472 42.1866L245.87 41.8266L245.671 41.6992C245.746 41.7271 245.819 41.7623 245.887 41.8044L246.505 42.1367C248.513 43.3285 250.246 44.9351 251.587 46.8497C252.692 48.3939 253.524 50.1175 254.045 51.9448C254.621 54.1707 254.861 56.4705 254.757 58.7678C254.757 61.2378 254.52 63.874 254.818 66.6153C254.969 68.0165 255.293 69.3933 255.785 70.7136C256.287 72.0901 257.078 73.3423 258.104 74.3854C258.637 74.9086 259.24 75.3559 259.894 75.7145C260.568 76.0656 261.282 76.3316 262.021 76.5065C263.55 76.8203 265.127 76.8297 266.66 76.5342C269.798 75.9803 272.548 74.4352 275.161 72.9676C277.773 71.5 280.353 70.0545 283.092 69.4287C284.418 69.1155 285.782 68.9998 287.141 69.0854C287.792 69.1311 288.437 69.2367 289.069 69.401C289.681 69.567 290.274 69.7991 290.836 70.0933C293.128 71.2009 294.15 73.6045 296.1 74.3854C296.545 74.5753 297.029 74.6524 297.511 74.6099C297.993 74.5674 298.457 74.4066 298.862 74.1417C299.604 73.6722 300.183 72.9834 300.519 72.1701C300.809 71.4705 300.905 70.7047 300.795 69.9548C300.71 69.318 300.523 68.6991 300.242 68.1217C299.834 67.3231 299.305 66.5927 298.674 65.9563C298.458 65.7348 298.287 65.5742 298.171 65.4689C298.055 65.3637 297.967 65.2862 297.967 65.2862Z" fill="#263238"/>
<path d="M207.687 97.2526C207.687 97.2526 207.687 97.1695 207.643 97.0034C207.614 96.7577 207.564 96.5149 207.494 96.2779C207.24 95.3606 206.776 94.515 206.141 93.8078C205.115 92.7055 203.866 91.8351 202.479 91.2548C200.877 90.5182 198.888 90.1471 196.712 89.7484C194.536 89.3496 192.067 88.8734 189.847 87.3891C188.614 86.5541 187.578 85.4585 186.813 84.1794C186.047 82.9002 185.57 81.4685 185.415 79.9848C185.261 78.5011 185.432 77.0014 185.917 75.5911C186.402 74.1808 187.189 72.8941 188.223 71.8214C190.509 69.4677 193.746 68.2991 196.386 66.2334C197.034 65.7129 197.616 65.116 198.121 64.4557C198.596 63.7822 198.954 63.0333 199.181 62.2404C199.623 60.6676 199.584 59.0227 199.733 57.4222C199.794 56.6201 199.942 55.827 200.175 55.0574C200.42 54.2953 200.817 53.5907 201.341 52.9862C202.427 51.8946 203.794 51.1276 205.29 50.7709C206.709 50.3555 208.123 50.0952 209.455 49.7297C210.756 49.3964 211.989 48.8338 213.094 48.0683C214.115 47.3443 215.031 46.4834 215.818 45.5097C216.555 44.6372 217.243 43.7238 217.878 42.7738C219.098 40.9241 220.142 39.1906 221.253 37.7895C222.171 36.5801 223.255 35.5063 224.473 34.5995C225.246 34.0303 226.106 33.5891 227.019 33.2925C227.333 33.1819 227.657 33.1004 227.986 33.0488C227.986 33.0488 227.649 33.1264 227.035 33.3479C226.139 33.6641 225.297 34.1181 224.539 34.6937C223.342 35.6058 222.279 36.6814 221.38 37.8892C220.275 39.2737 219.259 41.0016 218.066 42.8735C217.438 43.8572 216.752 44.8022 216.011 45.7035C215.213 46.6966 214.284 47.576 213.249 48.3175C212.122 49.0849 210.87 49.6473 209.548 49.9789C208.201 50.3555 206.787 50.6158 205.389 51.0312C203.942 51.3709 202.618 52.1094 201.567 53.1634C201.071 53.7396 200.695 54.4101 200.463 55.135C200.236 55.8848 200.094 56.6575 200.037 57.4388C199.888 59.0227 199.932 60.6786 199.485 62.3124C199.248 63.1303 198.875 63.9018 198.38 64.5941C197.86 65.2738 197.259 65.8875 196.591 66.4217C195.238 67.4205 193.819 68.3254 192.343 69.1299C190.937 69.9086 189.637 70.8674 188.477 71.982C187.469 73.0267 186.702 74.2796 186.228 75.653C185.754 77.0264 185.585 78.4871 185.734 79.9327C185.882 81.3784 186.344 82.774 187.087 84.0218C187.83 85.2697 188.836 86.3396 190.034 87.1565C192.188 88.6131 194.641 89.0783 196.801 89.5158C198.96 89.9533 200.976 90.3133 202.589 91.072C203.992 91.6702 205.248 92.5657 206.273 93.6971C206.909 94.4234 207.363 95.2909 207.599 96.228C207.662 96.4692 207.703 96.7158 207.72 96.9646C207.687 97.1695 207.687 97.2526 207.687 97.2526Z" fill="#263238"/>
<path d="M251.786 47.5362C251.641 47.5218 251.499 47.4845 251.366 47.4255C250.989 47.3018 250.62 47.1538 250.261 46.9824C247.87 45.8532 245.829 44.0941 244.357 41.8929C244.136 41.5619 243.935 41.218 243.755 40.8628C243.676 40.7384 243.618 40.6018 243.584 40.4585C243.622 40.4585 243.937 40.968 244.523 41.771C246.056 43.8719 248.049 45.5923 250.35 46.7997C251.228 47.2593 251.808 47.4919 251.786 47.5362Z" fill="#455A64"/>
<path d="M270.151 85.3119C270.151 85.3119 269.803 85.2233 269.179 85.0903C268.295 84.903 267.397 84.7918 266.495 84.7581C265.157 84.7216 263.818 84.7604 262.485 84.8744C260.971 84.9796 259.303 85.1347 257.541 85.0959C255.873 85.0959 254.219 84.7842 252.664 84.1766C251.402 83.648 250.281 82.8283 249.394 81.7841C248.799 81.0787 248.37 80.2476 248.14 79.3528C248.08 79.1112 248.041 78.8647 248.024 78.6163C248.012 78.5299 248.012 78.4423 248.024 78.356C248.058 78.356 248.074 78.7104 248.251 79.3251C248.52 80.1839 248.966 80.9763 249.56 81.6512C250.441 82.6508 251.541 83.4319 252.775 83.9329C254.302 84.5107 255.92 84.8071 257.552 84.8079C259.292 84.8467 260.955 84.7027 262.474 84.6085C263.817 84.5036 265.166 84.4851 266.511 84.5531C267.423 84.6065 268.328 84.7493 269.212 84.9796C269.451 85.0433 269.687 85.1191 269.919 85.2066C270.001 85.2292 270.08 85.2647 270.151 85.3119Z" fill="#455A64"/>
<path d="M302.7 110.494C302.7 110.494 302.651 110.494 302.54 110.566C302.383 110.638 302.218 110.692 302.049 110.727C301.393 110.867 300.712 110.836 300.071 110.638C299.064 110.314 298.152 109.743 297.42 108.977C296.49 107.928 295.767 106.712 295.288 105.393C294.686 103.976 294.183 102.347 293.195 100.841C292.696 100.061 292.108 99.3418 291.444 98.6978C290.727 98.0246 289.942 97.4288 289.102 96.9201C285.633 94.8211 281.076 93.9627 276.398 94.2396C271.72 94.5165 267.318 95.4026 263.247 95.6851C259.637 96.0728 255.986 95.6954 252.531 94.5774C250.194 93.8156 248.081 92.4835 246.384 90.7007C246.121 90.423 245.875 90.1289 245.649 89.8202C245.473 89.6025 245.314 89.371 245.174 89.1279C245.064 88.9451 244.975 88.7956 244.904 88.6849C244.869 88.637 244.842 88.5849 244.821 88.5298C244.821 88.5298 244.865 88.5741 244.931 88.6682L245.218 89.0947C245.37 89.3283 245.536 89.5521 245.716 89.7648C245.947 90.067 246.198 90.3537 246.467 90.6232C248.176 92.3503 250.278 93.6351 252.592 94.367C256.027 95.4462 259.647 95.8007 263.225 95.4082C267.273 95.1091 271.67 94.1787 276.381 93.935C281.093 93.6913 285.688 94.5276 289.212 96.6764C290.067 97.1983 290.865 97.809 291.593 98.4984C292.269 99.1652 292.866 99.9086 293.371 100.714C294.371 102.259 294.863 103.904 295.454 105.316C295.908 106.619 296.606 107.824 297.508 108.866C298.215 109.623 299.097 110.194 300.077 110.527C300.699 110.737 301.364 110.785 302.01 110.666C302.479 110.588 302.695 110.472 302.7 110.494Z" fill="#455A64"/>
<path d="M215.829 47.5313C214.795 47.5056 213.789 47.8696 213.009 48.5515C212.23 49.2334 211.734 50.1835 211.62 51.2142L207.151 97.8509C206.378 104.408 214.934 118.469 221.943 119.245C229.018 120.026 229.714 116.586 230.631 110.384C232.167 100.005 232.68 96.0953 232.675 96.1562C232.669 96.2172 241.788 95.8517 245.169 84.4265C246.826 78.7443 247.809 69.191 248.345 61.349C248.825 54.2879 245.329 45.089 238.27 44.9062L215.829 47.5313Z" fill="#FFBE9D"/>
<path d="M245.263 67.5237C245.217 67.9186 245.017 68.2793 244.706 68.5264C244.395 68.7735 244 68.887 243.606 68.8418C243.414 68.832 243.226 68.7838 243.053 68.7001C242.88 68.6164 242.725 68.4989 242.598 68.3544C242.471 68.2099 242.374 68.0414 242.313 67.8588C242.251 67.6762 242.227 67.4832 242.241 67.2911C242.29 66.8969 242.491 66.5375 242.8 66.2901C243.11 66.0426 243.504 65.9268 243.898 65.9675C244.091 65.9772 244.279 66.0256 244.453 66.1096C244.626 66.1936 244.781 66.3117 244.908 66.4568C245.035 66.6018 245.132 66.771 245.193 66.9542C245.254 67.1375 245.278 67.3311 245.263 67.5237Z" fill="#263238"/>
<path d="M245.898 64.5052C245.721 64.7157 244.528 63.9514 242.91 64.0677C241.291 64.184 240.148 65.0757 239.977 64.8929C239.888 64.8098 240.049 64.4443 240.529 64.029C241.195 63.4947 242.009 63.1794 242.86 63.1262C243.7 63.0634 244.538 63.271 245.252 63.7188C245.787 64.0677 245.981 64.4277 245.898 64.5052Z" fill="#263238"/>
<path d="M231.051 68.3653C230.858 68.5592 229.742 67.6786 228.124 67.6398C226.505 67.6011 225.296 68.3764 225.124 68.1936C225.041 68.0995 225.24 67.7506 225.771 67.3906C226.484 66.921 227.326 66.6867 228.179 66.7205C229.02 66.7419 229.832 67.0309 230.499 67.5457C230.985 67.9223 231.134 68.3044 231.051 68.3653Z" fill="#263238"/>
<path d="M234.067 76.9442C234.067 76.85 235.094 76.8112 236.74 76.8168C237.154 76.8168 237.552 76.8168 237.663 76.5233C237.752 76.1039 237.711 75.6673 237.547 75.2716C237.292 74.2231 237.025 73.1155 236.746 71.9487C235.641 67.269 234.906 63.4422 235.089 63.3978C235.271 63.3535 236.32 67.1195 237.419 71.7992C237.685 72.9511 237.933 74.0477 238.171 75.1221C238.369 75.6581 238.369 76.2475 238.171 76.7835C238.092 76.9202 237.984 77.0371 237.854 77.1254C237.724 77.2137 237.575 77.271 237.419 77.2931C237.183 77.3234 236.944 77.3234 236.707 77.2931C235.072 77.1657 234.061 77.0328 234.067 76.9442Z" fill="#263238"/>
<path d="M232.675 96.1448C227.181 95.5028 221.974 93.3418 217.635 89.9033C217.635 89.9033 220.512 98.4431 232.305 98.8917L232.675 96.1448Z" fill="#EB996E"/>
<path d="M231.278 65.5912C231.023 65.9844 229.493 65.4084 227.593 65.198C225.693 64.9875 224.075 65.1426 223.92 64.6996C223.854 64.4891 224.208 64.1457 224.909 63.8744C225.83 63.5411 226.817 63.4348 227.787 63.5642C228.761 63.6712 229.697 64.0091 230.515 64.55C231.134 64.982 231.393 65.4029 231.278 65.5912Z" fill="#263238"/>
<path d="M245.655 62.329C245.39 62.7111 244.257 62.3899 242.893 62.4397C241.529 62.4896 240.43 62.8108 240.132 62.4397C240.01 62.257 240.17 61.8859 240.645 61.5093C241.288 61.0419 242.061 60.79 242.855 60.7893C243.638 60.7656 244.409 60.9841 245.064 61.4152C245.6 61.7696 245.771 62.1462 245.655 62.329Z" fill="#263238"/>
<path d="M230.156 79.8846C230.898 79.377 231.807 79.1784 232.692 79.3308C233.143 79.3933 233.558 79.6105 233.868 79.9456C234.203 80.441 234.35 81.0401 234.282 81.6347C234.285 81.9935 234.231 82.3506 234.122 82.6925C234.009 83.0343 233.767 83.3184 233.448 83.4844C233.094 83.6127 232.709 83.6319 232.344 83.5398C231.736 83.4618 231.153 83.2499 230.637 82.9195C230.38 82.7543 230.162 82.535 229.998 82.2768C229.834 82.0186 229.728 81.7277 229.687 81.4242C229.653 81.119 229.718 80.8109 229.872 80.5456C230.026 80.2802 230.261 80.0718 230.543 79.9511" fill="#EB996E"/>
<path d="M234.514 83.4402C234.398 83.4845 234.183 83.13 233.796 82.6482C233.315 82.0156 232.713 81.4865 232.024 81.0926C231.335 80.6987 230.574 80.448 229.786 80.3554C229.173 80.2668 228.764 80.2613 228.737 80.1394C228.709 80.0176 229.096 79.8127 229.797 79.7407C230.722 79.6681 231.648 79.8765 232.454 80.3388C233.262 80.7961 233.911 81.4897 234.315 82.327C234.613 82.9639 234.619 83.4069 234.514 83.4402Z" fill="#263238"/>
<path d="M206.527 94.6439C210.366 93.8741 213.326 90.5679 214.647 86.8905C215.967 83.2132 215.895 79.1648 215.547 75.2604C215.557 75.0078 215.515 74.7558 215.425 74.5197C215.335 74.2836 215.198 74.0683 215.022 73.887C214.442 73.4384 213.608 73.8039 212.978 74.186C210.558 75.6616 208.239 77.2971 206.036 79.0818C203.981 80.7432 201.948 82.6539 201.158 85.1737C199.949 89.0504 202.506 93.6748 206.422 94.6938" fill="#263238"/>
<path d="M294.763 93.7414L276.663 64.5665L271.659 54.2987C271.659 54.2987 270.063 52.1776 268.406 50.3667C265.688 47.3927 262.998 49.7021 262.998 49.7021C262.848 49.351 262.592 49.0557 262.266 48.8572C261.941 48.6587 261.561 48.5668 261.181 48.5944C260.693 48.5941 260.212 48.7099 259.777 48.9323C259.342 49.1547 258.966 49.4773 258.679 49.8738C258.679 49.8738 257.939 49.0486 255.884 48.9212C255.417 48.9156 254.961 49.0634 254.586 49.3421C253.912 48.7495 252.675 47.8966 251.488 48.3286C250.56 48.6664 244.931 52.9585 243.545 55.1184C242.86 56.1872 244.13 57.5718 245.843 56.9238C246.547 56.6956 247.234 56.4161 247.897 56.0876C248.417 55.7947 248.887 55.4208 249.289 54.9799C249.289 54.9799 247.87 57.4721 249.289 57.9096C249.754 58.0031 250.234 57.9935 250.695 57.8816C251.156 57.7696 251.586 57.5581 251.957 57.2616C252.509 56.8075 253.117 56.2149 253.708 55.6334L253.642 55.7331C252.857 56.8961 254.901 58.6185 255.89 57.9207C256.349 57.5955 256.79 57.2442 257.21 56.8684C259.508 58.5299 256.321 60.6842 254.973 60.5735C252.899 60.4158 250.816 60.4158 248.742 60.5735C247.572 60.6676 246.533 60.95 245.892 61.598C245.13 62.3844 245.931 64.0348 246.997 64.2009C248.98 64.5111 251.51 64.9486 254.139 65.6298C257.232 66.4273 265.335 69.069 265.335 69.069L266.125 69.7114L277.133 96.6323L258.287 100.636L254.078 124.583L288.102 115.324C295.757 111.281 299.408 101.052 294.763 93.7414Z" fill="#FFBE9D"/>
<path d="M265.34 69.0191C265.193 68.9979 265.049 68.9627 264.909 68.9139L263.689 68.565L259.209 67.2303L256.122 66.2943C255.017 65.951 253.829 65.5965 252.57 65.2753C251.258 64.9204 249.927 64.6448 248.582 64.4501C247.844 64.4373 247.113 64.3045 246.417 64.0569C246.232 63.9726 246.066 63.8499 245.931 63.697C245.857 63.6086 245.801 63.5072 245.765 63.3979L245.727 63.1044C245.668 62.7123 245.693 62.3123 245.798 61.9303C245.934 61.5378 246.215 61.2126 246.583 61.022C246.918 60.8477 247.269 60.7067 247.632 60.6011C248.35 60.395 249.095 60.3034 249.841 60.3298C251.278 60.3298 252.631 60.5513 253.923 60.4959C254.551 60.4811 255.177 60.42 255.796 60.3132C256.398 60.2024 256.972 60.0473 257.536 59.9033C258.576 59.5769 259.666 59.4363 260.756 59.488C261.65 59.5738 262.526 59.798 263.352 60.1525C263.973 60.4122 264.578 60.7099 265.163 61.0442C265.644 61.3156 266.008 61.5426 266.268 61.6922C266.396 61.7659 266.517 61.8492 266.633 61.9414C266.494 61.8881 266.361 61.8214 266.235 61.742L265.13 61.1439C264.541 60.8293 263.934 60.5483 263.313 60.3021C262.498 59.9695 261.638 59.7641 260.761 59.6929C259.696 59.6541 258.633 59.8022 257.618 60.1304C257.066 60.2799 256.481 60.4461 255.867 60.5624C255.235 60.6776 254.594 60.7442 253.951 60.7617C252.636 60.8227 251.267 60.6288 249.864 60.6122C249.155 60.5907 248.447 60.6785 247.765 60.8725C247.091 61.094 246.323 61.3322 246.108 62.0189C246.018 62.3621 245.997 62.7198 246.047 63.0712L246.086 63.3259C246.105 63.3944 246.141 63.4571 246.191 63.5087C246.302 63.6304 246.435 63.73 246.583 63.8022C247.25 64.0298 247.949 64.1531 248.654 64.1677C250.01 64.3697 251.353 64.6545 252.675 65.0206C253.94 65.3473 255.122 65.7128 256.227 66.0673L259.309 67.0365L263.76 68.4598L264.964 68.8585C265.094 68.9006 265.22 68.9543 265.34 69.0191Z" fill="#EB996E"/>
<path d="M251.383 48.3672C251.416 48.4115 250.532 48.921 249.229 49.9123C248.468 50.4937 247.745 51.1226 247.063 51.7953C246.29 52.5485 245.478 53.4567 244.517 54.2598C244.036 54.5896 243.678 55.071 243.501 55.6277C243.433 55.873 243.464 56.1353 243.588 56.3573C243.713 56.5794 243.919 56.7432 244.164 56.8129C244.639 56.9463 245.141 56.9558 245.622 56.8406C246.056 56.7597 246.481 56.6373 246.892 56.475C247.699 56.1313 248.453 55.6725 249.129 55.1126C248.994 55.3128 248.826 55.4888 248.632 55.6332C248.132 56.0569 247.574 56.4057 246.975 56.6689C246.557 56.8472 246.122 56.9845 245.677 57.0787C245.155 57.2142 244.608 57.2142 244.086 57.0787C243.775 56.9919 243.511 56.7856 243.351 56.5047C243.19 56.2237 243.147 55.8906 243.23 55.5779C243.419 54.9593 243.807 54.4215 244.335 54.0493C245.279 53.2408 246.091 52.3879 246.887 51.6125C247.577 50.9423 248.315 50.3241 249.096 49.7628C249.77 49.281 250.339 48.9376 250.753 48.705C250.952 48.5725 251.162 48.4594 251.383 48.3672Z" fill="#EB996E"/>
<path d="M258.292 50.6491C258.095 50.9158 257.881 51.1692 257.652 51.4079L255.834 53.4127L253.111 56.3645C252.567 56.9631 251.92 57.4584 251.2 57.8266C250.806 58.0257 250.372 58.1335 249.93 58.1422C249.695 58.1462 249.462 58.1032 249.243 58.0157C249.025 57.9283 248.827 57.798 248.659 57.6327C248.488 57.4407 248.383 57.1976 248.361 56.9405C248.343 56.7018 248.367 56.4616 248.433 56.2316C248.559 55.7973 248.757 55.3873 249.018 55.0187C249.996 53.9831 250.902 53.0084 251.714 52.1112C252.526 51.214 253.338 50.5107 253.99 49.8959C254.27 49.6022 254.587 49.3471 254.934 49.1372C255.214 49.0127 255.517 48.945 255.823 48.9378C256.315 48.9046 256.602 48.9378 256.574 49.0043C256.328 48.9746 256.078 48.9858 255.834 49.0375C255.546 49.0624 255.263 49.1373 255 49.2591C254.675 49.4802 254.377 49.7385 254.111 50.0289C253.481 50.6602 252.703 51.3912 251.902 52.2773C251.101 53.1634 250.201 54.1714 249.228 55.2181C248.986 55.5552 248.8 55.9292 248.676 56.3257C248.619 56.5234 248.597 56.7295 248.61 56.9349C248.632 57.1298 248.713 57.3133 248.842 57.461C249.127 57.7342 249.508 57.8834 249.902 57.8764C250.3 57.8688 250.69 57.7723 251.046 57.594C251.736 57.2436 252.359 56.7729 252.885 56.2039L255.647 53.2964L257.53 51.358L258.055 50.8374C258.202 50.7045 258.281 50.6417 258.292 50.6491Z" fill="#EB996E"/>
<path d="M266.754 53.3182C266.754 53.3182 266.754 53.4899 266.533 53.6449C266.405 53.7454 266.257 53.8179 266.099 53.8578C265.94 53.8976 265.776 53.9039 265.615 53.8763C265.455 53.8486 265.301 53.7877 265.166 53.6973C265.03 53.6069 264.914 53.4891 264.827 53.3514C264.699 53.1409 264.699 52.9803 264.733 52.9748C264.766 52.9693 264.843 53.08 264.987 53.224C265.169 53.4113 265.404 53.5388 265.661 53.5895C265.921 53.628 266.186 53.5875 266.423 53.4732C266.611 53.3846 266.721 53.2905 266.754 53.3182Z" fill="#EB996E"/>
<path d="M267.417 55.8606C267.356 55.9104 266.942 55.495 266.577 54.8692C266.312 54.5173 266.153 54.0963 266.119 53.6564C266.191 53.6287 266.467 54.1271 266.826 54.7252C267.078 55.0722 267.277 55.4548 267.417 55.8606Z" fill="#EB996E"/>
<path d="M268.638 65.7626C268.396 65.413 268.218 65.0229 268.113 64.6107C267.798 63.6325 267.645 62.6092 267.66 61.5813C267.68 60.5537 267.867 59.5363 268.212 58.5686C268.327 58.1581 268.514 57.7717 268.765 57.4277C268.299 58.7682 268.03 60.1691 267.964 61.5869C267.985 63.0042 268.212 64.4109 268.638 65.7626Z" fill="#EB996E"/>
<path d="M283.506 104.136C283.451 104.136 283.396 103.549 283.109 102.647C282.937 102.12 282.719 101.611 282.457 101.124C281.805 99.9343 280.9 98.9038 279.806 98.1053C279.359 97.7798 278.884 97.4961 278.386 97.2579C277.536 96.8536 276.956 96.7041 276.967 96.6709C277.107 96.6653 277.247 96.6841 277.381 96.7263C277.759 96.8071 278.128 96.922 278.486 97.0696C279.01 97.2901 279.51 97.5648 279.977 97.8893C281.128 98.6862 282.065 99.7552 282.706 101.002C282.966 101.508 283.172 102.041 283.319 102.591C283.42 102.953 283.488 103.324 283.523 103.699C283.541 103.845 283.535 103.992 283.506 104.136Z" fill="#EB996E"/>
<path d="M220.33 157.469C218.772 157.196 217.169 157.401 215.729 158.056C213.271 156.948 210.239 158.848 210.239 158.848C209.35 158.421 203.992 161.933 203.992 161.933L197.32 165.089L161.677 138.534L171.78 128.011L157.623 113.241L141.053 130.354C139.023 132.557 137.848 135.415 137.739 138.412C137.58 141.602 138.354 144.77 139.966 147.525C141.579 150.28 143.959 152.502 146.814 153.919L188.792 175.518C192.016 175.338 195.215 174.839 198.342 174.028C201.965 173.081 208.157 170.323 208.157 170.323C208.157 170.323 208.157 170.511 209.261 172.666C211.255 176.542 214.177 172.355 214.177 172.355C214.467 173.036 214.85 173.674 215.315 174.249C217.839 176.703 219.59 173.408 219.59 173.408C219.59 173.408 220.347 174.731 222.6 173.745C224.854 172.76 222.274 165.959 222.274 165.959C222.274 165.959 223.031 167.438 224.484 165.566C225.936 163.694 222.744 157.978 220.33 157.469Z" fill="#FFBE9D"/>
<path d="M215.287 158.405C215.425 158.308 215.584 158.245 215.751 158.222C216.199 158.124 216.664 158.139 217.104 158.266C217.753 158.451 218.359 158.762 218.888 159.18C219.207 159.418 219.505 159.683 219.778 159.972C220.053 160.312 220.286 160.684 220.474 161.08C221.128 162.4 221.673 163.773 222.103 165.183C222.269 165.737 222.379 166.164 222.451 166.474C222.502 166.631 222.527 166.796 222.523 166.961C222.484 166.961 222.285 166.302 221.91 165.244C221.423 163.867 220.857 162.519 220.214 161.207C220.04 160.84 219.821 160.496 219.562 160.182C219.305 159.904 219.026 159.647 218.728 159.413C218.234 159.008 217.673 158.693 217.071 158.482C216.492 158.311 215.879 158.284 215.287 158.405Z" fill="#EB996E"/>
<path d="M219.579 173.425C219.452 173.232 219.346 173.026 219.264 172.81L218.485 171.115C217.828 169.681 216.867 167.72 215.95 165.488C215.581 164.427 215.094 163.411 214.497 162.459C213.983 161.712 213.274 161.12 212.448 160.748C211.899 160.481 211.288 160.372 210.681 160.432C210.25 160.487 210.029 160.604 210.018 160.576C210.007 160.548 210.068 160.537 210.173 160.482C210.326 160.405 210.49 160.351 210.659 160.321C211.293 160.213 211.944 160.296 212.531 160.559C213.408 160.926 214.164 161.533 214.713 162.31C215.333 163.269 215.838 164.299 216.215 165.378C217.127 167.593 218.06 169.576 218.673 171.032C218.977 171.758 219.225 172.356 219.369 172.766C219.463 172.977 219.533 173.198 219.579 173.425Z" fill="#EB996E"/>
<path d="M203.219 164.879C203.392 164.755 203.577 164.649 203.771 164.563L205.362 163.793C205.704 163.633 206.063 163.455 206.466 163.278C206.92 163.097 207.41 163.025 207.897 163.068C208.439 163.111 208.958 163.303 209.399 163.622C209.844 163.986 210.218 164.429 210.504 164.929C210.808 165.427 211.056 165.942 211.277 166.418C211.498 166.895 211.758 167.354 212.001 167.786C212.481 168.645 212.934 169.414 213.266 170.09C213.538 170.618 213.775 171.164 213.973 171.724C214.061 171.923 214.121 172.134 214.15 172.35C214.105 172.35 213.807 171.491 213.089 170.184C212.73 169.531 212.266 168.778 211.769 167.919C211.52 167.487 211.272 167.027 211.029 166.546C210.786 166.064 210.554 165.56 210.261 165.078C209.993 164.611 209.648 164.193 209.239 163.843C208.845 163.541 208.378 163.35 207.886 163.289C207.439 163.241 206.987 163.298 206.566 163.455C206.168 163.616 205.787 163.793 205.461 163.932L203.832 164.668C203.637 164.763 203.431 164.834 203.219 164.879Z" fill="#EB996E"/>
<path d="M203.992 161.938C203.844 162.061 203.681 162.164 203.506 162.243C203.186 162.426 202.716 162.681 202.131 162.991C200.965 163.611 199.341 164.453 197.541 165.361C195.74 166.269 194.105 167.078 192.912 167.654L191.498 168.318C191.324 168.411 191.138 168.48 190.946 168.523C191.097 168.4 191.262 168.296 191.437 168.213C191.758 168.036 192.227 167.781 192.813 167.471C193.978 166.851 195.602 166.015 197.403 165.101C199.203 164.187 200.838 163.384 202.026 162.813C202.622 162.526 203.13 162.298 203.445 162.143C203.617 162.049 203.801 161.98 203.992 161.938Z" fill="#EB996E"/>
<path d="M162.152 138.6C160.76 138.39 159.347 138.343 157.943 138.462C156.55 138.672 155.186 139.044 153.878 139.57C154.211 139.304 154.584 139.095 154.983 138.949C155.916 138.547 156.902 138.283 157.91 138.163C158.921 138.043 159.944 138.07 160.948 138.241C161.366 138.294 161.773 138.416 162.152 138.6Z" fill="#EB996E"/>
<path d="M240.866 42.6686C232.038 42.542 223.227 43.4715 214.619 45.4377C212.625 45.8974 210.515 46.4844 209.167 48.024C207.737 49.6522 207.51 51.9727 207.301 54.116C207.072 56.7484 206.844 59.3791 206.616 62.0078C206.237 62.6591 205.818 63.2861 205.362 63.8853C203.285 66.6045 200.639 68.8696 198.734 71.7273C196.828 74.585 195.801 78.3731 197.336 81.4301C198.27 83.2799 199.993 84.5869 201.252 86.2262C203.39 88.9952 204.086 92.6006 205.334 95.8847C206.582 99.1688 208.836 102.53 212.277 103.173C213.934 103.489 215.624 103.14 217.276 103.383C219.745 103.743 221.821 105.366 223.782 106.911C225.743 108.456 227.875 110.029 230.361 110.278C232.846 110.528 235.691 108.838 235.74 106.335C234.819 106.856 233.773 107.116 232.715 107.087C231.658 107.057 230.628 106.74 229.736 106.169C228.289 105.211 227.356 103.66 226.113 102.453C223.059 99.4845 218.143 98.543 216.016 94.849C214.359 91.9304 215.006 88.2697 215.768 84.9856C216.425 82.139 217.099 79.0543 216.276 76.3184C216.341 75.8783 216.376 75.4342 216.381 74.9893C216.381 72.0762 215.249 68.9527 216.602 66.3774C218.391 62.9659 223.55 62.534 225.356 59.1391C226.411 57.162 226.041 54.6366 227.19 52.7148C228.267 50.9094 230.427 50.0787 232.482 49.6301C234.536 49.1815 236.696 48.9766 238.508 47.9132C240.319 46.8499 241.689 44.6014 240.866 42.6686Z" fill="#263238"/>
<path d="M247.56 102.088C247.54 102.138 247.512 102.184 247.478 102.226L247.207 102.608C246.836 103.087 246.409 103.52 245.937 103.899C245.177 104.49 244.324 104.948 243.412 105.255C242.207 105.675 240.925 105.824 239.656 105.693C238.107 105.542 236.635 104.937 235.426 103.954C234.111 102.941 232.94 101.595 231.454 100.526C230.71 99.9695 229.842 99.6027 228.925 99.457C227.957 99.3775 226.985 99.5551 226.108 99.9721C225.173 100.414 224.194 100.752 223.186 100.98C222.104 101.136 221.001 100.942 220.037 100.426C219.095 99.9284 218.205 99.3365 217.381 98.6595C216.556 98.0387 215.777 97.3595 215.05 96.627C214.33 95.9168 213.766 95.0643 213.393 94.1238C213.06 93.201 212.994 92.2024 213.205 91.244C213.407 90.3555 213.686 89.4864 214.039 88.6466C214.359 87.8325 214.636 87.0294 214.879 86.243C215.323 84.7921 215.664 83.3116 215.9 81.8125C216.242 79.628 216.362 77.4143 216.259 75.2055C216.226 74.4246 216.177 73.8154 216.132 73.4056C216.132 73.2118 216.132 73.0622 216.094 72.9404C216.085 72.8872 216.085 72.833 216.094 72.7798C216.113 72.8294 216.124 72.8817 216.127 72.9349L216.193 73.4001C216.254 73.8099 216.326 74.4135 216.375 75.2C216.521 77.4184 216.432 79.6461 216.11 81.8457C215.885 83.3645 215.553 84.8654 215.116 86.3372C214.873 87.1236 214.597 87.9377 214.282 88.7629C213.937 89.5797 213.661 90.4245 213.459 91.2883C213.259 92.1994 213.324 93.1491 213.647 94.0241C214.009 94.9276 214.555 95.746 215.249 96.4277C215.968 97.1485 216.737 97.8166 217.552 98.4269C218.361 99.091 219.234 99.6717 220.159 100.16C221.066 100.66 222.11 100.854 223.136 100.714C224.123 100.488 225.082 100.156 225.997 99.7229C226.92 99.2942 227.939 99.1147 228.952 99.2023C229.912 99.3505 230.822 99.7307 231.603 100.31C233.117 101.418 234.277 102.769 235.569 103.771C236.738 104.738 238.166 105.338 239.673 105.494C241.87 105.735 244.077 105.142 245.859 103.832C246.494 103.321 247.065 102.735 247.56 102.088Z" fill="#263238"/>
<path d="M192.376 84.4758C192.217 84.2798 192.069 84.0745 191.934 83.861C191.558 83.2398 191.293 82.5577 191.15 81.8452C190.932 80.7127 190.951 79.5473 191.205 78.4226C191.537 76.9298 192.189 75.5275 193.116 74.3133C194.258 72.8685 195.601 71.5964 197.104 70.5363C198.69 69.3511 200.49 68.249 202.285 66.9697C204.2 65.6847 205.865 64.0615 207.201 62.1792C207.859 61.1516 208.362 60.0318 208.692 58.8563C209.046 57.6712 209.289 56.4306 209.576 55.179C209.825 53.9311 210.195 52.7106 210.681 51.5349C211.166 50.3798 211.909 49.3512 212.851 48.5277C213.772 47.7502 214.836 47.1613 215.983 46.7942C217.073 46.4407 218.2 46.2177 219.341 46.1297C221.442 46.0228 223.548 46.0895 225.638 46.329C227.447 46.523 229.271 46.5471 231.084 46.401C232.576 46.257 234.026 45.8244 235.354 45.1273C236.357 44.6042 237.245 43.8848 237.966 43.0117C238.422 42.4577 238.78 41.8304 239.027 41.1564C239.181 40.6912 239.242 40.4364 239.253 40.442C239.213 40.6912 239.156 40.9373 239.082 41.1786C238.853 41.8686 238.505 42.5133 238.055 43.0837C237.338 43.9917 236.445 44.7451 235.431 45.2989C234.09 46.0213 232.621 46.4746 231.106 46.6336C229.279 46.7944 227.441 46.7815 225.616 46.5949C223.54 46.3684 221.449 46.311 219.364 46.4232C218.236 46.5112 217.124 46.7343 216.049 47.0878C214.939 47.4389 213.907 48.0032 213.012 48.7492C212.103 49.5486 211.387 50.5447 210.918 51.6623C210.433 52.8209 210.063 54.0249 209.814 55.2565C209.526 56.5026 209.261 57.7487 208.919 58.9505C208.582 60.1477 208.066 61.2867 207.389 62.3287C206.04 64.2354 204.355 65.8795 202.418 67.1802C200.606 68.465 198.806 69.556 197.226 70.7246C195.733 71.7637 194.397 73.0135 193.26 74.4351C192.334 75.6159 191.68 76.9869 191.343 78.4503C191.076 79.5532 191.04 80.6999 191.238 81.8175C191.43 82.7729 191.818 83.6781 192.376 84.4758Z" fill="#455A64"/>
<path d="M193.995 87.3835C193.378 86.8948 192.81 86.3477 192.299 85.7497C191.669 85.0658 191.169 84.2718 190.824 83.4071C190.607 82.8566 190.52 82.2634 190.57 81.6736C190.638 81.0103 190.897 80.3811 191.316 79.8627C192.211 78.755 193.691 78.168 195.243 77.8412C196.022 77.6806 196.839 77.5533 197.651 77.3484C198.49 77.172 199.288 76.8395 200.004 76.3681C200.727 75.8357 201.314 75.1392 201.716 74.3356C202.136 73.4834 202.491 72.6003 202.777 71.6939C203.071 70.7429 203.44 69.8169 203.881 68.9248C204.354 67.9866 205.07 67.1929 205.953 66.6265C206.85 66.1129 207.821 65.7394 208.83 65.5189C209.808 65.2641 210.775 65.0592 211.686 64.7491C213.439 64.1358 214.968 63.0067 216.072 61.5092C217.093 60.154 218.011 58.7229 218.817 57.2283C219.527 55.9255 220.357 54.6924 221.297 53.5454C222.081 52.5939 223.044 51.8056 224.13 51.2249C224.952 50.7872 225.85 50.5144 226.776 50.4219C227.362 50.3659 227.953 50.4147 228.521 50.5659C228.711 50.6164 228.896 50.6831 229.074 50.7652C229.074 50.7652 228.869 50.7099 228.483 50.6213C227.918 50.5002 227.338 50.4703 226.765 50.5326C225.86 50.6441 224.985 50.926 224.185 51.3634C223.125 51.9476 222.187 52.7318 221.424 53.6728C220.505 54.8227 219.692 56.0535 218.993 57.3501C218.199 58.8556 217.29 60.2979 216.276 61.6643C215.708 62.3995 215.053 63.0634 214.326 63.6414C213.566 64.228 212.713 64.6812 211.802 64.9817C210.874 65.3029 209.896 65.5078 208.93 65.7625C207.947 65.9855 207.004 66.3591 206.135 66.8702C205.289 67.4164 204.606 68.1818 204.158 69.0854C203.717 69.9646 203.348 70.8776 203.053 71.8157C202.755 72.7349 202.386 73.6293 201.948 74.4907C201.52 75.3297 200.904 76.0576 200.148 76.6173C199.4 77.0996 198.571 77.4412 197.701 77.6253C196.872 77.8246 196.044 77.9465 195.282 78.1071C193.752 78.4172 192.31 78.9876 191.465 80.0177C191.064 80.504 190.813 81.0966 190.741 81.7235C190.687 82.2869 190.763 82.8553 190.962 83.3849C191.294 84.2362 191.77 85.0233 192.371 85.7109C192.857 86.2648 193.271 86.7023 193.553 86.9847L193.879 87.3004C193.961 87.3392 194 87.3779 193.995 87.3835Z" fill="#455A64"/>
<path d="M261.987 51.6069C261.911 51.761 261.814 51.9044 261.7 52.0334C261.501 52.2992 261.209 52.6758 260.827 53.141C260.076 54.0493 258.994 55.2677 257.723 56.547C257.094 57.1672 256.503 57.865 255.691 58.1198C255.313 58.2502 254.903 58.2502 254.525 58.1198C254.201 57.9848 253.935 57.7397 253.774 57.4275C253.556 56.993 253.485 56.4996 253.57 56.0208C253.579 55.8479 253.622 55.6786 253.697 55.5224C253.715 55.6917 253.715 55.8626 253.697 56.0319C253.657 56.4813 253.751 56.9324 253.967 57.3278C254.116 57.583 254.348 57.7787 254.625 57.8817C254.948 57.9948 255.301 57.9948 255.624 57.8817C256.331 57.6546 256.9 56.99 257.535 56.3587C258.8 55.0904 259.899 53.8942 260.695 53.0358C261.093 52.531 261.525 52.0536 261.987 51.6069Z" fill="#EB996E"/>
<path d="M266.207 51.6069C266.117 51.7666 266.003 51.9122 265.87 52.0389C265.644 52.3047 265.318 52.6813 264.887 53.1465L263.401 54.7581L262.518 55.6996C262.212 56.0538 261.876 56.38 261.512 56.6743C261.125 56.9838 260.657 57.176 260.165 57.2282C259.926 57.2532 259.684 57.2153 259.464 57.1182C259.245 57.021 259.054 56.8681 258.911 56.6743C258.778 56.4867 258.706 56.2621 258.707 56.0319C258.719 55.8218 258.784 55.6182 258.894 55.4393C259.099 55.107 259.309 54.8523 259.491 54.5975C259.855 54.0936 260.159 53.6893 260.375 53.4124C260.474 53.2592 260.595 53.1212 260.734 53.0025C260.665 53.1714 260.576 53.3313 260.468 53.4788C260.281 53.7723 260.005 54.1933 259.657 54.7138C259.485 54.9741 259.275 55.2676 259.104 55.5556C259.004 55.696 258.949 55.8645 258.949 56.0375C258.949 56.2104 259.004 56.3789 259.104 56.5193C259.223 56.6732 259.38 56.7931 259.559 56.867C259.738 56.9409 259.934 56.9661 260.126 56.9402C260.561 56.8933 260.975 56.7244 261.319 56.4528C261.681 56.1787 262.015 55.8709 262.319 55.5335L263.219 54.6031L264.749 53.0302C265.185 52.5872 265.544 52.2327 265.799 51.9891C265.917 51.8433 266.054 51.7147 266.207 51.6069Z" fill="#EB996E"/>
<path d="M303.841 209.742C304.315 208.707 305.033 207.803 305.933 207.109C306.834 206.414 307.889 205.949 309.008 205.755C310.128 205.56 311.277 205.641 312.358 205.992C313.439 206.342 314.419 206.951 315.213 207.765C314.049 209.649 312.241 211.042 310.126 211.686C309.009 212.081 307.795 212.105 306.663 211.755C305.532 211.405 304.542 210.699 303.841 209.742Z" fill="#AC302C"/>
<path d="M299.919 210.65C300.426 210.422 300.958 210.255 301.504 210.151C302.504 209.908 303.896 209.636 305.437 209.382C306.978 209.127 308.381 208.933 309.403 208.828C309.95 208.736 310.505 208.694 311.06 208.7C310.529 208.857 309.985 208.968 309.436 209.033L305.487 209.681C303.951 209.935 302.559 210.179 301.554 210.367C301.015 210.492 300.469 210.587 299.919 210.65Z" fill="#263238"/>
<path d="M126.455 186.096C127.632 187.069 128.551 188.32 129.126 189.736C129.702 191.153 129.917 192.691 129.753 194.212C129.589 195.733 129.05 197.189 128.185 198.449C127.32 199.709 126.156 200.734 124.798 201.431C122.771 196.22 121.992 190.61 126.455 186.096Z" fill="#AC302C"/>
<path d="M134.138 190.095C134.247 192.07 134.843 193.987 135.874 195.674C136.906 197.361 138.339 198.764 140.045 199.758C141.751 200.751 143.677 201.304 145.649 201.366C147.621 201.428 149.578 200.997 151.343 200.113C147.477 194.021 142.246 188.887 134.138 190.084" fill="#AC302C"/>
<path d="M116.535 170.833C116.632 170.915 116.719 171.008 116.794 171.11L117.485 171.936C118.07 172.661 118.926 173.708 120.009 174.976C122.163 177.524 125.206 180.99 128.791 184.607C130.586 186.412 132.348 188.079 133.983 189.552C135.618 191.026 137.164 192.283 138.49 193.291C139.531 194.091 140.618 194.83 141.743 195.506C142.544 195.982 143.019 196.182 143.008 196.209C142.885 196.181 142.766 196.136 142.655 196.076C142.323 195.94 142 195.783 141.688 195.606C140.537 194.963 139.429 194.243 138.374 193.451C137.026 192.454 135.48 191.197 133.817 189.746C132.155 188.295 130.393 186.612 128.592 184.806C125.002 181.184 121.964 177.69 119.86 175.103C118.794 173.813 117.965 172.744 117.402 172.002L116.75 171.138C116.669 171.043 116.597 170.942 116.535 170.833Z" fill="#263238"/>
<path d="M126.029 193.972C125.98 193.972 126.162 193.196 126.322 191.939C126.732 188.651 126.384 185.313 125.306 182.181C124.891 180.985 124.555 180.27 124.599 180.248C124.714 180.393 124.808 180.554 124.88 180.724C125.111 181.175 125.317 181.637 125.499 182.109C126.095 183.672 126.485 185.307 126.659 186.971C126.831 188.632 126.784 190.307 126.521 191.956C126.439 192.466 126.328 192.97 126.189 193.468C126.156 193.641 126.102 193.81 126.029 193.972Z" fill="#263238"/>
<path d="M369.771 81.8959C369.087 80.9869 368.633 79.9247 368.45 78.8009C368.267 77.6771 368.36 76.5256 368.72 75.4456C369.079 74.3656 369.696 73.3897 370.516 72.6021C371.336 71.8145 372.335 71.2388 373.427 70.9248C374.529 72.8421 374.897 75.0967 374.46 77.266C374.277 78.44 373.722 79.524 372.878 80.3577C372.034 81.1914 370.944 81.7307 369.771 81.8959Z" fill="#AC302C"/>
<path d="M368.721 85.7896C368.76 85.2343 368.865 84.6857 369.036 84.1558C369.295 83.159 369.715 81.8021 370.223 80.3179C370.731 78.8337 371.229 77.5045 371.604 76.5464C371.781 76.0188 372.007 75.509 372.278 75.0234C372.162 75.5675 372.001 76.101 371.797 76.6184C371.433 77.6762 370.986 78.9721 370.494 80.4121C370.002 81.852 369.538 83.2365 369.229 84.2112C369.087 84.7457 368.917 85.2725 368.721 85.7896Z" fill="#263238"/>
<path d="M345.468 123.1C344.896 120.973 344.85 118.739 345.332 116.59C345.815 114.442 346.811 112.443 348.237 110.767C349.662 109.091 351.473 107.788 353.512 106.971C355.552 106.153 357.76 105.846 359.944 106.076C360.712 110.263 359.392 114.56 357.21 118.199C354.609 122.491 349.439 124.291 345.468 123.1Z" fill="#AC302C"/>
<path d="M329.124 139.493C329.193 139.386 329.273 139.285 329.362 139.194L330.074 138.38C330.709 137.682 331.637 136.685 332.792 135.467C335.111 133.03 338.348 129.701 341.949 126.052C345.551 122.402 348.826 119.107 351.212 116.742L354.051 113.945L354.835 113.198C355.012 113.032 355.112 112.943 355.123 112.954C355.049 113.058 354.966 113.154 354.874 113.242L354.128 114.028L351.367 116.881L342.154 126.251L332.941 135.611L330.179 138.457L329.428 139.233C329.337 139.331 329.235 139.418 329.124 139.493Z" fill="#263238"/>
<g opacity="0.3">
<path d="M345.468 123.1C344.896 120.973 344.85 118.739 345.332 116.59C345.815 114.442 346.811 112.443 348.237 110.767C349.662 109.091 351.473 107.788 353.512 106.971C355.552 106.153 357.76 105.846 359.944 106.076C360.712 110.263 359.392 114.56 357.21 118.199C354.609 122.491 349.439 124.291 345.468 123.1Z" fill="black"/>
</g>
<path d="M337.895 124.745C336.692 124.13 335.657 123.23 334.88 122.123C334.103 121.016 333.608 119.735 333.437 118.391C333.267 117.048 333.426 115.684 333.902 114.417C334.378 113.15 335.155 112.018 336.166 111.121C338.376 112.506 339.79 114.87 340.524 117.374C341.397 120.331 340.082 123.466 337.895 124.745Z" fill="#AC302C"/>
<g opacity="0.3">
<path d="M337.895 124.745C336.692 124.13 335.657 123.23 334.88 122.123C334.103 121.016 333.608 119.735 333.437 118.391C333.267 117.048 333.426 115.684 333.902 114.417C334.378 113.15 335.155 112.018 336.166 111.121C338.376 112.506 339.79 114.87 340.524 117.374C341.397 120.331 340.082 123.466 337.895 124.745Z" fill="black"/>
</g>
<path d="M338.757 129.463C338.681 129.301 338.625 129.13 338.591 128.954C338.497 128.627 338.392 128.145 338.276 127.542C338.044 126.345 337.801 124.673 337.58 122.829C337.359 120.984 337.205 119.301 337.111 118.082C337.031 117.428 337.005 116.769 337.034 116.111C337.171 116.755 337.265 117.409 337.315 118.066C337.464 119.351 337.658 120.984 337.868 122.795C338.077 124.606 338.298 126.307 338.475 127.508C338.652 128.71 338.801 129.452 338.757 129.463Z" fill="#263238"/>
<path d="M234.448 188.932C235.292 186.924 236.622 185.158 238.318 183.795C240.014 182.432 242.021 181.515 244.16 181.125C246.298 180.736 248.5 180.888 250.565 181.566C252.631 182.244 254.495 183.428 255.989 185.011C249.725 189.879 242.418 193.202 234.492 188.932" fill="#AC302C"/>
<g opacity="0.3">
<path d="M234.448 188.932C235.292 186.924 236.622 185.158 238.318 183.795C240.014 182.432 242.021 181.515 244.16 181.125C246.298 180.736 248.5 180.888 250.565 181.566C252.631 182.244 254.495 183.428 255.989 185.011C249.725 189.879 242.418 193.202 234.492 188.932" fill="black"/>
</g>
<path d="M230.929 190.881C231.078 190.732 231.245 190.601 231.426 190.493C231.758 190.255 232.249 189.939 232.879 189.574C236.162 187.671 239.8 186.466 243.567 186.035C244.285 185.957 244.87 185.919 245.274 185.913C245.482 185.884 245.694 185.884 245.903 185.913C245.903 185.957 245.014 186.013 243.589 186.223C241.735 186.495 239.907 186.925 238.126 187.508C236.35 188.097 234.628 188.838 232.978 189.723C231.686 190.432 230.957 190.92 230.929 190.881Z" fill="#263238"/>
<path d="M88.868 116.77C90.3848 116.06 92.0537 115.74 93.7245 115.838C95.3953 115.936 97.0156 116.448 98.4398 117.33C99.8639 118.211 101.047 119.434 101.883 120.888C102.719 122.342 103.182 123.981 103.229 125.659C97.1255 125.204 91.221 123.327 88.868 116.77Z" fill="#AC302C"/>
<g opacity="0.3">
<path d="M88.868 116.77C90.3848 116.06 92.0537 115.74 93.7245 115.838C95.3953 115.936 97.0156 116.448 98.4398 117.33C99.8639 118.211 101.047 119.434 101.883 120.888C102.719 122.342 103.182 123.981 103.229 125.659C97.1255 125.204 91.221 123.327 88.868 116.77Z" fill="black"/>
</g>
<path d="M85.8357 116.056C85.9967 116.029 86.1608 116.029 86.3218 116.056C86.7615 116.103 87.1984 116.173 87.6308 116.266C89.0613 116.565 90.457 117.013 91.7954 117.601C93.1328 118.194 94.4061 118.924 95.5955 119.777C96.0485 120.109 96.402 120.392 96.6339 120.602C96.7644 120.701 96.8814 120.817 96.9819 120.946C96.9488 120.985 96.4296 120.558 95.4795 119.949C93.0651 118.351 90.3955 117.181 87.5866 116.488C86.5096 116.216 85.8302 116.1 85.8357 116.056Z" fill="#263238"/>
<path d="M286.787 182.148C286.607 180.657 286.8 179.145 287.347 177.748C287.895 176.351 288.781 175.112 289.925 174.143C291.068 173.174 292.435 172.505 293.9 172.197C295.366 171.889 296.884 171.952 298.32 172.379C296.238 177.457 293.001 181.971 286.787 182.148Z" fill="#AC302C"/>
<path d="M285.335 184.534C285.503 184.017 285.735 183.522 286.025 183.061C287.328 180.777 289.1 178.795 291.223 177.246C291.648 176.908 292.114 176.623 292.609 176.399C292.204 176.757 291.78 177.094 291.339 177.407C289.311 179.02 287.57 180.965 286.191 183.161C285.932 183.635 285.646 184.093 285.335 184.534Z" fill="#263238"/>
<path d="M330.251 153.377C329.795 151.947 329.7 150.426 329.976 148.95C330.252 147.475 330.89 146.091 331.831 144.924C332.773 143.757 333.989 142.843 335.371 142.264C336.752 141.685 338.255 141.46 339.745 141.608C338.641 146.991 336.321 152.031 330.251 153.377Z" fill="#AC302C"/>
<g opacity="0.3">
<path d="M330.251 153.377C329.795 151.947 329.7 150.426 329.976 148.95C330.252 147.475 330.89 146.091 331.831 144.924C332.773 143.757 333.989 142.843 335.371 142.264C336.752 141.685 338.255 141.46 339.745 141.608C338.641 146.991 336.321 152.031 330.251 153.377Z" fill="black"/>
</g>
<path d="M329.273 155.997C329.34 155.457 329.476 154.929 329.676 154.424C330.099 153.18 330.655 151.986 331.333 150.863C332.005 149.736 332.798 148.687 333.697 147.734C334.05 147.316 334.452 146.944 334.896 146.626C334.568 147.054 334.218 147.464 333.846 147.855C333.007 148.841 332.248 149.893 331.576 151.001C330.917 152.114 330.347 153.277 329.87 154.479C329.7 154.996 329.501 155.503 329.273 155.997Z" fill="#263238"/>
<path d="M2.62061 113.773C2.94534 112.308 3.6285 110.946 4.60858 109.811C5.58867 108.675 6.83491 107.802 8.23514 107.27C9.63537 106.738 11.1456 106.563 12.63 106.762C14.1143 106.96 15.5261 107.525 16.7384 108.407C13.0929 112.5 8.54167 115.679 2.62061 113.773Z" fill="#AC302C"/>
<path d="M0.460938 115.54C0.793179 115.111 1.17513 114.722 1.59875 114.383C2.58915 113.533 3.66672 112.79 4.81336 112.168C5.96099 111.533 7.17408 111.027 8.43117 110.656C8.94281 110.475 9.47564 110.361 10.0164 110.318C9.51862 110.53 9.00972 110.715 8.49193 110.872C6.04428 111.714 3.75793 112.969 1.73131 114.582C1.32701 114.926 0.902814 115.246 0.460938 115.54Z" fill="#263238"/>
<path d="M255.089 41.5003L259.507 33.4755C256.671 28.9579 255.623 23.54 256.569 18.2869C257.515 13.0337 260.386 8.32512 264.618 5.08667C268.85 1.84822 274.137 0.314102 279.44 0.785859C284.743 1.25762 289.678 3.70113 293.276 7.6361C296.873 11.5711 298.873 16.7129 298.881 22.051C298.89 27.389 296.907 32.5372 293.322 36.4837C289.737 40.4301 284.809 42.8893 279.508 43.378C274.206 43.8666 268.914 42.3494 264.672 39.1244L255.089 41.5003Z" fill="white"/>
<path d="M255.089 41.5003L264.683 39.0635L264.644 39.1798L264.307 38.7534L264.749 39.0801C266.107 40.1006 267.579 40.9592 269.135 41.6387C270.987 42.4378 272.944 42.9692 274.945 43.2171C276.053 43.3558 277.172 43.3966 278.287 43.3389C278.839 43.3002 279.447 43.278 280.038 43.2226L281.811 42.9291C287.1 41.8245 291.771 38.7411 294.874 34.3062C296.597 31.854 297.779 29.0617 298.342 26.1153C298.908 22.9967 298.78 19.7913 297.967 16.7281C297.139 13.53 295.566 10.5746 293.377 8.10525L292.51 7.16931C292.222 6.85363 291.885 6.61549 291.576 6.30536C291.271 6.01249 290.951 5.737 290.615 5.48017L289.599 4.73252C289.274 4.48552 288.933 4.2616 288.577 4.06241L287.472 3.40891L286.368 2.85509C286.01 2.66801 285.641 2.50339 285.263 2.3622C282.259 1.20052 279.033 0.732946 275.823 0.994275C272.787 1.2252 269.84 2.12534 267.19 3.63043C262.427 6.34292 258.881 10.7824 257.282 16.0359C256.648 18.2756 256.354 20.598 256.409 22.9253C256.536 26.6541 257.641 30.2834 259.612 33.4478V33.481V33.5198L255.111 41.5058L259.491 33.4478V33.5198C257.484 30.3524 256.35 26.7083 256.204 22.9586C256.138 20.6099 256.426 18.2646 257.061 16.0027C258.66 10.6843 262.229 6.18178 267.036 3.41998C269.719 1.89446 272.704 0.979354 275.779 0.739521C279.031 0.473836 282.301 0.945142 285.346 2.11852C285.737 2.26052 286.119 2.42699 286.489 2.61695L287.627 3.17077L288.732 3.81873C289.102 4.02536 289.458 4.25663 289.798 4.511L290.786 5.25311C291.14 5.49679 291.433 5.80692 291.764 6.08937C292.095 6.37182 292.416 6.64319 292.708 6.9644L293.609 7.93911C295.832 10.4386 297.427 13.435 298.259 16.6783C299.068 19.7825 299.185 23.0272 298.602 26.1818C298.034 29.1719 296.832 32.0049 295.078 34.489C291.936 38.973 287.204 42.0834 281.85 43.1839L280.049 43.4774C279.458 43.5328 278.867 43.5494 278.287 43.5882C277.16 43.6433 276.031 43.597 274.912 43.4497C272.891 43.1952 270.918 42.6506 269.052 41.8326C267.481 41.1426 265.997 40.2669 264.633 39.2241L264.733 39.1244L264.804 39.213H264.694L255.089 41.5003Z" fill="#263238"/>
<path d="M271.653 18.4613L274.415 18.4336C274.41 18.1175 274.468 17.8036 274.587 17.5106C274.705 17.2176 274.881 16.9515 275.104 16.7282C275.327 16.5049 275.593 16.329 275.886 16.2109C276.178 16.0929 276.491 16.0351 276.807 16.0411C277.273 16.0154 277.734 16.1382 278.126 16.3919C278.518 16.6456 278.82 17.0172 278.988 17.4534C279.139 17.8152 279.201 18.2074 279.172 18.5982C279.142 18.9889 279.02 19.3671 278.817 19.7018C278.353 20.4827 277.331 21.1971 275.459 20.887L275.52 27.1507H278.281L278.232 23.4456C279.353 23.1032 280.331 22.4015 281.017 21.4482C281.702 20.4949 282.057 19.3426 282.026 18.1678C281.988 14.1083 278.348 13.1834 276.79 13.2167C275.603 13.2444 271.554 13.5711 271.653 18.4613Z" fill="#AC302C"/>
<path d="M278.315 28.4176L275.537 28.4443L275.562 31.0471L278.34 31.0204L278.315 28.4176Z" fill="#AC302C"/>
</svg>
