<svg width="80" height="80" viewBox="0 0 80 80" fill="none" xmlns="http://www.w3.org/2000/svg">
<path d="M40.5054 13.2739C40.577 13.2757 40.6481 13.2851 40.7177 13.302C40.7819 13.285 40.8479 13.2756 40.9143 13.2739H40.5054Z" fill="#455A64"/>
<path d="M42.9619 8.76074C42.7975 8.53332 42.5972 8.3341 42.3689 8.17086C41.8908 7.81804 41.3121 7.62769 40.7179 7.62769C40.1237 7.62769 39.545 7.81804 39.0669 8.17086C38.8377 8.33405 38.6363 8.53325 38.4707 8.76074C38.3073 8.97425 38.1788 9.21233 38.09 9.4661C37.9272 9.90637 37.8773 10.3804 37.9449 10.8449C38.0125 11.3095 38.1954 11.7496 38.477 12.1252C38.5113 12.1721 38.5488 12.2126 38.5831 12.2532C38.6989 11.8805 38.9203 11.5494 39.2206 11.3001C39.5209 11.0508 39.8871 10.894 40.2747 10.8487C40.0324 10.7428 39.8266 10.568 39.6828 10.3461C39.5391 10.1241 39.4638 9.86473 39.4664 9.6003C39.4541 9.42642 39.4779 9.25188 39.536 9.08756C39.5942 8.92323 39.6855 8.77263 39.8044 8.64513C39.9232 8.51763 40.0671 8.41595 40.2269 8.34643C40.3867 8.27692 40.5592 8.24104 40.7335 8.24104C40.9078 8.24104 41.0803 8.27692 41.2401 8.34643C41.4 8.41595 41.5438 8.51763 41.6627 8.64513C41.7815 8.77263 41.8729 8.92323 41.931 9.08756C41.9892 9.25188 42.0129 9.42642 42.0007 9.6003C42.0031 9.8643 41.9281 10.1232 41.785 10.3451C41.6419 10.5669 41.4369 10.742 41.1954 10.8487C41.5787 10.8949 41.9401 11.0521 42.2352 11.3011C42.5302 11.5501 42.7459 11.88 42.8558 12.2501L42.9588 12.1252C43.2404 11.7496 43.4233 11.3095 43.4909 10.8449C43.5585 10.3804 43.5087 9.90637 43.3458 9.4661C43.2546 9.21276 43.1252 8.97488 42.9619 8.76074Z" fill="#FAFAFA"/>
<path d="M43.5017 9.4102C43.4093 9.13988 43.2744 8.88598 43.1022 8.65803C42.9283 8.41836 42.7177 8.20768 42.478 8.03381C41.9697 7.65679 41.3537 7.45325 40.7208 7.45325C40.088 7.45325 39.4719 7.65679 38.9637 8.03381C38.7231 8.20666 38.5123 8.41748 38.3395 8.65803C38.1675 8.8866 38.0317 9.1403 37.9368 9.4102C37.7592 9.91056 37.7182 10.4493 37.8183 10.9707C37.9042 11.4254 38.0967 11.8533 38.38 12.2192C38.7865 12.7464 39.3635 13.1159 40.0124 13.2647C40.1851 13.3061 40.3622 13.327 40.5398 13.3271C40.6009 13.3353 40.6628 13.3353 40.724 13.3271C40.6544 13.3102 40.5833 13.3008 40.5117 13.299H40.9206C40.8542 13.3007 40.7882 13.3101 40.724 13.3271C40.7851 13.3353 40.847 13.3353 40.9081 13.3271C41.0858 13.327 41.2628 13.3061 41.4356 13.2647C42.0835 13.1158 42.6594 12.7461 43.0647 12.2192C43.3503 11.8543 43.544 11.4261 43.6297 10.9707C43.7281 10.4485 43.6839 9.90942 43.5017 9.4102ZM43.4736 10.9395C43.3951 11.3761 43.2144 11.7879 42.9461 12.1411L42.8432 12.266C42.7333 11.8959 42.5175 11.566 42.2225 11.317C41.9275 11.068 41.566 10.9108 41.1828 10.8646C41.4242 10.7579 41.6292 10.5828 41.7723 10.361C41.9154 10.1391 41.9904 9.88019 41.988 9.61619C42.0002 9.44231 41.9765 9.26777 41.9183 9.10345C41.8602 8.93912 41.7688 8.78852 41.65 8.66102C41.5311 8.53352 41.3873 8.43184 41.2274 8.36232C41.0676 8.29281 40.8951 8.25693 40.7208 8.25693C40.5465 8.25693 40.3741 8.29281 40.2142 8.36232C40.0544 8.43184 39.9105 8.53352 39.7917 8.66102C39.6728 8.78852 39.5815 8.93912 39.5233 9.10345C39.4652 9.26777 39.4415 9.44231 39.4537 9.61619C39.4511 9.88063 39.5264 10.14 39.6702 10.3619C39.8139 10.5839 40.0197 10.7587 40.262 10.8646C39.8744 10.9099 39.5082 11.0667 39.2079 11.316C38.9077 11.5653 38.6862 11.8964 38.5704 12.2691C38.5361 12.2285 38.4986 12.1879 38.4643 12.1411C38.1827 11.7655 37.9998 11.3254 37.9322 10.8608C37.8646 10.3963 37.9145 9.92226 38.0773 9.48199C38.1661 9.22822 38.2947 8.99015 38.4581 8.77663C38.6237 8.54914 38.825 8.34995 39.0542 8.18675C39.5324 7.83394 40.111 7.64358 40.7052 7.64358C41.2995 7.64358 41.8781 7.83394 42.3563 8.18675C42.5845 8.35 42.7848 8.54921 42.9493 8.77663C43.1125 8.99077 43.242 9.22865 43.3332 9.48199C43.508 9.94687 43.5565 10.4498 43.4736 10.9395Z" fill="#455A64"/>
<path d="M74.4377 15.9019C74.4377 15.9019 74.5282 15.9019 74.6967 15.8675C74.9468 15.8158 75.1772 15.6947 75.3615 15.518C75.5094 15.3748 75.6237 15.2006 75.696 15.0079C75.7683 14.8152 75.7969 14.6089 75.7797 14.4037C75.7797 13.9075 75.7797 13.3363 75.7797 12.6965C75.7797 11.4107 75.7797 9.84076 75.7641 8.01494C75.7641 7.55927 75.7641 7.07862 75.7641 6.59798C75.7768 6.35573 75.7227 6.11465 75.6077 5.90109C75.4926 5.68752 75.3211 5.50968 75.1118 5.38701C74.6811 5.11548 74.1193 5.23408 73.5794 5.20911H71.9002L36.0081 5.23408C35.8035 5.23488 35.602 5.28425 35.4203 5.37812C35.2385 5.47199 35.0816 5.60768 34.9625 5.77402C34.8438 5.94033 34.7677 6.13324 34.7409 6.33581C34.725 6.54348 34.7198 6.75182 34.7253 6.96002V14.5723C34.7344 14.765 34.7868 14.9532 34.8786 15.1229C34.9705 15.2926 35.0995 15.4394 35.2559 15.5523C35.4104 15.6651 35.5887 15.7409 35.7771 15.7739C35.9739 15.7971 36.1722 15.8044 36.3701 15.7957H43.4424L59.5752 15.8145L70.449 15.8426L73.4077 15.8582H74.1755C74.3503 15.8582 74.4377 15.8582 74.4377 15.8582H74.1755H73.4077L70.449 15.8769L59.5752 15.905L43.4424 15.9237H36.3701C36.1617 15.9308 35.9531 15.9224 35.7459 15.8987C35.4208 15.8404 35.1252 15.6733 34.9074 15.425C34.6897 15.1766 34.5627 14.8617 34.5474 14.5317C34.5474 12.8776 34.5474 11.1963 34.5474 9.48808V6.91009C34.5474 6.69161 34.5474 6.4825 34.5474 6.24842C34.5814 6.02335 34.668 5.80947 34.8002 5.62421C34.935 5.43214 35.1139 5.27521 35.3219 5.1666C35.5299 5.05798 35.7609 5.00085 35.9956 5L71.8878 5.02497H74.3846C74.6586 5.01467 74.9296 5.08406 75.1649 5.22471C75.3905 5.35828 75.5751 5.55105 75.6989 5.78213C75.8227 6.01321 75.8809 6.27377 75.8671 6.53556C75.8671 7.02244 75.8671 7.49685 75.8671 7.95252C75.8671 9.77522 75.8671 11.3451 75.8515 12.6341C75.8515 13.2739 75.8515 13.8451 75.8515 14.3413C75.8657 14.5531 75.8327 14.7654 75.755 14.9629C75.6773 15.1605 75.5568 15.3383 75.4021 15.4836C75.2105 15.6605 74.9722 15.7785 74.7155 15.8238C74.6272 15.8634 74.5336 15.8897 74.4377 15.9019Z" fill="#455A64"/>
<path d="M71.5 10H46.5C46.2239 10 46 10.2239 46 10.5C46 10.7761 46.2239 11 46.5 11H71.5C71.7761 11 72 10.7761 72 10.5C72 10.2239 71.7761 10 71.5 10Z" fill="#455A64"/>
<path d="M40.5054 40.1649C40.6428 40.1836 40.7177 40.1836 40.7177 40.1961C40.7819 40.1791 40.8479 40.1697 40.9143 40.168L40.5054 40.1649Z" fill="#455A64"/>
<path d="M42.9619 35.655C42.7983 35.4269 42.5979 35.2276 42.3689 35.0651C41.8908 34.7123 41.3121 34.522 40.7179 34.522C40.1237 34.522 39.545 34.7123 39.0669 35.0651C38.6199 35.3903 38.2798 35.8412 38.09 36.3604C37.9272 36.8007 37.8773 37.2747 37.9449 37.7392C38.0125 38.2038 38.1954 38.6439 38.477 39.0195L38.5831 39.1475C38.6978 38.7742 38.919 38.4425 39.2195 38.193C39.5199 37.9435 39.8867 37.7871 40.2747 37.743C40.0324 37.6371 39.8266 37.4623 39.6828 37.2403C39.5391 37.0184 39.4638 36.759 39.4664 36.4946C39.4541 36.3207 39.4779 36.1462 39.536 35.9818C39.5942 35.8175 39.6855 35.6669 39.8044 35.5394C39.9232 35.4119 40.0671 35.3102 40.2269 35.2407C40.3867 35.1712 40.5592 35.1353 40.7335 35.1353C40.9078 35.1353 41.0803 35.1712 41.2401 35.2407C41.4 35.3102 41.5438 35.4119 41.6627 35.5394C41.7815 35.6669 41.8729 35.8175 41.931 35.9818C41.9892 36.1462 42.0129 36.3207 42.0007 36.4946C42.0027 36.7585 41.9275 37.0173 41.7845 37.239C41.6414 37.4608 41.4367 37.636 41.1954 37.743C41.5785 37.7885 41.9398 37.9452 42.2349 38.1937C42.5299 38.4421 42.7458 38.7715 42.8558 39.1412L42.9588 39.0195C43.2404 38.6439 43.4233 38.2038 43.4909 37.7392C43.5585 37.2747 43.5087 36.8007 43.3458 36.3604C43.2546 36.107 43.1252 35.8692 42.9619 35.655Z" fill="#FAFAFA"/>
<path d="M43.5017 36.3042C43.4103 36.0325 43.2754 35.7774 43.1022 35.5489C42.9283 35.3092 42.7177 35.0986 42.478 34.9247C41.9697 34.5477 41.3537 34.3441 40.7208 34.3441C40.088 34.3441 39.472 34.5477 38.9637 34.9247C38.4925 35.2748 38.1343 35.7556 37.9337 36.3073C37.7556 36.8076 37.7147 37.3464 37.8151 37.8678C37.901 38.3226 38.0935 38.7504 38.3769 39.1163C38.7844 39.6417 39.3611 40.01 40.0092 40.1587C40.1817 40.2023 40.3589 40.2244 40.5367 40.2242C40.5978 40.2324 40.6597 40.2324 40.7208 40.2242C40.7208 40.2242 40.6459 40.2242 40.5086 40.193H40.9175C40.8511 40.1947 40.7851 40.2041 40.7208 40.2211C40.782 40.2293 40.8439 40.2293 40.905 40.2211C41.0829 40.2212 41.26 40.1992 41.4325 40.1556C42.0796 40.0067 42.6553 39.6384 43.0616 39.1131C43.3467 38.7479 43.5404 38.3199 43.6266 37.8647C43.7266 37.3428 43.6834 36.8036 43.5017 36.3042ZM43.4736 37.8335C43.3965 38.2635 43.2202 38.6696 42.9586 39.0195L42.8557 39.1412C42.7456 38.7715 42.5297 38.4421 42.2347 38.1936C41.9396 37.9452 41.5783 37.7885 41.1953 37.743C41.4365 37.636 41.6412 37.4608 41.7843 37.239C41.9273 37.0172 42.0025 36.7585 42.0005 36.4946C42.0127 36.3207 41.989 36.1462 41.9308 35.9818C41.8727 35.8175 41.7813 35.6669 41.6625 35.5394C41.5436 35.4119 41.3998 35.3102 41.2399 35.2407C41.0801 35.1712 40.9076 35.1353 40.7333 35.1353C40.559 35.1353 40.3866 35.1712 40.2267 35.2407C40.0669 35.3102 39.923 35.4119 39.8042 35.5394C39.6853 35.6669 39.594 35.8175 39.5358 35.9818C39.4777 36.1462 39.454 36.3207 39.4662 36.4946C39.4637 36.759 39.5389 37.0184 39.6827 37.2403C39.8264 37.4623 40.0322 37.6371 40.2745 37.743C39.8865 37.7871 39.5198 37.9435 39.2193 38.193C38.9188 38.4424 38.6977 38.7742 38.5829 39.1475L38.4768 39.0195C38.1952 38.6439 38.0123 38.2037 37.9447 37.7392C37.8771 37.2747 37.927 36.8006 38.0898 36.3604C38.2796 35.8412 38.6197 35.3903 39.0667 35.0651C39.5449 34.7123 40.1235 34.522 40.7177 34.522C41.312 34.522 41.8906 34.7123 42.3688 35.0651C42.5977 35.2276 42.7981 35.4269 42.9618 35.655C43.125 35.8692 43.2545 36.107 43.3457 36.3604C43.5191 36.8312 43.5633 37.3399 43.4736 37.8335Z" fill="#455A64"/>
<path d="M74.4377 42.7958C74.4377 42.7958 74.5282 42.7958 74.6967 42.7615C74.9468 42.7098 75.1772 42.5886 75.3615 42.4119C75.5098 42.2684 75.6243 42.0937 75.6967 41.9004C75.769 41.7072 75.7974 41.5002 75.7797 41.2946C75.7797 40.8014 75.7797 40.2303 75.7797 39.5874C75.7797 38.3046 75.7797 36.7316 75.7641 34.9058C75.7641 34.4501 75.7641 33.9694 75.7641 33.4919C75.7767 33.2493 75.7226 33.0078 75.6076 32.7938C75.4925 32.5797 75.3211 32.4013 75.1118 32.2778C74.6811 32.0063 74.1193 32.1249 73.5794 32.0999H71.9002L36.0081 32.128C35.8034 32.1281 35.6016 32.1771 35.4197 32.271C35.2378 32.365 35.0811 32.5011 34.9625 32.668C34.8435 32.8329 34.7673 33.0249 34.7409 33.2266C34.725 33.4343 34.7198 33.6426 34.7253 33.8508V41.4787C34.7348 41.6714 34.7874 41.8594 34.8792 42.029C34.971 42.1986 35.0998 42.3455 35.2559 42.4587C35.4104 42.5715 35.5887 42.6474 35.7771 42.6803C35.974 42.702 36.1722 42.7093 36.3701 42.7022H43.4424L59.5752 42.7209L70.4489 42.7521H73.4077L70.4489 42.7677L59.5752 42.7989L43.4424 42.8176H36.3701C36.1618 42.8258 35.9531 42.8185 35.7459 42.7958C35.4292 42.739 35.1402 42.579 34.924 42.3407C34.7078 42.1025 34.5765 41.7994 34.5505 41.4787C34.5505 39.8246 34.5505 38.1433 34.5505 36.4351V33.8571C34.5505 33.6386 34.5505 33.4326 34.5505 33.1954C34.5821 32.9649 34.6688 32.7454 34.8033 32.5556C34.9385 32.3639 35.1175 32.2073 35.3254 32.0987C35.5333 31.9901 35.7642 31.9328 35.9987 31.9314L71.8909 31.9564H74.3877C74.5869 31.9486 74.7855 31.9826 74.9707 32.0562C75.1559 32.1298 75.3237 32.2412 75.4634 32.3835C75.603 32.5257 75.7113 32.6956 75.7813 32.8822C75.8514 33.0688 75.8817 33.268 75.8702 33.467C75.8702 33.9538 75.8702 34.4251 75.8702 34.8808C75.8702 36.7035 75.8702 38.2765 75.8546 39.5624C75.8546 40.2053 75.8546 40.7765 75.8546 41.2696C75.869 41.4814 75.8362 41.6938 75.7585 41.8913C75.6807 42.0889 75.5601 42.2667 75.4052 42.4119C75.2137 42.5894 74.9755 42.7086 74.7186 42.7552C74.6274 42.7823 74.5328 42.796 74.4377 42.7958Z" fill="#455A64"/>
<path d="M71.5 37H46.5C46.2239 37 46 37.2239 46 37.5C46 37.7761 46.2239 38 46.5 38H71.5C71.7761 38 72 37.7761 72 37.5C72 37.2239 71.7761 37 71.5 37Z" fill="#455A64"/>
<path d="M34.7333 19.4786L34.7102 27.7775C34.7083 28.4549 35.2559 29.0056 35.9333 29.0075L74.653 29.1156C75.3304 29.1175 75.8811 28.5698 75.883 27.8924L75.9062 19.5936C75.9081 18.9161 75.3604 18.3655 74.683 18.3636L35.9633 18.2554C35.2859 18.2536 34.7352 18.8012 34.7333 19.4786Z" fill="#407BFF"/>
<path d="M71.239 23.0705L46.5028 23.0014C46.2267 23.0006 46.0022 23.2239 46.0014 23.5C46.0006 23.7761 46.2239 24.0006 46.5 24.0014L71.2362 24.0705C71.5123 24.0712 71.7368 23.848 71.7376 23.5719C71.7383 23.2957 71.5151 23.0712 71.239 23.0705Z" fill="#FAFAFA"/>
<path d="M41.2951 23.9635C41.5343 23.8512 41.7356 23.6715 41.8743 23.4464C42.0129 23.2213 42.0827 22.9606 42.0753 22.6964C42.0844 22.5225 42.0577 22.3486 41.9967 22.1855C41.9358 22.0224 41.842 21.8735 41.7211 21.7482C41.6003 21.6229 41.4549 21.5238 41.2941 21.457C41.1333 21.3902 40.9605 21.3571 40.7864 21.3599C40.6123 21.3627 40.4407 21.4012 40.2821 21.4732C40.1236 21.5451 39.9815 21.6488 39.8647 21.7779C39.7479 21.9071 39.6589 22.0588 39.6032 22.2238C39.5475 22.3888 39.5264 22.5634 39.541 22.7369C39.5405 23.0042 39.6195 23.2655 39.7679 23.4878C39.9163 23.7101 40.1273 23.8833 40.3743 23.9854C39.9753 24.0416 39.602 24.2153 39.3018 24.4843C39.0017 24.7532 38.7884 25.1054 38.689 25.4959C39.1549 26.0014 39.7855 26.3245 40.468 26.4073H41.2482C41.9383 26.3027 42.5665 25.9498 43.0148 25.4148C42.9071 25.0281 42.6855 24.6828 42.3787 24.424C42.072 24.1651 41.6943 24.0046 41.2951 23.9635Z" fill="#FAFAFA"/>
<path d="M40.8707 26.4261C40.8707 26.4043 41.1266 26.4261 41.5635 26.2888C41.9429 26.1819 42.2958 25.9969 42.5996 25.7457C42.9034 25.4945 43.1514 25.1826 43.3277 24.8301C43.504 24.4775 43.6047 24.092 43.6234 23.6982C43.642 23.3045 43.5783 22.9112 43.4362 22.5435C43.3411 22.2913 43.2074 22.0555 43.0398 21.8444C42.8686 21.6202 42.6632 21.4243 42.4312 21.2639C41.9425 20.9227 41.358 20.7457 40.7622 20.7586C40.1663 20.7715 39.59 20.9736 39.1166 21.3357C38.8915 21.5056 38.6945 21.7099 38.533 21.9411C38.3744 22.1592 38.2502 22.4002 38.1647 22.6559C38.0383 23.0295 37.991 23.4253 38.0257 23.8181C38.0604 24.211 38.1763 24.5924 38.3662 24.938C38.5561 25.2837 38.8157 25.5862 39.1286 25.8262C39.4416 26.0663 39.801 26.2387 40.184 26.3325C40.6272 26.4386 40.8863 26.4167 40.8831 26.4386C40.6451 26.4627 40.4048 26.4479 40.1715 26.3949C39.5225 26.2588 38.9404 25.9027 38.5236 25.3868C38.2348 25.0306 38.0338 24.6115 37.9369 24.1633C37.8254 23.6447 37.8556 23.1057 38.0243 22.6028C38.2116 22.0482 38.5578 21.5609 39.0199 21.2015C39.5185 20.8155 40.128 20.5999 40.7584 20.5864C41.3889 20.5729 42.007 20.7622 42.5217 21.1265C42.7671 21.2989 42.9832 21.5097 43.1615 21.7508C43.3378 21.9752 43.4779 22.2258 43.5766 22.4936C43.7681 22.9903 43.8209 23.5297 43.7295 24.0541C43.6349 24.6059 43.3832 25.1187 43.0045 25.5311C42.6259 25.9434 42.1364 26.2379 41.5947 26.3793C41.3578 26.4357 41.1129 26.4516 40.8707 26.4261Z" fill="#FAFAFA"/>
<path d="M40.5054 54.1129C40.6428 54.1316 40.7177 54.1316 40.7177 54.1441C40.7177 54.1566 40.7863 54.1441 40.9143 54.116L40.5054 54.1129Z" fill="#455A64"/>
<path d="M40.5054 67.7833C40.6428 67.7989 40.7177 67.8021 40.7177 67.8145C40.7177 67.827 40.7863 67.7989 40.9143 67.7864L40.5054 67.7833Z" fill="#455A64"/>
<path d="M74.5593 21.2233C75.7073 21.2233 76.6379 20.2927 76.6379 19.1447C76.6379 17.9967 75.7073 17.066 74.5593 17.066C73.4113 17.066 72.4807 17.9967 72.4807 19.1447C72.4807 20.2927 73.4113 21.2233 74.5593 21.2233Z" fill="#2352BA"/>
<path d="M73.5388 18.9761L74.4127 19.7439L75.5769 18.5454" stroke="#FAFAFA" stroke-linecap="round" stroke-linejoin="round"/>
<g clip-path="url(#clip0_2492_9489)">
<path d="M25.8741 32.7587C25.9115 31.9816 25.9958 31.1014 25.9958 31.1014C25.9958 31.1014 27.9183 30.8923 28.0338 28.9167C28.1493 26.9411 28.0338 22.3625 28.0338 22.3625L24.532 20.5679L20.6775 23.6078L21.2611 33.5421L24.8067 33.7668C24.9434 33.7727 25.08 33.7511 25.2082 33.7032C25.3365 33.6554 25.4538 33.5823 25.5534 33.4883C25.6529 33.3943 25.7325 33.2813 25.7876 33.156C25.8427 33.0307 25.8721 32.8956 25.8741 32.7587Z" fill="#FFBE9D"/>
<path d="M26.2205 27.3345C26.2205 27.3345 26.2205 27.3688 26.1892 27.4188C26.1629 27.4509 26.1295 27.4763 26.0915 27.4931C26.0536 27.5099 26.0122 27.5176 25.9708 27.5155C25.7461 27.5155 25.5307 27.2596 25.4527 26.9569C25.417 26.8123 25.417 26.6613 25.4527 26.5168C25.457 26.451 25.4785 26.3874 25.5153 26.3326C25.552 26.2778 25.6025 26.2337 25.6618 26.2047C25.6849 26.1946 25.7099 26.1895 25.7351 26.1895C25.7604 26.1895 25.7853 26.1946 25.8085 26.2047C25.844 26.2206 25.872 26.2497 25.8865 26.2858C25.9146 26.342 25.8865 26.3795 25.8865 26.3763C25.8865 26.3732 25.8865 26.342 25.8491 26.3077C25.8313 26.2818 25.8043 26.2635 25.7737 26.2566C25.743 26.2496 25.7109 26.2545 25.6836 26.2702C25.642 26.2976 25.6075 26.3346 25.5831 26.378C25.5586 26.4214 25.545 26.4701 25.5432 26.5199C25.519 26.6505 25.5243 26.7849 25.5588 26.9132C25.6275 27.1847 25.8147 27.4032 25.9801 27.425C26.0133 27.4293 26.047 27.4269 26.0792 27.4178C26.1114 27.4086 26.1414 27.3931 26.1674 27.372C26.2017 27.3595 26.2142 27.3314 26.2205 27.3345Z" fill="#EB996E"/>
<path d="M26.2079 28.5609C26.2329 28.4891 26.2485 28.4111 26.2703 28.3362C26.2922 28.2613 26.2984 28.2301 26.3171 28.1739C26.3505 28.0105 26.3683 27.8444 26.3702 27.6776C26.1992 27.7439 26.0125 27.7586 25.8333 27.7197C25.6541 27.6809 25.4903 27.5903 25.3621 27.4592C25.233 27.3225 25.1429 27.1537 25.1012 26.9703C25.0594 26.787 25.0676 26.5958 25.1249 26.4167C25.2069 26.2205 25.3293 26.0438 25.4842 25.8981C25.6391 25.7523 25.8229 25.6409 26.0237 25.5709C26.4108 25.4086 26.8259 25.3275 27.2066 25.1465C28.0119 24.7657 28.5674 23.9698 28.9482 23.1365C29.2135 22.5529 29.4132 21.8881 29.2322 21.2639C28.9638 20.3494 27.9838 19.8968 27.1068 19.644C25.7585 19.2633 24.2978 19.0947 22.9807 19.5785C21.6636 20.0623 20.0813 20.9174 20.0813 22.3718C19.3041 22.3063 18.8609 22.9961 18.5519 23.8325C18.3999 24.3564 18.2852 24.8904 18.2086 25.4305" fill="#263238"/>
<path d="M21.1424 31.4915C20.1708 30.8212 19.3895 29.9105 18.8747 28.8482C18.36 27.786 18.1294 26.6084 18.2055 25.4304C18.4052 21.2607 26.2079 28.5515 26.2079 28.5515C26.2079 28.5515 24.7129 33.464 21.3016 31.4822" fill="#263238"/>
<path d="M19.9844 27.3344C19.9626 27.3157 20.1187 27.169 20.2466 26.8662C20.334 26.6739 20.38 26.4654 20.3816 26.2541C20.3832 26.0429 20.3404 25.8337 20.2559 25.64C20.1715 25.4464 20.0472 25.2727 19.8913 25.1301C19.7354 24.9876 19.5513 24.8794 19.3509 24.8126C19.0388 24.7002 18.8265 24.7158 18.8265 24.6877C19.0094 24.6314 19.2058 24.6369 19.3852 24.7034C19.6078 24.7661 19.8141 24.8764 19.9898 25.0268C20.1655 25.1771 20.3063 25.3639 20.4027 25.5741C20.4938 25.7872 20.5363 26.018 20.5272 26.2496C20.518 26.4812 20.4573 26.7078 20.3496 26.9131C20.1842 27.2283 19.9938 27.3469 19.9844 27.3344Z" fill="#407BFF"/>
<path d="M18.3772 24.7814C18.3066 24.7904 18.235 24.7749 18.1744 24.7377C17.9991 24.6517 17.855 24.5131 17.7624 24.3413C17.6329 24.084 17.586 23.7929 17.6282 23.508C17.6645 23.1635 17.7707 22.83 17.9403 22.5279C18.1137 22.2185 18.3864 21.9766 18.7143 21.8413C18.9864 21.7303 19.2911 21.7303 19.5632 21.8413C19.7432 21.9164 19.8957 22.045 20.0002 22.2096C20.0657 22.3282 20.0751 22.4062 20.0657 22.4062C19.9387 22.1984 19.7467 22.0383 19.5195 21.9506C19.2746 21.8659 19.0066 21.8782 18.7705 21.9849C18.4789 22.1126 18.2368 22.3317 18.0807 22.6091C17.7468 23.2052 17.6531 23.8887 17.856 24.2851C17.9675 24.5056 18.1516 24.6808 18.3772 24.7814Z" fill="#263238"/>
<path d="M53.8168 26.1858C53.6763 26.0423 53.333 26.1109 53.333 26.1109C53.3659 25.9104 53.3659 25.7059 53.333 25.5055C53.2706 25.3088 52.8305 25.3463 52.8305 25.3463C52.8097 25.1815 52.8097 25.0148 52.8305 24.85C52.8328 24.8139 52.8242 24.778 52.8058 24.7469C52.7875 24.7157 52.7602 24.6908 52.7275 24.6752C52.5195 24.5911 52.2964 24.5507 52.0721 24.5566C51.8006 24.3631 52.8898 22.8401 53.2956 22.3532C53.7013 21.8663 53.6264 21.4886 53.2675 21.4886C53.0209 21.4886 51.7507 22.9524 51.3605 23.4424C50.9704 23.9324 49.9342 25.2995 49.8999 24.2102C49.8655 23.121 49.4255 22.2939 49.1508 22.1534C48.8762 22.013 48.5828 22.3438 48.7357 22.6466C48.8659 22.9905 48.9478 23.3507 48.9792 23.7171C49.0142 24.0117 49.0004 24.3101 48.9386 24.6003C48.8248 25.1323 48.6682 25.6541 48.4704 26.1609L48.4423 26.1453C48.4423 26.1453 40.8363 33.4392 40.287 33.9479C39.7939 34.4161 29.9095 33.3924 27.9307 33.1833C27.2557 33.0872 26.5745 33.0413 25.8927 33.0459C25.0344 33.0834 24.8815 33.2051 24.0201 33.2145C21.9747 33.2214 19.9332 33.3926 17.9153 33.7263C15.9396 34.0603 14.8535 35.5989 14.2449 37.5122C12.2443 43.7543 6.83863 58.4233 6.03028 66.7253C5.42766 67.8196 4.88281 68.9447 4.39796 70.096C3.83929 71.6222 3.97662 71.6753 4.16388 71.7096C4.6695 71.8032 5.25001 69.0661 5.46849 69.7246C5.68696 70.3831 4.36988 72.9923 4.90358 73.0672C5.59645 73.1671 6.152 70.2895 6.21754 70.0492C6.28308 69.8089 6.63264 69.8963 6.56086 70.1085C6.46098 70.4206 5.48097 73.6665 6.16136 73.7726C6.53901 73.8288 6.57959 73.1484 6.57959 73.1484C6.57959 73.1484 7.27246 70.0273 7.59393 70.0991C7.9154 70.1709 7.5752 71.9999 7.41291 72.6116C7.25061 73.2233 7.47845 73.5479 7.80304 73.3856C8.02776 73.2826 8.56146 71.4193 8.70815 70.8107C8.85484 70.2021 9.21688 68.5261 9.71001 69.4999C10.2031 70.4737 10.9584 71.0354 11.2705 71.0604C11.3424 71.0572 11.4114 71.0313 11.4676 70.9865C11.5238 70.9416 11.5644 70.8801 11.5835 70.8108C11.6025 70.7414 11.5991 70.6678 11.5737 70.6005C11.5484 70.5332 11.5023 70.4757 11.4422 70.4362C11.1781 70.1787 10.9512 69.8856 10.768 69.5654C10.6112 69.3134 10.4973 69.0371 10.431 68.7477C10.2927 68.1693 10.2122 67.5786 10.1906 66.9843L10.1313 66.6254C10.9116 62.7615 13.5645 49.5907 16.7886 42.3436L17.7249 46.9128L18.3023 48.9384L14.7536 57.7085L29.8814 57.5088L27.6249 48.8198L30.3652 39.7687C33.3333 39.8342 40.9487 39.9466 42.2252 39.3723C43.82 38.6607 52.0815 28.2489 52.0815 28.2489C52.6254 27.831 53.1463 27.384 53.642 26.9099C53.642 26.9099 54.1195 26.4979 53.8168 26.1858Z" fill="#FFBE9D"/>
<path d="M14.0952 51.2604C14.5321 49.7623 16.7855 42.3529 16.7855 42.3529C16.7855 42.3529 17.8935 48.3921 17.6032 49.1193C17.3349 49.7433 17.0166 50.3445 16.6513 50.917C14.0952 54.8121 14.4291 56.7597 14.4291 56.7597L29.8815 56.2884C29.9189 54.1286 28.633 49.11 28.3709 48.3016C28.1087 47.4932 28.9951 44.8684 28.9951 44.8684C28.9951 44.8684 30.7429 43.0957 30.6742 42.1843C30.6378 41.3656 30.5334 40.5513 30.3621 39.7499L41.807 39.9684L40.5274 33.7481L29.4913 32.9398L25.821 32.5964C23.9733 34.157 21.2049 32.5964 21.2049 32.5964C17.6844 32.9398 17.1694 33.5047 15.7243 34.9497C14.0078 36.6601 9.36987 49.7467 9.36987 49.7467L14.0952 51.2604Z" fill="#407BFF"/>
<path d="M23.2337 49.7529C22.9648 49.7997 22.6912 49.8133 22.4191 49.7934C21.9134 49.7934 21.2206 49.7591 20.4559 49.6842C19.6913 49.6093 19.0046 49.4969 18.5115 49.4002C18.2407 49.3665 17.9754 49.2983 17.7219 49.1973C17.9932 49.1962 18.2641 49.2223 18.5302 49.2753C19.0296 49.3377 19.7131 49.4251 20.4746 49.5032C21.2362 49.5812 21.9228 49.6311 22.4222 49.6655C22.6949 49.6668 22.9669 49.6961 23.2337 49.7529Z" fill="#263238"/>
<path d="M24.2887 48.439C24.021 48.5698 23.7379 48.6663 23.446 48.7261C22.752 48.9099 22.046 49.0444 21.333 49.1287C20.6207 49.2143 19.9031 49.2488 19.1858 49.2317C18.8881 49.2406 18.5905 49.2134 18.2994 49.1506C18.5929 49.1089 18.8895 49.0932 19.1858 49.1037C19.7319 49.085 20.4841 49.0476 21.3143 48.9477C22.1445 48.8478 22.8748 48.7136 23.4179 48.6013C23.7028 48.5215 23.9942 48.4672 24.2887 48.439Z" fill="#263238"/>
<path d="M29.4882 42.5776C29.4848 42.8431 29.4492 43.1072 29.3821 43.3641C29.2916 43.8479 29.1511 44.5096 28.9732 45.2368C28.7953 45.964 28.6143 46.6163 28.4707 47.0876C28.4108 47.3463 28.3196 47.5968 28.1992 47.8335C28.2181 47.5687 28.2673 47.3068 28.3459 47.0532C28.477 46.5102 28.6299 45.886 28.7953 45.1962C28.9608 44.5065 29.1231 43.8822 29.2573 43.3236C29.3061 43.0671 29.3835 42.8168 29.4882 42.5776Z" fill="#263238"/>
<path d="M14.3261 56.8657L29.7753 56.3944L36.4981 82.6488L35.2496 112.764H27.0725L28.093 83.3011L22.1162 65.0116L23.0244 113.076L14.7661 113.198L13.9203 68.0703C13.886 66.7938 13.4646 63.9099 13.6082 62.6428L14.3261 56.8657Z" fill="#455A64"/>
<path d="M24.1762 65.3833C23.9225 65.4013 23.6677 65.3866 23.4178 65.3396C22.9527 65.2834 22.3129 65.1867 21.6138 65.0462C20.9147 64.9058 20.2842 64.7341 19.8348 64.6187C19.5857 64.5653 19.3445 64.4803 19.1169 64.3658C19.1169 64.3159 20.253 64.5874 21.6481 64.8683C23.0432 65.1492 24.1824 65.3302 24.1762 65.3833Z" fill="#263238"/>
<path d="M21.9008 111.204C21.8508 111.204 21.6323 100.814 21.4139 87.9954C21.1954 75.1772 21.0612 64.7872 21.1018 64.7841C21.1423 64.7809 21.3795 75.1865 21.598 87.9829C21.8165 100.779 21.9507 111.2 21.9008 111.204Z" fill="#263238"/>
<path d="M34.0855 111.113C34.0821 111.065 34.0821 111.017 34.0855 110.969C34.0855 110.866 34.0855 110.729 34.0855 110.551C34.0855 110.177 34.1104 109.637 34.1323 108.947C34.1791 107.546 34.2509 105.532 34.3352 103.048C34.5255 98.0544 34.7908 91.1881 35.0811 83.5852C35.0811 83.5134 35.0811 83.4447 35.0811 83.3792V83.4042C33.249 76.0728 31.5949 69.4437 30.3995 64.6373L29.0106 58.9569C28.8515 58.2921 28.7266 57.774 28.6423 57.3964C28.6028 57.2279 28.5716 57.0936 28.5487 56.9938C28.537 56.9487 28.5286 56.9028 28.5237 56.8564C28.5435 56.8993 28.5582 56.9444 28.5674 56.9907C28.5924 57.0874 28.6299 57.2185 28.6767 57.387C28.7703 57.7491 28.9076 58.2672 29.0793 58.9288C29.4257 60.274 29.922 62.2091 30.5337 64.5967C31.7478 69.4 33.4207 76.0229 35.2746 83.3511V83.3792C35.2746 83.4416 35.2746 83.5134 35.2746 83.5821C34.9625 91.1787 34.6816 98.0544 34.4756 103.042C34.3664 105.539 34.2759 107.539 34.2134 108.941C34.1791 109.63 34.151 110.167 34.1323 110.545C34.1323 110.72 34.1136 110.857 34.1073 110.96C34.1053 111.012 34.0979 111.063 34.0855 111.113Z" fill="#263238"/>
<path d="M14.2573 57.4181C14.6287 57.9456 15.1624 58.1297 15.7804 58.2296C16.4033 58.3037 17.0333 58.2922 17.653 58.1953C21.6417 57.7521 25.8677 57.3432 29.7721 56.3944C24.716 56.6753 19.379 56.5817 14.3229 56.8657C14.3229 56.8657 14.2792 57.2121 14.2698 57.2964" fill="#263238"/>
<path d="M19.4695 64.5466L22.3159 75.6045L22.1161 65.0117L19.4695 64.5466Z" fill="#263238"/>
<path d="M18.8953 24.9093C17.7967 24.6159 16.6481 25.7863 16.6107 26.9223C16.6107 27.2345 16.645 27.6215 16.414 27.8587C16.1831 28.0959 15.7711 28.0303 15.4247 28.0584C15.0708 28.0937 14.7396 28.2487 14.4859 28.4979C14.2322 28.747 14.0712 29.0754 14.0295 29.4286C13.9796 29.9342 14.1825 30.4772 13.9702 30.9391C13.758 31.4011 13.268 31.5883 12.9278 31.9316C12.7214 32.1653 12.5662 32.4396 12.4721 32.7368C12.3781 33.0341 12.3472 33.3477 12.3816 33.6576C12.4555 34.277 12.6184 34.8825 12.8654 35.4553C13.0651 35.989 13.3273 36.582 13.8641 36.7724H18.4802L18.8266 35.0309L19.3915 36.7724H20.1437L19.738 25.4648C19.738 25.4648 19.7348 25.1309 18.8953 24.9093Z" fill="#263238"/>
<path d="M12.5814 30.3087C12.5814 30.3087 12.5314 30.3087 12.4565 30.3336C12.4029 30.3629 12.362 30.411 12.3418 30.4687C12.3216 30.5263 12.3236 30.5894 12.3473 30.6457C12.4052 30.7732 12.5096 30.8737 12.6392 30.9268C12.7687 30.9798 12.9136 30.9814 13.0443 30.9312C13.175 30.881 13.2816 30.7828 13.3423 30.6566C13.403 30.5305 13.4133 30.3859 13.371 30.2525C13.3052 30.1027 13.2202 29.9622 13.1182 29.8343C12.8817 29.519 12.7796 29.1229 12.8342 28.7325C12.8621 28.5161 12.9398 28.3091 13.0611 28.1277C13.1823 27.9463 13.344 27.7955 13.5333 27.687C13.7359 27.5684 13.9637 27.4995 14.1981 27.4859C14.4324 27.4723 14.6667 27.5145 14.8816 27.6089C15.306 27.7931 15.6743 28.0646 16.0832 28.0084C16.1754 28.0048 16.2651 27.978 16.3442 27.9306C16.4233 27.8831 16.4892 27.8165 16.5357 27.7369C16.6015 27.5596 16.6229 27.3689 16.5982 27.1814C16.5735 26.8232 16.6257 26.4639 16.7511 26.1275C16.8765 25.7911 17.0723 25.4853 17.3254 25.2307C17.6817 24.8969 18.1543 24.7155 18.6425 24.7251C18.7718 24.7288 18.9001 24.7508 19.0232 24.7906C19.0675 24.8014 19.1096 24.8193 19.1481 24.8437C18.9812 24.8119 18.8122 24.7931 18.6425 24.7875C18.1744 24.7982 17.728 24.9868 17.394 25.315C17.1581 25.5628 16.9773 25.8578 16.8638 26.1806C16.7503 26.5034 16.7066 26.8466 16.7355 27.1876C16.7634 27.3987 16.7376 27.6133 16.6606 27.8118C16.6031 27.9154 16.5203 28.0027 16.4198 28.0655C16.3194 28.1282 16.2046 28.1645 16.0863 28.1707C15.855 28.1928 15.622 28.1519 15.4122 28.0521C15.1999 27.9616 15.0064 27.8462 14.8067 27.7619C14.6147 27.6778 14.4058 27.6399 14.1965 27.6513C13.9873 27.6627 13.7836 27.723 13.6019 27.8274C13.4328 27.9249 13.2885 28.0601 13.1802 28.2225C13.0719 28.3849 13.0026 28.5701 12.9777 28.7637C12.9241 29.1196 13.0139 29.4822 13.2274 29.7718C13.334 29.9102 13.4212 30.0624 13.4865 30.2244C13.5159 30.3051 13.5288 30.3908 13.5245 30.4766C13.5202 30.5624 13.4988 30.6464 13.4615 30.7238C13.3969 30.8609 13.2865 30.9713 13.1494 31.0359C13.024 31.0917 12.884 31.1059 12.7499 31.0764C12.6431 31.0561 12.544 31.007 12.4631 30.9344C12.3822 30.8618 12.3228 30.7684 12.2911 30.6645C12.2682 30.5977 12.2716 30.5247 12.3006 30.4604C12.3296 30.396 12.382 30.3451 12.4472 30.318C12.5377 30.2743 12.5845 30.3087 12.5814 30.3087Z" fill="#263238"/>
<path d="M30.4618 39.6502C30.3438 39.6666 30.224 39.6666 30.106 39.6502C29.7813 39.611 29.465 39.5193 29.1697 39.3787C28.7292 39.172 28.336 38.8766 28.0149 38.511C27.6072 38.0682 27.3324 37.5195 27.222 36.9278C27.1116 36.3361 27.1701 35.7253 27.3907 35.1652C27.5613 34.7092 27.8249 34.2936 28.1647 33.9449C28.3902 33.7084 28.6527 33.5102 28.9418 33.3581C29.0442 33.2967 29.156 33.2524 29.2727 33.2271C28.8953 33.4423 28.5506 33.7103 28.249 34.0229C27.9336 34.3693 27.6897 34.7744 27.5311 35.2152C27.3256 35.7501 27.2714 36.3313 27.3743 36.8951C27.4773 37.4588 27.7334 37.9833 28.1148 38.4111C28.4197 38.7671 28.7906 39.0607 29.2071 39.2757C29.6065 39.4565 30.0286 39.5825 30.4618 39.6502Z" fill="#263238"/>
</g>
<defs>
<clipPath id="clip0_2492_9489">
<rect width="50" height="61" fill="white" transform="translate(4 19)"/>
</clipPath>
</defs>
</svg>
