<svg width="300" height="271" viewBox="0 0 300 271" fill="none" xmlns="http://www.w3.org/2000/svg">
<path d="M202.648 44.9211H82.3548C79.0466 44.9211 76.3647 47.603 76.3647 50.9112V228.756C76.3647 232.064 79.0466 234.746 82.3548 234.746H202.648C205.957 234.746 208.638 232.064 208.638 228.756V50.9112C208.638 47.603 205.957 44.9211 202.648 44.9211Z" fill="#263238"/>
<path d="M204.401 58.4623H80.4722V216.988H204.401V58.4623Z" fill="#E7ECF4"/>
<path d="M147.576 225.229C147.576 226.234 147.279 227.216 146.72 228.051C146.162 228.886 145.369 229.537 144.441 229.921C143.513 230.305 142.492 230.405 141.507 230.209C140.522 230.012 139.617 229.528 138.907 228.818C138.197 228.107 137.714 227.202 137.519 226.217C137.323 225.231 137.425 224.21 137.81 223.283C138.195 222.355 138.847 221.563 139.682 221.005C140.518 220.448 141.5 220.151 142.504 220.152C143.171 220.152 143.831 220.283 144.447 220.539C145.062 220.794 145.622 221.168 146.093 221.64C146.564 222.111 146.937 222.671 147.192 223.287C147.446 223.903 147.577 224.563 147.576 225.229Z" fill="#455A64"/>
<path d="M161.792 50.3873H123.217C122.867 50.3873 122.584 50.6706 122.584 51.02V51.8498C122.584 52.1993 122.867 52.4825 123.217 52.4825H161.792C162.141 52.4825 162.424 52.1993 162.424 51.8498V51.02C162.424 50.6706 162.141 50.3873 161.792 50.3873Z" fill="#455A64"/>
<path d="M193.085 70.8469H94.3555V87.5153H193.085V70.8469Z" fill="#407BFF"/>
<path d="M195.528 109.468C195.528 109.468 195.528 109.375 195.528 109.188C195.528 109.002 195.528 108.716 195.528 108.343C195.528 107.586 195.528 106.44 195.502 104.873L195.544 104.915C183.268 104.972 142.598 105.008 94.4129 105.008L94.5477 104.873V109.468L94.4129 109.334L166.06 109.391L187.64 109.432H193.505H195.03H193.521H187.686L166.138 109.474L94.3922 109.531H94.2573V104.666H94.3974C142.593 104.666 183.263 104.708 195.528 104.765V104.801C195.528 106.357 195.528 107.529 195.528 108.291C195.528 108.665 195.528 108.939 195.528 109.126C195.528 109.313 195.528 109.468 195.528 109.468Z" fill="#263238"/>
<path d="M112.73 98.6396C112.73 98.7174 108.286 98.7744 102.804 98.7744C97.322 98.7744 92.8774 98.7174 92.8774 98.6396C92.8774 98.5618 97.322 98.5048 102.804 98.5048C108.286 98.5048 112.73 98.567 112.73 98.6396Z" fill="#263238"/>
<path d="M194.018 179.71C194.018 179.71 194.018 179.612 194.018 179.425C194.018 179.238 194.018 178.958 194.018 178.58C194.018 177.822 194.018 176.681 194.018 175.115L194.055 175.152C181.779 175.209 141.114 175.25 92.9241 175.25L93.059 175.115V179.71L92.9241 179.575L164.566 179.627L186.151 179.669H192.011H193.541C193.884 179.669 194.06 179.669 194.06 179.669H193.541H192.027H186.198L164.649 179.71L92.9034 179.767H92.7686V174.903H92.9086C141.104 174.903 181.769 174.944 194.039 175.001H194.081V175.037C194.081 176.593 194.081 177.76 194.055 178.528C194.055 178.896 194.055 179.171 194.055 179.363C194.055 179.555 194.018 179.71 194.018 179.71Z" fill="#263238"/>
<path d="M113.623 170.494C113.623 170.572 109.178 170.629 103.696 170.629C98.2146 170.629 93.77 170.572 93.77 170.494C93.77 170.416 98.2146 170.359 103.696 170.359C109.178 170.359 113.623 170.422 113.623 170.494Z" fill="#263238"/>
<path d="M194.018 127.024C194.018 127.024 194.018 126.93 194.018 126.744C194.018 126.557 194.018 126.277 194.018 125.898C194.018 125.141 194.018 124 194.018 122.434L194.055 122.47C181.779 122.527 141.114 122.569 92.9241 122.569L93.059 122.434V127.024L92.9241 126.889L164.566 126.946L186.151 126.987H192.011H193.541H194.06C194.06 126.987 193.894 126.987 193.541 126.987H192.027H186.198L164.649 127.029L92.9034 127.081H92.7686V122.221H92.9086C141.104 122.221 181.769 122.263 194.039 122.32H194.081V122.356C194.081 123.912 194.081 125.079 194.055 125.841C194.055 126.215 194.055 126.49 194.055 126.681C194.055 126.873 194.018 127.024 194.018 127.024Z" fill="#263238"/>
<path d="M112.73 117.813C112.73 117.891 108.286 117.948 102.804 117.948C97.322 117.948 92.8774 117.891 92.8774 117.813C92.8774 117.735 97.322 117.678 102.804 117.678C108.286 117.678 112.73 117.74 112.73 117.813Z" fill="#263238"/>
<path d="M135.887 144.584C135.887 144.584 135.887 144.475 135.887 144.278C135.887 144.081 135.887 143.76 135.887 143.391C135.887 142.608 135.887 141.467 135.855 139.989L135.913 140.046C128.439 140.093 111.978 140.124 92.8983 140.124C92.9605 140.067 92.7634 140.259 93.0331 139.989V144.569L92.8983 144.434L123.424 144.491L132.557 144.532H135.036H135.684H135.913H135.7H135.072H132.624L123.518 144.574L92.919 144.631H92.7842V139.917L92.919 139.782C111.999 139.782 128.46 139.813 135.933 139.86H135.99V139.917C135.99 141.41 135.964 142.562 135.954 143.35C135.954 143.728 135.954 144.019 135.954 144.226C135.954 144.434 135.887 144.584 135.887 144.584Z" fill="#263238"/>
<path d="M112.73 135.373C112.73 135.446 108.286 135.508 102.804 135.508C97.322 135.508 92.8774 135.446 92.8774 135.373C92.8774 135.301 97.322 135.239 102.804 135.239C108.286 135.239 112.73 135.296 112.73 135.373Z" fill="#263238"/>
<path d="M100.035 161.278C100.026 161.165 100.026 161.05 100.035 160.936C100.035 160.687 100.035 160.376 100.009 160.003C100.009 159.168 99.9724 158.042 99.9516 156.689L100.055 156.792L92.8984 156.824C92.8673 156.824 93.1525 156.564 93.0332 156.689V157.887C93.0332 158.286 93.0332 158.675 93.0332 159.059C93.0332 159.826 93.0332 160.568 93.0332 161.273L92.9088 161.149C94.9832 161.149 96.7569 161.185 98.0275 161.211L99.516 161.247C99.6996 161.246 99.8831 161.255 100.066 161.273C99.8942 161.3 99.7205 161.31 99.5471 161.304L98.0846 161.335C96.8243 161.361 95.0195 161.387 92.8984 161.398H92.7739V161.273C92.7739 160.568 92.7739 159.826 92.7739 159.059V156.689L92.9088 156.554L100.066 156.58H100.175V156.689C100.175 158.115 100.138 159.282 100.118 160.07C100.118 160.433 100.118 160.734 100.092 160.978C100.086 161.08 100.067 161.181 100.035 161.278Z" fill="#263238"/>
<path d="M109.489 161.278C109.48 161.164 109.48 161.05 109.489 160.936C109.489 160.687 109.478 160.376 109.457 160.003C109.457 159.168 109.426 158.042 109.4 156.689L109.509 156.792L102.352 156.823C102.321 156.823 102.606 156.564 102.487 156.689V157.29C102.487 157.492 102.487 157.69 102.487 157.887V159.059C102.487 159.826 102.487 160.568 102.487 161.273L102.363 161.149C104.437 161.149 106.211 161.185 107.476 161.211L108.965 161.247C109.15 161.246 109.335 161.254 109.52 161.273C109.348 161.299 109.175 161.31 109.001 161.304L107.539 161.335C106.278 161.361 104.473 161.387 102.352 161.398H102.228V161.273C102.228 160.568 102.228 159.826 102.228 159.059V156.689C102.103 156.808 102.389 156.523 102.363 156.554L109.52 156.58H109.629V156.689C109.629 158.115 109.592 159.282 109.572 160.07C109.572 160.433 109.572 160.734 109.572 160.978C109.558 161.081 109.53 161.182 109.489 161.278Z" fill="#263238"/>
<path d="M118.943 161.278C118.924 161.165 118.916 161.051 118.917 160.936C118.917 160.687 118.917 160.376 118.891 160.003C118.891 159.168 118.86 158.042 118.834 156.689L118.943 156.792L111.781 156.824L111.916 156.689V159.059C111.916 159.826 111.916 160.568 111.916 161.273L111.791 161.149C113.866 161.149 115.645 161.185 116.91 161.211L118.399 161.247C118.584 161.246 118.769 161.255 118.954 161.273C118.782 161.299 118.608 161.31 118.435 161.304L116.978 161.335C115.717 161.361 113.907 161.387 111.791 161.398H111.667V161.273C111.667 160.568 111.667 159.826 111.667 159.059C111.667 158.675 111.667 158.286 111.667 157.887V156.689L111.802 156.554L118.964 156.58H119.073V156.689C119.073 158.115 119.037 159.282 119.021 160.07C119.021 160.433 119.021 160.734 118.99 160.978C118.985 161.079 118.969 161.18 118.943 161.278Z" fill="#263238"/>
<path d="M128.392 161.278C128.392 161.278 128.392 161.154 128.392 160.936C128.392 160.718 128.392 160.376 128.392 160.003C128.392 159.168 128.356 158.042 128.335 156.689L128.439 156.792L121.282 156.824C121.251 156.824 121.536 156.564 121.417 156.689V157.887C121.417 158.286 121.417 158.675 121.417 159.059C121.417 159.826 121.417 160.568 121.417 161.273L121.293 161.149C123.367 161.149 125.141 161.185 126.411 161.211L127.9 161.247C128.083 161.246 128.267 161.254 128.449 161.273C128.278 161.3 128.104 161.31 127.931 161.304L126.468 161.335C125.213 161.361 123.403 161.387 121.282 161.398H121.158V161.273C121.158 160.568 121.158 159.826 121.158 159.059V156.689L121.293 156.554L128.449 156.58H128.558V156.689C128.558 158.115 128.522 159.282 128.501 160.07C128.501 160.433 128.501 160.734 128.475 160.978C128.461 161.081 128.434 161.182 128.392 161.278Z" fill="#263238"/>
<path d="M137.847 161.278C137.839 161.165 137.839 161.05 137.847 160.936C137.847 160.687 137.847 160.376 137.816 160.003C137.816 159.168 137.785 158.042 137.764 156.689L137.868 156.792L130.711 156.824C130.68 156.824 130.965 156.564 130.846 156.689V157.887C130.846 158.286 130.846 158.675 130.846 159.059C130.846 159.826 130.846 160.568 130.846 161.273L130.721 161.149C132.796 161.149 134.569 161.185 135.835 161.211L137.323 161.247C137.509 161.246 137.694 161.254 137.878 161.273C137.707 161.299 137.533 161.31 137.36 161.304L135.897 161.335C134.637 161.361 132.832 161.387 130.711 161.398H130.586V161.273C130.586 160.568 130.586 159.826 130.586 159.059V156.689L130.721 156.554L137.878 156.58H137.961V156.689C137.961 158.115 137.925 159.282 137.904 160.07C137.904 160.433 137.904 160.734 137.904 160.978C137.899 161.08 137.879 161.181 137.847 161.278Z" fill="#263238"/>
<path d="M147.296 161.278C147.286 161.165 147.286 161.05 147.296 160.936C147.296 160.687 147.296 160.376 147.27 160.003C147.27 159.168 147.239 158.042 147.213 156.689L147.322 156.792L140.16 156.824L140.295 156.689V159.059C140.295 159.826 140.295 160.568 140.295 161.273L140.17 161.149C142.245 161.149 144.024 161.185 145.289 161.211L146.778 161.247C146.963 161.246 147.148 161.254 147.333 161.273C147.161 161.299 146.987 161.31 146.814 161.304L145.357 161.335C144.096 161.361 142.286 161.387 140.17 161.398H140.036V161.273C140.036 160.568 140.036 159.826 140.036 159.059C140.036 158.675 140.036 158.286 140.036 157.887V156.689L140.17 156.554L147.333 156.58H147.442V156.689C147.442 158.115 147.405 159.282 147.39 160.07C147.39 160.433 147.39 160.734 147.359 160.978C147.349 161.08 147.328 161.181 147.296 161.278Z" fill="#263238"/>
<path d="M156.756 161.278C156.737 161.165 156.728 161.051 156.73 160.936C156.73 160.687 156.73 160.376 156.704 160.003C156.704 159.168 156.668 158.042 156.647 156.689L156.756 156.792L149.594 156.824C149.562 156.824 149.848 156.564 149.728 156.689V159.059C149.728 159.826 149.728 160.568 149.728 161.273L149.604 161.149C151.678 161.149 153.452 161.185 154.723 161.211L156.211 161.247C156.396 161.246 156.582 161.255 156.766 161.273C156.594 161.299 156.421 161.309 156.247 161.304L154.79 161.335C153.53 161.361 151.72 161.387 149.604 161.398H149.479V161.273C149.479 160.568 149.479 159.826 149.479 159.059C149.479 158.675 149.479 158.286 149.479 157.887V156.689L149.614 156.554L156.776 156.58H156.88V156.689C156.88 158.115 156.844 159.282 156.823 160.07C156.823 160.433 156.823 160.734 156.797 160.978C156.794 161.079 156.78 161.18 156.756 161.278Z" fill="#263238"/>
<path d="M166.205 161.278C166.197 161.164 166.197 161.05 166.205 160.936C166.205 160.687 166.205 160.376 166.179 160.003C166.179 159.168 166.143 158.042 166.122 156.689L166.226 156.792L159.069 156.823C159.038 156.823 159.323 156.564 159.204 156.689V157.887C159.204 158.286 159.204 158.675 159.204 159.059C159.204 159.826 159.204 160.568 159.204 161.273L159.079 161.149C161.154 161.149 162.927 161.185 164.198 161.211L165.686 161.247C165.87 161.246 166.053 161.255 166.236 161.273C166.064 161.299 165.891 161.31 165.717 161.304L164.255 161.335C162.995 161.361 161.19 161.387 159.069 161.398H158.944V161.273C158.944 160.568 158.944 159.826 158.944 159.059V156.689C158.82 156.808 159.105 156.523 159.079 156.554L166.236 156.58H166.345V156.689C166.345 158.115 166.309 159.282 166.288 160.07C166.288 160.433 166.288 160.734 166.262 160.978C166.256 161.08 166.237 161.181 166.205 161.278Z" fill="#263238"/>
<path d="M175.66 161.278C175.644 161.165 175.635 161.051 175.634 160.936C175.634 160.687 175.634 160.376 175.608 160.003C175.608 159.168 175.577 158.042 175.551 156.689L175.66 156.792L168.503 156.823C168.471 156.823 168.757 156.564 168.632 156.689V159.059C168.632 159.826 168.632 160.568 168.632 161.273L168.508 161.149C170.582 161.149 172.361 161.185 173.627 161.211L175.115 161.247C175.3 161.246 175.486 161.254 175.67 161.273C175.498 161.299 175.325 161.31 175.151 161.304L173.689 161.335C172.429 161.361 170.619 161.387 168.503 161.398H168.383V161.273C168.383 160.568 168.383 159.826 168.383 159.059V157.887C168.383 157.69 168.383 157.492 168.383 157.29V156.689C168.264 156.808 168.549 156.523 168.523 156.554L175.68 156.58H175.789V156.689C175.789 158.115 175.748 159.282 175.732 160.07C175.732 160.433 175.732 160.734 175.701 160.978C175.698 161.079 175.684 161.18 175.66 161.278Z" fill="#263238"/>
<path d="M185.114 161.278C185.095 161.165 185.087 161.051 185.088 160.936C185.088 160.687 185.088 160.376 185.062 160.003C185.062 159.168 185.031 158.042 185.005 156.689L185.114 156.792L177.952 156.824C177.921 156.824 178.206 156.564 178.087 156.689V159.059C178.087 159.826 178.087 160.568 178.087 161.273L177.962 161.149C180.037 161.149 181.811 161.185 183.081 161.211L184.57 161.247C184.755 161.246 184.94 161.255 185.124 161.273C184.953 161.299 184.779 161.31 184.606 161.304L183.149 161.335C181.888 161.361 180.078 161.387 177.962 161.398H177.838V161.273C177.838 160.568 177.838 159.826 177.838 159.059C177.838 158.675 177.838 158.286 177.838 157.887V156.689L177.973 156.554L185.135 156.58H185.239V156.689C185.239 158.115 185.202 159.282 185.182 160.07C185.182 160.433 185.182 160.734 185.156 160.978C185.152 161.079 185.139 161.18 185.114 161.278Z" fill="#263238"/>
<path d="M194.563 161.278C194.555 161.165 194.555 161.05 194.563 160.936C194.563 160.687 194.563 160.376 194.537 160.003C194.537 159.168 194.501 158.042 194.48 156.689L194.584 156.792L187.427 156.824C187.396 156.824 187.681 156.564 187.562 156.689V157.887C187.562 158.286 187.562 158.675 187.562 159.059C187.562 159.826 187.562 160.568 187.562 161.273L187.438 161.149C189.512 161.149 191.286 161.185 192.556 161.211L194.045 161.247C194.228 161.246 194.412 161.255 194.595 161.273C194.423 161.3 194.249 161.31 194.076 161.304L192.613 161.335C191.353 161.361 189.548 161.387 187.427 161.398H187.303V161.273C187.303 160.568 187.303 159.826 187.303 159.059V156.689L187.438 156.554L194.595 156.58H194.703V156.689C194.703 158.115 194.667 159.282 194.646 160.07C194.646 160.433 194.646 160.734 194.62 160.978C194.615 161.08 194.596 161.181 194.563 161.278Z" fill="#263238"/>
<path d="M113.623 152.068C113.623 152.145 109.178 152.203 103.696 152.203C98.2146 152.203 93.77 152.145 93.77 152.068C93.77 151.99 98.2146 151.933 103.696 151.933C109.178 151.933 113.623 151.995 113.623 152.068Z" fill="#263238"/>
<path d="M193.303 144.584C193.303 144.584 193.303 144.475 193.303 144.278C193.303 144.081 193.303 143.76 193.303 143.391C193.303 142.608 193.303 141.467 193.272 139.989L193.329 140.046C185.855 140.093 169.4 140.124 150.32 140.124L150.454 139.989V144.569L150.32 144.434L180.845 144.491L189.978 144.532H192.462H193.111H193.334H193.126H192.494H190.046L180.944 144.574L150.345 144.631H150.216V144.496C150.216 143.765 150.216 143.008 150.216 142.24V139.917L150.356 139.782C169.436 139.782 185.892 139.813 193.365 139.86H193.422V139.917C193.422 141.41 193.396 142.562 193.391 143.35C193.391 143.728 193.391 144.019 193.391 144.226C193.391 144.434 193.303 144.584 193.303 144.584Z" fill="#263238"/>
<path d="M171.039 135.373C171.039 135.446 166.594 135.508 161.112 135.508C155.631 135.508 151.186 135.446 151.186 135.373C151.186 135.301 155.631 135.239 161.112 135.239C166.594 135.239 171.039 135.296 171.039 135.373Z" fill="#263238"/>
<path d="M161.636 203.618H123.258C121.517 203.616 119.849 202.922 118.619 201.69C117.389 200.458 116.698 198.788 116.698 197.048C116.699 195.308 117.39 193.641 118.619 192.41C119.847 191.179 121.514 190.486 123.253 190.482H161.631C163.374 190.482 165.045 191.174 166.277 192.406C167.509 193.639 168.202 195.31 168.202 197.053C168.2 198.794 167.508 200.463 166.277 201.694C165.046 202.925 163.377 203.617 161.636 203.618Z" fill="#407BFF"/>
<path d="M140 196.914L140.653 196.26L141.914 197.38L144.388 195L144.994 195.653L141.82 198.641L140 196.914Z" fill="#E7ECF4"/>
<path d="M239.756 221.293L239.237 229.943C239.237 229.943 247.851 233.392 247.908 235L231.084 234.564L231.365 221.08L239.756 221.293Z" fill="#2D4D95"/>
<g opacity="0.6">
<path d="M234.046 229.083C233.884 229.129 233.744 229.233 233.653 229.375C233.562 229.518 233.527 229.688 233.554 229.855C233.588 230.023 233.686 230.171 233.827 230.268C233.968 230.365 234.142 230.403 234.311 230.374C234.484 230.326 234.633 230.216 234.728 230.064C234.824 229.913 234.86 229.731 234.829 229.554C234.771 229.387 234.651 229.249 234.493 229.169C234.336 229.089 234.153 229.073 233.984 229.124" fill="white"/>
</g>
<g opacity="0.6">
<path d="M231.084 234.564L231.167 233.206L247.245 234.124C247.245 234.124 247.986 234.471 247.888 234.995L231.084 234.564Z" fill="white"/>
</g>
<path d="M239.502 229.866C239.502 229.949 239.087 229.975 238.672 230.229C238.257 230.483 238.04 230.82 237.967 230.789C237.894 230.758 238.024 230.27 238.527 229.985C239.03 229.7 239.523 229.793 239.502 229.866Z" fill="#263238"/>
<path d="M241.244 230.638C241.244 230.721 240.902 230.851 240.617 231.193C240.332 231.536 240.238 231.899 240.155 231.893C240.072 231.888 240.036 231.421 240.399 231.001C240.762 230.581 241.244 230.561 241.244 230.638Z" fill="#263238"/>
<path d="M242.204 232.775C242.126 232.775 242.023 232.381 242.246 231.935C242.469 231.489 242.858 231.323 242.889 231.39C242.92 231.458 242.681 231.696 242.505 232.059C242.329 232.423 242.277 232.77 242.204 232.775Z" fill="#263238"/>
<path d="M239.403 227.879C239.367 227.957 238.994 227.833 238.527 227.854C238.06 227.874 237.697 228.009 237.656 227.936C237.614 227.864 237.972 227.584 238.522 227.568C239.071 227.553 239.445 227.822 239.403 227.879Z" fill="#263238"/>
<g opacity="0.3">
<path d="M239.652 223.004L239.559 224.55L231.297 224.265L231.328 222.481L239.652 223.004Z" fill="black"/>
</g>
<path d="M239.476 226.132C239.199 226.202 238.908 226.193 238.636 226.106C238.334 226.048 238.041 225.95 237.765 225.815C237.599 225.738 237.439 225.648 237.287 225.545C237.194 225.493 237.109 225.424 237.039 225.343C236.986 225.283 236.954 225.208 236.948 225.128C236.943 225.048 236.963 224.969 237.007 224.902C237.051 224.847 237.107 224.802 237.171 224.772C237.235 224.741 237.305 224.726 237.376 224.726C237.481 224.727 237.586 224.745 237.687 224.778C237.865 224.825 238.039 224.89 238.205 224.97C238.486 225.103 238.745 225.278 238.973 225.488C239.352 225.862 239.492 226.168 239.45 226.183C239.409 226.199 239.227 225.95 238.838 225.665C238.612 225.483 238.363 225.333 238.097 225.219C237.942 225.152 237.783 225.098 237.619 225.058C237.443 225.006 237.293 225.001 237.241 225.058C237.189 225.115 237.241 225.099 237.241 225.157C237.297 225.212 237.36 225.261 237.428 225.302C237.567 225.401 237.712 225.491 237.863 225.571C238.122 225.706 238.393 225.817 238.672 225.903C238.945 225.961 239.213 226.038 239.476 226.132Z" fill="#263238"/>
<path d="M239.367 226.266C239.219 226.02 239.148 225.734 239.165 225.447C239.16 225.135 239.208 224.825 239.305 224.529C239.362 224.348 239.438 224.174 239.533 224.01C239.581 223.9 239.657 223.804 239.753 223.732C239.85 223.66 239.963 223.615 240.083 223.601C240.158 223.603 240.23 223.627 240.291 223.671C240.352 223.714 240.399 223.775 240.425 223.844C240.466 223.944 240.493 224.049 240.503 224.156C240.532 224.343 240.532 224.534 240.503 224.721C240.448 225.035 240.316 225.331 240.119 225.582C239.782 226.007 239.435 226.1 239.43 226.069C239.424 226.038 239.694 225.877 239.948 225.463C240.101 225.226 240.2 224.958 240.239 224.679C240.262 224.518 240.262 224.354 240.239 224.192C240.239 224.016 240.156 223.87 240.088 223.886C240.021 223.902 239.855 224.01 239.782 224.156C239.697 224.298 239.624 224.447 239.564 224.602C239.464 224.872 239.401 225.154 239.378 225.442C239.336 225.929 239.414 226.235 239.367 226.266Z" fill="#263238"/>
<path d="M243.241 168.596L229.876 172.89C230.037 173.009 232.355 188.029 232.355 188.029L230.426 227.9L241.032 228.03L245.777 186.208L243.241 168.596Z" fill="#263238"/>
<path d="M224.571 221.262L224.301 229.923C224.301 229.923 233.014 233.107 233.118 234.715L216.299 234.793L216.164 221.277L224.571 221.262Z" fill="#2D4D95"/>
<g opacity="0.6">
<path d="M219.115 229.223C218.954 229.273 218.817 229.38 218.73 229.525C218.643 229.669 218.612 229.84 218.643 230.006C218.687 230.17 218.792 230.31 218.937 230.399C219.081 230.488 219.255 230.518 219.421 230.483C219.591 230.429 219.736 230.314 219.827 230.16C219.918 230.006 219.949 229.823 219.913 229.648C219.85 229.482 219.725 229.347 219.565 229.272C219.404 229.196 219.22 229.186 219.052 229.243" fill="white"/>
</g>
<g opacity="0.6">
<path d="M216.325 234.792L216.367 233.434L232.475 233.864C232.475 233.864 233.222 234.186 233.144 234.715L216.325 234.792Z" fill="white"/>
</g>
<path d="M224.571 229.84C224.571 229.917 224.156 229.959 223.757 230.223C223.358 230.488 223.14 230.835 223.062 230.804C222.984 230.773 223.109 230.286 223.581 229.985C224.053 229.684 224.608 229.762 224.571 229.84Z" fill="#263238"/>
<path d="M226.36 230.561C226.36 230.638 226.023 230.778 225.748 231.126C225.473 231.473 225.39 231.847 225.307 231.842C225.224 231.836 225.172 231.375 225.525 230.95C225.878 230.524 226.355 230.483 226.36 230.561Z" fill="#263238"/>
<path d="M227.371 232.666C227.299 232.666 227.179 232.272 227.371 231.821C227.563 231.37 227.968 231.193 227.999 231.261C228.03 231.328 227.802 231.567 227.636 231.94C227.47 232.314 227.454 232.656 227.371 232.666Z" fill="#263238"/>
<path d="M224.436 227.859C224.4 227.931 224.021 227.822 223.559 227.859C223.098 227.895 222.735 228.04 222.688 227.973C222.642 227.905 222.994 227.604 223.539 227.573C224.083 227.542 224.472 227.791 224.436 227.859Z" fill="#263238"/>
<g opacity="0.3">
<path d="M224.535 222.978L224.488 224.519L216.221 224.488L216.201 222.703L224.535 222.978Z" fill="black"/>
</g>
<path d="M224.457 226.106C224.183 226.185 223.891 226.185 223.617 226.106C223.311 226.055 223.013 225.966 222.73 225.841C222.565 225.766 222.404 225.681 222.248 225.587C222.153 225.535 222.068 225.469 221.994 225.39C221.939 225.333 221.905 225.258 221.897 225.179C221.89 225.1 221.909 225.021 221.952 224.954C221.993 224.897 222.047 224.85 222.109 224.817C222.171 224.784 222.24 224.765 222.31 224.763C222.417 224.761 222.523 224.775 222.626 224.804C222.804 224.849 222.978 224.91 223.145 224.986C223.432 225.116 223.696 225.291 223.928 225.504C224.317 225.862 224.447 226.168 224.447 226.184C224.447 226.199 224.218 225.955 223.819 225.665C223.587 225.494 223.334 225.353 223.067 225.245C222.909 225.184 222.746 225.136 222.58 225.1C222.403 225.053 222.253 225.053 222.206 225.131C222.16 225.209 222.206 225.177 222.206 225.229C222.26 225.286 222.324 225.333 222.393 225.369C222.535 225.465 222.684 225.55 222.839 225.623C223.099 225.753 223.372 225.856 223.653 225.929C223.924 225.973 224.193 226.032 224.457 226.106Z" fill="#263238"/>
<path d="M224.348 226.225C224.189 225.986 224.111 225.702 224.125 225.416C224.109 225.104 224.145 224.792 224.234 224.493C224.286 224.313 224.358 224.139 224.446 223.974C224.49 223.865 224.561 223.769 224.651 223.694C224.742 223.618 224.85 223.567 224.965 223.544C225.04 223.546 225.112 223.569 225.175 223.61C225.237 223.651 225.287 223.709 225.318 223.777C225.362 223.876 225.391 223.981 225.406 224.088C225.434 224.276 225.434 224.466 225.406 224.654C225.361 224.969 225.238 225.269 225.048 225.525C224.721 225.966 224.379 226.043 224.374 226.043C224.562 225.851 224.735 225.645 224.892 225.426C225.038 225.185 225.126 224.914 225.152 224.633C225.177 224.471 225.177 224.307 225.152 224.145C225.126 223.969 225.058 223.824 224.991 223.839C224.924 223.855 224.763 223.974 224.695 224.119C224.615 224.265 224.547 224.418 224.493 224.576C224.398 224.846 224.344 225.129 224.332 225.416C224.306 225.909 224.395 226.215 224.348 226.225Z" fill="#263238"/>
<path d="M213.83 170.722C213.83 173.741 215.023 229.71 215.023 229.71L225.089 228.813L227.164 194.418L228.248 191.42L229.508 172.89L213.83 170.722Z" fill="#263238"/>
<path d="M235.161 98.1676C235.296 98.3491 243.159 110.827 243.159 110.827L252.001 101.575L256.523 108.104C256.523 108.104 247.069 121.448 245.679 121.931C244.289 122.413 239.819 121.656 239.819 121.656L233.595 113.415L235.161 98.1676Z" fill="#EBEBEB"/>
<path d="M243.241 113.679C243.089 113.217 243.032 112.728 243.075 112.243C243.026 111.76 243.059 111.273 243.174 110.801C243.327 111.264 243.385 111.752 243.345 112.238C243.391 112.721 243.355 113.208 243.241 113.679Z" fill="#263238"/>
<path d="M215.169 88.8324L213.81 92.1879C213.81 92.1879 206.834 98.0742 206.202 98.9818C205.569 99.8894 211.18 129.233 211.18 129.233C211.18 129.233 210.817 172.346 211.18 172.346C211.543 172.346 216.367 173.901 226.22 173.16C236.074 172.418 237.905 171.438 237.905 171.438L234.829 133.309L230.115 107.674L222.03 97.26L215.169 88.8324Z" fill="#EBEBEB"/>
<path d="M231.059 103.39C231.059 103.39 230.022 98.4166 230.11 98.261C230.198 98.1054 227.786 92.2294 227.786 92.2294C227.786 92.2294 226.977 89.5378 226.977 89.5482C226.977 89.5586 215.988 87.6915 215.988 87.6915L215.469 89.3511L230.125 107.871L231.629 115.821L233.185 113.654L231.059 103.39Z" fill="#2D4D95"/>
<path d="M240.866 140.824L238.48 112.139L236.525 100.942C236.243 99.3464 235.645 97.823 234.767 96.4614L229.062 93.1577C228.478 92.4601 227.933 91.7312 227.428 90.9744L230.13 97.8772L231.079 103.39L231.665 116.039L234.777 133.019L237.827 170.359L244.454 169.063L240.866 140.824Z" fill="#EBEBEB"/>
<path d="M231.883 107.404L233.164 97.9913L229.041 93.1577L227.408 90.9744L229.944 98.261L231.883 107.404Z" fill="#EBEBEB"/>
<path d="M225.369 124.97L235.332 110.801L252.67 116.044L239.554 133.014L223.269 127.718L225.369 124.97Z" fill="#2D4D95"/>
<path d="M247.608 115.391C247.608 115.476 247.583 115.559 247.535 115.63C247.488 115.701 247.421 115.756 247.342 115.789C247.264 115.821 247.177 115.83 247.094 115.813C247.01 115.796 246.933 115.755 246.873 115.695C246.813 115.635 246.772 115.558 246.755 115.475C246.739 115.391 246.747 115.305 246.78 115.226C246.812 115.148 246.868 115.08 246.938 115.033C247.009 114.986 247.092 114.96 247.178 114.96C247.292 114.96 247.401 115.006 247.482 115.087C247.563 115.167 247.608 115.277 247.608 115.391Z" fill="#263238"/>
<path d="M240.674 113.456C240.674 113.542 240.649 113.625 240.601 113.696C240.553 113.767 240.486 113.822 240.407 113.855C240.328 113.887 240.241 113.895 240.158 113.878C240.074 113.861 239.997 113.82 239.937 113.759C239.877 113.698 239.837 113.621 239.821 113.537C239.805 113.453 239.814 113.367 239.847 113.288C239.881 113.21 239.937 113.143 240.008 113.096C240.08 113.049 240.163 113.025 240.249 113.026C240.362 113.027 240.47 113.073 240.55 113.154C240.629 113.235 240.674 113.343 240.674 113.456Z" fill="#263238"/>
<path d="M232.547 101.689C232.521 101.689 232.734 102.612 233.029 103.763C233.186 104.448 233.38 105.123 233.61 105.786C233.636 105.786 233.418 104.863 233.128 103.738C232.837 102.612 232.573 101.684 232.547 101.689Z" fill="#263238"/>
<path d="M235.856 108.047C235.917 108.453 235.863 108.868 235.7 109.245C235.618 109.438 235.495 109.611 235.34 109.752C235.186 109.893 235.002 110 234.803 110.065C234.533 110.151 234.245 110.165 233.968 110.106C233.69 110.047 233.433 109.916 233.221 109.728C232.51 108.899 232.155 107.824 232.231 106.735C232.256 106.396 232.376 106.07 232.577 105.795C232.778 105.52 233.051 105.307 233.367 105.179C233.724 105.084 234.104 105.112 234.443 105.258C234.783 105.405 235.063 105.662 235.239 105.988" fill="#E0E0E0"/>
<path d="M235.239 105.999C235.172 105.859 235.082 105.731 234.974 105.62C234.849 105.49 234.706 105.378 234.549 105.288C234.338 105.17 234.102 105.102 233.859 105.091C233.718 105.087 233.577 105.101 233.439 105.133C233.287 105.165 233.142 105.223 233.009 105.304C232.729 105.498 232.508 105.765 232.371 106.077C232.215 106.416 232.143 106.787 232.158 107.161C232.176 107.556 232.248 107.946 232.371 108.322C232.527 108.917 232.847 109.456 233.294 109.878C233.517 110.051 233.782 110.16 234.062 110.194C234.316 110.225 234.574 110.202 234.819 110.127C235 110.081 235.166 109.99 235.301 109.863C235.425 109.754 235.533 109.628 235.623 109.489C235.756 109.261 235.844 109.009 235.882 108.747C235.906 108.575 235.906 108.401 235.882 108.229C235.887 108.186 235.887 108.142 235.882 108.099C235.883 108.084 235.883 108.068 235.882 108.053C235.9 108.276 235.891 108.5 235.856 108.722C235.813 108.975 235.721 109.218 235.586 109.437C235.498 109.569 235.392 109.688 235.27 109.79C235.142 109.906 234.987 109.988 234.819 110.028C234.578 110.103 234.322 110.119 234.073 110.076C233.824 110.033 233.589 109.931 233.388 109.78C232.962 109.374 232.655 108.859 232.501 108.291C232.231 107.59 232.231 106.814 232.501 106.113C232.629 105.818 232.835 105.563 233.097 105.376C233.22 105.299 233.355 105.242 233.496 105.211C233.856 105.117 234.238 105.164 234.565 105.34C234.722 105.421 234.865 105.526 234.99 105.651C235.081 105.761 235.165 105.877 235.239 105.999Z" fill="#263238"/>
<path d="M236.317 107.97C236.379 108.374 236.325 108.787 236.162 109.162C236.08 109.356 235.957 109.529 235.802 109.671C235.647 109.814 235.464 109.921 235.265 109.987C234.994 110.073 234.706 110.087 234.429 110.028C234.152 109.969 233.895 109.838 233.683 109.65C232.972 108.822 232.616 107.746 232.692 106.657C232.716 106.318 232.835 105.993 233.035 105.717C233.234 105.442 233.508 105.229 233.823 105.102C234.181 105.005 234.56 105.032 234.901 105.178C235.242 105.324 235.523 105.58 235.7 105.905" fill="#E0E0E0"/>
<path d="M235.701 105.916C235.634 105.777 235.544 105.651 235.436 105.542C235.312 105.411 235.169 105.299 235.011 105.21C234.798 105.091 234.56 105.024 234.316 105.013C234.175 105.007 234.033 105.021 233.896 105.055C233.745 105.086 233.601 105.144 233.47 105.226C233.188 105.417 232.967 105.686 232.833 105.999C232.676 106.336 232.604 106.706 232.62 107.078C232.638 107.474 232.709 107.867 232.833 108.244C232.99 108.839 233.309 109.378 233.756 109.8C233.978 109.973 234.244 110.083 234.523 110.117C234.778 110.147 235.036 110.124 235.28 110.049C235.463 110.005 235.631 109.914 235.768 109.785C235.892 109.676 236 109.55 236.09 109.411C236.222 109.183 236.31 108.931 236.349 108.67C236.373 108.498 236.373 108.323 236.349 108.151C236.351 108.108 236.351 108.065 236.349 108.021C236.35 108.006 236.35 107.99 236.349 107.975C236.366 108.198 236.355 108.423 236.318 108.644C236.274 108.897 236.183 109.14 236.048 109.359C235.963 109.493 235.858 109.612 235.737 109.712C235.609 109.828 235.454 109.91 235.286 109.951C235.045 110.026 234.789 110.043 234.541 110.001C234.292 109.958 234.057 109.858 233.854 109.707C233.428 109.301 233.122 108.786 232.967 108.218C232.697 107.518 232.697 106.741 232.967 106.04C233.094 105.744 233.3 105.489 233.564 105.304C233.686 105.225 233.821 105.169 233.963 105.138C234.094 105.105 234.228 105.089 234.363 105.091C234.595 105.095 234.823 105.156 235.026 105.268C235.184 105.347 235.328 105.452 235.452 105.579C235.541 105.686 235.624 105.799 235.701 105.916Z" fill="#263238"/>
<path d="M234.902 105.895C235.109 105.815 235.336 105.804 235.549 105.863C235.763 105.922 235.952 106.047 236.089 106.222C236.354 106.583 236.471 107.032 236.416 107.477C236.408 107.704 236.349 107.928 236.245 108.13C236.191 108.232 236.118 108.322 236.028 108.395C235.939 108.468 235.837 108.523 235.726 108.555C235.564 108.589 235.396 108.583 235.236 108.538C235.076 108.492 234.929 108.41 234.808 108.296C234.604 108.123 234.439 107.908 234.326 107.665C234.212 107.423 234.152 107.159 234.15 106.891C234.134 106.71 234.176 106.529 234.269 106.374C234.362 106.218 234.502 106.096 234.668 106.025" fill="#E0E0E0"/>
<path d="M234.668 106.025C234.643 106.02 234.616 106.02 234.591 106.025C234.517 106.05 234.451 106.093 234.399 106.149C234.304 106.254 234.232 106.377 234.186 106.511C234.141 106.645 234.123 106.786 234.134 106.927C234.14 107.347 234.291 107.751 234.559 108.073C234.712 108.269 234.909 108.426 235.135 108.53C235.258 108.592 235.394 108.625 235.532 108.625C235.67 108.625 235.806 108.592 235.929 108.53C236.159 108.381 236.326 108.152 236.395 107.887C236.46 107.65 236.484 107.405 236.468 107.161C236.465 106.951 236.42 106.744 236.335 106.553C236.251 106.361 236.128 106.189 235.975 106.045C235.756 105.861 235.473 105.77 235.187 105.791C235.112 105.801 235.039 105.82 234.969 105.848C234.922 105.874 234.902 105.885 234.902 105.89C234.996 105.861 235.094 105.842 235.192 105.833C235.462 105.824 235.724 105.921 235.923 106.103C236.066 106.241 236.179 106.406 236.257 106.588C236.334 106.771 236.374 106.967 236.375 107.166C236.384 107.4 236.358 107.634 236.297 107.861C236.23 108.098 236.081 108.304 235.877 108.442C235.768 108.495 235.648 108.523 235.527 108.523C235.405 108.523 235.285 108.495 235.177 108.442C234.965 108.343 234.778 108.198 234.632 108.016C234.372 107.711 234.223 107.328 234.207 106.927C234.181 106.659 234.261 106.391 234.43 106.18C234.5 106.115 234.581 106.063 234.668 106.025Z" fill="#263238"/>
<path d="M234.757 109.313C234.757 109.313 234.757 109.245 234.824 109.152C234.883 109.028 234.977 108.924 235.094 108.851C235.217 108.783 235.348 108.727 235.483 108.685C235.586 108.649 235.654 108.623 235.654 108.607C235.592 108.593 235.529 108.593 235.467 108.607C235.317 108.631 235.173 108.682 235.042 108.758C234.905 108.84 234.802 108.969 234.751 109.121C234.72 109.24 234.741 109.318 234.757 109.313Z" fill="#263238"/>
<path d="M233.709 105.947C233.709 105.947 233.756 106.009 233.865 106.056C234.008 106.115 234.164 106.14 234.319 106.128C234.473 106.116 234.623 106.068 234.757 105.988C234.855 105.921 234.902 105.864 234.891 105.854C234.706 105.936 234.511 105.993 234.311 106.025C234.108 106.02 233.906 105.994 233.709 105.947Z" fill="#263238"/>
<path d="M225.696 112.917C225.178 113.068 224.587 112.684 224.078 112.881C223.986 112.919 223.903 112.976 223.833 113.046C223.762 113.117 223.707 113.201 223.669 113.293C223.631 113.385 223.612 113.484 223.612 113.584C223.613 113.683 223.633 113.782 223.671 113.874C223.71 113.966 223.766 114.049 223.837 114.12C223.907 114.19 223.991 114.245 224.083 114.283C224.176 114.321 224.274 114.34 224.374 114.34C224.474 114.34 224.572 114.32 224.664 114.281C225.183 114.043 225.302 113.296 225.8 113" fill="#263238"/>
<path d="M221.459 114.789C221.622 114.736 221.779 114.67 221.931 114.592L221.848 114.421C221.594 114.572 221.311 114.668 221.017 114.703C220.723 114.739 220.425 114.714 220.142 114.629C219.759 114.464 219.412 114.226 219.122 113.927C218.832 113.627 218.604 113.274 218.451 112.886V112.85C218.265 112.476 215.697 104.832 215.226 103.375C214.987 102.772 214.982 102.102 215.212 101.497C215.443 100.891 215.891 100.393 216.47 100.102C216.543 100.061 218.259 99.1685 220.028 101.342C221.879 103.618 225.116 108.084 225.416 108.664L225.556 108.913C225.966 109.608 226.822 111.06 226.075 112.305C225.24 113.685 224.192 113.591 224.151 113.591V113.778C224.198 113.778 225.354 113.892 226.257 112.398C227.071 111.066 226.174 109.546 225.738 108.815L225.603 108.576C225.302 108.016 222.051 103.504 220.199 101.222C218.348 98.9403 216.424 99.9257 216.403 99.9361C215.794 100.257 215.322 100.789 215.077 101.432C214.832 102.076 214.829 102.786 215.07 103.432C215.459 104.63 218.104 112.539 218.301 112.933V112.969C218.462 113.38 218.704 113.755 219.012 114.071C219.32 114.387 219.689 114.638 220.095 114.81C220.54 114.95 221.019 114.943 221.459 114.789Z" fill="#263238"/>
<path d="M215.573 104.868C215.551 104.529 215.579 104.188 215.656 103.857C215.749 103.498 215.906 103.159 216.118 102.856C216.376 102.486 216.708 102.173 217.093 101.938C217.807 101.523 218.643 101.369 219.458 101.502C219.795 101.564 220.122 101.669 220.433 101.814C220.433 101.814 220.433 101.814 220.37 101.767C220.313 101.731 220.255 101.698 220.194 101.668C219.964 101.561 219.722 101.483 219.473 101.435C219.101 101.361 218.719 101.35 218.343 101.404C217.883 101.465 217.44 101.619 217.041 101.855C216.642 102.097 216.301 102.422 216.04 102.809C215.828 103.125 215.675 103.476 215.589 103.846C215.529 104.094 215.508 104.35 215.527 104.604C215.527 104.692 215.527 104.759 215.553 104.806C215.578 104.853 215.568 104.873 215.573 104.868Z" fill="#263238"/>
<path d="M213.81 92.1931L222.408 102.846L230.11 107.679L215.168 88.8376L213.81 92.1931Z" fill="#EBEBEB"/>
<path d="M206.201 98.9871C206.201 98.9871 204.397 101.829 204.127 104.733C204.013 105.869 206.844 127.2 207.161 128.159C207.477 129.119 211.242 131.515 212.347 131.997C213.452 132.479 227.138 137.033 232.734 136.955L233.932 126.401L219.54 124C219.54 124 217.86 122.403 216.983 122.081L215.78 110.329L214.022 100.896C214.022 100.896 209.012 97.7942 206.201 98.9871Z" fill="#EBEBEB"/>
<path d="M238.543 111.761C238.47 111.761 237.697 108.649 236.816 104.79C235.934 100.932 235.26 97.7787 235.348 97.7631C235.436 97.7476 236.193 100.875 237.08 104.728C237.967 108.582 238.615 111.74 238.543 111.761Z" fill="#263238"/>
<path d="M215.075 109.287C215.075 109.287 215.075 109.359 215.117 109.505C215.158 109.65 215.184 109.878 215.231 110.158C215.324 110.744 215.459 111.589 215.63 112.684C215.967 114.893 216.46 118.088 217.072 122.066L217.015 121.998C217.497 122.217 217.948 122.501 218.353 122.843C218.778 123.181 219.193 123.544 219.608 123.927L219.556 123.901L233.953 126.277H234.067V126.391C233.693 129.689 233.294 133.247 232.874 136.945V137.069H232.755C230.078 136.942 227.423 136.529 224.835 135.835C221.516 135.041 218.322 134.092 215.257 133.112C214.494 132.863 213.737 132.593 212.99 132.35C212.243 132.093 211.531 131.744 210.869 131.313C210.21 130.908 209.567 130.483 208.955 130.037C208.328 129.607 207.757 129.102 207.254 128.533C207.126 128.386 207.041 128.206 207.011 128.014C206.964 127.822 206.933 127.646 206.907 127.464C206.845 127.101 206.787 126.743 206.73 126.391C206.627 125.675 206.523 124.975 206.419 124.28L205.859 120.25C205.507 117.657 205.19 115.22 204.915 112.99C204.64 110.76 204.397 108.768 204.226 107C204.184 106.559 204.132 106.134 204.106 105.719C204.054 105.321 204.054 104.918 204.106 104.521C204.219 103.834 204.382 103.156 204.594 102.493C204.882 101.575 205.255 100.686 205.709 99.8375C205.859 99.5471 205.994 99.3189 206.082 99.1893C206.124 99.116 206.173 99.0466 206.227 98.9818L206.103 99.2048C206.025 99.35 205.901 99.5678 205.755 99.8635C205.327 100.719 204.971 101.609 204.692 102.524C204.49 103.184 204.336 103.859 204.231 104.541C204.184 104.929 204.184 105.321 204.231 105.708C204.262 106.118 204.314 106.543 204.36 106.984C204.552 108.747 204.806 110.749 205.092 112.964C205.377 115.178 205.714 117.631 206.067 120.224C206.25 121.524 206.44 122.868 206.637 124.254C206.741 124.944 206.85 125.644 206.959 126.355L207.13 127.428C207.161 127.604 207.192 127.786 207.234 127.947C207.255 128.114 207.325 128.271 207.436 128.398C207.926 128.946 208.481 129.432 209.09 129.845C209.697 130.291 210.335 130.711 210.988 131.11C211.635 131.539 212.332 131.888 213.063 132.147C213.804 132.407 214.562 132.666 215.324 132.905C218.384 133.88 221.547 134.824 224.882 135.617C227.449 136.303 230.081 136.715 232.734 136.846L232.604 136.965C233.03 133.268 233.434 129.705 233.813 126.412L233.916 126.546L219.525 124.099H219.494C219.084 123.715 218.674 123.352 218.254 123.02C217.867 122.688 217.436 122.41 216.973 122.195L216.921 122.169V122.123C216.346 118.134 215.884 114.935 215.563 112.72C215.412 111.631 215.293 110.78 215.21 110.194C215.174 109.914 215.148 109.676 215.127 109.536C215.104 109.454 215.086 109.371 215.075 109.287Z" fill="#263238"/>
<path d="M214.225 106.118C213.969 105.71 213.747 105.281 213.561 104.837C213.081 103.791 212.479 102.806 211.767 101.902C211.041 101.015 210.092 100.339 209.018 99.9412C208.562 99.8087 208.098 99.7082 207.628 99.6404C207.753 99.6 207.886 99.5859 208.017 99.5989C208.377 99.6017 208.735 99.6558 209.08 99.7597C210.216 100.119 211.22 100.804 211.969 101.73C212.703 102.646 213.299 103.665 213.737 104.754C213.947 105.191 214.11 105.648 214.225 106.118Z" fill="#263238"/>
<path d="M211.922 124.042C212.524 123.327 213.297 122.777 214.17 122.443C215.043 122.11 215.986 122.003 216.911 122.133C216.012 122.224 215.125 122.412 214.266 122.693C213.44 123.061 212.655 123.513 211.922 124.042Z" fill="#263238"/>
<path d="M213.556 125.711C213.802 124.857 214.258 124.077 214.882 123.443C215.506 122.81 216.278 122.341 217.129 122.081C216.389 122.531 215.694 123.052 215.054 123.637C214.493 124.281 213.991 124.976 213.556 125.711Z" fill="#263238"/>
<path d="M230.11 107.679C229.901 107.591 229.701 107.483 229.513 107.358L227.895 106.388L222.341 102.954L219.748 99.765C217.372 96.8192 215.241 94.1535 213.763 92.2813L213.727 92.2346V92.1879L214.764 89.7452L215.054 89.0918C215.082 89.0116 215.122 88.9364 215.174 88.8688C215.16 88.9528 215.135 89.0347 215.101 89.1125C215.039 89.294 214.956 89.5119 214.857 89.7815C214.619 90.4039 214.297 91.2337 213.898 92.2554V92.162C215.412 94.0031 217.57 96.648 219.95 99.599L222.543 102.794L222.512 102.768L228.02 106.279L229.576 107.316C229.763 107.423 229.941 107.544 230.11 107.679Z" fill="#263238"/>
<path d="M231.365 109.681C231.364 109.448 231.383 109.216 231.422 108.986C231.484 108.498 231.562 107.866 231.66 107.098C231.873 105.501 232.179 103.276 232.552 100.771V100.854C232.392 100.553 232.215 100.232 232.034 99.905C230.717 97.4571 229.534 95.2374 228.694 93.6141L227.714 91.6952C227.584 91.4643 227.473 91.2232 227.382 90.9744C227.542 91.1838 227.683 91.4077 227.802 91.6434L228.865 93.526C229.747 95.1181 230.94 97.3274 232.267 99.7494C232.444 100.076 232.615 100.398 232.786 100.698V100.74V100.787C232.407 103.286 232.06 105.506 231.8 107.098C231.671 107.861 231.562 108.488 231.479 108.976C231.468 109.214 231.429 109.451 231.365 109.681Z" fill="#263238"/>
<path d="M215.594 100.444L216.035 100.175L215.589 100.444C214.852 99.2852 214.206 98.0716 213.654 96.814L213.561 96.591C213.042 95.3204 212.441 93.8838 212.695 92.4887V92.4628C212.824 91.8507 213.159 91.3014 213.644 90.9069L213.784 90.7825H214.199V91.5863L214.292 91.6952L214.199 91.7834V91.8197C213.962 92.0499 213.801 92.3465 213.737 92.6702V92.6962C213.551 93.7853 214.08 95.0663 214.546 96.1969L214.64 96.4199C215.171 97.6213 215.796 98.7796 216.507 99.8842L215.594 100.444Z" fill="#263238"/>
<path d="M234.56 132.054C234.598 132.181 234.622 132.311 234.632 132.443C234.669 132.723 234.72 133.097 234.783 133.563C234.912 134.538 235.083 135.949 235.301 137.712C235.701 141.203 236.193 146.01 236.644 151.373C237.096 156.735 237.417 161.558 237.614 165.064C237.708 166.817 237.78 168.238 237.817 169.213C237.817 169.685 237.842 170.058 237.853 170.344C237.865 170.475 237.865 170.607 237.853 170.738C237.824 170.61 237.809 170.48 237.806 170.349C237.806 170.064 237.754 169.69 237.718 169.218C237.645 168.212 237.547 166.802 237.428 165.069C237.184 161.569 236.831 156.73 236.39 151.388C235.95 146.046 235.462 141.213 235.089 137.712C234.917 135.985 234.783 134.6 234.679 133.563C234.637 133.097 234.606 132.723 234.58 132.438C234.566 132.31 234.559 132.182 234.56 132.054Z" fill="#263238"/>
<path d="M227.906 144.221C227.906 144.221 227.792 144.356 227.558 144.558C227.325 144.76 226.972 145.051 226.521 145.393C225.381 146.302 224.178 147.128 222.922 147.867C222.223 148.269 221.498 148.626 220.754 148.935C220.145 149.18 219.519 149.381 218.882 149.537C218.451 149.645 218.012 149.72 217.57 149.76C217.408 149.787 217.243 149.787 217.082 149.76C217.082 149.713 217.767 149.635 218.83 149.335C219.454 149.159 220.065 148.942 220.66 148.686C221.388 148.369 222.098 148.012 222.787 147.618C224.249 146.773 225.499 145.87 226.417 145.227C226.89 144.858 227.387 144.522 227.906 144.221Z" fill="#263238"/>
<path d="M228.72 146.244C228.647 146.395 228.553 146.534 228.44 146.658C228.165 147.025 227.866 147.371 227.542 147.696C225.414 149.881 222.656 151.347 219.654 151.891C219.206 151.978 218.752 152.034 218.295 152.057C218.123 152.079 217.949 152.079 217.777 152.057C217.777 152.005 218.482 151.954 219.602 151.705C221.06 151.379 222.466 150.855 223.782 150.149C225.103 149.451 226.324 148.579 227.413 147.556C228.201 146.773 228.663 146.212 228.72 146.244Z" fill="#263238"/>
<path d="M217.616 152.244C217.436 151.792 217.341 151.31 217.336 150.823C217.243 150.345 217.243 149.854 217.336 149.376C217.612 150.305 217.71 151.278 217.627 152.244H217.616Z" fill="#263238"/>
<path d="M216.372 83.5114C216.181 83.5054 215.995 83.4452 215.837 83.3377C215.679 83.2303 215.555 83.0801 215.48 82.9047C215.313 82.5377 215.211 82.1447 215.179 81.743C214.935 79.9797 214.696 78.2112 214.453 76.4427C214.203 74.95 214.08 73.4389 214.084 71.9255C214.206 70.4588 214.662 69.0395 215.417 67.7765C216.216 66.2207 219.452 63.5291 224.82 65.0486" fill="#263238"/>
<path d="M216.096 77.1531C216.024 77.1531 213.228 76.3648 213.368 79.2276C213.508 82.0904 216.335 81.3384 216.335 81.2554C216.335 81.1724 216.096 77.1531 216.096 77.1531Z" fill="#FFBE9D"/>
<path d="M215.412 80.1974C215.412 80.1974 215.365 80.2337 215.282 80.2752C215.168 80.3305 215.037 80.3415 214.914 80.3063C214.725 80.1979 214.568 80.0415 214.459 79.8531C214.35 79.6646 214.292 79.4507 214.292 79.2328C214.272 78.9912 214.307 78.7481 214.396 78.5223C214.417 78.4319 214.46 78.3481 214.522 78.2785C214.583 78.2088 214.661 78.1554 214.748 78.123C214.804 78.1048 214.865 78.1068 214.92 78.1285C214.975 78.1503 215.021 78.1905 215.049 78.2422C215.091 78.32 215.075 78.3771 215.091 78.3823C215.106 78.3875 215.148 78.3304 215.091 78.2163C215.083 78.1812 215.069 78.1479 215.049 78.1185C215.028 78.0891 215.002 78.0641 214.971 78.0452C214.891 77.9893 214.793 77.967 214.696 77.9829C214.577 78.0096 214.467 78.0665 214.376 78.1483C214.285 78.23 214.217 78.3339 214.178 78.4497C214.073 78.7021 214.028 78.9757 214.048 79.2484C214.047 79.5021 214.121 79.7506 214.26 79.9628C214.399 80.1749 214.598 80.3413 214.831 80.4412C214.909 80.4581 214.99 80.4581 215.068 80.4411C215.145 80.4241 215.219 80.3905 215.282 80.3427C215.412 80.2649 215.422 80.2026 215.412 80.1974Z" fill="#EB996E"/>
<path d="M230.685 82.4326C230.685 80.4256 230.312 76.2974 229.944 72.5789C229.751 70.6431 228.837 68.8507 227.383 67.5582C225.929 66.2657 224.042 65.5679 222.097 65.6035H221.698C217.378 65.9354 215.251 69.7835 215.703 74.0933L216.309 87.8263L226.604 93.474L226.568 87.318C226.568 87.318 230.711 86.5868 230.685 82.4326Z" fill="#FFBE9D"/>
<path d="M226.573 87.3078C224.657 87.3809 222.763 86.8807 221.133 85.8712C221.133 85.8712 222.44 88.8792 226.578 88.4332L226.573 87.3078Z" fill="#EB996E"/>
<path d="M228.569 75.2862C228.574 75.4404 228.517 75.5902 228.413 75.7036C228.308 75.8169 228.163 75.8849 228.009 75.893C227.934 75.9008 227.858 75.8935 227.786 75.8716C227.714 75.8496 227.647 75.8134 227.589 75.765C227.531 75.7167 227.483 75.6572 227.448 75.5901C227.414 75.523 227.393 75.4496 227.387 75.3744C227.383 75.2201 227.439 75.0703 227.544 74.957C227.648 74.8436 227.793 74.7756 227.947 74.7676C228.022 74.7604 228.098 74.7682 228.17 74.7905C228.242 74.8127 228.308 74.849 228.366 74.8972C228.424 74.9455 228.472 75.0046 228.507 75.0714C228.542 75.1382 228.563 75.2112 228.569 75.2862Z" fill="#263238"/>
<path d="M229.145 74.394C229.073 74.4718 228.627 74.1451 227.978 74.1607C227.33 74.1762 226.879 74.5029 226.806 74.4252C226.734 74.3474 226.848 74.2488 227.045 74.0984C227.319 73.903 227.647 73.7962 227.983 73.7924C228.315 73.7845 228.64 73.8826 228.912 74.0725C229.114 74.2177 229.181 74.3577 229.145 74.394Z" fill="#263238"/>
<path d="M222.362 75.4158C222.367 75.5704 222.312 75.721 222.207 75.8346C222.102 75.9483 221.956 76.0159 221.802 76.0226C221.727 76.0305 221.651 76.0231 221.579 76.0011C221.507 75.9791 221.441 75.9428 221.383 75.8944C221.325 75.846 221.278 75.7864 221.244 75.7194C221.21 75.6523 221.19 75.5791 221.184 75.504C221.179 75.3494 221.235 75.1989 221.339 75.0852C221.444 74.9715 221.59 74.904 221.745 74.8972C221.819 74.8894 221.895 74.8967 221.967 74.9187C222.039 74.9408 222.106 74.9771 222.163 75.0255C222.221 75.0739 222.268 75.1334 222.302 75.2005C222.336 75.2675 222.357 75.3408 222.362 75.4158Z" fill="#263238"/>
<path d="M222.782 74.3112C222.719 74.3942 222.232 74.1245 221.599 74.2075C220.966 74.2904 220.562 74.6638 220.463 74.5964C220.365 74.529 220.463 74.4201 220.666 74.2438C220.914 74.0175 221.229 73.8759 221.563 73.8392C221.892 73.7948 222.226 73.8566 222.517 74.0156C222.73 74.1608 222.813 74.3112 222.782 74.3112Z" fill="#263238"/>
<path d="M225.219 79.5387C225.555 79.4256 225.903 79.3559 226.256 79.3313C226.422 79.3313 226.573 79.2794 226.599 79.1653C226.609 78.9962 226.567 78.8278 226.479 78.683L225.961 77.4539C225.494 76.4095 225.112 75.3289 224.82 74.2229C225.365 75.2232 225.833 76.2634 226.22 77.3346C226.386 77.7703 226.547 78.18 226.702 78.5741C226.81 78.7702 226.845 78.9979 226.801 79.2172C226.778 79.2747 226.743 79.3262 226.697 79.3676C226.651 79.409 226.596 79.4392 226.536 79.4558C226.448 79.4843 226.355 79.5001 226.262 79.5024C225.917 79.5583 225.567 79.5705 225.219 79.5387Z" fill="#263238"/>
<path d="M223.347 80.016C223.451 80.016 223.466 80.7006 224.068 81.1777C224.67 81.6548 225.406 81.5718 225.416 81.6704C225.427 81.7689 225.25 81.8052 224.939 81.8208C224.534 81.8342 224.137 81.7037 223.819 81.4526C223.513 81.2102 223.312 80.8591 223.259 80.4724C223.228 80.182 223.3 80.016 223.347 80.016Z" fill="#263238"/>
<path d="M222.818 71.5781C222.761 71.7493 222.118 71.6818 221.371 71.7856C220.624 71.8893 220.022 72.1019 219.919 71.9515C219.815 71.8011 219.976 71.713 220.22 71.5366C220.539 71.3224 220.906 71.1873 221.288 71.1425C221.67 71.0892 222.059 71.1265 222.424 71.2514C222.704 71.3603 222.844 71.4951 222.818 71.5781Z" fill="#263238"/>
<path d="M228.818 72.7552C228.709 72.9004 228.268 72.7552 227.739 72.7552C227.21 72.7552 226.764 72.8693 226.656 72.7241C226.547 72.5789 226.656 72.5011 226.873 72.3611C227.13 72.1868 227.435 72.0978 227.745 72.107C228.055 72.1064 228.358 72.2025 228.611 72.3818C228.803 72.5478 228.865 72.6982 228.818 72.7552Z" fill="#263238"/>
<path d="M225.136 65.1472C223.669 64.5663 222.18 64.8723 220.619 65.1005C219.417 65.2524 218.273 65.7074 217.295 66.423C216.539 67.0171 215.927 67.7734 215.503 68.6362C215.079 69.4989 214.855 70.4458 214.847 71.4069C214.764 73.2946 214.972 75.1837 215.464 77.008L215.62 76.9717C215.479 77.4409 215.47 77.9396 215.594 78.4135C215.665 78.6472 215.824 78.8439 216.039 78.9612C216.253 79.0785 216.505 79.1072 216.74 79.041C217.258 78.8128 217.258 78.0919 217.258 77.5214C217.124 75.6015 217.124 73.6744 217.258 71.7544C217.341 70.323 218.156 68.5649 219.276 67.8855C221.314 66.5267 223.969 67.6366 224.867 67.7921C226.251 66.6097 227.543 67.5328 228.383 68.5597C228.03 67.0142 226.604 65.7229 225.136 65.1472Z" fill="#263238"/>
<path d="M224.82 67.7921C225.733 67.7921 226.459 67.1801 227.47 67.3461C228.082 67.4446 228.699 68.4455 229.233 69.6902C229.54 69.5054 229.784 69.2335 229.935 68.9091C230.086 68.5847 230.137 68.2227 230.082 67.8692C230.026 67.5157 229.866 67.1868 229.623 66.9246C229.379 66.6623 229.063 66.4787 228.715 66.397C228.957 66.5538 229.236 66.6449 229.524 66.6615C229.667 66.6633 229.805 66.6108 229.911 66.5145C230.017 66.4183 230.082 66.2855 230.094 66.1429C230.078 66.0376 230.039 65.9369 229.981 65.8476C229.923 65.7582 229.847 65.6821 229.757 65.6243C228.836 64.8951 227.664 64.5609 226.497 64.6951C225.331 64.8292 224.265 65.4208 223.534 66.34" fill="#263238"/>
<path d="M229.508 66.0754C229.508 66.1117 229.213 65.9199 228.72 65.7643C228.088 65.5608 227.407 65.5608 226.775 65.7643C226.144 65.9916 225.6 66.4105 225.219 66.9623C224.929 67.3876 224.841 67.7039 224.794 67.6935C224.8 67.3971 224.891 67.1087 225.058 66.8637C225.411 66.2307 225.985 65.7494 226.669 65.5113C227.354 65.2732 228.102 65.295 228.772 65.5724C229.296 65.7954 229.529 66.0547 229.508 66.0754Z" fill="#455A64"/>
<path d="M229.316 69.2028C229.36 68.8827 229.36 68.5582 229.316 68.2381C229.242 67.9024 229.085 67.5906 228.86 67.3305C228.581 67.0253 228.222 66.8058 227.823 66.6978C227.447 66.6094 227.057 66.5978 226.676 66.6638C226.296 66.7297 225.933 66.8718 225.608 67.0816C225.09 67.4031 224.841 67.6936 224.81 67.6625C224.778 67.6313 224.991 67.3046 225.505 66.926C225.808 66.7041 226.149 66.5389 226.511 66.4385C226.963 66.3192 227.438 66.3192 227.89 66.4385C228.349 66.555 228.76 66.8104 229.067 67.1698C229.311 67.467 229.467 67.8261 229.519 68.207C229.557 68.3779 229.559 68.5549 229.524 68.7266C229.489 68.8982 229.419 69.0605 229.316 69.2028Z" fill="#455A64"/>
<path d="M214.541 76.0381C214.541 76.0381 214.478 75.9085 214.432 75.6596C214.365 75.3074 214.334 74.9495 214.338 74.5912C214.335 73.3978 214.631 72.2227 215.199 71.1735C215.77 70.1249 216.591 69.234 217.59 68.5804C217.888 68.3787 218.204 68.2051 218.534 68.0618C218.651 67.997 218.78 67.9565 218.913 67.9425C218.913 67.984 218.394 68.2018 217.694 68.7256C216.755 69.397 215.981 70.2738 215.432 71.2894C214.883 72.305 214.573 73.4325 214.525 74.586C214.484 75.4832 214.587 76.033 214.541 76.0381Z" fill="#455A64"/>
<path d="M215.173 76.5619C214.993 75.5198 215.073 74.4491 215.407 73.4455C215.741 72.4418 216.318 71.5366 217.087 70.8104C216.508 71.6582 216.03 72.5701 215.661 73.528C215.381 74.5169 215.217 75.5351 215.173 76.5619Z" fill="#455A64"/>
<path d="M262.114 100.304C261.994 99.9879 261.393 99.9205 261.393 99.9205L261.512 99.7389C261.598 99.6128 261.649 99.4663 261.66 99.3143C261.671 99.1622 261.641 99.0099 261.574 98.8729L261.507 98.7432C261.333 98.5038 261.091 98.3229 260.812 98.2246C260.812 98.2246 261.253 97.623 261.144 97.3274C261.022 97.0764 260.828 96.8672 260.587 96.726C260.346 96.5848 260.069 96.518 259.79 96.5339C258.83 96.7476 257.885 97.0284 256.964 97.374C256.879 97.4059 256.788 97.4189 256.698 97.4123C256.607 97.4057 256.519 97.3795 256.44 97.3356C256.361 97.2918 256.292 97.2312 256.238 97.1582C256.184 97.0851 256.147 97.0013 256.129 96.9125C255.962 96.0065 255.656 95.1318 255.221 94.3194C254.703 93.4481 254.096 93.417 253.728 93.5C253.686 93.5089 253.647 93.5269 253.613 93.5526C253.579 93.5782 253.552 93.611 253.532 93.6486C253.512 93.6862 253.501 93.7276 253.499 93.7701C253.497 93.8125 253.504 93.8548 253.52 93.8941C253.778 94.488 253.998 95.0978 254.179 95.7197C254.277 96.1864 253.94 99.5626 253.94 99.5626L252.224 101.87L256.113 107.487L257.825 104.946L261.491 103.333C261.491 103.333 262.186 102.457 262.114 102.156C262.051 101.959 261.923 101.789 261.751 101.673L262.207 101.035C262.223 100.788 262.191 100.54 262.114 100.304Z" fill="#FFBE9D"/>
<path d="M261.139 98.3179L261.066 98.3646L260.838 98.4942L260.003 98.961L258.758 99.6352C258.52 99.7597 258.281 99.9049 258.006 100.019C257.866 100.09 257.712 100.128 257.555 100.128C257.398 100.128 257.243 100.09 257.104 100.019C256.966 99.9277 256.867 99.7894 256.824 99.63C256.787 99.4783 256.787 99.3202 256.824 99.1684C256.896 98.8879 257.063 98.6408 257.296 98.4683C257.497 98.31 257.71 98.1678 257.933 98.043L258.499 97.7059L259.323 97.2184L259.552 97.094L259.629 97.0525C259.629 97.0525 259.629 97.0525 259.557 97.1095L259.339 97.2496L258.53 97.7682L257.97 98.1157C257.753 98.2412 257.545 98.3816 257.347 98.5357C257.132 98.703 256.977 98.9361 256.907 99.1996C256.867 99.3362 256.869 99.4816 256.914 99.6167C256.958 99.7518 257.043 99.8704 257.156 99.9568C257.279 100.032 257.421 100.07 257.565 100.066C257.708 100.059 257.848 100.027 257.98 99.9723C258.245 99.8634 258.499 99.7182 258.722 99.5989L259.977 98.9351L260.827 98.4994L261.061 98.3802L261.139 98.3179Z" fill="#EB996E"/>
<path d="M261.636 100.004C261.582 100.046 261.523 100.081 261.46 100.107C261.346 100.17 261.18 100.258 260.967 100.356C260.547 100.564 259.961 100.828 259.297 101.093C259.137 101.163 258.973 101.222 258.805 101.269C258.635 101.317 258.456 101.317 258.286 101.269C258.146 101.23 258.021 101.152 257.924 101.045C257.826 100.938 257.761 100.805 257.736 100.662C257.712 100.479 257.758 100.294 257.866 100.144C257.892 100.101 257.926 100.062 257.964 100.03L258.011 99.9984C258.011 99.9984 257.959 100.05 257.892 100.159C257.797 100.314 257.762 100.499 257.793 100.678C257.825 100.803 257.891 100.917 257.982 101.008C258.073 101.099 258.187 101.164 258.312 101.196C258.463 101.235 258.622 101.235 258.774 101.196C258.929 101.155 259.09 101.082 259.256 101.02C259.914 100.756 260.506 100.501 260.931 100.31L261.45 100.081C261.509 100.048 261.571 100.022 261.636 100.004Z" fill="#EB996E"/>
<path d="M261.829 101.601C261.776 101.632 261.718 101.655 261.658 101.668L261.17 101.829L259.552 102.317C259.391 102.358 259.241 102.41 259.08 102.436C258.926 102.47 258.766 102.459 258.618 102.405C258.55 102.379 258.488 102.338 258.436 102.287C258.384 102.235 258.344 102.173 258.318 102.104C258.279 101.984 258.279 101.855 258.318 101.736C258.381 101.569 258.5 101.43 258.655 101.342C258.707 101.305 258.765 101.279 258.826 101.264C258.778 101.301 258.727 101.335 258.676 101.368C258.539 101.463 258.436 101.599 258.38 101.756C258.345 101.863 258.345 101.977 258.38 102.083C258.403 102.141 258.439 102.193 258.484 102.235C258.53 102.277 258.585 102.309 258.644 102.327C258.782 102.367 258.927 102.367 259.065 102.327C259.21 102.327 259.365 102.249 259.521 102.208C260.154 102.021 260.729 101.855 261.144 101.746L261.663 101.611L261.829 101.601Z" fill="#EB996E"/>
<path d="M261.85 103.063C261.666 103.095 261.481 103.114 261.295 103.12L259.962 103.193H259.578C259.458 103.209 259.336 103.209 259.215 103.193C259.101 103.174 258.997 103.117 258.919 103.032C258.884 102.994 258.859 102.947 258.845 102.897C258.832 102.846 258.83 102.793 258.842 102.742C258.858 102.672 258.89 102.607 258.935 102.552C258.98 102.496 259.037 102.451 259.101 102.42C259.144 102.393 259.195 102.381 259.246 102.384C259.201 102.403 259.158 102.426 259.116 102.451C259.062 102.484 259.014 102.527 258.976 102.579C258.939 102.631 258.912 102.69 258.899 102.752C258.893 102.794 258.897 102.837 258.909 102.877C258.922 102.917 258.943 102.954 258.971 102.986C259.041 103.057 259.132 103.102 259.231 103.115C259.346 103.128 259.463 103.128 259.578 103.115H259.957C260.475 103.115 260.952 103.074 261.295 103.069C261.479 103.052 261.665 103.05 261.85 103.063Z" fill="#EB996E"/>
<path d="M258.333 101.798C258.031 101.687 257.718 101.605 257.4 101.554C257.078 101.536 256.754 101.55 256.435 101.596C256.745 101.479 257.079 101.436 257.408 101.471C257.738 101.506 258.055 101.618 258.333 101.798Z" fill="#EB996E"/>
<path d="M233.859 127.018L234.668 126.811C234.668 126.811 234.948 125.457 235.306 125.172C235.664 124.887 239.227 123.264 240.01 122.838C240.793 122.413 243.853 121.018 244.237 121.754C244.673 122.595 243.423 123.31 242.748 123.606C242.074 123.901 240.155 124.674 240.534 125.136C240.913 125.597 245.238 125.39 245.238 125.39L245.756 124.664C245.756 124.664 246.706 125.561 246.597 126.344C246.543 126.795 246.398 127.231 246.171 127.625H245.85C245.941 127.762 245.992 127.92 245.998 128.084C246.005 128.248 245.966 128.41 245.886 128.553C245.631 128.93 245.347 129.285 245.036 129.617C244.816 129.989 244.523 130.312 244.175 130.567C243.826 130.822 243.429 131.004 243.008 131.1C242.826 131.147 235.711 131.769 235.711 131.769L233.325 132.007L233.859 127.018Z" fill="#FFBE9D"/>
<path d="M91.2028 21.2565L72.3147 14.2966L53.6133 21.1631C51.2225 22.3197 49.1325 23.0094 49.1325 25.3121V36.6543C49.0899 44.6135 51.2202 52.4333 55.2937 59.2712C59.3023 66.0961 65.3085 71.5267 72.5014 74.8298C80.1459 72.2834 85.8507 65.4947 89.341 59.681C93.4109 52.8453 95.541 45.0298 95.5022 37.0744V26.8783C95.5022 23.6266 93.8218 22.0396 91.2028 21.2565Z" fill="#407BFF"/>
<g opacity="0.8">
<path d="M91.2028 21.2565L72.3147 14.2966L53.6133 21.1631C51.2225 22.3197 49.1325 23.0094 49.1325 25.3121V36.6543C49.0899 44.6135 51.2202 52.4333 55.2937 59.2712C59.3023 66.0961 65.3085 71.5267 72.5014 74.8298C80.1459 72.2834 85.8507 65.4947 89.341 59.681C93.4109 52.8453 95.541 45.0298 95.5022 37.0744V26.8783C95.5022 23.6266 93.8218 22.0396 91.2028 21.2565Z" fill="white"/>
</g>
<path d="M87.4688 25.8668L72.3148 20.2865L57.3111 25.789C55.3922 26.7174 53.7119 27.2723 53.7119 29.103V38.2203C53.6781 44.6085 55.3888 50.8846 58.6595 56.372C61.8704 61.8582 66.6899 66.225 72.4652 68.8811C78.5952 66.8377 83.1747 61.387 85.9752 56.7298C89.2419 51.241 90.9506 44.9655 90.9176 38.5782V30.3788C90.9176 27.7702 89.5692 26.4944 87.4688 25.8668Z" fill="#407BFF"/>
<path d="M83.7865 41.5292H74.8766V32.6141H69.7578V41.5292H60.8428V46.648H69.7578V55.5578H74.8766V46.648H83.7865V41.5292Z" fill="white"/>
<path d="M114.105 14.338C114.105 14.6159 114.023 14.8877 113.868 15.1188C113.714 15.3499 113.494 15.53 113.237 15.6364C112.981 15.7428 112.698 15.7706 112.425 15.7164C112.153 15.6622 111.902 15.5283 111.706 15.3318C111.509 15.1352 111.375 14.8848 111.321 14.6121C111.267 14.3395 111.295 14.0569 111.401 13.8001C111.508 13.5433 111.688 13.3238 111.919 13.1694C112.15 13.0149 112.422 12.9325 112.7 12.9325C113.072 12.9325 113.43 13.0806 113.693 13.3441C113.957 13.6077 114.105 13.9652 114.105 14.338Z" fill="#407BFF"/>
<path d="M43.6141 62.5384C43.6141 62.6092 43.5931 62.6784 43.5538 62.7372C43.5145 62.796 43.4586 62.8419 43.3932 62.869C43.3278 62.8961 43.2559 62.9032 43.1865 62.8894C43.1171 62.8756 43.0533 62.8415 43.0032 62.7914C42.9532 62.7414 42.9191 62.6776 42.9053 62.6082C42.8915 62.5388 42.8986 62.4668 42.9257 62.4014C42.9528 62.3361 42.9986 62.2802 43.0575 62.2409C43.1163 62.2015 43.1855 62.1805 43.2563 62.1805C43.3512 62.1805 43.4422 62.2182 43.5093 62.2854C43.5764 62.3525 43.6141 62.4435 43.6141 62.5384Z" fill="#407BFF"/>
<path d="M107.016 42.2864C107.016 42.3572 106.995 42.4264 106.955 42.4852C106.916 42.5441 106.86 42.59 106.795 42.617C106.729 42.6441 106.657 42.6512 106.588 42.6374C106.518 42.6236 106.455 42.5895 106.405 42.5395C106.355 42.4894 106.32 42.4257 106.307 42.3562C106.293 42.2868 106.3 42.2149 106.327 42.1495C106.354 42.0841 106.4 42.0282 106.459 41.9889C106.518 41.9496 106.587 41.9286 106.658 41.9286C106.753 41.9286 106.844 41.9663 106.911 42.0334C106.978 42.1005 107.016 42.1915 107.016 42.2864Z" fill="#407BFF"/>
<path d="M111.979 25.6233C111.98 25.6943 111.96 25.764 111.921 25.8235C111.882 25.8831 111.827 25.9297 111.762 25.9576C111.696 25.9855 111.624 25.9933 111.554 25.9801C111.485 25.9669 111.42 25.9332 111.37 25.8834C111.319 25.8336 111.285 25.7698 111.27 25.7003C111.256 25.6307 111.263 25.5585 111.29 25.4928C111.317 25.4271 111.363 25.3709 111.422 25.3314C111.481 25.2918 111.55 25.2707 111.621 25.2707C111.668 25.27 111.714 25.2786 111.758 25.296C111.801 25.3134 111.84 25.3393 111.874 25.3721C111.907 25.4049 111.933 25.444 111.952 25.4872C111.97 25.5303 111.979 25.5766 111.979 25.6233Z" fill="#407BFF"/>
</svg>
