<svg width="64" height="64" viewBox="0 0 64 64" fill="none" xmlns="http://www.w3.org/2000/svg">
<path d="M13.0607 15.3829C12.4749 14.7971 12.4749 13.8474 13.0607 13.2616C13.6464 12.6758 14.5962 12.6758 15.182 13.2616L50.5373 48.6169C51.1231 49.2027 51.1231 50.1525 50.5373 50.7383C49.9515 51.3241 49.0018 51.3241 48.416 50.7383L13.0607 15.3829Z" fill="#ADB5BD"/>
<path d="M19 22.2012H17C15.6738 22.2012 14.4023 22.7275 13.4648 23.666C12.5264 24.6035 12 25.875 12 27.2012V42.2012C12 43.5273 12.5264 44.7988 13.4648 45.7363C13.8799 46.1514 14.3604 46.4863 14.8818 46.7305C15.5381 47.0381 16.2607 47.2012 17 47.2012H44L41.5 44.7012H17C16.3369 44.7012 15.7012 44.4375 15.2324 43.9688C14.7637 43.5 14.5 42.8643 14.5 42.2012V27.2012C14.5 26.5381 14.7637 25.9023 15.2324 25.4336C15.7012 24.9648 16.3369 24.7012 17 24.7012H19.9297C20.4141 24.7012 20.8926 24.6533 21.3604 24.5615L19 22.2012Z" fill="#ADB5BD"/>
<path d="M25 28.2012C23.8711 29.707 23.25 31.5469 23.25 33.4512C23.25 35.7715 24.1719 37.9971 25.8125 39.6387C27.4541 41.2793 29.6797 42.2012 32 42.2012C33.9043 42.2012 35.7441 41.5801 37.25 40.4512L35.457 38.6582C34.4404 39.334 33.2383 39.7012 32 39.7012C30.3428 39.7012 28.7529 39.043 27.5811 37.8701C26.4082 36.6982 25.75 35.1084 25.75 33.4512C25.75 32.2129 26.1172 31.0107 26.793 29.9941L25 28.2012Z" fill="#ADB5BD"/>
<path d="M30.5986 27.3604L28.6191 25.3809C29.6797 24.9365 30.8281 24.7012 32 24.7012C34.3203 24.7012 36.5459 25.623 38.1875 27.2637C39.8281 28.9053 40.75 31.1309 40.75 33.4512C40.75 34.623 40.5146 35.7715 40.0703 36.832L38.0908 34.8525C38.1963 34.3965 38.25 33.9268 38.25 33.4512C38.25 32.6328 38.0898 31.832 37.7861 31.0889C37.4746 30.3271 37.0127 29.626 36.4189 29.0322C36.0273 28.6406 35.5898 28.3066 35.1191 28.0352C34.7852 27.8428 34.4336 27.6816 34.0703 27.5537C33.4111 27.3223 32.7119 27.2012 32 27.2012C31.5244 27.2012 31.0547 27.2559 30.5986 27.3604Z" fill="#ADB5BD"/>
<path d="M47.8057 44.5674C48.1641 44.4453 48.4941 44.2422 48.7676 43.9688C49.0342 43.7021 49.2344 43.3818 49.3574 43.0332C49.4502 42.7686 49.5 42.4873 49.5 42.2012V27.2012C49.5 26.5381 49.2363 25.9023 48.7676 25.4336C48.2988 24.9648 47.6631 24.7012 47 24.7012H44.0703C43.085 24.7012 42.1094 24.5068 41.1992 24.1299C40.2891 23.7529 39.4619 23.2002 38.7646 22.5039L36.6953 20.4336C36.4033 20.1416 36.0469 19.9297 35.6592 19.8115C35.5107 19.7656 35.3574 19.7334 35.2012 19.7158C35.1113 19.7061 35.0195 19.7012 34.9277 19.7012H29.0674C28.4062 19.7031 27.7725 19.9658 27.3047 20.4336L25.4863 22.248L23.7197 20.4814L25.5352 18.666C26.0781 18.123 26.7344 17.7168 27.4473 17.4717C27.7656 17.3623 28.0967 17.2852 28.4336 17.2422C28.6436 17.2148 28.8564 17.2012 29.0703 17.2012H34.9297C35.6191 17.2012 36.293 17.3438 36.9131 17.6123C37.4873 17.8604 38.0146 18.2158 38.4648 18.666L40.5352 20.7363C41.4727 21.6738 42.7441 22.2012 44.0703 22.2012H47C48.3262 22.2012 49.5977 22.7275 50.5352 23.666C51.4736 24.6035 52 25.875 52 27.2012V42.2012C52 43.5273 51.4736 44.7988 50.5352 45.7363C50.2705 46.001 49.9795 46.2334 49.668 46.4297L47.8057 44.5674Z" fill="#ADB5BD"/>
<path d="M19.1338 29.335C19.3682 29.1006 19.5 28.7822 19.5 28.4512C19.5 28.1201 19.3682 27.8018 19.1338 27.5674C18.8994 27.333 18.5811 27.2012 18.25 27.2012C17.9189 27.2012 17.6006 27.333 17.3662 27.5674C17.2529 27.6807 17.1641 27.8135 17.1016 27.958C17.0352 28.1123 17 28.2803 17 28.4512C17 28.6816 17.0635 28.9062 17.1816 29.0996C17.2021 29.1338 17.2256 29.167 17.25 29.1992L17.2881 29.248C17.3125 29.2783 17.3389 29.3076 17.3662 29.335C17.6006 29.5693 17.9189 29.7012 18.25 29.7012C18.5811 29.7012 18.8994 29.5693 19.1338 29.335Z" fill="#ADB5BD"/>
</svg>
