<svg xmlns="http://www.w3.org/2000/svg" width="80" height="80" viewBox="0 0 80 80" fill="none">
  <g clip-path="url(#clip0_2499_10729)">
    <path d="M52.9601 16.8004C51.9562 16.7995 50.97 16.5348 50.0994 16.0326L47.4627 16.5444L47.9721 13.8923C47.4406 12.958 47.1796 11.8929 47.2187 10.8174C47.2577 9.74194 47.5953 8.69886 48.1933 7.80599C48.7913 6.91312 49.6258 6.20604 50.6026 5.76461C51.5794 5.32318 52.6596 5.16498 53.7212 5.30788C54.7828 5.45079 55.7835 5.8891 56.6102 6.57332C57.4369 7.25754 58.0568 8.1604 58.3998 9.17994C58.7427 10.1995 58.7952 11.2951 58.5511 12.343C58.3071 13.3908 57.7763 14.3493 57.0187 15.1101C56.486 15.646 55.8533 16.0712 55.1569 16.3612C54.4605 16.6512 53.7139 16.8005 52.9601 16.8004ZM50.1778 15.5882L50.245 15.6304C51.2616 16.2367 52.4502 16.4854 53.6232 16.3372C54.7961 16.189 55.8865 15.6523 56.722 14.8119C57.424 14.1046 57.9146 13.2137 58.1381 12.2403C58.3616 11.2669 58.3091 10.2501 57.9866 9.30523C57.6641 8.36033 57.0844 7.52518 56.3134 6.89456C55.5424 6.26394 54.6109 5.8631 53.6246 5.73752C52.6383 5.61194 51.6367 5.76666 50.7336 6.18411C49.8304 6.60155 49.0617 7.26502 48.5148 8.09922C47.9679 8.93342 47.6647 9.90495 47.6395 10.9036C47.6143 11.9022 47.8682 12.8879 48.3724 13.7488L48.4144 13.8163L47.9917 16.0157L50.1778 15.5882Z" fill="#407BFF"/>
    <g opacity="0.5">
      <path d="M52.9601 16.8004C51.9562 16.7995 50.97 16.5348 50.0994 16.0326L47.4627 16.5444L47.9721 13.8923C47.4406 12.958 47.1796 11.8929 47.2187 10.8174C47.2577 9.74194 47.5953 8.69886 48.1933 7.80599C48.7913 6.91312 49.6258 6.20604 50.6026 5.76461C51.5794 5.32318 52.6596 5.16498 53.7212 5.30788C54.7828 5.45079 55.7835 5.8891 56.6102 6.57332C57.4369 7.25754 58.0568 8.1604 58.3998 9.17994C58.7427 10.1995 58.7952 11.2951 58.5511 12.343C58.3071 13.3908 57.7763 14.3493 57.0187 15.1101C56.486 15.646 55.8533 16.0712 55.1569 16.3612C54.4605 16.6512 53.7139 16.8005 52.9601 16.8004ZM50.1778 15.5882L50.245 15.6304C51.2616 16.2367 52.4502 16.4854 53.6232 16.3372C54.7961 16.189 55.8865 15.6523 56.722 14.8119C57.424 14.1046 57.9146 13.2137 58.1381 12.2403C58.3616 11.2669 58.3091 10.2501 57.9866 9.30523C57.6641 8.36033 57.0844 7.52518 56.3134 6.89456C55.5424 6.26394 54.6109 5.8631 53.6246 5.73752C52.6383 5.61194 51.6367 5.76666 50.7336 6.18411C49.8304 6.60155 49.0617 7.26502 48.5148 8.09922C47.9679 8.93342 47.6647 9.90495 47.6395 10.9036C47.6143 11.9022 47.8682 12.8879 48.3724 13.7488L48.4144 13.8163L47.9917 16.0157L50.1778 15.5882Z" fill="white"/>
    </g>
    <path d="M52.613 13.9963L49.5116 10.5819C49.4028 10.45 49.3503 10.2802 49.3655 10.1095C49.3807 9.93881 49.4624 9.78109 49.5928 9.67065C49.6521 9.61045 49.7227 9.56266 49.8006 9.53004C49.8784 9.49743 49.9619 9.48063 50.0462 9.48063C50.1306 9.48063 50.214 9.49743 50.2919 9.53004C50.3697 9.56266 50.4403 9.61045 50.4997 9.67065L52.7725 12.1738L58.0376 7.31098C58.1581 7.19075 58.3211 7.12329 58.491 7.12329C58.6609 7.12329 58.8239 7.19075 58.9444 7.31098C59.0532 7.44293 59.1058 7.61272 59.0906 7.78339C59.0754 7.95406 58.9937 8.11179 58.8633 8.22222L52.613 13.9963Z" fill="#407BFF"/>
    <path d="M73.3873 34.417C77.0394 30.7474 77.0394 24.7979 73.3873 21.1283C69.7353 17.4587 63.8141 17.4587 60.1621 21.1283C56.51 24.7979 56.51 30.7474 60.1621 34.417C63.8141 38.0866 69.7353 38.0866 73.3873 34.417Z" fill="#407BFF"/>
    <path opacity="0.5" d="M73.3873 34.417C77.0394 30.7474 77.0394 24.7979 73.3873 21.1283C69.7353 17.4587 63.8141 17.4587 60.1621 21.1283C56.51 24.7979 56.51 30.7474 60.1621 34.417C63.8141 38.0866 69.7353 38.0866 73.3873 34.417Z" fill="white"/>
    <path d="M56.151 27.7743C56.1482 25.6593 56.7701 23.5911 57.9377 21.8314C59.1054 20.0717 60.7665 18.6997 62.7106 17.889C64.6547 17.0784 66.7945 16.8656 68.8591 17.2775C70.9237 17.6894 72.8202 18.7076 74.3086 20.2031C75.7969 21.6986 76.8102 23.6042 77.2202 25.6787C77.6302 27.7532 77.4183 29.9032 76.6116 31.8567C75.8048 33.8101 74.4393 35.4791 72.688 36.6524C70.9367 37.8257 68.8783 38.4505 66.7735 38.4477C63.9573 38.444 61.2576 37.3183 59.2663 35.3174C57.2751 33.3166 56.1547 30.6039 56.151 27.7743ZM56.4953 27.7743C56.4958 29.8168 57.0991 31.8132 58.2288 33.5112C59.3586 35.2091 60.964 36.5324 62.8421 37.3136C64.7203 38.0949 66.7868 38.299 68.7803 37.9002C70.7739 37.5014 72.6051 36.5176 74.0422 35.0731C75.4794 33.6287 76.458 31.7885 76.8543 29.7853C77.2507 27.782 77.047 25.7056 76.269 23.8187C75.491 21.9318 74.1736 20.319 72.4834 19.1844C70.7932 18.0497 68.8062 17.4441 66.7735 17.4441C64.0479 17.447 61.435 18.5364 59.508 20.4732C57.581 22.4099 56.4975 25.0357 56.4953 27.7743Z" fill="#407BFF"/>
    <g opacity="0.5">
      <path d="M56.151 27.7743C56.1482 25.6593 56.7701 23.5911 57.9377 21.8314C59.1054 20.0717 60.7665 18.6997 62.7106 17.889C64.6547 17.0784 66.7945 16.8656 68.8591 17.2775C70.9237 17.6894 72.8202 18.7076 74.3086 20.2031C75.7969 21.6986 76.8102 23.6042 77.2202 25.6787C77.6302 27.7532 77.4183 29.9032 76.6116 31.8567C75.8048 33.8101 74.4393 35.4791 72.688 36.6524C70.9367 37.8257 68.8783 38.4505 66.7735 38.4477C63.9573 38.444 61.2576 37.3183 59.2663 35.3174C57.2751 33.3166 56.1547 30.6039 56.151 27.7743ZM56.4953 27.7743C56.4958 29.8168 57.0991 31.8132 58.2288 33.5112C59.3586 35.2091 60.964 36.5324 62.8421 37.3136C64.7203 38.0949 66.7868 38.299 68.7803 37.9002C70.7739 37.5014 72.6051 36.5176 74.0422 35.0731C75.4794 33.6287 76.458 31.7885 76.8543 29.7853C77.2507 27.782 77.047 25.7056 76.269 23.8187C75.491 21.9318 74.1736 20.319 72.4834 19.1844C70.7932 18.0497 68.8062 17.4441 66.7735 17.4441C64.0479 17.447 61.435 18.5364 59.508 20.4732C57.581 22.4099 56.4975 25.0357 56.4953 27.7743Z" fill="white"/>
    </g>
    <path d="M61.0353 33.9957C61.8135 33.076 65.1892 33.3826 65.1892 33.3826L68.4893 33.0648C71.196 32.5023 72.6151 33.2532 73.48 34.2882L73.494 34.3051C71.8302 36.042 69.5651 37.0692 67.1681 37.174C64.7711 37.2787 62.4259 36.4528 60.6183 34.8676C60.7015 34.5532 60.843 34.2573 61.0353 33.9957Z" fill="#263238"/>
    <path d="M63.4817 21.874C63.4817 21.874 61.5224 22.054 62.7148 24.7483L64.0639 23.9665L64.2823 22.3324L63.4817 21.874Z" fill="#263238"/>
    <path opacity="0.6" d="M63.4817 21.874C63.4817 21.874 61.5224 22.054 62.7148 24.7483L64.0639 23.9665L64.2823 22.3324L63.4817 21.874Z" fill="black"/>
    <path d="M68.9175 33.0871C68.5984 33.7339 67.7167 34.8617 65.3823 34.8617C63.9688 34.8617 63.868 34.2767 64.2879 33.6158C65.6594 32.9464 65.6678 31.5908 65.3011 30.418L68.3549 27.4705C68.1534 28.9808 68.0134 31.5908 68.8364 32.9099C68.8701 32.9656 68.8974 33.025 68.9175 33.0871Z" fill="#FFC3BD"/>
    <path opacity="0.2" d="M67.1123 28.6716L65.3153 30.4153C65.4039 30.718 65.4676 31.0275 65.5056 31.3406C66.2166 31.1944 67.1039 30.5306 67.339 29.7234C67.479 29.2341 67.2998 28.725 67.1123 28.6716Z" fill="black"/>
    <path d="M68.842 24.9873C68.6824 27.2851 68.3969 28.6435 67.2297 29.8022C65.4775 31.56 62.9668 30.4744 62.4461 28.1822C61.9759 26.101 62.323 22.7035 64.5678 21.812C64.9486 21.6587 65.3558 21.5823 65.766 21.5871C66.1762 21.5919 66.5814 21.6778 66.9586 21.84C67.3357 22.0022 67.6774 22.2374 67.964 22.5323C68.2507 22.8272 68.4767 23.1759 68.6293 23.5585C68.8114 24.0112 68.8843 24.5008 68.842 24.9873Z" fill="#FFC3BD"/>
    <path d="M65.2592 25.6174C65.2592 25.8058 65.1584 25.9548 65.0353 25.9548C64.9121 25.9548 64.817 25.8002 64.8198 25.6117C64.8226 25.4233 64.9205 25.277 65.0437 25.277C65.1668 25.277 65.262 25.4317 65.2592 25.6174Z" fill="#263238"/>
    <path d="M63.1544 25.5979C63.1544 25.7835 63.0536 25.9326 62.9304 25.9326C62.8073 25.9326 62.7121 25.7779 62.7149 25.5923C62.7177 25.4066 62.8157 25.2548 62.9388 25.2548C63.062 25.2548 63.1572 25.4094 63.1544 25.5979Z" fill="#263238"/>
    <path d="M63.9351 25.6765C63.7054 26.2448 63.4004 26.7793 63.0282 27.2656C63.1552 27.3575 63.3005 27.4209 63.4541 27.4515C63.6076 27.4821 63.766 27.4791 63.9183 27.4428L63.9351 25.6765Z" fill="#ED847E"/>
    <path d="M65.9896 24.7483C66.0082 24.7512 66.0271 24.7512 66.0456 24.7483C66.0675 24.7297 66.0818 24.7037 66.0859 24.6752C66.0901 24.6468 66.0837 24.6177 66.068 24.5936C65.9673 24.4512 65.8343 24.3348 65.6801 24.2541C65.5258 24.1734 65.3546 24.1307 65.1807 24.1296C65.1544 24.1352 65.131 24.1501 65.1147 24.1716C65.0985 24.1931 65.0904 24.2198 65.0921 24.2467C65.0938 24.2737 65.1051 24.2992 65.124 24.3184C65.1428 24.3377 65.1679 24.3495 65.1947 24.3518C65.3317 24.3546 65.4661 24.3896 65.5871 24.4541C65.7082 24.5186 65.8125 24.6107 65.8917 24.723C65.9048 24.7349 65.9205 24.7433 65.9376 24.7478C65.9546 24.7522 65.9725 24.7524 65.9896 24.7483Z" fill="#263238"/>
    <path d="M62.3454 24.7341C62.3634 24.733 62.3808 24.7269 62.3956 24.7165C62.4105 24.7061 62.4221 24.6917 62.4293 24.675C62.4867 24.5507 62.5722 24.4417 62.6792 24.3566C62.7862 24.2716 62.9115 24.2131 63.0451 24.1857C63.0595 24.184 63.0733 24.1795 63.0859 24.1725C63.0986 24.1654 63.1097 24.156 63.1186 24.1446C63.1276 24.1332 63.1342 24.1202 63.1382 24.1063C63.1422 24.0923 63.1433 24.0777 63.1417 24.0633C63.14 24.0489 63.1356 24.035 63.1286 24.0223C63.1215 24.0096 63.1121 23.9985 63.1008 23.9895C63.0895 23.9805 63.0765 23.9738 63.0627 23.9698C63.0488 23.9658 63.0343 23.9646 63.0199 23.9663C62.8488 23.9977 62.6877 24.0697 62.5499 24.1764C62.4121 24.283 62.3017 24.4212 62.2278 24.5794C62.2211 24.5917 62.2169 24.6053 62.2155 24.6193C62.2141 24.6332 62.2155 24.6474 62.2197 24.6608C62.2239 24.6742 62.2307 24.6866 62.2398 24.6972C62.2489 24.7079 62.2601 24.7166 62.2726 24.7229C62.2946 24.7357 62.3206 24.7397 62.3454 24.7341Z" fill="#263238"/>
    <path d="M68.3634 26.8492C68.3634 26.8492 67.3194 27.0124 67.3837 26.568C67.4481 26.1236 67.9911 24.6133 67.8736 23.9608C67.8176 23.6571 67.4957 23.0524 67.2214 22.9146C66.2193 22.4083 58.5443 23.6289 64.8198 19.1121V19.6999C64.8198 19.6999 66.0738 18.8308 66.3425 19.1374C66.5412 19.3624 65.7995 20.209 65.7995 20.209C65.7995 20.209 67.4425 19.3005 67.6888 19.7252C67.8484 20.0065 66.8155 20.6421 66.8155 20.6421C66.8155 20.6421 74.2051 22.7402 68.3634 26.8492Z" fill="#263238"/>
    <path d="M63.9157 27.603C63.9157 27.603 66.155 27.198 66.0682 28.0023C65.9814 28.8067 65.6092 30.9892 64.8002 30.9892C64.4615 30.9892 64.6631 30.6742 64.6631 30.6742C64.4503 30.851 64.1903 30.9606 63.9157 30.9892C63.5854 30.9892 63.8821 30.5111 63.8821 30.5111C63.8821 30.5111 63.4791 30.8879 63.1432 30.7923C63.0032 30.7558 63.1796 30.5279 63.076 30.2101C62.8297 29.4564 62.407 28.1964 62.5162 27.8083C62.6953 27.2655 63.9157 27.603 63.9157 27.603Z" fill="#263238"/>
    <path opacity="0.5" d="M63.9157 27.603C63.9157 27.603 66.155 27.198 66.0682 28.0023C65.9814 28.8067 65.6092 30.9892 64.8002 30.9892C64.4615 30.9892 64.6631 30.6742 64.6631 30.6742C64.4503 30.851 64.1903 30.9606 63.9157 30.9892C63.5854 30.9892 63.8821 30.5111 63.8821 30.5111C63.8821 30.5111 63.4791 30.8879 63.1432 30.7923C63.0032 30.7558 63.1796 30.5279 63.076 30.2101C62.8297 29.4564 62.407 28.1964 62.5162 27.8083C62.6953 27.2655 63.9157 27.603 63.9157 27.603Z" fill="white"/>
    <path d="M63.1402 28.0135C63.9052 27.9851 64.6712 28.0227 65.4298 28.126C65.1779 28.5563 64.7637 28.8854 63.91 28.7897C63.0562 28.6941 63.1402 28.0135 63.1402 28.0135Z" fill="white"/>
    <path opacity="0.5" d="M70.4963 24.4893C70.3017 24.9868 70.0018 25.436 69.6174 25.8055C68.9457 25.8827 68.2659 25.7656 67.6581 25.4681C67.7559 25.1149 67.827 24.7548 67.8708 24.3909C69.3375 24.6609 70.1129 24.5906 70.4963 24.4893Z" fill="white"/>
    <path d="M69.9392 27.1416C69.6261 27.6272 69.1355 27.9697 68.5733 28.0951C67.826 28.2498 67.5013 27.5663 67.7532 26.8829C67.9771 26.2726 68.6377 25.4485 69.3654 25.5976C70.0932 25.7467 70.3171 26.5398 69.9392 27.1416Z" fill="#FFC3BD"/>
    <path d="M75.3358 20.0261L76.0636 20.7321L77.0628 20.5886L77.2392 21.5899L78.1321 22.0652L77.687 22.9764L78.1321 23.8905L77.2392 24.3658L77.0628 25.367L76.0636 25.2236L75.3358 25.9295L74.6109 25.2236L73.6088 25.367L73.4353 24.3658L72.5424 23.8905L72.9874 22.9764L72.5424 22.0652L73.4353 21.5899L73.6088 20.5886L74.6109 20.7321L75.3358 20.0261Z" fill="#407BFF"/>
    <g opacity="0.9">
      <path d="M74.7956 24.1323L73.7544 22.9848C73.7181 22.9403 73.7006 22.8832 73.7059 22.8258C73.7111 22.7684 73.7386 22.7155 73.7824 22.6783C73.8021 22.6582 73.8257 22.6423 73.8516 22.6314C73.8776 22.6205 73.9054 22.6149 73.9335 22.6149C73.9616 22.6149 73.9895 22.6205 74.0154 22.6314C74.0413 22.6423 74.0649 22.6582 74.0847 22.6783L74.8488 23.522L76.615 21.8908C76.635 21.8706 76.6588 21.8546 76.685 21.8437C76.7112 21.8328 76.7392 21.8272 76.7676 21.8272C76.7959 21.8272 76.824 21.8328 76.8501 21.8437C76.8763 21.8546 76.9001 21.8706 76.9201 21.8908C76.9564 21.9353 76.9739 21.9925 76.9686 22.0498C76.9634 22.1072 76.9359 22.1602 76.8921 22.1973L74.7956 24.1323Z" fill="white"/>
    </g>
    <path d="M29.9902 20.6743C31.1766 15.6235 28.0634 10.5626 23.0367 9.37055C18.0101 8.17846 12.9734 11.3065 11.787 16.3573C10.6006 21.4081 13.7137 26.4689 18.7404 27.661C23.7671 28.8531 28.8038 25.725 29.9902 20.6743Z" fill="#407BFF"/>
    <path opacity="0.5" d="M29.9902 20.6743C31.1766 15.6235 28.0634 10.5626 23.0367 9.37055C18.0101 8.17846 12.9734 11.3065 11.787 16.3573C10.6006 21.4081 13.7137 26.4689 18.7404 27.661C23.7671 28.8531 28.8038 25.725 29.9902 20.6743Z" fill="white"/>
    <path d="M20.8913 29.1923C18.791 29.1896 16.7386 28.5612 14.9936 27.3867C13.2486 26.2122 11.8893 24.5443 11.0874 22.5938C10.2856 20.6432 10.0772 18.4976 10.4887 16.4281C10.9001 14.3586 11.9129 12.4581 13.399 10.9668C14.8852 9.47549 16.7779 8.46034 18.8381 8.04965C20.8983 7.63895 23.0334 7.85114 24.9736 8.65939C26.9137 9.46765 28.5719 10.8357 29.7385 12.5906C30.9051 14.3455 31.5277 16.4086 31.5277 18.519C31.524 21.351 30.4018 24.0658 28.4075 26.067C26.4131 28.0683 23.7098 29.1924 20.8913 29.1923ZM20.8913 8.19151C18.8576 8.1904 16.8692 8.79538 15.1777 9.92994C13.4862 11.0645 12.1676 12.6776 11.3887 14.5653C10.6098 16.453 10.4055 18.5304 10.8018 20.5347C11.1981 22.539 12.1771 24.3802 13.615 25.8254C15.0528 27.2705 16.885 28.2547 18.8796 28.6535C20.8743 29.0522 22.9418 28.8476 24.8207 28.0654C26.6996 27.2833 28.3054 25.9588 29.435 24.2595C30.5646 22.5602 31.1672 20.5625 31.1667 18.519C31.1637 15.7814 30.0803 13.1567 28.154 11.2206C26.2277 9.28459 23.6158 8.19523 20.8913 8.19151Z" fill="#407BFF"/>
    <g opacity="0.5">
      <path d="M20.8913 29.1923C18.791 29.1896 16.7386 28.5612 14.9936 27.3867C13.2486 26.2122 11.8893 24.5443 11.0874 22.5938C10.2856 20.6432 10.0772 18.4976 10.4887 16.4281C10.9001 14.3586 11.9129 12.4581 13.399 10.9668C14.8852 9.47549 16.7779 8.46034 18.8381 8.04965C20.8983 7.63895 23.0334 7.85114 24.9736 8.65939C26.9137 9.46765 28.5719 10.8357 29.7385 12.5906C30.9051 14.3455 31.5277 16.4086 31.5277 18.519C31.524 21.351 30.4018 24.0658 28.4075 26.067C26.4131 28.0683 23.7098 29.1924 20.8913 29.1923ZM20.8913 8.19151C18.8576 8.1904 16.8692 8.79538 15.1777 9.92994C13.4862 11.0645 12.1676 12.6776 11.3887 14.5653C10.6098 16.453 10.4055 18.5304 10.8018 20.5347C11.1981 22.539 12.1771 24.3802 13.615 25.8254C15.0528 27.2705 16.885 28.2547 18.8796 28.6535C20.8743 29.0522 22.9418 28.8476 24.8207 28.0654C26.6996 27.2833 28.3054 25.9588 29.435 24.2595C30.5646 22.5602 31.1672 20.5625 31.1667 18.519C31.1637 15.7814 30.0803 13.1567 28.154 11.2206C26.2277 9.28459 23.6158 8.19523 20.8913 8.19151Z" fill="white"/>
    </g>
    <path d="M20.8913 27.9154C22.8178 27.9179 24.6976 27.3194 26.2711 26.2026C25.8681 25.0073 25.3642 23.5673 25.0479 22.8867C24.3258 21.3173 23.4945 20.8167 17.2525 20.7661C14.3359 20.7407 13.4094 22.282 13.2499 23.9329C14.112 25.1642 15.2564 26.1689 16.5865 26.862C17.9165 27.5552 19.393 27.9165 20.8913 27.9154Z" fill="#407BFF"/>
    <path opacity="0.8" d="M20.8913 27.9154C22.8178 27.9179 24.6976 27.3194 26.2711 26.2026C25.8681 25.0073 25.3642 23.5673 25.0479 22.8867C24.3258 21.3173 23.4945 20.8167 17.2525 20.7661C14.3359 20.7407 13.4094 22.282 13.2499 23.9329C14.112 25.1642 15.2564 26.1689 16.5865 26.862C17.9165 27.5552 19.393 27.9165 20.8913 27.9154Z" fill="white"/>
    <path d="M24.0514 11.9351C24.0514 11.9351 25.6525 11.7185 25.0759 10.7932C25.062 10.7708 25.0415 10.7533 25.0173 10.7431C24.9931 10.7329 24.9663 10.7306 24.9407 10.7365C24.9151 10.7424 24.892 10.7562 24.8745 10.7759C24.8571 10.7957 24.8463 10.8204 24.8435 10.8467C24.8161 11.0813 24.7288 11.3049 24.59 11.4956C24.4512 11.6863 24.2656 11.8377 24.0514 11.9351Z" fill="#263238"/>
    <path d="M18.6296 9.519C18.6296 9.519 16.3904 9.83399 16.8103 8.36306C16.8215 8.32802 16.8431 8.29728 16.8723 8.27498C16.9014 8.25269 16.9367 8.23991 16.9733 8.23838C17.0099 8.23684 17.0461 8.24663 17.077 8.26641C17.1079 8.28619 17.132 8.31502 17.1461 8.349C17.2724 8.65578 17.4752 8.92465 17.7351 9.12961C17.995 9.33457 18.3031 9.46869 18.6296 9.519Z" fill="#263238"/>
    <path d="M18.2238 15.2423C18.2238 15.2423 17.3841 17.3657 16.3288 16.2689C16.303 16.2421 16.2862 16.2079 16.2805 16.1711C16.2749 16.1342 16.2808 16.0965 16.2974 16.0632C16.3139 16.0299 16.3404 16.0025 16.3731 15.985C16.4059 15.9674 16.4432 15.9605 16.48 15.9651C16.808 16.0059 17.1409 15.9607 17.4465 15.8341C17.752 15.7075 18.0198 15.5036 18.2238 15.2423Z" fill="#263238"/>
    <path d="M20.6841 9.1083C20.6841 9.1083 22.4447 8.8833 22.0024 7.56705C21.5602 6.25081 21.1095 5.49706 21.2719 4.68144C21.2719 4.68144 20.8464 4.72363 20.8912 5.43519C20.8912 5.43519 20.4154 3.84613 19.0634 3.96988C17.7115 4.09363 18.1901 5.30863 17.0649 5.14269C17.0649 5.14269 17.5239 5.663 18.0026 5.22425C18.0026 5.22425 17.8766 6.16644 16.6506 5.64331C16.8766 5.82045 17.0611 6.04522 17.1912 6.3018C17.3213 6.55838 17.3938 6.84051 17.4036 7.12831C17.4232 8.75955 17.4036 9.76642 18.5232 9.37829L20.6841 9.1083Z" fill="#263238"/>
    <path d="M18.291 9.96885C18.291 9.96885 17.678 9.06041 19.6122 8.81291C21.5463 8.56541 21.3196 9.41197 21.3196 9.41197L18.291 9.96885Z" fill="#407BFF"/>
    <path d="M17.9803 16.1364C18.1847 17.6411 18.347 19.832 17.2526 20.7658C18.6074 21.6524 19.7996 22.7675 20.7766 24.062C20.8111 24.1068 20.854 24.1442 20.903 24.1723C20.9519 24.2003 21.0059 24.2184 21.0618 24.2255C21.1177 24.2325 21.1745 24.2284 21.2288 24.2134C21.2831 24.1984 21.3339 24.1727 21.3784 24.1379C21.418 24.1094 21.4513 24.0731 21.4764 24.0311C22.7443 22.0229 21.8598 21.0386 21.8598 21.0386C20.8941 20.822 21.0201 19.9586 21.3616 18.8195L17.9803 16.1364Z" fill="#7F3E3B"/>
    <path opacity="0.2" d="M18.9151 17.2981L20.7904 18.3584L21.3698 18.8281C21.1855 19.2995 21.1007 19.8042 21.1207 20.3103C19.8947 19.9531 18.4896 18.3106 18.9151 17.2981Z" fill="black"/>
    <path d="M18.0306 12.6128C17.6359 15.0793 17.4176 16.1256 18.3609 17.6303C19.78 19.9224 22.8814 19.8802 23.9982 17.5712C24.9975 15.504 25.4957 11.8197 23.3292 10.315C22.8556 9.98074 22.3046 9.77402 21.7289 9.71456C21.1532 9.65509 20.5719 9.74486 20.0405 9.9753C19.5091 10.2057 19.0454 10.5692 18.6935 11.0309C18.3417 11.4926 18.1134 12.0372 18.0306 12.6128Z" fill="#7F3E3B"/>
    <path d="M21.7478 14.1286C21.7058 14.3255 21.773 14.5083 21.9018 14.5392C22.0305 14.5702 22.1817 14.4323 22.2153 14.2327C22.2489 14.033 22.1929 13.853 22.0613 13.822C21.9298 13.7911 21.7926 13.9289 21.7478 14.1286Z" fill="#263238"/>
    <path d="M23.9758 14.6293C23.9311 14.8289 24.001 15.0146 24.1298 15.0427C24.2585 15.0708 24.4097 14.933 24.4433 14.7361C24.4769 14.5393 24.4181 14.3536 24.2921 14.3227C24.1662 14.2918 24.0206 14.4324 23.9758 14.6293Z" fill="#263238"/>
    <path d="M24.2306 14.328L24.7288 14.2971C24.7288 14.2971 24.4069 14.6092 24.2306 14.328Z" fill="#263238"/>
    <path d="M22.6351 17.1234C22.733 17.1427 22.8322 17.1549 22.9318 17.16C22.9472 17.1566 22.9607 17.1474 22.9695 17.1343C22.9784 17.1213 22.9819 17.1053 22.9794 17.0897C22.9766 17.0781 22.9707 17.0675 22.9623 17.059C22.9539 17.0506 22.9433 17.0447 22.9318 17.0419C22.6794 17.0355 22.432 16.9698 22.2094 16.8502C21.9868 16.7305 21.7952 16.5602 21.6498 16.3528C21.6463 16.346 21.6415 16.34 21.6356 16.3351C21.6296 16.3303 21.6228 16.3267 21.6155 16.3246C21.6081 16.3224 21.6004 16.3219 21.5929 16.3229C21.5853 16.3238 21.578 16.3264 21.5714 16.3303C21.5581 16.3385 21.5484 16.3515 21.5442 16.3666C21.5401 16.3818 21.5418 16.398 21.5491 16.4119C21.6732 16.5977 21.8333 16.7566 22.0199 16.8788C22.2065 17.0011 22.4158 17.0843 22.6351 17.1234Z" fill="#263238"/>
    <path d="M21.5995 12.4468C21.6197 12.4618 21.6443 12.47 21.6695 12.47C21.6947 12.47 21.7192 12.4618 21.7394 12.4468C22.1929 12.1346 22.8591 12.3736 22.8591 12.3765C22.8877 12.3836 22.918 12.38 22.9442 12.3662C22.9703 12.3524 22.9905 12.3294 23.0009 12.3016C23.0113 12.2738 23.0111 12.2431 23.0004 12.2154C22.9898 12.1877 22.9693 12.165 22.943 12.1515C22.9094 12.1515 22.1537 11.8702 21.6023 12.2499C21.5766 12.2681 21.5591 12.2956 21.5533 12.3266C21.5476 12.3576 21.5541 12.3896 21.5715 12.4158C21.5782 12.4283 21.5878 12.4389 21.5995 12.4468Z" fill="#263238"/>
    <path d="M24.8966 13.7433C24.9123 13.7639 24.9344 13.7788 24.9594 13.7856C24.9844 13.7923 25.0109 13.7906 25.0348 13.7807C25.0588 13.7707 25.0788 13.7531 25.0917 13.7306C25.1047 13.7081 25.1099 13.6819 25.1065 13.6561C25.0871 13.4677 25.0228 13.2867 24.919 13.1286C24.8152 12.9704 24.675 12.8398 24.5103 12.7476C24.4821 12.7339 24.4496 12.7319 24.4199 12.7422C24.3903 12.7524 24.3659 12.7741 24.3521 12.8025C24.3384 12.8308 24.3364 12.8635 24.3467 12.8933C24.3569 12.9231 24.3785 12.9476 24.4067 12.9614C24.5354 13.0369 24.6444 13.1421 24.7247 13.2683C24.805 13.3944 24.8543 13.538 24.8686 13.687C24.8739 13.7075 24.8834 13.7267 24.8966 13.7433Z" fill="#263238"/>
    <path d="M22.0026 13.8193L22.5008 13.7911C22.5008 13.7911 22.1817 14.109 22.0026 13.8193Z" fill="#263238"/>
    <path d="M23.15 14.7245C23.2365 15.253 23.3977 15.7663 23.6287 16.2489C23.4946 16.3035 23.3507 16.3295 23.2061 16.3251C23.0616 16.3208 22.9195 16.2862 22.7889 16.2236L23.15 14.7245Z" fill="#630F0F"/>
    <path d="M22.8619 14.5138C22.8417 14.6282 22.7993 14.7373 22.7371 14.8352C22.6748 14.933 22.5941 15.0176 22.4993 15.084C22.4046 15.1505 22.2977 15.1976 22.1849 15.2226C22.0721 15.2475 21.9554 15.2499 21.8417 15.2296C21.7279 15.2093 21.6192 15.1667 21.5219 15.1042C21.4245 15.0416 21.3403 14.9605 21.2742 14.8653C21.208 14.7701 21.1612 14.6627 21.1363 14.5494C21.1115 14.436 21.1091 14.3188 21.1293 14.2045L22.8619 14.5138Z" fill="#407BFF"/>
    <path d="M25.0086 14.8906C24.9884 15.0049 24.946 15.1141 24.8838 15.2119C24.8216 15.3097 24.7408 15.3943 24.6461 15.4608C24.5513 15.5272 24.4445 15.5743 24.3316 15.5993C24.2188 15.6242 24.1022 15.6266 23.9884 15.6063C23.8746 15.586 23.766 15.5434 23.6686 15.4809C23.5712 15.4184 23.4871 15.3372 23.4209 15.242C23.3548 15.1468 23.3079 15.0394 23.2831 14.9261C23.2582 14.8127 23.2558 14.6955 23.276 14.5812L25.0086 14.8906Z" fill="#407BFF"/>
    <path d="M24.2446 15.7343C24.1868 15.7385 24.1288 15.7385 24.071 15.7343C23.8334 15.6906 23.6202 15.5601 23.4724 15.3681C23.3246 15.176 23.2527 14.9358 23.2705 14.6937L23.027 14.6487C22.9663 14.8676 22.8317 15.0586 22.6463 15.1887C22.5418 15.2629 22.4236 15.3154 22.2986 15.3429C22.1736 15.3704 22.0443 15.3725 21.9185 15.349C21.68 15.307 21.4657 15.1771 21.3176 14.9846C21.1695 14.792 21.0983 14.5509 21.118 14.3084L20.6702 14.2296L17.8291 13.9118L17.8515 13.7234L20.6953 14.0412L21.3307 14.1565V14.224C21.2987 14.3837 21.3153 14.5493 21.3783 14.6993C21.4352 14.8313 21.5267 14.9452 21.6431 15.0289C21.7594 15.1127 21.8962 15.163 22.0389 15.1746C22.239 15.1832 22.4353 15.1175 22.5902 14.9898C22.7452 14.8622 22.8478 14.6817 22.8786 14.4828C22.8813 14.4718 22.8879 14.4623 22.8973 14.456C22.9066 14.4498 22.9179 14.4473 22.929 14.449L23.4496 14.5418C23.4552 14.5425 23.4605 14.5443 23.4653 14.5471C23.4702 14.5499 23.4744 14.5536 23.4778 14.5581C23.4812 14.5625 23.4837 14.5676 23.4851 14.573C23.4865 14.5784 23.4868 14.5841 23.486 14.5896C23.4486 14.8043 23.4952 15.0253 23.6163 15.2061C23.7374 15.387 23.9234 15.5138 24.1354 15.5599C24.3392 15.5856 24.5449 15.5299 24.7083 15.4047C24.8716 15.2795 24.9795 15.0949 25.0087 14.8906L25.1934 14.9243C25.1715 15.0507 25.1248 15.1715 25.0561 15.2796C24.9874 15.3877 24.898 15.4811 24.7932 15.5543C24.6333 15.6699 24.4416 15.7328 24.2446 15.7343Z" fill="#263238"/>
    <path d="M17.6919 14.511C17.6919 14.511 15.4722 9.58353 20.0627 9.18697C20.6757 9.13353 21.9241 9.04072 22.5231 9.18697C23.2956 9.37259 25.2018 10.5538 24.4572 11.7182C24.4572 11.7182 23.7799 10.7535 21.5154 10.9729C19.251 11.1923 19.5365 14.9751 17.6919 14.511Z" fill="#263238"/>
    <path d="M16.9697 14.407C17.0069 14.6434 17.09 14.8702 17.2144 15.0743C17.3388 15.2784 17.502 15.4559 17.6947 15.5967C18.2125 15.9679 18.6939 15.5545 18.7275 14.9498C18.7583 14.407 18.5316 13.5436 17.9242 13.4226C17.791 13.3965 17.6534 13.4041 17.5238 13.4448C17.3943 13.4854 17.2768 13.5579 17.1821 13.6556C17.0874 13.7532 17.0184 13.8731 16.9813 14.0043C16.9442 14.1355 16.9402 14.2739 16.9697 14.407Z" fill="#7F3E3B"/>
    <path d="M18.1342 17.2167C17.9027 17.2528 17.6659 17.205 17.4662 17.082C17.2665 16.9589 17.1168 16.7685 17.0438 16.5448C16.9708 16.3212 16.9793 16.0787 17.0678 15.8607C17.1562 15.6427 17.3189 15.4634 17.5268 15.3548L17.6163 15.5207C17.4439 15.611 17.3099 15.761 17.2392 15.943C17.1685 16.125 17.1658 16.3265 17.2317 16.5103C17.2977 16.6941 17.4277 16.8476 17.5977 16.9424C17.7677 17.0372 17.9661 17.0668 18.1562 17.0258C18.3463 16.9848 18.5151 16.8759 18.6314 16.7193C18.7476 16.5628 18.8034 16.3691 18.7884 16.1744C18.7734 15.9796 18.6887 15.7969 18.5498 15.6602C18.411 15.5234 18.2275 15.4419 18.0334 15.4307V15.2423C18.2739 15.2608 18.4993 15.3671 18.6672 15.5411C18.8351 15.7151 18.9338 15.9448 18.9449 16.1869C18.9559 16.429 18.8784 16.6667 18.727 16.8554C18.5756 17.044 18.3608 17.1705 18.123 17.2111L18.1342 17.2167Z" fill="#407BFF"/>
    <path d="M29.0673 9.78296L29.7922 10.4889L30.7915 10.3455L30.9678 11.3467L31.8607 11.822L31.4157 12.7333L31.8607 13.6473L30.9678 14.1226L30.7915 15.1211L29.7922 14.9804L29.0673 15.6864L28.3395 14.9804L27.3402 15.1211L27.1639 14.1226L26.271 13.6473L26.7161 12.7333L26.271 11.822L27.1639 11.3467L27.3402 10.3455L28.3395 10.4889L29.0673 9.78296Z" fill="#407BFF"/>
    <g opacity="0.9">
      <path d="M28.5244 13.8895L27.4831 12.742C27.4468 12.6975 27.4294 12.6404 27.4346 12.583C27.4399 12.5256 27.4673 12.4727 27.5111 12.4355C27.5309 12.4154 27.5544 12.3995 27.5804 12.3886C27.6063 12.3777 27.6342 12.3721 27.6623 12.3721C27.6904 12.3721 27.7182 12.3777 27.7442 12.3886C27.7701 12.3995 27.7936 12.4154 27.8134 12.4355L28.5776 13.2792L30.3438 11.648C30.3638 11.6278 30.3876 11.6118 30.4138 11.6009C30.4399 11.59 30.468 11.5844 30.4963 11.5844C30.5247 11.5844 30.5527 11.59 30.5789 11.6009C30.6051 11.6118 30.6289 11.6278 30.6489 11.648C30.685 11.6921 30.7024 11.7488 30.6971 11.8057C30.6919 11.8626 30.6645 11.9151 30.6209 11.9517L28.5244 13.8895Z" fill="white"/>
    </g>
    <path d="M19.8829 54.0921C23.535 50.4225 23.535 44.473 19.8829 40.8034C16.2309 37.1338 10.3097 37.1338 6.65768 40.8034C3.00562 44.473 3.00562 50.4225 6.65768 54.0921C10.3097 57.7617 16.2309 57.7617 19.8829 54.0921Z" fill="#407BFF"/>
    <path opacity="0.5" d="M19.8829 54.0921C23.535 50.4225 23.535 44.473 19.8829 40.8034C16.2309 37.1338 10.3097 37.1338 6.65768 40.8034C3.00562 44.473 3.00562 50.4225 6.65768 54.0921C10.3097 57.7617 16.2309 57.7617 19.8829 54.0921Z" fill="white"/>
    <path d="M16.7906 51.3826C18.1258 49.9567 17.8319 48.1004 17.3 45.7886C17.0201 44.5961 18.5484 43.7383 17.482 41.9861C16.4855 40.2986 10.6271 38.6702 10.4843 41.7048C8.4242 42.3011 8.37101 44.1601 8.57255 47.1245C8.64812 48.2495 8.32623 48.812 7.90357 49.2057C7.65351 49.434 7.47143 49.7275 7.37759 50.0537C7.28376 50.3798 7.28185 50.7257 7.3721 51.0528C7.46234 51.3799 7.64119 51.6755 7.88872 51.9065C8.13625 52.1375 8.44275 52.295 8.77408 52.3613C11.324 52.8423 15.1168 53.1742 16.7906 51.3826Z" fill="#263238"/>
    <path d="M14.6885 52.1785L10.795 51.602C8.5082 51.3601 7.15625 52.3361 6.35852 53.776C7.80506 55.3728 9.75516 56.4197 11.8802 56.7405C14.0053 57.0612 16.1755 56.636 18.025 55.5367C17.5688 52.1251 14.6885 52.1785 14.6885 52.1785Z" fill="#407BFF"/>
    <path d="M11.8307 47.2539C11.8895 48.5476 11.7971 50.8904 10.795 51.602C10.795 51.602 12.0574 54.1164 13.9188 54.9545C15.0636 54.1754 14.6885 52.1786 14.6885 52.1786C13.3422 51.6386 13.5325 50.6008 13.9188 49.6473L11.8307 47.2539Z" fill="#FFB573"/>
    <path opacity="0.2" d="M12.6928 48.2355L13.93 49.6558C13.8344 49.8747 13.7576 50.1015 13.7005 50.3336C13.1798 50.1789 12.5333 49.4898 12.5585 48.9105C12.5606 48.679 12.6061 48.45 12.6928 48.2355Z" fill="black"/>
    <path d="M10.879 44.8801C11.047 47.0035 11.0722 47.9063 12.1582 48.9751C13.7929 50.5838 16.3568 49.9172 16.8186 47.7882C17.2385 45.8729 16.897 42.7257 14.8117 41.9129C14.3536 41.7358 13.8581 41.6787 13.372 41.7472C12.8859 41.8156 12.4251 42.0073 12.0331 42.3041C11.6411 42.6009 11.3307 42.9932 11.1313 43.4438C10.9318 43.8945 10.8498 44.3888 10.893 44.8801H10.879Z" fill="#FFB573"/>
    <path d="M12.3373 41.7076C15.0803 42.6132 9.96645 46.6013 10.0252 48.9356C8.9224 46.1963 9.33386 40.7176 12.3373 41.7076Z" fill="#263238"/>
    <path d="M15.4274 45.3809C15.5857 45.7729 15.7987 46.1403 16.06 46.4721C15.9731 46.5368 15.8733 46.5818 15.7675 46.6042C15.6617 46.6265 15.5524 46.6256 15.447 46.6015L15.4274 45.3809Z" fill="#ED893E"/>
    <path d="M14.6942 47.2622C14.7881 47.2618 14.8817 47.2533 14.9741 47.2369C14.9872 47.2341 14.9988 47.2265 15.0066 47.2156C15.0144 47.2047 15.0178 47.1912 15.0161 47.1778C15.0134 47.1646 15.0058 47.153 14.9949 47.1451C14.9841 47.1373 14.9706 47.1339 14.9573 47.1356C14.7475 47.1769 14.5309 47.1684 14.3249 47.1108C14.1188 47.0532 13.929 46.948 13.7705 46.8037C13.7611 46.7946 13.7486 46.7896 13.7355 46.7896C13.7225 46.7896 13.7099 46.7946 13.7006 46.8037C13.6913 46.8137 13.6862 46.8267 13.6862 46.8403C13.6862 46.8539 13.6913 46.867 13.7006 46.8769C13.9704 47.1286 14.3261 47.2665 14.6942 47.2622Z" fill="#263238"/>
    <path d="M11.2177 41.7049C10.378 43.2658 12.8188 42.3799 14.7893 43.0239C16.6199 43.6202 17.5464 44.8127 17.3448 43.083C17.0985 40.9483 12.5501 39.2467 11.2177 41.7049Z" fill="#263238"/>
    <path d="M13.5046 44.5203C13.5185 44.5184 13.5318 44.5137 13.5439 44.5064C13.5559 44.4992 13.5663 44.4895 13.5745 44.4781C13.642 44.37 13.7339 44.2794 13.8429 44.2139C13.9519 44.1484 14.0748 44.1098 14.2015 44.1012C14.2257 44.0972 14.2477 44.0847 14.2636 44.0659C14.2794 44.0471 14.2881 44.0232 14.2881 43.9986C14.2881 43.9739 14.2794 43.9501 14.2636 43.9313C14.2477 43.9125 14.2257 43.9 14.2015 43.8959C14.042 43.9035 13.8865 43.9491 13.7478 44.0288C13.6091 44.1084 13.4912 44.22 13.4038 44.3544C13.3896 44.3769 13.3846 44.4041 13.3898 44.4303C13.395 44.4565 13.4101 44.4796 13.4318 44.495C13.4413 44.5044 13.4527 44.5115 13.4653 44.5159C13.4779 44.5203 13.4913 44.5218 13.5046 44.5203Z" fill="#263238"/>
    <path d="M14.3723 45.0713C14.3647 45.0701 14.3569 45.0707 14.3496 45.0731C14.3423 45.0756 14.3357 45.0798 14.3304 45.0854C14.2746 45.138 14.2072 45.1764 14.1336 45.1975C14.0601 45.2185 13.9826 45.2215 13.9077 45.2063C13.8925 45.2028 13.8765 45.2052 13.863 45.213C13.8495 45.2208 13.8395 45.2335 13.8349 45.2485C13.8311 45.2638 13.833 45.2799 13.8402 45.2939C13.8474 45.3079 13.8595 45.3187 13.8741 45.3244C13.9679 45.3449 14.0653 45.3423 14.1578 45.3168C14.2504 45.2913 14.3355 45.2438 14.4059 45.1782C14.4115 45.1727 14.4159 45.1661 14.419 45.1589C14.422 45.1516 14.4236 45.1438 14.4236 45.136C14.4236 45.1281 14.422 45.1204 14.419 45.1131C14.4159 45.1059 14.4115 45.0993 14.4059 45.0938C14.4022 45.0879 14.3973 45.0829 14.3915 45.079C14.3857 45.0752 14.3792 45.0725 14.3723 45.0713Z" fill="#263238"/>
    <path d="M16.2953 44.984C16.2792 44.9832 16.2633 44.9882 16.2506 44.9981C16.1966 45.0519 16.1305 45.0918 16.0579 45.1144C15.9852 45.1369 15.9082 45.1414 15.8335 45.1275C15.8179 45.1241 15.8016 45.1268 15.7881 45.1352C15.7745 45.1436 15.7647 45.157 15.7607 45.1725C15.7586 45.1801 15.758 45.188 15.759 45.1958C15.76 45.2036 15.7625 45.2111 15.7664 45.2179C15.7703 45.2247 15.7755 45.2307 15.7818 45.2354C15.788 45.2402 15.7951 45.2436 15.8027 45.2456C15.897 45.2644 15.9944 45.2598 16.0865 45.2324C16.1787 45.205 16.2628 45.1554 16.3317 45.0881C16.3373 45.0826 16.3418 45.076 16.3448 45.0688C16.3478 45.0616 16.3494 45.0538 16.3494 45.0459C16.3494 45.0381 16.3478 45.0303 16.3448 45.023C16.3418 45.0158 16.3373 45.0092 16.3317 45.0037C16.3224 44.993 16.3094 44.986 16.2953 44.984Z" fill="#263238"/>
    <path d="M16.466 44.1914C16.4794 44.1913 16.4925 44.1879 16.5042 44.1815C16.5159 44.1752 16.5259 44.166 16.5332 44.1548C16.5421 44.1449 16.5488 44.1333 16.5529 44.1206C16.557 44.108 16.5584 44.0946 16.5571 44.0814C16.5558 44.0682 16.5518 44.0554 16.5452 44.0438C16.5387 44.0322 16.5298 44.0221 16.5192 44.0142C16.3974 43.909 16.2522 43.8347 16.0959 43.7975C15.9395 43.7603 15.7766 43.7613 15.6207 43.8004C15.5953 43.8094 15.5742 43.8278 15.5617 43.8518C15.5493 43.8758 15.5463 43.9037 15.5536 43.9298C15.5619 43.9551 15.5798 43.976 15.6033 43.9881C15.6269 44.0002 15.6543 44.0025 15.6795 43.9945C15.8039 43.9644 15.9337 43.9647 16.0579 43.9956C16.1821 44.0264 16.2972 44.0868 16.3933 44.1717C16.4031 44.1803 16.4148 44.1865 16.4274 44.1899C16.44 44.1933 16.4532 44.1938 16.466 44.1914Z" fill="#263238"/>
    <path d="M13.2694 58.1184C11.1683 58.1189 9.11413 57.4934 7.36685 56.3208C5.61957 55.1482 4.25763 53.4812 3.45329 51.5308C2.64896 49.5804 2.43836 47.4341 2.84814 45.3634C3.25792 43.2927 4.26967 41.3906 5.75541 39.8978C7.24116 38.4049 9.13416 37.3883 11.195 36.9766C13.2558 36.5648 15.3918 36.7764 17.333 37.5846C19.2741 38.3928 20.933 39.7613 22.1 41.5169C23.267 43.2726 23.8896 45.3366 23.8891 47.4478C23.8846 50.2764 22.7644 52.988 20.7737 54.9881C18.7831 56.9883 16.0846 58.1139 13.2694 58.1184ZM13.2694 37.1175C11.2359 37.117 9.24793 37.7224 7.55686 38.8571C5.8658 39.9919 4.54762 41.6051 3.76905 43.4926C2.99048 45.3802 2.78648 47.4574 3.18286 49.4614C3.57924 51.4655 4.55818 53.3064 5.99589 54.7514C7.4336 56.1964 9.26549 57.1805 11.2599 57.5794C13.2543 57.9782 15.3216 57.7738 17.2003 56.992C19.0791 56.2102 20.6849 54.8862 21.8147 53.1873C22.9446 51.4884 23.5476 49.4911 23.5476 47.4478C23.5469 44.708 22.4641 42.0804 20.537 40.142C18.61 38.2036 15.9962 37.1128 13.2694 37.1091V37.1175Z" fill="#407BFF"/>
    <g opacity="0.5">
      <path d="M13.2694 58.1184C11.1683 58.1189 9.11413 57.4934 7.36685 56.3208C5.61957 55.1482 4.25763 53.4812 3.45329 51.5308C2.64896 49.5804 2.43836 47.4341 2.84814 45.3634C3.25792 43.2927 4.26967 41.3906 5.75541 39.8978C7.24116 38.4049 9.13416 37.3883 11.195 36.9766C13.2558 36.5648 15.3918 36.7764 17.333 37.5846C19.2741 38.3928 20.933 39.7613 22.1 41.5169C23.267 43.2726 23.8896 45.3366 23.8891 47.4478C23.8846 50.2764 22.7644 52.988 20.7737 54.9881C18.7831 56.9883 16.0846 58.1139 13.2694 58.1184ZM13.2694 37.1175C11.2359 37.117 9.24793 37.7224 7.55686 38.8571C5.8658 39.9919 4.54762 41.6051 3.76905 43.4926C2.99048 45.3802 2.78648 47.4574 3.18286 49.4614C3.57924 51.4655 4.55818 53.3064 5.99589 54.7514C7.4336 56.1964 9.26549 57.1805 11.2599 57.5794C13.2543 57.9782 15.3216 57.7738 17.2003 56.992C19.0791 56.2102 20.6849 54.8862 21.8147 53.1873C22.9446 51.4884 23.5476 49.4911 23.5476 47.4478C23.5469 44.708 22.4641 42.0804 20.537 40.142C18.61 38.2036 15.9962 37.1128 13.2694 37.1091V37.1175Z" fill="white"/>
    </g>
    <path d="M36.342 57.2777L33.8928 93.2044L35.8969 93.7135C35.8969 93.7135 39.7513 81.257 39.9052 74.2511C40.0592 67.2452 39.8884 65.7658 42.0941 61.8086L36.342 57.2777Z" fill="#FFB573"/>
    <path d="M43.3424 57.7644L46.1023 93.7136L48.1988 93.6995C48.1988 93.6995 50.438 80.8324 49.5731 73.8856C48.7082 66.9387 47.5354 65.5662 49.1757 61.2941L43.3424 57.7644Z" fill="#FFB573"/>
    <path opacity="0.2" d="M43.3424 57.7644L44.3781 71.2643C45.7776 71.0843 47.3451 70.8284 49.0665 70.4853C48.5879 67.6559 48.196 66.0275 48.4115 64.1881C48.3953 63.1415 48.5369 62.0984 48.8314 61.0944L43.3424 57.7644Z" fill="black"/>
    <path opacity="0.2" d="M39.9639 71.4217C40.0647 66.7502 40.2243 65.1723 42.094 61.8171L36.342 57.2861L35.3959 71.1404C36.9083 71.3601 38.4362 71.4542 39.9639 71.4217Z" fill="black"/>
    <path d="M37.0081 45.9067C37.0081 45.9067 35.533 58.2817 35.1216 69.9676C35.1216 69.9676 39.141 71.1207 49.7215 69.4726C49.4462 67.9459 49.37 66.3897 49.4948 64.8432C49.8027 60.6104 51.0455 56.0148 49.7215 51.5908C48.2548 46.7027 46.6873 45.3302 46.6873 45.3302L37.5008 44.9167L37.0081 45.9067Z" fill="#263238"/>
    <path d="M40.2329 29.2764L47.8995 29.4789C48.0315 29.4809 48.1612 29.5141 48.278 29.576C48.3948 29.6378 48.4955 29.7264 48.5718 29.8346C48.6482 29.9428 48.6981 30.0676 48.7174 30.1988C48.7368 30.33 48.7251 30.464 48.6832 30.5898C47.8883 33.0479 46.2285 39.3676 47.5048 46.2357H36.7648L36.6025 36.1107C36.6025 36.1107 35.7628 33.9676 39.2336 29.7489C39.3539 29.5995 39.5063 29.4794 39.6793 29.3976C39.8524 29.3158 40.0416 29.2743 40.2329 29.2764Z" fill="#407BFF"/>
    <path opacity="0.9" d="M40.2329 29.2764L47.8995 29.4789C48.0315 29.4809 48.1612 29.5141 48.278 29.576C48.3948 29.6378 48.4955 29.7264 48.5718 29.8346C48.6482 29.9428 48.6981 30.0676 48.7174 30.1988C48.7368 30.33 48.7251 30.464 48.6832 30.5898C47.8883 33.0479 46.2285 39.3676 47.5048 46.2357H36.7648L36.6025 36.1107C36.6025 36.1107 35.7628 33.9676 39.2336 29.7489C39.3539 29.5995 39.5063 29.4794 39.6793 29.3976C39.8524 29.3158 40.0416 29.2743 40.2329 29.2764Z" fill="white"/>
    <path d="M30.3688 36.7973L28.2359 35.9845L27.5277 34.3588C27.5059 34.3088 27.4766 34.2623 27.441 34.221L25.6552 32.0639C25.6079 32.0083 25.5422 31.9717 25.4702 31.9608C25.3982 31.95 25.3248 31.9656 25.2633 32.0048C25.2288 32.0273 25.1994 32.0567 25.1768 32.0912C25.1542 32.1257 25.139 32.1646 25.1322 32.2053C25.1254 32.246 25.127 32.2877 25.137 32.3278C25.1471 32.3678 25.1653 32.4053 25.1905 32.4379L26.1422 33.6642L25.7839 35.3517C25.7551 35.4899 25.7586 35.6329 25.7941 35.7695C25.8295 35.9061 25.896 36.0327 25.9883 36.1392L26.1506 36.3248C26.2255 36.4111 26.3156 36.4826 26.4165 36.5357L27.6173 37.1573L29.669 38.1866L30.3688 36.7973Z" fill="#FFB573"/>
    <path d="M39.382 29.2766C39.382 29.2766 36.303 30.2722 34.9707 37.0728C34.9505 37.1738 34.9095 37.2696 34.8503 37.3538C34.7912 37.438 34.7151 37.5089 34.6271 37.5619C34.5391 37.6148 34.441 37.6487 34.3392 37.6614C34.2373 37.674 34.134 37.6651 34.0358 37.6353L29.3417 36.1559L28.726 37.8828C28.726 37.8828 33.42 41.2324 35.6145 40.7431C37.8089 40.2537 39.382 29.2766 39.382 29.2766Z" fill="#407BFF"/>
    <path opacity="0.1" d="M35.547 34.7665C35.3958 35.5831 35.3497 36.4159 35.4099 37.2443C35.5117 38.4171 35.5313 39.5956 35.4687 40.7712C35.5176 40.7666 35.5662 40.7591 35.6142 40.7487C37.8087 40.2593 39.3818 29.2766 39.3818 29.2766C39.3818 29.2766 37.0249 30.0387 35.547 34.7665Z" fill="black"/>
    <path d="M47.7566 22.7798C47.5607 22.0935 47.7566 21.3904 47.2528 20.7548C46.9934 20.4056 46.8486 19.9839 46.8385 19.5482C46.7098 17.2982 43.9583 16.5895 41.943 16.5782C39.7177 16.5782 40.5966 17.4867 38.7184 17.9311C36.8403 18.3754 37.8619 20.7042 38.3714 21.3679C38.8808 22.0317 38.4134 23.1792 37.3721 24.951C37.3721 24.951 36.2525 27.0351 42.0829 26.1013C42.0829 26.1013 49.2373 27.9182 47.7566 22.7798Z" fill="#263238"/>
    <path d="M45.064 24.6498C44.6834 25.9801 44.2103 28.441 45.064 29.431C43.9323 30.1727 42.709 30.7627 41.4252 31.186C40.0257 29.8135 40.8486 29.2791 40.8486 29.2791C42.3825 29.0373 42.4721 27.7154 42.3125 26.641L45.064 24.6498Z" fill="#FFB573"/>
    <path opacity="0.2" d="M44.0926 26.0929C44.1262 25.8475 44.1262 25.5986 44.0926 25.3532L42.318 26.6385C42.351 26.8545 42.3697 27.0725 42.374 27.291C43.0178 27.2235 43.9722 26.7426 44.0926 26.0929Z" fill="black"/>
    <path d="M45.7806 22.2622C45.1732 24.456 44.9633 25.3981 43.6057 26.2981C41.5624 27.6538 39.0153 26.4275 38.9565 24.096C38.9033 21.9979 39.9026 18.7522 42.2538 18.3416C42.7728 18.2424 43.3084 18.279 43.8092 18.448C44.31 18.617 44.7592 18.9125 45.1134 19.3063C45.4676 19.7001 45.7151 20.1789 45.8319 20.6966C45.9488 21.2142 45.9311 21.7534 45.7806 22.2622Z" fill="#FFB573"/>
    <path d="M45.9316 24.1323C45.7208 24.518 45.3665 24.8041 44.9463 24.9282C44.3865 25.0857 44.1066 24.5879 44.2578 24.0563C44.3949 23.5782 44.8512 22.9313 45.4138 22.9932C45.6095 23.025 45.7848 23.1334 45.9012 23.2947C46.0177 23.4559 46.0658 23.657 46.0352 23.8538C46.018 23.9522 45.9829 24.0466 45.9316 24.1323Z" fill="#FFB573"/>
    <path d="M44.8148 17.8244C45.1983 18.505 44.199 19.7453 42.1473 19.5906C40.5994 19.4781 38.6317 21.1178 38.8164 19.3094C38.9732 17.6725 42.8779 16.9469 44.8148 17.8244Z" fill="#263238"/>
    <path d="M43.684 18.3023C42.5979 19.1094 43.2893 20.6254 43.7931 21.3116C44.297 21.9979 45.0863 22.6419 44.4537 23.6347C43.8211 24.6275 43.5692 25.8679 45.5426 25.4122C47.5159 24.9566 47.264 23.1763 46.7182 21.6463C46.1723 20.1163 44.9744 17.3432 43.684 18.3023Z" fill="#263238"/>
    <path d="M40.7365 22.1553C40.4892 22.5343 40.1905 22.877 39.8492 23.1734C39.9267 23.2595 40.022 23.3275 40.1283 23.3726C40.2347 23.4178 40.3496 23.4391 40.465 23.435L40.7365 22.1553Z" fill="#ED893E"/>
    <path d="M43.309 21.444C43.3237 21.4482 43.3392 21.4482 43.3538 21.444C43.3742 21.4317 43.389 21.412 43.3953 21.3889C43.4016 21.3659 43.3987 21.3413 43.3874 21.3203C43.3069 21.1715 43.1918 21.0445 43.0519 20.95C42.9121 20.8555 42.7516 20.7963 42.5841 20.7775C42.5602 20.7774 42.5372 20.7863 42.5196 20.8024C42.5019 20.8186 42.491 20.8408 42.4889 20.8647C42.4888 20.8879 42.4974 20.9103 42.5129 20.9275C42.5285 20.9447 42.5499 20.9554 42.5729 20.9575C42.7113 20.9756 42.8436 21.0263 42.9588 21.1055C43.0741 21.1847 43.1691 21.2901 43.2362 21.4131C43.2452 21.4235 43.2564 21.4317 43.2691 21.4371C43.2817 21.4424 43.2953 21.4448 43.309 21.444Z" fill="#263238"/>
    <path d="M39.4855 20.6587C39.5003 20.6612 39.5154 20.6612 39.5303 20.6587C39.6502 20.5896 39.7848 20.55 39.923 20.5431C40.0612 20.5363 40.199 20.5624 40.3252 20.6194C40.3355 20.6254 40.3468 20.6292 40.3586 20.6308C40.3704 20.6324 40.3823 20.6315 40.3938 20.6284C40.4053 20.6253 40.416 20.6199 40.4253 20.6125C40.4347 20.6052 40.4425 20.596 40.4483 20.5856C40.4588 20.5641 40.4608 20.5395 40.4541 20.5166C40.4473 20.4937 40.4323 20.4742 40.412 20.4619C40.2589 20.3908 40.0911 20.3576 39.9226 20.365C39.7542 20.3723 39.5899 20.42 39.4435 20.504C39.4328 20.5092 39.4232 20.5164 39.4153 20.5252C39.4073 20.5341 39.4012 20.5444 39.3973 20.5557C39.3934 20.5669 39.3918 20.5789 39.3925 20.5908C39.3932 20.6027 39.3963 20.6143 39.4015 20.625C39.4096 20.6403 39.4217 20.6531 39.4365 20.662C39.4513 20.6709 39.4682 20.6756 39.4855 20.6756V20.6587Z" fill="#263238"/>
    <path d="M42.083 22.13C42.0438 22.31 41.9178 22.4337 41.8031 22.4112C41.6883 22.3887 41.6211 22.22 41.6631 22.0372C41.7051 21.8543 41.8282 21.7306 41.943 21.7559C42.0578 21.7812 42.1082 21.9472 42.083 22.13Z" fill="#263238"/>
    <path d="M40.0339 21.694C39.9975 21.874 39.8715 22.0006 39.754 21.9753C39.6364 21.9499 39.572 21.784 39.6084 21.6012C39.6448 21.4184 39.7736 21.2974 39.8883 21.3199C40.0031 21.3424 40.0759 21.5112 40.0339 21.694Z" fill="#263238"/>
    <path d="M39.9415 21.3427L39.5356 21.1261C39.5356 21.1261 39.6868 21.5114 39.9415 21.3427Z" fill="#263238"/>
    <path d="M41.9767 21.7758L41.5708 21.5592C41.5708 21.5592 41.7219 21.9445 41.9767 21.7758Z" fill="#263238"/>
    <path d="M45.145 28.9532C45.0333 28.9445 44.9211 28.9624 44.8175 29.0054C44.714 29.0484 44.6219 29.1153 44.5488 29.2007C43.8547 30.0135 41.9569 32.6966 41.9569 37.745C41.9569 41.7725 42.1892 45.5778 42.3516 47.7406C42.3679 47.9659 42.4335 48.1848 42.5437 48.3818C42.6539 48.5787 42.806 48.7487 42.9891 48.8798C43.1722 49.0109 43.3819 49.0998 43.6031 49.1401C43.8243 49.1804 44.0517 49.1712 44.2689 49.1131L48.6803 47.9347C48.6803 47.9347 46.9392 43.5331 47.3423 38.8588C47.6222 35.6047 48.5459 32.2297 49.0805 30.4804C49.1256 30.3341 49.1372 30.1794 49.1144 30.028C49.0916 29.8766 49.0351 29.7323 48.9489 29.6059C48.8627 29.4796 48.7493 29.3745 48.6169 29.2984C48.4846 29.2224 48.3369 29.1775 48.1848 29.1669L45.145 28.9532Z" fill="#407BFF"/>
    <path d="M41.0696 28.9302C41.108 28.93 41.1455 28.9413 41.1775 28.9626C41.2095 28.9839 41.2344 29.0143 41.2491 29.0499C41.2638 29.0855 41.2677 29.1247 41.2601 29.1625C41.2526 29.2003 41.234 29.235 41.2067 29.2621C40.4174 30.0468 38.6876 32.3896 38.4077 38.0764C38.1669 42.9645 37.957 46.407 37.8479 48.2014C37.8376 48.3581 37.7898 48.51 37.7085 48.6441C37.6271 48.7783 37.5147 48.8906 37.3807 48.9716C37.2468 49.0525 37.0953 49.0997 36.9393 49.1091C36.7833 49.1185 36.6273 49.0898 36.4847 49.0255L36.1152 48.8595C36.1152 48.8595 36.675 46.2045 36.5183 40.3967C36.3616 34.589 35.4826 34.3105 37.8367 31.1155C38.0662 30.8062 38.57 30.1677 38.9731 29.6615C39.156 29.434 39.3871 29.2504 39.6495 29.1239C39.912 28.9974 40.1991 28.9313 40.4902 28.9302H41.0696Z" fill="#407BFF"/>
    <path d="M45.2151 29.409L40.3111 29.2796C39.9753 30.6043 39.449 33.2705 40.1656 34.8652C40.1656 34.8596 42.8471 31.8699 45.2151 29.409Z" fill="#FFB573"/>
    <path d="M43.2417 44.917L46.6454 44.3826L46.7853 44.6639C46.8242 44.7484 46.8429 44.8408 46.84 44.9338C46.8371 45.0268 46.8127 45.1179 46.7687 45.1997C46.7247 45.2816 46.6623 45.3521 46.5865 45.4055C46.5106 45.459 46.4235 45.4939 46.3319 45.5076L44.0926 45.8226C43.9587 45.8419 43.8223 45.8145 43.7061 45.7449C43.59 45.6752 43.5011 45.5677 43.4544 45.4401L43.2417 44.917Z" fill="#407BFF"/>
    <path opacity="0.2" d="M43.2417 44.917L46.6454 44.3826L46.7853 44.6639C46.8242 44.7484 46.8429 44.8408 46.84 44.9338C46.8371 45.0268 46.8127 45.1179 46.7687 45.1997C46.7247 45.2816 46.6623 45.3521 46.5865 45.4055C46.5106 45.459 46.4235 45.4939 46.3319 45.5076L44.0926 45.8226C43.9587 45.8419 43.8223 45.8145 43.7061 45.7449C43.59 45.6752 43.5011 45.5677 43.4544 45.4401L43.2417 44.917Z" fill="black"/>
    <path d="M36.2722 44.9167H37.1315L37.0615 45.4933C37.0489 45.5966 37.0157 45.6963 36.9638 45.7865C36.9119 45.8766 36.8425 45.9552 36.7596 46.0177C36.6768 46.0802 36.5822 46.1253 36.4816 46.1502C36.381 46.1751 36.2765 46.1794 36.1742 46.1627L35.8607 46.1121L36.2722 44.9167Z" fill="#407BFF"/>
    <path opacity="0.2" d="M36.2722 44.9167H37.1315L37.0615 45.4933C37.0489 45.5966 37.0157 45.6963 36.9638 45.7865C36.9119 45.8766 36.8425 45.9552 36.7596 46.0177C36.6768 46.0802 36.5822 46.1253 36.4816 46.1502C36.381 46.1751 36.2765 46.1794 36.1742 46.1627L35.8607 46.1121L36.2722 44.9167Z" fill="black"/>
    <path d="M49.6796 43.6004L48.8735 45.4145L47.1941 46.6098C47.0876 46.6854 47.0069 46.792 46.9628 46.9153C46.9188 47.0386 46.9135 47.1724 46.9477 47.2988C46.9712 47.3878 47.0133 47.4707 47.0713 47.542C47.1292 47.6133 47.2016 47.6713 47.2836 47.7123L48.1877 48.1566C48.3268 48.2258 48.4862 48.2418 48.6362 48.2014C48.7861 48.161 48.9163 48.0671 49.0022 47.9373L49.6292 46.9923C49.7304 46.838 49.7999 46.6649 49.8336 46.4832L49.9147 46.0163L51.0344 44.177L49.6796 43.6004Z" fill="#FFB573"/>
    <path opacity="0.1" d="M48.0814 31.3213L47.2864 31.6925C47.2864 31.6925 46.4103 34.0072 47.5663 37.0869C47.8415 35.3107 48.2219 33.5526 48.7055 31.8219L48.0814 31.3213Z" fill="black"/>
    <path d="M43.2641 32.072C44.6636 31.622 45.5425 32.1873 45.5425 32.1873C46.1023 30.4998 45.7244 29.7207 45.6293 28.9895L45.145 28.9557C45.0333 28.9471 44.9211 28.965 44.8175 29.008C44.714 29.051 44.6219 29.1179 44.5488 29.2032C43.8547 30.0161 41.9569 32.6992 41.9569 37.7476C41.9569 39.0273 41.9793 40.2788 42.0185 41.4741C42.7099 35.9729 44.4789 33.917 44.4789 33.917C44.4344 33.5353 44.3013 33.1695 44.0903 32.849C43.8793 32.5286 43.5963 32.2624 43.2641 32.072Z" fill="#407BFF"/>
    <path d="M41.0696 28.9302H40.6217C39.8212 29.3971 38.7295 30.2127 38.4021 31.3209C38.5647 31.2402 38.7496 31.2166 38.9271 31.2538C39.1047 31.291 39.2647 31.3869 39.3817 31.5262C38.7668 31.8421 38.2563 32.3306 37.9122 32.9324C37.8829 35.1894 38.0195 37.4456 38.3209 39.6824C38.3489 39.1649 38.3769 38.6333 38.4021 38.0764C38.682 32.3896 40.4174 30.0468 41.2011 29.2621C41.228 29.2353 41.2465 29.2011 41.2543 29.1638C41.262 29.1266 41.2586 29.0878 41.2446 29.0524C41.2306 29.0171 41.2065 28.9866 41.1754 28.9649C41.1443 28.9431 41.1075 28.9311 41.0696 28.9302Z" fill="#407BFF"/>
    <path opacity="0.2" d="M43.2641 32.072C44.6636 31.622 45.5425 32.1873 45.5425 32.1873C46.1023 30.4998 45.7244 29.7207 45.6293 28.9895L45.145 28.9557C45.0333 28.9471 44.9211 28.965 44.8175 29.008C44.714 29.051 44.6219 29.1179 44.5488 29.2032C43.8547 30.0161 41.9569 32.6992 41.9569 37.7476C41.9569 39.0273 41.9793 40.2788 42.0185 41.4741C42.7099 35.9729 44.4789 33.917 44.4789 33.917C44.4344 33.5353 44.3013 33.1695 44.0903 32.849C43.8793 32.5286 43.5963 32.2624 43.2641 32.072Z" fill="black"/>
    <path opacity="0.2" d="M41.0696 28.9302H40.6217C39.8212 29.3971 38.7295 30.2127 38.4021 31.3209C38.5647 31.2402 38.7496 31.2166 38.9271 31.2538C39.1047 31.291 39.2647 31.3869 39.3817 31.5262C38.7668 31.8421 38.2563 32.3306 37.9122 32.9324C37.8829 35.1894 38.0195 37.4456 38.3209 39.6824C38.3489 39.1649 38.3769 38.6333 38.4021 38.0764C38.682 32.3896 40.4174 30.0468 41.2011 29.2621C41.228 29.2353 41.2465 29.2011 41.2543 29.1638C41.262 29.1266 41.2586 29.0878 41.2446 29.0524C41.2306 29.0171 41.2065 28.9866 41.1754 28.9649C41.1443 28.9431 41.1075 28.9311 41.0696 28.9302Z" fill="black"/>
    <path d="M48.7251 29.3749C48.7251 29.3749 49.7608 29.4255 51.6054 33.5036C53.4499 37.5817 54.1889 40.4083 50.6621 45.1136L49.1254 44.3823C49.1254 44.3823 50.7041 40.6333 50.6229 38.7376C50.5417 36.842 48.7895 34.9549 47.9106 33.7511C47.3032 32.9186 46.581 31.5067 48.7251 29.3749Z" fill="#407BFF"/>
    <path opacity="0.4" d="M42.0242 55.1315C42.6344 64.3846 42.055 68.5865 41.6295 70.319C42.2929 70.2908 43.0123 70.2458 43.7932 70.184C43.5889 64.8206 42.5252 57.7078 42.1138 55.1315H42.0242Z" fill="black"/>
    <path d="M40.9996 24.4534C40.9058 24.4532 40.8121 24.4447 40.7197 24.4281C40.7134 24.427 40.7074 24.4248 40.702 24.4214C40.6966 24.418 40.6919 24.4135 40.6883 24.4083C40.6846 24.403 40.6821 24.3971 40.6807 24.3908C40.6794 24.3846 40.6793 24.3781 40.6805 24.3718C40.6838 24.3597 40.6912 24.3491 40.7014 24.3419C40.7116 24.3347 40.7241 24.3313 40.7365 24.3324C40.9421 24.3728 41.1541 24.3643 41.3558 24.3076C41.5575 24.251 41.7432 24.1478 41.8981 24.0062C41.9025 24.0012 41.9079 23.9971 41.9139 23.9942C41.9198 23.9913 41.9263 23.9896 41.933 23.9892C41.9396 23.9888 41.9462 23.9898 41.9525 23.9919C41.9588 23.9941 41.9646 23.9975 41.9695 24.002C41.9745 24.0064 41.9785 24.0118 41.9814 24.0178C41.9843 24.0238 41.986 24.0303 41.9864 24.037C41.9868 24.0436 41.9859 24.0503 41.9837 24.0566C41.9815 24.0629 41.9781 24.0687 41.9737 24.0737C41.71 24.3218 41.3609 24.4579 40.9996 24.4534Z" fill="#263238"/>
    <path d="M27.0581 47.6666L27.9546 48.5414L29.1904 48.3637L29.4085 49.6044L30.5127 50.1934L29.9623 51.3226L30.5127 52.4552L29.4085 53.0442L29.1904 54.2815L27.9546 54.1072L27.0581 54.982L26.1581 54.1072L24.9223 54.2815L24.7042 53.0442L23.6 52.4552L24.1504 51.3226L23.6 50.1934L24.7042 49.6044L24.9223 48.3637L26.1581 48.5414L27.0581 47.6666Z" fill="#407BFF"/>
    <g opacity="0.9">
      <path d="M26.3867 52.7555L25.099 51.3336C25.054 51.2783 25.0325 51.2076 25.039 51.1365C25.0454 51.0654 25.0794 50.9997 25.1336 50.9537C25.158 50.9288 25.1871 50.9091 25.2192 50.8956C25.2513 50.8821 25.2857 50.8752 25.3205 50.8752C25.3553 50.8752 25.3897 50.8821 25.4218 50.8956C25.4538 50.9091 25.483 50.9288 25.5074 50.9537L26.4524 51.9992L28.6367 49.9778C28.6614 49.9529 28.6908 49.933 28.7232 49.9195C28.7556 49.906 28.7903 49.899 28.8253 49.899C28.8604 49.899 28.8951 49.906 28.9275 49.9195C28.9598 49.933 28.9892 49.9529 29.014 49.9778C29.0587 50.0325 29.0802 50.1027 29.0737 50.1732C29.0672 50.2437 29.0333 50.3088 28.9794 50.3542L26.3867 52.7555Z" fill="white"/>
    </g>
  </g>
  <defs>
    <clipPath id="clip0_2499_10729">
      <rect width="80" height="80" fill="white"/>
    </clipPath>
  </defs>
</svg>