<svg width="349" height="214" viewBox="0 0 349 214" fill="none" xmlns="http://www.w3.org/2000/svg">
<path d="M169.483 62.9763C169.063 62.977 168.645 62.9067 168.248 62.7682L161.872 60.562C161.245 60.3432 160.686 59.9644 160.252 59.4632C159.817 58.962 159.522 58.3559 159.395 57.7053L158.118 51.0814C157.992 50.4301 158.041 49.7573 158.259 49.1307C158.477 48.5041 158.856 47.9458 159.359 47.5119L164.463 43.0994C164.966 42.6654 165.575 42.3708 166.228 42.2448C166.881 42.1188 167.556 42.1659 168.185 42.3813L174.567 44.5928C175.195 44.8098 175.755 45.188 176.191 45.6895C176.626 46.1909 176.922 46.7978 177.048 47.4494L178.32 54.0681C178.445 54.7198 178.396 55.3925 178.179 56.0196C177.963 56.6467 177.585 57.2063 177.085 57.6429L171.976 62.0553C171.283 62.652 170.398 62.9791 169.483 62.9763ZM163.436 56.701L169.4 58.7824L174.176 54.6613L172.982 48.4745L167.017 46.3931L162.247 50.5194L163.436 56.701Z" fill="#F5F5F5"/>
<path d="M243.955 43.75C243.534 43.7507 243.116 43.6803 242.719 43.5418L239.487 42.4231C238.859 42.2053 238.3 41.8267 237.866 41.3254C237.431 40.824 237.136 40.2174 237.01 39.5664L236.364 36.2155C236.239 35.5646 236.287 34.8924 236.504 34.2661C236.721 33.6397 237.098 33.0811 237.599 32.6459L240.206 30.4085C240.709 29.9749 241.317 29.6809 241.969 29.5557C242.622 29.4306 243.296 29.4789 243.923 29.6956L247.151 30.8143C247.779 31.0314 248.339 31.4096 248.775 31.911C249.21 32.4125 249.506 33.0194 249.632 33.671L250.279 37.022C250.404 37.6733 250.355 38.3461 250.138 38.9727C249.92 39.5993 249.541 40.1576 249.038 40.5915L246.431 42.829C245.742 43.4201 244.864 43.7467 243.955 43.75V43.75ZM241.061 38.5466L243.876 39.5196L246.123 37.5735L245.56 34.6596L242.75 33.6866L240.498 35.6639L241.061 38.5466Z" fill="#F5F5F5"/>
<path d="M333.233 92.7821C332.82 92.7792 332.414 92.6842 332.043 92.5041C331.672 92.3241 331.347 92.0634 331.09 91.7414L329.27 89.4727C328.97 89.0975 328.773 88.6501 328.7 88.1754C328.627 87.7006 328.68 87.215 328.853 86.767L329.896 84.0612C330.07 83.6138 330.36 83.2201 330.735 82.9196C331.11 82.6191 331.558 82.4224 332.033 82.3493L334.911 81.907C335.388 81.835 335.875 81.8889 336.324 82.0632C336.773 82.2376 337.169 82.5264 337.471 82.9008L339.291 85.1695C339.591 85.5448 339.788 85.9921 339.861 86.4669C339.934 86.9416 339.881 87.4272 339.708 87.8753L338.665 90.581C338.491 91.0294 338.201 91.4238 337.824 91.7244C337.448 92.025 336.999 92.2212 336.522 92.293L333.644 92.7352C333.509 92.7614 333.371 92.7771 333.233 92.7821V92.7821ZM335.344 83.9727H335.245L332.367 84.415C332.252 84.4321 332.143 84.4791 332.052 84.5512C331.96 84.6233 331.889 84.7181 331.846 84.8261L330.803 87.5319C330.761 87.6394 330.748 87.7561 330.765 87.8704C330.782 87.9846 330.83 88.0922 330.902 88.1823L332.722 90.451C332.795 90.5399 332.89 90.6086 332.998 90.6505C333.106 90.6924 333.222 90.7061 333.337 90.6903L336.215 90.248C336.33 90.2319 336.44 90.1854 336.531 90.1131C336.623 90.0409 336.694 89.9455 336.736 89.837L337.779 87.1312C337.82 87.0235 337.833 86.9069 337.815 86.7929C337.798 86.6789 337.751 86.5714 337.68 86.4808V86.4808L335.86 84.2121C335.797 84.137 335.718 84.0766 335.629 84.0352C335.54 83.9939 335.442 83.9725 335.344 83.9727V83.9727Z" fill="#E0E0E0"/>
<path d="M8.43506 115.396C7.90618 115.395 7.38417 115.276 6.90705 115.048C6.42994 114.821 6.00973 114.489 5.67706 114.079L1.40189 108.751C1.01819 108.268 0.76813 107.692 0.676651 107.082C0.585173 106.472 0.655469 105.849 0.880533 105.275L3.37785 98.9113C3.60299 98.3366 3.97518 97.831 4.4573 97.4448C4.93942 97.0585 5.51459 96.8053 6.12543 96.7102L12.9031 95.6695C13.5149 95.5779 14.1402 95.6478 14.7165 95.8724C15.2928 96.097 15.8 96.4684 16.1877 96.9496L20.4264 102.267C20.8105 102.752 21.0608 103.328 21.1523 103.939C21.2438 104.549 21.1732 105.173 20.9477 105.749L18.4973 112.117C18.2725 112.694 17.8998 113.201 17.4167 113.588C16.9335 113.975 16.3569 114.229 15.7445 114.324L8.96684 115.364C8.79084 115.39 8.61289 115.401 8.43506 115.396V115.396ZM4.29545 106.55L8.46634 111.753L15.0876 110.744L17.5172 104.5L13.3463 99.2963L6.72499 100.311L4.29545 106.55Z" fill="#E0E0E0"/>
<path d="M25.7329 68.7577H21.7027C21.2226 68.7592 20.7504 68.6351 20.3333 68.3977C19.9161 68.1604 19.5686 67.818 19.3253 67.4048L17.3077 63.9238C17.0695 63.5059 16.9443 63.0334 16.9443 62.5527C16.9443 62.0719 17.0695 61.5995 17.3077 61.1816L19.3253 57.7005C19.5662 57.2841 19.9128 56.9383 20.3302 56.6981C20.7475 56.4579 21.2209 56.3316 21.7027 56.332H25.7329C26.2147 56.3316 26.6881 56.4579 27.1054 56.6981C27.5228 56.9383 27.8694 57.2841 28.1103 57.7005L30.1279 61.1608C30.3661 61.5787 30.4913 62.0511 30.4913 62.5319C30.4913 63.0126 30.3661 63.4851 30.1279 63.903L28.1103 67.4048C27.8666 67.8177 27.519 68.1597 27.102 68.397C26.6849 68.6344 26.2129 68.7587 25.7329 68.7577V68.7577ZM21.7027 58.3926C21.5869 58.3928 21.473 58.4232 21.3725 58.4807C21.2719 58.5381 21.1881 58.6208 21.1292 58.7204L19.1168 62.2015C19.0582 62.3017 19.0273 62.4158 19.0273 62.5319C19.0273 62.648 19.0582 62.762 19.1168 62.8623L21.1292 66.3642C21.1878 66.4644 21.2715 66.5478 21.372 66.6062C21.4725 66.6645 21.5865 66.6959 21.7027 66.6972H25.7329C25.8509 66.6977 25.967 66.6672 26.0695 66.6087C26.172 66.5503 26.2573 66.4659 26.3168 66.3642L28.3292 62.8831C28.3879 62.7828 28.4188 62.6688 28.4188 62.5527C28.4188 62.4366 28.3879 62.3225 28.3292 62.2223L26.3168 58.7204C26.2579 58.6208 26.1741 58.5381 26.0736 58.4807C25.973 58.4232 25.8592 58.3928 25.7433 58.3926H21.7027Z" fill="#EBEBEB"/>
<path d="M94.5017 29.3939L86.6396 24.4559L76.9892 8.20054L63.5641 0L60.9678 2.80463L62.3285 4.63622L66.5672 10.3079L83.3915 32.849L90.2526 36.6163L94.5017 29.3939Z" fill="#EBEBEB"/>
<path d="M84.6208 41.0807L82.3685 33.5982L57.6456 5.40625L54.3506 7.35232L59.5694 22.1768L73.9225 36.2467L77.1393 45.0301L84.6208 41.0807Z" fill="#EBEBEB"/>
<path d="M98.015 30.7881C98.015 30.7881 125.934 46.0808 131.559 51.2426C137.185 56.4044 150.328 77.8996 148.994 80.647C147.659 83.3943 146.637 83.769 143.608 81.1049C140.579 78.4407 130.788 63.7151 128.16 61.332C125.532 58.9488 92.8223 39.8264 92.8223 39.8264L98.015 30.7881Z" fill="#E0E0E0"/>
<path d="M79.0845 37.3393C83.9679 37.3393 87.9268 33.3883 87.9268 28.5144C87.9268 23.6405 83.9679 19.6895 79.0845 19.6895C74.201 19.6895 70.2422 23.6405 70.2422 28.5144C70.2422 33.3883 74.201 37.3393 79.0845 37.3393Z" fill="#EBEBEB"/>
<path d="M76.8892 37.0534C77.6013 37.1872 78.3232 37.262 79.0477 37.2772C79.8957 37.2801 80.7393 37.1556 81.5502 36.9077C83.502 36.3376 85.194 35.1071 86.3357 33.4274C87.4774 31.7477 87.9974 29.7237 87.8065 27.7029C87.7179 26.8595 87.4998 26.0346 87.16 25.2573C86.9989 24.8583 86.8107 24.4706 86.597 24.097C86.3683 23.7197 86.1121 23.3597 85.8306 23.0199C84.6671 21.5797 83.0715 20.5498 81.2783 20.0815C79.485 19.6132 77.5885 19.7312 75.8674 20.4182C75.4595 20.5819 75.0624 20.7714 74.6786 20.9854C74.315 21.2101 73.9667 21.4587 73.6359 21.7294C72.976 22.2481 72.4009 22.866 71.9311 23.561C71.0448 24.8427 70.5175 26.3372 70.4035 27.8903C70.3189 29.124 70.4958 30.3617 70.9225 31.5227C71.3492 32.6838 72.0161 33.742 72.88 34.6286C73.4667 35.2466 74.1434 35.7728 74.8872 36.1897C75.5289 36.527 76.1966 36.8123 76.884 37.043C76.8373 37.0489 76.79 37.0489 76.7432 37.043L76.3366 36.9285C76.1151 36.8724 75.8988 36.7976 75.6901 36.7048C75.3974 36.5942 75.1133 36.462 74.8403 36.3093C74.07 35.9124 73.3664 35.398 72.7548 34.7847C71.857 33.891 71.1602 32.8167 70.7107 31.6333C70.2613 30.4499 70.0694 29.1846 70.148 27.9215C70.2612 26.324 70.8013 24.7859 71.7121 23.4674C72.1958 22.7505 72.7866 22.1118 73.4639 21.5733C74.158 20.9976 74.9417 20.5389 75.7839 20.2153C77.5557 19.5061 79.5085 19.3821 81.3559 19.8616C83.2034 20.341 84.8484 21.3987 86.0495 22.8794C86.3353 23.2324 86.5966 23.6044 86.8316 23.9929C87.0527 24.3794 87.2461 24.7811 87.4103 25.1949C87.7417 25.9907 87.9458 26.8335 88.0151 27.6925C88.1584 29.181 87.9213 30.6815 87.3259 32.0537C86.7305 33.4259 85.7963 34.6251 84.6106 35.5392C83.7088 36.2418 82.678 36.7615 81.5763 37.069C80.7505 37.3102 79.892 37.4209 79.032 37.3968C78.7179 37.3981 78.4042 37.3755 78.0936 37.3292C77.8634 37.3131 77.635 37.2783 77.4106 37.2251L76.9987 37.1263C76.959 37.1072 76.9222 37.0827 76.8892 37.0534V37.0534Z" fill="#E0E0E0"/>
<path d="M77.8326 33.3382C76.8759 33.0912 76.0141 32.5665 75.3563 31.8305C74.6985 31.0945 74.2742 30.1803 74.1371 29.2035C74.0001 28.2268 74.1564 27.2315 74.5864 26.3434C75.0163 25.4554 75.7005 24.7146 76.5524 24.2148C77.4043 23.715 78.3857 23.4787 79.3722 23.5357C80.3587 23.5927 81.3062 23.9405 82.0946 24.5351C82.883 25.1296 83.477 25.9443 83.8014 26.8759C84.1258 27.8075 84.166 28.8142 83.9169 29.7686C83.5834 31.0466 82.7553 32.1403 81.6146 32.8096C80.4739 33.4788 79.1137 33.6689 77.8326 33.3382Z" fill="#E0E0E0"/>
<path d="M77.833 33.3381C77.833 33.3017 78.2657 33.4422 79.0478 33.4422C79.9837 33.4337 80.8981 33.1615 81.6858 32.657C82.4736 32.1526 83.1025 31.4363 83.5002 30.5907C83.8648 29.8005 84.0123 28.9277 83.9277 28.0619C83.8328 27.1074 83.4573 26.2023 82.8485 25.4602C82.1983 24.6584 81.3076 24.0858 80.3074 23.8264C79.3071 23.567 78.2498 23.6344 77.2908 24.0188C76.8355 24.1881 76.411 24.4306 76.0343 24.7369C75.6637 25.0318 75.3417 25.383 75.0802 25.7776C74.5849 26.4925 74.2881 27.3255 74.22 28.1919C74.1626 28.9483 74.2841 29.7076 74.5745 30.4086C74.995 31.4372 75.7496 32.2948 76.7173 32.8438C77.0787 33.0387 77.4513 33.2125 77.833 33.3641C77.4236 33.2924 77.029 33.1535 76.6651 32.953C75.6483 32.422 74.8469 31.5561 74.3972 30.5023C74.0822 29.7747 73.9446 28.9829 73.9958 28.1919C74.055 27.281 74.3574 26.4024 74.8717 25.6475C75.1386 25.2325 75.4674 24.8605 75.8466 24.5444C76.2436 24.2169 76.6907 23.9551 77.1709 23.7691C78.1824 23.3604 79.2989 23.2875 80.3552 23.5612C81.4114 23.8348 82.3514 24.4404 83.0362 25.2885C83.6848 26.0699 84.0859 27.0263 84.1884 28.0358C84.2699 28.9451 84.1061 29.8596 83.7139 30.6844C83.3722 31.3986 82.8667 32.0225 82.2385 32.5056C81.3301 33.2075 80.2067 33.5751 79.0582 33.5462C78.641 33.5459 78.2268 33.4755 77.833 33.3381V33.3381Z" fill="#E0E0E0"/>
<path d="M92.5688 29.0982L88.9559 35.374C87.8973 37.2129 88.5327 39.5601 90.3752 40.6167L90.7143 40.8111C92.5568 41.8677 94.9087 41.2335 95.9673 39.3946L99.5802 33.1188C100.639 31.2799 100.003 28.9326 98.1609 27.8761L97.8218 27.6816C95.9793 26.6251 93.6274 27.2593 92.5688 29.0982Z" fill="#EBEBEB"/>
<path d="M88.9531 35.3776C88.7371 35.8409 88.5913 36.3337 88.5204 36.8397C88.4665 37.4344 88.5467 38.0335 88.755 38.5933C88.8844 38.9378 89.0598 39.2633 89.2763 39.5611C89.5309 39.8879 89.8373 40.1709 90.1835 40.3988C90.5632 40.6543 90.9729 40.8623 91.4035 41.018C92.156 41.2724 92.9703 41.2799 93.7273 41.0392C94.4843 40.7986 95.1444 40.3226 95.6109 39.6808C96.81 37.6879 98.0769 35.4036 99.4429 33.0569C99.7552 32.5005 99.9193 31.8734 99.9193 31.2357C99.9193 30.5979 99.7552 29.9708 99.4429 29.4145C99.1663 28.8802 98.7615 28.4226 98.2646 28.0824C97.7826 27.7443 97.2388 27.5039 96.664 27.3748C96.1315 27.2669 95.5818 27.2762 95.0533 27.402C94.5248 27.5278 94.03 27.7671 93.6036 28.1032C92.7851 28.7224 92.4254 29.6643 91.9457 30.4239L89.7977 34.0663L89.2033 35.0498C89.1402 35.1681 89.0651 35.2797 88.9792 35.3828C89.031 35.258 89.0902 35.1363 89.1564 35.0185C89.2972 34.7688 89.4797 34.4306 89.7091 34.0143C90.2304 33.1193 90.9134 31.8705 91.7945 30.3355L92.4827 29.1179C92.7365 28.6631 93.0744 28.2606 93.4785 27.9315C93.9253 27.573 94.4449 27.3156 95.0012 27.1773C95.5576 27.0389 96.1374 27.0228 96.7005 27.1302C97.3024 27.2614 97.8727 27.5089 98.3793 27.8587C98.9341 28.2053 99.3916 28.6869 99.7088 29.2584C100.05 29.8562 100.229 30.5322 100.229 31.2201C100.229 31.9079 100.05 32.584 99.7088 33.1817C98.3376 35.5389 97.102 37.7867 95.8455 39.8213C95.4997 40.2833 95.0578 40.6652 94.5503 40.941C94.0428 41.2167 93.4815 41.3797 92.905 41.4187C92.3837 41.4486 91.8615 41.378 91.367 41.2106C90.9226 41.0404 90.5007 40.8167 90.1105 40.5445C89.7491 40.3017 89.4303 40.0011 89.1669 39.6548C88.9467 39.333 88.7713 38.9829 88.6455 38.6141C88.4708 38.1424 88.3928 37.6405 88.4161 37.1382C88.4394 36.6359 88.5635 36.1433 88.781 35.6898C88.8295 35.5811 88.8871 35.4766 88.9531 35.3776V35.3776Z" fill="#E0E0E0"/>
<path d="M78.1768 49.4741C78.1768 49.4741 88.7552 79.456 92.9469 85.8354C97.1387 92.2147 116.247 108.647 119.177 107.783C122.107 106.92 122.623 105.967 120.506 102.58C118.389 99.1925 105.387 87.131 103.468 84.1495C101.549 81.1679 87.9262 45.8525 87.9262 45.8525L78.1768 49.4741Z" fill="#E0E0E0"/>
<path d="M84.1865 41.3048L77.3945 43.8419C75.4044 44.5853 74.3949 46.7982 75.1397 48.7844L75.2768 49.1499C76.0217 51.1362 78.2389 52.1437 80.2291 51.4003L87.021 48.8631C89.0112 48.1197 90.0207 45.9069 89.2758 43.9206L89.1388 43.5551C88.3939 41.5689 86.1767 40.5613 84.1865 41.3048Z" fill="#EBEBEB"/>
<path d="M84.1885 41.2995C84.3079 41.2373 84.4338 41.1885 84.5639 41.1538C84.9383 41.0472 85.3268 40.9981 85.7161 41.0081C86.3335 41.0286 86.9373 41.1944 87.4783 41.492C87.8141 41.6844 88.1227 41.9206 88.3959 42.1945C88.6938 42.5116 88.94 42.8732 89.1258 43.2664C89.3317 43.6949 89.4824 44.1477 89.5742 44.614C89.6656 45.1319 89.6514 45.6628 89.5324 46.1751C89.3976 46.7389 89.1411 47.2665 88.7809 47.7213C88.4208 48.176 87.9655 48.5469 87.447 48.808C85.2364 49.6978 82.8121 50.5667 80.2574 51.5346C79.6108 51.7724 78.9137 51.8399 78.2334 51.7305C77.553 51.6212 76.9124 51.3386 76.3733 50.9102C75.8597 50.4952 75.4582 49.9585 75.2054 49.3491C74.9385 48.7881 74.7861 48.1796 74.7571 47.5592C74.7378 46.9827 74.8455 46.409 75.0725 45.8786C75.2995 45.3482 75.6403 44.8739 76.0709 44.4892C76.462 44.1453 76.9149 43.8787 77.4056 43.7035L78.7194 43.2195L82.6922 41.7834L83.7766 41.4036C83.9014 41.3537 84.0306 41.3153 84.1624 41.2891C84.0476 41.3585 83.9252 41.4144 83.7975 41.4556L82.7548 41.8823L78.8133 43.4017C77.9947 43.7503 76.9937 43.9532 76.2482 44.6557C75.8469 45.0219 75.53 45.4708 75.3193 45.9711C75.1087 46.4715 75.0094 47.0116 75.0282 47.554C75.0658 48.1408 75.2163 48.715 75.4713 49.2451C75.7098 49.8079 76.0863 50.3017 76.5662 50.6812C77.0692 51.0807 77.6671 51.3438 78.3019 51.445C78.9367 51.5462 79.587 51.482 80.1897 51.2588C82.7287 50.2962 85.1947 49.4168 87.3636 48.5634C88.071 48.2055 88.6464 47.6328 89.0071 46.9279C89.3678 46.2229 89.4951 45.4219 89.3708 44.6401C89.2846 44.189 89.1428 43.7503 88.9485 43.334C88.7799 42.9531 88.5511 42.6018 88.2708 42.2933C88.0154 42.0256 87.7241 41.7945 87.4053 41.6065C86.8882 41.305 86.3083 41.1269 85.7109 41.0862C85.1955 41.0793 84.6821 41.1513 84.1885 41.2995V41.2995Z" fill="#E0E0E0"/>
<path d="M314.285 68.6851C317.815 64.4391 321.344 60.1515 324.097 55.3644C326.85 50.5773 328.789 45.2282 328.93 39.7126C328.93 38.8749 328.591 33.0731 327.783 32.8389C327.21 32.6724 326.813 37.7978 326.344 38.1672C321.84 41.6847 318.915 46.9037 317.231 52.3568C315.646 57.6738 314.658 63.1502 314.285 68.6851" fill="#263238"/>
<path d="M268.307 100.956C269.715 97.314 276.649 79.1021 276.612 79.1021C276.576 79.1021 264.668 72.8997 268.792 60.2659C270.773 54.1623 275.877 41.9291 280.622 30.9084C283.084 25.1985 287.61 20.623 293.299 18.0922C298.988 15.5613 305.423 15.2604 311.324 17.2495L312.539 17.6605C325.396 22.8639 328.18 36.6373 322.617 49.318L297.07 108.376L274.683 101.472L268.307 100.956Z" fill="#FFBF9D"/>
<path d="M276.618 79.1128C276.618 79.1128 284.402 82.2348 294.662 79.7996C294.662 79.7996 287.561 87.8077 275.372 82.4378L276.618 79.1128Z" fill="#FF9A6C"/>
<path d="M280.601 43.0683C280.438 43.5351 280.464 44.0467 280.673 44.4946C280.883 44.9425 281.259 45.2913 281.722 45.467C281.944 45.562 282.184 45.6117 282.426 45.613C282.669 45.6143 282.909 45.5673 283.133 45.4747C283.357 45.3821 283.56 45.2459 283.73 45.0739C283.901 44.9019 284.035 44.6977 284.125 44.4732C284.289 44.0064 284.264 43.4942 284.054 43.046C283.845 42.5977 283.468 42.249 283.004 42.0744C282.781 41.9787 282.542 41.9285 282.299 41.9268C282.057 41.9251 281.816 41.972 281.592 42.0647C281.368 42.1573 281.165 42.2939 280.994 42.4662C280.824 42.6386 280.69 42.8433 280.601 43.0683V43.0683Z" fill="#263238"/>
<path d="M281.528 37.0486C281.674 37.3608 283.379 36.8092 285.314 37.47C287.248 38.1309 288.343 39.5514 288.629 39.4057C288.77 39.3381 288.687 38.8385 288.218 38.1777C287.577 37.3158 286.685 36.6739 285.663 36.3409C284.652 35.9923 283.555 35.9777 282.535 36.2993C281.784 36.5543 281.456 36.9081 281.528 37.0486Z" fill="#263238"/>
<path d="M297.591 49.8904C297.427 50.3564 297.453 50.8679 297.662 51.3153C297.872 51.7627 298.249 52.1104 298.712 52.2839C298.935 52.3797 299.174 52.4299 299.417 52.4315C299.66 52.4332 299.9 52.3863 300.124 52.2937C300.348 52.201 300.551 52.0645 300.722 51.8921C300.892 51.7197 301.026 51.515 301.115 51.2901C301.278 50.8233 301.252 50.3116 301.043 49.8637C300.833 49.4158 300.457 49.067 299.995 48.8913C299.771 48.7964 299.531 48.7471 299.289 48.7461C299.046 48.7451 298.806 48.7926 298.582 48.8857C298.358 48.9788 298.155 49.1156 297.985 49.2881C297.815 49.4607 297.681 49.6654 297.591 49.8904Z" fill="#263238"/>
<path d="M300.24 44.2237C300.381 44.5359 302.091 43.9896 304.025 44.6452C305.959 45.3008 307.049 46.7266 307.341 46.5861C307.477 46.5132 307.398 46.0137 306.929 45.3581C306.287 44.4949 305.393 43.8514 304.369 43.5161C303.358 43.1664 302.261 43.1518 301.241 43.4744C300.511 43.7294 300.167 44.0832 300.24 44.2237Z" fill="#263238"/>
<path d="M288.264 56.738C288.311 56.6339 287.174 56.0199 285.308 55.1145C284.833 54.896 284.395 54.641 284.427 54.2716C284.458 53.9021 284.818 53.413 285.25 52.9239L287.987 49.6562C291.83 44.9731 294.791 41.0862 294.598 40.9301C294.405 40.774 291.142 44.4372 287.299 49.1046C286.366 50.2598 285.469 51.3577 284.619 52.414C284.244 52.9343 283.707 53.4547 283.707 54.2664C283.721 54.464 283.779 54.6561 283.877 54.8282C283.976 55.0002 284.112 55.1479 284.275 55.2602C284.526 55.4258 284.795 55.5603 285.078 55.6609C286.997 56.4258 288.217 56.8473 288.264 56.738Z" fill="#263238"/>
<path d="M293.515 59.9952C293.202 59.8755 292.472 61.9724 290.188 62.8518C287.905 63.7312 285.72 62.7529 285.605 63.0391C285.532 63.1588 285.97 63.6115 286.904 63.9601C288.131 64.39 289.47 64.3771 290.689 63.9237C291.856 63.4836 292.808 62.6089 293.342 61.4833C293.718 60.6404 293.661 60.0316 293.515 59.9952Z" fill="#263238"/>
<path d="M302.998 36.4189C302.998 37.0068 305.031 37.4127 307.211 38.4482C309.39 39.4837 311.022 40.7273 311.481 40.3578C311.689 40.1757 311.538 39.5721 310.959 38.7968C310.183 37.8384 309.197 37.0697 308.078 36.5493C306.958 36.029 305.734 35.7708 304.5 35.7945C303.561 35.8673 303.003 36.1431 302.998 36.4189Z" fill="#263238"/>
<path d="M284.505 30.8926C284.698 31.4494 286.184 31.4129 287.795 31.9333C289.406 32.4536 290.662 33.2289 291.126 32.8751C291.34 32.6982 291.278 32.1882 290.824 31.569C290.194 30.8025 289.351 30.2397 288.401 29.9516C287.45 29.6636 286.436 29.6633 285.485 29.9508C284.766 30.237 284.427 30.6272 284.505 30.8926Z" fill="#263238"/>
<path d="M318.415 58.2988C318.665 58.2988 327.94 58.6579 324.76 67.1446C321.579 75.6313 313.67 70.7089 313.749 70.4591C313.827 70.2094 318.415 58.2988 318.415 58.2988Z" fill="#FFBF9D"/>
<path d="M317.56 68.2269C317.606 68.2269 317.669 68.3882 317.878 68.5963C318.173 68.8802 318.568 69.0372 318.978 69.0334C320.02 69.0334 321.293 67.8938 321.908 66.3744C322.204 65.6528 322.334 64.8739 322.288 64.0954C322.31 63.7983 322.258 63.5005 322.138 63.2282C322.017 62.9559 321.83 62.7176 321.595 62.5343C321.44 62.4209 321.25 62.3664 321.059 62.3807C320.868 62.3951 320.688 62.4772 320.552 62.6124C320.349 62.8101 320.338 62.9974 320.291 62.9974C320.245 62.9974 320.161 62.7841 320.359 62.4771C320.483 62.287 320.667 62.1427 320.881 62.066C321.181 61.9772 321.505 62.0089 321.783 62.1545C322.104 62.3567 322.368 62.6372 322.55 62.9695C322.733 63.3017 322.827 63.6749 322.825 64.0537C322.91 64.9265 322.781 65.8067 322.45 66.619C321.751 68.3101 320.276 69.5901 318.91 69.4861C318.656 69.4658 318.409 69.3895 318.188 69.2626C317.968 69.1358 317.778 68.9615 317.633 68.7524C317.497 68.4454 317.523 68.2321 317.56 68.2269Z" fill="#FF9A6C"/>
<path d="M291.502 18.9765C290.418 17.6964 296.252 14.8137 300.219 14.5952C306.215 14.2414 314.562 15.8024 318.754 18.94C323.811 22.7125 327.434 27.3331 328.3 33.572C329.165 39.8108 327.93 46.2214 325.505 52.0388C324.765 53.8132 323.858 55.6083 322.315 56.7583C320.412 58.1788 317.68 58.4858 316.783 61.1135C316.635 61.5934 316.392 62.0392 316.07 62.425C315.748 62.8109 315.352 63.1291 314.906 63.3614C312.716 64.402 311.413 62.1386 311.137 60.2393C310.547 56.2015 311.861 52.1585 313.16 48.2715C314.082 45.5241 315.036 42.7195 316.809 40.4144C317.768 39.1604 318.947 38.0833 319.838 36.772C320.73 35.4608 321.308 33.8217 320.881 32.3075C320.772 31.9736 320.631 31.6512 320.459 31.3449C319.671 29.8601 318.501 28.6112 317.07 27.7261C315.639 26.841 313.998 26.3516 312.315 26.308C306.877 26.1675 297.717 25.5587 296.231 23.1236C294.057 19.6165 293.906 17.8161 293.906 17.8161L291.502 18.9765Z" fill="#263238"/>
<path d="M319.843 13.7477C320.39 14.0235 333.2 21.9223 333.117 33.4426C333.033 44.9629 330.922 47.7831 330.922 47.7831C331.351 48.3112 331.702 48.8983 331.964 49.5262C332.308 50.4004 330.343 53.3663 328.659 52.3777C317.158 41.7264 301.308 35.6072 283.228 30.0031L269.589 25.1275C265.595 24.2586 264.599 22.7756 266.549 22.375C268.045 22.0628 280.433 21.4383 280.433 21.4383L283.108 20.6162L291.449 14.7312C291.449 14.7312 291.126 13.3991 292.821 12.9672C294.515 12.5353 309.071 8.28418 319.843 13.7477Z" fill="#C9433F"/>
<path d="M283.098 20.6367C283.098 20.6367 283.28 20.7096 283.619 20.824L285.183 21.3132C286.528 21.7138 288.442 22.3903 290.798 23.254C296.896 25.5961 302.776 28.4654 308.373 31.8292C313.967 35.2071 319.363 38.9005 324.535 42.8916C326.537 44.4058 328.128 45.665 329.228 46.534L330.505 47.5278C330.797 47.7516 330.959 47.8609 330.959 47.8609C330.959 47.8609 330.818 47.7256 330.531 47.4862L329.285 46.4455C328.195 45.561 326.616 44.2809 324.629 42.7511C319.475 38.713 314.078 34.9943 308.467 31.6159C302.853 28.2396 296.94 25.3848 290.803 23.0875C288.278 22.1424 285.706 21.3244 283.098 20.6367Z" fill="#263238"/>
<g opacity="0.3">
<path d="M330.447 24.2168C330.447 24.2168 316.308 16.6615 308.498 17.5773L309.415 17.4524L302.116 18.056C300.881 18.1601 299.468 18.1965 298.623 17.2963C298.623 17.2963 303.049 15.4231 310.041 15.4595C317.032 15.4959 327.293 17.9727 330.447 24.2168Z" fill="black"/>
</g>
<path d="M330.635 24.3421C330.321 23.8711 329.973 23.4241 329.593 23.0048C328.574 21.8442 327.423 20.8069 326.162 19.914C324.295 18.5796 322.242 17.5276 320.067 16.792C317.417 15.818 314.588 15.4257 311.772 15.642C310.327 15.7874 308.892 16.0238 307.476 16.3497C306.11 16.6567 304.781 16.8701 303.524 17.2343C302.373 17.6157 301.19 17.8977 299.99 18.0772C298.939 18.1809 297.879 18.0402 296.893 17.6662C293.196 16.4538 291.199 14.9188 291.45 14.7471C291.463 14.8966 291.532 15.0357 291.643 15.1373C291.943 15.4302 292.279 15.6837 292.644 15.8918C293.971 16.6845 295.38 17.3317 296.846 17.8223C297.854 18.2114 298.939 18.3645 300.016 18.2698C301.229 18.1005 302.426 17.8272 303.592 17.4528C304.823 17.1146 306.168 16.8857 307.534 16.5787C308.94 16.266 310.365 16.0367 311.798 15.8918C314.581 15.6828 317.376 16.0641 319.999 17.0105C322.157 17.7312 324.201 18.7562 326.068 20.0545C327.327 20.9293 328.487 21.9396 329.525 23.0673C329.895 23.4679 330.171 23.7906 330.348 24.0143C330.526 24.2381 330.635 24.3421 330.635 24.3421Z" fill="#263238"/>
<g opacity="0.3">
<path d="M332.95 38.2039C330.27 37.262 328.477 35.8727 326.011 34.3742C323.404 32.7819 320.74 31.325 318.19 29.6079C316.256 28.307 313.915 26.9333 313.055 24.9248C312.769 25.4121 312.615 25.9647 312.607 26.5291C312.599 27.0935 312.737 27.6504 313.008 28.1457C313.555 29.1864 315.875 31.044 316.866 31.7152C322.502 35.5397 326.417 38.1518 332.715 40.8108C332.849 39.9496 332.926 39.0804 332.945 38.2091" fill="black"/>
</g>
<path d="M333.086 32.1676C334.536 33.4841 335.406 34.3375 334.958 35.81C334.588 37.0276 333.837 38.4117 332.575 38.2192C332.202 38.1327 331.849 37.9774 331.533 37.7613L314.265 27.6719C313.64 27.3986 313.134 26.9114 312.837 26.2982C312.493 25.32 313.358 24.2481 314.354 23.9775C315.35 23.7069 316.413 23.9775 317.404 24.3209C323.024 26.1369 328.149 28.9259 333.086 32.1624" fill="#C9433F"/>
<path d="M313.024 26.6728C312.865 26.372 312.789 26.0342 312.805 25.6945C312.843 25.236 313.011 24.7977 313.287 24.4296C313.564 24.0615 313.939 23.7786 314.369 23.6132C315.474 23.2385 316.939 23.4883 318.378 24.0711C319.817 24.6538 321.438 25.3147 323.07 26.0692C325.905 27.3238 328.621 28.8284 331.188 30.5649C332.168 31.2361 332.924 31.8293 333.451 32.2404L334.045 32.7243C334.112 32.784 334.186 32.8363 334.264 32.8804C334.264 32.8804 334.207 32.8076 334.076 32.6879L333.508 32.1675C332.987 31.7357 332.262 31.1269 331.287 30.4244C328.737 28.6389 326.018 27.107 323.169 25.8506C321.511 25.0909 319.911 24.4353 318.441 23.8577C316.97 23.2801 315.464 23.0304 314.27 23.4519C313.817 23.632 313.426 23.9382 313.143 24.334C312.861 24.7298 312.698 25.1985 312.674 25.6841C312.668 25.9448 312.723 26.2035 312.836 26.4386C312.884 26.527 312.948 26.6062 313.024 26.6728V26.6728Z" fill="#263238"/>
<path d="M288.833 16.5991L300.569 20.3508L298.457 23.2907L285.877 18.6805L288.833 16.5991Z" fill="white"/>
<path d="M302.909 32.964C302.936 32.9015 297.998 30.3623 291.872 27.3339C285.746 24.3055 280.741 21.8547 280.741 21.9172C280.741 21.9796 285.652 24.5189 291.778 27.5472C297.904 30.5756 302.878 33.0212 302.909 32.964Z" fill="#263238"/>
<path d="M305.865 96.0909L306.022 88.4003L279.651 98.1775C279.651 98.1775 274.777 82.3748 274.777 81.6307L268.932 85.2731L259.219 81.1104L249.506 76.3232L229.861 110.666L209.252 171.306L257.801 203.629L293.806 165.124L315.703 131.823L327.736 110.738L305.865 96.0909Z" fill="#AC302C"/>
<path d="M277.305 98.0634C277.274 97.8079 277.262 97.5505 277.269 97.2933C277.269 96.773 277.269 96.0341 277.238 95.1391L277.357 95.2119C274.459 96.6245 271.784 98.4529 269.417 100.639L269.209 100.837V100.551C269.209 100.207 269.167 99.843 269.146 99.4735C268.932 95.7011 268.755 92.2876 268.625 89.8108C268.572 88.6036 268.531 87.615 268.499 86.8813C268.499 86.5622 268.499 86.2968 268.499 86.0852C268.465 86.0787 268.434 86.0596 268.413 86.0317C268.392 86.0037 268.382 85.9689 268.385 85.9341C268.389 85.8992 268.405 85.8668 268.431 85.8433C268.457 85.8197 268.49 85.8066 268.526 85.8066C268.561 85.8066 268.594 85.8197 268.62 85.8433C268.646 85.8668 268.662 85.8992 268.666 85.9341C268.669 85.9689 268.659 86.0037 268.638 86.0317C268.617 86.0596 268.586 86.0787 268.552 86.0852C268.552 86.2933 268.593 86.5587 268.625 86.8761C268.677 87.6098 268.745 88.5984 268.828 89.8004C268.995 92.272 269.198 95.6855 269.412 99.4579C269.412 99.8273 269.454 100.192 269.469 100.535L269.245 100.441C271.631 98.24 274.347 96.4246 277.295 95.061L277.42 95.009V95.1391C277.42 96.0341 277.383 96.7573 277.373 97.2933C277.369 97.5513 277.347 97.8087 277.305 98.0634Z" fill="#263238"/>
<path d="M303.436 96.4609C303.342 96.5263 303.241 96.5804 303.134 96.6222L302.253 97.0437L298.989 98.5371L288.166 103.366L283.025 105.635L282.806 105.728L282.848 105.494C283.272 103.054 283.471 100.581 283.442 98.1052L283.562 98.1781L281.127 99.3592L280.475 99.661C280.33 99.7287 280.251 99.7599 280.246 99.7495C280.31 99.6976 280.38 99.6539 280.455 99.6194L281.085 99.276L283.489 98.0272L283.604 97.9647V98.1052C283.677 100.602 283.502 103.099 283.082 105.562L282.905 105.421L288.04 103.142L298.895 98.381L302.201 96.9657L303.103 96.5962C303.208 96.5377 303.32 96.4922 303.436 96.4609V96.4609Z" fill="#263238"/>
<path d="M257.331 57.9766H58.7447C54.5494 57.9766 51.1484 61.3708 51.1484 65.5579V202.792C51.1484 206.979 54.5494 210.373 58.7447 210.373H257.331C261.526 210.373 264.927 206.979 264.927 202.792V65.5579C264.927 61.3708 261.526 57.9766 257.331 57.9766Z" fill="#455A64"/>
<path d="M42.792 200.528H274.407V204.603C274.407 207.059 273.429 209.415 271.689 211.152C269.948 212.889 267.588 213.865 265.126 213.865H52.0722C49.6109 213.865 47.2505 212.889 45.5101 211.152C43.7697 209.415 42.792 207.059 42.792 204.603V200.528V200.528Z" fill="#455A64"/>
<path d="M258.593 64.0327H56.8887V192.728H258.593V64.0327Z" fill="#263238"/>
<path d="M136.965 199.103L139.838 204.031H180.28L182.949 199.103H136.965Z" fill="#263238"/>
<path d="M253.146 68.3887H62.7449C61.8033 68.3887 61.04 69.1505 61.04 70.0902V190.611C61.04 191.551 61.8033 192.313 62.7449 192.313H253.146C254.088 192.313 254.851 191.551 254.851 190.611V70.0902C254.851 69.1505 254.088 68.3887 253.146 68.3887Z" fill="#EBEBEB"/>
<path d="M254.647 192.495H60.8359L61.0393 77.6509H254.647V192.495Z" fill="#FAFAFA"/>
<path d="M77.3265 73.1752C77.3112 73.4863 77.2048 73.7861 77.0205 74.0375C76.8361 74.2889 76.5819 74.4808 76.2894 74.5894C75.9969 74.698 75.6789 74.7186 75.3747 74.6487C75.0706 74.5787 74.7937 74.4212 74.5783 74.1957C74.3629 73.9703 74.2186 73.6867 74.1631 73.3802C74.1076 73.0736 74.1435 72.7575 74.2662 72.4711C74.3889 72.1847 74.5931 71.9405 74.8535 71.7687C75.1139 71.597 75.419 71.5053 75.7311 71.5049C76.1644 71.5158 76.5757 71.6978 76.8748 72.0109C77.1739 72.324 77.3363 72.7427 77.3265 73.1752V73.1752Z" fill="#263238"/>
<path d="M67.6507 73.1752C67.6354 73.4863 67.529 73.7861 67.3447 74.0375C67.1603 74.2889 66.9062 74.4808 66.6136 74.5894C66.3211 74.698 66.0031 74.7186 65.6989 74.6487C65.3948 74.5787 65.1179 74.4212 64.9025 74.1957C64.6872 73.9703 64.5428 73.6867 64.4873 73.3802C64.4318 73.0736 64.4677 72.7575 64.5904 72.4711C64.7131 72.1847 64.9173 71.9405 65.1777 71.7687C65.4381 71.597 65.7432 71.5053 66.0554 71.5049C66.4887 71.5158 66.8999 71.6978 67.199 72.0109C67.4981 72.324 67.6605 72.7427 67.6507 73.1752V73.1752Z" fill="#263238"/>
<path d="M72.6244 73.1752C72.6091 73.4863 72.5027 73.7861 72.3183 74.0375C72.134 74.2889 71.8798 74.4808 71.5873 74.5894C71.2947 74.698 70.9767 74.7186 70.6726 74.6487C70.3684 74.5787 70.0915 74.4212 69.8762 74.1957C69.6608 73.9703 69.5164 73.6867 69.461 73.3802C69.4055 73.0736 69.4413 72.7575 69.564 72.4711C69.6867 72.1847 69.8909 71.9405 70.1513 71.7687C70.4117 71.597 70.7169 71.5053 71.029 71.5049C71.4623 71.5158 71.8736 71.6978 72.1726 72.0109C72.4717 72.324 72.6342 72.7427 72.6244 73.1752V73.1752Z" fill="#263238"/>
<path d="M263.092 199.103C263.092 199.187 215.648 199.249 157.126 199.249C98.6027 199.249 51.1484 199.187 51.1484 199.103C51.1484 199.02 98.5923 198.952 157.126 198.952C215.659 198.952 263.092 199.02 263.092 199.103Z" fill="#263238"/>
<path d="M137.127 99.6661C140.278 97.7678 143.669 96.2978 147.21 95.2953L149.296 85.3308L166.156 85.0342L168.586 94.9206C172.159 95.8012 175.599 97.152 178.815 98.9376L187.339 93.3648L199.471 105.057L194.195 113.762C196.098 116.908 197.571 120.295 198.575 123.831L208.554 125.912L208.851 142.74L198.945 145.165C198.061 148.721 196.705 152.144 194.915 155.342L200.504 163.85L188.789 175.958L180.077 170.687C176.924 172.586 173.531 174.056 169.988 175.058L167.903 185.023L151.037 185.314L148.613 175.427C145.049 174.556 141.618 173.214 138.41 171.436L129.885 177.014L117.753 165.322L123.035 156.628C121.13 153.481 119.655 150.095 118.65 146.559L108.671 144.478L108.374 127.65L118.28 125.225C119.161 121.659 120.515 118.226 122.305 115.016L116.721 106.509L128.436 94.4003L137.127 99.6661ZM146.115 122.088C143.63 124.657 141.964 127.904 141.328 131.418C140.692 134.932 141.114 138.555 142.541 141.83C143.968 145.104 146.336 147.883 149.346 149.815C152.355 151.746 155.871 152.744 159.448 152.681C163.026 152.618 166.504 151.499 169.444 149.463C172.383 147.427 174.652 144.568 175.964 141.245C177.275 137.923 177.57 134.287 176.81 130.797C176.051 127.307 174.272 124.121 171.699 121.64C169.988 119.994 167.97 118.7 165.759 117.832C163.547 116.964 161.187 116.54 158.811 116.583C156.435 116.626 154.091 117.135 151.913 118.083C149.735 119.03 147.765 120.396 146.115 122.103V122.088Z" fill="#E0E0E0"/>
<path d="M204.492 106.102C204.723 104.858 205.118 103.649 205.665 102.507L203.58 99.6971L207.355 95.2846L210.483 96.9185C211.526 96.2009 212.66 95.6252 213.856 95.2066L214.377 91.7359L220.17 91.2832L221.212 94.629C222.46 94.859 223.672 95.2545 224.815 95.8049L227.63 93.7236L232.051 97.4961L230.414 100.618C231.136 101.66 231.715 102.794 232.135 103.99L235.607 104.51L236.061 110.296L232.708 111.337C232.48 112.583 232.083 113.792 231.53 114.933L233.616 117.748L229.841 122.155L226.713 120.521C225.668 121.241 224.532 121.819 223.334 122.238L222.813 125.709L217.021 126.162L215.978 122.811C214.73 122.582 213.519 122.189 212.375 121.64L209.555 123.721L205.144 119.907L206.781 116.785C206.06 115.742 205.482 114.608 205.061 113.413L201.588 112.893L201.135 107.107L204.487 106.066L204.492 106.102ZM212.349 107.856C212.226 109.157 212.514 110.464 213.174 111.593C213.834 112.722 214.833 113.616 216.029 114.148C217.225 114.681 218.559 114.825 219.841 114.561C221.124 114.297 222.291 113.638 223.179 112.677C224.066 111.716 224.629 110.501 224.788 109.203C224.947 107.906 224.693 106.591 224.064 105.445C223.434 104.299 222.46 103.378 221.279 102.814C220.098 102.25 218.769 102.069 217.479 102.299C216.133 102.538 214.903 103.211 213.976 104.215C213.05 105.219 212.478 106.497 212.349 107.856V107.856Z" fill="#E0E0E0"/>
<path d="M77.525 164.188C77.5671 162.693 77.8109 161.21 78.2496 159.781L75.2935 156.903L78.9118 151.086L82.8324 152.439C83.9274 151.413 85.1548 150.538 86.4819 149.837L86.4507 145.7L93.1345 144.139L94.9436 147.86C96.4415 147.901 97.9269 148.145 99.3596 148.583L102.274 145.633L108.103 149.244L106.747 153.157C107.775 154.249 108.652 155.474 109.354 156.799L113.499 156.768L115.063 163.433L111.33 165.228C111.284 166.723 111.038 168.205 110.6 169.636L113.556 172.539L109.938 178.362L106.017 177.009C104.923 178.036 103.696 178.911 102.368 179.611L102.399 183.747L95.7205 185.308L93.9061 181.588C92.4123 181.536 90.9323 181.284 89.5058 180.839L86.5966 183.789L80.7626 180.178L82.1181 176.265C81.0906 175.172 80.2139 173.947 79.5113 172.623L75.3405 172.654L73.7764 165.988L77.5041 164.177L77.525 164.188ZM87.1858 166.061C87.5207 167.474 88.2677 168.757 89.3326 169.747C90.3974 170.736 91.7322 171.389 93.1685 171.622C94.6047 171.855 96.0779 171.658 97.4021 171.056C98.7262 170.454 99.8418 169.473 100.608 168.239C101.374 167.004 101.757 165.571 101.707 164.119C101.657 162.668 101.178 161.264 100.329 160.084C99.4803 158.905 98.3003 158.003 96.9381 157.492C95.5759 156.981 94.0927 156.885 92.6757 157.215C91.7309 157.435 90.839 157.839 90.0511 158.404C89.2633 158.969 88.595 159.683 88.0849 160.507C87.5747 161.33 87.2326 162.246 87.0783 163.202C86.924 164.158 86.9605 165.135 87.1858 166.077V166.061Z" fill="#E0E0E0"/>
<path d="M89.5217 108.605C89.692 107.666 89.9902 106.754 90.4081 105.894L88.844 103.771L91.6906 100.447L94.0367 101.68C94.8238 101.138 95.6793 100.702 96.581 100.384L96.9668 97.7824L101.336 97.439L102.118 99.9626C103.058 100.137 103.971 100.435 104.834 100.847L106.961 99.2862L110.288 102.127L109.057 104.469C109.601 105.253 110.036 106.107 110.35 107.008L112.957 107.388L113.301 111.748L110.778 112.508C110.605 113.446 110.309 114.358 109.897 115.219L111.461 117.337L108.614 120.662L106.268 119.428C105.482 119.973 104.626 120.408 103.724 120.724L103.343 123.326L98.974 123.664L98.1868 121.14C97.2454 120.97 96.3316 120.672 95.4705 120.256L93.3485 121.817L90.017 118.976L91.2474 116.634C90.704 115.85 90.2691 114.996 89.9545 114.095L87.3477 113.71L87.0088 109.35L89.5374 108.569L89.5217 108.605ZM95.4392 110.723C95.513 111.646 95.8589 112.526 96.4334 113.252C97.0079 113.979 97.7852 114.519 98.6672 114.805C99.5491 115.091 100.496 115.109 101.389 114.858C102.281 114.608 103.079 114.098 103.682 113.395C104.285 112.692 104.665 111.826 104.776 110.907C104.886 109.988 104.721 109.057 104.301 108.232C103.882 107.407 103.227 106.724 102.419 106.27C101.611 105.816 100.686 105.611 99.7613 105.681C99.1453 105.728 98.5447 105.895 97.9938 106.174C97.443 106.453 96.9527 106.838 96.5511 107.306C96.1495 107.775 95.8446 108.318 95.6538 108.904C95.463 109.49 95.3901 110.109 95.4392 110.723V110.723Z" fill="#EBEBEB"/>
<path d="M204.711 155.566C204.862 154.76 205.118 153.976 205.472 153.235L204.111 151.414L206.556 148.557L208.574 149.598C209.249 149.131 209.984 148.757 210.759 148.485L211.087 146.237L214.841 145.945L215.513 148.115C216.323 148.263 217.108 148.519 217.849 148.875L219.674 147.517L222.536 149.957L221.493 151.966C221.961 152.641 222.337 153.376 222.609 154.151L224.861 154.479L225.153 158.225L222.979 158.897C222.831 159.704 222.575 160.488 222.218 161.228L223.579 163.049L221.134 165.9L219.121 164.86C218.443 165.325 217.707 165.699 216.932 165.973L216.603 168.216L212.849 168.507L212.177 166.343C211.368 166.192 210.583 165.937 209.841 165.583L208.016 166.941L205.144 164.501L206.186 162.492C205.718 161.818 205.343 161.085 205.071 160.312L202.824 159.984L202.526 156.238L204.7 155.566H204.711ZM209.794 157.382C209.856 158.179 210.153 158.939 210.648 159.566C211.143 160.194 211.814 160.661 212.575 160.907C213.336 161.154 214.153 161.169 214.923 160.952C215.693 160.734 216.381 160.293 216.9 159.685C217.418 159.077 217.744 158.329 217.836 157.535C217.928 156.742 217.782 155.939 217.417 155.229C217.051 154.518 216.482 153.932 215.782 153.545C215.082 153.158 214.283 152.986 213.485 153.053C212.421 153.141 211.436 153.645 210.744 154.457C210.052 155.268 209.711 156.32 209.794 157.382Z" fill="#EBEBEB"/>
<path d="M158.603 161.212H132.675C131.151 161.208 129.655 160.805 128.336 160.043C127.017 159.281 125.921 158.187 125.159 156.871C124.396 155.554 123.993 154.06 123.99 152.539C123.987 151.018 124.384 149.523 125.142 148.203L138.113 125.782L151.079 103.36C151.844 102.041 152.943 100.946 154.266 100.185C155.589 99.4233 157.089 99.0225 158.616 99.0225C160.143 99.0225 161.643 99.4233 162.966 100.185C164.288 100.946 165.387 102.041 166.152 103.36L179.123 125.782L192.095 148.203C192.853 149.523 193.25 151.019 193.246 152.54C193.243 154.062 192.84 155.556 192.077 156.873C191.313 158.19 190.217 159.284 188.897 160.045C187.577 160.807 186.08 161.209 184.556 161.212H158.603Z" fill="#C9433F"/>
<path d="M186.526 150.773C186.526 150.773 186.594 150.903 186.724 151.174C186.947 151.716 187.032 152.305 186.972 152.887C186.912 153.47 186.709 154.029 186.38 154.515C186.122 154.898 185.791 155.227 185.405 155.482C184.957 155.767 184.444 155.935 183.914 155.971C179.493 156.018 173.112 156.008 165.218 156.029L137.492 156.06H133.53C132.823 156.052 132.136 155.826 131.564 155.412C130.991 154.998 130.562 154.417 130.334 153.75C130.092 153.083 130.047 152.36 130.204 151.668C130.245 151.497 130.303 151.325 130.36 151.148C130.417 150.971 130.511 150.82 130.59 150.664L131.111 149.753C131.778 148.531 132.456 147.303 133.134 146.059L141.538 130.662L149.995 115.276C151.354 112.789 152.692 110.348 154.009 107.955C154.343 107.361 154.65 106.763 155.005 106.175C155.357 105.574 155.86 105.076 156.465 104.729C157.057 104.39 157.722 104.197 158.404 104.166C159.085 104.136 159.765 104.268 160.385 104.552C161.001 104.83 161.538 105.255 161.949 105.79C162.305 106.33 162.628 106.891 162.914 107.471C163.524 108.584 164.129 109.682 164.718 110.764C165.907 112.929 167.055 115.03 168.164 117.066C170.39 121.13 172.46 124.918 174.347 128.373C178.122 135.288 181.172 140.887 183.283 144.763L185.703 149.223C185.974 149.743 186.182 150.118 186.323 150.388C186.464 150.659 186.532 150.789 186.532 150.789C186.532 150.789 186.448 150.659 186.302 150.399L185.656 149.249L183.19 144.81C181.062 140.944 177.976 135.366 174.181 128.466L167.971 117.17L164.509 110.879C163.915 109.797 163.315 108.699 162.7 107.585C162.413 107.023 162.095 106.478 161.746 105.951C161.361 105.452 160.86 105.053 160.286 104.791C159.702 104.523 159.062 104.399 158.42 104.428C157.778 104.457 157.153 104.638 156.595 104.957C156.03 105.287 155.559 105.757 155.229 106.321C154.885 106.888 154.572 107.497 154.244 108.09L150.229 115.411C147.508 120.386 144.682 125.532 141.794 130.808L133.353 146.194C132.67 147.438 131.997 148.671 131.325 149.889C130.958 150.462 130.669 151.082 130.464 151.731C130.316 152.379 130.357 153.057 130.584 153.682C130.79 154.302 131.186 154.841 131.715 155.225C132.245 155.608 132.881 155.817 133.535 155.821H137.498L165.224 155.847L183.914 155.873C184.426 155.843 184.923 155.685 185.358 155.415C185.738 155.169 186.066 154.85 186.323 154.478C186.724 153.889 186.939 153.193 186.938 152.48C186.932 151.887 186.791 151.304 186.526 150.773Z" fill="#263238"/>
<path d="M154.4 145.976C154.4 143.681 156.236 141.969 158.848 141.969C161.46 141.969 163.253 143.681 163.253 145.976C163.253 148.271 161.46 150.061 158.848 150.061C156.236 150.061 154.4 148.239 154.4 145.976ZM154.442 122.472H163.253L161.772 139.789H155.886L154.442 122.472Z" fill="white"/>
<path d="M159.843 100.769C159.309 100.589 158.756 100.474 158.195 100.426C156.832 100.396 155.501 100.842 154.431 101.685C153.386 102.554 152.545 103.641 151.965 104.869C151.491 105.806 151.266 106.43 151.225 106.404C151.239 106.251 151.276 106.1 151.334 105.957C151.464 105.558 151.618 105.167 151.793 104.786C152.344 103.497 153.197 102.359 154.28 101.466C155.395 100.583 156.8 100.145 158.221 100.238C158.647 100.27 159.065 100.372 159.457 100.54C159.712 100.66 159.853 100.754 159.843 100.769Z" fill="white"/>
<path d="M148.999 110.281C149.106 109.832 149.299 109.408 149.567 109.032C149.948 108.392 150.308 107.903 150.375 107.939C150.265 108.382 150.071 108.799 149.802 109.167C149.609 109.587 149.336 109.965 148.999 110.281Z" fill="white"/>
<g opacity="0.3">
<path d="M171.615 112.81L131.215 137.651L125.97 146.725L174.467 117.737L171.615 112.81Z" fill="white"/>
</g>
<g opacity="0.3">
<path d="M177.976 123.82L124.427 155.342C124.641 156.169 125.039 156.937 125.589 157.59L178.919 125.454L177.976 123.82Z" fill="white"/>
</g>
<path d="M310.313 182.608C308.277 180.369 305.639 178.763 302.712 177.98C299.786 177.198 296.696 177.273 293.812 178.196L288.822 172.732L288.129 171.957L248.646 128.722C249.756 126.156 250.161 123.341 249.82 120.567C249.478 117.793 248.403 115.159 246.704 112.937C245.006 110.715 242.745 108.984 240.154 107.923C237.563 106.862 234.736 106.509 231.963 106.899L230.034 107.664L236.744 112.154L236.384 119.465L230.956 124.382L223.631 124.023L218.845 118.758L216.869 119.533C216.301 123.94 219.262 129.497 222.49 133.062C224.522 135.298 227.155 136.903 230.077 137.686C232.998 138.47 236.083 138.398 238.965 137.479L279.109 181.438L280.34 182.806L284.146 186.969C282.955 189.738 282.587 192.791 283.085 195.763C283.584 198.735 284.927 201.502 286.956 203.734C290.167 207.272 294.432 209.635 298.869 209.515L300.85 208.745L296.059 203.474L296.419 196.189L301.846 191.272L309.145 191.626L311.95 197.667L313.931 196.892C314.542 194.397 314.532 191.791 313.901 189.301C313.27 186.811 312.038 184.513 310.313 182.608Z" fill="#E0E0E0"/>
<g opacity="0.3">
<path d="M310.313 182.608C308.277 180.369 305.639 178.763 302.712 177.98C299.786 177.198 296.696 177.273 293.812 178.196L288.822 172.732L288.129 171.957L248.646 128.722C249.756 126.156 250.161 123.341 249.82 120.567C249.478 117.793 248.403 115.159 246.704 112.937C245.006 110.715 242.745 108.984 240.154 107.923C237.563 106.862 234.736 106.509 231.963 106.899L230.034 107.664L236.744 112.154L236.384 119.465L230.956 124.382L223.631 124.023L218.845 118.758L216.869 119.533C216.301 123.94 219.262 129.497 222.49 133.062C224.522 135.298 227.155 136.903 230.077 137.686C232.998 138.47 236.083 138.398 238.965 137.479L279.109 181.438L280.34 182.806L284.146 186.969C282.955 189.738 282.587 192.791 283.085 195.763C283.584 198.735 284.927 201.502 286.956 203.734C290.167 207.272 294.432 209.635 298.869 209.515L300.85 208.745L296.059 203.474L296.419 196.189L301.846 191.272L309.145 191.626L311.95 197.667L313.931 196.892C314.542 194.397 314.532 191.791 313.901 189.301C313.27 186.811 312.038 184.513 310.313 182.608Z" fill="black"/>
</g>
<path d="M308.332 183.378C306.297 181.139 303.659 179.533 300.734 178.751C297.808 177.97 294.719 178.046 291.836 178.971L286.841 173.502L286.148 172.727L246.665 129.492C247.775 126.926 248.181 124.111 247.839 121.337C247.498 118.563 246.423 115.929 244.724 113.707C243.025 111.486 240.764 109.756 238.173 108.695C235.582 107.635 232.754 107.282 229.981 107.674L234.768 112.94L234.413 120.224L228.975 125.162L221.676 124.809L216.89 119.543C216.228 122.257 216.303 125.099 217.106 127.775C217.91 130.452 219.413 132.866 221.461 134.771C223.509 136.675 226.029 138.001 228.761 138.611C231.492 139.221 234.338 139.095 237.004 138.244L277.149 182.202L278.385 183.57L282.191 187.733C281.085 190.298 280.684 193.11 281.028 195.881C281.371 198.652 282.447 201.282 284.146 203.501C285.844 205.72 288.103 207.448 290.691 208.507C293.28 209.567 296.104 209.92 298.874 209.53L294.083 204.254L294.437 196.969L299.87 192.052L307.169 192.411L311.955 197.677C312.57 195.18 312.561 192.57 311.929 190.077C311.297 187.583 310.062 185.283 308.332 183.378V183.378Z" fill="#E0E0E0"/>
<path d="M308.331 183.378C308.331 183.378 308.561 183.628 308.994 184.132C309.61 184.901 310.156 185.723 310.625 186.588C312.438 189.988 312.938 193.933 312.033 197.677V197.781L311.96 197.703L307.169 192.442L307.211 192.468L299.912 192.12H299.964L294.541 197.042V196.985C294.437 199.254 294.317 201.725 294.192 204.296V204.228L298.942 209.457L299.067 209.593L298.884 209.619C296.241 210.002 293.543 209.711 291.042 208.773C288.542 207.835 286.32 206.28 284.583 204.254C282.694 202.064 281.449 199.395 280.986 196.543C280.494 193.552 280.867 190.484 282.06 187.697V187.822L236.863 138.343L237.004 138.379C234.148 139.28 231.096 139.366 228.193 138.629C224.149 137.585 220.68 134.995 218.533 131.419C216.387 127.843 215.737 123.567 216.723 119.517L216.786 119.267L216.958 119.454L221.744 124.72L221.65 124.679L228.975 125.032L228.876 125.069L234.34 120.146L234.293 120.24C234.413 117.774 234.533 115.344 234.653 112.929L234.684 113.023L229.898 107.757L229.736 107.575L229.976 107.544C232.859 107.137 235.799 107.529 238.474 108.676C241.15 109.823 243.458 111.681 245.148 114.048C246.764 116.306 247.755 118.95 248.02 121.713C248.267 124.375 247.846 127.058 246.795 129.518V129.393L291.919 178.908H291.856C294.004 178.224 296.274 178.006 298.513 178.269C300.752 178.532 302.909 179.27 304.838 180.433C305.819 181.03 306.734 181.728 307.57 182.514C308.092 183.071 308.373 183.357 308.373 183.357L307.549 182.535C306.706 181.753 305.788 181.055 304.807 180.454C302.882 179.308 300.735 178.585 298.508 178.332C296.282 178.079 294.027 178.302 291.893 178.986H291.856V178.955L246.649 129.523L246.597 129.466L246.628 129.398C247.662 126.966 248.074 124.317 247.828 121.687C247.567 118.966 246.588 116.362 244.991 114.142C243.328 111.813 241.056 109.985 238.423 108.857C235.79 107.729 232.897 107.345 230.06 107.747L230.138 107.533L234.861 112.851L234.898 112.888V112.945C234.783 115.352 234.665 117.781 234.543 120.23V120.287L234.502 120.323L229.074 125.241L229.032 125.277H228.975L221.676 124.918H221.619L221.582 124.876L216.791 119.61L217.026 119.553C216.371 122.243 216.445 125.059 217.24 127.711C218.035 130.364 219.522 132.757 221.55 134.646C223.577 136.536 226.072 137.853 228.777 138.463C231.483 139.074 234.302 138.955 236.947 138.119H237.025L237.087 138.181C253.5 156.175 268.891 173.018 282.253 187.681L282.305 187.738L282.274 187.811C281.101 190.552 280.73 193.569 281.205 196.511C281.662 199.251 282.839 201.821 284.616 203.959C286.393 206.097 288.706 207.727 291.319 208.682C293.731 209.553 296.319 209.821 298.858 209.463L298.796 209.624L294.015 204.358L293.989 204.327V204.254C294.114 201.689 294.234 199.217 294.349 196.969V196.933V196.907L299.786 192H299.818L307.117 192.364C308.869 194.3 310.48 196.074 311.892 197.64H311.799C312.711 193.92 312.23 189.996 310.448 186.604C309.986 185.738 309.45 184.913 308.848 184.138C308.545 183.643 308.331 183.378 308.331 183.378Z" fill="#263238"/>
<path d="M244.866 132.016C244.829 132.154 244.771 132.286 244.694 132.406C244.511 132.745 244.308 133.071 244.084 133.384C242.606 135.483 240.522 137.082 238.109 137.968C237.749 138.104 237.379 138.215 237.004 138.301C236.87 138.346 236.729 138.369 236.587 138.369C236.587 138.322 237.155 138.166 238.042 137.791C240.367 136.826 242.398 135.268 243.933 133.275C244.522 132.51 244.824 131.995 244.866 132.016Z" fill="#263238"/>
<path d="M288.958 150.794L273.964 143.822L260.559 142.151L265.481 146.314C265.481 146.314 248.151 152.345 247.849 153.703C247.546 155.061 249.215 158.714 252.27 158.037C252.27 158.037 250.554 160.119 251.269 162.413C251.983 164.708 253.563 165.14 256.482 164.604C256.482 164.604 254.501 167.565 256.055 169.074C257.608 170.583 260.028 170.203 260.028 170.203C260.028 170.203 260.059 173.809 261.967 174.121C263.875 174.433 269.193 174.064 271.179 173.455L281.268 170.333L287.806 168.871L288.958 150.794Z" fill="#FFBF9D"/>
<path d="M261.357 155.374C261.414 155.571 259.418 156.321 256.905 157.054C254.392 157.788 252.296 158.215 252.239 158.017C252.181 157.819 254.178 157.065 256.691 156.336C259.204 155.608 261.3 155.176 261.357 155.374Z" fill="#FF9A6C"/>
<path d="M263.907 162.487C263.964 162.684 262.385 163.335 260.372 163.944C258.36 164.552 256.676 164.875 256.613 164.677C256.551 164.48 258.141 163.829 260.153 163.226C262.166 162.622 263.85 162.294 263.907 162.487Z" fill="#FF9A6C"/>
<path d="M266.195 168.403C266.231 168.627 264.792 168.923 263.103 169.35C261.414 169.777 260.095 170.391 259.975 170.177C259.855 169.964 261.096 169.105 262.894 168.616C264.693 168.127 266.169 168.221 266.195 168.403Z" fill="#FF9A6C"/>
<path d="M268.088 145.716C268.146 145.919 266.18 146.632 263.746 147.47C261.311 148.308 259.324 148.948 259.241 148.755C259.158 148.562 261.045 147.605 263.506 146.762C265.966 145.919 268.036 145.519 268.088 145.716Z" fill="#FF9A6C"/>
<path d="M286.132 149.483L318.608 161.222L316.71 183.467L280.955 169.079L286.132 149.483Z" fill="#FFBF9D"/>
<path d="M327.799 110.557C327.799 110.557 332.033 114.922 334.499 122.774C336.965 130.626 348.576 163.912 348.294 174.501C347.986 185.454 340.599 193.27 324.364 188.941C314.677 186.339 303.134 182.176 303.134 182.176L311.34 155.254L317.758 156.903L307.393 137.484L327.799 110.557Z" fill="#AC302C"/>
<path d="M320.365 123.279C320.428 123.326 315.934 129.71 310.334 137.542C304.735 145.373 300.152 151.7 300.09 151.648C300.027 151.596 304.521 145.216 310.12 137.385C315.72 129.554 320.308 123.237 320.365 123.279Z" fill="#263238"/>
<path d="M332.794 160.546C332.794 160.546 332.512 160.411 332.006 160.176C331.286 159.856 330.542 159.593 329.78 159.391C328.816 159.125 327.648 158.87 326.349 158.595L322.137 157.668C319.15 157.002 316.444 156.383 314.494 155.92L312.184 155.358C311.898 155.303 311.617 155.223 311.345 155.119C311.635 155.142 311.922 155.189 312.205 155.259L314.535 155.733C316.501 156.149 319.228 156.737 322.199 157.403L326.407 158.355C327.7 158.647 328.868 158.917 329.832 159.209C330.598 159.43 331.342 159.723 332.053 160.083C332.246 160.181 332.432 160.29 332.611 160.41C332.678 160.447 332.739 160.493 332.794 160.546V160.546Z" fill="#263238"/>
<g opacity="0.3">
<path d="M341.093 161.732C340.989 161.093 340.732 160.488 340.344 159.97C339.955 159.452 339.447 159.035 338.862 158.755C337.688 158.201 336.423 157.863 335.129 157.756C329.295 156.955 323.393 156.716 317.507 156.513L318.028 156.747C325.3 158.088 332.418 160.16 339.274 162.928C339.649 163.136 340.091 163.188 340.504 163.074C340.728 162.937 340.904 162.735 341.009 162.495C341.114 162.255 341.144 161.989 341.093 161.732V161.732Z" fill="black"/>
</g>
<g opacity="0.3">
<path d="M207.303 58.5176C201.829 57.5862 195.28 59.1732 189.806 58.2418C188.993 58.1065 188.096 57.9764 187.377 58.3927C186.511 58.887 186.214 59.9901 186.172 60.9944C186.15 62.3723 186.417 63.7395 186.956 65.0084C187.495 66.2773 188.293 67.4197 189.3 68.3624C191.35 70.2329 193.911 71.4536 196.657 71.8695C198.841 72.2389 201.193 72.1661 203.137 71.115C206.557 69.2626 208.2 62.2692 207.303 58.5176Z" fill="black"/>
</g>
<path d="M186.056 68.5136C186.056 68.5136 182.735 64.6267 182.256 62.8367C181.938 61.6503 182.094 58.3254 182.256 56.218C182.292 55.5079 182.537 54.824 182.958 54.2507C183.38 53.6774 183.96 53.2398 184.628 52.9919C184.823 52.895 185.042 52.8531 185.259 52.8705C185.477 52.8879 185.686 52.964 185.864 53.0908C186.314 52.4803 186.821 51.9125 187.375 51.3945C188.679 50.0624 189.299 49.1622 192.167 49.9895C192.167 49.9895 194.278 47.7677 195.493 47.9342C196.308 48.0546 197.115 48.2284 197.907 48.4545C197.907 48.4545 202.531 48.2568 203.48 49.7242C204.019 50.3866 204.746 50.8709 205.566 51.1135C206.289 51.3682 206.954 51.7652 207.521 52.2809C208.088 52.7966 208.545 53.4206 208.866 54.1158C209.406 55.3928 209.718 56.754 209.789 58.1381L205.097 58.3254C205.097 58.3254 205.43 69.1016 204.247 69.9706C203.063 70.8395 202.615 70.5273 202.615 70.5273C202.615 70.5273 201.713 73.0562 198.194 71.1882C198.194 71.1882 195.274 72.0675 194.023 70.8655C192.772 69.6636 188.194 58.1172 188.194 58.1172L188.324 63.841C188.324 63.841 190.738 67.551 189.555 68.4199C188.371 69.2889 186.056 68.5136 186.056 68.5136Z" fill="#FFBF9D"/>
<path d="M191.916 53.9072C192.027 54.1233 192.116 54.3499 192.182 54.5837L192.818 56.4569C193.339 58.0179 194.054 60.245 194.815 62.6749C195.576 65.1049 196.212 67.358 196.932 68.8358C197.208 69.4311 197.529 70.005 197.891 70.5529C198.146 70.9431 198.308 71.1409 198.292 71.1565C198.277 71.1721 198.235 71.12 198.151 71.0264C198.029 70.8959 197.914 70.7586 197.807 70.6153C197.407 70.0841 197.058 69.5161 196.765 68.919C195.988 67.4152 195.336 65.183 194.565 62.7582C193.793 60.3334 193.12 58.1168 192.641 56.5141C192.422 55.7492 192.234 55.1144 192.088 54.6149C192.009 54.3848 191.951 54.1479 191.916 53.9072V53.9072Z" fill="#FF9A6C"/>
<path d="M197.688 52.5752C197.793 52.7985 197.873 53.0322 197.928 53.2724L198.486 55.2029C198.94 56.8316 199.529 59.0898 200.217 61.5875C200.905 64.0851 201.463 66.3538 201.87 67.998C202.063 68.7785 202.219 69.4342 202.344 69.9441C202.414 70.1817 202.46 70.4258 202.48 70.6726C202.381 70.447 202.301 70.2138 202.24 69.9753C202.094 69.455 201.911 68.8202 201.687 68.0449C201.229 66.4162 200.613 64.1579 199.956 61.6603C199.299 59.1627 198.71 56.894 198.298 55.2497C198.111 54.464 197.949 53.8136 197.829 53.2985C197.759 53.0624 197.712 52.8202 197.688 52.5752V52.5752Z" fill="#FF9A6C"/>
</svg>
